%TF.GenerationSoftware,KiCad,Pcbnew,7.0.1-3b83917a11~172~ubuntu22.04.1*%
%TF.CreationDate,2023-03-30T15:08:59+02:00*%
%TF.ProjectId,tht-dip,7468742d-6469-4702-9e6b-696361645f70,rev?*%
%TF.SameCoordinates,Original*%
%TF.FileFunction,AssemblyDrawing,Top*%
%FSLAX46Y46*%
G04 Gerber Fmt 4.6, Leading zero omitted, Abs format (unit mm)*
G04 Created by KiCad (PCBNEW 7.0.1-3b83917a11~172~ubuntu22.04.1) date 2023-03-30 15:08:59*
%MOMM*%
%LPD*%
G01*
G04 APERTURE LIST*
%ADD10C,0.150000*%
%ADD11C,0.120000*%
%ADD12C,0.108000*%
%ADD13C,0.100000*%
G04 APERTURE END LIST*
D10*
%TO.C,C3*%
X99678571Y-76462619D02*
X99107143Y-76462619D01*
X99392857Y-76462619D02*
X99392857Y-75462619D01*
X99392857Y-75462619D02*
X99297619Y-75605476D01*
X99297619Y-75605476D02*
X99202381Y-75700714D01*
X99202381Y-75700714D02*
X99107143Y-75748333D01*
X100297619Y-75462619D02*
X100392857Y-75462619D01*
X100392857Y-75462619D02*
X100488095Y-75510238D01*
X100488095Y-75510238D02*
X100535714Y-75557857D01*
X100535714Y-75557857D02*
X100583333Y-75653095D01*
X100583333Y-75653095D02*
X100630952Y-75843571D01*
X100630952Y-75843571D02*
X100630952Y-76081666D01*
X100630952Y-76081666D02*
X100583333Y-76272142D01*
X100583333Y-76272142D02*
X100535714Y-76367380D01*
X100535714Y-76367380D02*
X100488095Y-76415000D01*
X100488095Y-76415000D02*
X100392857Y-76462619D01*
X100392857Y-76462619D02*
X100297619Y-76462619D01*
X100297619Y-76462619D02*
X100202381Y-76415000D01*
X100202381Y-76415000D02*
X100154762Y-76367380D01*
X100154762Y-76367380D02*
X100107143Y-76272142D01*
X100107143Y-76272142D02*
X100059524Y-76081666D01*
X100059524Y-76081666D02*
X100059524Y-75843571D01*
X100059524Y-75843571D02*
X100107143Y-75653095D01*
X100107143Y-75653095D02*
X100154762Y-75557857D01*
X100154762Y-75557857D02*
X100202381Y-75510238D01*
X100202381Y-75510238D02*
X100297619Y-75462619D01*
X101488095Y-75795952D02*
X101488095Y-76462619D01*
X101059524Y-75795952D02*
X101059524Y-76319761D01*
X101059524Y-76319761D02*
X101107143Y-76415000D01*
X101107143Y-76415000D02*
X101202381Y-76462619D01*
X101202381Y-76462619D02*
X101345238Y-76462619D01*
X101345238Y-76462619D02*
X101440476Y-76415000D01*
X101440476Y-76415000D02*
X101488095Y-76367380D01*
X102297619Y-75938809D02*
X101964286Y-75938809D01*
X101964286Y-76462619D02*
X101964286Y-75462619D01*
X101964286Y-75462619D02*
X102440476Y-75462619D01*
X100583333Y-73867380D02*
X100535714Y-73915000D01*
X100535714Y-73915000D02*
X100392857Y-73962619D01*
X100392857Y-73962619D02*
X100297619Y-73962619D01*
X100297619Y-73962619D02*
X100154762Y-73915000D01*
X100154762Y-73915000D02*
X100059524Y-73819761D01*
X100059524Y-73819761D02*
X100011905Y-73724523D01*
X100011905Y-73724523D02*
X99964286Y-73534047D01*
X99964286Y-73534047D02*
X99964286Y-73391190D01*
X99964286Y-73391190D02*
X100011905Y-73200714D01*
X100011905Y-73200714D02*
X100059524Y-73105476D01*
X100059524Y-73105476D02*
X100154762Y-73010238D01*
X100154762Y-73010238D02*
X100297619Y-72962619D01*
X100297619Y-72962619D02*
X100392857Y-72962619D01*
X100392857Y-72962619D02*
X100535714Y-73010238D01*
X100535714Y-73010238D02*
X100583333Y-73057857D01*
X100916667Y-72962619D02*
X101535714Y-72962619D01*
X101535714Y-72962619D02*
X101202381Y-73343571D01*
X101202381Y-73343571D02*
X101345238Y-73343571D01*
X101345238Y-73343571D02*
X101440476Y-73391190D01*
X101440476Y-73391190D02*
X101488095Y-73438809D01*
X101488095Y-73438809D02*
X101535714Y-73534047D01*
X101535714Y-73534047D02*
X101535714Y-73772142D01*
X101535714Y-73772142D02*
X101488095Y-73867380D01*
X101488095Y-73867380D02*
X101440476Y-73915000D01*
X101440476Y-73915000D02*
X101345238Y-73962619D01*
X101345238Y-73962619D02*
X101059524Y-73962619D01*
X101059524Y-73962619D02*
X100964286Y-73915000D01*
X100964286Y-73915000D02*
X100916667Y-73867380D01*
%TO.C,C5*%
X117462619Y-36821428D02*
X117462619Y-37392856D01*
X117462619Y-37107142D02*
X116462619Y-37107142D01*
X116462619Y-37107142D02*
X116605476Y-37202380D01*
X116605476Y-37202380D02*
X116700714Y-37297618D01*
X116700714Y-37297618D02*
X116748333Y-37392856D01*
X116462619Y-36202380D02*
X116462619Y-36107142D01*
X116462619Y-36107142D02*
X116510238Y-36011904D01*
X116510238Y-36011904D02*
X116557857Y-35964285D01*
X116557857Y-35964285D02*
X116653095Y-35916666D01*
X116653095Y-35916666D02*
X116843571Y-35869047D01*
X116843571Y-35869047D02*
X117081666Y-35869047D01*
X117081666Y-35869047D02*
X117272142Y-35916666D01*
X117272142Y-35916666D02*
X117367380Y-35964285D01*
X117367380Y-35964285D02*
X117415000Y-36011904D01*
X117415000Y-36011904D02*
X117462619Y-36107142D01*
X117462619Y-36107142D02*
X117462619Y-36202380D01*
X117462619Y-36202380D02*
X117415000Y-36297618D01*
X117415000Y-36297618D02*
X117367380Y-36345237D01*
X117367380Y-36345237D02*
X117272142Y-36392856D01*
X117272142Y-36392856D02*
X117081666Y-36440475D01*
X117081666Y-36440475D02*
X116843571Y-36440475D01*
X116843571Y-36440475D02*
X116653095Y-36392856D01*
X116653095Y-36392856D02*
X116557857Y-36345237D01*
X116557857Y-36345237D02*
X116510238Y-36297618D01*
X116510238Y-36297618D02*
X116462619Y-36202380D01*
X116795952Y-35011904D02*
X117462619Y-35011904D01*
X116795952Y-35440475D02*
X117319761Y-35440475D01*
X117319761Y-35440475D02*
X117415000Y-35392856D01*
X117415000Y-35392856D02*
X117462619Y-35297618D01*
X117462619Y-35297618D02*
X117462619Y-35154761D01*
X117462619Y-35154761D02*
X117415000Y-35059523D01*
X117415000Y-35059523D02*
X117367380Y-35011904D01*
X116938809Y-34202380D02*
X116938809Y-34535713D01*
X117462619Y-34535713D02*
X116462619Y-34535713D01*
X116462619Y-34535713D02*
X116462619Y-34059523D01*
X114867380Y-35916666D02*
X114915000Y-35964285D01*
X114915000Y-35964285D02*
X114962619Y-36107142D01*
X114962619Y-36107142D02*
X114962619Y-36202380D01*
X114962619Y-36202380D02*
X114915000Y-36345237D01*
X114915000Y-36345237D02*
X114819761Y-36440475D01*
X114819761Y-36440475D02*
X114724523Y-36488094D01*
X114724523Y-36488094D02*
X114534047Y-36535713D01*
X114534047Y-36535713D02*
X114391190Y-36535713D01*
X114391190Y-36535713D02*
X114200714Y-36488094D01*
X114200714Y-36488094D02*
X114105476Y-36440475D01*
X114105476Y-36440475D02*
X114010238Y-36345237D01*
X114010238Y-36345237D02*
X113962619Y-36202380D01*
X113962619Y-36202380D02*
X113962619Y-36107142D01*
X113962619Y-36107142D02*
X114010238Y-35964285D01*
X114010238Y-35964285D02*
X114057857Y-35916666D01*
X113962619Y-35011904D02*
X113962619Y-35488094D01*
X113962619Y-35488094D02*
X114438809Y-35535713D01*
X114438809Y-35535713D02*
X114391190Y-35488094D01*
X114391190Y-35488094D02*
X114343571Y-35392856D01*
X114343571Y-35392856D02*
X114343571Y-35154761D01*
X114343571Y-35154761D02*
X114391190Y-35059523D01*
X114391190Y-35059523D02*
X114438809Y-35011904D01*
X114438809Y-35011904D02*
X114534047Y-34964285D01*
X114534047Y-34964285D02*
X114772142Y-34964285D01*
X114772142Y-34964285D02*
X114867380Y-35011904D01*
X114867380Y-35011904D02*
X114915000Y-35059523D01*
X114915000Y-35059523D02*
X114962619Y-35154761D01*
X114962619Y-35154761D02*
X114962619Y-35392856D01*
X114962619Y-35392856D02*
X114915000Y-35488094D01*
X114915000Y-35488094D02*
X114867380Y-35535713D01*
%TO.C,C6*%
X117712619Y-74821428D02*
X117712619Y-75392856D01*
X117712619Y-75107142D02*
X116712619Y-75107142D01*
X116712619Y-75107142D02*
X116855476Y-75202380D01*
X116855476Y-75202380D02*
X116950714Y-75297618D01*
X116950714Y-75297618D02*
X116998333Y-75392856D01*
X116712619Y-74202380D02*
X116712619Y-74107142D01*
X116712619Y-74107142D02*
X116760238Y-74011904D01*
X116760238Y-74011904D02*
X116807857Y-73964285D01*
X116807857Y-73964285D02*
X116903095Y-73916666D01*
X116903095Y-73916666D02*
X117093571Y-73869047D01*
X117093571Y-73869047D02*
X117331666Y-73869047D01*
X117331666Y-73869047D02*
X117522142Y-73916666D01*
X117522142Y-73916666D02*
X117617380Y-73964285D01*
X117617380Y-73964285D02*
X117665000Y-74011904D01*
X117665000Y-74011904D02*
X117712619Y-74107142D01*
X117712619Y-74107142D02*
X117712619Y-74202380D01*
X117712619Y-74202380D02*
X117665000Y-74297618D01*
X117665000Y-74297618D02*
X117617380Y-74345237D01*
X117617380Y-74345237D02*
X117522142Y-74392856D01*
X117522142Y-74392856D02*
X117331666Y-74440475D01*
X117331666Y-74440475D02*
X117093571Y-74440475D01*
X117093571Y-74440475D02*
X116903095Y-74392856D01*
X116903095Y-74392856D02*
X116807857Y-74345237D01*
X116807857Y-74345237D02*
X116760238Y-74297618D01*
X116760238Y-74297618D02*
X116712619Y-74202380D01*
X117045952Y-73011904D02*
X117712619Y-73011904D01*
X117045952Y-73440475D02*
X117569761Y-73440475D01*
X117569761Y-73440475D02*
X117665000Y-73392856D01*
X117665000Y-73392856D02*
X117712619Y-73297618D01*
X117712619Y-73297618D02*
X117712619Y-73154761D01*
X117712619Y-73154761D02*
X117665000Y-73059523D01*
X117665000Y-73059523D02*
X117617380Y-73011904D01*
X117188809Y-72202380D02*
X117188809Y-72535713D01*
X117712619Y-72535713D02*
X116712619Y-72535713D01*
X116712619Y-72535713D02*
X116712619Y-72059523D01*
X115117380Y-73916666D02*
X115165000Y-73964285D01*
X115165000Y-73964285D02*
X115212619Y-74107142D01*
X115212619Y-74107142D02*
X115212619Y-74202380D01*
X115212619Y-74202380D02*
X115165000Y-74345237D01*
X115165000Y-74345237D02*
X115069761Y-74440475D01*
X115069761Y-74440475D02*
X114974523Y-74488094D01*
X114974523Y-74488094D02*
X114784047Y-74535713D01*
X114784047Y-74535713D02*
X114641190Y-74535713D01*
X114641190Y-74535713D02*
X114450714Y-74488094D01*
X114450714Y-74488094D02*
X114355476Y-74440475D01*
X114355476Y-74440475D02*
X114260238Y-74345237D01*
X114260238Y-74345237D02*
X114212619Y-74202380D01*
X114212619Y-74202380D02*
X114212619Y-74107142D01*
X114212619Y-74107142D02*
X114260238Y-73964285D01*
X114260238Y-73964285D02*
X114307857Y-73916666D01*
X114212619Y-73059523D02*
X114212619Y-73249999D01*
X114212619Y-73249999D02*
X114260238Y-73345237D01*
X114260238Y-73345237D02*
X114307857Y-73392856D01*
X114307857Y-73392856D02*
X114450714Y-73488094D01*
X114450714Y-73488094D02*
X114641190Y-73535713D01*
X114641190Y-73535713D02*
X115022142Y-73535713D01*
X115022142Y-73535713D02*
X115117380Y-73488094D01*
X115117380Y-73488094D02*
X115165000Y-73440475D01*
X115165000Y-73440475D02*
X115212619Y-73345237D01*
X115212619Y-73345237D02*
X115212619Y-73154761D01*
X115212619Y-73154761D02*
X115165000Y-73059523D01*
X115165000Y-73059523D02*
X115117380Y-73011904D01*
X115117380Y-73011904D02*
X115022142Y-72964285D01*
X115022142Y-72964285D02*
X114784047Y-72964285D01*
X114784047Y-72964285D02*
X114688809Y-73011904D01*
X114688809Y-73011904D02*
X114641190Y-73059523D01*
X114641190Y-73059523D02*
X114593571Y-73154761D01*
X114593571Y-73154761D02*
X114593571Y-73345237D01*
X114593571Y-73345237D02*
X114641190Y-73440475D01*
X114641190Y-73440475D02*
X114688809Y-73488094D01*
X114688809Y-73488094D02*
X114784047Y-73535713D01*
%TO.C,C7*%
X64045952Y-48166666D02*
X64712619Y-48166666D01*
X63665000Y-48404761D02*
X64379285Y-48642856D01*
X64379285Y-48642856D02*
X64379285Y-48023809D01*
X63712619Y-47738094D02*
X63712619Y-47071428D01*
X63712619Y-47071428D02*
X64712619Y-47499999D01*
X64045952Y-46261904D02*
X64712619Y-46261904D01*
X64045952Y-46690475D02*
X64569761Y-46690475D01*
X64569761Y-46690475D02*
X64665000Y-46642856D01*
X64665000Y-46642856D02*
X64712619Y-46547618D01*
X64712619Y-46547618D02*
X64712619Y-46404761D01*
X64712619Y-46404761D02*
X64665000Y-46309523D01*
X64665000Y-46309523D02*
X64617380Y-46261904D01*
X64188809Y-45452380D02*
X64188809Y-45785713D01*
X64712619Y-45785713D02*
X63712619Y-45785713D01*
X63712619Y-45785713D02*
X63712619Y-45309523D01*
X60867380Y-47166666D02*
X60915000Y-47214285D01*
X60915000Y-47214285D02*
X60962619Y-47357142D01*
X60962619Y-47357142D02*
X60962619Y-47452380D01*
X60962619Y-47452380D02*
X60915000Y-47595237D01*
X60915000Y-47595237D02*
X60819761Y-47690475D01*
X60819761Y-47690475D02*
X60724523Y-47738094D01*
X60724523Y-47738094D02*
X60534047Y-47785713D01*
X60534047Y-47785713D02*
X60391190Y-47785713D01*
X60391190Y-47785713D02*
X60200714Y-47738094D01*
X60200714Y-47738094D02*
X60105476Y-47690475D01*
X60105476Y-47690475D02*
X60010238Y-47595237D01*
X60010238Y-47595237D02*
X59962619Y-47452380D01*
X59962619Y-47452380D02*
X59962619Y-47357142D01*
X59962619Y-47357142D02*
X60010238Y-47214285D01*
X60010238Y-47214285D02*
X60057857Y-47166666D01*
X59962619Y-46833332D02*
X59962619Y-46166666D01*
X59962619Y-46166666D02*
X60962619Y-46595237D01*
%TO.C,C8*%
X58462619Y-56321428D02*
X58462619Y-56892856D01*
X58462619Y-56607142D02*
X57462619Y-56607142D01*
X57462619Y-56607142D02*
X57605476Y-56702380D01*
X57605476Y-56702380D02*
X57700714Y-56797618D01*
X57700714Y-56797618D02*
X57748333Y-56892856D01*
X57462619Y-55702380D02*
X57462619Y-55607142D01*
X57462619Y-55607142D02*
X57510238Y-55511904D01*
X57510238Y-55511904D02*
X57557857Y-55464285D01*
X57557857Y-55464285D02*
X57653095Y-55416666D01*
X57653095Y-55416666D02*
X57843571Y-55369047D01*
X57843571Y-55369047D02*
X58081666Y-55369047D01*
X58081666Y-55369047D02*
X58272142Y-55416666D01*
X58272142Y-55416666D02*
X58367380Y-55464285D01*
X58367380Y-55464285D02*
X58415000Y-55511904D01*
X58415000Y-55511904D02*
X58462619Y-55607142D01*
X58462619Y-55607142D02*
X58462619Y-55702380D01*
X58462619Y-55702380D02*
X58415000Y-55797618D01*
X58415000Y-55797618D02*
X58367380Y-55845237D01*
X58367380Y-55845237D02*
X58272142Y-55892856D01*
X58272142Y-55892856D02*
X58081666Y-55940475D01*
X58081666Y-55940475D02*
X57843571Y-55940475D01*
X57843571Y-55940475D02*
X57653095Y-55892856D01*
X57653095Y-55892856D02*
X57557857Y-55845237D01*
X57557857Y-55845237D02*
X57510238Y-55797618D01*
X57510238Y-55797618D02*
X57462619Y-55702380D01*
X57795952Y-54511904D02*
X58462619Y-54511904D01*
X57795952Y-54940475D02*
X58319761Y-54940475D01*
X58319761Y-54940475D02*
X58415000Y-54892856D01*
X58415000Y-54892856D02*
X58462619Y-54797618D01*
X58462619Y-54797618D02*
X58462619Y-54654761D01*
X58462619Y-54654761D02*
X58415000Y-54559523D01*
X58415000Y-54559523D02*
X58367380Y-54511904D01*
X57938809Y-53702380D02*
X57938809Y-54035713D01*
X58462619Y-54035713D02*
X57462619Y-54035713D01*
X57462619Y-54035713D02*
X57462619Y-53559523D01*
X55867380Y-55416666D02*
X55915000Y-55464285D01*
X55915000Y-55464285D02*
X55962619Y-55607142D01*
X55962619Y-55607142D02*
X55962619Y-55702380D01*
X55962619Y-55702380D02*
X55915000Y-55845237D01*
X55915000Y-55845237D02*
X55819761Y-55940475D01*
X55819761Y-55940475D02*
X55724523Y-55988094D01*
X55724523Y-55988094D02*
X55534047Y-56035713D01*
X55534047Y-56035713D02*
X55391190Y-56035713D01*
X55391190Y-56035713D02*
X55200714Y-55988094D01*
X55200714Y-55988094D02*
X55105476Y-55940475D01*
X55105476Y-55940475D02*
X55010238Y-55845237D01*
X55010238Y-55845237D02*
X54962619Y-55702380D01*
X54962619Y-55702380D02*
X54962619Y-55607142D01*
X54962619Y-55607142D02*
X55010238Y-55464285D01*
X55010238Y-55464285D02*
X55057857Y-55416666D01*
X55391190Y-54845237D02*
X55343571Y-54940475D01*
X55343571Y-54940475D02*
X55295952Y-54988094D01*
X55295952Y-54988094D02*
X55200714Y-55035713D01*
X55200714Y-55035713D02*
X55153095Y-55035713D01*
X55153095Y-55035713D02*
X55057857Y-54988094D01*
X55057857Y-54988094D02*
X55010238Y-54940475D01*
X55010238Y-54940475D02*
X54962619Y-54845237D01*
X54962619Y-54845237D02*
X54962619Y-54654761D01*
X54962619Y-54654761D02*
X55010238Y-54559523D01*
X55010238Y-54559523D02*
X55057857Y-54511904D01*
X55057857Y-54511904D02*
X55153095Y-54464285D01*
X55153095Y-54464285D02*
X55200714Y-54464285D01*
X55200714Y-54464285D02*
X55295952Y-54511904D01*
X55295952Y-54511904D02*
X55343571Y-54559523D01*
X55343571Y-54559523D02*
X55391190Y-54654761D01*
X55391190Y-54654761D02*
X55391190Y-54845237D01*
X55391190Y-54845237D02*
X55438809Y-54940475D01*
X55438809Y-54940475D02*
X55486428Y-54988094D01*
X55486428Y-54988094D02*
X55581666Y-55035713D01*
X55581666Y-55035713D02*
X55772142Y-55035713D01*
X55772142Y-55035713D02*
X55867380Y-54988094D01*
X55867380Y-54988094D02*
X55915000Y-54940475D01*
X55915000Y-54940475D02*
X55962619Y-54845237D01*
X55962619Y-54845237D02*
X55962619Y-54654761D01*
X55962619Y-54654761D02*
X55915000Y-54559523D01*
X55915000Y-54559523D02*
X55867380Y-54511904D01*
X55867380Y-54511904D02*
X55772142Y-54464285D01*
X55772142Y-54464285D02*
X55581666Y-54464285D01*
X55581666Y-54464285D02*
X55486428Y-54511904D01*
X55486428Y-54511904D02*
X55438809Y-54559523D01*
X55438809Y-54559523D02*
X55391190Y-54654761D01*
%TO.C,C9*%
X56545952Y-64666666D02*
X57212619Y-64666666D01*
X56165000Y-64904761D02*
X56879285Y-65142856D01*
X56879285Y-65142856D02*
X56879285Y-64523809D01*
X56212619Y-64238094D02*
X56212619Y-63571428D01*
X56212619Y-63571428D02*
X57212619Y-63999999D01*
X56545952Y-62761904D02*
X57212619Y-62761904D01*
X56545952Y-63190475D02*
X57069761Y-63190475D01*
X57069761Y-63190475D02*
X57165000Y-63142856D01*
X57165000Y-63142856D02*
X57212619Y-63047618D01*
X57212619Y-63047618D02*
X57212619Y-62904761D01*
X57212619Y-62904761D02*
X57165000Y-62809523D01*
X57165000Y-62809523D02*
X57117380Y-62761904D01*
X56688809Y-61952380D02*
X56688809Y-62285713D01*
X57212619Y-62285713D02*
X56212619Y-62285713D01*
X56212619Y-62285713D02*
X56212619Y-61809523D01*
X60867380Y-63666666D02*
X60915000Y-63714285D01*
X60915000Y-63714285D02*
X60962619Y-63857142D01*
X60962619Y-63857142D02*
X60962619Y-63952380D01*
X60962619Y-63952380D02*
X60915000Y-64095237D01*
X60915000Y-64095237D02*
X60819761Y-64190475D01*
X60819761Y-64190475D02*
X60724523Y-64238094D01*
X60724523Y-64238094D02*
X60534047Y-64285713D01*
X60534047Y-64285713D02*
X60391190Y-64285713D01*
X60391190Y-64285713D02*
X60200714Y-64238094D01*
X60200714Y-64238094D02*
X60105476Y-64190475D01*
X60105476Y-64190475D02*
X60010238Y-64095237D01*
X60010238Y-64095237D02*
X59962619Y-63952380D01*
X59962619Y-63952380D02*
X59962619Y-63857142D01*
X59962619Y-63857142D02*
X60010238Y-63714285D01*
X60010238Y-63714285D02*
X60057857Y-63666666D01*
X60962619Y-63190475D02*
X60962619Y-62999999D01*
X60962619Y-62999999D02*
X60915000Y-62904761D01*
X60915000Y-62904761D02*
X60867380Y-62857142D01*
X60867380Y-62857142D02*
X60724523Y-62761904D01*
X60724523Y-62761904D02*
X60534047Y-62714285D01*
X60534047Y-62714285D02*
X60153095Y-62714285D01*
X60153095Y-62714285D02*
X60057857Y-62761904D01*
X60057857Y-62761904D02*
X60010238Y-62809523D01*
X60010238Y-62809523D02*
X59962619Y-62904761D01*
X59962619Y-62904761D02*
X59962619Y-63095237D01*
X59962619Y-63095237D02*
X60010238Y-63190475D01*
X60010238Y-63190475D02*
X60057857Y-63238094D01*
X60057857Y-63238094D02*
X60153095Y-63285713D01*
X60153095Y-63285713D02*
X60391190Y-63285713D01*
X60391190Y-63285713D02*
X60486428Y-63238094D01*
X60486428Y-63238094D02*
X60534047Y-63190475D01*
X60534047Y-63190475D02*
X60581666Y-63095237D01*
X60581666Y-63095237D02*
X60581666Y-62904761D01*
X60581666Y-62904761D02*
X60534047Y-62809523D01*
X60534047Y-62809523D02*
X60486428Y-62761904D01*
X60486428Y-62761904D02*
X60391190Y-62714285D01*
%TO.C,D1*%
X119342619Y-59202857D02*
X119342619Y-59774285D01*
X119342619Y-59488571D02*
X118342619Y-59488571D01*
X118342619Y-59488571D02*
X118485476Y-59583809D01*
X118485476Y-59583809D02*
X118580714Y-59679047D01*
X118580714Y-59679047D02*
X118628333Y-59774285D01*
X119342619Y-58774285D02*
X118342619Y-58774285D01*
X118342619Y-58774285D02*
X119342619Y-58202857D01*
X119342619Y-58202857D02*
X118342619Y-58202857D01*
X118342619Y-57250476D02*
X118342619Y-57726666D01*
X118342619Y-57726666D02*
X118818809Y-57774285D01*
X118818809Y-57774285D02*
X118771190Y-57726666D01*
X118771190Y-57726666D02*
X118723571Y-57631428D01*
X118723571Y-57631428D02*
X118723571Y-57393333D01*
X118723571Y-57393333D02*
X118771190Y-57298095D01*
X118771190Y-57298095D02*
X118818809Y-57250476D01*
X118818809Y-57250476D02*
X118914047Y-57202857D01*
X118914047Y-57202857D02*
X119152142Y-57202857D01*
X119152142Y-57202857D02*
X119247380Y-57250476D01*
X119247380Y-57250476D02*
X119295000Y-57298095D01*
X119295000Y-57298095D02*
X119342619Y-57393333D01*
X119342619Y-57393333D02*
X119342619Y-57631428D01*
X119342619Y-57631428D02*
X119295000Y-57726666D01*
X119295000Y-57726666D02*
X119247380Y-57774285D01*
X118437857Y-56821904D02*
X118390238Y-56774285D01*
X118390238Y-56774285D02*
X118342619Y-56679047D01*
X118342619Y-56679047D02*
X118342619Y-56440952D01*
X118342619Y-56440952D02*
X118390238Y-56345714D01*
X118390238Y-56345714D02*
X118437857Y-56298095D01*
X118437857Y-56298095D02*
X118533095Y-56250476D01*
X118533095Y-56250476D02*
X118628333Y-56250476D01*
X118628333Y-56250476D02*
X118771190Y-56298095D01*
X118771190Y-56298095D02*
X119342619Y-56869523D01*
X119342619Y-56869523D02*
X119342619Y-56250476D01*
X118675952Y-55393333D02*
X119342619Y-55393333D01*
X118295000Y-55631428D02*
X119009285Y-55869523D01*
X119009285Y-55869523D02*
X119009285Y-55250476D01*
X119342619Y-54345714D02*
X119342619Y-54917142D01*
X119342619Y-54631428D02*
X118342619Y-54631428D01*
X118342619Y-54631428D02*
X118485476Y-54726666D01*
X118485476Y-54726666D02*
X118580714Y-54821904D01*
X118580714Y-54821904D02*
X118628333Y-54917142D01*
X118818809Y-53583809D02*
X118866428Y-53440952D01*
X118866428Y-53440952D02*
X118914047Y-53393333D01*
X118914047Y-53393333D02*
X119009285Y-53345714D01*
X119009285Y-53345714D02*
X119152142Y-53345714D01*
X119152142Y-53345714D02*
X119247380Y-53393333D01*
X119247380Y-53393333D02*
X119295000Y-53440952D01*
X119295000Y-53440952D02*
X119342619Y-53536190D01*
X119342619Y-53536190D02*
X119342619Y-53917142D01*
X119342619Y-53917142D02*
X118342619Y-53917142D01*
X118342619Y-53917142D02*
X118342619Y-53583809D01*
X118342619Y-53583809D02*
X118390238Y-53488571D01*
X118390238Y-53488571D02*
X118437857Y-53440952D01*
X118437857Y-53440952D02*
X118533095Y-53393333D01*
X118533095Y-53393333D02*
X118628333Y-53393333D01*
X118628333Y-53393333D02*
X118723571Y-53440952D01*
X118723571Y-53440952D02*
X118771190Y-53488571D01*
X118771190Y-53488571D02*
X118818809Y-53583809D01*
X118818809Y-53583809D02*
X118818809Y-53917142D01*
X118961666Y-52917142D02*
X118961666Y-52155238D01*
X118342619Y-51821904D02*
X118342619Y-51250476D01*
X119342619Y-51536190D02*
X118342619Y-51536190D01*
X119342619Y-50345714D02*
X118866428Y-50679047D01*
X119342619Y-50917142D02*
X118342619Y-50917142D01*
X118342619Y-50917142D02*
X118342619Y-50536190D01*
X118342619Y-50536190D02*
X118390238Y-50440952D01*
X118390238Y-50440952D02*
X118437857Y-50393333D01*
X118437857Y-50393333D02*
X118533095Y-50345714D01*
X118533095Y-50345714D02*
X118675952Y-50345714D01*
X118675952Y-50345714D02*
X118771190Y-50393333D01*
X118771190Y-50393333D02*
X118818809Y-50440952D01*
X118818809Y-50440952D02*
X118866428Y-50536190D01*
X118866428Y-50536190D02*
X118866428Y-50917142D01*
X123262619Y-51511904D02*
X122262619Y-51511904D01*
X123262619Y-50940476D02*
X122691190Y-51369047D01*
X122262619Y-50940476D02*
X122834047Y-51511904D01*
D11*
X121370095Y-55950475D02*
X120570095Y-55950475D01*
X120570095Y-55950475D02*
X120570095Y-55759999D01*
X120570095Y-55759999D02*
X120608190Y-55645713D01*
X120608190Y-55645713D02*
X120684380Y-55569523D01*
X120684380Y-55569523D02*
X120760571Y-55531428D01*
X120760571Y-55531428D02*
X120912952Y-55493332D01*
X120912952Y-55493332D02*
X121027238Y-55493332D01*
X121027238Y-55493332D02*
X121179619Y-55531428D01*
X121179619Y-55531428D02*
X121255809Y-55569523D01*
X121255809Y-55569523D02*
X121332000Y-55645713D01*
X121332000Y-55645713D02*
X121370095Y-55759999D01*
X121370095Y-55759999D02*
X121370095Y-55950475D01*
X121370095Y-54731428D02*
X121370095Y-55188571D01*
X121370095Y-54959999D02*
X120570095Y-54959999D01*
X120570095Y-54959999D02*
X120684380Y-55036190D01*
X120684380Y-55036190D02*
X120760571Y-55112380D01*
X120760571Y-55112380D02*
X120798666Y-55188571D01*
D10*
%TO.C,D2*%
X45342619Y-47952857D02*
X45342619Y-48524285D01*
X45342619Y-48238571D02*
X44342619Y-48238571D01*
X44342619Y-48238571D02*
X44485476Y-48333809D01*
X44485476Y-48333809D02*
X44580714Y-48429047D01*
X44580714Y-48429047D02*
X44628333Y-48524285D01*
X45342619Y-47524285D02*
X44342619Y-47524285D01*
X44342619Y-47524285D02*
X45342619Y-46952857D01*
X45342619Y-46952857D02*
X44342619Y-46952857D01*
X44675952Y-46048095D02*
X45342619Y-46048095D01*
X44295000Y-46286190D02*
X45009285Y-46524285D01*
X45009285Y-46524285D02*
X45009285Y-45905238D01*
X45342619Y-45000476D02*
X45342619Y-45571904D01*
X45342619Y-45286190D02*
X44342619Y-45286190D01*
X44342619Y-45286190D02*
X44485476Y-45381428D01*
X44485476Y-45381428D02*
X44580714Y-45476666D01*
X44580714Y-45476666D02*
X44628333Y-45571904D01*
X44675952Y-44143333D02*
X45342619Y-44143333D01*
X44295000Y-44381428D02*
X45009285Y-44619523D01*
X45009285Y-44619523D02*
X45009285Y-44000476D01*
X44771190Y-43476666D02*
X44723571Y-43571904D01*
X44723571Y-43571904D02*
X44675952Y-43619523D01*
X44675952Y-43619523D02*
X44580714Y-43667142D01*
X44580714Y-43667142D02*
X44533095Y-43667142D01*
X44533095Y-43667142D02*
X44437857Y-43619523D01*
X44437857Y-43619523D02*
X44390238Y-43571904D01*
X44390238Y-43571904D02*
X44342619Y-43476666D01*
X44342619Y-43476666D02*
X44342619Y-43286190D01*
X44342619Y-43286190D02*
X44390238Y-43190952D01*
X44390238Y-43190952D02*
X44437857Y-43143333D01*
X44437857Y-43143333D02*
X44533095Y-43095714D01*
X44533095Y-43095714D02*
X44580714Y-43095714D01*
X44580714Y-43095714D02*
X44675952Y-43143333D01*
X44675952Y-43143333D02*
X44723571Y-43190952D01*
X44723571Y-43190952D02*
X44771190Y-43286190D01*
X44771190Y-43286190D02*
X44771190Y-43476666D01*
X44771190Y-43476666D02*
X44818809Y-43571904D01*
X44818809Y-43571904D02*
X44866428Y-43619523D01*
X44866428Y-43619523D02*
X44961666Y-43667142D01*
X44961666Y-43667142D02*
X45152142Y-43667142D01*
X45152142Y-43667142D02*
X45247380Y-43619523D01*
X45247380Y-43619523D02*
X45295000Y-43571904D01*
X45295000Y-43571904D02*
X45342619Y-43476666D01*
X45342619Y-43476666D02*
X45342619Y-43286190D01*
X45342619Y-43286190D02*
X45295000Y-43190952D01*
X45295000Y-43190952D02*
X45247380Y-43143333D01*
X45247380Y-43143333D02*
X45152142Y-43095714D01*
X45152142Y-43095714D02*
X44961666Y-43095714D01*
X44961666Y-43095714D02*
X44866428Y-43143333D01*
X44866428Y-43143333D02*
X44818809Y-43190952D01*
X44818809Y-43190952D02*
X44771190Y-43286190D01*
D11*
X47370095Y-46700475D02*
X46570095Y-46700475D01*
X46570095Y-46700475D02*
X46570095Y-46509999D01*
X46570095Y-46509999D02*
X46608190Y-46395713D01*
X46608190Y-46395713D02*
X46684380Y-46319523D01*
X46684380Y-46319523D02*
X46760571Y-46281428D01*
X46760571Y-46281428D02*
X46912952Y-46243332D01*
X46912952Y-46243332D02*
X47027238Y-46243332D01*
X47027238Y-46243332D02*
X47179619Y-46281428D01*
X47179619Y-46281428D02*
X47255809Y-46319523D01*
X47255809Y-46319523D02*
X47332000Y-46395713D01*
X47332000Y-46395713D02*
X47370095Y-46509999D01*
X47370095Y-46509999D02*
X47370095Y-46700475D01*
X46646285Y-45938571D02*
X46608190Y-45900475D01*
X46608190Y-45900475D02*
X46570095Y-45824285D01*
X46570095Y-45824285D02*
X46570095Y-45633809D01*
X46570095Y-45633809D02*
X46608190Y-45557618D01*
X46608190Y-45557618D02*
X46646285Y-45519523D01*
X46646285Y-45519523D02*
X46722476Y-45481428D01*
X46722476Y-45481428D02*
X46798666Y-45481428D01*
X46798666Y-45481428D02*
X46912952Y-45519523D01*
X46912952Y-45519523D02*
X47370095Y-45976666D01*
X47370095Y-45976666D02*
X47370095Y-45481428D01*
D10*
X49262619Y-42261904D02*
X48262619Y-42261904D01*
X49262619Y-41690476D02*
X48691190Y-42119047D01*
X48262619Y-41690476D02*
X48834047Y-42261904D01*
%TO.C,D3*%
X45342619Y-66832857D02*
X45342619Y-67404285D01*
X45342619Y-67118571D02*
X44342619Y-67118571D01*
X44342619Y-67118571D02*
X44485476Y-67213809D01*
X44485476Y-67213809D02*
X44580714Y-67309047D01*
X44580714Y-67309047D02*
X44628333Y-67404285D01*
X45342619Y-66404285D02*
X44342619Y-66404285D01*
X44342619Y-66404285D02*
X45342619Y-65832857D01*
X45342619Y-65832857D02*
X44342619Y-65832857D01*
X44675952Y-64928095D02*
X45342619Y-64928095D01*
X44295000Y-65166190D02*
X45009285Y-65404285D01*
X45009285Y-65404285D02*
X45009285Y-64785238D01*
X45342619Y-63880476D02*
X45342619Y-64451904D01*
X45342619Y-64166190D02*
X44342619Y-64166190D01*
X44342619Y-64166190D02*
X44485476Y-64261428D01*
X44485476Y-64261428D02*
X44580714Y-64356666D01*
X44580714Y-64356666D02*
X44628333Y-64451904D01*
X44675952Y-63023333D02*
X45342619Y-63023333D01*
X44295000Y-63261428D02*
X45009285Y-63499523D01*
X45009285Y-63499523D02*
X45009285Y-62880476D01*
X44771190Y-62356666D02*
X44723571Y-62451904D01*
X44723571Y-62451904D02*
X44675952Y-62499523D01*
X44675952Y-62499523D02*
X44580714Y-62547142D01*
X44580714Y-62547142D02*
X44533095Y-62547142D01*
X44533095Y-62547142D02*
X44437857Y-62499523D01*
X44437857Y-62499523D02*
X44390238Y-62451904D01*
X44390238Y-62451904D02*
X44342619Y-62356666D01*
X44342619Y-62356666D02*
X44342619Y-62166190D01*
X44342619Y-62166190D02*
X44390238Y-62070952D01*
X44390238Y-62070952D02*
X44437857Y-62023333D01*
X44437857Y-62023333D02*
X44533095Y-61975714D01*
X44533095Y-61975714D02*
X44580714Y-61975714D01*
X44580714Y-61975714D02*
X44675952Y-62023333D01*
X44675952Y-62023333D02*
X44723571Y-62070952D01*
X44723571Y-62070952D02*
X44771190Y-62166190D01*
X44771190Y-62166190D02*
X44771190Y-62356666D01*
X44771190Y-62356666D02*
X44818809Y-62451904D01*
X44818809Y-62451904D02*
X44866428Y-62499523D01*
X44866428Y-62499523D02*
X44961666Y-62547142D01*
X44961666Y-62547142D02*
X45152142Y-62547142D01*
X45152142Y-62547142D02*
X45247380Y-62499523D01*
X45247380Y-62499523D02*
X45295000Y-62451904D01*
X45295000Y-62451904D02*
X45342619Y-62356666D01*
X45342619Y-62356666D02*
X45342619Y-62166190D01*
X45342619Y-62166190D02*
X45295000Y-62070952D01*
X45295000Y-62070952D02*
X45247380Y-62023333D01*
X45247380Y-62023333D02*
X45152142Y-61975714D01*
X45152142Y-61975714D02*
X44961666Y-61975714D01*
X44961666Y-61975714D02*
X44866428Y-62023333D01*
X44866428Y-62023333D02*
X44818809Y-62070952D01*
X44818809Y-62070952D02*
X44771190Y-62166190D01*
X49262619Y-61141904D02*
X48262619Y-61141904D01*
X49262619Y-60570476D02*
X48691190Y-60999047D01*
X48262619Y-60570476D02*
X48834047Y-61141904D01*
D11*
X47370095Y-65580475D02*
X46570095Y-65580475D01*
X46570095Y-65580475D02*
X46570095Y-65389999D01*
X46570095Y-65389999D02*
X46608190Y-65275713D01*
X46608190Y-65275713D02*
X46684380Y-65199523D01*
X46684380Y-65199523D02*
X46760571Y-65161428D01*
X46760571Y-65161428D02*
X46912952Y-65123332D01*
X46912952Y-65123332D02*
X47027238Y-65123332D01*
X47027238Y-65123332D02*
X47179619Y-65161428D01*
X47179619Y-65161428D02*
X47255809Y-65199523D01*
X47255809Y-65199523D02*
X47332000Y-65275713D01*
X47332000Y-65275713D02*
X47370095Y-65389999D01*
X47370095Y-65389999D02*
X47370095Y-65580475D01*
X46570095Y-64856666D02*
X46570095Y-64361428D01*
X46570095Y-64361428D02*
X46874857Y-64628094D01*
X46874857Y-64628094D02*
X46874857Y-64513809D01*
X46874857Y-64513809D02*
X46912952Y-64437618D01*
X46912952Y-64437618D02*
X46951047Y-64399523D01*
X46951047Y-64399523D02*
X47027238Y-64361428D01*
X47027238Y-64361428D02*
X47217714Y-64361428D01*
X47217714Y-64361428D02*
X47293904Y-64399523D01*
X47293904Y-64399523D02*
X47332000Y-64437618D01*
X47332000Y-64437618D02*
X47370095Y-64513809D01*
X47370095Y-64513809D02*
X47370095Y-64742380D01*
X47370095Y-64742380D02*
X47332000Y-64818571D01*
X47332000Y-64818571D02*
X47293904Y-64856666D01*
D10*
%TO.C,D4*%
X51342619Y-47952857D02*
X51342619Y-48524285D01*
X51342619Y-48238571D02*
X50342619Y-48238571D01*
X50342619Y-48238571D02*
X50485476Y-48333809D01*
X50485476Y-48333809D02*
X50580714Y-48429047D01*
X50580714Y-48429047D02*
X50628333Y-48524285D01*
X51342619Y-47524285D02*
X50342619Y-47524285D01*
X50342619Y-47524285D02*
X51342619Y-46952857D01*
X51342619Y-46952857D02*
X50342619Y-46952857D01*
X50675952Y-46048095D02*
X51342619Y-46048095D01*
X50295000Y-46286190D02*
X51009285Y-46524285D01*
X51009285Y-46524285D02*
X51009285Y-45905238D01*
X51342619Y-45000476D02*
X51342619Y-45571904D01*
X51342619Y-45286190D02*
X50342619Y-45286190D01*
X50342619Y-45286190D02*
X50485476Y-45381428D01*
X50485476Y-45381428D02*
X50580714Y-45476666D01*
X50580714Y-45476666D02*
X50628333Y-45571904D01*
X50675952Y-44143333D02*
X51342619Y-44143333D01*
X50295000Y-44381428D02*
X51009285Y-44619523D01*
X51009285Y-44619523D02*
X51009285Y-44000476D01*
X50771190Y-43476666D02*
X50723571Y-43571904D01*
X50723571Y-43571904D02*
X50675952Y-43619523D01*
X50675952Y-43619523D02*
X50580714Y-43667142D01*
X50580714Y-43667142D02*
X50533095Y-43667142D01*
X50533095Y-43667142D02*
X50437857Y-43619523D01*
X50437857Y-43619523D02*
X50390238Y-43571904D01*
X50390238Y-43571904D02*
X50342619Y-43476666D01*
X50342619Y-43476666D02*
X50342619Y-43286190D01*
X50342619Y-43286190D02*
X50390238Y-43190952D01*
X50390238Y-43190952D02*
X50437857Y-43143333D01*
X50437857Y-43143333D02*
X50533095Y-43095714D01*
X50533095Y-43095714D02*
X50580714Y-43095714D01*
X50580714Y-43095714D02*
X50675952Y-43143333D01*
X50675952Y-43143333D02*
X50723571Y-43190952D01*
X50723571Y-43190952D02*
X50771190Y-43286190D01*
X50771190Y-43286190D02*
X50771190Y-43476666D01*
X50771190Y-43476666D02*
X50818809Y-43571904D01*
X50818809Y-43571904D02*
X50866428Y-43619523D01*
X50866428Y-43619523D02*
X50961666Y-43667142D01*
X50961666Y-43667142D02*
X51152142Y-43667142D01*
X51152142Y-43667142D02*
X51247380Y-43619523D01*
X51247380Y-43619523D02*
X51295000Y-43571904D01*
X51295000Y-43571904D02*
X51342619Y-43476666D01*
X51342619Y-43476666D02*
X51342619Y-43286190D01*
X51342619Y-43286190D02*
X51295000Y-43190952D01*
X51295000Y-43190952D02*
X51247380Y-43143333D01*
X51247380Y-43143333D02*
X51152142Y-43095714D01*
X51152142Y-43095714D02*
X50961666Y-43095714D01*
X50961666Y-43095714D02*
X50866428Y-43143333D01*
X50866428Y-43143333D02*
X50818809Y-43190952D01*
X50818809Y-43190952D02*
X50771190Y-43286190D01*
X55262619Y-42261904D02*
X54262619Y-42261904D01*
X55262619Y-41690476D02*
X54691190Y-42119047D01*
X54262619Y-41690476D02*
X54834047Y-42261904D01*
D11*
X53370095Y-46700475D02*
X52570095Y-46700475D01*
X52570095Y-46700475D02*
X52570095Y-46509999D01*
X52570095Y-46509999D02*
X52608190Y-46395713D01*
X52608190Y-46395713D02*
X52684380Y-46319523D01*
X52684380Y-46319523D02*
X52760571Y-46281428D01*
X52760571Y-46281428D02*
X52912952Y-46243332D01*
X52912952Y-46243332D02*
X53027238Y-46243332D01*
X53027238Y-46243332D02*
X53179619Y-46281428D01*
X53179619Y-46281428D02*
X53255809Y-46319523D01*
X53255809Y-46319523D02*
X53332000Y-46395713D01*
X53332000Y-46395713D02*
X53370095Y-46509999D01*
X53370095Y-46509999D02*
X53370095Y-46700475D01*
X52836761Y-45557618D02*
X53370095Y-45557618D01*
X52532000Y-45748094D02*
X53103428Y-45938571D01*
X53103428Y-45938571D02*
X53103428Y-45443332D01*
D10*
%TO.C,D5*%
X51342619Y-66952857D02*
X51342619Y-67524285D01*
X51342619Y-67238571D02*
X50342619Y-67238571D01*
X50342619Y-67238571D02*
X50485476Y-67333809D01*
X50485476Y-67333809D02*
X50580714Y-67429047D01*
X50580714Y-67429047D02*
X50628333Y-67524285D01*
X51342619Y-66524285D02*
X50342619Y-66524285D01*
X50342619Y-66524285D02*
X51342619Y-65952857D01*
X51342619Y-65952857D02*
X50342619Y-65952857D01*
X50675952Y-65048095D02*
X51342619Y-65048095D01*
X50295000Y-65286190D02*
X51009285Y-65524285D01*
X51009285Y-65524285D02*
X51009285Y-64905238D01*
X51342619Y-64000476D02*
X51342619Y-64571904D01*
X51342619Y-64286190D02*
X50342619Y-64286190D01*
X50342619Y-64286190D02*
X50485476Y-64381428D01*
X50485476Y-64381428D02*
X50580714Y-64476666D01*
X50580714Y-64476666D02*
X50628333Y-64571904D01*
X50675952Y-63143333D02*
X51342619Y-63143333D01*
X50295000Y-63381428D02*
X51009285Y-63619523D01*
X51009285Y-63619523D02*
X51009285Y-63000476D01*
X50771190Y-62476666D02*
X50723571Y-62571904D01*
X50723571Y-62571904D02*
X50675952Y-62619523D01*
X50675952Y-62619523D02*
X50580714Y-62667142D01*
X50580714Y-62667142D02*
X50533095Y-62667142D01*
X50533095Y-62667142D02*
X50437857Y-62619523D01*
X50437857Y-62619523D02*
X50390238Y-62571904D01*
X50390238Y-62571904D02*
X50342619Y-62476666D01*
X50342619Y-62476666D02*
X50342619Y-62286190D01*
X50342619Y-62286190D02*
X50390238Y-62190952D01*
X50390238Y-62190952D02*
X50437857Y-62143333D01*
X50437857Y-62143333D02*
X50533095Y-62095714D01*
X50533095Y-62095714D02*
X50580714Y-62095714D01*
X50580714Y-62095714D02*
X50675952Y-62143333D01*
X50675952Y-62143333D02*
X50723571Y-62190952D01*
X50723571Y-62190952D02*
X50771190Y-62286190D01*
X50771190Y-62286190D02*
X50771190Y-62476666D01*
X50771190Y-62476666D02*
X50818809Y-62571904D01*
X50818809Y-62571904D02*
X50866428Y-62619523D01*
X50866428Y-62619523D02*
X50961666Y-62667142D01*
X50961666Y-62667142D02*
X51152142Y-62667142D01*
X51152142Y-62667142D02*
X51247380Y-62619523D01*
X51247380Y-62619523D02*
X51295000Y-62571904D01*
X51295000Y-62571904D02*
X51342619Y-62476666D01*
X51342619Y-62476666D02*
X51342619Y-62286190D01*
X51342619Y-62286190D02*
X51295000Y-62190952D01*
X51295000Y-62190952D02*
X51247380Y-62143333D01*
X51247380Y-62143333D02*
X51152142Y-62095714D01*
X51152142Y-62095714D02*
X50961666Y-62095714D01*
X50961666Y-62095714D02*
X50866428Y-62143333D01*
X50866428Y-62143333D02*
X50818809Y-62190952D01*
X50818809Y-62190952D02*
X50771190Y-62286190D01*
X55262619Y-61261904D02*
X54262619Y-61261904D01*
X55262619Y-60690476D02*
X54691190Y-61119047D01*
X54262619Y-60690476D02*
X54834047Y-61261904D01*
D11*
X53370095Y-65700475D02*
X52570095Y-65700475D01*
X52570095Y-65700475D02*
X52570095Y-65509999D01*
X52570095Y-65509999D02*
X52608190Y-65395713D01*
X52608190Y-65395713D02*
X52684380Y-65319523D01*
X52684380Y-65319523D02*
X52760571Y-65281428D01*
X52760571Y-65281428D02*
X52912952Y-65243332D01*
X52912952Y-65243332D02*
X53027238Y-65243332D01*
X53027238Y-65243332D02*
X53179619Y-65281428D01*
X53179619Y-65281428D02*
X53255809Y-65319523D01*
X53255809Y-65319523D02*
X53332000Y-65395713D01*
X53332000Y-65395713D02*
X53370095Y-65509999D01*
X53370095Y-65509999D02*
X53370095Y-65700475D01*
X52570095Y-64519523D02*
X52570095Y-64900475D01*
X52570095Y-64900475D02*
X52951047Y-64938571D01*
X52951047Y-64938571D02*
X52912952Y-64900475D01*
X52912952Y-64900475D02*
X52874857Y-64824285D01*
X52874857Y-64824285D02*
X52874857Y-64633809D01*
X52874857Y-64633809D02*
X52912952Y-64557618D01*
X52912952Y-64557618D02*
X52951047Y-64519523D01*
X52951047Y-64519523D02*
X53027238Y-64481428D01*
X53027238Y-64481428D02*
X53217714Y-64481428D01*
X53217714Y-64481428D02*
X53293904Y-64519523D01*
X53293904Y-64519523D02*
X53332000Y-64557618D01*
X53332000Y-64557618D02*
X53370095Y-64633809D01*
X53370095Y-64633809D02*
X53370095Y-64824285D01*
X53370095Y-64824285D02*
X53332000Y-64900475D01*
X53332000Y-64900475D02*
X53293904Y-64938571D01*
D10*
%TO.C,J1*%
X123464284Y-48867380D02*
X123416665Y-48915000D01*
X123416665Y-48915000D02*
X123273808Y-48962619D01*
X123273808Y-48962619D02*
X123178570Y-48962619D01*
X123178570Y-48962619D02*
X123035713Y-48915000D01*
X123035713Y-48915000D02*
X122940475Y-48819761D01*
X122940475Y-48819761D02*
X122892856Y-48724523D01*
X122892856Y-48724523D02*
X122845237Y-48534047D01*
X122845237Y-48534047D02*
X122845237Y-48391190D01*
X122845237Y-48391190D02*
X122892856Y-48200714D01*
X122892856Y-48200714D02*
X122940475Y-48105476D01*
X122940475Y-48105476D02*
X123035713Y-48010238D01*
X123035713Y-48010238D02*
X123178570Y-47962619D01*
X123178570Y-47962619D02*
X123273808Y-47962619D01*
X123273808Y-47962619D02*
X123416665Y-48010238D01*
X123416665Y-48010238D02*
X123464284Y-48057857D01*
X124035713Y-48962619D02*
X123940475Y-48915000D01*
X123940475Y-48915000D02*
X123892856Y-48867380D01*
X123892856Y-48867380D02*
X123845237Y-48772142D01*
X123845237Y-48772142D02*
X123845237Y-48486428D01*
X123845237Y-48486428D02*
X123892856Y-48391190D01*
X123892856Y-48391190D02*
X123940475Y-48343571D01*
X123940475Y-48343571D02*
X124035713Y-48295952D01*
X124035713Y-48295952D02*
X124178570Y-48295952D01*
X124178570Y-48295952D02*
X124273808Y-48343571D01*
X124273808Y-48343571D02*
X124321427Y-48391190D01*
X124321427Y-48391190D02*
X124369046Y-48486428D01*
X124369046Y-48486428D02*
X124369046Y-48772142D01*
X124369046Y-48772142D02*
X124321427Y-48867380D01*
X124321427Y-48867380D02*
X124273808Y-48915000D01*
X124273808Y-48915000D02*
X124178570Y-48962619D01*
X124178570Y-48962619D02*
X124035713Y-48962619D01*
X124797618Y-48295952D02*
X124797618Y-48962619D01*
X124797618Y-48391190D02*
X124845237Y-48343571D01*
X124845237Y-48343571D02*
X124940475Y-48295952D01*
X124940475Y-48295952D02*
X125083332Y-48295952D01*
X125083332Y-48295952D02*
X125178570Y-48343571D01*
X125178570Y-48343571D02*
X125226189Y-48438809D01*
X125226189Y-48438809D02*
X125226189Y-48962619D01*
X125702380Y-48295952D02*
X125702380Y-48962619D01*
X125702380Y-48391190D02*
X125749999Y-48343571D01*
X125749999Y-48343571D02*
X125845237Y-48295952D01*
X125845237Y-48295952D02*
X125988094Y-48295952D01*
X125988094Y-48295952D02*
X126083332Y-48343571D01*
X126083332Y-48343571D02*
X126130951Y-48438809D01*
X126130951Y-48438809D02*
X126130951Y-48962619D01*
X126369047Y-49057857D02*
X127130951Y-49057857D01*
X127559523Y-47962619D02*
X127654761Y-47962619D01*
X127654761Y-47962619D02*
X127749999Y-48010238D01*
X127749999Y-48010238D02*
X127797618Y-48057857D01*
X127797618Y-48057857D02*
X127845237Y-48153095D01*
X127845237Y-48153095D02*
X127892856Y-48343571D01*
X127892856Y-48343571D02*
X127892856Y-48581666D01*
X127892856Y-48581666D02*
X127845237Y-48772142D01*
X127845237Y-48772142D02*
X127797618Y-48867380D01*
X127797618Y-48867380D02*
X127749999Y-48915000D01*
X127749999Y-48915000D02*
X127654761Y-48962619D01*
X127654761Y-48962619D02*
X127559523Y-48962619D01*
X127559523Y-48962619D02*
X127464285Y-48915000D01*
X127464285Y-48915000D02*
X127416666Y-48867380D01*
X127416666Y-48867380D02*
X127369047Y-48772142D01*
X127369047Y-48772142D02*
X127321428Y-48581666D01*
X127321428Y-48581666D02*
X127321428Y-48343571D01*
X127321428Y-48343571D02*
X127369047Y-48153095D01*
X127369047Y-48153095D02*
X127416666Y-48057857D01*
X127416666Y-48057857D02*
X127464285Y-48010238D01*
X127464285Y-48010238D02*
X127559523Y-47962619D01*
X128845237Y-48962619D02*
X128273809Y-48962619D01*
X128559523Y-48962619D02*
X128559523Y-47962619D01*
X128559523Y-47962619D02*
X128464285Y-48105476D01*
X128464285Y-48105476D02*
X128369047Y-48200714D01*
X128369047Y-48200714D02*
X128273809Y-48248333D01*
X129178571Y-48962619D02*
X129702380Y-48295952D01*
X129178571Y-48295952D02*
X129702380Y-48962619D01*
X130273809Y-47962619D02*
X130369047Y-47962619D01*
X130369047Y-47962619D02*
X130464285Y-48010238D01*
X130464285Y-48010238D02*
X130511904Y-48057857D01*
X130511904Y-48057857D02*
X130559523Y-48153095D01*
X130559523Y-48153095D02*
X130607142Y-48343571D01*
X130607142Y-48343571D02*
X130607142Y-48581666D01*
X130607142Y-48581666D02*
X130559523Y-48772142D01*
X130559523Y-48772142D02*
X130511904Y-48867380D01*
X130511904Y-48867380D02*
X130464285Y-48915000D01*
X130464285Y-48915000D02*
X130369047Y-48962619D01*
X130369047Y-48962619D02*
X130273809Y-48962619D01*
X130273809Y-48962619D02*
X130178571Y-48915000D01*
X130178571Y-48915000D02*
X130130952Y-48867380D01*
X130130952Y-48867380D02*
X130083333Y-48772142D01*
X130083333Y-48772142D02*
X130035714Y-48581666D01*
X130035714Y-48581666D02*
X130035714Y-48343571D01*
X130035714Y-48343571D02*
X130083333Y-48153095D01*
X130083333Y-48153095D02*
X130130952Y-48057857D01*
X130130952Y-48057857D02*
X130178571Y-48010238D01*
X130178571Y-48010238D02*
X130273809Y-47962619D01*
X131559523Y-48962619D02*
X130988095Y-48962619D01*
X131273809Y-48962619D02*
X131273809Y-47962619D01*
X131273809Y-47962619D02*
X131178571Y-48105476D01*
X131178571Y-48105476D02*
X131083333Y-48200714D01*
X131083333Y-48200714D02*
X130988095Y-48248333D01*
X131750000Y-49057857D02*
X132511904Y-49057857D01*
X133083333Y-48438809D02*
X132750000Y-48438809D01*
X132750000Y-48962619D02*
X132750000Y-47962619D01*
X132750000Y-47962619D02*
X133226190Y-47962619D01*
X133988095Y-48915000D02*
X133892857Y-48962619D01*
X133892857Y-48962619D02*
X133702381Y-48962619D01*
X133702381Y-48962619D02*
X133607143Y-48915000D01*
X133607143Y-48915000D02*
X133559524Y-48819761D01*
X133559524Y-48819761D02*
X133559524Y-48438809D01*
X133559524Y-48438809D02*
X133607143Y-48343571D01*
X133607143Y-48343571D02*
X133702381Y-48295952D01*
X133702381Y-48295952D02*
X133892857Y-48295952D01*
X133892857Y-48295952D02*
X133988095Y-48343571D01*
X133988095Y-48343571D02*
X134035714Y-48438809D01*
X134035714Y-48438809D02*
X134035714Y-48534047D01*
X134035714Y-48534047D02*
X133559524Y-48629285D01*
X134464286Y-48962619D02*
X134464286Y-48295952D01*
X134464286Y-48391190D02*
X134511905Y-48343571D01*
X134511905Y-48343571D02*
X134607143Y-48295952D01*
X134607143Y-48295952D02*
X134750000Y-48295952D01*
X134750000Y-48295952D02*
X134845238Y-48343571D01*
X134845238Y-48343571D02*
X134892857Y-48438809D01*
X134892857Y-48438809D02*
X134892857Y-48962619D01*
X134892857Y-48438809D02*
X134940476Y-48343571D01*
X134940476Y-48343571D02*
X135035714Y-48295952D01*
X135035714Y-48295952D02*
X135178571Y-48295952D01*
X135178571Y-48295952D02*
X135273810Y-48343571D01*
X135273810Y-48343571D02*
X135321429Y-48438809D01*
X135321429Y-48438809D02*
X135321429Y-48962619D01*
X136226190Y-48962619D02*
X136226190Y-48438809D01*
X136226190Y-48438809D02*
X136178571Y-48343571D01*
X136178571Y-48343571D02*
X136083333Y-48295952D01*
X136083333Y-48295952D02*
X135892857Y-48295952D01*
X135892857Y-48295952D02*
X135797619Y-48343571D01*
X136226190Y-48915000D02*
X136130952Y-48962619D01*
X136130952Y-48962619D02*
X135892857Y-48962619D01*
X135892857Y-48962619D02*
X135797619Y-48915000D01*
X135797619Y-48915000D02*
X135750000Y-48819761D01*
X135750000Y-48819761D02*
X135750000Y-48724523D01*
X135750000Y-48724523D02*
X135797619Y-48629285D01*
X135797619Y-48629285D02*
X135892857Y-48581666D01*
X135892857Y-48581666D02*
X136130952Y-48581666D01*
X136130952Y-48581666D02*
X136226190Y-48534047D01*
X136845238Y-48962619D02*
X136750000Y-48915000D01*
X136750000Y-48915000D02*
X136702381Y-48819761D01*
X136702381Y-48819761D02*
X136702381Y-47962619D01*
X137607143Y-48915000D02*
X137511905Y-48962619D01*
X137511905Y-48962619D02*
X137321429Y-48962619D01*
X137321429Y-48962619D02*
X137226191Y-48915000D01*
X137226191Y-48915000D02*
X137178572Y-48819761D01*
X137178572Y-48819761D02*
X137178572Y-48438809D01*
X137178572Y-48438809D02*
X137226191Y-48343571D01*
X137226191Y-48343571D02*
X137321429Y-48295952D01*
X137321429Y-48295952D02*
X137511905Y-48295952D01*
X137511905Y-48295952D02*
X137607143Y-48343571D01*
X137607143Y-48343571D02*
X137654762Y-48438809D01*
X137654762Y-48438809D02*
X137654762Y-48534047D01*
X137654762Y-48534047D02*
X137178572Y-48629285D01*
X130216666Y-45212619D02*
X130216666Y-45926904D01*
X130216666Y-45926904D02*
X130169047Y-46069761D01*
X130169047Y-46069761D02*
X130073809Y-46165000D01*
X130073809Y-46165000D02*
X129930952Y-46212619D01*
X129930952Y-46212619D02*
X129835714Y-46212619D01*
X131216666Y-46212619D02*
X130645238Y-46212619D01*
X130930952Y-46212619D02*
X130930952Y-45212619D01*
X130930952Y-45212619D02*
X130835714Y-45355476D01*
X130835714Y-45355476D02*
X130740476Y-45450714D01*
X130740476Y-45450714D02*
X130645238Y-45498333D01*
%TO.C,J2*%
X123464284Y-57867380D02*
X123416665Y-57915000D01*
X123416665Y-57915000D02*
X123273808Y-57962619D01*
X123273808Y-57962619D02*
X123178570Y-57962619D01*
X123178570Y-57962619D02*
X123035713Y-57915000D01*
X123035713Y-57915000D02*
X122940475Y-57819761D01*
X122940475Y-57819761D02*
X122892856Y-57724523D01*
X122892856Y-57724523D02*
X122845237Y-57534047D01*
X122845237Y-57534047D02*
X122845237Y-57391190D01*
X122845237Y-57391190D02*
X122892856Y-57200714D01*
X122892856Y-57200714D02*
X122940475Y-57105476D01*
X122940475Y-57105476D02*
X123035713Y-57010238D01*
X123035713Y-57010238D02*
X123178570Y-56962619D01*
X123178570Y-56962619D02*
X123273808Y-56962619D01*
X123273808Y-56962619D02*
X123416665Y-57010238D01*
X123416665Y-57010238D02*
X123464284Y-57057857D01*
X124035713Y-57962619D02*
X123940475Y-57915000D01*
X123940475Y-57915000D02*
X123892856Y-57867380D01*
X123892856Y-57867380D02*
X123845237Y-57772142D01*
X123845237Y-57772142D02*
X123845237Y-57486428D01*
X123845237Y-57486428D02*
X123892856Y-57391190D01*
X123892856Y-57391190D02*
X123940475Y-57343571D01*
X123940475Y-57343571D02*
X124035713Y-57295952D01*
X124035713Y-57295952D02*
X124178570Y-57295952D01*
X124178570Y-57295952D02*
X124273808Y-57343571D01*
X124273808Y-57343571D02*
X124321427Y-57391190D01*
X124321427Y-57391190D02*
X124369046Y-57486428D01*
X124369046Y-57486428D02*
X124369046Y-57772142D01*
X124369046Y-57772142D02*
X124321427Y-57867380D01*
X124321427Y-57867380D02*
X124273808Y-57915000D01*
X124273808Y-57915000D02*
X124178570Y-57962619D01*
X124178570Y-57962619D02*
X124035713Y-57962619D01*
X124797618Y-57295952D02*
X124797618Y-57962619D01*
X124797618Y-57391190D02*
X124845237Y-57343571D01*
X124845237Y-57343571D02*
X124940475Y-57295952D01*
X124940475Y-57295952D02*
X125083332Y-57295952D01*
X125083332Y-57295952D02*
X125178570Y-57343571D01*
X125178570Y-57343571D02*
X125226189Y-57438809D01*
X125226189Y-57438809D02*
X125226189Y-57962619D01*
X125702380Y-57295952D02*
X125702380Y-57962619D01*
X125702380Y-57391190D02*
X125749999Y-57343571D01*
X125749999Y-57343571D02*
X125845237Y-57295952D01*
X125845237Y-57295952D02*
X125988094Y-57295952D01*
X125988094Y-57295952D02*
X126083332Y-57343571D01*
X126083332Y-57343571D02*
X126130951Y-57438809D01*
X126130951Y-57438809D02*
X126130951Y-57962619D01*
X126369047Y-58057857D02*
X127130951Y-58057857D01*
X127559523Y-56962619D02*
X127654761Y-56962619D01*
X127654761Y-56962619D02*
X127749999Y-57010238D01*
X127749999Y-57010238D02*
X127797618Y-57057857D01*
X127797618Y-57057857D02*
X127845237Y-57153095D01*
X127845237Y-57153095D02*
X127892856Y-57343571D01*
X127892856Y-57343571D02*
X127892856Y-57581666D01*
X127892856Y-57581666D02*
X127845237Y-57772142D01*
X127845237Y-57772142D02*
X127797618Y-57867380D01*
X127797618Y-57867380D02*
X127749999Y-57915000D01*
X127749999Y-57915000D02*
X127654761Y-57962619D01*
X127654761Y-57962619D02*
X127559523Y-57962619D01*
X127559523Y-57962619D02*
X127464285Y-57915000D01*
X127464285Y-57915000D02*
X127416666Y-57867380D01*
X127416666Y-57867380D02*
X127369047Y-57772142D01*
X127369047Y-57772142D02*
X127321428Y-57581666D01*
X127321428Y-57581666D02*
X127321428Y-57343571D01*
X127321428Y-57343571D02*
X127369047Y-57153095D01*
X127369047Y-57153095D02*
X127416666Y-57057857D01*
X127416666Y-57057857D02*
X127464285Y-57010238D01*
X127464285Y-57010238D02*
X127559523Y-56962619D01*
X128845237Y-57962619D02*
X128273809Y-57962619D01*
X128559523Y-57962619D02*
X128559523Y-56962619D01*
X128559523Y-56962619D02*
X128464285Y-57105476D01*
X128464285Y-57105476D02*
X128369047Y-57200714D01*
X128369047Y-57200714D02*
X128273809Y-57248333D01*
X129178571Y-57962619D02*
X129702380Y-57295952D01*
X129178571Y-57295952D02*
X129702380Y-57962619D01*
X130273809Y-56962619D02*
X130369047Y-56962619D01*
X130369047Y-56962619D02*
X130464285Y-57010238D01*
X130464285Y-57010238D02*
X130511904Y-57057857D01*
X130511904Y-57057857D02*
X130559523Y-57153095D01*
X130559523Y-57153095D02*
X130607142Y-57343571D01*
X130607142Y-57343571D02*
X130607142Y-57581666D01*
X130607142Y-57581666D02*
X130559523Y-57772142D01*
X130559523Y-57772142D02*
X130511904Y-57867380D01*
X130511904Y-57867380D02*
X130464285Y-57915000D01*
X130464285Y-57915000D02*
X130369047Y-57962619D01*
X130369047Y-57962619D02*
X130273809Y-57962619D01*
X130273809Y-57962619D02*
X130178571Y-57915000D01*
X130178571Y-57915000D02*
X130130952Y-57867380D01*
X130130952Y-57867380D02*
X130083333Y-57772142D01*
X130083333Y-57772142D02*
X130035714Y-57581666D01*
X130035714Y-57581666D02*
X130035714Y-57343571D01*
X130035714Y-57343571D02*
X130083333Y-57153095D01*
X130083333Y-57153095D02*
X130130952Y-57057857D01*
X130130952Y-57057857D02*
X130178571Y-57010238D01*
X130178571Y-57010238D02*
X130273809Y-56962619D01*
X131559523Y-57962619D02*
X130988095Y-57962619D01*
X131273809Y-57962619D02*
X131273809Y-56962619D01*
X131273809Y-56962619D02*
X131178571Y-57105476D01*
X131178571Y-57105476D02*
X131083333Y-57200714D01*
X131083333Y-57200714D02*
X130988095Y-57248333D01*
X131750000Y-58057857D02*
X132511904Y-58057857D01*
X133083333Y-57438809D02*
X132750000Y-57438809D01*
X132750000Y-57962619D02*
X132750000Y-56962619D01*
X132750000Y-56962619D02*
X133226190Y-56962619D01*
X133988095Y-57915000D02*
X133892857Y-57962619D01*
X133892857Y-57962619D02*
X133702381Y-57962619D01*
X133702381Y-57962619D02*
X133607143Y-57915000D01*
X133607143Y-57915000D02*
X133559524Y-57819761D01*
X133559524Y-57819761D02*
X133559524Y-57438809D01*
X133559524Y-57438809D02*
X133607143Y-57343571D01*
X133607143Y-57343571D02*
X133702381Y-57295952D01*
X133702381Y-57295952D02*
X133892857Y-57295952D01*
X133892857Y-57295952D02*
X133988095Y-57343571D01*
X133988095Y-57343571D02*
X134035714Y-57438809D01*
X134035714Y-57438809D02*
X134035714Y-57534047D01*
X134035714Y-57534047D02*
X133559524Y-57629285D01*
X134464286Y-57962619D02*
X134464286Y-57295952D01*
X134464286Y-57391190D02*
X134511905Y-57343571D01*
X134511905Y-57343571D02*
X134607143Y-57295952D01*
X134607143Y-57295952D02*
X134750000Y-57295952D01*
X134750000Y-57295952D02*
X134845238Y-57343571D01*
X134845238Y-57343571D02*
X134892857Y-57438809D01*
X134892857Y-57438809D02*
X134892857Y-57962619D01*
X134892857Y-57438809D02*
X134940476Y-57343571D01*
X134940476Y-57343571D02*
X135035714Y-57295952D01*
X135035714Y-57295952D02*
X135178571Y-57295952D01*
X135178571Y-57295952D02*
X135273810Y-57343571D01*
X135273810Y-57343571D02*
X135321429Y-57438809D01*
X135321429Y-57438809D02*
X135321429Y-57962619D01*
X136226190Y-57962619D02*
X136226190Y-57438809D01*
X136226190Y-57438809D02*
X136178571Y-57343571D01*
X136178571Y-57343571D02*
X136083333Y-57295952D01*
X136083333Y-57295952D02*
X135892857Y-57295952D01*
X135892857Y-57295952D02*
X135797619Y-57343571D01*
X136226190Y-57915000D02*
X136130952Y-57962619D01*
X136130952Y-57962619D02*
X135892857Y-57962619D01*
X135892857Y-57962619D02*
X135797619Y-57915000D01*
X135797619Y-57915000D02*
X135750000Y-57819761D01*
X135750000Y-57819761D02*
X135750000Y-57724523D01*
X135750000Y-57724523D02*
X135797619Y-57629285D01*
X135797619Y-57629285D02*
X135892857Y-57581666D01*
X135892857Y-57581666D02*
X136130952Y-57581666D01*
X136130952Y-57581666D02*
X136226190Y-57534047D01*
X136845238Y-57962619D02*
X136750000Y-57915000D01*
X136750000Y-57915000D02*
X136702381Y-57819761D01*
X136702381Y-57819761D02*
X136702381Y-56962619D01*
X137607143Y-57915000D02*
X137511905Y-57962619D01*
X137511905Y-57962619D02*
X137321429Y-57962619D01*
X137321429Y-57962619D02*
X137226191Y-57915000D01*
X137226191Y-57915000D02*
X137178572Y-57819761D01*
X137178572Y-57819761D02*
X137178572Y-57438809D01*
X137178572Y-57438809D02*
X137226191Y-57343571D01*
X137226191Y-57343571D02*
X137321429Y-57295952D01*
X137321429Y-57295952D02*
X137511905Y-57295952D01*
X137511905Y-57295952D02*
X137607143Y-57343571D01*
X137607143Y-57343571D02*
X137654762Y-57438809D01*
X137654762Y-57438809D02*
X137654762Y-57534047D01*
X137654762Y-57534047D02*
X137178572Y-57629285D01*
X130216666Y-54212619D02*
X130216666Y-54926904D01*
X130216666Y-54926904D02*
X130169047Y-55069761D01*
X130169047Y-55069761D02*
X130073809Y-55165000D01*
X130073809Y-55165000D02*
X129930952Y-55212619D01*
X129930952Y-55212619D02*
X129835714Y-55212619D01*
X130645238Y-54307857D02*
X130692857Y-54260238D01*
X130692857Y-54260238D02*
X130788095Y-54212619D01*
X130788095Y-54212619D02*
X131026190Y-54212619D01*
X131026190Y-54212619D02*
X131121428Y-54260238D01*
X131121428Y-54260238D02*
X131169047Y-54307857D01*
X131169047Y-54307857D02*
X131216666Y-54403095D01*
X131216666Y-54403095D02*
X131216666Y-54498333D01*
X131216666Y-54498333D02*
X131169047Y-54641190D01*
X131169047Y-54641190D02*
X130597619Y-55212619D01*
X130597619Y-55212619D02*
X131216666Y-55212619D01*
%TO.C,J3*%
X31464284Y-44867380D02*
X31416665Y-44915000D01*
X31416665Y-44915000D02*
X31273808Y-44962619D01*
X31273808Y-44962619D02*
X31178570Y-44962619D01*
X31178570Y-44962619D02*
X31035713Y-44915000D01*
X31035713Y-44915000D02*
X30940475Y-44819761D01*
X30940475Y-44819761D02*
X30892856Y-44724523D01*
X30892856Y-44724523D02*
X30845237Y-44534047D01*
X30845237Y-44534047D02*
X30845237Y-44391190D01*
X30845237Y-44391190D02*
X30892856Y-44200714D01*
X30892856Y-44200714D02*
X30940475Y-44105476D01*
X30940475Y-44105476D02*
X31035713Y-44010238D01*
X31035713Y-44010238D02*
X31178570Y-43962619D01*
X31178570Y-43962619D02*
X31273808Y-43962619D01*
X31273808Y-43962619D02*
X31416665Y-44010238D01*
X31416665Y-44010238D02*
X31464284Y-44057857D01*
X32035713Y-44962619D02*
X31940475Y-44915000D01*
X31940475Y-44915000D02*
X31892856Y-44867380D01*
X31892856Y-44867380D02*
X31845237Y-44772142D01*
X31845237Y-44772142D02*
X31845237Y-44486428D01*
X31845237Y-44486428D02*
X31892856Y-44391190D01*
X31892856Y-44391190D02*
X31940475Y-44343571D01*
X31940475Y-44343571D02*
X32035713Y-44295952D01*
X32035713Y-44295952D02*
X32178570Y-44295952D01*
X32178570Y-44295952D02*
X32273808Y-44343571D01*
X32273808Y-44343571D02*
X32321427Y-44391190D01*
X32321427Y-44391190D02*
X32369046Y-44486428D01*
X32369046Y-44486428D02*
X32369046Y-44772142D01*
X32369046Y-44772142D02*
X32321427Y-44867380D01*
X32321427Y-44867380D02*
X32273808Y-44915000D01*
X32273808Y-44915000D02*
X32178570Y-44962619D01*
X32178570Y-44962619D02*
X32035713Y-44962619D01*
X32797618Y-44295952D02*
X32797618Y-44962619D01*
X32797618Y-44391190D02*
X32845237Y-44343571D01*
X32845237Y-44343571D02*
X32940475Y-44295952D01*
X32940475Y-44295952D02*
X33083332Y-44295952D01*
X33083332Y-44295952D02*
X33178570Y-44343571D01*
X33178570Y-44343571D02*
X33226189Y-44438809D01*
X33226189Y-44438809D02*
X33226189Y-44962619D01*
X33702380Y-44295952D02*
X33702380Y-44962619D01*
X33702380Y-44391190D02*
X33749999Y-44343571D01*
X33749999Y-44343571D02*
X33845237Y-44295952D01*
X33845237Y-44295952D02*
X33988094Y-44295952D01*
X33988094Y-44295952D02*
X34083332Y-44343571D01*
X34083332Y-44343571D02*
X34130951Y-44438809D01*
X34130951Y-44438809D02*
X34130951Y-44962619D01*
X34369047Y-45057857D02*
X35130951Y-45057857D01*
X35559523Y-43962619D02*
X35654761Y-43962619D01*
X35654761Y-43962619D02*
X35749999Y-44010238D01*
X35749999Y-44010238D02*
X35797618Y-44057857D01*
X35797618Y-44057857D02*
X35845237Y-44153095D01*
X35845237Y-44153095D02*
X35892856Y-44343571D01*
X35892856Y-44343571D02*
X35892856Y-44581666D01*
X35892856Y-44581666D02*
X35845237Y-44772142D01*
X35845237Y-44772142D02*
X35797618Y-44867380D01*
X35797618Y-44867380D02*
X35749999Y-44915000D01*
X35749999Y-44915000D02*
X35654761Y-44962619D01*
X35654761Y-44962619D02*
X35559523Y-44962619D01*
X35559523Y-44962619D02*
X35464285Y-44915000D01*
X35464285Y-44915000D02*
X35416666Y-44867380D01*
X35416666Y-44867380D02*
X35369047Y-44772142D01*
X35369047Y-44772142D02*
X35321428Y-44581666D01*
X35321428Y-44581666D02*
X35321428Y-44343571D01*
X35321428Y-44343571D02*
X35369047Y-44153095D01*
X35369047Y-44153095D02*
X35416666Y-44057857D01*
X35416666Y-44057857D02*
X35464285Y-44010238D01*
X35464285Y-44010238D02*
X35559523Y-43962619D01*
X36845237Y-44962619D02*
X36273809Y-44962619D01*
X36559523Y-44962619D02*
X36559523Y-43962619D01*
X36559523Y-43962619D02*
X36464285Y-44105476D01*
X36464285Y-44105476D02*
X36369047Y-44200714D01*
X36369047Y-44200714D02*
X36273809Y-44248333D01*
X37178571Y-44962619D02*
X37702380Y-44295952D01*
X37178571Y-44295952D02*
X37702380Y-44962619D01*
X38273809Y-43962619D02*
X38369047Y-43962619D01*
X38369047Y-43962619D02*
X38464285Y-44010238D01*
X38464285Y-44010238D02*
X38511904Y-44057857D01*
X38511904Y-44057857D02*
X38559523Y-44153095D01*
X38559523Y-44153095D02*
X38607142Y-44343571D01*
X38607142Y-44343571D02*
X38607142Y-44581666D01*
X38607142Y-44581666D02*
X38559523Y-44772142D01*
X38559523Y-44772142D02*
X38511904Y-44867380D01*
X38511904Y-44867380D02*
X38464285Y-44915000D01*
X38464285Y-44915000D02*
X38369047Y-44962619D01*
X38369047Y-44962619D02*
X38273809Y-44962619D01*
X38273809Y-44962619D02*
X38178571Y-44915000D01*
X38178571Y-44915000D02*
X38130952Y-44867380D01*
X38130952Y-44867380D02*
X38083333Y-44772142D01*
X38083333Y-44772142D02*
X38035714Y-44581666D01*
X38035714Y-44581666D02*
X38035714Y-44343571D01*
X38035714Y-44343571D02*
X38083333Y-44153095D01*
X38083333Y-44153095D02*
X38130952Y-44057857D01*
X38130952Y-44057857D02*
X38178571Y-44010238D01*
X38178571Y-44010238D02*
X38273809Y-43962619D01*
X39559523Y-44962619D02*
X38988095Y-44962619D01*
X39273809Y-44962619D02*
X39273809Y-43962619D01*
X39273809Y-43962619D02*
X39178571Y-44105476D01*
X39178571Y-44105476D02*
X39083333Y-44200714D01*
X39083333Y-44200714D02*
X38988095Y-44248333D01*
X39750000Y-45057857D02*
X40511904Y-45057857D01*
X41083333Y-44438809D02*
X40750000Y-44438809D01*
X40750000Y-44962619D02*
X40750000Y-43962619D01*
X40750000Y-43962619D02*
X41226190Y-43962619D01*
X41988095Y-44915000D02*
X41892857Y-44962619D01*
X41892857Y-44962619D02*
X41702381Y-44962619D01*
X41702381Y-44962619D02*
X41607143Y-44915000D01*
X41607143Y-44915000D02*
X41559524Y-44819761D01*
X41559524Y-44819761D02*
X41559524Y-44438809D01*
X41559524Y-44438809D02*
X41607143Y-44343571D01*
X41607143Y-44343571D02*
X41702381Y-44295952D01*
X41702381Y-44295952D02*
X41892857Y-44295952D01*
X41892857Y-44295952D02*
X41988095Y-44343571D01*
X41988095Y-44343571D02*
X42035714Y-44438809D01*
X42035714Y-44438809D02*
X42035714Y-44534047D01*
X42035714Y-44534047D02*
X41559524Y-44629285D01*
X42464286Y-44962619D02*
X42464286Y-44295952D01*
X42464286Y-44391190D02*
X42511905Y-44343571D01*
X42511905Y-44343571D02*
X42607143Y-44295952D01*
X42607143Y-44295952D02*
X42750000Y-44295952D01*
X42750000Y-44295952D02*
X42845238Y-44343571D01*
X42845238Y-44343571D02*
X42892857Y-44438809D01*
X42892857Y-44438809D02*
X42892857Y-44962619D01*
X42892857Y-44438809D02*
X42940476Y-44343571D01*
X42940476Y-44343571D02*
X43035714Y-44295952D01*
X43035714Y-44295952D02*
X43178571Y-44295952D01*
X43178571Y-44295952D02*
X43273810Y-44343571D01*
X43273810Y-44343571D02*
X43321429Y-44438809D01*
X43321429Y-44438809D02*
X43321429Y-44962619D01*
X44226190Y-44962619D02*
X44226190Y-44438809D01*
X44226190Y-44438809D02*
X44178571Y-44343571D01*
X44178571Y-44343571D02*
X44083333Y-44295952D01*
X44083333Y-44295952D02*
X43892857Y-44295952D01*
X43892857Y-44295952D02*
X43797619Y-44343571D01*
X44226190Y-44915000D02*
X44130952Y-44962619D01*
X44130952Y-44962619D02*
X43892857Y-44962619D01*
X43892857Y-44962619D02*
X43797619Y-44915000D01*
X43797619Y-44915000D02*
X43750000Y-44819761D01*
X43750000Y-44819761D02*
X43750000Y-44724523D01*
X43750000Y-44724523D02*
X43797619Y-44629285D01*
X43797619Y-44629285D02*
X43892857Y-44581666D01*
X43892857Y-44581666D02*
X44130952Y-44581666D01*
X44130952Y-44581666D02*
X44226190Y-44534047D01*
X44845238Y-44962619D02*
X44750000Y-44915000D01*
X44750000Y-44915000D02*
X44702381Y-44819761D01*
X44702381Y-44819761D02*
X44702381Y-43962619D01*
X45607143Y-44915000D02*
X45511905Y-44962619D01*
X45511905Y-44962619D02*
X45321429Y-44962619D01*
X45321429Y-44962619D02*
X45226191Y-44915000D01*
X45226191Y-44915000D02*
X45178572Y-44819761D01*
X45178572Y-44819761D02*
X45178572Y-44438809D01*
X45178572Y-44438809D02*
X45226191Y-44343571D01*
X45226191Y-44343571D02*
X45321429Y-44295952D01*
X45321429Y-44295952D02*
X45511905Y-44295952D01*
X45511905Y-44295952D02*
X45607143Y-44343571D01*
X45607143Y-44343571D02*
X45654762Y-44438809D01*
X45654762Y-44438809D02*
X45654762Y-44534047D01*
X45654762Y-44534047D02*
X45178572Y-44629285D01*
X38216666Y-41212619D02*
X38216666Y-41926904D01*
X38216666Y-41926904D02*
X38169047Y-42069761D01*
X38169047Y-42069761D02*
X38073809Y-42165000D01*
X38073809Y-42165000D02*
X37930952Y-42212619D01*
X37930952Y-42212619D02*
X37835714Y-42212619D01*
X38597619Y-41212619D02*
X39216666Y-41212619D01*
X39216666Y-41212619D02*
X38883333Y-41593571D01*
X38883333Y-41593571D02*
X39026190Y-41593571D01*
X39026190Y-41593571D02*
X39121428Y-41641190D01*
X39121428Y-41641190D02*
X39169047Y-41688809D01*
X39169047Y-41688809D02*
X39216666Y-41784047D01*
X39216666Y-41784047D02*
X39216666Y-42022142D01*
X39216666Y-42022142D02*
X39169047Y-42117380D01*
X39169047Y-42117380D02*
X39121428Y-42165000D01*
X39121428Y-42165000D02*
X39026190Y-42212619D01*
X39026190Y-42212619D02*
X38740476Y-42212619D01*
X38740476Y-42212619D02*
X38645238Y-42165000D01*
X38645238Y-42165000D02*
X38597619Y-42117380D01*
%TO.C,J4*%
X32214284Y-72117380D02*
X32166665Y-72165000D01*
X32166665Y-72165000D02*
X32023808Y-72212619D01*
X32023808Y-72212619D02*
X31928570Y-72212619D01*
X31928570Y-72212619D02*
X31785713Y-72165000D01*
X31785713Y-72165000D02*
X31690475Y-72069761D01*
X31690475Y-72069761D02*
X31642856Y-71974523D01*
X31642856Y-71974523D02*
X31595237Y-71784047D01*
X31595237Y-71784047D02*
X31595237Y-71641190D01*
X31595237Y-71641190D02*
X31642856Y-71450714D01*
X31642856Y-71450714D02*
X31690475Y-71355476D01*
X31690475Y-71355476D02*
X31785713Y-71260238D01*
X31785713Y-71260238D02*
X31928570Y-71212619D01*
X31928570Y-71212619D02*
X32023808Y-71212619D01*
X32023808Y-71212619D02*
X32166665Y-71260238D01*
X32166665Y-71260238D02*
X32214284Y-71307857D01*
X32785713Y-72212619D02*
X32690475Y-72165000D01*
X32690475Y-72165000D02*
X32642856Y-72117380D01*
X32642856Y-72117380D02*
X32595237Y-72022142D01*
X32595237Y-72022142D02*
X32595237Y-71736428D01*
X32595237Y-71736428D02*
X32642856Y-71641190D01*
X32642856Y-71641190D02*
X32690475Y-71593571D01*
X32690475Y-71593571D02*
X32785713Y-71545952D01*
X32785713Y-71545952D02*
X32928570Y-71545952D01*
X32928570Y-71545952D02*
X33023808Y-71593571D01*
X33023808Y-71593571D02*
X33071427Y-71641190D01*
X33071427Y-71641190D02*
X33119046Y-71736428D01*
X33119046Y-71736428D02*
X33119046Y-72022142D01*
X33119046Y-72022142D02*
X33071427Y-72117380D01*
X33071427Y-72117380D02*
X33023808Y-72165000D01*
X33023808Y-72165000D02*
X32928570Y-72212619D01*
X32928570Y-72212619D02*
X32785713Y-72212619D01*
X33547618Y-71545952D02*
X33547618Y-72212619D01*
X33547618Y-71641190D02*
X33595237Y-71593571D01*
X33595237Y-71593571D02*
X33690475Y-71545952D01*
X33690475Y-71545952D02*
X33833332Y-71545952D01*
X33833332Y-71545952D02*
X33928570Y-71593571D01*
X33928570Y-71593571D02*
X33976189Y-71688809D01*
X33976189Y-71688809D02*
X33976189Y-72212619D01*
X34452380Y-71545952D02*
X34452380Y-72212619D01*
X34452380Y-71641190D02*
X34499999Y-71593571D01*
X34499999Y-71593571D02*
X34595237Y-71545952D01*
X34595237Y-71545952D02*
X34738094Y-71545952D01*
X34738094Y-71545952D02*
X34833332Y-71593571D01*
X34833332Y-71593571D02*
X34880951Y-71688809D01*
X34880951Y-71688809D02*
X34880951Y-72212619D01*
X35119047Y-72307857D02*
X35880951Y-72307857D01*
X36309523Y-71212619D02*
X36404761Y-71212619D01*
X36404761Y-71212619D02*
X36499999Y-71260238D01*
X36499999Y-71260238D02*
X36547618Y-71307857D01*
X36547618Y-71307857D02*
X36595237Y-71403095D01*
X36595237Y-71403095D02*
X36642856Y-71593571D01*
X36642856Y-71593571D02*
X36642856Y-71831666D01*
X36642856Y-71831666D02*
X36595237Y-72022142D01*
X36595237Y-72022142D02*
X36547618Y-72117380D01*
X36547618Y-72117380D02*
X36499999Y-72165000D01*
X36499999Y-72165000D02*
X36404761Y-72212619D01*
X36404761Y-72212619D02*
X36309523Y-72212619D01*
X36309523Y-72212619D02*
X36214285Y-72165000D01*
X36214285Y-72165000D02*
X36166666Y-72117380D01*
X36166666Y-72117380D02*
X36119047Y-72022142D01*
X36119047Y-72022142D02*
X36071428Y-71831666D01*
X36071428Y-71831666D02*
X36071428Y-71593571D01*
X36071428Y-71593571D02*
X36119047Y-71403095D01*
X36119047Y-71403095D02*
X36166666Y-71307857D01*
X36166666Y-71307857D02*
X36214285Y-71260238D01*
X36214285Y-71260238D02*
X36309523Y-71212619D01*
X37595237Y-72212619D02*
X37023809Y-72212619D01*
X37309523Y-72212619D02*
X37309523Y-71212619D01*
X37309523Y-71212619D02*
X37214285Y-71355476D01*
X37214285Y-71355476D02*
X37119047Y-71450714D01*
X37119047Y-71450714D02*
X37023809Y-71498333D01*
X37928571Y-72212619D02*
X38452380Y-71545952D01*
X37928571Y-71545952D02*
X38452380Y-72212619D01*
X39023809Y-71212619D02*
X39119047Y-71212619D01*
X39119047Y-71212619D02*
X39214285Y-71260238D01*
X39214285Y-71260238D02*
X39261904Y-71307857D01*
X39261904Y-71307857D02*
X39309523Y-71403095D01*
X39309523Y-71403095D02*
X39357142Y-71593571D01*
X39357142Y-71593571D02*
X39357142Y-71831666D01*
X39357142Y-71831666D02*
X39309523Y-72022142D01*
X39309523Y-72022142D02*
X39261904Y-72117380D01*
X39261904Y-72117380D02*
X39214285Y-72165000D01*
X39214285Y-72165000D02*
X39119047Y-72212619D01*
X39119047Y-72212619D02*
X39023809Y-72212619D01*
X39023809Y-72212619D02*
X38928571Y-72165000D01*
X38928571Y-72165000D02*
X38880952Y-72117380D01*
X38880952Y-72117380D02*
X38833333Y-72022142D01*
X38833333Y-72022142D02*
X38785714Y-71831666D01*
X38785714Y-71831666D02*
X38785714Y-71593571D01*
X38785714Y-71593571D02*
X38833333Y-71403095D01*
X38833333Y-71403095D02*
X38880952Y-71307857D01*
X38880952Y-71307857D02*
X38928571Y-71260238D01*
X38928571Y-71260238D02*
X39023809Y-71212619D01*
X40309523Y-72212619D02*
X39738095Y-72212619D01*
X40023809Y-72212619D02*
X40023809Y-71212619D01*
X40023809Y-71212619D02*
X39928571Y-71355476D01*
X39928571Y-71355476D02*
X39833333Y-71450714D01*
X39833333Y-71450714D02*
X39738095Y-71498333D01*
X40500000Y-72307857D02*
X41261904Y-72307857D01*
X41833333Y-71688809D02*
X41500000Y-71688809D01*
X41500000Y-72212619D02*
X41500000Y-71212619D01*
X41500000Y-71212619D02*
X41976190Y-71212619D01*
X42738095Y-72165000D02*
X42642857Y-72212619D01*
X42642857Y-72212619D02*
X42452381Y-72212619D01*
X42452381Y-72212619D02*
X42357143Y-72165000D01*
X42357143Y-72165000D02*
X42309524Y-72069761D01*
X42309524Y-72069761D02*
X42309524Y-71688809D01*
X42309524Y-71688809D02*
X42357143Y-71593571D01*
X42357143Y-71593571D02*
X42452381Y-71545952D01*
X42452381Y-71545952D02*
X42642857Y-71545952D01*
X42642857Y-71545952D02*
X42738095Y-71593571D01*
X42738095Y-71593571D02*
X42785714Y-71688809D01*
X42785714Y-71688809D02*
X42785714Y-71784047D01*
X42785714Y-71784047D02*
X42309524Y-71879285D01*
X43214286Y-72212619D02*
X43214286Y-71545952D01*
X43214286Y-71641190D02*
X43261905Y-71593571D01*
X43261905Y-71593571D02*
X43357143Y-71545952D01*
X43357143Y-71545952D02*
X43500000Y-71545952D01*
X43500000Y-71545952D02*
X43595238Y-71593571D01*
X43595238Y-71593571D02*
X43642857Y-71688809D01*
X43642857Y-71688809D02*
X43642857Y-72212619D01*
X43642857Y-71688809D02*
X43690476Y-71593571D01*
X43690476Y-71593571D02*
X43785714Y-71545952D01*
X43785714Y-71545952D02*
X43928571Y-71545952D01*
X43928571Y-71545952D02*
X44023810Y-71593571D01*
X44023810Y-71593571D02*
X44071429Y-71688809D01*
X44071429Y-71688809D02*
X44071429Y-72212619D01*
X44976190Y-72212619D02*
X44976190Y-71688809D01*
X44976190Y-71688809D02*
X44928571Y-71593571D01*
X44928571Y-71593571D02*
X44833333Y-71545952D01*
X44833333Y-71545952D02*
X44642857Y-71545952D01*
X44642857Y-71545952D02*
X44547619Y-71593571D01*
X44976190Y-72165000D02*
X44880952Y-72212619D01*
X44880952Y-72212619D02*
X44642857Y-72212619D01*
X44642857Y-72212619D02*
X44547619Y-72165000D01*
X44547619Y-72165000D02*
X44500000Y-72069761D01*
X44500000Y-72069761D02*
X44500000Y-71974523D01*
X44500000Y-71974523D02*
X44547619Y-71879285D01*
X44547619Y-71879285D02*
X44642857Y-71831666D01*
X44642857Y-71831666D02*
X44880952Y-71831666D01*
X44880952Y-71831666D02*
X44976190Y-71784047D01*
X45595238Y-72212619D02*
X45500000Y-72165000D01*
X45500000Y-72165000D02*
X45452381Y-72069761D01*
X45452381Y-72069761D02*
X45452381Y-71212619D01*
X46357143Y-72165000D02*
X46261905Y-72212619D01*
X46261905Y-72212619D02*
X46071429Y-72212619D01*
X46071429Y-72212619D02*
X45976191Y-72165000D01*
X45976191Y-72165000D02*
X45928572Y-72069761D01*
X45928572Y-72069761D02*
X45928572Y-71688809D01*
X45928572Y-71688809D02*
X45976191Y-71593571D01*
X45976191Y-71593571D02*
X46071429Y-71545952D01*
X46071429Y-71545952D02*
X46261905Y-71545952D01*
X46261905Y-71545952D02*
X46357143Y-71593571D01*
X46357143Y-71593571D02*
X46404762Y-71688809D01*
X46404762Y-71688809D02*
X46404762Y-71784047D01*
X46404762Y-71784047D02*
X45928572Y-71879285D01*
X38966666Y-68462619D02*
X38966666Y-69176904D01*
X38966666Y-69176904D02*
X38919047Y-69319761D01*
X38919047Y-69319761D02*
X38823809Y-69415000D01*
X38823809Y-69415000D02*
X38680952Y-69462619D01*
X38680952Y-69462619D02*
X38585714Y-69462619D01*
X39871428Y-68795952D02*
X39871428Y-69462619D01*
X39633333Y-68415000D02*
X39395238Y-69129285D01*
X39395238Y-69129285D02*
X40014285Y-69129285D01*
%TO.C,J5*%
X123464284Y-66867380D02*
X123416665Y-66915000D01*
X123416665Y-66915000D02*
X123273808Y-66962619D01*
X123273808Y-66962619D02*
X123178570Y-66962619D01*
X123178570Y-66962619D02*
X123035713Y-66915000D01*
X123035713Y-66915000D02*
X122940475Y-66819761D01*
X122940475Y-66819761D02*
X122892856Y-66724523D01*
X122892856Y-66724523D02*
X122845237Y-66534047D01*
X122845237Y-66534047D02*
X122845237Y-66391190D01*
X122845237Y-66391190D02*
X122892856Y-66200714D01*
X122892856Y-66200714D02*
X122940475Y-66105476D01*
X122940475Y-66105476D02*
X123035713Y-66010238D01*
X123035713Y-66010238D02*
X123178570Y-65962619D01*
X123178570Y-65962619D02*
X123273808Y-65962619D01*
X123273808Y-65962619D02*
X123416665Y-66010238D01*
X123416665Y-66010238D02*
X123464284Y-66057857D01*
X124035713Y-66962619D02*
X123940475Y-66915000D01*
X123940475Y-66915000D02*
X123892856Y-66867380D01*
X123892856Y-66867380D02*
X123845237Y-66772142D01*
X123845237Y-66772142D02*
X123845237Y-66486428D01*
X123845237Y-66486428D02*
X123892856Y-66391190D01*
X123892856Y-66391190D02*
X123940475Y-66343571D01*
X123940475Y-66343571D02*
X124035713Y-66295952D01*
X124035713Y-66295952D02*
X124178570Y-66295952D01*
X124178570Y-66295952D02*
X124273808Y-66343571D01*
X124273808Y-66343571D02*
X124321427Y-66391190D01*
X124321427Y-66391190D02*
X124369046Y-66486428D01*
X124369046Y-66486428D02*
X124369046Y-66772142D01*
X124369046Y-66772142D02*
X124321427Y-66867380D01*
X124321427Y-66867380D02*
X124273808Y-66915000D01*
X124273808Y-66915000D02*
X124178570Y-66962619D01*
X124178570Y-66962619D02*
X124035713Y-66962619D01*
X124797618Y-66295952D02*
X124797618Y-66962619D01*
X124797618Y-66391190D02*
X124845237Y-66343571D01*
X124845237Y-66343571D02*
X124940475Y-66295952D01*
X124940475Y-66295952D02*
X125083332Y-66295952D01*
X125083332Y-66295952D02*
X125178570Y-66343571D01*
X125178570Y-66343571D02*
X125226189Y-66438809D01*
X125226189Y-66438809D02*
X125226189Y-66962619D01*
X125702380Y-66295952D02*
X125702380Y-66962619D01*
X125702380Y-66391190D02*
X125749999Y-66343571D01*
X125749999Y-66343571D02*
X125845237Y-66295952D01*
X125845237Y-66295952D02*
X125988094Y-66295952D01*
X125988094Y-66295952D02*
X126083332Y-66343571D01*
X126083332Y-66343571D02*
X126130951Y-66438809D01*
X126130951Y-66438809D02*
X126130951Y-66962619D01*
X126369047Y-67057857D02*
X127130951Y-67057857D01*
X127559523Y-65962619D02*
X127654761Y-65962619D01*
X127654761Y-65962619D02*
X127749999Y-66010238D01*
X127749999Y-66010238D02*
X127797618Y-66057857D01*
X127797618Y-66057857D02*
X127845237Y-66153095D01*
X127845237Y-66153095D02*
X127892856Y-66343571D01*
X127892856Y-66343571D02*
X127892856Y-66581666D01*
X127892856Y-66581666D02*
X127845237Y-66772142D01*
X127845237Y-66772142D02*
X127797618Y-66867380D01*
X127797618Y-66867380D02*
X127749999Y-66915000D01*
X127749999Y-66915000D02*
X127654761Y-66962619D01*
X127654761Y-66962619D02*
X127559523Y-66962619D01*
X127559523Y-66962619D02*
X127464285Y-66915000D01*
X127464285Y-66915000D02*
X127416666Y-66867380D01*
X127416666Y-66867380D02*
X127369047Y-66772142D01*
X127369047Y-66772142D02*
X127321428Y-66581666D01*
X127321428Y-66581666D02*
X127321428Y-66343571D01*
X127321428Y-66343571D02*
X127369047Y-66153095D01*
X127369047Y-66153095D02*
X127416666Y-66057857D01*
X127416666Y-66057857D02*
X127464285Y-66010238D01*
X127464285Y-66010238D02*
X127559523Y-65962619D01*
X128845237Y-66962619D02*
X128273809Y-66962619D01*
X128559523Y-66962619D02*
X128559523Y-65962619D01*
X128559523Y-65962619D02*
X128464285Y-66105476D01*
X128464285Y-66105476D02*
X128369047Y-66200714D01*
X128369047Y-66200714D02*
X128273809Y-66248333D01*
X129178571Y-66962619D02*
X129702380Y-66295952D01*
X129178571Y-66295952D02*
X129702380Y-66962619D01*
X130273809Y-65962619D02*
X130369047Y-65962619D01*
X130369047Y-65962619D02*
X130464285Y-66010238D01*
X130464285Y-66010238D02*
X130511904Y-66057857D01*
X130511904Y-66057857D02*
X130559523Y-66153095D01*
X130559523Y-66153095D02*
X130607142Y-66343571D01*
X130607142Y-66343571D02*
X130607142Y-66581666D01*
X130607142Y-66581666D02*
X130559523Y-66772142D01*
X130559523Y-66772142D02*
X130511904Y-66867380D01*
X130511904Y-66867380D02*
X130464285Y-66915000D01*
X130464285Y-66915000D02*
X130369047Y-66962619D01*
X130369047Y-66962619D02*
X130273809Y-66962619D01*
X130273809Y-66962619D02*
X130178571Y-66915000D01*
X130178571Y-66915000D02*
X130130952Y-66867380D01*
X130130952Y-66867380D02*
X130083333Y-66772142D01*
X130083333Y-66772142D02*
X130035714Y-66581666D01*
X130035714Y-66581666D02*
X130035714Y-66343571D01*
X130035714Y-66343571D02*
X130083333Y-66153095D01*
X130083333Y-66153095D02*
X130130952Y-66057857D01*
X130130952Y-66057857D02*
X130178571Y-66010238D01*
X130178571Y-66010238D02*
X130273809Y-65962619D01*
X131559523Y-66962619D02*
X130988095Y-66962619D01*
X131273809Y-66962619D02*
X131273809Y-65962619D01*
X131273809Y-65962619D02*
X131178571Y-66105476D01*
X131178571Y-66105476D02*
X131083333Y-66200714D01*
X131083333Y-66200714D02*
X130988095Y-66248333D01*
X131750000Y-67057857D02*
X132511904Y-67057857D01*
X133083333Y-66438809D02*
X132750000Y-66438809D01*
X132750000Y-66962619D02*
X132750000Y-65962619D01*
X132750000Y-65962619D02*
X133226190Y-65962619D01*
X133988095Y-66915000D02*
X133892857Y-66962619D01*
X133892857Y-66962619D02*
X133702381Y-66962619D01*
X133702381Y-66962619D02*
X133607143Y-66915000D01*
X133607143Y-66915000D02*
X133559524Y-66819761D01*
X133559524Y-66819761D02*
X133559524Y-66438809D01*
X133559524Y-66438809D02*
X133607143Y-66343571D01*
X133607143Y-66343571D02*
X133702381Y-66295952D01*
X133702381Y-66295952D02*
X133892857Y-66295952D01*
X133892857Y-66295952D02*
X133988095Y-66343571D01*
X133988095Y-66343571D02*
X134035714Y-66438809D01*
X134035714Y-66438809D02*
X134035714Y-66534047D01*
X134035714Y-66534047D02*
X133559524Y-66629285D01*
X134464286Y-66962619D02*
X134464286Y-66295952D01*
X134464286Y-66391190D02*
X134511905Y-66343571D01*
X134511905Y-66343571D02*
X134607143Y-66295952D01*
X134607143Y-66295952D02*
X134750000Y-66295952D01*
X134750000Y-66295952D02*
X134845238Y-66343571D01*
X134845238Y-66343571D02*
X134892857Y-66438809D01*
X134892857Y-66438809D02*
X134892857Y-66962619D01*
X134892857Y-66438809D02*
X134940476Y-66343571D01*
X134940476Y-66343571D02*
X135035714Y-66295952D01*
X135035714Y-66295952D02*
X135178571Y-66295952D01*
X135178571Y-66295952D02*
X135273810Y-66343571D01*
X135273810Y-66343571D02*
X135321429Y-66438809D01*
X135321429Y-66438809D02*
X135321429Y-66962619D01*
X136226190Y-66962619D02*
X136226190Y-66438809D01*
X136226190Y-66438809D02*
X136178571Y-66343571D01*
X136178571Y-66343571D02*
X136083333Y-66295952D01*
X136083333Y-66295952D02*
X135892857Y-66295952D01*
X135892857Y-66295952D02*
X135797619Y-66343571D01*
X136226190Y-66915000D02*
X136130952Y-66962619D01*
X136130952Y-66962619D02*
X135892857Y-66962619D01*
X135892857Y-66962619D02*
X135797619Y-66915000D01*
X135797619Y-66915000D02*
X135750000Y-66819761D01*
X135750000Y-66819761D02*
X135750000Y-66724523D01*
X135750000Y-66724523D02*
X135797619Y-66629285D01*
X135797619Y-66629285D02*
X135892857Y-66581666D01*
X135892857Y-66581666D02*
X136130952Y-66581666D01*
X136130952Y-66581666D02*
X136226190Y-66534047D01*
X136845238Y-66962619D02*
X136750000Y-66915000D01*
X136750000Y-66915000D02*
X136702381Y-66819761D01*
X136702381Y-66819761D02*
X136702381Y-65962619D01*
X137607143Y-66915000D02*
X137511905Y-66962619D01*
X137511905Y-66962619D02*
X137321429Y-66962619D01*
X137321429Y-66962619D02*
X137226191Y-66915000D01*
X137226191Y-66915000D02*
X137178572Y-66819761D01*
X137178572Y-66819761D02*
X137178572Y-66438809D01*
X137178572Y-66438809D02*
X137226191Y-66343571D01*
X137226191Y-66343571D02*
X137321429Y-66295952D01*
X137321429Y-66295952D02*
X137511905Y-66295952D01*
X137511905Y-66295952D02*
X137607143Y-66343571D01*
X137607143Y-66343571D02*
X137654762Y-66438809D01*
X137654762Y-66438809D02*
X137654762Y-66534047D01*
X137654762Y-66534047D02*
X137178572Y-66629285D01*
X130216666Y-63212619D02*
X130216666Y-63926904D01*
X130216666Y-63926904D02*
X130169047Y-64069761D01*
X130169047Y-64069761D02*
X130073809Y-64165000D01*
X130073809Y-64165000D02*
X129930952Y-64212619D01*
X129930952Y-64212619D02*
X129835714Y-64212619D01*
X131169047Y-63212619D02*
X130692857Y-63212619D01*
X130692857Y-63212619D02*
X130645238Y-63688809D01*
X130645238Y-63688809D02*
X130692857Y-63641190D01*
X130692857Y-63641190D02*
X130788095Y-63593571D01*
X130788095Y-63593571D02*
X131026190Y-63593571D01*
X131026190Y-63593571D02*
X131121428Y-63641190D01*
X131121428Y-63641190D02*
X131169047Y-63688809D01*
X131169047Y-63688809D02*
X131216666Y-63784047D01*
X131216666Y-63784047D02*
X131216666Y-64022142D01*
X131216666Y-64022142D02*
X131169047Y-64117380D01*
X131169047Y-64117380D02*
X131121428Y-64165000D01*
X131121428Y-64165000D02*
X131026190Y-64212619D01*
X131026190Y-64212619D02*
X130788095Y-64212619D01*
X130788095Y-64212619D02*
X130692857Y-64165000D01*
X130692857Y-64165000D02*
X130645238Y-64117380D01*
%TO.C,J6*%
X31714284Y-58117380D02*
X31666665Y-58165000D01*
X31666665Y-58165000D02*
X31523808Y-58212619D01*
X31523808Y-58212619D02*
X31428570Y-58212619D01*
X31428570Y-58212619D02*
X31285713Y-58165000D01*
X31285713Y-58165000D02*
X31190475Y-58069761D01*
X31190475Y-58069761D02*
X31142856Y-57974523D01*
X31142856Y-57974523D02*
X31095237Y-57784047D01*
X31095237Y-57784047D02*
X31095237Y-57641190D01*
X31095237Y-57641190D02*
X31142856Y-57450714D01*
X31142856Y-57450714D02*
X31190475Y-57355476D01*
X31190475Y-57355476D02*
X31285713Y-57260238D01*
X31285713Y-57260238D02*
X31428570Y-57212619D01*
X31428570Y-57212619D02*
X31523808Y-57212619D01*
X31523808Y-57212619D02*
X31666665Y-57260238D01*
X31666665Y-57260238D02*
X31714284Y-57307857D01*
X32285713Y-58212619D02*
X32190475Y-58165000D01*
X32190475Y-58165000D02*
X32142856Y-58117380D01*
X32142856Y-58117380D02*
X32095237Y-58022142D01*
X32095237Y-58022142D02*
X32095237Y-57736428D01*
X32095237Y-57736428D02*
X32142856Y-57641190D01*
X32142856Y-57641190D02*
X32190475Y-57593571D01*
X32190475Y-57593571D02*
X32285713Y-57545952D01*
X32285713Y-57545952D02*
X32428570Y-57545952D01*
X32428570Y-57545952D02*
X32523808Y-57593571D01*
X32523808Y-57593571D02*
X32571427Y-57641190D01*
X32571427Y-57641190D02*
X32619046Y-57736428D01*
X32619046Y-57736428D02*
X32619046Y-58022142D01*
X32619046Y-58022142D02*
X32571427Y-58117380D01*
X32571427Y-58117380D02*
X32523808Y-58165000D01*
X32523808Y-58165000D02*
X32428570Y-58212619D01*
X32428570Y-58212619D02*
X32285713Y-58212619D01*
X33047618Y-57545952D02*
X33047618Y-58212619D01*
X33047618Y-57641190D02*
X33095237Y-57593571D01*
X33095237Y-57593571D02*
X33190475Y-57545952D01*
X33190475Y-57545952D02*
X33333332Y-57545952D01*
X33333332Y-57545952D02*
X33428570Y-57593571D01*
X33428570Y-57593571D02*
X33476189Y-57688809D01*
X33476189Y-57688809D02*
X33476189Y-58212619D01*
X33952380Y-57545952D02*
X33952380Y-58212619D01*
X33952380Y-57641190D02*
X33999999Y-57593571D01*
X33999999Y-57593571D02*
X34095237Y-57545952D01*
X34095237Y-57545952D02*
X34238094Y-57545952D01*
X34238094Y-57545952D02*
X34333332Y-57593571D01*
X34333332Y-57593571D02*
X34380951Y-57688809D01*
X34380951Y-57688809D02*
X34380951Y-58212619D01*
X34619047Y-58307857D02*
X35380951Y-58307857D01*
X35809523Y-57212619D02*
X35904761Y-57212619D01*
X35904761Y-57212619D02*
X35999999Y-57260238D01*
X35999999Y-57260238D02*
X36047618Y-57307857D01*
X36047618Y-57307857D02*
X36095237Y-57403095D01*
X36095237Y-57403095D02*
X36142856Y-57593571D01*
X36142856Y-57593571D02*
X36142856Y-57831666D01*
X36142856Y-57831666D02*
X36095237Y-58022142D01*
X36095237Y-58022142D02*
X36047618Y-58117380D01*
X36047618Y-58117380D02*
X35999999Y-58165000D01*
X35999999Y-58165000D02*
X35904761Y-58212619D01*
X35904761Y-58212619D02*
X35809523Y-58212619D01*
X35809523Y-58212619D02*
X35714285Y-58165000D01*
X35714285Y-58165000D02*
X35666666Y-58117380D01*
X35666666Y-58117380D02*
X35619047Y-58022142D01*
X35619047Y-58022142D02*
X35571428Y-57831666D01*
X35571428Y-57831666D02*
X35571428Y-57593571D01*
X35571428Y-57593571D02*
X35619047Y-57403095D01*
X35619047Y-57403095D02*
X35666666Y-57307857D01*
X35666666Y-57307857D02*
X35714285Y-57260238D01*
X35714285Y-57260238D02*
X35809523Y-57212619D01*
X37095237Y-58212619D02*
X36523809Y-58212619D01*
X36809523Y-58212619D02*
X36809523Y-57212619D01*
X36809523Y-57212619D02*
X36714285Y-57355476D01*
X36714285Y-57355476D02*
X36619047Y-57450714D01*
X36619047Y-57450714D02*
X36523809Y-57498333D01*
X37428571Y-58212619D02*
X37952380Y-57545952D01*
X37428571Y-57545952D02*
X37952380Y-58212619D01*
X38523809Y-57212619D02*
X38619047Y-57212619D01*
X38619047Y-57212619D02*
X38714285Y-57260238D01*
X38714285Y-57260238D02*
X38761904Y-57307857D01*
X38761904Y-57307857D02*
X38809523Y-57403095D01*
X38809523Y-57403095D02*
X38857142Y-57593571D01*
X38857142Y-57593571D02*
X38857142Y-57831666D01*
X38857142Y-57831666D02*
X38809523Y-58022142D01*
X38809523Y-58022142D02*
X38761904Y-58117380D01*
X38761904Y-58117380D02*
X38714285Y-58165000D01*
X38714285Y-58165000D02*
X38619047Y-58212619D01*
X38619047Y-58212619D02*
X38523809Y-58212619D01*
X38523809Y-58212619D02*
X38428571Y-58165000D01*
X38428571Y-58165000D02*
X38380952Y-58117380D01*
X38380952Y-58117380D02*
X38333333Y-58022142D01*
X38333333Y-58022142D02*
X38285714Y-57831666D01*
X38285714Y-57831666D02*
X38285714Y-57593571D01*
X38285714Y-57593571D02*
X38333333Y-57403095D01*
X38333333Y-57403095D02*
X38380952Y-57307857D01*
X38380952Y-57307857D02*
X38428571Y-57260238D01*
X38428571Y-57260238D02*
X38523809Y-57212619D01*
X39809523Y-58212619D02*
X39238095Y-58212619D01*
X39523809Y-58212619D02*
X39523809Y-57212619D01*
X39523809Y-57212619D02*
X39428571Y-57355476D01*
X39428571Y-57355476D02*
X39333333Y-57450714D01*
X39333333Y-57450714D02*
X39238095Y-57498333D01*
X40000000Y-58307857D02*
X40761904Y-58307857D01*
X41333333Y-57688809D02*
X41000000Y-57688809D01*
X41000000Y-58212619D02*
X41000000Y-57212619D01*
X41000000Y-57212619D02*
X41476190Y-57212619D01*
X42238095Y-58165000D02*
X42142857Y-58212619D01*
X42142857Y-58212619D02*
X41952381Y-58212619D01*
X41952381Y-58212619D02*
X41857143Y-58165000D01*
X41857143Y-58165000D02*
X41809524Y-58069761D01*
X41809524Y-58069761D02*
X41809524Y-57688809D01*
X41809524Y-57688809D02*
X41857143Y-57593571D01*
X41857143Y-57593571D02*
X41952381Y-57545952D01*
X41952381Y-57545952D02*
X42142857Y-57545952D01*
X42142857Y-57545952D02*
X42238095Y-57593571D01*
X42238095Y-57593571D02*
X42285714Y-57688809D01*
X42285714Y-57688809D02*
X42285714Y-57784047D01*
X42285714Y-57784047D02*
X41809524Y-57879285D01*
X42714286Y-58212619D02*
X42714286Y-57545952D01*
X42714286Y-57641190D02*
X42761905Y-57593571D01*
X42761905Y-57593571D02*
X42857143Y-57545952D01*
X42857143Y-57545952D02*
X43000000Y-57545952D01*
X43000000Y-57545952D02*
X43095238Y-57593571D01*
X43095238Y-57593571D02*
X43142857Y-57688809D01*
X43142857Y-57688809D02*
X43142857Y-58212619D01*
X43142857Y-57688809D02*
X43190476Y-57593571D01*
X43190476Y-57593571D02*
X43285714Y-57545952D01*
X43285714Y-57545952D02*
X43428571Y-57545952D01*
X43428571Y-57545952D02*
X43523810Y-57593571D01*
X43523810Y-57593571D02*
X43571429Y-57688809D01*
X43571429Y-57688809D02*
X43571429Y-58212619D01*
X44476190Y-58212619D02*
X44476190Y-57688809D01*
X44476190Y-57688809D02*
X44428571Y-57593571D01*
X44428571Y-57593571D02*
X44333333Y-57545952D01*
X44333333Y-57545952D02*
X44142857Y-57545952D01*
X44142857Y-57545952D02*
X44047619Y-57593571D01*
X44476190Y-58165000D02*
X44380952Y-58212619D01*
X44380952Y-58212619D02*
X44142857Y-58212619D01*
X44142857Y-58212619D02*
X44047619Y-58165000D01*
X44047619Y-58165000D02*
X44000000Y-58069761D01*
X44000000Y-58069761D02*
X44000000Y-57974523D01*
X44000000Y-57974523D02*
X44047619Y-57879285D01*
X44047619Y-57879285D02*
X44142857Y-57831666D01*
X44142857Y-57831666D02*
X44380952Y-57831666D01*
X44380952Y-57831666D02*
X44476190Y-57784047D01*
X45095238Y-58212619D02*
X45000000Y-58165000D01*
X45000000Y-58165000D02*
X44952381Y-58069761D01*
X44952381Y-58069761D02*
X44952381Y-57212619D01*
X45857143Y-58165000D02*
X45761905Y-58212619D01*
X45761905Y-58212619D02*
X45571429Y-58212619D01*
X45571429Y-58212619D02*
X45476191Y-58165000D01*
X45476191Y-58165000D02*
X45428572Y-58069761D01*
X45428572Y-58069761D02*
X45428572Y-57688809D01*
X45428572Y-57688809D02*
X45476191Y-57593571D01*
X45476191Y-57593571D02*
X45571429Y-57545952D01*
X45571429Y-57545952D02*
X45761905Y-57545952D01*
X45761905Y-57545952D02*
X45857143Y-57593571D01*
X45857143Y-57593571D02*
X45904762Y-57688809D01*
X45904762Y-57688809D02*
X45904762Y-57784047D01*
X45904762Y-57784047D02*
X45428572Y-57879285D01*
X38466666Y-54462619D02*
X38466666Y-55176904D01*
X38466666Y-55176904D02*
X38419047Y-55319761D01*
X38419047Y-55319761D02*
X38323809Y-55415000D01*
X38323809Y-55415000D02*
X38180952Y-55462619D01*
X38180952Y-55462619D02*
X38085714Y-55462619D01*
X39371428Y-54462619D02*
X39180952Y-54462619D01*
X39180952Y-54462619D02*
X39085714Y-54510238D01*
X39085714Y-54510238D02*
X39038095Y-54557857D01*
X39038095Y-54557857D02*
X38942857Y-54700714D01*
X38942857Y-54700714D02*
X38895238Y-54891190D01*
X38895238Y-54891190D02*
X38895238Y-55272142D01*
X38895238Y-55272142D02*
X38942857Y-55367380D01*
X38942857Y-55367380D02*
X38990476Y-55415000D01*
X38990476Y-55415000D02*
X39085714Y-55462619D01*
X39085714Y-55462619D02*
X39276190Y-55462619D01*
X39276190Y-55462619D02*
X39371428Y-55415000D01*
X39371428Y-55415000D02*
X39419047Y-55367380D01*
X39419047Y-55367380D02*
X39466666Y-55272142D01*
X39466666Y-55272142D02*
X39466666Y-55034047D01*
X39466666Y-55034047D02*
X39419047Y-54938809D01*
X39419047Y-54938809D02*
X39371428Y-54891190D01*
X39371428Y-54891190D02*
X39276190Y-54843571D01*
X39276190Y-54843571D02*
X39085714Y-54843571D01*
X39085714Y-54843571D02*
X38990476Y-54891190D01*
X38990476Y-54891190D02*
X38942857Y-54938809D01*
X38942857Y-54938809D02*
X38895238Y-55034047D01*
%TO.C,J7*%
X32214284Y-38117380D02*
X32166665Y-38165000D01*
X32166665Y-38165000D02*
X32023808Y-38212619D01*
X32023808Y-38212619D02*
X31928570Y-38212619D01*
X31928570Y-38212619D02*
X31785713Y-38165000D01*
X31785713Y-38165000D02*
X31690475Y-38069761D01*
X31690475Y-38069761D02*
X31642856Y-37974523D01*
X31642856Y-37974523D02*
X31595237Y-37784047D01*
X31595237Y-37784047D02*
X31595237Y-37641190D01*
X31595237Y-37641190D02*
X31642856Y-37450714D01*
X31642856Y-37450714D02*
X31690475Y-37355476D01*
X31690475Y-37355476D02*
X31785713Y-37260238D01*
X31785713Y-37260238D02*
X31928570Y-37212619D01*
X31928570Y-37212619D02*
X32023808Y-37212619D01*
X32023808Y-37212619D02*
X32166665Y-37260238D01*
X32166665Y-37260238D02*
X32214284Y-37307857D01*
X32785713Y-38212619D02*
X32690475Y-38165000D01*
X32690475Y-38165000D02*
X32642856Y-38117380D01*
X32642856Y-38117380D02*
X32595237Y-38022142D01*
X32595237Y-38022142D02*
X32595237Y-37736428D01*
X32595237Y-37736428D02*
X32642856Y-37641190D01*
X32642856Y-37641190D02*
X32690475Y-37593571D01*
X32690475Y-37593571D02*
X32785713Y-37545952D01*
X32785713Y-37545952D02*
X32928570Y-37545952D01*
X32928570Y-37545952D02*
X33023808Y-37593571D01*
X33023808Y-37593571D02*
X33071427Y-37641190D01*
X33071427Y-37641190D02*
X33119046Y-37736428D01*
X33119046Y-37736428D02*
X33119046Y-38022142D01*
X33119046Y-38022142D02*
X33071427Y-38117380D01*
X33071427Y-38117380D02*
X33023808Y-38165000D01*
X33023808Y-38165000D02*
X32928570Y-38212619D01*
X32928570Y-38212619D02*
X32785713Y-38212619D01*
X33547618Y-37545952D02*
X33547618Y-38212619D01*
X33547618Y-37641190D02*
X33595237Y-37593571D01*
X33595237Y-37593571D02*
X33690475Y-37545952D01*
X33690475Y-37545952D02*
X33833332Y-37545952D01*
X33833332Y-37545952D02*
X33928570Y-37593571D01*
X33928570Y-37593571D02*
X33976189Y-37688809D01*
X33976189Y-37688809D02*
X33976189Y-38212619D01*
X34452380Y-37545952D02*
X34452380Y-38212619D01*
X34452380Y-37641190D02*
X34499999Y-37593571D01*
X34499999Y-37593571D02*
X34595237Y-37545952D01*
X34595237Y-37545952D02*
X34738094Y-37545952D01*
X34738094Y-37545952D02*
X34833332Y-37593571D01*
X34833332Y-37593571D02*
X34880951Y-37688809D01*
X34880951Y-37688809D02*
X34880951Y-38212619D01*
X35119047Y-38307857D02*
X35880951Y-38307857D01*
X36309523Y-37212619D02*
X36404761Y-37212619D01*
X36404761Y-37212619D02*
X36499999Y-37260238D01*
X36499999Y-37260238D02*
X36547618Y-37307857D01*
X36547618Y-37307857D02*
X36595237Y-37403095D01*
X36595237Y-37403095D02*
X36642856Y-37593571D01*
X36642856Y-37593571D02*
X36642856Y-37831666D01*
X36642856Y-37831666D02*
X36595237Y-38022142D01*
X36595237Y-38022142D02*
X36547618Y-38117380D01*
X36547618Y-38117380D02*
X36499999Y-38165000D01*
X36499999Y-38165000D02*
X36404761Y-38212619D01*
X36404761Y-38212619D02*
X36309523Y-38212619D01*
X36309523Y-38212619D02*
X36214285Y-38165000D01*
X36214285Y-38165000D02*
X36166666Y-38117380D01*
X36166666Y-38117380D02*
X36119047Y-38022142D01*
X36119047Y-38022142D02*
X36071428Y-37831666D01*
X36071428Y-37831666D02*
X36071428Y-37593571D01*
X36071428Y-37593571D02*
X36119047Y-37403095D01*
X36119047Y-37403095D02*
X36166666Y-37307857D01*
X36166666Y-37307857D02*
X36214285Y-37260238D01*
X36214285Y-37260238D02*
X36309523Y-37212619D01*
X37595237Y-38212619D02*
X37023809Y-38212619D01*
X37309523Y-38212619D02*
X37309523Y-37212619D01*
X37309523Y-37212619D02*
X37214285Y-37355476D01*
X37214285Y-37355476D02*
X37119047Y-37450714D01*
X37119047Y-37450714D02*
X37023809Y-37498333D01*
X37928571Y-38212619D02*
X38452380Y-37545952D01*
X37928571Y-37545952D02*
X38452380Y-38212619D01*
X39023809Y-37212619D02*
X39119047Y-37212619D01*
X39119047Y-37212619D02*
X39214285Y-37260238D01*
X39214285Y-37260238D02*
X39261904Y-37307857D01*
X39261904Y-37307857D02*
X39309523Y-37403095D01*
X39309523Y-37403095D02*
X39357142Y-37593571D01*
X39357142Y-37593571D02*
X39357142Y-37831666D01*
X39357142Y-37831666D02*
X39309523Y-38022142D01*
X39309523Y-38022142D02*
X39261904Y-38117380D01*
X39261904Y-38117380D02*
X39214285Y-38165000D01*
X39214285Y-38165000D02*
X39119047Y-38212619D01*
X39119047Y-38212619D02*
X39023809Y-38212619D01*
X39023809Y-38212619D02*
X38928571Y-38165000D01*
X38928571Y-38165000D02*
X38880952Y-38117380D01*
X38880952Y-38117380D02*
X38833333Y-38022142D01*
X38833333Y-38022142D02*
X38785714Y-37831666D01*
X38785714Y-37831666D02*
X38785714Y-37593571D01*
X38785714Y-37593571D02*
X38833333Y-37403095D01*
X38833333Y-37403095D02*
X38880952Y-37307857D01*
X38880952Y-37307857D02*
X38928571Y-37260238D01*
X38928571Y-37260238D02*
X39023809Y-37212619D01*
X40309523Y-38212619D02*
X39738095Y-38212619D01*
X40023809Y-38212619D02*
X40023809Y-37212619D01*
X40023809Y-37212619D02*
X39928571Y-37355476D01*
X39928571Y-37355476D02*
X39833333Y-37450714D01*
X39833333Y-37450714D02*
X39738095Y-37498333D01*
X40500000Y-38307857D02*
X41261904Y-38307857D01*
X41833333Y-37688809D02*
X41500000Y-37688809D01*
X41500000Y-38212619D02*
X41500000Y-37212619D01*
X41500000Y-37212619D02*
X41976190Y-37212619D01*
X42738095Y-38165000D02*
X42642857Y-38212619D01*
X42642857Y-38212619D02*
X42452381Y-38212619D01*
X42452381Y-38212619D02*
X42357143Y-38165000D01*
X42357143Y-38165000D02*
X42309524Y-38069761D01*
X42309524Y-38069761D02*
X42309524Y-37688809D01*
X42309524Y-37688809D02*
X42357143Y-37593571D01*
X42357143Y-37593571D02*
X42452381Y-37545952D01*
X42452381Y-37545952D02*
X42642857Y-37545952D01*
X42642857Y-37545952D02*
X42738095Y-37593571D01*
X42738095Y-37593571D02*
X42785714Y-37688809D01*
X42785714Y-37688809D02*
X42785714Y-37784047D01*
X42785714Y-37784047D02*
X42309524Y-37879285D01*
X43214286Y-38212619D02*
X43214286Y-37545952D01*
X43214286Y-37641190D02*
X43261905Y-37593571D01*
X43261905Y-37593571D02*
X43357143Y-37545952D01*
X43357143Y-37545952D02*
X43500000Y-37545952D01*
X43500000Y-37545952D02*
X43595238Y-37593571D01*
X43595238Y-37593571D02*
X43642857Y-37688809D01*
X43642857Y-37688809D02*
X43642857Y-38212619D01*
X43642857Y-37688809D02*
X43690476Y-37593571D01*
X43690476Y-37593571D02*
X43785714Y-37545952D01*
X43785714Y-37545952D02*
X43928571Y-37545952D01*
X43928571Y-37545952D02*
X44023810Y-37593571D01*
X44023810Y-37593571D02*
X44071429Y-37688809D01*
X44071429Y-37688809D02*
X44071429Y-38212619D01*
X44976190Y-38212619D02*
X44976190Y-37688809D01*
X44976190Y-37688809D02*
X44928571Y-37593571D01*
X44928571Y-37593571D02*
X44833333Y-37545952D01*
X44833333Y-37545952D02*
X44642857Y-37545952D01*
X44642857Y-37545952D02*
X44547619Y-37593571D01*
X44976190Y-38165000D02*
X44880952Y-38212619D01*
X44880952Y-38212619D02*
X44642857Y-38212619D01*
X44642857Y-38212619D02*
X44547619Y-38165000D01*
X44547619Y-38165000D02*
X44500000Y-38069761D01*
X44500000Y-38069761D02*
X44500000Y-37974523D01*
X44500000Y-37974523D02*
X44547619Y-37879285D01*
X44547619Y-37879285D02*
X44642857Y-37831666D01*
X44642857Y-37831666D02*
X44880952Y-37831666D01*
X44880952Y-37831666D02*
X44976190Y-37784047D01*
X45595238Y-38212619D02*
X45500000Y-38165000D01*
X45500000Y-38165000D02*
X45452381Y-38069761D01*
X45452381Y-38069761D02*
X45452381Y-37212619D01*
X46357143Y-38165000D02*
X46261905Y-38212619D01*
X46261905Y-38212619D02*
X46071429Y-38212619D01*
X46071429Y-38212619D02*
X45976191Y-38165000D01*
X45976191Y-38165000D02*
X45928572Y-38069761D01*
X45928572Y-38069761D02*
X45928572Y-37688809D01*
X45928572Y-37688809D02*
X45976191Y-37593571D01*
X45976191Y-37593571D02*
X46071429Y-37545952D01*
X46071429Y-37545952D02*
X46261905Y-37545952D01*
X46261905Y-37545952D02*
X46357143Y-37593571D01*
X46357143Y-37593571D02*
X46404762Y-37688809D01*
X46404762Y-37688809D02*
X46404762Y-37784047D01*
X46404762Y-37784047D02*
X45928572Y-37879285D01*
X38966666Y-34462619D02*
X38966666Y-35176904D01*
X38966666Y-35176904D02*
X38919047Y-35319761D01*
X38919047Y-35319761D02*
X38823809Y-35415000D01*
X38823809Y-35415000D02*
X38680952Y-35462619D01*
X38680952Y-35462619D02*
X38585714Y-35462619D01*
X39347619Y-34462619D02*
X40014285Y-34462619D01*
X40014285Y-34462619D02*
X39585714Y-35462619D01*
%TO.C,J8*%
X42117380Y-82785715D02*
X42165000Y-82833334D01*
X42165000Y-82833334D02*
X42212619Y-82976191D01*
X42212619Y-82976191D02*
X42212619Y-83071429D01*
X42212619Y-83071429D02*
X42165000Y-83214286D01*
X42165000Y-83214286D02*
X42069761Y-83309524D01*
X42069761Y-83309524D02*
X41974523Y-83357143D01*
X41974523Y-83357143D02*
X41784047Y-83404762D01*
X41784047Y-83404762D02*
X41641190Y-83404762D01*
X41641190Y-83404762D02*
X41450714Y-83357143D01*
X41450714Y-83357143D02*
X41355476Y-83309524D01*
X41355476Y-83309524D02*
X41260238Y-83214286D01*
X41260238Y-83214286D02*
X41212619Y-83071429D01*
X41212619Y-83071429D02*
X41212619Y-82976191D01*
X41212619Y-82976191D02*
X41260238Y-82833334D01*
X41260238Y-82833334D02*
X41307857Y-82785715D01*
X42212619Y-82214286D02*
X42165000Y-82309524D01*
X42165000Y-82309524D02*
X42117380Y-82357143D01*
X42117380Y-82357143D02*
X42022142Y-82404762D01*
X42022142Y-82404762D02*
X41736428Y-82404762D01*
X41736428Y-82404762D02*
X41641190Y-82357143D01*
X41641190Y-82357143D02*
X41593571Y-82309524D01*
X41593571Y-82309524D02*
X41545952Y-82214286D01*
X41545952Y-82214286D02*
X41545952Y-82071429D01*
X41545952Y-82071429D02*
X41593571Y-81976191D01*
X41593571Y-81976191D02*
X41641190Y-81928572D01*
X41641190Y-81928572D02*
X41736428Y-81880953D01*
X41736428Y-81880953D02*
X42022142Y-81880953D01*
X42022142Y-81880953D02*
X42117380Y-81928572D01*
X42117380Y-81928572D02*
X42165000Y-81976191D01*
X42165000Y-81976191D02*
X42212619Y-82071429D01*
X42212619Y-82071429D02*
X42212619Y-82214286D01*
X41545952Y-81452381D02*
X42212619Y-81452381D01*
X41641190Y-81452381D02*
X41593571Y-81404762D01*
X41593571Y-81404762D02*
X41545952Y-81309524D01*
X41545952Y-81309524D02*
X41545952Y-81166667D01*
X41545952Y-81166667D02*
X41593571Y-81071429D01*
X41593571Y-81071429D02*
X41688809Y-81023810D01*
X41688809Y-81023810D02*
X42212619Y-81023810D01*
X41545952Y-80547619D02*
X42212619Y-80547619D01*
X41641190Y-80547619D02*
X41593571Y-80500000D01*
X41593571Y-80500000D02*
X41545952Y-80404762D01*
X41545952Y-80404762D02*
X41545952Y-80261905D01*
X41545952Y-80261905D02*
X41593571Y-80166667D01*
X41593571Y-80166667D02*
X41688809Y-80119048D01*
X41688809Y-80119048D02*
X42212619Y-80119048D01*
X42307857Y-79880953D02*
X42307857Y-79119048D01*
X41212619Y-78690476D02*
X41212619Y-78595238D01*
X41212619Y-78595238D02*
X41260238Y-78500000D01*
X41260238Y-78500000D02*
X41307857Y-78452381D01*
X41307857Y-78452381D02*
X41403095Y-78404762D01*
X41403095Y-78404762D02*
X41593571Y-78357143D01*
X41593571Y-78357143D02*
X41831666Y-78357143D01*
X41831666Y-78357143D02*
X42022142Y-78404762D01*
X42022142Y-78404762D02*
X42117380Y-78452381D01*
X42117380Y-78452381D02*
X42165000Y-78500000D01*
X42165000Y-78500000D02*
X42212619Y-78595238D01*
X42212619Y-78595238D02*
X42212619Y-78690476D01*
X42212619Y-78690476D02*
X42165000Y-78785714D01*
X42165000Y-78785714D02*
X42117380Y-78833333D01*
X42117380Y-78833333D02*
X42022142Y-78880952D01*
X42022142Y-78880952D02*
X41831666Y-78928571D01*
X41831666Y-78928571D02*
X41593571Y-78928571D01*
X41593571Y-78928571D02*
X41403095Y-78880952D01*
X41403095Y-78880952D02*
X41307857Y-78833333D01*
X41307857Y-78833333D02*
X41260238Y-78785714D01*
X41260238Y-78785714D02*
X41212619Y-78690476D01*
X42212619Y-77404762D02*
X42212619Y-77976190D01*
X42212619Y-77690476D02*
X41212619Y-77690476D01*
X41212619Y-77690476D02*
X41355476Y-77785714D01*
X41355476Y-77785714D02*
X41450714Y-77880952D01*
X41450714Y-77880952D02*
X41498333Y-77976190D01*
X42212619Y-77071428D02*
X41545952Y-76547619D01*
X41545952Y-77071428D02*
X42212619Y-76547619D01*
X41212619Y-75976190D02*
X41212619Y-75880952D01*
X41212619Y-75880952D02*
X41260238Y-75785714D01*
X41260238Y-75785714D02*
X41307857Y-75738095D01*
X41307857Y-75738095D02*
X41403095Y-75690476D01*
X41403095Y-75690476D02*
X41593571Y-75642857D01*
X41593571Y-75642857D02*
X41831666Y-75642857D01*
X41831666Y-75642857D02*
X42022142Y-75690476D01*
X42022142Y-75690476D02*
X42117380Y-75738095D01*
X42117380Y-75738095D02*
X42165000Y-75785714D01*
X42165000Y-75785714D02*
X42212619Y-75880952D01*
X42212619Y-75880952D02*
X42212619Y-75976190D01*
X42212619Y-75976190D02*
X42165000Y-76071428D01*
X42165000Y-76071428D02*
X42117380Y-76119047D01*
X42117380Y-76119047D02*
X42022142Y-76166666D01*
X42022142Y-76166666D02*
X41831666Y-76214285D01*
X41831666Y-76214285D02*
X41593571Y-76214285D01*
X41593571Y-76214285D02*
X41403095Y-76166666D01*
X41403095Y-76166666D02*
X41307857Y-76119047D01*
X41307857Y-76119047D02*
X41260238Y-76071428D01*
X41260238Y-76071428D02*
X41212619Y-75976190D01*
X42212619Y-74690476D02*
X42212619Y-75261904D01*
X42212619Y-74976190D02*
X41212619Y-74976190D01*
X41212619Y-74976190D02*
X41355476Y-75071428D01*
X41355476Y-75071428D02*
X41450714Y-75166666D01*
X41450714Y-75166666D02*
X41498333Y-75261904D01*
X42307857Y-74500000D02*
X42307857Y-73738095D01*
X41688809Y-73166666D02*
X41688809Y-73499999D01*
X42212619Y-73499999D02*
X41212619Y-73499999D01*
X41212619Y-73499999D02*
X41212619Y-73023809D01*
X42165000Y-72261904D02*
X42212619Y-72357142D01*
X42212619Y-72357142D02*
X42212619Y-72547618D01*
X42212619Y-72547618D02*
X42165000Y-72642856D01*
X42165000Y-72642856D02*
X42069761Y-72690475D01*
X42069761Y-72690475D02*
X41688809Y-72690475D01*
X41688809Y-72690475D02*
X41593571Y-72642856D01*
X41593571Y-72642856D02*
X41545952Y-72547618D01*
X41545952Y-72547618D02*
X41545952Y-72357142D01*
X41545952Y-72357142D02*
X41593571Y-72261904D01*
X41593571Y-72261904D02*
X41688809Y-72214285D01*
X41688809Y-72214285D02*
X41784047Y-72214285D01*
X41784047Y-72214285D02*
X41879285Y-72690475D01*
X42212619Y-71785713D02*
X41545952Y-71785713D01*
X41641190Y-71785713D02*
X41593571Y-71738094D01*
X41593571Y-71738094D02*
X41545952Y-71642856D01*
X41545952Y-71642856D02*
X41545952Y-71499999D01*
X41545952Y-71499999D02*
X41593571Y-71404761D01*
X41593571Y-71404761D02*
X41688809Y-71357142D01*
X41688809Y-71357142D02*
X42212619Y-71357142D01*
X41688809Y-71357142D02*
X41593571Y-71309523D01*
X41593571Y-71309523D02*
X41545952Y-71214285D01*
X41545952Y-71214285D02*
X41545952Y-71071428D01*
X41545952Y-71071428D02*
X41593571Y-70976189D01*
X41593571Y-70976189D02*
X41688809Y-70928570D01*
X41688809Y-70928570D02*
X42212619Y-70928570D01*
X42212619Y-70023809D02*
X41688809Y-70023809D01*
X41688809Y-70023809D02*
X41593571Y-70071428D01*
X41593571Y-70071428D02*
X41545952Y-70166666D01*
X41545952Y-70166666D02*
X41545952Y-70357142D01*
X41545952Y-70357142D02*
X41593571Y-70452380D01*
X42165000Y-70023809D02*
X42212619Y-70119047D01*
X42212619Y-70119047D02*
X42212619Y-70357142D01*
X42212619Y-70357142D02*
X42165000Y-70452380D01*
X42165000Y-70452380D02*
X42069761Y-70499999D01*
X42069761Y-70499999D02*
X41974523Y-70499999D01*
X41974523Y-70499999D02*
X41879285Y-70452380D01*
X41879285Y-70452380D02*
X41831666Y-70357142D01*
X41831666Y-70357142D02*
X41831666Y-70119047D01*
X41831666Y-70119047D02*
X41784047Y-70023809D01*
X42212619Y-69404761D02*
X42165000Y-69499999D01*
X42165000Y-69499999D02*
X42069761Y-69547618D01*
X42069761Y-69547618D02*
X41212619Y-69547618D01*
X42165000Y-68642856D02*
X42212619Y-68738094D01*
X42212619Y-68738094D02*
X42212619Y-68928570D01*
X42212619Y-68928570D02*
X42165000Y-69023808D01*
X42165000Y-69023808D02*
X42069761Y-69071427D01*
X42069761Y-69071427D02*
X41688809Y-69071427D01*
X41688809Y-69071427D02*
X41593571Y-69023808D01*
X41593571Y-69023808D02*
X41545952Y-68928570D01*
X41545952Y-68928570D02*
X41545952Y-68738094D01*
X41545952Y-68738094D02*
X41593571Y-68642856D01*
X41593571Y-68642856D02*
X41688809Y-68595237D01*
X41688809Y-68595237D02*
X41784047Y-68595237D01*
X41784047Y-68595237D02*
X41879285Y-69071427D01*
X38462619Y-76033333D02*
X39176904Y-76033333D01*
X39176904Y-76033333D02*
X39319761Y-76080952D01*
X39319761Y-76080952D02*
X39415000Y-76176190D01*
X39415000Y-76176190D02*
X39462619Y-76319047D01*
X39462619Y-76319047D02*
X39462619Y-76414285D01*
X38891190Y-75414285D02*
X38843571Y-75509523D01*
X38843571Y-75509523D02*
X38795952Y-75557142D01*
X38795952Y-75557142D02*
X38700714Y-75604761D01*
X38700714Y-75604761D02*
X38653095Y-75604761D01*
X38653095Y-75604761D02*
X38557857Y-75557142D01*
X38557857Y-75557142D02*
X38510238Y-75509523D01*
X38510238Y-75509523D02*
X38462619Y-75414285D01*
X38462619Y-75414285D02*
X38462619Y-75223809D01*
X38462619Y-75223809D02*
X38510238Y-75128571D01*
X38510238Y-75128571D02*
X38557857Y-75080952D01*
X38557857Y-75080952D02*
X38653095Y-75033333D01*
X38653095Y-75033333D02*
X38700714Y-75033333D01*
X38700714Y-75033333D02*
X38795952Y-75080952D01*
X38795952Y-75080952D02*
X38843571Y-75128571D01*
X38843571Y-75128571D02*
X38891190Y-75223809D01*
X38891190Y-75223809D02*
X38891190Y-75414285D01*
X38891190Y-75414285D02*
X38938809Y-75509523D01*
X38938809Y-75509523D02*
X38986428Y-75557142D01*
X38986428Y-75557142D02*
X39081666Y-75604761D01*
X39081666Y-75604761D02*
X39272142Y-75604761D01*
X39272142Y-75604761D02*
X39367380Y-75557142D01*
X39367380Y-75557142D02*
X39415000Y-75509523D01*
X39415000Y-75509523D02*
X39462619Y-75414285D01*
X39462619Y-75414285D02*
X39462619Y-75223809D01*
X39462619Y-75223809D02*
X39415000Y-75128571D01*
X39415000Y-75128571D02*
X39367380Y-75080952D01*
X39367380Y-75080952D02*
X39272142Y-75033333D01*
X39272142Y-75033333D02*
X39081666Y-75033333D01*
X39081666Y-75033333D02*
X38986428Y-75080952D01*
X38986428Y-75080952D02*
X38938809Y-75128571D01*
X38938809Y-75128571D02*
X38891190Y-75223809D01*
%TO.C,J9*%
X124214284Y-38117380D02*
X124166665Y-38165000D01*
X124166665Y-38165000D02*
X124023808Y-38212619D01*
X124023808Y-38212619D02*
X123928570Y-38212619D01*
X123928570Y-38212619D02*
X123785713Y-38165000D01*
X123785713Y-38165000D02*
X123690475Y-38069761D01*
X123690475Y-38069761D02*
X123642856Y-37974523D01*
X123642856Y-37974523D02*
X123595237Y-37784047D01*
X123595237Y-37784047D02*
X123595237Y-37641190D01*
X123595237Y-37641190D02*
X123642856Y-37450714D01*
X123642856Y-37450714D02*
X123690475Y-37355476D01*
X123690475Y-37355476D02*
X123785713Y-37260238D01*
X123785713Y-37260238D02*
X123928570Y-37212619D01*
X123928570Y-37212619D02*
X124023808Y-37212619D01*
X124023808Y-37212619D02*
X124166665Y-37260238D01*
X124166665Y-37260238D02*
X124214284Y-37307857D01*
X124785713Y-38212619D02*
X124690475Y-38165000D01*
X124690475Y-38165000D02*
X124642856Y-38117380D01*
X124642856Y-38117380D02*
X124595237Y-38022142D01*
X124595237Y-38022142D02*
X124595237Y-37736428D01*
X124595237Y-37736428D02*
X124642856Y-37641190D01*
X124642856Y-37641190D02*
X124690475Y-37593571D01*
X124690475Y-37593571D02*
X124785713Y-37545952D01*
X124785713Y-37545952D02*
X124928570Y-37545952D01*
X124928570Y-37545952D02*
X125023808Y-37593571D01*
X125023808Y-37593571D02*
X125071427Y-37641190D01*
X125071427Y-37641190D02*
X125119046Y-37736428D01*
X125119046Y-37736428D02*
X125119046Y-38022142D01*
X125119046Y-38022142D02*
X125071427Y-38117380D01*
X125071427Y-38117380D02*
X125023808Y-38165000D01*
X125023808Y-38165000D02*
X124928570Y-38212619D01*
X124928570Y-38212619D02*
X124785713Y-38212619D01*
X125547618Y-37545952D02*
X125547618Y-38212619D01*
X125547618Y-37641190D02*
X125595237Y-37593571D01*
X125595237Y-37593571D02*
X125690475Y-37545952D01*
X125690475Y-37545952D02*
X125833332Y-37545952D01*
X125833332Y-37545952D02*
X125928570Y-37593571D01*
X125928570Y-37593571D02*
X125976189Y-37688809D01*
X125976189Y-37688809D02*
X125976189Y-38212619D01*
X126452380Y-37545952D02*
X126452380Y-38212619D01*
X126452380Y-37641190D02*
X126499999Y-37593571D01*
X126499999Y-37593571D02*
X126595237Y-37545952D01*
X126595237Y-37545952D02*
X126738094Y-37545952D01*
X126738094Y-37545952D02*
X126833332Y-37593571D01*
X126833332Y-37593571D02*
X126880951Y-37688809D01*
X126880951Y-37688809D02*
X126880951Y-38212619D01*
X127119047Y-38307857D02*
X127880951Y-38307857D01*
X128309523Y-37212619D02*
X128404761Y-37212619D01*
X128404761Y-37212619D02*
X128499999Y-37260238D01*
X128499999Y-37260238D02*
X128547618Y-37307857D01*
X128547618Y-37307857D02*
X128595237Y-37403095D01*
X128595237Y-37403095D02*
X128642856Y-37593571D01*
X128642856Y-37593571D02*
X128642856Y-37831666D01*
X128642856Y-37831666D02*
X128595237Y-38022142D01*
X128595237Y-38022142D02*
X128547618Y-38117380D01*
X128547618Y-38117380D02*
X128499999Y-38165000D01*
X128499999Y-38165000D02*
X128404761Y-38212619D01*
X128404761Y-38212619D02*
X128309523Y-38212619D01*
X128309523Y-38212619D02*
X128214285Y-38165000D01*
X128214285Y-38165000D02*
X128166666Y-38117380D01*
X128166666Y-38117380D02*
X128119047Y-38022142D01*
X128119047Y-38022142D02*
X128071428Y-37831666D01*
X128071428Y-37831666D02*
X128071428Y-37593571D01*
X128071428Y-37593571D02*
X128119047Y-37403095D01*
X128119047Y-37403095D02*
X128166666Y-37307857D01*
X128166666Y-37307857D02*
X128214285Y-37260238D01*
X128214285Y-37260238D02*
X128309523Y-37212619D01*
X129595237Y-38212619D02*
X129023809Y-38212619D01*
X129309523Y-38212619D02*
X129309523Y-37212619D01*
X129309523Y-37212619D02*
X129214285Y-37355476D01*
X129214285Y-37355476D02*
X129119047Y-37450714D01*
X129119047Y-37450714D02*
X129023809Y-37498333D01*
X129928571Y-38212619D02*
X130452380Y-37545952D01*
X129928571Y-37545952D02*
X130452380Y-38212619D01*
X131023809Y-37212619D02*
X131119047Y-37212619D01*
X131119047Y-37212619D02*
X131214285Y-37260238D01*
X131214285Y-37260238D02*
X131261904Y-37307857D01*
X131261904Y-37307857D02*
X131309523Y-37403095D01*
X131309523Y-37403095D02*
X131357142Y-37593571D01*
X131357142Y-37593571D02*
X131357142Y-37831666D01*
X131357142Y-37831666D02*
X131309523Y-38022142D01*
X131309523Y-38022142D02*
X131261904Y-38117380D01*
X131261904Y-38117380D02*
X131214285Y-38165000D01*
X131214285Y-38165000D02*
X131119047Y-38212619D01*
X131119047Y-38212619D02*
X131023809Y-38212619D01*
X131023809Y-38212619D02*
X130928571Y-38165000D01*
X130928571Y-38165000D02*
X130880952Y-38117380D01*
X130880952Y-38117380D02*
X130833333Y-38022142D01*
X130833333Y-38022142D02*
X130785714Y-37831666D01*
X130785714Y-37831666D02*
X130785714Y-37593571D01*
X130785714Y-37593571D02*
X130833333Y-37403095D01*
X130833333Y-37403095D02*
X130880952Y-37307857D01*
X130880952Y-37307857D02*
X130928571Y-37260238D01*
X130928571Y-37260238D02*
X131023809Y-37212619D01*
X132309523Y-38212619D02*
X131738095Y-38212619D01*
X132023809Y-38212619D02*
X132023809Y-37212619D01*
X132023809Y-37212619D02*
X131928571Y-37355476D01*
X131928571Y-37355476D02*
X131833333Y-37450714D01*
X131833333Y-37450714D02*
X131738095Y-37498333D01*
X132500000Y-38307857D02*
X133261904Y-38307857D01*
X133833333Y-37688809D02*
X133500000Y-37688809D01*
X133500000Y-38212619D02*
X133500000Y-37212619D01*
X133500000Y-37212619D02*
X133976190Y-37212619D01*
X134738095Y-38165000D02*
X134642857Y-38212619D01*
X134642857Y-38212619D02*
X134452381Y-38212619D01*
X134452381Y-38212619D02*
X134357143Y-38165000D01*
X134357143Y-38165000D02*
X134309524Y-38069761D01*
X134309524Y-38069761D02*
X134309524Y-37688809D01*
X134309524Y-37688809D02*
X134357143Y-37593571D01*
X134357143Y-37593571D02*
X134452381Y-37545952D01*
X134452381Y-37545952D02*
X134642857Y-37545952D01*
X134642857Y-37545952D02*
X134738095Y-37593571D01*
X134738095Y-37593571D02*
X134785714Y-37688809D01*
X134785714Y-37688809D02*
X134785714Y-37784047D01*
X134785714Y-37784047D02*
X134309524Y-37879285D01*
X135214286Y-38212619D02*
X135214286Y-37545952D01*
X135214286Y-37641190D02*
X135261905Y-37593571D01*
X135261905Y-37593571D02*
X135357143Y-37545952D01*
X135357143Y-37545952D02*
X135500000Y-37545952D01*
X135500000Y-37545952D02*
X135595238Y-37593571D01*
X135595238Y-37593571D02*
X135642857Y-37688809D01*
X135642857Y-37688809D02*
X135642857Y-38212619D01*
X135642857Y-37688809D02*
X135690476Y-37593571D01*
X135690476Y-37593571D02*
X135785714Y-37545952D01*
X135785714Y-37545952D02*
X135928571Y-37545952D01*
X135928571Y-37545952D02*
X136023810Y-37593571D01*
X136023810Y-37593571D02*
X136071429Y-37688809D01*
X136071429Y-37688809D02*
X136071429Y-38212619D01*
X136976190Y-38212619D02*
X136976190Y-37688809D01*
X136976190Y-37688809D02*
X136928571Y-37593571D01*
X136928571Y-37593571D02*
X136833333Y-37545952D01*
X136833333Y-37545952D02*
X136642857Y-37545952D01*
X136642857Y-37545952D02*
X136547619Y-37593571D01*
X136976190Y-38165000D02*
X136880952Y-38212619D01*
X136880952Y-38212619D02*
X136642857Y-38212619D01*
X136642857Y-38212619D02*
X136547619Y-38165000D01*
X136547619Y-38165000D02*
X136500000Y-38069761D01*
X136500000Y-38069761D02*
X136500000Y-37974523D01*
X136500000Y-37974523D02*
X136547619Y-37879285D01*
X136547619Y-37879285D02*
X136642857Y-37831666D01*
X136642857Y-37831666D02*
X136880952Y-37831666D01*
X136880952Y-37831666D02*
X136976190Y-37784047D01*
X137595238Y-38212619D02*
X137500000Y-38165000D01*
X137500000Y-38165000D02*
X137452381Y-38069761D01*
X137452381Y-38069761D02*
X137452381Y-37212619D01*
X138357143Y-38165000D02*
X138261905Y-38212619D01*
X138261905Y-38212619D02*
X138071429Y-38212619D01*
X138071429Y-38212619D02*
X137976191Y-38165000D01*
X137976191Y-38165000D02*
X137928572Y-38069761D01*
X137928572Y-38069761D02*
X137928572Y-37688809D01*
X137928572Y-37688809D02*
X137976191Y-37593571D01*
X137976191Y-37593571D02*
X138071429Y-37545952D01*
X138071429Y-37545952D02*
X138261905Y-37545952D01*
X138261905Y-37545952D02*
X138357143Y-37593571D01*
X138357143Y-37593571D02*
X138404762Y-37688809D01*
X138404762Y-37688809D02*
X138404762Y-37784047D01*
X138404762Y-37784047D02*
X137928572Y-37879285D01*
X130966666Y-34462619D02*
X130966666Y-35176904D01*
X130966666Y-35176904D02*
X130919047Y-35319761D01*
X130919047Y-35319761D02*
X130823809Y-35415000D01*
X130823809Y-35415000D02*
X130680952Y-35462619D01*
X130680952Y-35462619D02*
X130585714Y-35462619D01*
X131490476Y-35462619D02*
X131680952Y-35462619D01*
X131680952Y-35462619D02*
X131776190Y-35415000D01*
X131776190Y-35415000D02*
X131823809Y-35367380D01*
X131823809Y-35367380D02*
X131919047Y-35224523D01*
X131919047Y-35224523D02*
X131966666Y-35034047D01*
X131966666Y-35034047D02*
X131966666Y-34653095D01*
X131966666Y-34653095D02*
X131919047Y-34557857D01*
X131919047Y-34557857D02*
X131871428Y-34510238D01*
X131871428Y-34510238D02*
X131776190Y-34462619D01*
X131776190Y-34462619D02*
X131585714Y-34462619D01*
X131585714Y-34462619D02*
X131490476Y-34510238D01*
X131490476Y-34510238D02*
X131442857Y-34557857D01*
X131442857Y-34557857D02*
X131395238Y-34653095D01*
X131395238Y-34653095D02*
X131395238Y-34891190D01*
X131395238Y-34891190D02*
X131442857Y-34986428D01*
X131442857Y-34986428D02*
X131490476Y-35034047D01*
X131490476Y-35034047D02*
X131585714Y-35081666D01*
X131585714Y-35081666D02*
X131776190Y-35081666D01*
X131776190Y-35081666D02*
X131871428Y-35034047D01*
X131871428Y-35034047D02*
X131919047Y-34986428D01*
X131919047Y-34986428D02*
X131966666Y-34891190D01*
%TO.C,J10*%
X124214284Y-79117380D02*
X124166665Y-79165000D01*
X124166665Y-79165000D02*
X124023808Y-79212619D01*
X124023808Y-79212619D02*
X123928570Y-79212619D01*
X123928570Y-79212619D02*
X123785713Y-79165000D01*
X123785713Y-79165000D02*
X123690475Y-79069761D01*
X123690475Y-79069761D02*
X123642856Y-78974523D01*
X123642856Y-78974523D02*
X123595237Y-78784047D01*
X123595237Y-78784047D02*
X123595237Y-78641190D01*
X123595237Y-78641190D02*
X123642856Y-78450714D01*
X123642856Y-78450714D02*
X123690475Y-78355476D01*
X123690475Y-78355476D02*
X123785713Y-78260238D01*
X123785713Y-78260238D02*
X123928570Y-78212619D01*
X123928570Y-78212619D02*
X124023808Y-78212619D01*
X124023808Y-78212619D02*
X124166665Y-78260238D01*
X124166665Y-78260238D02*
X124214284Y-78307857D01*
X124785713Y-79212619D02*
X124690475Y-79165000D01*
X124690475Y-79165000D02*
X124642856Y-79117380D01*
X124642856Y-79117380D02*
X124595237Y-79022142D01*
X124595237Y-79022142D02*
X124595237Y-78736428D01*
X124595237Y-78736428D02*
X124642856Y-78641190D01*
X124642856Y-78641190D02*
X124690475Y-78593571D01*
X124690475Y-78593571D02*
X124785713Y-78545952D01*
X124785713Y-78545952D02*
X124928570Y-78545952D01*
X124928570Y-78545952D02*
X125023808Y-78593571D01*
X125023808Y-78593571D02*
X125071427Y-78641190D01*
X125071427Y-78641190D02*
X125119046Y-78736428D01*
X125119046Y-78736428D02*
X125119046Y-79022142D01*
X125119046Y-79022142D02*
X125071427Y-79117380D01*
X125071427Y-79117380D02*
X125023808Y-79165000D01*
X125023808Y-79165000D02*
X124928570Y-79212619D01*
X124928570Y-79212619D02*
X124785713Y-79212619D01*
X125547618Y-78545952D02*
X125547618Y-79212619D01*
X125547618Y-78641190D02*
X125595237Y-78593571D01*
X125595237Y-78593571D02*
X125690475Y-78545952D01*
X125690475Y-78545952D02*
X125833332Y-78545952D01*
X125833332Y-78545952D02*
X125928570Y-78593571D01*
X125928570Y-78593571D02*
X125976189Y-78688809D01*
X125976189Y-78688809D02*
X125976189Y-79212619D01*
X126452380Y-78545952D02*
X126452380Y-79212619D01*
X126452380Y-78641190D02*
X126499999Y-78593571D01*
X126499999Y-78593571D02*
X126595237Y-78545952D01*
X126595237Y-78545952D02*
X126738094Y-78545952D01*
X126738094Y-78545952D02*
X126833332Y-78593571D01*
X126833332Y-78593571D02*
X126880951Y-78688809D01*
X126880951Y-78688809D02*
X126880951Y-79212619D01*
X127119047Y-79307857D02*
X127880951Y-79307857D01*
X128309523Y-78212619D02*
X128404761Y-78212619D01*
X128404761Y-78212619D02*
X128499999Y-78260238D01*
X128499999Y-78260238D02*
X128547618Y-78307857D01*
X128547618Y-78307857D02*
X128595237Y-78403095D01*
X128595237Y-78403095D02*
X128642856Y-78593571D01*
X128642856Y-78593571D02*
X128642856Y-78831666D01*
X128642856Y-78831666D02*
X128595237Y-79022142D01*
X128595237Y-79022142D02*
X128547618Y-79117380D01*
X128547618Y-79117380D02*
X128499999Y-79165000D01*
X128499999Y-79165000D02*
X128404761Y-79212619D01*
X128404761Y-79212619D02*
X128309523Y-79212619D01*
X128309523Y-79212619D02*
X128214285Y-79165000D01*
X128214285Y-79165000D02*
X128166666Y-79117380D01*
X128166666Y-79117380D02*
X128119047Y-79022142D01*
X128119047Y-79022142D02*
X128071428Y-78831666D01*
X128071428Y-78831666D02*
X128071428Y-78593571D01*
X128071428Y-78593571D02*
X128119047Y-78403095D01*
X128119047Y-78403095D02*
X128166666Y-78307857D01*
X128166666Y-78307857D02*
X128214285Y-78260238D01*
X128214285Y-78260238D02*
X128309523Y-78212619D01*
X129595237Y-79212619D02*
X129023809Y-79212619D01*
X129309523Y-79212619D02*
X129309523Y-78212619D01*
X129309523Y-78212619D02*
X129214285Y-78355476D01*
X129214285Y-78355476D02*
X129119047Y-78450714D01*
X129119047Y-78450714D02*
X129023809Y-78498333D01*
X129928571Y-79212619D02*
X130452380Y-78545952D01*
X129928571Y-78545952D02*
X130452380Y-79212619D01*
X131023809Y-78212619D02*
X131119047Y-78212619D01*
X131119047Y-78212619D02*
X131214285Y-78260238D01*
X131214285Y-78260238D02*
X131261904Y-78307857D01*
X131261904Y-78307857D02*
X131309523Y-78403095D01*
X131309523Y-78403095D02*
X131357142Y-78593571D01*
X131357142Y-78593571D02*
X131357142Y-78831666D01*
X131357142Y-78831666D02*
X131309523Y-79022142D01*
X131309523Y-79022142D02*
X131261904Y-79117380D01*
X131261904Y-79117380D02*
X131214285Y-79165000D01*
X131214285Y-79165000D02*
X131119047Y-79212619D01*
X131119047Y-79212619D02*
X131023809Y-79212619D01*
X131023809Y-79212619D02*
X130928571Y-79165000D01*
X130928571Y-79165000D02*
X130880952Y-79117380D01*
X130880952Y-79117380D02*
X130833333Y-79022142D01*
X130833333Y-79022142D02*
X130785714Y-78831666D01*
X130785714Y-78831666D02*
X130785714Y-78593571D01*
X130785714Y-78593571D02*
X130833333Y-78403095D01*
X130833333Y-78403095D02*
X130880952Y-78307857D01*
X130880952Y-78307857D02*
X130928571Y-78260238D01*
X130928571Y-78260238D02*
X131023809Y-78212619D01*
X132309523Y-79212619D02*
X131738095Y-79212619D01*
X132023809Y-79212619D02*
X132023809Y-78212619D01*
X132023809Y-78212619D02*
X131928571Y-78355476D01*
X131928571Y-78355476D02*
X131833333Y-78450714D01*
X131833333Y-78450714D02*
X131738095Y-78498333D01*
X132500000Y-79307857D02*
X133261904Y-79307857D01*
X133833333Y-78688809D02*
X133500000Y-78688809D01*
X133500000Y-79212619D02*
X133500000Y-78212619D01*
X133500000Y-78212619D02*
X133976190Y-78212619D01*
X134738095Y-79165000D02*
X134642857Y-79212619D01*
X134642857Y-79212619D02*
X134452381Y-79212619D01*
X134452381Y-79212619D02*
X134357143Y-79165000D01*
X134357143Y-79165000D02*
X134309524Y-79069761D01*
X134309524Y-79069761D02*
X134309524Y-78688809D01*
X134309524Y-78688809D02*
X134357143Y-78593571D01*
X134357143Y-78593571D02*
X134452381Y-78545952D01*
X134452381Y-78545952D02*
X134642857Y-78545952D01*
X134642857Y-78545952D02*
X134738095Y-78593571D01*
X134738095Y-78593571D02*
X134785714Y-78688809D01*
X134785714Y-78688809D02*
X134785714Y-78784047D01*
X134785714Y-78784047D02*
X134309524Y-78879285D01*
X135214286Y-79212619D02*
X135214286Y-78545952D01*
X135214286Y-78641190D02*
X135261905Y-78593571D01*
X135261905Y-78593571D02*
X135357143Y-78545952D01*
X135357143Y-78545952D02*
X135500000Y-78545952D01*
X135500000Y-78545952D02*
X135595238Y-78593571D01*
X135595238Y-78593571D02*
X135642857Y-78688809D01*
X135642857Y-78688809D02*
X135642857Y-79212619D01*
X135642857Y-78688809D02*
X135690476Y-78593571D01*
X135690476Y-78593571D02*
X135785714Y-78545952D01*
X135785714Y-78545952D02*
X135928571Y-78545952D01*
X135928571Y-78545952D02*
X136023810Y-78593571D01*
X136023810Y-78593571D02*
X136071429Y-78688809D01*
X136071429Y-78688809D02*
X136071429Y-79212619D01*
X136976190Y-79212619D02*
X136976190Y-78688809D01*
X136976190Y-78688809D02*
X136928571Y-78593571D01*
X136928571Y-78593571D02*
X136833333Y-78545952D01*
X136833333Y-78545952D02*
X136642857Y-78545952D01*
X136642857Y-78545952D02*
X136547619Y-78593571D01*
X136976190Y-79165000D02*
X136880952Y-79212619D01*
X136880952Y-79212619D02*
X136642857Y-79212619D01*
X136642857Y-79212619D02*
X136547619Y-79165000D01*
X136547619Y-79165000D02*
X136500000Y-79069761D01*
X136500000Y-79069761D02*
X136500000Y-78974523D01*
X136500000Y-78974523D02*
X136547619Y-78879285D01*
X136547619Y-78879285D02*
X136642857Y-78831666D01*
X136642857Y-78831666D02*
X136880952Y-78831666D01*
X136880952Y-78831666D02*
X136976190Y-78784047D01*
X137595238Y-79212619D02*
X137500000Y-79165000D01*
X137500000Y-79165000D02*
X137452381Y-79069761D01*
X137452381Y-79069761D02*
X137452381Y-78212619D01*
X138357143Y-79165000D02*
X138261905Y-79212619D01*
X138261905Y-79212619D02*
X138071429Y-79212619D01*
X138071429Y-79212619D02*
X137976191Y-79165000D01*
X137976191Y-79165000D02*
X137928572Y-79069761D01*
X137928572Y-79069761D02*
X137928572Y-78688809D01*
X137928572Y-78688809D02*
X137976191Y-78593571D01*
X137976191Y-78593571D02*
X138071429Y-78545952D01*
X138071429Y-78545952D02*
X138261905Y-78545952D01*
X138261905Y-78545952D02*
X138357143Y-78593571D01*
X138357143Y-78593571D02*
X138404762Y-78688809D01*
X138404762Y-78688809D02*
X138404762Y-78784047D01*
X138404762Y-78784047D02*
X137928572Y-78879285D01*
X130490476Y-75462619D02*
X130490476Y-76176904D01*
X130490476Y-76176904D02*
X130442857Y-76319761D01*
X130442857Y-76319761D02*
X130347619Y-76415000D01*
X130347619Y-76415000D02*
X130204762Y-76462619D01*
X130204762Y-76462619D02*
X130109524Y-76462619D01*
X131490476Y-76462619D02*
X130919048Y-76462619D01*
X131204762Y-76462619D02*
X131204762Y-75462619D01*
X131204762Y-75462619D02*
X131109524Y-75605476D01*
X131109524Y-75605476D02*
X131014286Y-75700714D01*
X131014286Y-75700714D02*
X130919048Y-75748333D01*
X132109524Y-75462619D02*
X132204762Y-75462619D01*
X132204762Y-75462619D02*
X132300000Y-75510238D01*
X132300000Y-75510238D02*
X132347619Y-75557857D01*
X132347619Y-75557857D02*
X132395238Y-75653095D01*
X132395238Y-75653095D02*
X132442857Y-75843571D01*
X132442857Y-75843571D02*
X132442857Y-76081666D01*
X132442857Y-76081666D02*
X132395238Y-76272142D01*
X132395238Y-76272142D02*
X132347619Y-76367380D01*
X132347619Y-76367380D02*
X132300000Y-76415000D01*
X132300000Y-76415000D02*
X132204762Y-76462619D01*
X132204762Y-76462619D02*
X132109524Y-76462619D01*
X132109524Y-76462619D02*
X132014286Y-76415000D01*
X132014286Y-76415000D02*
X131966667Y-76367380D01*
X131966667Y-76367380D02*
X131919048Y-76272142D01*
X131919048Y-76272142D02*
X131871429Y-76081666D01*
X131871429Y-76081666D02*
X131871429Y-75843571D01*
X131871429Y-75843571D02*
X131919048Y-75653095D01*
X131919048Y-75653095D02*
X131966667Y-75557857D01*
X131966667Y-75557857D02*
X132014286Y-75510238D01*
X132014286Y-75510238D02*
X132109524Y-75462619D01*
%TO.C,R1*%
X105292619Y-74206666D02*
X105292619Y-74778094D01*
X105292619Y-74492380D02*
X104292619Y-74492380D01*
X104292619Y-74492380D02*
X104435476Y-74587618D01*
X104435476Y-74587618D02*
X104530714Y-74682856D01*
X104530714Y-74682856D02*
X104578333Y-74778094D01*
X104292619Y-73587618D02*
X104292619Y-73492380D01*
X104292619Y-73492380D02*
X104340238Y-73397142D01*
X104340238Y-73397142D02*
X104387857Y-73349523D01*
X104387857Y-73349523D02*
X104483095Y-73301904D01*
X104483095Y-73301904D02*
X104673571Y-73254285D01*
X104673571Y-73254285D02*
X104911666Y-73254285D01*
X104911666Y-73254285D02*
X105102142Y-73301904D01*
X105102142Y-73301904D02*
X105197380Y-73349523D01*
X105197380Y-73349523D02*
X105245000Y-73397142D01*
X105245000Y-73397142D02*
X105292619Y-73492380D01*
X105292619Y-73492380D02*
X105292619Y-73587618D01*
X105292619Y-73587618D02*
X105245000Y-73682856D01*
X105245000Y-73682856D02*
X105197380Y-73730475D01*
X105197380Y-73730475D02*
X105102142Y-73778094D01*
X105102142Y-73778094D02*
X104911666Y-73825713D01*
X104911666Y-73825713D02*
X104673571Y-73825713D01*
X104673571Y-73825713D02*
X104483095Y-73778094D01*
X104483095Y-73778094D02*
X104387857Y-73730475D01*
X104387857Y-73730475D02*
X104340238Y-73682856D01*
X104340238Y-73682856D02*
X104292619Y-73587618D01*
X104292619Y-72635237D02*
X104292619Y-72539999D01*
X104292619Y-72539999D02*
X104340238Y-72444761D01*
X104340238Y-72444761D02*
X104387857Y-72397142D01*
X104387857Y-72397142D02*
X104483095Y-72349523D01*
X104483095Y-72349523D02*
X104673571Y-72301904D01*
X104673571Y-72301904D02*
X104911666Y-72301904D01*
X104911666Y-72301904D02*
X105102142Y-72349523D01*
X105102142Y-72349523D02*
X105197380Y-72397142D01*
X105197380Y-72397142D02*
X105245000Y-72444761D01*
X105245000Y-72444761D02*
X105292619Y-72539999D01*
X105292619Y-72539999D02*
X105292619Y-72635237D01*
X105292619Y-72635237D02*
X105245000Y-72730475D01*
X105245000Y-72730475D02*
X105197380Y-72778094D01*
X105197380Y-72778094D02*
X105102142Y-72825713D01*
X105102142Y-72825713D02*
X104911666Y-72873332D01*
X104911666Y-72873332D02*
X104673571Y-72873332D01*
X104673571Y-72873332D02*
X104483095Y-72825713D01*
X104483095Y-72825713D02*
X104387857Y-72778094D01*
X104387857Y-72778094D02*
X104340238Y-72730475D01*
X104340238Y-72730475D02*
X104292619Y-72635237D01*
D12*
X107083085Y-73659999D02*
X106740228Y-73899999D01*
X107083085Y-74071428D02*
X106363085Y-74071428D01*
X106363085Y-74071428D02*
X106363085Y-73797142D01*
X106363085Y-73797142D02*
X106397371Y-73728571D01*
X106397371Y-73728571D02*
X106431657Y-73694285D01*
X106431657Y-73694285D02*
X106500228Y-73659999D01*
X106500228Y-73659999D02*
X106603085Y-73659999D01*
X106603085Y-73659999D02*
X106671657Y-73694285D01*
X106671657Y-73694285D02*
X106705942Y-73728571D01*
X106705942Y-73728571D02*
X106740228Y-73797142D01*
X106740228Y-73797142D02*
X106740228Y-74071428D01*
X107083085Y-72974285D02*
X107083085Y-73385714D01*
X107083085Y-73179999D02*
X106363085Y-73179999D01*
X106363085Y-73179999D02*
X106465942Y-73248571D01*
X106465942Y-73248571D02*
X106534514Y-73317142D01*
X106534514Y-73317142D02*
X106568800Y-73385714D01*
D10*
%TO.C,R2*%
X50542619Y-36858095D02*
X50542619Y-37334285D01*
X50542619Y-37334285D02*
X51018809Y-37381904D01*
X51018809Y-37381904D02*
X50971190Y-37334285D01*
X50971190Y-37334285D02*
X50923571Y-37239047D01*
X50923571Y-37239047D02*
X50923571Y-37000952D01*
X50923571Y-37000952D02*
X50971190Y-36905714D01*
X50971190Y-36905714D02*
X51018809Y-36858095D01*
X51018809Y-36858095D02*
X51114047Y-36810476D01*
X51114047Y-36810476D02*
X51352142Y-36810476D01*
X51352142Y-36810476D02*
X51447380Y-36858095D01*
X51447380Y-36858095D02*
X51495000Y-36905714D01*
X51495000Y-36905714D02*
X51542619Y-37000952D01*
X51542619Y-37000952D02*
X51542619Y-37239047D01*
X51542619Y-37239047D02*
X51495000Y-37334285D01*
X51495000Y-37334285D02*
X51447380Y-37381904D01*
X50542619Y-35953333D02*
X50542619Y-36143809D01*
X50542619Y-36143809D02*
X50590238Y-36239047D01*
X50590238Y-36239047D02*
X50637857Y-36286666D01*
X50637857Y-36286666D02*
X50780714Y-36381904D01*
X50780714Y-36381904D02*
X50971190Y-36429523D01*
X50971190Y-36429523D02*
X51352142Y-36429523D01*
X51352142Y-36429523D02*
X51447380Y-36381904D01*
X51447380Y-36381904D02*
X51495000Y-36334285D01*
X51495000Y-36334285D02*
X51542619Y-36239047D01*
X51542619Y-36239047D02*
X51542619Y-36048571D01*
X51542619Y-36048571D02*
X51495000Y-35953333D01*
X51495000Y-35953333D02*
X51447380Y-35905714D01*
X51447380Y-35905714D02*
X51352142Y-35858095D01*
X51352142Y-35858095D02*
X51114047Y-35858095D01*
X51114047Y-35858095D02*
X51018809Y-35905714D01*
X51018809Y-35905714D02*
X50971190Y-35953333D01*
X50971190Y-35953333D02*
X50923571Y-36048571D01*
X50923571Y-36048571D02*
X50923571Y-36239047D01*
X50923571Y-36239047D02*
X50971190Y-36334285D01*
X50971190Y-36334285D02*
X51018809Y-36381904D01*
X51018809Y-36381904D02*
X51114047Y-36429523D01*
X51542619Y-35429523D02*
X50542619Y-35429523D01*
X51542619Y-34858095D02*
X50971190Y-35286666D01*
X50542619Y-34858095D02*
X51114047Y-35429523D01*
D12*
X53333085Y-36239999D02*
X52990228Y-36479999D01*
X53333085Y-36651428D02*
X52613085Y-36651428D01*
X52613085Y-36651428D02*
X52613085Y-36377142D01*
X52613085Y-36377142D02*
X52647371Y-36308571D01*
X52647371Y-36308571D02*
X52681657Y-36274285D01*
X52681657Y-36274285D02*
X52750228Y-36239999D01*
X52750228Y-36239999D02*
X52853085Y-36239999D01*
X52853085Y-36239999D02*
X52921657Y-36274285D01*
X52921657Y-36274285D02*
X52955942Y-36308571D01*
X52955942Y-36308571D02*
X52990228Y-36377142D01*
X52990228Y-36377142D02*
X52990228Y-36651428D01*
X52681657Y-35965714D02*
X52647371Y-35931428D01*
X52647371Y-35931428D02*
X52613085Y-35862857D01*
X52613085Y-35862857D02*
X52613085Y-35691428D01*
X52613085Y-35691428D02*
X52647371Y-35622857D01*
X52647371Y-35622857D02*
X52681657Y-35588571D01*
X52681657Y-35588571D02*
X52750228Y-35554285D01*
X52750228Y-35554285D02*
X52818800Y-35554285D01*
X52818800Y-35554285D02*
X52921657Y-35588571D01*
X52921657Y-35588571D02*
X53333085Y-35999999D01*
X53333085Y-35999999D02*
X53333085Y-35554285D01*
D10*
%TO.C,R3*%
X49382619Y-36325714D02*
X49382619Y-36897142D01*
X49382619Y-36611428D02*
X48382619Y-36611428D01*
X48382619Y-36611428D02*
X48525476Y-36706666D01*
X48525476Y-36706666D02*
X48620714Y-36801904D01*
X48620714Y-36801904D02*
X48668333Y-36897142D01*
X49382619Y-35897142D02*
X48382619Y-35897142D01*
X48382619Y-35897142D02*
X49096904Y-35563809D01*
X49096904Y-35563809D02*
X48382619Y-35230476D01*
X48382619Y-35230476D02*
X49382619Y-35230476D01*
D12*
X47333085Y-36159999D02*
X46990228Y-36399999D01*
X47333085Y-36571428D02*
X46613085Y-36571428D01*
X46613085Y-36571428D02*
X46613085Y-36297142D01*
X46613085Y-36297142D02*
X46647371Y-36228571D01*
X46647371Y-36228571D02*
X46681657Y-36194285D01*
X46681657Y-36194285D02*
X46750228Y-36159999D01*
X46750228Y-36159999D02*
X46853085Y-36159999D01*
X46853085Y-36159999D02*
X46921657Y-36194285D01*
X46921657Y-36194285D02*
X46955942Y-36228571D01*
X46955942Y-36228571D02*
X46990228Y-36297142D01*
X46990228Y-36297142D02*
X46990228Y-36571428D01*
X46613085Y-35919999D02*
X46613085Y-35474285D01*
X46613085Y-35474285D02*
X46887371Y-35714285D01*
X46887371Y-35714285D02*
X46887371Y-35611428D01*
X46887371Y-35611428D02*
X46921657Y-35542857D01*
X46921657Y-35542857D02*
X46955942Y-35508571D01*
X46955942Y-35508571D02*
X47024514Y-35474285D01*
X47024514Y-35474285D02*
X47195942Y-35474285D01*
X47195942Y-35474285D02*
X47264514Y-35508571D01*
X47264514Y-35508571D02*
X47298800Y-35542857D01*
X47298800Y-35542857D02*
X47333085Y-35611428D01*
X47333085Y-35611428D02*
X47333085Y-35817142D01*
X47333085Y-35817142D02*
X47298800Y-35885714D01*
X47298800Y-35885714D02*
X47264514Y-35919999D01*
D10*
%TO.C,R4*%
X45542619Y-74825714D02*
X45542619Y-75397142D01*
X45542619Y-75111428D02*
X44542619Y-75111428D01*
X44542619Y-75111428D02*
X44685476Y-75206666D01*
X44685476Y-75206666D02*
X44780714Y-75301904D01*
X44780714Y-75301904D02*
X44828333Y-75397142D01*
X45542619Y-74397142D02*
X44542619Y-74397142D01*
X44542619Y-74397142D02*
X45256904Y-74063809D01*
X45256904Y-74063809D02*
X44542619Y-73730476D01*
X44542619Y-73730476D02*
X45542619Y-73730476D01*
D12*
X47333085Y-74659999D02*
X46990228Y-74899999D01*
X47333085Y-75071428D02*
X46613085Y-75071428D01*
X46613085Y-75071428D02*
X46613085Y-74797142D01*
X46613085Y-74797142D02*
X46647371Y-74728571D01*
X46647371Y-74728571D02*
X46681657Y-74694285D01*
X46681657Y-74694285D02*
X46750228Y-74659999D01*
X46750228Y-74659999D02*
X46853085Y-74659999D01*
X46853085Y-74659999D02*
X46921657Y-74694285D01*
X46921657Y-74694285D02*
X46955942Y-74728571D01*
X46955942Y-74728571D02*
X46990228Y-74797142D01*
X46990228Y-74797142D02*
X46990228Y-75071428D01*
X46853085Y-74042857D02*
X47333085Y-74042857D01*
X46578800Y-74214285D02*
X47093085Y-74385714D01*
X47093085Y-74385714D02*
X47093085Y-73939999D01*
D10*
%TO.C,R5*%
X110936190Y-39375952D02*
X110936190Y-40042619D01*
X110698095Y-38995000D02*
X110460000Y-39709285D01*
X110460000Y-39709285D02*
X111079047Y-39709285D01*
X111460000Y-39947380D02*
X111507619Y-39995000D01*
X111507619Y-39995000D02*
X111460000Y-40042619D01*
X111460000Y-40042619D02*
X111412381Y-39995000D01*
X111412381Y-39995000D02*
X111460000Y-39947380D01*
X111460000Y-39947380D02*
X111460000Y-40042619D01*
X111840952Y-39042619D02*
X112507618Y-39042619D01*
X112507618Y-39042619D02*
X112079047Y-40042619D01*
X112888571Y-40042619D02*
X112888571Y-39042619D01*
X113459999Y-40042619D02*
X113031428Y-39471190D01*
X113459999Y-39042619D02*
X112888571Y-39614047D01*
D12*
X111840000Y-41833085D02*
X111600000Y-41490228D01*
X111428571Y-41833085D02*
X111428571Y-41113085D01*
X111428571Y-41113085D02*
X111702857Y-41113085D01*
X111702857Y-41113085D02*
X111771428Y-41147371D01*
X111771428Y-41147371D02*
X111805714Y-41181657D01*
X111805714Y-41181657D02*
X111840000Y-41250228D01*
X111840000Y-41250228D02*
X111840000Y-41353085D01*
X111840000Y-41353085D02*
X111805714Y-41421657D01*
X111805714Y-41421657D02*
X111771428Y-41455942D01*
X111771428Y-41455942D02*
X111702857Y-41490228D01*
X111702857Y-41490228D02*
X111428571Y-41490228D01*
X112491428Y-41113085D02*
X112148571Y-41113085D01*
X112148571Y-41113085D02*
X112114285Y-41455942D01*
X112114285Y-41455942D02*
X112148571Y-41421657D01*
X112148571Y-41421657D02*
X112217143Y-41387371D01*
X112217143Y-41387371D02*
X112388571Y-41387371D01*
X112388571Y-41387371D02*
X112457143Y-41421657D01*
X112457143Y-41421657D02*
X112491428Y-41455942D01*
X112491428Y-41455942D02*
X112525714Y-41524514D01*
X112525714Y-41524514D02*
X112525714Y-41695942D01*
X112525714Y-41695942D02*
X112491428Y-41764514D01*
X112491428Y-41764514D02*
X112457143Y-41798800D01*
X112457143Y-41798800D02*
X112388571Y-41833085D01*
X112388571Y-41833085D02*
X112217143Y-41833085D01*
X112217143Y-41833085D02*
X112148571Y-41798800D01*
X112148571Y-41798800D02*
X112114285Y-41764514D01*
D10*
%TO.C,R6*%
X122875952Y-55983809D02*
X123542619Y-55983809D01*
X122495000Y-56221904D02*
X123209285Y-56459999D01*
X123209285Y-56459999D02*
X123209285Y-55840952D01*
X123447380Y-55459999D02*
X123495000Y-55412380D01*
X123495000Y-55412380D02*
X123542619Y-55459999D01*
X123542619Y-55459999D02*
X123495000Y-55507618D01*
X123495000Y-55507618D02*
X123447380Y-55459999D01*
X123447380Y-55459999D02*
X123542619Y-55459999D01*
X122542619Y-55079047D02*
X122542619Y-54412381D01*
X122542619Y-54412381D02*
X123542619Y-54840952D01*
X123542619Y-54031428D02*
X122542619Y-54031428D01*
X123542619Y-53460000D02*
X122971190Y-53888571D01*
X122542619Y-53460000D02*
X123114047Y-54031428D01*
D12*
X125333085Y-55079999D02*
X124990228Y-55319999D01*
X125333085Y-55491428D02*
X124613085Y-55491428D01*
X124613085Y-55491428D02*
X124613085Y-55217142D01*
X124613085Y-55217142D02*
X124647371Y-55148571D01*
X124647371Y-55148571D02*
X124681657Y-55114285D01*
X124681657Y-55114285D02*
X124750228Y-55079999D01*
X124750228Y-55079999D02*
X124853085Y-55079999D01*
X124853085Y-55079999D02*
X124921657Y-55114285D01*
X124921657Y-55114285D02*
X124955942Y-55148571D01*
X124955942Y-55148571D02*
X124990228Y-55217142D01*
X124990228Y-55217142D02*
X124990228Y-55491428D01*
X124613085Y-54462857D02*
X124613085Y-54599999D01*
X124613085Y-54599999D02*
X124647371Y-54668571D01*
X124647371Y-54668571D02*
X124681657Y-54702857D01*
X124681657Y-54702857D02*
X124784514Y-54771428D01*
X124784514Y-54771428D02*
X124921657Y-54805714D01*
X124921657Y-54805714D02*
X125195942Y-54805714D01*
X125195942Y-54805714D02*
X125264514Y-54771428D01*
X125264514Y-54771428D02*
X125298800Y-54737142D01*
X125298800Y-54737142D02*
X125333085Y-54668571D01*
X125333085Y-54668571D02*
X125333085Y-54531428D01*
X125333085Y-54531428D02*
X125298800Y-54462857D01*
X125298800Y-54462857D02*
X125264514Y-54428571D01*
X125264514Y-54428571D02*
X125195942Y-54394285D01*
X125195942Y-54394285D02*
X125024514Y-54394285D01*
X125024514Y-54394285D02*
X124955942Y-54428571D01*
X124955942Y-54428571D02*
X124921657Y-54462857D01*
X124921657Y-54462857D02*
X124887371Y-54531428D01*
X124887371Y-54531428D02*
X124887371Y-54668571D01*
X124887371Y-54668571D02*
X124921657Y-54737142D01*
X124921657Y-54737142D02*
X124955942Y-54771428D01*
X124955942Y-54771428D02*
X125024514Y-54805714D01*
D10*
%TO.C,R7*%
X109715952Y-37301904D02*
X110382619Y-37301904D01*
X109335000Y-37539999D02*
X110049285Y-37778094D01*
X110049285Y-37778094D02*
X110049285Y-37159047D01*
X109382619Y-36873332D02*
X109382619Y-36206666D01*
X109382619Y-36206666D02*
X110382619Y-36635237D01*
X109382619Y-35635237D02*
X109382619Y-35539999D01*
X109382619Y-35539999D02*
X109430238Y-35444761D01*
X109430238Y-35444761D02*
X109477857Y-35397142D01*
X109477857Y-35397142D02*
X109573095Y-35349523D01*
X109573095Y-35349523D02*
X109763571Y-35301904D01*
X109763571Y-35301904D02*
X110001666Y-35301904D01*
X110001666Y-35301904D02*
X110192142Y-35349523D01*
X110192142Y-35349523D02*
X110287380Y-35397142D01*
X110287380Y-35397142D02*
X110335000Y-35444761D01*
X110335000Y-35444761D02*
X110382619Y-35539999D01*
X110382619Y-35539999D02*
X110382619Y-35635237D01*
X110382619Y-35635237D02*
X110335000Y-35730475D01*
X110335000Y-35730475D02*
X110287380Y-35778094D01*
X110287380Y-35778094D02*
X110192142Y-35825713D01*
X110192142Y-35825713D02*
X110001666Y-35873332D01*
X110001666Y-35873332D02*
X109763571Y-35873332D01*
X109763571Y-35873332D02*
X109573095Y-35825713D01*
X109573095Y-35825713D02*
X109477857Y-35778094D01*
X109477857Y-35778094D02*
X109430238Y-35730475D01*
X109430238Y-35730475D02*
X109382619Y-35635237D01*
D12*
X108333085Y-36659999D02*
X107990228Y-36899999D01*
X108333085Y-37071428D02*
X107613085Y-37071428D01*
X107613085Y-37071428D02*
X107613085Y-36797142D01*
X107613085Y-36797142D02*
X107647371Y-36728571D01*
X107647371Y-36728571D02*
X107681657Y-36694285D01*
X107681657Y-36694285D02*
X107750228Y-36659999D01*
X107750228Y-36659999D02*
X107853085Y-36659999D01*
X107853085Y-36659999D02*
X107921657Y-36694285D01*
X107921657Y-36694285D02*
X107955942Y-36728571D01*
X107955942Y-36728571D02*
X107990228Y-36797142D01*
X107990228Y-36797142D02*
X107990228Y-37071428D01*
X107613085Y-36419999D02*
X107613085Y-35939999D01*
X107613085Y-35939999D02*
X108333085Y-36248571D01*
D10*
%TO.C,R8*%
X111448095Y-66625952D02*
X111448095Y-67292619D01*
X111210000Y-66245000D02*
X110971905Y-66959285D01*
X110971905Y-66959285D02*
X111590952Y-66959285D01*
X111876667Y-66292619D02*
X112543333Y-66292619D01*
X112543333Y-66292619D02*
X112114762Y-67292619D01*
X113114762Y-66292619D02*
X113210000Y-66292619D01*
X113210000Y-66292619D02*
X113305238Y-66340238D01*
X113305238Y-66340238D02*
X113352857Y-66387857D01*
X113352857Y-66387857D02*
X113400476Y-66483095D01*
X113400476Y-66483095D02*
X113448095Y-66673571D01*
X113448095Y-66673571D02*
X113448095Y-66911666D01*
X113448095Y-66911666D02*
X113400476Y-67102142D01*
X113400476Y-67102142D02*
X113352857Y-67197380D01*
X113352857Y-67197380D02*
X113305238Y-67245000D01*
X113305238Y-67245000D02*
X113210000Y-67292619D01*
X113210000Y-67292619D02*
X113114762Y-67292619D01*
X113114762Y-67292619D02*
X113019524Y-67245000D01*
X113019524Y-67245000D02*
X112971905Y-67197380D01*
X112971905Y-67197380D02*
X112924286Y-67102142D01*
X112924286Y-67102142D02*
X112876667Y-66911666D01*
X112876667Y-66911666D02*
X112876667Y-66673571D01*
X112876667Y-66673571D02*
X112924286Y-66483095D01*
X112924286Y-66483095D02*
X112971905Y-66387857D01*
X112971905Y-66387857D02*
X113019524Y-66340238D01*
X113019524Y-66340238D02*
X113114762Y-66292619D01*
D12*
X112090000Y-69083085D02*
X111850000Y-68740228D01*
X111678571Y-69083085D02*
X111678571Y-68363085D01*
X111678571Y-68363085D02*
X111952857Y-68363085D01*
X111952857Y-68363085D02*
X112021428Y-68397371D01*
X112021428Y-68397371D02*
X112055714Y-68431657D01*
X112055714Y-68431657D02*
X112090000Y-68500228D01*
X112090000Y-68500228D02*
X112090000Y-68603085D01*
X112090000Y-68603085D02*
X112055714Y-68671657D01*
X112055714Y-68671657D02*
X112021428Y-68705942D01*
X112021428Y-68705942D02*
X111952857Y-68740228D01*
X111952857Y-68740228D02*
X111678571Y-68740228D01*
X112501428Y-68671657D02*
X112432857Y-68637371D01*
X112432857Y-68637371D02*
X112398571Y-68603085D01*
X112398571Y-68603085D02*
X112364285Y-68534514D01*
X112364285Y-68534514D02*
X112364285Y-68500228D01*
X112364285Y-68500228D02*
X112398571Y-68431657D01*
X112398571Y-68431657D02*
X112432857Y-68397371D01*
X112432857Y-68397371D02*
X112501428Y-68363085D01*
X112501428Y-68363085D02*
X112638571Y-68363085D01*
X112638571Y-68363085D02*
X112707143Y-68397371D01*
X112707143Y-68397371D02*
X112741428Y-68431657D01*
X112741428Y-68431657D02*
X112775714Y-68500228D01*
X112775714Y-68500228D02*
X112775714Y-68534514D01*
X112775714Y-68534514D02*
X112741428Y-68603085D01*
X112741428Y-68603085D02*
X112707143Y-68637371D01*
X112707143Y-68637371D02*
X112638571Y-68671657D01*
X112638571Y-68671657D02*
X112501428Y-68671657D01*
X112501428Y-68671657D02*
X112432857Y-68705942D01*
X112432857Y-68705942D02*
X112398571Y-68740228D01*
X112398571Y-68740228D02*
X112364285Y-68808800D01*
X112364285Y-68808800D02*
X112364285Y-68945942D01*
X112364285Y-68945942D02*
X112398571Y-69014514D01*
X112398571Y-69014514D02*
X112432857Y-69048800D01*
X112432857Y-69048800D02*
X112501428Y-69083085D01*
X112501428Y-69083085D02*
X112638571Y-69083085D01*
X112638571Y-69083085D02*
X112707143Y-69048800D01*
X112707143Y-69048800D02*
X112741428Y-69014514D01*
X112741428Y-69014514D02*
X112775714Y-68945942D01*
X112775714Y-68945942D02*
X112775714Y-68808800D01*
X112775714Y-68808800D02*
X112741428Y-68740228D01*
X112741428Y-68740228D02*
X112707143Y-68705942D01*
X112707143Y-68705942D02*
X112638571Y-68671657D01*
D10*
%TO.C,R9*%
X70793333Y-49382619D02*
X70221905Y-49382619D01*
X70507619Y-49382619D02*
X70507619Y-48382619D01*
X70507619Y-48382619D02*
X70412381Y-48525476D01*
X70412381Y-48525476D02*
X70317143Y-48620714D01*
X70317143Y-48620714D02*
X70221905Y-48668333D01*
X71412381Y-48382619D02*
X71507619Y-48382619D01*
X71507619Y-48382619D02*
X71602857Y-48430238D01*
X71602857Y-48430238D02*
X71650476Y-48477857D01*
X71650476Y-48477857D02*
X71698095Y-48573095D01*
X71698095Y-48573095D02*
X71745714Y-48763571D01*
X71745714Y-48763571D02*
X71745714Y-49001666D01*
X71745714Y-49001666D02*
X71698095Y-49192142D01*
X71698095Y-49192142D02*
X71650476Y-49287380D01*
X71650476Y-49287380D02*
X71602857Y-49335000D01*
X71602857Y-49335000D02*
X71507619Y-49382619D01*
X71507619Y-49382619D02*
X71412381Y-49382619D01*
X71412381Y-49382619D02*
X71317143Y-49335000D01*
X71317143Y-49335000D02*
X71269524Y-49287380D01*
X71269524Y-49287380D02*
X71221905Y-49192142D01*
X71221905Y-49192142D02*
X71174286Y-49001666D01*
X71174286Y-49001666D02*
X71174286Y-48763571D01*
X71174286Y-48763571D02*
X71221905Y-48573095D01*
X71221905Y-48573095D02*
X71269524Y-48477857D01*
X71269524Y-48477857D02*
X71317143Y-48430238D01*
X71317143Y-48430238D02*
X71412381Y-48382619D01*
X72364762Y-48382619D02*
X72460000Y-48382619D01*
X72460000Y-48382619D02*
X72555238Y-48430238D01*
X72555238Y-48430238D02*
X72602857Y-48477857D01*
X72602857Y-48477857D02*
X72650476Y-48573095D01*
X72650476Y-48573095D02*
X72698095Y-48763571D01*
X72698095Y-48763571D02*
X72698095Y-49001666D01*
X72698095Y-49001666D02*
X72650476Y-49192142D01*
X72650476Y-49192142D02*
X72602857Y-49287380D01*
X72602857Y-49287380D02*
X72555238Y-49335000D01*
X72555238Y-49335000D02*
X72460000Y-49382619D01*
X72460000Y-49382619D02*
X72364762Y-49382619D01*
X72364762Y-49382619D02*
X72269524Y-49335000D01*
X72269524Y-49335000D02*
X72221905Y-49287380D01*
X72221905Y-49287380D02*
X72174286Y-49192142D01*
X72174286Y-49192142D02*
X72126667Y-49001666D01*
X72126667Y-49001666D02*
X72126667Y-48763571D01*
X72126667Y-48763571D02*
X72174286Y-48573095D01*
X72174286Y-48573095D02*
X72221905Y-48477857D01*
X72221905Y-48477857D02*
X72269524Y-48430238D01*
X72269524Y-48430238D02*
X72364762Y-48382619D01*
D12*
X71340000Y-47333085D02*
X71100000Y-46990228D01*
X70928571Y-47333085D02*
X70928571Y-46613085D01*
X70928571Y-46613085D02*
X71202857Y-46613085D01*
X71202857Y-46613085D02*
X71271428Y-46647371D01*
X71271428Y-46647371D02*
X71305714Y-46681657D01*
X71305714Y-46681657D02*
X71340000Y-46750228D01*
X71340000Y-46750228D02*
X71340000Y-46853085D01*
X71340000Y-46853085D02*
X71305714Y-46921657D01*
X71305714Y-46921657D02*
X71271428Y-46955942D01*
X71271428Y-46955942D02*
X71202857Y-46990228D01*
X71202857Y-46990228D02*
X70928571Y-46990228D01*
X71682857Y-47333085D02*
X71820000Y-47333085D01*
X71820000Y-47333085D02*
X71888571Y-47298800D01*
X71888571Y-47298800D02*
X71922857Y-47264514D01*
X71922857Y-47264514D02*
X71991428Y-47161657D01*
X71991428Y-47161657D02*
X72025714Y-47024514D01*
X72025714Y-47024514D02*
X72025714Y-46750228D01*
X72025714Y-46750228D02*
X71991428Y-46681657D01*
X71991428Y-46681657D02*
X71957143Y-46647371D01*
X71957143Y-46647371D02*
X71888571Y-46613085D01*
X71888571Y-46613085D02*
X71751428Y-46613085D01*
X71751428Y-46613085D02*
X71682857Y-46647371D01*
X71682857Y-46647371D02*
X71648571Y-46681657D01*
X71648571Y-46681657D02*
X71614285Y-46750228D01*
X71614285Y-46750228D02*
X71614285Y-46921657D01*
X71614285Y-46921657D02*
X71648571Y-46990228D01*
X71648571Y-46990228D02*
X71682857Y-47024514D01*
X71682857Y-47024514D02*
X71751428Y-47058800D01*
X71751428Y-47058800D02*
X71888571Y-47058800D01*
X71888571Y-47058800D02*
X71957143Y-47024514D01*
X71957143Y-47024514D02*
X71991428Y-46990228D01*
X71991428Y-46990228D02*
X72025714Y-46921657D01*
D10*
%TO.C,R10*%
X50542619Y-75278095D02*
X50542619Y-75754285D01*
X50542619Y-75754285D02*
X51018809Y-75801904D01*
X51018809Y-75801904D02*
X50971190Y-75754285D01*
X50971190Y-75754285D02*
X50923571Y-75659047D01*
X50923571Y-75659047D02*
X50923571Y-75420952D01*
X50923571Y-75420952D02*
X50971190Y-75325714D01*
X50971190Y-75325714D02*
X51018809Y-75278095D01*
X51018809Y-75278095D02*
X51114047Y-75230476D01*
X51114047Y-75230476D02*
X51352142Y-75230476D01*
X51352142Y-75230476D02*
X51447380Y-75278095D01*
X51447380Y-75278095D02*
X51495000Y-75325714D01*
X51495000Y-75325714D02*
X51542619Y-75420952D01*
X51542619Y-75420952D02*
X51542619Y-75659047D01*
X51542619Y-75659047D02*
X51495000Y-75754285D01*
X51495000Y-75754285D02*
X51447380Y-75801904D01*
X50542619Y-74373333D02*
X50542619Y-74563809D01*
X50542619Y-74563809D02*
X50590238Y-74659047D01*
X50590238Y-74659047D02*
X50637857Y-74706666D01*
X50637857Y-74706666D02*
X50780714Y-74801904D01*
X50780714Y-74801904D02*
X50971190Y-74849523D01*
X50971190Y-74849523D02*
X51352142Y-74849523D01*
X51352142Y-74849523D02*
X51447380Y-74801904D01*
X51447380Y-74801904D02*
X51495000Y-74754285D01*
X51495000Y-74754285D02*
X51542619Y-74659047D01*
X51542619Y-74659047D02*
X51542619Y-74468571D01*
X51542619Y-74468571D02*
X51495000Y-74373333D01*
X51495000Y-74373333D02*
X51447380Y-74325714D01*
X51447380Y-74325714D02*
X51352142Y-74278095D01*
X51352142Y-74278095D02*
X51114047Y-74278095D01*
X51114047Y-74278095D02*
X51018809Y-74325714D01*
X51018809Y-74325714D02*
X50971190Y-74373333D01*
X50971190Y-74373333D02*
X50923571Y-74468571D01*
X50923571Y-74468571D02*
X50923571Y-74659047D01*
X50923571Y-74659047D02*
X50971190Y-74754285D01*
X50971190Y-74754285D02*
X51018809Y-74801904D01*
X51018809Y-74801904D02*
X51114047Y-74849523D01*
X51542619Y-73849523D02*
X50542619Y-73849523D01*
X51542619Y-73278095D02*
X50971190Y-73706666D01*
X50542619Y-73278095D02*
X51114047Y-73849523D01*
D12*
X53333085Y-75002856D02*
X52990228Y-75242856D01*
X53333085Y-75414285D02*
X52613085Y-75414285D01*
X52613085Y-75414285D02*
X52613085Y-75139999D01*
X52613085Y-75139999D02*
X52647371Y-75071428D01*
X52647371Y-75071428D02*
X52681657Y-75037142D01*
X52681657Y-75037142D02*
X52750228Y-75002856D01*
X52750228Y-75002856D02*
X52853085Y-75002856D01*
X52853085Y-75002856D02*
X52921657Y-75037142D01*
X52921657Y-75037142D02*
X52955942Y-75071428D01*
X52955942Y-75071428D02*
X52990228Y-75139999D01*
X52990228Y-75139999D02*
X52990228Y-75414285D01*
X53333085Y-74317142D02*
X53333085Y-74728571D01*
X53333085Y-74522856D02*
X52613085Y-74522856D01*
X52613085Y-74522856D02*
X52715942Y-74591428D01*
X52715942Y-74591428D02*
X52784514Y-74659999D01*
X52784514Y-74659999D02*
X52818800Y-74728571D01*
X52613085Y-73871428D02*
X52613085Y-73802857D01*
X52613085Y-73802857D02*
X52647371Y-73734285D01*
X52647371Y-73734285D02*
X52681657Y-73700000D01*
X52681657Y-73700000D02*
X52750228Y-73665714D01*
X52750228Y-73665714D02*
X52887371Y-73631428D01*
X52887371Y-73631428D02*
X53058800Y-73631428D01*
X53058800Y-73631428D02*
X53195942Y-73665714D01*
X53195942Y-73665714D02*
X53264514Y-73700000D01*
X53264514Y-73700000D02*
X53298800Y-73734285D01*
X53298800Y-73734285D02*
X53333085Y-73802857D01*
X53333085Y-73802857D02*
X53333085Y-73871428D01*
X53333085Y-73871428D02*
X53298800Y-73940000D01*
X53298800Y-73940000D02*
X53264514Y-73974285D01*
X53264514Y-73974285D02*
X53195942Y-74008571D01*
X53195942Y-74008571D02*
X53058800Y-74042857D01*
X53058800Y-74042857D02*
X52887371Y-74042857D01*
X52887371Y-74042857D02*
X52750228Y-74008571D01*
X52750228Y-74008571D02*
X52681657Y-73974285D01*
X52681657Y-73974285D02*
X52647371Y-73940000D01*
X52647371Y-73940000D02*
X52613085Y-73871428D01*
D10*
%TO.C,R11*%
X70793333Y-66382619D02*
X70221905Y-66382619D01*
X70507619Y-66382619D02*
X70507619Y-65382619D01*
X70507619Y-65382619D02*
X70412381Y-65525476D01*
X70412381Y-65525476D02*
X70317143Y-65620714D01*
X70317143Y-65620714D02*
X70221905Y-65668333D01*
X71412381Y-65382619D02*
X71507619Y-65382619D01*
X71507619Y-65382619D02*
X71602857Y-65430238D01*
X71602857Y-65430238D02*
X71650476Y-65477857D01*
X71650476Y-65477857D02*
X71698095Y-65573095D01*
X71698095Y-65573095D02*
X71745714Y-65763571D01*
X71745714Y-65763571D02*
X71745714Y-66001666D01*
X71745714Y-66001666D02*
X71698095Y-66192142D01*
X71698095Y-66192142D02*
X71650476Y-66287380D01*
X71650476Y-66287380D02*
X71602857Y-66335000D01*
X71602857Y-66335000D02*
X71507619Y-66382619D01*
X71507619Y-66382619D02*
X71412381Y-66382619D01*
X71412381Y-66382619D02*
X71317143Y-66335000D01*
X71317143Y-66335000D02*
X71269524Y-66287380D01*
X71269524Y-66287380D02*
X71221905Y-66192142D01*
X71221905Y-66192142D02*
X71174286Y-66001666D01*
X71174286Y-66001666D02*
X71174286Y-65763571D01*
X71174286Y-65763571D02*
X71221905Y-65573095D01*
X71221905Y-65573095D02*
X71269524Y-65477857D01*
X71269524Y-65477857D02*
X71317143Y-65430238D01*
X71317143Y-65430238D02*
X71412381Y-65382619D01*
X72364762Y-65382619D02*
X72460000Y-65382619D01*
X72460000Y-65382619D02*
X72555238Y-65430238D01*
X72555238Y-65430238D02*
X72602857Y-65477857D01*
X72602857Y-65477857D02*
X72650476Y-65573095D01*
X72650476Y-65573095D02*
X72698095Y-65763571D01*
X72698095Y-65763571D02*
X72698095Y-66001666D01*
X72698095Y-66001666D02*
X72650476Y-66192142D01*
X72650476Y-66192142D02*
X72602857Y-66287380D01*
X72602857Y-66287380D02*
X72555238Y-66335000D01*
X72555238Y-66335000D02*
X72460000Y-66382619D01*
X72460000Y-66382619D02*
X72364762Y-66382619D01*
X72364762Y-66382619D02*
X72269524Y-66335000D01*
X72269524Y-66335000D02*
X72221905Y-66287380D01*
X72221905Y-66287380D02*
X72174286Y-66192142D01*
X72174286Y-66192142D02*
X72126667Y-66001666D01*
X72126667Y-66001666D02*
X72126667Y-65763571D01*
X72126667Y-65763571D02*
X72174286Y-65573095D01*
X72174286Y-65573095D02*
X72221905Y-65477857D01*
X72221905Y-65477857D02*
X72269524Y-65430238D01*
X72269524Y-65430238D02*
X72364762Y-65382619D01*
D12*
X70997143Y-64333085D02*
X70757143Y-63990228D01*
X70585714Y-64333085D02*
X70585714Y-63613085D01*
X70585714Y-63613085D02*
X70860000Y-63613085D01*
X70860000Y-63613085D02*
X70928571Y-63647371D01*
X70928571Y-63647371D02*
X70962857Y-63681657D01*
X70962857Y-63681657D02*
X70997143Y-63750228D01*
X70997143Y-63750228D02*
X70997143Y-63853085D01*
X70997143Y-63853085D02*
X70962857Y-63921657D01*
X70962857Y-63921657D02*
X70928571Y-63955942D01*
X70928571Y-63955942D02*
X70860000Y-63990228D01*
X70860000Y-63990228D02*
X70585714Y-63990228D01*
X71682857Y-64333085D02*
X71271428Y-64333085D01*
X71477143Y-64333085D02*
X71477143Y-63613085D01*
X71477143Y-63613085D02*
X71408571Y-63715942D01*
X71408571Y-63715942D02*
X71340000Y-63784514D01*
X71340000Y-63784514D02*
X71271428Y-63818800D01*
X72368571Y-64333085D02*
X71957142Y-64333085D01*
X72162857Y-64333085D02*
X72162857Y-63613085D01*
X72162857Y-63613085D02*
X72094285Y-63715942D01*
X72094285Y-63715942D02*
X72025714Y-63784514D01*
X72025714Y-63784514D02*
X71957142Y-63818800D01*
D10*
%TO.C,C2*%
X75962619Y-37642856D02*
X75962619Y-37547618D01*
X75962619Y-37547618D02*
X76010238Y-37452380D01*
X76010238Y-37452380D02*
X76057857Y-37404761D01*
X76057857Y-37404761D02*
X76153095Y-37357142D01*
X76153095Y-37357142D02*
X76343571Y-37309523D01*
X76343571Y-37309523D02*
X76581666Y-37309523D01*
X76581666Y-37309523D02*
X76772142Y-37357142D01*
X76772142Y-37357142D02*
X76867380Y-37404761D01*
X76867380Y-37404761D02*
X76915000Y-37452380D01*
X76915000Y-37452380D02*
X76962619Y-37547618D01*
X76962619Y-37547618D02*
X76962619Y-37642856D01*
X76962619Y-37642856D02*
X76915000Y-37738094D01*
X76915000Y-37738094D02*
X76867380Y-37785713D01*
X76867380Y-37785713D02*
X76772142Y-37833332D01*
X76772142Y-37833332D02*
X76581666Y-37880951D01*
X76581666Y-37880951D02*
X76343571Y-37880951D01*
X76343571Y-37880951D02*
X76153095Y-37833332D01*
X76153095Y-37833332D02*
X76057857Y-37785713D01*
X76057857Y-37785713D02*
X76010238Y-37738094D01*
X76010238Y-37738094D02*
X75962619Y-37642856D01*
X76867380Y-36880951D02*
X76915000Y-36833332D01*
X76915000Y-36833332D02*
X76962619Y-36880951D01*
X76962619Y-36880951D02*
X76915000Y-36928570D01*
X76915000Y-36928570D02*
X76867380Y-36880951D01*
X76867380Y-36880951D02*
X76962619Y-36880951D01*
X76962619Y-35880952D02*
X76962619Y-36452380D01*
X76962619Y-36166666D02*
X75962619Y-36166666D01*
X75962619Y-36166666D02*
X76105476Y-36261904D01*
X76105476Y-36261904D02*
X76200714Y-36357142D01*
X76200714Y-36357142D02*
X76248333Y-36452380D01*
X76295952Y-35023809D02*
X76962619Y-35023809D01*
X76295952Y-35452380D02*
X76819761Y-35452380D01*
X76819761Y-35452380D02*
X76915000Y-35404761D01*
X76915000Y-35404761D02*
X76962619Y-35309523D01*
X76962619Y-35309523D02*
X76962619Y-35166666D01*
X76962619Y-35166666D02*
X76915000Y-35071428D01*
X76915000Y-35071428D02*
X76867380Y-35023809D01*
X76438809Y-34214285D02*
X76438809Y-34547618D01*
X76962619Y-34547618D02*
X75962619Y-34547618D01*
X75962619Y-34547618D02*
X75962619Y-34071428D01*
X74367380Y-36166666D02*
X74415000Y-36214285D01*
X74415000Y-36214285D02*
X74462619Y-36357142D01*
X74462619Y-36357142D02*
X74462619Y-36452380D01*
X74462619Y-36452380D02*
X74415000Y-36595237D01*
X74415000Y-36595237D02*
X74319761Y-36690475D01*
X74319761Y-36690475D02*
X74224523Y-36738094D01*
X74224523Y-36738094D02*
X74034047Y-36785713D01*
X74034047Y-36785713D02*
X73891190Y-36785713D01*
X73891190Y-36785713D02*
X73700714Y-36738094D01*
X73700714Y-36738094D02*
X73605476Y-36690475D01*
X73605476Y-36690475D02*
X73510238Y-36595237D01*
X73510238Y-36595237D02*
X73462619Y-36452380D01*
X73462619Y-36452380D02*
X73462619Y-36357142D01*
X73462619Y-36357142D02*
X73510238Y-36214285D01*
X73510238Y-36214285D02*
X73557857Y-36166666D01*
X73557857Y-35785713D02*
X73510238Y-35738094D01*
X73510238Y-35738094D02*
X73462619Y-35642856D01*
X73462619Y-35642856D02*
X73462619Y-35404761D01*
X73462619Y-35404761D02*
X73510238Y-35309523D01*
X73510238Y-35309523D02*
X73557857Y-35261904D01*
X73557857Y-35261904D02*
X73653095Y-35214285D01*
X73653095Y-35214285D02*
X73748333Y-35214285D01*
X73748333Y-35214285D02*
X73891190Y-35261904D01*
X73891190Y-35261904D02*
X74462619Y-35833332D01*
X74462619Y-35833332D02*
X74462619Y-35214285D01*
%TO.C,C1*%
X99833333Y-48545952D02*
X99833333Y-49212619D01*
X99595238Y-48165000D02*
X99357143Y-48879285D01*
X99357143Y-48879285D02*
X99976190Y-48879285D01*
X100261905Y-48212619D02*
X100928571Y-48212619D01*
X100928571Y-48212619D02*
X100500000Y-49212619D01*
X101738095Y-48545952D02*
X101738095Y-49212619D01*
X101309524Y-48545952D02*
X101309524Y-49069761D01*
X101309524Y-49069761D02*
X101357143Y-49165000D01*
X101357143Y-49165000D02*
X101452381Y-49212619D01*
X101452381Y-49212619D02*
X101595238Y-49212619D01*
X101595238Y-49212619D02*
X101690476Y-49165000D01*
X101690476Y-49165000D02*
X101738095Y-49117380D01*
X102547619Y-48688809D02*
X102214286Y-48688809D01*
X102214286Y-49212619D02*
X102214286Y-48212619D01*
X102214286Y-48212619D02*
X102690476Y-48212619D01*
X100833333Y-45367380D02*
X100785714Y-45415000D01*
X100785714Y-45415000D02*
X100642857Y-45462619D01*
X100642857Y-45462619D02*
X100547619Y-45462619D01*
X100547619Y-45462619D02*
X100404762Y-45415000D01*
X100404762Y-45415000D02*
X100309524Y-45319761D01*
X100309524Y-45319761D02*
X100261905Y-45224523D01*
X100261905Y-45224523D02*
X100214286Y-45034047D01*
X100214286Y-45034047D02*
X100214286Y-44891190D01*
X100214286Y-44891190D02*
X100261905Y-44700714D01*
X100261905Y-44700714D02*
X100309524Y-44605476D01*
X100309524Y-44605476D02*
X100404762Y-44510238D01*
X100404762Y-44510238D02*
X100547619Y-44462619D01*
X100547619Y-44462619D02*
X100642857Y-44462619D01*
X100642857Y-44462619D02*
X100785714Y-44510238D01*
X100785714Y-44510238D02*
X100833333Y-44557857D01*
X101785714Y-45462619D02*
X101214286Y-45462619D01*
X101500000Y-45462619D02*
X101500000Y-44462619D01*
X101500000Y-44462619D02*
X101404762Y-44605476D01*
X101404762Y-44605476D02*
X101309524Y-44700714D01*
X101309524Y-44700714D02*
X101214286Y-44748333D01*
%TO.C,C4*%
X99059524Y-66862619D02*
X99678571Y-66862619D01*
X99678571Y-66862619D02*
X99345238Y-67243571D01*
X99345238Y-67243571D02*
X99488095Y-67243571D01*
X99488095Y-67243571D02*
X99583333Y-67291190D01*
X99583333Y-67291190D02*
X99630952Y-67338809D01*
X99630952Y-67338809D02*
X99678571Y-67434047D01*
X99678571Y-67434047D02*
X99678571Y-67672142D01*
X99678571Y-67672142D02*
X99630952Y-67767380D01*
X99630952Y-67767380D02*
X99583333Y-67815000D01*
X99583333Y-67815000D02*
X99488095Y-67862619D01*
X99488095Y-67862619D02*
X99202381Y-67862619D01*
X99202381Y-67862619D02*
X99107143Y-67815000D01*
X99107143Y-67815000D02*
X99059524Y-67767380D01*
X100011905Y-66862619D02*
X100630952Y-66862619D01*
X100630952Y-66862619D02*
X100297619Y-67243571D01*
X100297619Y-67243571D02*
X100440476Y-67243571D01*
X100440476Y-67243571D02*
X100535714Y-67291190D01*
X100535714Y-67291190D02*
X100583333Y-67338809D01*
X100583333Y-67338809D02*
X100630952Y-67434047D01*
X100630952Y-67434047D02*
X100630952Y-67672142D01*
X100630952Y-67672142D02*
X100583333Y-67767380D01*
X100583333Y-67767380D02*
X100535714Y-67815000D01*
X100535714Y-67815000D02*
X100440476Y-67862619D01*
X100440476Y-67862619D02*
X100154762Y-67862619D01*
X100154762Y-67862619D02*
X100059524Y-67815000D01*
X100059524Y-67815000D02*
X100011905Y-67767380D01*
X101488095Y-67195952D02*
X101488095Y-67862619D01*
X101059524Y-67195952D02*
X101059524Y-67719761D01*
X101059524Y-67719761D02*
X101107143Y-67815000D01*
X101107143Y-67815000D02*
X101202381Y-67862619D01*
X101202381Y-67862619D02*
X101345238Y-67862619D01*
X101345238Y-67862619D02*
X101440476Y-67815000D01*
X101440476Y-67815000D02*
X101488095Y-67767380D01*
X102297619Y-67338809D02*
X101964286Y-67338809D01*
X101964286Y-67862619D02*
X101964286Y-66862619D01*
X101964286Y-66862619D02*
X102440476Y-66862619D01*
X100583333Y-63367380D02*
X100535714Y-63415000D01*
X100535714Y-63415000D02*
X100392857Y-63462619D01*
X100392857Y-63462619D02*
X100297619Y-63462619D01*
X100297619Y-63462619D02*
X100154762Y-63415000D01*
X100154762Y-63415000D02*
X100059524Y-63319761D01*
X100059524Y-63319761D02*
X100011905Y-63224523D01*
X100011905Y-63224523D02*
X99964286Y-63034047D01*
X99964286Y-63034047D02*
X99964286Y-62891190D01*
X99964286Y-62891190D02*
X100011905Y-62700714D01*
X100011905Y-62700714D02*
X100059524Y-62605476D01*
X100059524Y-62605476D02*
X100154762Y-62510238D01*
X100154762Y-62510238D02*
X100297619Y-62462619D01*
X100297619Y-62462619D02*
X100392857Y-62462619D01*
X100392857Y-62462619D02*
X100535714Y-62510238D01*
X100535714Y-62510238D02*
X100583333Y-62557857D01*
X101440476Y-62795952D02*
X101440476Y-63462619D01*
X101202381Y-62415000D02*
X100964286Y-63129285D01*
X100964286Y-63129285D02*
X101583333Y-63129285D01*
%TO.C,U1*%
X75412619Y-59309999D02*
X75412619Y-58738571D01*
X76412619Y-59024285D02*
X75412619Y-59024285D01*
X76412619Y-57929047D02*
X76412619Y-58405237D01*
X76412619Y-58405237D02*
X75412619Y-58405237D01*
X75412619Y-57405237D02*
X75412619Y-57309999D01*
X75412619Y-57309999D02*
X75460238Y-57214761D01*
X75460238Y-57214761D02*
X75507857Y-57167142D01*
X75507857Y-57167142D02*
X75603095Y-57119523D01*
X75603095Y-57119523D02*
X75793571Y-57071904D01*
X75793571Y-57071904D02*
X76031666Y-57071904D01*
X76031666Y-57071904D02*
X76222142Y-57119523D01*
X76222142Y-57119523D02*
X76317380Y-57167142D01*
X76317380Y-57167142D02*
X76365000Y-57214761D01*
X76365000Y-57214761D02*
X76412619Y-57309999D01*
X76412619Y-57309999D02*
X76412619Y-57405237D01*
X76412619Y-57405237D02*
X76365000Y-57500475D01*
X76365000Y-57500475D02*
X76317380Y-57548094D01*
X76317380Y-57548094D02*
X76222142Y-57595713D01*
X76222142Y-57595713D02*
X76031666Y-57643332D01*
X76031666Y-57643332D02*
X75793571Y-57643332D01*
X75793571Y-57643332D02*
X75603095Y-57595713D01*
X75603095Y-57595713D02*
X75507857Y-57548094D01*
X75507857Y-57548094D02*
X75460238Y-57500475D01*
X75460238Y-57500475D02*
X75412619Y-57405237D01*
X75841190Y-56500475D02*
X75793571Y-56595713D01*
X75793571Y-56595713D02*
X75745952Y-56643332D01*
X75745952Y-56643332D02*
X75650714Y-56690951D01*
X75650714Y-56690951D02*
X75603095Y-56690951D01*
X75603095Y-56690951D02*
X75507857Y-56643332D01*
X75507857Y-56643332D02*
X75460238Y-56595713D01*
X75460238Y-56595713D02*
X75412619Y-56500475D01*
X75412619Y-56500475D02*
X75412619Y-56309999D01*
X75412619Y-56309999D02*
X75460238Y-56214761D01*
X75460238Y-56214761D02*
X75507857Y-56167142D01*
X75507857Y-56167142D02*
X75603095Y-56119523D01*
X75603095Y-56119523D02*
X75650714Y-56119523D01*
X75650714Y-56119523D02*
X75745952Y-56167142D01*
X75745952Y-56167142D02*
X75793571Y-56214761D01*
X75793571Y-56214761D02*
X75841190Y-56309999D01*
X75841190Y-56309999D02*
X75841190Y-56500475D01*
X75841190Y-56500475D02*
X75888809Y-56595713D01*
X75888809Y-56595713D02*
X75936428Y-56643332D01*
X75936428Y-56643332D02*
X76031666Y-56690951D01*
X76031666Y-56690951D02*
X76222142Y-56690951D01*
X76222142Y-56690951D02*
X76317380Y-56643332D01*
X76317380Y-56643332D02*
X76365000Y-56595713D01*
X76365000Y-56595713D02*
X76412619Y-56500475D01*
X76412619Y-56500475D02*
X76412619Y-56309999D01*
X76412619Y-56309999D02*
X76365000Y-56214761D01*
X76365000Y-56214761D02*
X76317380Y-56167142D01*
X76317380Y-56167142D02*
X76222142Y-56119523D01*
X76222142Y-56119523D02*
X76031666Y-56119523D01*
X76031666Y-56119523D02*
X75936428Y-56167142D01*
X75936428Y-56167142D02*
X75888809Y-56214761D01*
X75888809Y-56214761D02*
X75841190Y-56309999D01*
X75507857Y-55738570D02*
X75460238Y-55690951D01*
X75460238Y-55690951D02*
X75412619Y-55595713D01*
X75412619Y-55595713D02*
X75412619Y-55357618D01*
X75412619Y-55357618D02*
X75460238Y-55262380D01*
X75460238Y-55262380D02*
X75507857Y-55214761D01*
X75507857Y-55214761D02*
X75603095Y-55167142D01*
X75603095Y-55167142D02*
X75698333Y-55167142D01*
X75698333Y-55167142D02*
X75841190Y-55214761D01*
X75841190Y-55214761D02*
X76412619Y-55786189D01*
X76412619Y-55786189D02*
X76412619Y-55167142D01*
X75888809Y-54405237D02*
X75936428Y-54262380D01*
X75936428Y-54262380D02*
X75984047Y-54214761D01*
X75984047Y-54214761D02*
X76079285Y-54167142D01*
X76079285Y-54167142D02*
X76222142Y-54167142D01*
X76222142Y-54167142D02*
X76317380Y-54214761D01*
X76317380Y-54214761D02*
X76365000Y-54262380D01*
X76365000Y-54262380D02*
X76412619Y-54357618D01*
X76412619Y-54357618D02*
X76412619Y-54738570D01*
X76412619Y-54738570D02*
X75412619Y-54738570D01*
X75412619Y-54738570D02*
X75412619Y-54405237D01*
X75412619Y-54405237D02*
X75460238Y-54309999D01*
X75460238Y-54309999D02*
X75507857Y-54262380D01*
X75507857Y-54262380D02*
X75603095Y-54214761D01*
X75603095Y-54214761D02*
X75698333Y-54214761D01*
X75698333Y-54214761D02*
X75793571Y-54262380D01*
X75793571Y-54262380D02*
X75841190Y-54309999D01*
X75841190Y-54309999D02*
X75888809Y-54405237D01*
X75888809Y-54405237D02*
X75888809Y-54738570D01*
X76317380Y-53167142D02*
X76365000Y-53214761D01*
X76365000Y-53214761D02*
X76412619Y-53357618D01*
X76412619Y-53357618D02*
X76412619Y-53452856D01*
X76412619Y-53452856D02*
X76365000Y-53595713D01*
X76365000Y-53595713D02*
X76269761Y-53690951D01*
X76269761Y-53690951D02*
X76174523Y-53738570D01*
X76174523Y-53738570D02*
X75984047Y-53786189D01*
X75984047Y-53786189D02*
X75841190Y-53786189D01*
X75841190Y-53786189D02*
X75650714Y-53738570D01*
X75650714Y-53738570D02*
X75555476Y-53690951D01*
X75555476Y-53690951D02*
X75460238Y-53595713D01*
X75460238Y-53595713D02*
X75412619Y-53452856D01*
X75412619Y-53452856D02*
X75412619Y-53357618D01*
X75412619Y-53357618D02*
X75460238Y-53214761D01*
X75460238Y-53214761D02*
X75507857Y-53167142D01*
X76412619Y-52738570D02*
X75412619Y-52738570D01*
X75412619Y-52738570D02*
X75412619Y-52357618D01*
X75412619Y-52357618D02*
X75460238Y-52262380D01*
X75460238Y-52262380D02*
X75507857Y-52214761D01*
X75507857Y-52214761D02*
X75603095Y-52167142D01*
X75603095Y-52167142D02*
X75745952Y-52167142D01*
X75745952Y-52167142D02*
X75841190Y-52214761D01*
X75841190Y-52214761D02*
X75888809Y-52262380D01*
X75888809Y-52262380D02*
X75936428Y-52357618D01*
X75936428Y-52357618D02*
X75936428Y-52738570D01*
X69272619Y-56071904D02*
X70082142Y-56071904D01*
X70082142Y-56071904D02*
X70177380Y-56024285D01*
X70177380Y-56024285D02*
X70225000Y-55976666D01*
X70225000Y-55976666D02*
X70272619Y-55881428D01*
X70272619Y-55881428D02*
X70272619Y-55690952D01*
X70272619Y-55690952D02*
X70225000Y-55595714D01*
X70225000Y-55595714D02*
X70177380Y-55548095D01*
X70177380Y-55548095D02*
X70082142Y-55500476D01*
X70082142Y-55500476D02*
X69272619Y-55500476D01*
X70272619Y-54500476D02*
X70272619Y-55071904D01*
X70272619Y-54786190D02*
X69272619Y-54786190D01*
X69272619Y-54786190D02*
X69415476Y-54881428D01*
X69415476Y-54881428D02*
X69510714Y-54976666D01*
X69510714Y-54976666D02*
X69558333Y-55071904D01*
%TO.C,RV1*%
X82462619Y-62833334D02*
X81986428Y-63166667D01*
X82462619Y-63404762D02*
X81462619Y-63404762D01*
X81462619Y-63404762D02*
X81462619Y-63023810D01*
X81462619Y-63023810D02*
X81510238Y-62928572D01*
X81510238Y-62928572D02*
X81557857Y-62880953D01*
X81557857Y-62880953D02*
X81653095Y-62833334D01*
X81653095Y-62833334D02*
X81795952Y-62833334D01*
X81795952Y-62833334D02*
X81891190Y-62880953D01*
X81891190Y-62880953D02*
X81938809Y-62928572D01*
X81938809Y-62928572D02*
X81986428Y-63023810D01*
X81986428Y-63023810D02*
X81986428Y-63404762D01*
X82557857Y-62642858D02*
X82557857Y-61880953D01*
X82462619Y-61642857D02*
X81462619Y-61642857D01*
X81462619Y-61642857D02*
X81462619Y-61261905D01*
X81462619Y-61261905D02*
X81510238Y-61166667D01*
X81510238Y-61166667D02*
X81557857Y-61119048D01*
X81557857Y-61119048D02*
X81653095Y-61071429D01*
X81653095Y-61071429D02*
X81795952Y-61071429D01*
X81795952Y-61071429D02*
X81891190Y-61119048D01*
X81891190Y-61119048D02*
X81938809Y-61166667D01*
X81938809Y-61166667D02*
X81986428Y-61261905D01*
X81986428Y-61261905D02*
X81986428Y-61642857D01*
X82462619Y-60500000D02*
X82415000Y-60595238D01*
X82415000Y-60595238D02*
X82367380Y-60642857D01*
X82367380Y-60642857D02*
X82272142Y-60690476D01*
X82272142Y-60690476D02*
X81986428Y-60690476D01*
X81986428Y-60690476D02*
X81891190Y-60642857D01*
X81891190Y-60642857D02*
X81843571Y-60595238D01*
X81843571Y-60595238D02*
X81795952Y-60500000D01*
X81795952Y-60500000D02*
X81795952Y-60357143D01*
X81795952Y-60357143D02*
X81843571Y-60261905D01*
X81843571Y-60261905D02*
X81891190Y-60214286D01*
X81891190Y-60214286D02*
X81986428Y-60166667D01*
X81986428Y-60166667D02*
X82272142Y-60166667D01*
X82272142Y-60166667D02*
X82367380Y-60214286D01*
X82367380Y-60214286D02*
X82415000Y-60261905D01*
X82415000Y-60261905D02*
X82462619Y-60357143D01*
X82462619Y-60357143D02*
X82462619Y-60500000D01*
X81795952Y-59880952D02*
X81795952Y-59500000D01*
X81462619Y-59738095D02*
X82319761Y-59738095D01*
X82319761Y-59738095D02*
X82415000Y-59690476D01*
X82415000Y-59690476D02*
X82462619Y-59595238D01*
X82462619Y-59595238D02*
X82462619Y-59500000D01*
X82415000Y-58785714D02*
X82462619Y-58880952D01*
X82462619Y-58880952D02*
X82462619Y-59071428D01*
X82462619Y-59071428D02*
X82415000Y-59166666D01*
X82415000Y-59166666D02*
X82319761Y-59214285D01*
X82319761Y-59214285D02*
X81938809Y-59214285D01*
X81938809Y-59214285D02*
X81843571Y-59166666D01*
X81843571Y-59166666D02*
X81795952Y-59071428D01*
X81795952Y-59071428D02*
X81795952Y-58880952D01*
X81795952Y-58880952D02*
X81843571Y-58785714D01*
X81843571Y-58785714D02*
X81938809Y-58738095D01*
X81938809Y-58738095D02*
X82034047Y-58738095D01*
X82034047Y-58738095D02*
X82129285Y-59214285D01*
X81795952Y-58309523D02*
X82462619Y-58309523D01*
X81891190Y-58309523D02*
X81843571Y-58261904D01*
X81843571Y-58261904D02*
X81795952Y-58166666D01*
X81795952Y-58166666D02*
X81795952Y-58023809D01*
X81795952Y-58023809D02*
X81843571Y-57928571D01*
X81843571Y-57928571D02*
X81938809Y-57880952D01*
X81938809Y-57880952D02*
X82462619Y-57880952D01*
X81795952Y-57547618D02*
X81795952Y-57166666D01*
X81462619Y-57404761D02*
X82319761Y-57404761D01*
X82319761Y-57404761D02*
X82415000Y-57357142D01*
X82415000Y-57357142D02*
X82462619Y-57261904D01*
X82462619Y-57261904D02*
X82462619Y-57166666D01*
X82462619Y-56833332D02*
X81795952Y-56833332D01*
X81462619Y-56833332D02*
X81510238Y-56880951D01*
X81510238Y-56880951D02*
X81557857Y-56833332D01*
X81557857Y-56833332D02*
X81510238Y-56785713D01*
X81510238Y-56785713D02*
X81462619Y-56833332D01*
X81462619Y-56833332D02*
X81557857Y-56833332D01*
X82462619Y-56214285D02*
X82415000Y-56309523D01*
X82415000Y-56309523D02*
X82367380Y-56357142D01*
X82367380Y-56357142D02*
X82272142Y-56404761D01*
X82272142Y-56404761D02*
X81986428Y-56404761D01*
X81986428Y-56404761D02*
X81891190Y-56357142D01*
X81891190Y-56357142D02*
X81843571Y-56309523D01*
X81843571Y-56309523D02*
X81795952Y-56214285D01*
X81795952Y-56214285D02*
X81795952Y-56071428D01*
X81795952Y-56071428D02*
X81843571Y-55976190D01*
X81843571Y-55976190D02*
X81891190Y-55928571D01*
X81891190Y-55928571D02*
X81986428Y-55880952D01*
X81986428Y-55880952D02*
X82272142Y-55880952D01*
X82272142Y-55880952D02*
X82367380Y-55928571D01*
X82367380Y-55928571D02*
X82415000Y-55976190D01*
X82415000Y-55976190D02*
X82462619Y-56071428D01*
X82462619Y-56071428D02*
X82462619Y-56214285D01*
X82462619Y-55452380D02*
X81795952Y-55452380D01*
X81891190Y-55452380D02*
X81843571Y-55404761D01*
X81843571Y-55404761D02*
X81795952Y-55309523D01*
X81795952Y-55309523D02*
X81795952Y-55166666D01*
X81795952Y-55166666D02*
X81843571Y-55071428D01*
X81843571Y-55071428D02*
X81938809Y-55023809D01*
X81938809Y-55023809D02*
X82462619Y-55023809D01*
X81938809Y-55023809D02*
X81843571Y-54976190D01*
X81843571Y-54976190D02*
X81795952Y-54880952D01*
X81795952Y-54880952D02*
X81795952Y-54738095D01*
X81795952Y-54738095D02*
X81843571Y-54642856D01*
X81843571Y-54642856D02*
X81938809Y-54595237D01*
X81938809Y-54595237D02*
X82462619Y-54595237D01*
X82415000Y-53738095D02*
X82462619Y-53833333D01*
X82462619Y-53833333D02*
X82462619Y-54023809D01*
X82462619Y-54023809D02*
X82415000Y-54119047D01*
X82415000Y-54119047D02*
X82319761Y-54166666D01*
X82319761Y-54166666D02*
X81938809Y-54166666D01*
X81938809Y-54166666D02*
X81843571Y-54119047D01*
X81843571Y-54119047D02*
X81795952Y-54023809D01*
X81795952Y-54023809D02*
X81795952Y-53833333D01*
X81795952Y-53833333D02*
X81843571Y-53738095D01*
X81843571Y-53738095D02*
X81938809Y-53690476D01*
X81938809Y-53690476D02*
X82034047Y-53690476D01*
X82034047Y-53690476D02*
X82129285Y-54166666D01*
X81795952Y-53404761D02*
X81795952Y-53023809D01*
X81462619Y-53261904D02*
X82319761Y-53261904D01*
X82319761Y-53261904D02*
X82415000Y-53214285D01*
X82415000Y-53214285D02*
X82462619Y-53119047D01*
X82462619Y-53119047D02*
X82462619Y-53023809D01*
X82415000Y-52309523D02*
X82462619Y-52404761D01*
X82462619Y-52404761D02*
X82462619Y-52595237D01*
X82462619Y-52595237D02*
X82415000Y-52690475D01*
X82415000Y-52690475D02*
X82319761Y-52738094D01*
X82319761Y-52738094D02*
X81938809Y-52738094D01*
X81938809Y-52738094D02*
X81843571Y-52690475D01*
X81843571Y-52690475D02*
X81795952Y-52595237D01*
X81795952Y-52595237D02*
X81795952Y-52404761D01*
X81795952Y-52404761D02*
X81843571Y-52309523D01*
X81843571Y-52309523D02*
X81938809Y-52261904D01*
X81938809Y-52261904D02*
X82034047Y-52261904D01*
X82034047Y-52261904D02*
X82129285Y-52738094D01*
X82462619Y-51833332D02*
X81795952Y-51833332D01*
X81986428Y-51833332D02*
X81891190Y-51785713D01*
X81891190Y-51785713D02*
X81843571Y-51738094D01*
X81843571Y-51738094D02*
X81795952Y-51642856D01*
X81795952Y-51642856D02*
X81795952Y-51547618D01*
X82557857Y-51452380D02*
X82557857Y-50690475D01*
X82462619Y-50452379D02*
X81462619Y-50452379D01*
X81462619Y-50452379D02*
X81462619Y-50214284D01*
X81462619Y-50214284D02*
X81510238Y-50071427D01*
X81510238Y-50071427D02*
X81605476Y-49976189D01*
X81605476Y-49976189D02*
X81700714Y-49928570D01*
X81700714Y-49928570D02*
X81891190Y-49880951D01*
X81891190Y-49880951D02*
X82034047Y-49880951D01*
X82034047Y-49880951D02*
X82224523Y-49928570D01*
X82224523Y-49928570D02*
X82319761Y-49976189D01*
X82319761Y-49976189D02*
X82415000Y-50071427D01*
X82415000Y-50071427D02*
X82462619Y-50214284D01*
X82462619Y-50214284D02*
X82462619Y-50452379D01*
X81795952Y-49023808D02*
X82462619Y-49023808D01*
X81795952Y-49452379D02*
X82319761Y-49452379D01*
X82319761Y-49452379D02*
X82415000Y-49404760D01*
X82415000Y-49404760D02*
X82462619Y-49309522D01*
X82462619Y-49309522D02*
X82462619Y-49166665D01*
X82462619Y-49166665D02*
X82415000Y-49071427D01*
X82415000Y-49071427D02*
X82367380Y-49023808D01*
X82462619Y-48119046D02*
X81938809Y-48119046D01*
X81938809Y-48119046D02*
X81843571Y-48166665D01*
X81843571Y-48166665D02*
X81795952Y-48261903D01*
X81795952Y-48261903D02*
X81795952Y-48452379D01*
X81795952Y-48452379D02*
X81843571Y-48547617D01*
X82415000Y-48119046D02*
X82462619Y-48214284D01*
X82462619Y-48214284D02*
X82462619Y-48452379D01*
X82462619Y-48452379D02*
X82415000Y-48547617D01*
X82415000Y-48547617D02*
X82319761Y-48595236D01*
X82319761Y-48595236D02*
X82224523Y-48595236D01*
X82224523Y-48595236D02*
X82129285Y-48547617D01*
X82129285Y-48547617D02*
X82081666Y-48452379D01*
X82081666Y-48452379D02*
X82081666Y-48214284D01*
X82081666Y-48214284D02*
X82034047Y-48119046D01*
X82462619Y-47499998D02*
X82415000Y-47595236D01*
X82415000Y-47595236D02*
X82319761Y-47642855D01*
X82319761Y-47642855D02*
X81462619Y-47642855D01*
X89962619Y-57095238D02*
X89486428Y-57428571D01*
X89962619Y-57666666D02*
X88962619Y-57666666D01*
X88962619Y-57666666D02*
X88962619Y-57285714D01*
X88962619Y-57285714D02*
X89010238Y-57190476D01*
X89010238Y-57190476D02*
X89057857Y-57142857D01*
X89057857Y-57142857D02*
X89153095Y-57095238D01*
X89153095Y-57095238D02*
X89295952Y-57095238D01*
X89295952Y-57095238D02*
X89391190Y-57142857D01*
X89391190Y-57142857D02*
X89438809Y-57190476D01*
X89438809Y-57190476D02*
X89486428Y-57285714D01*
X89486428Y-57285714D02*
X89486428Y-57666666D01*
X88962619Y-56809523D02*
X89962619Y-56476190D01*
X89962619Y-56476190D02*
X88962619Y-56142857D01*
X89962619Y-55285714D02*
X89962619Y-55857142D01*
X89962619Y-55571428D02*
X88962619Y-55571428D01*
X88962619Y-55571428D02*
X89105476Y-55666666D01*
X89105476Y-55666666D02*
X89200714Y-55761904D01*
X89200714Y-55761904D02*
X89248333Y-55857142D01*
D13*
%TO.C,C3*%
X98250000Y-72250000D02*
X98250000Y-74750000D01*
X98250000Y-74750000D02*
X103250000Y-74750000D01*
X103250000Y-72250000D02*
X98250000Y-72250000D01*
X103250000Y-74750000D02*
X103250000Y-72250000D01*
%TO.C,C5*%
X113250000Y-38250000D02*
X115750000Y-38250000D01*
X115750000Y-38250000D02*
X115750000Y-33250000D01*
X113250000Y-33250000D02*
X113250000Y-38250000D01*
X115750000Y-33250000D02*
X113250000Y-33250000D01*
%TO.C,C6*%
X113500000Y-76250000D02*
X116000000Y-76250000D01*
X116000000Y-76250000D02*
X116000000Y-71250000D01*
X113500000Y-71250000D02*
X113500000Y-76250000D01*
X116000000Y-71250000D02*
X113500000Y-71250000D01*
%TO.C,C7*%
X59412500Y-49133605D02*
X59412500Y-48633605D01*
X59162500Y-48883605D02*
X59662500Y-48883605D01*
X63000000Y-47000000D02*
G75*
G03*
X63000000Y-47000000I-2500000J0D01*
G01*
%TO.C,C8*%
X54250000Y-57750000D02*
X56750000Y-57750000D01*
X56750000Y-57750000D02*
X56750000Y-52750000D01*
X54250000Y-52750000D02*
X54250000Y-57750000D01*
X56750000Y-52750000D02*
X54250000Y-52750000D01*
%TO.C,C9*%
X61587500Y-61366395D02*
X61587500Y-61866395D01*
X61837500Y-61616395D02*
X61337500Y-61616395D01*
X63000000Y-63500000D02*
G75*
G03*
X63000000Y-63500000I-2500000J0D01*
G01*
%TO.C,D1*%
X121000000Y-51250000D02*
X121000000Y-53060000D01*
X122000000Y-53060000D02*
X120000000Y-53060000D01*
X120000000Y-53060000D02*
X120000000Y-57060000D01*
X122000000Y-53560000D02*
X120000000Y-53560000D01*
X122000000Y-53660000D02*
X120000000Y-53660000D01*
X122000000Y-53760000D02*
X120000000Y-53760000D01*
X122000000Y-57060000D02*
X122000000Y-53060000D01*
X120000000Y-57060000D02*
X122000000Y-57060000D01*
X121000000Y-58870000D02*
X121000000Y-57060000D01*
%TO.C,D2*%
X47000000Y-42000000D02*
X47000000Y-43810000D01*
X48000000Y-43810000D02*
X46000000Y-43810000D01*
X46000000Y-43810000D02*
X46000000Y-47810000D01*
X48000000Y-44310000D02*
X46000000Y-44310000D01*
X48000000Y-44410000D02*
X46000000Y-44410000D01*
X48000000Y-44510000D02*
X46000000Y-44510000D01*
X48000000Y-47810000D02*
X48000000Y-43810000D01*
X46000000Y-47810000D02*
X48000000Y-47810000D01*
X47000000Y-49620000D02*
X47000000Y-47810000D01*
%TO.C,D3*%
X47000000Y-60880000D02*
X47000000Y-62690000D01*
X48000000Y-62690000D02*
X46000000Y-62690000D01*
X46000000Y-62690000D02*
X46000000Y-66690000D01*
X48000000Y-63190000D02*
X46000000Y-63190000D01*
X48000000Y-63290000D02*
X46000000Y-63290000D01*
X48000000Y-63390000D02*
X46000000Y-63390000D01*
X48000000Y-66690000D02*
X48000000Y-62690000D01*
X46000000Y-66690000D02*
X48000000Y-66690000D01*
X47000000Y-68500000D02*
X47000000Y-66690000D01*
%TO.C,D4*%
X53000000Y-42000000D02*
X53000000Y-43810000D01*
X54000000Y-43810000D02*
X52000000Y-43810000D01*
X52000000Y-43810000D02*
X52000000Y-47810000D01*
X54000000Y-44310000D02*
X52000000Y-44310000D01*
X54000000Y-44410000D02*
X52000000Y-44410000D01*
X54000000Y-44510000D02*
X52000000Y-44510000D01*
X54000000Y-47810000D02*
X54000000Y-43810000D01*
X52000000Y-47810000D02*
X54000000Y-47810000D01*
X53000000Y-49620000D02*
X53000000Y-47810000D01*
%TO.C,D5*%
X53000000Y-61000000D02*
X53000000Y-62810000D01*
X54000000Y-62810000D02*
X52000000Y-62810000D01*
X52000000Y-62810000D02*
X52000000Y-66810000D01*
X54000000Y-63310000D02*
X52000000Y-63310000D01*
X54000000Y-63410000D02*
X52000000Y-63410000D01*
X54000000Y-63510000D02*
X52000000Y-63510000D01*
X54000000Y-66810000D02*
X54000000Y-62810000D01*
X52000000Y-66810000D02*
X54000000Y-66810000D01*
X53000000Y-68620000D02*
X53000000Y-66810000D01*
%TO.C,R1*%
X106750000Y-71000000D02*
X106750000Y-71740000D01*
X107550000Y-71740000D02*
X105950000Y-71740000D01*
X105950000Y-71740000D02*
X105950000Y-75340000D01*
X107550000Y-75340000D02*
X107550000Y-71740000D01*
X105950000Y-75340000D02*
X107550000Y-75340000D01*
X106750000Y-76080000D02*
X106750000Y-75340000D01*
%TO.C,R2*%
X53000000Y-33580000D02*
X53000000Y-34320000D01*
X53800000Y-34320000D02*
X52200000Y-34320000D01*
X52200000Y-34320000D02*
X52200000Y-37920000D01*
X53800000Y-37920000D02*
X53800000Y-34320000D01*
X52200000Y-37920000D02*
X53800000Y-37920000D01*
X53000000Y-38660000D02*
X53000000Y-37920000D01*
%TO.C,R3*%
X47000000Y-38580000D02*
X47000000Y-37840000D01*
X46200000Y-37840000D02*
X47800000Y-37840000D01*
X47800000Y-37840000D02*
X47800000Y-34240000D01*
X46200000Y-34240000D02*
X46200000Y-37840000D01*
X47800000Y-34240000D02*
X46200000Y-34240000D01*
X47000000Y-33500000D02*
X47000000Y-34240000D01*
%TO.C,R4*%
X47000000Y-72000000D02*
X47000000Y-72740000D01*
X47800000Y-72740000D02*
X46200000Y-72740000D01*
X46200000Y-72740000D02*
X46200000Y-76340000D01*
X47800000Y-76340000D02*
X47800000Y-72740000D01*
X46200000Y-76340000D02*
X47800000Y-76340000D01*
X47000000Y-77080000D02*
X47000000Y-76340000D01*
%TO.C,R5*%
X114500000Y-41500000D02*
X113760000Y-41500000D01*
X113760000Y-42300000D02*
X113760000Y-40700000D01*
X113760000Y-40700000D02*
X110160000Y-40700000D01*
X110160000Y-42300000D02*
X113760000Y-42300000D01*
X110160000Y-40700000D02*
X110160000Y-42300000D01*
X109420000Y-41500000D02*
X110160000Y-41500000D01*
%TO.C,R6*%
X125000000Y-52420000D02*
X125000000Y-53160000D01*
X125800000Y-53160000D02*
X124200000Y-53160000D01*
X124200000Y-53160000D02*
X124200000Y-56760000D01*
X125800000Y-56760000D02*
X125800000Y-53160000D01*
X124200000Y-56760000D02*
X125800000Y-56760000D01*
X125000000Y-57500000D02*
X125000000Y-56760000D01*
%TO.C,R7*%
X108000000Y-39080000D02*
X108000000Y-38340000D01*
X107200000Y-38340000D02*
X108800000Y-38340000D01*
X108800000Y-38340000D02*
X108800000Y-34740000D01*
X107200000Y-34740000D02*
X107200000Y-38340000D01*
X108800000Y-34740000D02*
X107200000Y-34740000D01*
X108000000Y-34000000D02*
X108000000Y-34740000D01*
%TO.C,R8*%
X114750000Y-68750000D02*
X114010000Y-68750000D01*
X114010000Y-69550000D02*
X114010000Y-67950000D01*
X114010000Y-67950000D02*
X110410000Y-67950000D01*
X110410000Y-69550000D02*
X114010000Y-69550000D01*
X110410000Y-67950000D02*
X110410000Y-69550000D01*
X109670000Y-68750000D02*
X110410000Y-68750000D01*
%TO.C,R9*%
X68920000Y-47000000D02*
X69660000Y-47000000D01*
X69660000Y-46200000D02*
X69660000Y-47800000D01*
X69660000Y-47800000D02*
X73260000Y-47800000D01*
X73260000Y-46200000D02*
X69660000Y-46200000D01*
X73260000Y-47800000D02*
X73260000Y-46200000D01*
X74000000Y-47000000D02*
X73260000Y-47000000D01*
%TO.C,R10*%
X53000000Y-72000000D02*
X53000000Y-72740000D01*
X53800000Y-72740000D02*
X52200000Y-72740000D01*
X52200000Y-72740000D02*
X52200000Y-76340000D01*
X53800000Y-76340000D02*
X53800000Y-72740000D01*
X52200000Y-76340000D02*
X53800000Y-76340000D01*
X53000000Y-77080000D02*
X53000000Y-76340000D01*
%TO.C,R11*%
X68920000Y-64000000D02*
X69660000Y-64000000D01*
X69660000Y-63200000D02*
X69660000Y-64800000D01*
X69660000Y-64800000D02*
X73260000Y-64800000D01*
X73260000Y-63200000D02*
X69660000Y-63200000D01*
X73260000Y-64800000D02*
X73260000Y-63200000D01*
X74000000Y-64000000D02*
X73260000Y-64000000D01*
%TO.C,C2*%
X72750000Y-38500000D02*
X75250000Y-38500000D01*
X75250000Y-38500000D02*
X75250000Y-33500000D01*
X72750000Y-33500000D02*
X72750000Y-38500000D01*
X75250000Y-33500000D02*
X72750000Y-33500000D01*
%TO.C,C1*%
X98866395Y-43912500D02*
X99366395Y-43912500D01*
X99116395Y-43662500D02*
X99116395Y-44162500D01*
X103500000Y-45000000D02*
G75*
G03*
X103500000Y-45000000I-2500000J0D01*
G01*
%TO.C,C4*%
X98056028Y-61626500D02*
X98686028Y-61626500D01*
X98371028Y-61311500D02*
X98371028Y-61941500D01*
X103900000Y-63000000D02*
G75*
G03*
X103900000Y-63000000I-3150000J0D01*
G01*
%TO.C,U1*%
X65730000Y-58485000D02*
X64730000Y-57485000D01*
X74890000Y-58485000D02*
X65730000Y-58485000D01*
X64730000Y-57485000D02*
X64730000Y-52135000D01*
X64730000Y-52135000D02*
X74890000Y-52135000D01*
X74890000Y-52135000D02*
X74890000Y-58485000D01*
%TD*%
M02*
