%TF.GenerationSoftware,KiCad,Pcbnew,5.1.10*%
%TF.CreationDate,2021-07-17T21:41:45+02:00*%
%TF.ProjectId,tht-dip,7468742d-6469-4702-9e6b-696361645f70,rev?*%
%TF.SameCoordinates,Original*%
%TF.FileFunction,Legend,Top*%
%TF.FilePolarity,Positive*%
%FSLAX46Y46*%
G04 Gerber Fmt 4.6, Leading zero omitted, Abs format (unit mm)*
G04 Created by KiCad (PCBNEW 5.1.10) date 2021-07-17 21:41:45*
%MOMM*%
%LPD*%
G01*
G04 APERTURE LIST*
%ADD10C,0.150000*%
%ADD11C,0.120000*%
G04 APERTURE END LIST*
D10*
X41583333Y-68154761D02*
X42821428Y-68154761D01*
X42154761Y-68916666D01*
X42440476Y-68916666D01*
X42630952Y-69011904D01*
X42726190Y-69107142D01*
X42821428Y-69297619D01*
X42821428Y-69773809D01*
X42726190Y-69964285D01*
X42630952Y-70059523D01*
X42440476Y-70154761D01*
X41869047Y-70154761D01*
X41678571Y-70059523D01*
X41583333Y-69964285D01*
X40928571Y-40845238D02*
X41023809Y-40750000D01*
X41214285Y-40654761D01*
X41690476Y-40654761D01*
X41880952Y-40750000D01*
X41976190Y-40845238D01*
X42071428Y-41035714D01*
X42071428Y-41226190D01*
X41976190Y-41511904D01*
X40833333Y-42654761D01*
X42071428Y-42654761D01*
X42071428Y-55904761D02*
X40928571Y-55904761D01*
X41500000Y-55904761D02*
X41500000Y-53904761D01*
X41309523Y-54190476D01*
X41119047Y-54380952D01*
X40928571Y-54476190D01*
X132678571Y-67535714D02*
X133678571Y-67535714D01*
X132107142Y-67892857D02*
X133178571Y-68250000D01*
X133178571Y-67321428D01*
X132821428Y-66535714D02*
X132750000Y-66678571D01*
X132678571Y-66750000D01*
X132535714Y-66821428D01*
X132464285Y-66821428D01*
X132321428Y-66750000D01*
X132250000Y-66678571D01*
X132178571Y-66535714D01*
X132178571Y-66250000D01*
X132250000Y-66107142D01*
X132321428Y-66035714D01*
X132464285Y-65964285D01*
X132535714Y-65964285D01*
X132678571Y-66035714D01*
X132750000Y-66107142D01*
X132821428Y-66250000D01*
X132821428Y-66535714D01*
X132892857Y-66678571D01*
X132964285Y-66750000D01*
X133107142Y-66821428D01*
X133392857Y-66821428D01*
X133535714Y-66750000D01*
X133607142Y-66678571D01*
X133678571Y-66535714D01*
X133678571Y-66250000D01*
X133607142Y-66107142D01*
X133535714Y-66035714D01*
X133392857Y-65964285D01*
X133107142Y-65964285D01*
X132964285Y-66035714D01*
X132892857Y-66107142D01*
X132821428Y-66250000D01*
X132678571Y-64321428D02*
X133678571Y-63964285D01*
X132678571Y-63607142D01*
X133678571Y-62821428D02*
X133607142Y-62964285D01*
X133535714Y-63035714D01*
X133392857Y-63107142D01*
X132964285Y-63107142D01*
X132821428Y-63035714D01*
X132750000Y-62964285D01*
X132678571Y-62821428D01*
X132678571Y-62607142D01*
X132750000Y-62464285D01*
X132821428Y-62392857D01*
X132964285Y-62321428D01*
X133392857Y-62321428D01*
X133535714Y-62392857D01*
X133607142Y-62464285D01*
X133678571Y-62607142D01*
X133678571Y-62821428D01*
X133678571Y-61464285D02*
X133607142Y-61607142D01*
X133464285Y-61678571D01*
X132178571Y-61678571D01*
X132678571Y-61107142D02*
X132678571Y-60535714D01*
X132178571Y-60892857D02*
X133464285Y-60892857D01*
X133607142Y-60821428D01*
X133678571Y-60678571D01*
X133678571Y-60535714D01*
X132678571Y-58892857D02*
X134178571Y-58892857D01*
X132750000Y-58892857D02*
X132678571Y-58750000D01*
X132678571Y-58464285D01*
X132750000Y-58321428D01*
X132821428Y-58250000D01*
X132964285Y-58178571D01*
X133392857Y-58178571D01*
X133535714Y-58250000D01*
X133607142Y-58321428D01*
X133678571Y-58464285D01*
X133678571Y-58750000D01*
X133607142Y-58892857D01*
X133678571Y-57535714D02*
X132178571Y-57535714D01*
X133678571Y-56892857D02*
X132892857Y-56892857D01*
X132750000Y-56964285D01*
X132678571Y-57107142D01*
X132678571Y-57321428D01*
X132750000Y-57464285D01*
X132821428Y-57535714D01*
X133678571Y-55535714D02*
X132892857Y-55535714D01*
X132750000Y-55607142D01*
X132678571Y-55750000D01*
X132678571Y-56035714D01*
X132750000Y-56178571D01*
X133607142Y-55535714D02*
X133678571Y-55678571D01*
X133678571Y-56035714D01*
X133607142Y-56178571D01*
X133464285Y-56250000D01*
X133321428Y-56250000D01*
X133178571Y-56178571D01*
X133107142Y-56035714D01*
X133107142Y-55678571D01*
X133035714Y-55535714D01*
X132678571Y-54821428D02*
X133678571Y-54821428D01*
X132821428Y-54821428D02*
X132750000Y-54750000D01*
X132678571Y-54607142D01*
X132678571Y-54392857D01*
X132750000Y-54250000D01*
X132892857Y-54178571D01*
X133678571Y-54178571D01*
X132678571Y-53678571D02*
X132678571Y-53107142D01*
X132178571Y-53464285D02*
X133464285Y-53464285D01*
X133607142Y-53392857D01*
X133678571Y-53250000D01*
X133678571Y-53107142D01*
X133678571Y-52392857D02*
X133607142Y-52535714D01*
X133535714Y-52607142D01*
X133392857Y-52678571D01*
X132964285Y-52678571D01*
X132821428Y-52607142D01*
X132750000Y-52535714D01*
X132678571Y-52392857D01*
X132678571Y-52178571D01*
X132750000Y-52035714D01*
X132821428Y-51964285D01*
X132964285Y-51892857D01*
X133392857Y-51892857D01*
X133535714Y-51964285D01*
X133607142Y-52035714D01*
X133678571Y-52178571D01*
X133678571Y-52392857D01*
X133678571Y-51250000D02*
X132678571Y-51250000D01*
X132821428Y-51250000D02*
X132750000Y-51178571D01*
X132678571Y-51035714D01*
X132678571Y-50821428D01*
X132750000Y-50678571D01*
X132892857Y-50607142D01*
X133678571Y-50607142D01*
X132892857Y-50607142D02*
X132750000Y-50535714D01*
X132678571Y-50392857D01*
X132678571Y-50178571D01*
X132750000Y-50035714D01*
X132892857Y-49964285D01*
X133678571Y-49964285D01*
X132678571Y-48107142D02*
X134178571Y-48107142D01*
X132750000Y-48107142D02*
X132678571Y-47964285D01*
X132678571Y-47678571D01*
X132750000Y-47535714D01*
X132821428Y-47464285D01*
X132964285Y-47392857D01*
X133392857Y-47392857D01*
X133535714Y-47464285D01*
X133607142Y-47535714D01*
X133678571Y-47678571D01*
X133678571Y-47964285D01*
X133607142Y-48107142D01*
X133678571Y-46535714D02*
X133607142Y-46678571D01*
X133535714Y-46750000D01*
X133392857Y-46821428D01*
X132964285Y-46821428D01*
X132821428Y-46750000D01*
X132750000Y-46678571D01*
X132678571Y-46535714D01*
X132678571Y-46321428D01*
X132750000Y-46178571D01*
X132821428Y-46107142D01*
X132964285Y-46035714D01*
X133392857Y-46035714D01*
X133535714Y-46107142D01*
X133607142Y-46178571D01*
X133678571Y-46321428D01*
X133678571Y-46535714D01*
X132678571Y-45535714D02*
X133678571Y-45250000D01*
X132964285Y-44964285D01*
X133678571Y-44678571D01*
X132678571Y-44392857D01*
X133607142Y-43250000D02*
X133678571Y-43392857D01*
X133678571Y-43678571D01*
X133607142Y-43821428D01*
X133464285Y-43892857D01*
X132892857Y-43892857D01*
X132750000Y-43821428D01*
X132678571Y-43678571D01*
X132678571Y-43392857D01*
X132750000Y-43250000D01*
X132892857Y-43178571D01*
X133035714Y-43178571D01*
X133178571Y-43892857D01*
X133678571Y-42535714D02*
X132678571Y-42535714D01*
X132964285Y-42535714D02*
X132821428Y-42464285D01*
X132750000Y-42392857D01*
X132678571Y-42250000D01*
X132678571Y-42107142D01*
X126428571Y-45095238D02*
X126523809Y-45000000D01*
X126714285Y-44904761D01*
X127190476Y-44904761D01*
X127380952Y-45000000D01*
X127476190Y-45095238D01*
X127571428Y-45285714D01*
X127571428Y-45476190D01*
X127476190Y-45761904D01*
X126333333Y-46904761D01*
X127571428Y-46904761D01*
X126583333Y-53904761D02*
X127821428Y-53904761D01*
X127154761Y-54666666D01*
X127440476Y-54666666D01*
X127630952Y-54761904D01*
X127726190Y-54857142D01*
X127821428Y-55047619D01*
X127821428Y-55523809D01*
X127726190Y-55714285D01*
X127630952Y-55809523D01*
X127440476Y-55904761D01*
X126869047Y-55904761D01*
X126678571Y-55809523D01*
X126583333Y-55714285D01*
X127571428Y-64654761D02*
X126428571Y-64654761D01*
X127000000Y-64654761D02*
X127000000Y-62654761D01*
X126809523Y-62940476D01*
X126619047Y-63130952D01*
X126428571Y-63226190D01*
X77178571Y-34678571D02*
X76321428Y-34678571D01*
X76750000Y-34678571D02*
X76750000Y-33178571D01*
X76607142Y-33392857D01*
X76464285Y-33535714D01*
X76321428Y-33607142D01*
X77428571Y-59428571D02*
X76571428Y-59428571D01*
X77000000Y-59428571D02*
X77000000Y-57928571D01*
X76857142Y-58142857D01*
X76714285Y-58285714D01*
X76571428Y-58357142D01*
D11*
X38750000Y-60500000D02*
X38750000Y-58500000D01*
X40750000Y-60500000D02*
X37000000Y-60500000D01*
X37000000Y-61250000D02*
X40750000Y-61250000D01*
X37000000Y-62500000D02*
X37000000Y-61250000D01*
X40750000Y-62500000D02*
X37000000Y-62500000D01*
X38750000Y-65750000D02*
X38750000Y-63250000D01*
X40750000Y-63250000D02*
X37000000Y-63250000D01*
X40750000Y-61250000D02*
X40750000Y-62500000D01*
X38500000Y-64250000D02*
X37000000Y-64250000D01*
X37750000Y-65000000D02*
X37750000Y-63500000D01*
X37250000Y-45750000D02*
X37250000Y-47250000D01*
X36500000Y-46500000D02*
X38000000Y-46500000D01*
X38500000Y-50250000D02*
X38500000Y-52250000D01*
X36500000Y-50250000D02*
X40250000Y-50250000D01*
X36500000Y-49500000D02*
X36500000Y-48250000D01*
X40250000Y-49500000D02*
X36500000Y-49500000D01*
X40250000Y-48250000D02*
X40250000Y-49500000D01*
X36500000Y-48250000D02*
X40250000Y-48250000D01*
X36500000Y-47500000D02*
X40250000Y-47500000D01*
X38500000Y-47500000D02*
X36500000Y-47500000D01*
X38500000Y-45000000D02*
X38500000Y-47500000D01*
D10*
X97261904Y-47154761D02*
X97404761Y-47202380D01*
X97642857Y-47202380D01*
X97738095Y-47154761D01*
X97785714Y-47107142D01*
X97833333Y-47011904D01*
X97833333Y-46916666D01*
X97785714Y-46821428D01*
X97738095Y-46773809D01*
X97642857Y-46726190D01*
X97452380Y-46678571D01*
X97357142Y-46630952D01*
X97309523Y-46583333D01*
X97261904Y-46488095D01*
X97261904Y-46392857D01*
X97309523Y-46297619D01*
X97357142Y-46250000D01*
X97452380Y-46202380D01*
X97690476Y-46202380D01*
X97833333Y-46250000D01*
X98166666Y-46202380D02*
X98404761Y-47202380D01*
X98595238Y-46488095D01*
X98785714Y-47202380D01*
X99023809Y-46202380D01*
X99928571Y-47202380D02*
X99357142Y-47202380D01*
X99642857Y-47202380D02*
X99642857Y-46202380D01*
X99547619Y-46345238D01*
X99452380Y-46440476D01*
X99357142Y-46488095D01*
X101547619Y-47202380D02*
X101547619Y-46678571D01*
X101500000Y-46583333D01*
X101404761Y-46535714D01*
X101214285Y-46535714D01*
X101119047Y-46583333D01*
X101547619Y-47154761D02*
X101452380Y-47202380D01*
X101214285Y-47202380D01*
X101119047Y-47154761D01*
X101071428Y-47059523D01*
X101071428Y-46964285D01*
X101119047Y-46869047D01*
X101214285Y-46821428D01*
X101452380Y-46821428D01*
X101547619Y-46773809D01*
X102023809Y-46535714D02*
X102023809Y-47202380D01*
X102023809Y-46630952D02*
X102071428Y-46583333D01*
X102166666Y-46535714D01*
X102309523Y-46535714D01*
X102404761Y-46583333D01*
X102452380Y-46678571D01*
X102452380Y-47202380D01*
X103357142Y-47202380D02*
X103357142Y-46202380D01*
X103357142Y-47154761D02*
X103261904Y-47202380D01*
X103071428Y-47202380D01*
X102976190Y-47154761D01*
X102928571Y-47107142D01*
X102880952Y-47011904D01*
X102880952Y-46726190D01*
X102928571Y-46630952D01*
X102976190Y-46583333D01*
X103071428Y-46535714D01*
X103261904Y-46535714D01*
X103357142Y-46583333D01*
X104547619Y-47154761D02*
X104690476Y-47202380D01*
X104928571Y-47202380D01*
X105023809Y-47154761D01*
X105071428Y-47107142D01*
X105119047Y-47011904D01*
X105119047Y-46916666D01*
X105071428Y-46821428D01*
X105023809Y-46773809D01*
X104928571Y-46726190D01*
X104738095Y-46678571D01*
X104642857Y-46630952D01*
X104595238Y-46583333D01*
X104547619Y-46488095D01*
X104547619Y-46392857D01*
X104595238Y-46297619D01*
X104642857Y-46250000D01*
X104738095Y-46202380D01*
X104976190Y-46202380D01*
X105119047Y-46250000D01*
X105452380Y-46202380D02*
X105690476Y-47202380D01*
X105880952Y-46488095D01*
X106071428Y-47202380D01*
X106309523Y-46202380D01*
X106642857Y-46297619D02*
X106690476Y-46250000D01*
X106785714Y-46202380D01*
X107023809Y-46202380D01*
X107119047Y-46250000D01*
X107166666Y-46297619D01*
X107214285Y-46392857D01*
X107214285Y-46488095D01*
X107166666Y-46630952D01*
X106595238Y-47202380D01*
X107214285Y-47202380D01*
X108357142Y-47154761D02*
X108452380Y-47202380D01*
X108642857Y-47202380D01*
X108738095Y-47154761D01*
X108785714Y-47059523D01*
X108785714Y-47011904D01*
X108738095Y-46916666D01*
X108642857Y-46869047D01*
X108500000Y-46869047D01*
X108404761Y-46821428D01*
X108357142Y-46726190D01*
X108357142Y-46678571D01*
X108404761Y-46583333D01*
X108500000Y-46535714D01*
X108642857Y-46535714D01*
X108738095Y-46583333D01*
X109119047Y-46535714D02*
X109309523Y-47202380D01*
X109500000Y-46726190D01*
X109690476Y-47202380D01*
X109880952Y-46535714D01*
X110261904Y-47202380D02*
X110261904Y-46535714D01*
X110261904Y-46202380D02*
X110214285Y-46250000D01*
X110261904Y-46297619D01*
X110309523Y-46250000D01*
X110261904Y-46202380D01*
X110261904Y-46297619D01*
X110595238Y-46535714D02*
X110976190Y-46535714D01*
X110738095Y-46202380D02*
X110738095Y-47059523D01*
X110785714Y-47154761D01*
X110880952Y-47202380D01*
X110976190Y-47202380D01*
X111738095Y-47154761D02*
X111642857Y-47202380D01*
X111452380Y-47202380D01*
X111357142Y-47154761D01*
X111309523Y-47107142D01*
X111261904Y-47011904D01*
X111261904Y-46726190D01*
X111309523Y-46630952D01*
X111357142Y-46583333D01*
X111452380Y-46535714D01*
X111642857Y-46535714D01*
X111738095Y-46583333D01*
X112166666Y-47202380D02*
X112166666Y-46202380D01*
X112595238Y-47202380D02*
X112595238Y-46678571D01*
X112547619Y-46583333D01*
X112452380Y-46535714D01*
X112309523Y-46535714D01*
X112214285Y-46583333D01*
X112166666Y-46630952D01*
X113785714Y-47154761D02*
X113880952Y-47202380D01*
X114071428Y-47202380D01*
X114166666Y-47154761D01*
X114214285Y-47059523D01*
X114214285Y-47011904D01*
X114166666Y-46916666D01*
X114071428Y-46869047D01*
X113928571Y-46869047D01*
X113833333Y-46821428D01*
X113785714Y-46726190D01*
X113785714Y-46678571D01*
X113833333Y-46583333D01*
X113928571Y-46535714D01*
X114071428Y-46535714D01*
X114166666Y-46583333D01*
X115023809Y-47154761D02*
X114928571Y-47202380D01*
X114738095Y-47202380D01*
X114642857Y-47154761D01*
X114595238Y-47059523D01*
X114595238Y-46678571D01*
X114642857Y-46583333D01*
X114738095Y-46535714D01*
X114928571Y-46535714D01*
X115023809Y-46583333D01*
X115071428Y-46678571D01*
X115071428Y-46773809D01*
X114595238Y-46869047D01*
X115357142Y-46535714D02*
X115738095Y-46535714D01*
X115500000Y-46202380D02*
X115500000Y-47059523D01*
X115547619Y-47154761D01*
X115642857Y-47202380D01*
X115738095Y-47202380D01*
X115928571Y-46535714D02*
X116309523Y-46535714D01*
X116071428Y-46202380D02*
X116071428Y-47059523D01*
X116119047Y-47154761D01*
X116214285Y-47202380D01*
X116309523Y-47202380D01*
X116642857Y-47202380D02*
X116642857Y-46535714D01*
X116642857Y-46202380D02*
X116595238Y-46250000D01*
X116642857Y-46297619D01*
X116690476Y-46250000D01*
X116642857Y-46202380D01*
X116642857Y-46297619D01*
X117119047Y-46535714D02*
X117119047Y-47202380D01*
X117119047Y-46630952D02*
X117166666Y-46583333D01*
X117261904Y-46535714D01*
X117404761Y-46535714D01*
X117500000Y-46583333D01*
X117547619Y-46678571D01*
X117547619Y-47202380D01*
X118452380Y-46535714D02*
X118452380Y-47345238D01*
X118404761Y-47440476D01*
X118357142Y-47488095D01*
X118261904Y-47535714D01*
X118119047Y-47535714D01*
X118023809Y-47488095D01*
X118452380Y-47154761D02*
X118357142Y-47202380D01*
X118166666Y-47202380D01*
X118071428Y-47154761D01*
X118023809Y-47107142D01*
X117976190Y-47011904D01*
X117976190Y-46726190D01*
X118023809Y-46630952D01*
X118071428Y-46583333D01*
X118166666Y-46535714D01*
X118357142Y-46535714D01*
X118452380Y-46583333D01*
X118976190Y-47154761D02*
X118976190Y-47202380D01*
X118928571Y-47297619D01*
X118880952Y-47345238D01*
X102214285Y-47900000D02*
X102119047Y-47852380D01*
X101976190Y-47852380D01*
X101833333Y-47900000D01*
X101738095Y-47995238D01*
X101690476Y-48090476D01*
X101642857Y-48280952D01*
X101642857Y-48423809D01*
X101690476Y-48614285D01*
X101738095Y-48709523D01*
X101833333Y-48804761D01*
X101976190Y-48852380D01*
X102071428Y-48852380D01*
X102214285Y-48804761D01*
X102261904Y-48757142D01*
X102261904Y-48423809D01*
X102071428Y-48423809D01*
X103119047Y-48852380D02*
X103119047Y-48328571D01*
X103071428Y-48233333D01*
X102976190Y-48185714D01*
X102785714Y-48185714D01*
X102690476Y-48233333D01*
X103119047Y-48804761D02*
X103023809Y-48852380D01*
X102785714Y-48852380D01*
X102690476Y-48804761D01*
X102642857Y-48709523D01*
X102642857Y-48614285D01*
X102690476Y-48519047D01*
X102785714Y-48471428D01*
X103023809Y-48471428D01*
X103119047Y-48423809D01*
X103595238Y-48852380D02*
X103595238Y-48185714D01*
X103595238Y-47852380D02*
X103547619Y-47900000D01*
X103595238Y-47947619D01*
X103642857Y-47900000D01*
X103595238Y-47852380D01*
X103595238Y-47947619D01*
X104071428Y-48185714D02*
X104071428Y-48852380D01*
X104071428Y-48280952D02*
X104119047Y-48233333D01*
X104214285Y-48185714D01*
X104357142Y-48185714D01*
X104452380Y-48233333D01*
X104500000Y-48328571D01*
X104500000Y-48852380D01*
X105642857Y-48185714D02*
X105880952Y-48852380D01*
X106119047Y-48185714D01*
X106928571Y-48852380D02*
X106928571Y-48328571D01*
X106880952Y-48233333D01*
X106785714Y-48185714D01*
X106595238Y-48185714D01*
X106500000Y-48233333D01*
X106928571Y-48804761D02*
X106833333Y-48852380D01*
X106595238Y-48852380D01*
X106500000Y-48804761D01*
X106452380Y-48709523D01*
X106452380Y-48614285D01*
X106500000Y-48519047D01*
X106595238Y-48471428D01*
X106833333Y-48471428D01*
X106928571Y-48423809D01*
X107547619Y-48852380D02*
X107452380Y-48804761D01*
X107404761Y-48709523D01*
X107404761Y-47852380D01*
X108357142Y-48185714D02*
X108357142Y-48852380D01*
X107928571Y-48185714D02*
X107928571Y-48709523D01*
X107976190Y-48804761D01*
X108071428Y-48852380D01*
X108214285Y-48852380D01*
X108309523Y-48804761D01*
X108357142Y-48757142D01*
X109214285Y-48804761D02*
X109119047Y-48852380D01*
X108928571Y-48852380D01*
X108833333Y-48804761D01*
X108785714Y-48709523D01*
X108785714Y-48328571D01*
X108833333Y-48233333D01*
X108928571Y-48185714D01*
X109119047Y-48185714D01*
X109214285Y-48233333D01*
X109261904Y-48328571D01*
X109261904Y-48423809D01*
X108785714Y-48519047D01*
X109642857Y-48804761D02*
X109738095Y-48852380D01*
X109928571Y-48852380D01*
X110023809Y-48804761D01*
X110071428Y-48709523D01*
X110071428Y-48661904D01*
X110023809Y-48566666D01*
X109928571Y-48519047D01*
X109785714Y-48519047D01*
X109690476Y-48471428D01*
X109642857Y-48376190D01*
X109642857Y-48328571D01*
X109690476Y-48233333D01*
X109785714Y-48185714D01*
X109928571Y-48185714D01*
X110023809Y-48233333D01*
X111261904Y-48852380D02*
X111261904Y-48185714D01*
X111261904Y-47852380D02*
X111214285Y-47900000D01*
X111261904Y-47947619D01*
X111309523Y-47900000D01*
X111261904Y-47852380D01*
X111261904Y-47947619D01*
X111738095Y-48185714D02*
X111738095Y-48852380D01*
X111738095Y-48280952D02*
X111785714Y-48233333D01*
X111880952Y-48185714D01*
X112023809Y-48185714D01*
X112119047Y-48233333D01*
X112166666Y-48328571D01*
X112166666Y-48852380D01*
X113833333Y-48852380D02*
X113833333Y-47852380D01*
X113833333Y-48804761D02*
X113738095Y-48852380D01*
X113547619Y-48852380D01*
X113452380Y-48804761D01*
X113404761Y-48757142D01*
X113357142Y-48661904D01*
X113357142Y-48376190D01*
X113404761Y-48280952D01*
X113452380Y-48233333D01*
X113547619Y-48185714D01*
X113738095Y-48185714D01*
X113833333Y-48233333D01*
X114642857Y-48328571D02*
X114785714Y-48376190D01*
X114833333Y-48423809D01*
X114880952Y-48519047D01*
X114880952Y-48661904D01*
X114833333Y-48757142D01*
X114785714Y-48804761D01*
X114690476Y-48852380D01*
X114309523Y-48852380D01*
X114309523Y-47852380D01*
X114642857Y-47852380D01*
X114738095Y-47900000D01*
X114785714Y-47947619D01*
X114833333Y-48042857D01*
X114833333Y-48138095D01*
X114785714Y-48233333D01*
X114738095Y-48280952D01*
X114642857Y-48328571D01*
X114309523Y-48328571D01*
X115309523Y-48757142D02*
X115357142Y-48804761D01*
X115309523Y-48852380D01*
X115261904Y-48804761D01*
X115309523Y-48757142D01*
X115309523Y-48852380D01*
X115309523Y-48233333D02*
X115357142Y-48280952D01*
X115309523Y-48328571D01*
X115261904Y-48280952D01*
X115309523Y-48233333D01*
X115309523Y-48328571D01*
X107214285Y-50502380D02*
X106642857Y-50502380D01*
X106928571Y-50502380D02*
X106928571Y-49502380D01*
X106833333Y-49645238D01*
X106738095Y-49740476D01*
X106642857Y-49788095D01*
X107642857Y-49978571D02*
X108404761Y-49978571D01*
X108404761Y-50264285D02*
X107642857Y-50264285D01*
X109404761Y-50502380D02*
X108833333Y-50502380D01*
X109119047Y-50502380D02*
X109119047Y-49502380D01*
X109023809Y-49645238D01*
X108928571Y-49740476D01*
X108833333Y-49788095D01*
X109976190Y-49930952D02*
X109880952Y-49883333D01*
X109833333Y-49835714D01*
X109785714Y-49740476D01*
X109785714Y-49692857D01*
X109833333Y-49597619D01*
X109880952Y-49550000D01*
X109976190Y-49502380D01*
X110166666Y-49502380D01*
X110261904Y-49550000D01*
X110309523Y-49597619D01*
X110357142Y-49692857D01*
X110357142Y-49740476D01*
X110309523Y-49835714D01*
X110261904Y-49883333D01*
X110166666Y-49930952D01*
X109976190Y-49930952D01*
X109880952Y-49978571D01*
X109833333Y-50026190D01*
X109785714Y-50121428D01*
X109785714Y-50311904D01*
X109833333Y-50407142D01*
X109880952Y-50454761D01*
X109976190Y-50502380D01*
X110166666Y-50502380D01*
X110261904Y-50454761D01*
X110309523Y-50407142D01*
X110357142Y-50311904D01*
X110357142Y-50121428D01*
X110309523Y-50026190D01*
X110261904Y-49978571D01*
X110166666Y-49930952D01*
X106642857Y-51247619D02*
X106690476Y-51200000D01*
X106785714Y-51152380D01*
X107023809Y-51152380D01*
X107119047Y-51200000D01*
X107166666Y-51247619D01*
X107214285Y-51342857D01*
X107214285Y-51438095D01*
X107166666Y-51580952D01*
X106595238Y-52152380D01*
X107214285Y-52152380D01*
X107642857Y-51628571D02*
X108404761Y-51628571D01*
X108404761Y-51914285D02*
X107642857Y-51914285D01*
X108833333Y-51247619D02*
X108880952Y-51200000D01*
X108976190Y-51152380D01*
X109214285Y-51152380D01*
X109309523Y-51200000D01*
X109357142Y-51247619D01*
X109404761Y-51342857D01*
X109404761Y-51438095D01*
X109357142Y-51580952D01*
X108785714Y-52152380D01*
X109404761Y-52152380D01*
X110023809Y-51152380D02*
X110119047Y-51152380D01*
X110214285Y-51200000D01*
X110261904Y-51247619D01*
X110309523Y-51342857D01*
X110357142Y-51533333D01*
X110357142Y-51771428D01*
X110309523Y-51961904D01*
X110261904Y-52057142D01*
X110214285Y-52104761D01*
X110119047Y-52152380D01*
X110023809Y-52152380D01*
X109928571Y-52104761D01*
X109880952Y-52057142D01*
X109833333Y-51961904D01*
X109785714Y-51771428D01*
X109785714Y-51533333D01*
X109833333Y-51342857D01*
X109880952Y-51247619D01*
X109928571Y-51200000D01*
X110023809Y-51152380D01*
X106595238Y-52802380D02*
X107214285Y-52802380D01*
X106880952Y-53183333D01*
X107023809Y-53183333D01*
X107119047Y-53230952D01*
X107166666Y-53278571D01*
X107214285Y-53373809D01*
X107214285Y-53611904D01*
X107166666Y-53707142D01*
X107119047Y-53754761D01*
X107023809Y-53802380D01*
X106738095Y-53802380D01*
X106642857Y-53754761D01*
X106595238Y-53707142D01*
X107642857Y-53278571D02*
X108404761Y-53278571D01*
X108404761Y-53564285D02*
X107642857Y-53564285D01*
X108833333Y-52897619D02*
X108880952Y-52850000D01*
X108976190Y-52802380D01*
X109214285Y-52802380D01*
X109309523Y-52850000D01*
X109357142Y-52897619D01*
X109404761Y-52992857D01*
X109404761Y-53088095D01*
X109357142Y-53230952D01*
X108785714Y-53802380D01*
X109404761Y-53802380D01*
X109880952Y-53802380D02*
X110071428Y-53802380D01*
X110166666Y-53754761D01*
X110214285Y-53707142D01*
X110309523Y-53564285D01*
X110357142Y-53373809D01*
X110357142Y-52992857D01*
X110309523Y-52897619D01*
X110261904Y-52850000D01*
X110166666Y-52802380D01*
X109976190Y-52802380D01*
X109880952Y-52850000D01*
X109833333Y-52897619D01*
X109785714Y-52992857D01*
X109785714Y-53230952D01*
X109833333Y-53326190D01*
X109880952Y-53373809D01*
X109976190Y-53421428D01*
X110166666Y-53421428D01*
X110261904Y-53373809D01*
X110309523Y-53326190D01*
X110357142Y-53230952D01*
X107119047Y-54785714D02*
X107119047Y-55452380D01*
X106880952Y-54404761D02*
X106642857Y-55119047D01*
X107261904Y-55119047D01*
X107642857Y-54928571D02*
X108404761Y-54928571D01*
X108404761Y-55214285D02*
X107642857Y-55214285D01*
X108785714Y-54452380D02*
X109404761Y-54452380D01*
X109071428Y-54833333D01*
X109214285Y-54833333D01*
X109309523Y-54880952D01*
X109357142Y-54928571D01*
X109404761Y-55023809D01*
X109404761Y-55261904D01*
X109357142Y-55357142D01*
X109309523Y-55404761D01*
X109214285Y-55452380D01*
X108928571Y-55452380D01*
X108833333Y-55404761D01*
X108785714Y-55357142D01*
X109785714Y-54547619D02*
X109833333Y-54500000D01*
X109928571Y-54452380D01*
X110166666Y-54452380D01*
X110261904Y-54500000D01*
X110309523Y-54547619D01*
X110357142Y-54642857D01*
X110357142Y-54738095D01*
X110309523Y-54880952D01*
X109738095Y-55452380D01*
X110357142Y-55452380D01*
X107166666Y-56102380D02*
X106690476Y-56102380D01*
X106642857Y-56578571D01*
X106690476Y-56530952D01*
X106785714Y-56483333D01*
X107023809Y-56483333D01*
X107119047Y-56530952D01*
X107166666Y-56578571D01*
X107214285Y-56673809D01*
X107214285Y-56911904D01*
X107166666Y-57007142D01*
X107119047Y-57054761D01*
X107023809Y-57102380D01*
X106785714Y-57102380D01*
X106690476Y-57054761D01*
X106642857Y-57007142D01*
X107642857Y-56578571D02*
X108404761Y-56578571D01*
X108404761Y-56864285D02*
X107642857Y-56864285D01*
X108785714Y-56102380D02*
X109404761Y-56102380D01*
X109071428Y-56483333D01*
X109214285Y-56483333D01*
X109309523Y-56530952D01*
X109357142Y-56578571D01*
X109404761Y-56673809D01*
X109404761Y-56911904D01*
X109357142Y-57007142D01*
X109309523Y-57054761D01*
X109214285Y-57102380D01*
X108928571Y-57102380D01*
X108833333Y-57054761D01*
X108785714Y-57007142D01*
X110261904Y-56435714D02*
X110261904Y-57102380D01*
X110023809Y-56054761D02*
X109785714Y-56769047D01*
X110404761Y-56769047D01*
X107119047Y-57752380D02*
X106928571Y-57752380D01*
X106833333Y-57800000D01*
X106785714Y-57847619D01*
X106690476Y-57990476D01*
X106642857Y-58180952D01*
X106642857Y-58561904D01*
X106690476Y-58657142D01*
X106738095Y-58704761D01*
X106833333Y-58752380D01*
X107023809Y-58752380D01*
X107119047Y-58704761D01*
X107166666Y-58657142D01*
X107214285Y-58561904D01*
X107214285Y-58323809D01*
X107166666Y-58228571D01*
X107119047Y-58180952D01*
X107023809Y-58133333D01*
X106833333Y-58133333D01*
X106738095Y-58180952D01*
X106690476Y-58228571D01*
X106642857Y-58323809D01*
X107642857Y-58228571D02*
X108404761Y-58228571D01*
X108404761Y-58514285D02*
X107642857Y-58514285D01*
X108785714Y-57752380D02*
X109404761Y-57752380D01*
X109071428Y-58133333D01*
X109214285Y-58133333D01*
X109309523Y-58180952D01*
X109357142Y-58228571D01*
X109404761Y-58323809D01*
X109404761Y-58561904D01*
X109357142Y-58657142D01*
X109309523Y-58704761D01*
X109214285Y-58752380D01*
X108928571Y-58752380D01*
X108833333Y-58704761D01*
X108785714Y-58657142D01*
X110309523Y-57752380D02*
X109833333Y-57752380D01*
X109785714Y-58228571D01*
X109833333Y-58180952D01*
X109928571Y-58133333D01*
X110166666Y-58133333D01*
X110261904Y-58180952D01*
X110309523Y-58228571D01*
X110357142Y-58323809D01*
X110357142Y-58561904D01*
X110309523Y-58657142D01*
X110261904Y-58704761D01*
X110166666Y-58752380D01*
X109928571Y-58752380D01*
X109833333Y-58704761D01*
X109785714Y-58657142D01*
X106595238Y-59402380D02*
X107261904Y-59402380D01*
X106833333Y-60402380D01*
X107642857Y-59878571D02*
X108404761Y-59878571D01*
X108404761Y-60164285D02*
X107642857Y-60164285D01*
X108785714Y-59402380D02*
X109404761Y-59402380D01*
X109071428Y-59783333D01*
X109214285Y-59783333D01*
X109309523Y-59830952D01*
X109357142Y-59878571D01*
X109404761Y-59973809D01*
X109404761Y-60211904D01*
X109357142Y-60307142D01*
X109309523Y-60354761D01*
X109214285Y-60402380D01*
X108928571Y-60402380D01*
X108833333Y-60354761D01*
X108785714Y-60307142D01*
X109738095Y-59402380D02*
X110404761Y-59402380D01*
X109976190Y-60402380D01*
X106833333Y-61480952D02*
X106738095Y-61433333D01*
X106690476Y-61385714D01*
X106642857Y-61290476D01*
X106642857Y-61242857D01*
X106690476Y-61147619D01*
X106738095Y-61100000D01*
X106833333Y-61052380D01*
X107023809Y-61052380D01*
X107119047Y-61100000D01*
X107166666Y-61147619D01*
X107214285Y-61242857D01*
X107214285Y-61290476D01*
X107166666Y-61385714D01*
X107119047Y-61433333D01*
X107023809Y-61480952D01*
X106833333Y-61480952D01*
X106738095Y-61528571D01*
X106690476Y-61576190D01*
X106642857Y-61671428D01*
X106642857Y-61861904D01*
X106690476Y-61957142D01*
X106738095Y-62004761D01*
X106833333Y-62052380D01*
X107023809Y-62052380D01*
X107119047Y-62004761D01*
X107166666Y-61957142D01*
X107214285Y-61861904D01*
X107214285Y-61671428D01*
X107166666Y-61576190D01*
X107119047Y-61528571D01*
X107023809Y-61480952D01*
X107642857Y-61528571D02*
X108404761Y-61528571D01*
X108404761Y-61814285D02*
X107642857Y-61814285D01*
X108785714Y-61052380D02*
X109404761Y-61052380D01*
X109071428Y-61433333D01*
X109214285Y-61433333D01*
X109309523Y-61480952D01*
X109357142Y-61528571D01*
X109404761Y-61623809D01*
X109404761Y-61861904D01*
X109357142Y-61957142D01*
X109309523Y-62004761D01*
X109214285Y-62052380D01*
X108928571Y-62052380D01*
X108833333Y-62004761D01*
X108785714Y-61957142D01*
X109976190Y-61480952D02*
X109880952Y-61433333D01*
X109833333Y-61385714D01*
X109785714Y-61290476D01*
X109785714Y-61242857D01*
X109833333Y-61147619D01*
X109880952Y-61100000D01*
X109976190Y-61052380D01*
X110166666Y-61052380D01*
X110261904Y-61100000D01*
X110309523Y-61147619D01*
X110357142Y-61242857D01*
X110357142Y-61290476D01*
X110309523Y-61385714D01*
X110261904Y-61433333D01*
X110166666Y-61480952D01*
X109976190Y-61480952D01*
X109880952Y-61528571D01*
X109833333Y-61576190D01*
X109785714Y-61671428D01*
X109785714Y-61861904D01*
X109833333Y-61957142D01*
X109880952Y-62004761D01*
X109976190Y-62052380D01*
X110166666Y-62052380D01*
X110261904Y-62004761D01*
X110309523Y-61957142D01*
X110357142Y-61861904D01*
X110357142Y-61671428D01*
X110309523Y-61576190D01*
X110261904Y-61528571D01*
X110166666Y-61480952D01*
X97190476Y-63178571D02*
X97333333Y-63226190D01*
X97380952Y-63273809D01*
X97428571Y-63369047D01*
X97428571Y-63511904D01*
X97380952Y-63607142D01*
X97333333Y-63654761D01*
X97238095Y-63702380D01*
X96857142Y-63702380D01*
X96857142Y-62702380D01*
X97190476Y-62702380D01*
X97285714Y-62750000D01*
X97333333Y-62797619D01*
X97380952Y-62892857D01*
X97380952Y-62988095D01*
X97333333Y-63083333D01*
X97285714Y-63130952D01*
X97190476Y-63178571D01*
X96857142Y-63178571D01*
X98000000Y-63702380D02*
X97904761Y-63654761D01*
X97857142Y-63607142D01*
X97809523Y-63511904D01*
X97809523Y-63226190D01*
X97857142Y-63130952D01*
X97904761Y-63083333D01*
X98000000Y-63035714D01*
X98142857Y-63035714D01*
X98238095Y-63083333D01*
X98285714Y-63130952D01*
X98333333Y-63226190D01*
X98333333Y-63511904D01*
X98285714Y-63607142D01*
X98238095Y-63654761D01*
X98142857Y-63702380D01*
X98000000Y-63702380D01*
X98619047Y-63035714D02*
X99000000Y-63035714D01*
X98761904Y-62702380D02*
X98761904Y-63559523D01*
X98809523Y-63654761D01*
X98904761Y-63702380D01*
X99000000Y-63702380D01*
X99333333Y-63702380D02*
X99333333Y-62702380D01*
X99761904Y-63702380D02*
X99761904Y-63178571D01*
X99714285Y-63083333D01*
X99619047Y-63035714D01*
X99476190Y-63035714D01*
X99380952Y-63083333D01*
X99333333Y-63130952D01*
X101000000Y-63702380D02*
X101000000Y-63035714D01*
X101000000Y-63130952D02*
X101047619Y-63083333D01*
X101142857Y-63035714D01*
X101285714Y-63035714D01*
X101380952Y-63083333D01*
X101428571Y-63178571D01*
X101428571Y-63702380D01*
X101428571Y-63178571D02*
X101476190Y-63083333D01*
X101571428Y-63035714D01*
X101714285Y-63035714D01*
X101809523Y-63083333D01*
X101857142Y-63178571D01*
X101857142Y-63702380D01*
X102761904Y-63035714D02*
X102761904Y-63702380D01*
X102333333Y-63035714D02*
X102333333Y-63559523D01*
X102380952Y-63654761D01*
X102476190Y-63702380D01*
X102619047Y-63702380D01*
X102714285Y-63654761D01*
X102761904Y-63607142D01*
X103190476Y-63654761D02*
X103285714Y-63702380D01*
X103476190Y-63702380D01*
X103571428Y-63654761D01*
X103619047Y-63559523D01*
X103619047Y-63511904D01*
X103571428Y-63416666D01*
X103476190Y-63369047D01*
X103333333Y-63369047D01*
X103238095Y-63321428D01*
X103190476Y-63226190D01*
X103190476Y-63178571D01*
X103238095Y-63083333D01*
X103333333Y-63035714D01*
X103476190Y-63035714D01*
X103571428Y-63083333D01*
X103904761Y-63035714D02*
X104285714Y-63035714D01*
X104047619Y-62702380D02*
X104047619Y-63559523D01*
X104095238Y-63654761D01*
X104190476Y-63702380D01*
X104285714Y-63702380D01*
X105380952Y-63702380D02*
X105380952Y-62702380D01*
X105380952Y-63083333D02*
X105476190Y-63035714D01*
X105666666Y-63035714D01*
X105761904Y-63083333D01*
X105809523Y-63130952D01*
X105857142Y-63226190D01*
X105857142Y-63511904D01*
X105809523Y-63607142D01*
X105761904Y-63654761D01*
X105666666Y-63702380D01*
X105476190Y-63702380D01*
X105380952Y-63654761D01*
X106666666Y-63654761D02*
X106571428Y-63702380D01*
X106380952Y-63702380D01*
X106285714Y-63654761D01*
X106238095Y-63559523D01*
X106238095Y-63178571D01*
X106285714Y-63083333D01*
X106380952Y-63035714D01*
X106571428Y-63035714D01*
X106666666Y-63083333D01*
X106714285Y-63178571D01*
X106714285Y-63273809D01*
X106238095Y-63369047D01*
X107857142Y-63654761D02*
X107952380Y-63702380D01*
X108142857Y-63702380D01*
X108238095Y-63654761D01*
X108285714Y-63559523D01*
X108285714Y-63511904D01*
X108238095Y-63416666D01*
X108142857Y-63369047D01*
X107999999Y-63369047D01*
X107904761Y-63321428D01*
X107857142Y-63226190D01*
X107857142Y-63178571D01*
X107904761Y-63083333D01*
X107999999Y-63035714D01*
X108142857Y-63035714D01*
X108238095Y-63083333D01*
X109095238Y-63654761D02*
X108999999Y-63702380D01*
X108809523Y-63702380D01*
X108714285Y-63654761D01*
X108666666Y-63559523D01*
X108666666Y-63178571D01*
X108714285Y-63083333D01*
X108809523Y-63035714D01*
X108999999Y-63035714D01*
X109095238Y-63083333D01*
X109142857Y-63178571D01*
X109142857Y-63273809D01*
X108666666Y-63369047D01*
X109428571Y-63035714D02*
X109809523Y-63035714D01*
X109571428Y-62702380D02*
X109571428Y-63559523D01*
X109619047Y-63654761D01*
X109714285Y-63702380D01*
X109809523Y-63702380D01*
X110761904Y-63035714D02*
X111142857Y-63035714D01*
X110904761Y-62702380D02*
X110904761Y-63559523D01*
X110952380Y-63654761D01*
X111047619Y-63702380D01*
X111142857Y-63702380D01*
X111619047Y-63702380D02*
X111523809Y-63654761D01*
X111476190Y-63607142D01*
X111428571Y-63511904D01*
X111428571Y-63226190D01*
X111476190Y-63130952D01*
X111523809Y-63083333D01*
X111619047Y-63035714D01*
X111761904Y-63035714D01*
X111857142Y-63083333D01*
X111904761Y-63130952D01*
X111952380Y-63226190D01*
X111952380Y-63511904D01*
X111904761Y-63607142D01*
X111857142Y-63654761D01*
X111761904Y-63702380D01*
X111619047Y-63702380D01*
X112999999Y-63035714D02*
X113380952Y-63035714D01*
X113142857Y-62702380D02*
X113142857Y-63559523D01*
X113190476Y-63654761D01*
X113285714Y-63702380D01*
X113380952Y-63702380D01*
X113714285Y-63702380D02*
X113714285Y-62702380D01*
X114142857Y-63702380D02*
X114142857Y-63178571D01*
X114095238Y-63083333D01*
X113999999Y-63035714D01*
X113857142Y-63035714D01*
X113761904Y-63083333D01*
X113714285Y-63130952D01*
X114999999Y-63654761D02*
X114904761Y-63702380D01*
X114714285Y-63702380D01*
X114619047Y-63654761D01*
X114571428Y-63559523D01*
X114571428Y-63178571D01*
X114619047Y-63083333D01*
X114714285Y-63035714D01*
X114904761Y-63035714D01*
X114999999Y-63083333D01*
X115047619Y-63178571D01*
X115047619Y-63273809D01*
X114571428Y-63369047D01*
X116190476Y-63654761D02*
X116285714Y-63702380D01*
X116476190Y-63702380D01*
X116571428Y-63654761D01*
X116619047Y-63559523D01*
X116619047Y-63511904D01*
X116571428Y-63416666D01*
X116476190Y-63369047D01*
X116333333Y-63369047D01*
X116238095Y-63321428D01*
X116190476Y-63226190D01*
X116190476Y-63178571D01*
X116238095Y-63083333D01*
X116333333Y-63035714D01*
X116476190Y-63035714D01*
X116571428Y-63083333D01*
X117476190Y-63702380D02*
X117476190Y-63178571D01*
X117428571Y-63083333D01*
X117333333Y-63035714D01*
X117142857Y-63035714D01*
X117047619Y-63083333D01*
X117476190Y-63654761D02*
X117380952Y-63702380D01*
X117142857Y-63702380D01*
X117047619Y-63654761D01*
X116999999Y-63559523D01*
X116999999Y-63464285D01*
X117047619Y-63369047D01*
X117142857Y-63321428D01*
X117380952Y-63321428D01*
X117476190Y-63273809D01*
X117952380Y-63702380D02*
X117952380Y-63035714D01*
X117952380Y-63130952D02*
X117999999Y-63083333D01*
X118095238Y-63035714D01*
X118238095Y-63035714D01*
X118333333Y-63083333D01*
X118380952Y-63178571D01*
X118380952Y-63702380D01*
X118380952Y-63178571D02*
X118428571Y-63083333D01*
X118523809Y-63035714D01*
X118666666Y-63035714D01*
X118761904Y-63083333D01*
X118809523Y-63178571D01*
X118809523Y-63702380D01*
X119666666Y-63654761D02*
X119571428Y-63702380D01*
X119380952Y-63702380D01*
X119285714Y-63654761D01*
X119238095Y-63559523D01*
X119238095Y-63178571D01*
X119285714Y-63083333D01*
X119380952Y-63035714D01*
X119571428Y-63035714D01*
X119666666Y-63083333D01*
X119714285Y-63178571D01*
X119714285Y-63273809D01*
X119238095Y-63369047D01*
X120142857Y-63607142D02*
X120190476Y-63654761D01*
X120142857Y-63702380D01*
X120095238Y-63654761D01*
X120142857Y-63607142D01*
X120142857Y-63702380D01*
D11*
%TO.C,C2*%
X103620000Y-68130000D02*
X103620000Y-70870000D01*
X98380000Y-68130000D02*
X98380000Y-70870000D01*
X98380000Y-70870000D02*
X103620000Y-70870000D01*
X98380000Y-68130000D02*
X103620000Y-68130000D01*
%TO.C,C4*%
X113130000Y-38370000D02*
X113130000Y-33130000D01*
X115870000Y-38370000D02*
X115870000Y-33130000D01*
X113130000Y-38370000D02*
X115870000Y-38370000D01*
X113130000Y-33130000D02*
X115870000Y-33130000D01*
%TO.C,C5*%
X113380000Y-71130000D02*
X116120000Y-71130000D01*
X113380000Y-76370000D02*
X116120000Y-76370000D01*
X116120000Y-76370000D02*
X116120000Y-71130000D01*
X113380000Y-76370000D02*
X113380000Y-71130000D01*
%TO.C,C6*%
X59130000Y-52630000D02*
X61870000Y-52630000D01*
X59130000Y-57870000D02*
X61870000Y-57870000D01*
X61870000Y-57870000D02*
X61870000Y-52630000D01*
X59130000Y-57870000D02*
X59130000Y-52630000D01*
%TO.C,C7*%
X54130000Y-57870000D02*
X54130000Y-52630000D01*
X56870000Y-57870000D02*
X56870000Y-52630000D01*
X54130000Y-57870000D02*
X56870000Y-57870000D01*
X54130000Y-52630000D02*
X56870000Y-52630000D01*
%TO.C,C8*%
X49370000Y-57870000D02*
X46630000Y-57870000D01*
X49370000Y-52630000D02*
X46630000Y-52630000D01*
X46630000Y-52630000D02*
X46630000Y-57870000D01*
X49370000Y-52630000D02*
X49370000Y-57870000D01*
%TO.C,D1*%
X122120000Y-52940000D02*
X119880000Y-52940000D01*
X119880000Y-52940000D02*
X119880000Y-57180000D01*
X119880000Y-57180000D02*
X122120000Y-57180000D01*
X122120000Y-57180000D02*
X122120000Y-52940000D01*
X121000000Y-52290000D02*
X121000000Y-52940000D01*
X121000000Y-57830000D02*
X121000000Y-57180000D01*
X122120000Y-53660000D02*
X119880000Y-53660000D01*
X122120000Y-53780000D02*
X119880000Y-53780000D01*
X122120000Y-53540000D02*
X119880000Y-53540000D01*
%TO.C,D2*%
X48120000Y-44290000D02*
X45880000Y-44290000D01*
X48120000Y-44530000D02*
X45880000Y-44530000D01*
X48120000Y-44410000D02*
X45880000Y-44410000D01*
X47000000Y-48580000D02*
X47000000Y-47930000D01*
X47000000Y-43040000D02*
X47000000Y-43690000D01*
X48120000Y-47930000D02*
X48120000Y-43690000D01*
X45880000Y-47930000D02*
X48120000Y-47930000D01*
X45880000Y-43690000D02*
X45880000Y-47930000D01*
X48120000Y-43690000D02*
X45880000Y-43690000D01*
%TO.C,D3*%
X48120000Y-62570000D02*
X45880000Y-62570000D01*
X45880000Y-62570000D02*
X45880000Y-66810000D01*
X45880000Y-66810000D02*
X48120000Y-66810000D01*
X48120000Y-66810000D02*
X48120000Y-62570000D01*
X47000000Y-61920000D02*
X47000000Y-62570000D01*
X47000000Y-67460000D02*
X47000000Y-66810000D01*
X48120000Y-63290000D02*
X45880000Y-63290000D01*
X48120000Y-63410000D02*
X45880000Y-63410000D01*
X48120000Y-63170000D02*
X45880000Y-63170000D01*
%TO.C,D4*%
X54120000Y-44290000D02*
X51880000Y-44290000D01*
X54120000Y-44530000D02*
X51880000Y-44530000D01*
X54120000Y-44410000D02*
X51880000Y-44410000D01*
X53000000Y-48580000D02*
X53000000Y-47930000D01*
X53000000Y-43040000D02*
X53000000Y-43690000D01*
X54120000Y-47930000D02*
X54120000Y-43690000D01*
X51880000Y-47930000D02*
X54120000Y-47930000D01*
X51880000Y-43690000D02*
X51880000Y-47930000D01*
X54120000Y-43690000D02*
X51880000Y-43690000D01*
%TO.C,D5*%
X54120000Y-63290000D02*
X51880000Y-63290000D01*
X54120000Y-63530000D02*
X51880000Y-63530000D01*
X54120000Y-63410000D02*
X51880000Y-63410000D01*
X53000000Y-67580000D02*
X53000000Y-66930000D01*
X53000000Y-62040000D02*
X53000000Y-62690000D01*
X54120000Y-66930000D02*
X54120000Y-62690000D01*
X51880000Y-66930000D02*
X54120000Y-66930000D01*
X51880000Y-62690000D02*
X51880000Y-66930000D01*
X54120000Y-62690000D02*
X51880000Y-62690000D01*
%TO.C,R1*%
X107670000Y-71620000D02*
X107670000Y-75460000D01*
X105830000Y-71620000D02*
X105830000Y-75460000D01*
%TO.C,R2*%
X52080000Y-34200000D02*
X52080000Y-38040000D01*
X53920000Y-34200000D02*
X53920000Y-38040000D01*
%TO.C,R3*%
X47920000Y-37960000D02*
X47920000Y-34120000D01*
X46080000Y-37960000D02*
X46080000Y-34120000D01*
%TO.C,R4*%
X46080000Y-72620000D02*
X46080000Y-76460000D01*
X47920000Y-72620000D02*
X47920000Y-76460000D01*
%TO.C,R5*%
X113880000Y-40580000D02*
X110040000Y-40580000D01*
X113880000Y-42420000D02*
X110040000Y-42420000D01*
%TO.C,R6*%
X125920000Y-53040000D02*
X125920000Y-56880000D01*
X124080000Y-53040000D02*
X124080000Y-56880000D01*
%TO.C,R7*%
X107080000Y-38460000D02*
X107080000Y-34620000D01*
X108920000Y-38460000D02*
X108920000Y-34620000D01*
%TO.C,R8*%
X114130000Y-69670000D02*
X110290000Y-69670000D01*
X114130000Y-67830000D02*
X110290000Y-67830000D01*
%TO.C,R9*%
X69540000Y-46080000D02*
X73380000Y-46080000D01*
X69540000Y-47920000D02*
X73380000Y-47920000D01*
%TO.C,R10*%
X52080000Y-72620000D02*
X52080000Y-76460000D01*
X53920000Y-72620000D02*
X53920000Y-76460000D01*
%TO.C,R11*%
X69540000Y-64920000D02*
X73380000Y-64920000D01*
X69540000Y-63080000D02*
X73380000Y-63080000D01*
%TO.C,R12*%
X93630000Y-62170000D02*
X89790000Y-62170000D01*
X93630000Y-60330000D02*
X89790000Y-60330000D01*
%TO.C,R13*%
X93630000Y-62830000D02*
X89790000Y-62830000D01*
X93630000Y-64670000D02*
X89790000Y-64670000D01*
%TO.C,R14*%
X93710000Y-67170000D02*
X89870000Y-67170000D01*
X93710000Y-65330000D02*
X89870000Y-65330000D01*
%TO.C,R15*%
X93710000Y-68080000D02*
X89870000Y-68080000D01*
X93710000Y-69920000D02*
X89870000Y-69920000D01*
%TO.C,R16*%
X93710000Y-72420000D02*
X89870000Y-72420000D01*
X93710000Y-70580000D02*
X89870000Y-70580000D01*
%TO.C,R17*%
X93710000Y-73080000D02*
X89870000Y-73080000D01*
X93710000Y-74920000D02*
X89870000Y-74920000D01*
%TO.C,R18*%
X93710000Y-77420000D02*
X89870000Y-77420000D01*
X93710000Y-75580000D02*
X89870000Y-75580000D01*
%TO.C,R20*%
X93380000Y-37420000D02*
X89540000Y-37420000D01*
X93380000Y-35580000D02*
X89540000Y-35580000D01*
%TO.C,R21*%
X93380000Y-38080000D02*
X89540000Y-38080000D01*
X93380000Y-39920000D02*
X89540000Y-39920000D01*
%TO.C,R22*%
X93380000Y-42420000D02*
X89540000Y-42420000D01*
X93380000Y-40580000D02*
X89540000Y-40580000D01*
%TO.C,R23*%
X93380000Y-43080000D02*
X89540000Y-43080000D01*
X93380000Y-44920000D02*
X89540000Y-44920000D01*
%TO.C,R24*%
X93380000Y-47670000D02*
X89540000Y-47670000D01*
X93380000Y-45830000D02*
X89540000Y-45830000D01*
%TO.C,R25*%
X93380000Y-48330000D02*
X89540000Y-48330000D01*
X93380000Y-50170000D02*
X89540000Y-50170000D01*
%TO.C,R26*%
X93380000Y-52670000D02*
X89540000Y-52670000D01*
X93380000Y-50830000D02*
X89540000Y-50830000D01*
%TO.C,SW1*%
X85260000Y-57470000D02*
X83610000Y-57470000D01*
X85260000Y-77910000D02*
X85260000Y-57470000D01*
X79960000Y-77910000D02*
X85260000Y-77910000D01*
X79960000Y-57470000D02*
X79960000Y-77910000D01*
X81610000Y-57470000D02*
X79960000Y-57470000D01*
X83610000Y-57470000D02*
G75*
G02*
X81610000Y-57470000I-1000000J0D01*
G01*
%TO.C,SW2*%
X84810000Y-32670000D02*
X83160000Y-32670000D01*
X84810000Y-53110000D02*
X84810000Y-32670000D01*
X79510000Y-53110000D02*
X84810000Y-53110000D01*
X79510000Y-32670000D02*
X79510000Y-53110000D01*
X81160000Y-32670000D02*
X79510000Y-32670000D01*
X83160000Y-32670000D02*
G75*
G02*
X81160000Y-32670000I-1000000J0D01*
G01*
%TO.C,C1*%
X75055000Y-33380000D02*
X75370000Y-33380000D01*
X72630000Y-33380000D02*
X72945000Y-33380000D01*
X75055000Y-38620000D02*
X75370000Y-38620000D01*
X72630000Y-38620000D02*
X72945000Y-38620000D01*
X75370000Y-38620000D02*
X75370000Y-33380000D01*
X72630000Y-38620000D02*
X72630000Y-33380000D01*
%TO.C,C9*%
X98380000Y-42620000D02*
X98380000Y-39880000D01*
X103620000Y-42620000D02*
X103620000Y-39880000D01*
X103620000Y-39880000D02*
X98380000Y-39880000D01*
X103620000Y-42620000D02*
X98380000Y-42620000D01*
%TO.C,C3*%
X119020000Y-55000000D02*
G75*
G03*
X119020000Y-55000000I-3270000J0D01*
G01*
X115750000Y-51770000D02*
X115750000Y-58230000D01*
X115790000Y-51770000D02*
X115790000Y-58230000D01*
X115830000Y-51770000D02*
X115830000Y-58230000D01*
X115870000Y-51772000D02*
X115870000Y-58228000D01*
X115910000Y-51773000D02*
X115910000Y-58227000D01*
X115950000Y-51776000D02*
X115950000Y-58224000D01*
X115990000Y-51778000D02*
X115990000Y-53960000D01*
X115990000Y-56040000D02*
X115990000Y-58222000D01*
X116030000Y-51782000D02*
X116030000Y-53960000D01*
X116030000Y-56040000D02*
X116030000Y-58218000D01*
X116070000Y-51785000D02*
X116070000Y-53960000D01*
X116070000Y-56040000D02*
X116070000Y-58215000D01*
X116110000Y-51789000D02*
X116110000Y-53960000D01*
X116110000Y-56040000D02*
X116110000Y-58211000D01*
X116150000Y-51794000D02*
X116150000Y-53960000D01*
X116150000Y-56040000D02*
X116150000Y-58206000D01*
X116190000Y-51799000D02*
X116190000Y-53960000D01*
X116190000Y-56040000D02*
X116190000Y-58201000D01*
X116230000Y-51805000D02*
X116230000Y-53960000D01*
X116230000Y-56040000D02*
X116230000Y-58195000D01*
X116270000Y-51811000D02*
X116270000Y-53960000D01*
X116270000Y-56040000D02*
X116270000Y-58189000D01*
X116310000Y-51818000D02*
X116310000Y-53960000D01*
X116310000Y-56040000D02*
X116310000Y-58182000D01*
X116350000Y-51825000D02*
X116350000Y-53960000D01*
X116350000Y-56040000D02*
X116350000Y-58175000D01*
X116390000Y-51833000D02*
X116390000Y-53960000D01*
X116390000Y-56040000D02*
X116390000Y-58167000D01*
X116430000Y-51841000D02*
X116430000Y-53960000D01*
X116430000Y-56040000D02*
X116430000Y-58159000D01*
X116471000Y-51850000D02*
X116471000Y-53960000D01*
X116471000Y-56040000D02*
X116471000Y-58150000D01*
X116511000Y-51859000D02*
X116511000Y-53960000D01*
X116511000Y-56040000D02*
X116511000Y-58141000D01*
X116551000Y-51869000D02*
X116551000Y-53960000D01*
X116551000Y-56040000D02*
X116551000Y-58131000D01*
X116591000Y-51879000D02*
X116591000Y-53960000D01*
X116591000Y-56040000D02*
X116591000Y-58121000D01*
X116631000Y-51890000D02*
X116631000Y-53960000D01*
X116631000Y-56040000D02*
X116631000Y-58110000D01*
X116671000Y-51902000D02*
X116671000Y-53960000D01*
X116671000Y-56040000D02*
X116671000Y-58098000D01*
X116711000Y-51914000D02*
X116711000Y-53960000D01*
X116711000Y-56040000D02*
X116711000Y-58086000D01*
X116751000Y-51926000D02*
X116751000Y-53960000D01*
X116751000Y-56040000D02*
X116751000Y-58074000D01*
X116791000Y-51939000D02*
X116791000Y-53960000D01*
X116791000Y-56040000D02*
X116791000Y-58061000D01*
X116831000Y-51953000D02*
X116831000Y-53960000D01*
X116831000Y-56040000D02*
X116831000Y-58047000D01*
X116871000Y-51967000D02*
X116871000Y-53960000D01*
X116871000Y-56040000D02*
X116871000Y-58033000D01*
X116911000Y-51982000D02*
X116911000Y-53960000D01*
X116911000Y-56040000D02*
X116911000Y-58018000D01*
X116951000Y-51998000D02*
X116951000Y-53960000D01*
X116951000Y-56040000D02*
X116951000Y-58002000D01*
X116991000Y-52014000D02*
X116991000Y-53960000D01*
X116991000Y-56040000D02*
X116991000Y-57986000D01*
X117031000Y-52030000D02*
X117031000Y-53960000D01*
X117031000Y-56040000D02*
X117031000Y-57970000D01*
X117071000Y-52048000D02*
X117071000Y-53960000D01*
X117071000Y-56040000D02*
X117071000Y-57952000D01*
X117111000Y-52066000D02*
X117111000Y-53960000D01*
X117111000Y-56040000D02*
X117111000Y-57934000D01*
X117151000Y-52084000D02*
X117151000Y-53960000D01*
X117151000Y-56040000D02*
X117151000Y-57916000D01*
X117191000Y-52104000D02*
X117191000Y-53960000D01*
X117191000Y-56040000D02*
X117191000Y-57896000D01*
X117231000Y-52124000D02*
X117231000Y-53960000D01*
X117231000Y-56040000D02*
X117231000Y-57876000D01*
X117271000Y-52144000D02*
X117271000Y-53960000D01*
X117271000Y-56040000D02*
X117271000Y-57856000D01*
X117311000Y-52166000D02*
X117311000Y-53960000D01*
X117311000Y-56040000D02*
X117311000Y-57834000D01*
X117351000Y-52188000D02*
X117351000Y-53960000D01*
X117351000Y-56040000D02*
X117351000Y-57812000D01*
X117391000Y-52210000D02*
X117391000Y-53960000D01*
X117391000Y-56040000D02*
X117391000Y-57790000D01*
X117431000Y-52234000D02*
X117431000Y-53960000D01*
X117431000Y-56040000D02*
X117431000Y-57766000D01*
X117471000Y-52258000D02*
X117471000Y-53960000D01*
X117471000Y-56040000D02*
X117471000Y-57742000D01*
X117511000Y-52284000D02*
X117511000Y-53960000D01*
X117511000Y-56040000D02*
X117511000Y-57716000D01*
X117551000Y-52310000D02*
X117551000Y-53960000D01*
X117551000Y-56040000D02*
X117551000Y-57690000D01*
X117591000Y-52336000D02*
X117591000Y-53960000D01*
X117591000Y-56040000D02*
X117591000Y-57664000D01*
X117631000Y-52364000D02*
X117631000Y-53960000D01*
X117631000Y-56040000D02*
X117631000Y-57636000D01*
X117671000Y-52393000D02*
X117671000Y-53960000D01*
X117671000Y-56040000D02*
X117671000Y-57607000D01*
X117711000Y-52422000D02*
X117711000Y-53960000D01*
X117711000Y-56040000D02*
X117711000Y-57578000D01*
X117751000Y-52452000D02*
X117751000Y-53960000D01*
X117751000Y-56040000D02*
X117751000Y-57548000D01*
X117791000Y-52484000D02*
X117791000Y-53960000D01*
X117791000Y-56040000D02*
X117791000Y-57516000D01*
X117831000Y-52516000D02*
X117831000Y-53960000D01*
X117831000Y-56040000D02*
X117831000Y-57484000D01*
X117871000Y-52550000D02*
X117871000Y-53960000D01*
X117871000Y-56040000D02*
X117871000Y-57450000D01*
X117911000Y-52584000D02*
X117911000Y-53960000D01*
X117911000Y-56040000D02*
X117911000Y-57416000D01*
X117951000Y-52620000D02*
X117951000Y-53960000D01*
X117951000Y-56040000D02*
X117951000Y-57380000D01*
X117991000Y-52657000D02*
X117991000Y-53960000D01*
X117991000Y-56040000D02*
X117991000Y-57343000D01*
X118031000Y-52695000D02*
X118031000Y-53960000D01*
X118031000Y-56040000D02*
X118031000Y-57305000D01*
X118071000Y-52735000D02*
X118071000Y-57265000D01*
X118111000Y-52776000D02*
X118111000Y-57224000D01*
X118151000Y-52818000D02*
X118151000Y-57182000D01*
X118191000Y-52863000D02*
X118191000Y-57137000D01*
X118231000Y-52908000D02*
X118231000Y-57092000D01*
X118271000Y-52956000D02*
X118271000Y-57044000D01*
X118311000Y-53005000D02*
X118311000Y-56995000D01*
X118351000Y-53056000D02*
X118351000Y-56944000D01*
X118391000Y-53110000D02*
X118391000Y-56890000D01*
X118431000Y-53166000D02*
X118431000Y-56834000D01*
X118471000Y-53224000D02*
X118471000Y-56776000D01*
X118511000Y-53286000D02*
X118511000Y-56714000D01*
X118551000Y-53350000D02*
X118551000Y-56650000D01*
X118591000Y-53419000D02*
X118591000Y-56581000D01*
X118631000Y-53491000D02*
X118631000Y-56509000D01*
X118671000Y-53568000D02*
X118671000Y-56432000D01*
X118711000Y-53650000D02*
X118711000Y-56350000D01*
X118751000Y-53738000D02*
X118751000Y-56262000D01*
X118791000Y-53835000D02*
X118791000Y-56165000D01*
X118831000Y-53941000D02*
X118831000Y-56059000D01*
X118871000Y-54060000D02*
X118871000Y-55940000D01*
X118911000Y-54198000D02*
X118911000Y-55802000D01*
X118951000Y-54367000D02*
X118951000Y-55633000D01*
X118991000Y-54598000D02*
X118991000Y-55402000D01*
X112249759Y-53161000D02*
X112879759Y-53161000D01*
X112564759Y-52846000D02*
X112564759Y-53476000D01*
%TO.C,R19*%
X93630000Y-57830000D02*
X89790000Y-57830000D01*
X93630000Y-59670000D02*
X89790000Y-59670000D01*
%TO.C,R27*%
X93460000Y-34920000D02*
X89620000Y-34920000D01*
X93460000Y-33080000D02*
X89620000Y-33080000D01*
%TO.C,U1*%
X64670000Y-52660000D02*
X64670000Y-54310000D01*
X74950000Y-52660000D02*
X64670000Y-52660000D01*
X74950000Y-57960000D02*
X74950000Y-52660000D01*
X64670000Y-57960000D02*
X74950000Y-57960000D01*
X64670000Y-56310000D02*
X64670000Y-57960000D01*
X64670000Y-54310000D02*
G75*
G02*
X64670000Y-56310000I0J-1000000D01*
G01*
%TO.C,C2*%
D10*
X100833333Y-67357142D02*
X100785714Y-67404761D01*
X100642857Y-67452380D01*
X100547619Y-67452380D01*
X100404761Y-67404761D01*
X100309523Y-67309523D01*
X100261904Y-67214285D01*
X100214285Y-67023809D01*
X100214285Y-66880952D01*
X100261904Y-66690476D01*
X100309523Y-66595238D01*
X100404761Y-66500000D01*
X100547619Y-66452380D01*
X100642857Y-66452380D01*
X100785714Y-66500000D01*
X100833333Y-66547619D01*
X101214285Y-66547619D02*
X101261904Y-66500000D01*
X101357142Y-66452380D01*
X101595238Y-66452380D01*
X101690476Y-66500000D01*
X101738095Y-66547619D01*
X101785714Y-66642857D01*
X101785714Y-66738095D01*
X101738095Y-66880952D01*
X101166666Y-67452380D01*
X101785714Y-67452380D01*
%TO.C,C4*%
X112357142Y-35916666D02*
X112404761Y-35964285D01*
X112452380Y-36107142D01*
X112452380Y-36202380D01*
X112404761Y-36345238D01*
X112309523Y-36440476D01*
X112214285Y-36488095D01*
X112023809Y-36535714D01*
X111880952Y-36535714D01*
X111690476Y-36488095D01*
X111595238Y-36440476D01*
X111500000Y-36345238D01*
X111452380Y-36202380D01*
X111452380Y-36107142D01*
X111500000Y-35964285D01*
X111547619Y-35916666D01*
X111785714Y-35059523D02*
X112452380Y-35059523D01*
X111404761Y-35297619D02*
X112119047Y-35535714D01*
X112119047Y-34916666D01*
%TO.C,C5*%
X112607142Y-73916666D02*
X112654761Y-73964285D01*
X112702380Y-74107142D01*
X112702380Y-74202380D01*
X112654761Y-74345238D01*
X112559523Y-74440476D01*
X112464285Y-74488095D01*
X112273809Y-74535714D01*
X112130952Y-74535714D01*
X111940476Y-74488095D01*
X111845238Y-74440476D01*
X111750000Y-74345238D01*
X111702380Y-74202380D01*
X111702380Y-74107142D01*
X111750000Y-73964285D01*
X111797619Y-73916666D01*
X111702380Y-73011904D02*
X111702380Y-73488095D01*
X112178571Y-73535714D01*
X112130952Y-73488095D01*
X112083333Y-73392857D01*
X112083333Y-73154761D01*
X112130952Y-73059523D01*
X112178571Y-73011904D01*
X112273809Y-72964285D01*
X112511904Y-72964285D01*
X112607142Y-73011904D01*
X112654761Y-73059523D01*
X112702380Y-73154761D01*
X112702380Y-73392857D01*
X112654761Y-73488095D01*
X112607142Y-73535714D01*
%TO.C,C6*%
X58357142Y-55416666D02*
X58404761Y-55464285D01*
X58452380Y-55607142D01*
X58452380Y-55702380D01*
X58404761Y-55845238D01*
X58309523Y-55940476D01*
X58214285Y-55988095D01*
X58023809Y-56035714D01*
X57880952Y-56035714D01*
X57690476Y-55988095D01*
X57595238Y-55940476D01*
X57500000Y-55845238D01*
X57452380Y-55702380D01*
X57452380Y-55607142D01*
X57500000Y-55464285D01*
X57547619Y-55416666D01*
X57452380Y-54559523D02*
X57452380Y-54750000D01*
X57500000Y-54845238D01*
X57547619Y-54892857D01*
X57690476Y-54988095D01*
X57880952Y-55035714D01*
X58261904Y-55035714D01*
X58357142Y-54988095D01*
X58404761Y-54940476D01*
X58452380Y-54845238D01*
X58452380Y-54654761D01*
X58404761Y-54559523D01*
X58357142Y-54511904D01*
X58261904Y-54464285D01*
X58023809Y-54464285D01*
X57928571Y-54511904D01*
X57880952Y-54559523D01*
X57833333Y-54654761D01*
X57833333Y-54845238D01*
X57880952Y-54940476D01*
X57928571Y-54988095D01*
X58023809Y-55035714D01*
%TO.C,C7*%
X53357142Y-55416666D02*
X53404761Y-55464285D01*
X53452380Y-55607142D01*
X53452380Y-55702380D01*
X53404761Y-55845238D01*
X53309523Y-55940476D01*
X53214285Y-55988095D01*
X53023809Y-56035714D01*
X52880952Y-56035714D01*
X52690476Y-55988095D01*
X52595238Y-55940476D01*
X52500000Y-55845238D01*
X52452380Y-55702380D01*
X52452380Y-55607142D01*
X52500000Y-55464285D01*
X52547619Y-55416666D01*
X52452380Y-55083333D02*
X52452380Y-54416666D01*
X53452380Y-54845238D01*
%TO.C,C8*%
X50857142Y-55416666D02*
X50904761Y-55464285D01*
X50952380Y-55607142D01*
X50952380Y-55702380D01*
X50904761Y-55845238D01*
X50809523Y-55940476D01*
X50714285Y-55988095D01*
X50523809Y-56035714D01*
X50380952Y-56035714D01*
X50190476Y-55988095D01*
X50095238Y-55940476D01*
X50000000Y-55845238D01*
X49952380Y-55702380D01*
X49952380Y-55607142D01*
X50000000Y-55464285D01*
X50047619Y-55416666D01*
X50380952Y-54845238D02*
X50333333Y-54940476D01*
X50285714Y-54988095D01*
X50190476Y-55035714D01*
X50142857Y-55035714D01*
X50047619Y-54988095D01*
X50000000Y-54940476D01*
X49952380Y-54845238D01*
X49952380Y-54654761D01*
X50000000Y-54559523D01*
X50047619Y-54511904D01*
X50142857Y-54464285D01*
X50190476Y-54464285D01*
X50285714Y-54511904D01*
X50333333Y-54559523D01*
X50380952Y-54654761D01*
X50380952Y-54845238D01*
X50428571Y-54940476D01*
X50476190Y-54988095D01*
X50571428Y-55035714D01*
X50761904Y-55035714D01*
X50857142Y-54988095D01*
X50904761Y-54940476D01*
X50952380Y-54845238D01*
X50952380Y-54654761D01*
X50904761Y-54559523D01*
X50857142Y-54511904D01*
X50761904Y-54464285D01*
X50571428Y-54464285D01*
X50476190Y-54511904D01*
X50428571Y-54559523D01*
X50380952Y-54654761D01*
%TO.C,D1*%
X121452380Y-55988095D02*
X120452380Y-55988095D01*
X120452380Y-55750000D01*
X120500000Y-55607142D01*
X120595238Y-55511904D01*
X120690476Y-55464285D01*
X120880952Y-55416666D01*
X121023809Y-55416666D01*
X121214285Y-55464285D01*
X121309523Y-55511904D01*
X121404761Y-55607142D01*
X121452380Y-55750000D01*
X121452380Y-55988095D01*
X121452380Y-54464285D02*
X121452380Y-55035714D01*
X121452380Y-54750000D02*
X120452380Y-54750000D01*
X120595238Y-54845238D01*
X120690476Y-54940476D01*
X120738095Y-55035714D01*
X123252380Y-51511904D02*
X122252380Y-51511904D01*
X123252380Y-50940476D02*
X122680952Y-51369047D01*
X122252380Y-50940476D02*
X122823809Y-51511904D01*
%TO.C,D2*%
X47452380Y-46738095D02*
X46452380Y-46738095D01*
X46452380Y-46500000D01*
X46500000Y-46357142D01*
X46595238Y-46261904D01*
X46690476Y-46214285D01*
X46880952Y-46166666D01*
X47023809Y-46166666D01*
X47214285Y-46214285D01*
X47309523Y-46261904D01*
X47404761Y-46357142D01*
X47452380Y-46500000D01*
X47452380Y-46738095D01*
X46547619Y-45785714D02*
X46500000Y-45738095D01*
X46452380Y-45642857D01*
X46452380Y-45404761D01*
X46500000Y-45309523D01*
X46547619Y-45261904D01*
X46642857Y-45214285D01*
X46738095Y-45214285D01*
X46880952Y-45261904D01*
X47452380Y-45833333D01*
X47452380Y-45214285D01*
X49252380Y-42261904D02*
X48252380Y-42261904D01*
X49252380Y-41690476D02*
X48680952Y-42119047D01*
X48252380Y-41690476D02*
X48823809Y-42261904D01*
%TO.C,D3*%
X47452380Y-65738095D02*
X46452380Y-65738095D01*
X46452380Y-65500000D01*
X46500000Y-65357142D01*
X46595238Y-65261904D01*
X46690476Y-65214285D01*
X46880952Y-65166666D01*
X47023809Y-65166666D01*
X47214285Y-65214285D01*
X47309523Y-65261904D01*
X47404761Y-65357142D01*
X47452380Y-65500000D01*
X47452380Y-65738095D01*
X46452380Y-64833333D02*
X46452380Y-64214285D01*
X46833333Y-64547619D01*
X46833333Y-64404761D01*
X46880952Y-64309523D01*
X46928571Y-64261904D01*
X47023809Y-64214285D01*
X47261904Y-64214285D01*
X47357142Y-64261904D01*
X47404761Y-64309523D01*
X47452380Y-64404761D01*
X47452380Y-64690476D01*
X47404761Y-64785714D01*
X47357142Y-64833333D01*
X49252380Y-61141904D02*
X48252380Y-61141904D01*
X49252380Y-60570476D02*
X48680952Y-60999047D01*
X48252380Y-60570476D02*
X48823809Y-61141904D01*
%TO.C,D4*%
X53452380Y-46738095D02*
X52452380Y-46738095D01*
X52452380Y-46500000D01*
X52500000Y-46357142D01*
X52595238Y-46261904D01*
X52690476Y-46214285D01*
X52880952Y-46166666D01*
X53023809Y-46166666D01*
X53214285Y-46214285D01*
X53309523Y-46261904D01*
X53404761Y-46357142D01*
X53452380Y-46500000D01*
X53452380Y-46738095D01*
X52785714Y-45309523D02*
X53452380Y-45309523D01*
X52404761Y-45547619D02*
X53119047Y-45785714D01*
X53119047Y-45166666D01*
X55252380Y-42261904D02*
X54252380Y-42261904D01*
X55252380Y-41690476D02*
X54680952Y-42119047D01*
X54252380Y-41690476D02*
X54823809Y-42261904D01*
%TO.C,D5*%
X53452380Y-65738095D02*
X52452380Y-65738095D01*
X52452380Y-65500000D01*
X52500000Y-65357142D01*
X52595238Y-65261904D01*
X52690476Y-65214285D01*
X52880952Y-65166666D01*
X53023809Y-65166666D01*
X53214285Y-65214285D01*
X53309523Y-65261904D01*
X53404761Y-65357142D01*
X53452380Y-65500000D01*
X53452380Y-65738095D01*
X52452380Y-64261904D02*
X52452380Y-64738095D01*
X52928571Y-64785714D01*
X52880952Y-64738095D01*
X52833333Y-64642857D01*
X52833333Y-64404761D01*
X52880952Y-64309523D01*
X52928571Y-64261904D01*
X53023809Y-64214285D01*
X53261904Y-64214285D01*
X53357142Y-64261904D01*
X53404761Y-64309523D01*
X53452380Y-64404761D01*
X53452380Y-64642857D01*
X53404761Y-64738095D01*
X53357142Y-64785714D01*
X55252380Y-61261904D02*
X54252380Y-61261904D01*
X55252380Y-60690476D02*
X54680952Y-61119047D01*
X54252380Y-60690476D02*
X54823809Y-61261904D01*
%TO.C,R1*%
X107202380Y-73666666D02*
X106726190Y-74000000D01*
X107202380Y-74238095D02*
X106202380Y-74238095D01*
X106202380Y-73857142D01*
X106250000Y-73761904D01*
X106297619Y-73714285D01*
X106392857Y-73666666D01*
X106535714Y-73666666D01*
X106630952Y-73714285D01*
X106678571Y-73761904D01*
X106726190Y-73857142D01*
X106726190Y-74238095D01*
X107202380Y-72714285D02*
X107202380Y-73285714D01*
X107202380Y-73000000D02*
X106202380Y-73000000D01*
X106345238Y-73095238D01*
X106440476Y-73190476D01*
X106488095Y-73285714D01*
%TO.C,R2*%
X53452380Y-36286666D02*
X52976190Y-36620000D01*
X53452380Y-36858095D02*
X52452380Y-36858095D01*
X52452380Y-36477142D01*
X52500000Y-36381904D01*
X52547619Y-36334285D01*
X52642857Y-36286666D01*
X52785714Y-36286666D01*
X52880952Y-36334285D01*
X52928571Y-36381904D01*
X52976190Y-36477142D01*
X52976190Y-36858095D01*
X52547619Y-35905714D02*
X52500000Y-35858095D01*
X52452380Y-35762857D01*
X52452380Y-35524761D01*
X52500000Y-35429523D01*
X52547619Y-35381904D01*
X52642857Y-35334285D01*
X52738095Y-35334285D01*
X52880952Y-35381904D01*
X53452380Y-35953333D01*
X53452380Y-35334285D01*
%TO.C,R3*%
X47452380Y-36206666D02*
X46976190Y-36540000D01*
X47452380Y-36778095D02*
X46452380Y-36778095D01*
X46452380Y-36397142D01*
X46500000Y-36301904D01*
X46547619Y-36254285D01*
X46642857Y-36206666D01*
X46785714Y-36206666D01*
X46880952Y-36254285D01*
X46928571Y-36301904D01*
X46976190Y-36397142D01*
X46976190Y-36778095D01*
X46452380Y-35873333D02*
X46452380Y-35254285D01*
X46833333Y-35587619D01*
X46833333Y-35444761D01*
X46880952Y-35349523D01*
X46928571Y-35301904D01*
X47023809Y-35254285D01*
X47261904Y-35254285D01*
X47357142Y-35301904D01*
X47404761Y-35349523D01*
X47452380Y-35444761D01*
X47452380Y-35730476D01*
X47404761Y-35825714D01*
X47357142Y-35873333D01*
%TO.C,R4*%
X47452380Y-74666666D02*
X46976190Y-75000000D01*
X47452380Y-75238095D02*
X46452380Y-75238095D01*
X46452380Y-74857142D01*
X46500000Y-74761904D01*
X46547619Y-74714285D01*
X46642857Y-74666666D01*
X46785714Y-74666666D01*
X46880952Y-74714285D01*
X46928571Y-74761904D01*
X46976190Y-74857142D01*
X46976190Y-75238095D01*
X46785714Y-73809523D02*
X47452380Y-73809523D01*
X46404761Y-74047619D02*
X47119047Y-74285714D01*
X47119047Y-73666666D01*
%TO.C,R5*%
X111793333Y-41952380D02*
X111460000Y-41476190D01*
X111221904Y-41952380D02*
X111221904Y-40952380D01*
X111602857Y-40952380D01*
X111698095Y-41000000D01*
X111745714Y-41047619D01*
X111793333Y-41142857D01*
X111793333Y-41285714D01*
X111745714Y-41380952D01*
X111698095Y-41428571D01*
X111602857Y-41476190D01*
X111221904Y-41476190D01*
X112698095Y-40952380D02*
X112221904Y-40952380D01*
X112174285Y-41428571D01*
X112221904Y-41380952D01*
X112317142Y-41333333D01*
X112555238Y-41333333D01*
X112650476Y-41380952D01*
X112698095Y-41428571D01*
X112745714Y-41523809D01*
X112745714Y-41761904D01*
X112698095Y-41857142D01*
X112650476Y-41904761D01*
X112555238Y-41952380D01*
X112317142Y-41952380D01*
X112221904Y-41904761D01*
X112174285Y-41857142D01*
%TO.C,R6*%
X125452380Y-55126666D02*
X124976190Y-55460000D01*
X125452380Y-55698095D02*
X124452380Y-55698095D01*
X124452380Y-55317142D01*
X124500000Y-55221904D01*
X124547619Y-55174285D01*
X124642857Y-55126666D01*
X124785714Y-55126666D01*
X124880952Y-55174285D01*
X124928571Y-55221904D01*
X124976190Y-55317142D01*
X124976190Y-55698095D01*
X124452380Y-54269523D02*
X124452380Y-54460000D01*
X124500000Y-54555238D01*
X124547619Y-54602857D01*
X124690476Y-54698095D01*
X124880952Y-54745714D01*
X125261904Y-54745714D01*
X125357142Y-54698095D01*
X125404761Y-54650476D01*
X125452380Y-54555238D01*
X125452380Y-54364761D01*
X125404761Y-54269523D01*
X125357142Y-54221904D01*
X125261904Y-54174285D01*
X125023809Y-54174285D01*
X124928571Y-54221904D01*
X124880952Y-54269523D01*
X124833333Y-54364761D01*
X124833333Y-54555238D01*
X124880952Y-54650476D01*
X124928571Y-54698095D01*
X125023809Y-54745714D01*
%TO.C,R7*%
X108452380Y-36666666D02*
X107976190Y-37000000D01*
X108452380Y-37238095D02*
X107452380Y-37238095D01*
X107452380Y-36857142D01*
X107500000Y-36761904D01*
X107547619Y-36714285D01*
X107642857Y-36666666D01*
X107785714Y-36666666D01*
X107880952Y-36714285D01*
X107928571Y-36761904D01*
X107976190Y-36857142D01*
X107976190Y-37238095D01*
X107452380Y-36333333D02*
X107452380Y-35666666D01*
X108452380Y-36095238D01*
%TO.C,R8*%
X112083333Y-69202380D02*
X111750000Y-68726190D01*
X111511904Y-69202380D02*
X111511904Y-68202380D01*
X111892857Y-68202380D01*
X111988095Y-68250000D01*
X112035714Y-68297619D01*
X112083333Y-68392857D01*
X112083333Y-68535714D01*
X112035714Y-68630952D01*
X111988095Y-68678571D01*
X111892857Y-68726190D01*
X111511904Y-68726190D01*
X112654761Y-68630952D02*
X112559523Y-68583333D01*
X112511904Y-68535714D01*
X112464285Y-68440476D01*
X112464285Y-68392857D01*
X112511904Y-68297619D01*
X112559523Y-68250000D01*
X112654761Y-68202380D01*
X112845238Y-68202380D01*
X112940476Y-68250000D01*
X112988095Y-68297619D01*
X113035714Y-68392857D01*
X113035714Y-68440476D01*
X112988095Y-68535714D01*
X112940476Y-68583333D01*
X112845238Y-68630952D01*
X112654761Y-68630952D01*
X112559523Y-68678571D01*
X112511904Y-68726190D01*
X112464285Y-68821428D01*
X112464285Y-69011904D01*
X112511904Y-69107142D01*
X112559523Y-69154761D01*
X112654761Y-69202380D01*
X112845238Y-69202380D01*
X112940476Y-69154761D01*
X112988095Y-69107142D01*
X113035714Y-69011904D01*
X113035714Y-68821428D01*
X112988095Y-68726190D01*
X112940476Y-68678571D01*
X112845238Y-68630952D01*
%TO.C,R9*%
X71003333Y-47452380D02*
X70670000Y-46976190D01*
X70431904Y-47452380D02*
X70431904Y-46452380D01*
X70812857Y-46452380D01*
X70908095Y-46500000D01*
X70955714Y-46547619D01*
X71003333Y-46642857D01*
X71003333Y-46785714D01*
X70955714Y-46880952D01*
X70908095Y-46928571D01*
X70812857Y-46976190D01*
X70431904Y-46976190D01*
X71479523Y-47452380D02*
X71670000Y-47452380D01*
X71765238Y-47404761D01*
X71812857Y-47357142D01*
X71908095Y-47214285D01*
X71955714Y-47023809D01*
X71955714Y-46642857D01*
X71908095Y-46547619D01*
X71860476Y-46500000D01*
X71765238Y-46452380D01*
X71574761Y-46452380D01*
X71479523Y-46500000D01*
X71431904Y-46547619D01*
X71384285Y-46642857D01*
X71384285Y-46880952D01*
X71431904Y-46976190D01*
X71479523Y-47023809D01*
X71574761Y-47071428D01*
X71765238Y-47071428D01*
X71860476Y-47023809D01*
X71908095Y-46976190D01*
X71955714Y-46880952D01*
%TO.C,R10*%
X53452380Y-75182857D02*
X52976190Y-75516190D01*
X53452380Y-75754285D02*
X52452380Y-75754285D01*
X52452380Y-75373333D01*
X52500000Y-75278095D01*
X52547619Y-75230476D01*
X52642857Y-75182857D01*
X52785714Y-75182857D01*
X52880952Y-75230476D01*
X52928571Y-75278095D01*
X52976190Y-75373333D01*
X52976190Y-75754285D01*
X53452380Y-74230476D02*
X53452380Y-74801904D01*
X53452380Y-74516190D02*
X52452380Y-74516190D01*
X52595238Y-74611428D01*
X52690476Y-74706666D01*
X52738095Y-74801904D01*
X52452380Y-73611428D02*
X52452380Y-73516190D01*
X52500000Y-73420952D01*
X52547619Y-73373333D01*
X52642857Y-73325714D01*
X52833333Y-73278095D01*
X53071428Y-73278095D01*
X53261904Y-73325714D01*
X53357142Y-73373333D01*
X53404761Y-73420952D01*
X53452380Y-73516190D01*
X53452380Y-73611428D01*
X53404761Y-73706666D01*
X53357142Y-73754285D01*
X53261904Y-73801904D01*
X53071428Y-73849523D01*
X52833333Y-73849523D01*
X52642857Y-73801904D01*
X52547619Y-73754285D01*
X52500000Y-73706666D01*
X52452380Y-73611428D01*
%TO.C,R11*%
X70777142Y-64452380D02*
X70443809Y-63976190D01*
X70205714Y-64452380D02*
X70205714Y-63452380D01*
X70586666Y-63452380D01*
X70681904Y-63500000D01*
X70729523Y-63547619D01*
X70777142Y-63642857D01*
X70777142Y-63785714D01*
X70729523Y-63880952D01*
X70681904Y-63928571D01*
X70586666Y-63976190D01*
X70205714Y-63976190D01*
X71729523Y-64452380D02*
X71158095Y-64452380D01*
X71443809Y-64452380D02*
X71443809Y-63452380D01*
X71348571Y-63595238D01*
X71253333Y-63690476D01*
X71158095Y-63738095D01*
X72681904Y-64452380D02*
X72110476Y-64452380D01*
X72396190Y-64452380D02*
X72396190Y-63452380D01*
X72300952Y-63595238D01*
X72205714Y-63690476D01*
X72110476Y-63738095D01*
%TO.C,R12*%
X91067142Y-61702380D02*
X90733809Y-61226190D01*
X90495714Y-61702380D02*
X90495714Y-60702380D01*
X90876666Y-60702380D01*
X90971904Y-60750000D01*
X91019523Y-60797619D01*
X91067142Y-60892857D01*
X91067142Y-61035714D01*
X91019523Y-61130952D01*
X90971904Y-61178571D01*
X90876666Y-61226190D01*
X90495714Y-61226190D01*
X92019523Y-61702380D02*
X91448095Y-61702380D01*
X91733809Y-61702380D02*
X91733809Y-60702380D01*
X91638571Y-60845238D01*
X91543333Y-60940476D01*
X91448095Y-60988095D01*
X92400476Y-60797619D02*
X92448095Y-60750000D01*
X92543333Y-60702380D01*
X92781428Y-60702380D01*
X92876666Y-60750000D01*
X92924285Y-60797619D01*
X92971904Y-60892857D01*
X92971904Y-60988095D01*
X92924285Y-61130952D01*
X92352857Y-61702380D01*
X92971904Y-61702380D01*
%TO.C,R13*%
X91107142Y-64202380D02*
X90773809Y-63726190D01*
X90535714Y-64202380D02*
X90535714Y-63202380D01*
X90916666Y-63202380D01*
X91011904Y-63250000D01*
X91059523Y-63297619D01*
X91107142Y-63392857D01*
X91107142Y-63535714D01*
X91059523Y-63630952D01*
X91011904Y-63678571D01*
X90916666Y-63726190D01*
X90535714Y-63726190D01*
X92059523Y-64202380D02*
X91488095Y-64202380D01*
X91773809Y-64202380D02*
X91773809Y-63202380D01*
X91678571Y-63345238D01*
X91583333Y-63440476D01*
X91488095Y-63488095D01*
X92392857Y-63202380D02*
X93011904Y-63202380D01*
X92678571Y-63583333D01*
X92821428Y-63583333D01*
X92916666Y-63630952D01*
X92964285Y-63678571D01*
X93011904Y-63773809D01*
X93011904Y-64011904D01*
X92964285Y-64107142D01*
X92916666Y-64154761D01*
X92821428Y-64202380D01*
X92535714Y-64202380D01*
X92440476Y-64154761D01*
X92392857Y-64107142D01*
%TO.C,R14*%
X91147142Y-66702380D02*
X90813809Y-66226190D01*
X90575714Y-66702380D02*
X90575714Y-65702380D01*
X90956666Y-65702380D01*
X91051904Y-65750000D01*
X91099523Y-65797619D01*
X91147142Y-65892857D01*
X91147142Y-66035714D01*
X91099523Y-66130952D01*
X91051904Y-66178571D01*
X90956666Y-66226190D01*
X90575714Y-66226190D01*
X92099523Y-66702380D02*
X91528095Y-66702380D01*
X91813809Y-66702380D02*
X91813809Y-65702380D01*
X91718571Y-65845238D01*
X91623333Y-65940476D01*
X91528095Y-65988095D01*
X92956666Y-66035714D02*
X92956666Y-66702380D01*
X92718571Y-65654761D02*
X92480476Y-66369047D01*
X93099523Y-66369047D01*
%TO.C,R15*%
X91187142Y-69452380D02*
X90853809Y-68976190D01*
X90615714Y-69452380D02*
X90615714Y-68452380D01*
X90996666Y-68452380D01*
X91091904Y-68500000D01*
X91139523Y-68547619D01*
X91187142Y-68642857D01*
X91187142Y-68785714D01*
X91139523Y-68880952D01*
X91091904Y-68928571D01*
X90996666Y-68976190D01*
X90615714Y-68976190D01*
X92139523Y-69452380D02*
X91568095Y-69452380D01*
X91853809Y-69452380D02*
X91853809Y-68452380D01*
X91758571Y-68595238D01*
X91663333Y-68690476D01*
X91568095Y-68738095D01*
X93044285Y-68452380D02*
X92568095Y-68452380D01*
X92520476Y-68928571D01*
X92568095Y-68880952D01*
X92663333Y-68833333D01*
X92901428Y-68833333D01*
X92996666Y-68880952D01*
X93044285Y-68928571D01*
X93091904Y-69023809D01*
X93091904Y-69261904D01*
X93044285Y-69357142D01*
X92996666Y-69404761D01*
X92901428Y-69452380D01*
X92663333Y-69452380D01*
X92568095Y-69404761D01*
X92520476Y-69357142D01*
%TO.C,R16*%
X91187142Y-71952380D02*
X90853809Y-71476190D01*
X90615714Y-71952380D02*
X90615714Y-70952380D01*
X90996666Y-70952380D01*
X91091904Y-71000000D01*
X91139523Y-71047619D01*
X91187142Y-71142857D01*
X91187142Y-71285714D01*
X91139523Y-71380952D01*
X91091904Y-71428571D01*
X90996666Y-71476190D01*
X90615714Y-71476190D01*
X92139523Y-71952380D02*
X91568095Y-71952380D01*
X91853809Y-71952380D02*
X91853809Y-70952380D01*
X91758571Y-71095238D01*
X91663333Y-71190476D01*
X91568095Y-71238095D01*
X92996666Y-70952380D02*
X92806190Y-70952380D01*
X92710952Y-71000000D01*
X92663333Y-71047619D01*
X92568095Y-71190476D01*
X92520476Y-71380952D01*
X92520476Y-71761904D01*
X92568095Y-71857142D01*
X92615714Y-71904761D01*
X92710952Y-71952380D01*
X92901428Y-71952380D01*
X92996666Y-71904761D01*
X93044285Y-71857142D01*
X93091904Y-71761904D01*
X93091904Y-71523809D01*
X93044285Y-71428571D01*
X92996666Y-71380952D01*
X92901428Y-71333333D01*
X92710952Y-71333333D01*
X92615714Y-71380952D01*
X92568095Y-71428571D01*
X92520476Y-71523809D01*
%TO.C,R17*%
X91147142Y-74452380D02*
X90813809Y-73976190D01*
X90575714Y-74452380D02*
X90575714Y-73452380D01*
X90956666Y-73452380D01*
X91051904Y-73500000D01*
X91099523Y-73547619D01*
X91147142Y-73642857D01*
X91147142Y-73785714D01*
X91099523Y-73880952D01*
X91051904Y-73928571D01*
X90956666Y-73976190D01*
X90575714Y-73976190D01*
X92099523Y-74452380D02*
X91528095Y-74452380D01*
X91813809Y-74452380D02*
X91813809Y-73452380D01*
X91718571Y-73595238D01*
X91623333Y-73690476D01*
X91528095Y-73738095D01*
X92432857Y-73452380D02*
X93099523Y-73452380D01*
X92670952Y-74452380D01*
%TO.C,R18*%
X91187142Y-76952380D02*
X90853809Y-76476190D01*
X90615714Y-76952380D02*
X90615714Y-75952380D01*
X90996666Y-75952380D01*
X91091904Y-76000000D01*
X91139523Y-76047619D01*
X91187142Y-76142857D01*
X91187142Y-76285714D01*
X91139523Y-76380952D01*
X91091904Y-76428571D01*
X90996666Y-76476190D01*
X90615714Y-76476190D01*
X92139523Y-76952380D02*
X91568095Y-76952380D01*
X91853809Y-76952380D02*
X91853809Y-75952380D01*
X91758571Y-76095238D01*
X91663333Y-76190476D01*
X91568095Y-76238095D01*
X92710952Y-76380952D02*
X92615714Y-76333333D01*
X92568095Y-76285714D01*
X92520476Y-76190476D01*
X92520476Y-76142857D01*
X92568095Y-76047619D01*
X92615714Y-76000000D01*
X92710952Y-75952380D01*
X92901428Y-75952380D01*
X92996666Y-76000000D01*
X93044285Y-76047619D01*
X93091904Y-76142857D01*
X93091904Y-76190476D01*
X93044285Y-76285714D01*
X92996666Y-76333333D01*
X92901428Y-76380952D01*
X92710952Y-76380952D01*
X92615714Y-76428571D01*
X92568095Y-76476190D01*
X92520476Y-76571428D01*
X92520476Y-76761904D01*
X92568095Y-76857142D01*
X92615714Y-76904761D01*
X92710952Y-76952380D01*
X92901428Y-76952380D01*
X92996666Y-76904761D01*
X93044285Y-76857142D01*
X93091904Y-76761904D01*
X93091904Y-76571428D01*
X93044285Y-76476190D01*
X92996666Y-76428571D01*
X92901428Y-76380952D01*
%TO.C,R20*%
X90857142Y-36952380D02*
X90523809Y-36476190D01*
X90285714Y-36952380D02*
X90285714Y-35952380D01*
X90666666Y-35952380D01*
X90761904Y-36000000D01*
X90809523Y-36047619D01*
X90857142Y-36142857D01*
X90857142Y-36285714D01*
X90809523Y-36380952D01*
X90761904Y-36428571D01*
X90666666Y-36476190D01*
X90285714Y-36476190D01*
X91238095Y-36047619D02*
X91285714Y-36000000D01*
X91380952Y-35952380D01*
X91619047Y-35952380D01*
X91714285Y-36000000D01*
X91761904Y-36047619D01*
X91809523Y-36142857D01*
X91809523Y-36238095D01*
X91761904Y-36380952D01*
X91190476Y-36952380D01*
X91809523Y-36952380D01*
X92428571Y-35952380D02*
X92523809Y-35952380D01*
X92619047Y-36000000D01*
X92666666Y-36047619D01*
X92714285Y-36142857D01*
X92761904Y-36333333D01*
X92761904Y-36571428D01*
X92714285Y-36761904D01*
X92666666Y-36857142D01*
X92619047Y-36904761D01*
X92523809Y-36952380D01*
X92428571Y-36952380D01*
X92333333Y-36904761D01*
X92285714Y-36857142D01*
X92238095Y-36761904D01*
X92190476Y-36571428D01*
X92190476Y-36333333D01*
X92238095Y-36142857D01*
X92285714Y-36047619D01*
X92333333Y-36000000D01*
X92428571Y-35952380D01*
%TO.C,R21*%
X90857142Y-39452380D02*
X90523809Y-38976190D01*
X90285714Y-39452380D02*
X90285714Y-38452380D01*
X90666666Y-38452380D01*
X90761904Y-38500000D01*
X90809523Y-38547619D01*
X90857142Y-38642857D01*
X90857142Y-38785714D01*
X90809523Y-38880952D01*
X90761904Y-38928571D01*
X90666666Y-38976190D01*
X90285714Y-38976190D01*
X91238095Y-38547619D02*
X91285714Y-38500000D01*
X91380952Y-38452380D01*
X91619047Y-38452380D01*
X91714285Y-38500000D01*
X91761904Y-38547619D01*
X91809523Y-38642857D01*
X91809523Y-38738095D01*
X91761904Y-38880952D01*
X91190476Y-39452380D01*
X91809523Y-39452380D01*
X92761904Y-39452380D02*
X92190476Y-39452380D01*
X92476190Y-39452380D02*
X92476190Y-38452380D01*
X92380952Y-38595238D01*
X92285714Y-38690476D01*
X92190476Y-38738095D01*
%TO.C,R22*%
X90817142Y-41952380D02*
X90483809Y-41476190D01*
X90245714Y-41952380D02*
X90245714Y-40952380D01*
X90626666Y-40952380D01*
X90721904Y-41000000D01*
X90769523Y-41047619D01*
X90817142Y-41142857D01*
X90817142Y-41285714D01*
X90769523Y-41380952D01*
X90721904Y-41428571D01*
X90626666Y-41476190D01*
X90245714Y-41476190D01*
X91198095Y-41047619D02*
X91245714Y-41000000D01*
X91340952Y-40952380D01*
X91579047Y-40952380D01*
X91674285Y-41000000D01*
X91721904Y-41047619D01*
X91769523Y-41142857D01*
X91769523Y-41238095D01*
X91721904Y-41380952D01*
X91150476Y-41952380D01*
X91769523Y-41952380D01*
X92150476Y-41047619D02*
X92198095Y-41000000D01*
X92293333Y-40952380D01*
X92531428Y-40952380D01*
X92626666Y-41000000D01*
X92674285Y-41047619D01*
X92721904Y-41142857D01*
X92721904Y-41238095D01*
X92674285Y-41380952D01*
X92102857Y-41952380D01*
X92721904Y-41952380D01*
%TO.C,R23*%
X90857142Y-44452380D02*
X90523809Y-43976190D01*
X90285714Y-44452380D02*
X90285714Y-43452380D01*
X90666666Y-43452380D01*
X90761904Y-43500000D01*
X90809523Y-43547619D01*
X90857142Y-43642857D01*
X90857142Y-43785714D01*
X90809523Y-43880952D01*
X90761904Y-43928571D01*
X90666666Y-43976190D01*
X90285714Y-43976190D01*
X91238095Y-43547619D02*
X91285714Y-43500000D01*
X91380952Y-43452380D01*
X91619047Y-43452380D01*
X91714285Y-43500000D01*
X91761904Y-43547619D01*
X91809523Y-43642857D01*
X91809523Y-43738095D01*
X91761904Y-43880952D01*
X91190476Y-44452380D01*
X91809523Y-44452380D01*
X92142857Y-43452380D02*
X92761904Y-43452380D01*
X92428571Y-43833333D01*
X92571428Y-43833333D01*
X92666666Y-43880952D01*
X92714285Y-43928571D01*
X92761904Y-44023809D01*
X92761904Y-44261904D01*
X92714285Y-44357142D01*
X92666666Y-44404761D01*
X92571428Y-44452380D01*
X92285714Y-44452380D01*
X92190476Y-44404761D01*
X92142857Y-44357142D01*
%TO.C,R24*%
X90857142Y-47202380D02*
X90523809Y-46726190D01*
X90285714Y-47202380D02*
X90285714Y-46202380D01*
X90666666Y-46202380D01*
X90761904Y-46250000D01*
X90809523Y-46297619D01*
X90857142Y-46392857D01*
X90857142Y-46535714D01*
X90809523Y-46630952D01*
X90761904Y-46678571D01*
X90666666Y-46726190D01*
X90285714Y-46726190D01*
X91238095Y-46297619D02*
X91285714Y-46250000D01*
X91380952Y-46202380D01*
X91619047Y-46202380D01*
X91714285Y-46250000D01*
X91761904Y-46297619D01*
X91809523Y-46392857D01*
X91809523Y-46488095D01*
X91761904Y-46630952D01*
X91190476Y-47202380D01*
X91809523Y-47202380D01*
X92666666Y-46535714D02*
X92666666Y-47202380D01*
X92428571Y-46154761D02*
X92190476Y-46869047D01*
X92809523Y-46869047D01*
%TO.C,R25*%
X90857142Y-49702380D02*
X90523809Y-49226190D01*
X90285714Y-49702380D02*
X90285714Y-48702380D01*
X90666666Y-48702380D01*
X90761904Y-48750000D01*
X90809523Y-48797619D01*
X90857142Y-48892857D01*
X90857142Y-49035714D01*
X90809523Y-49130952D01*
X90761904Y-49178571D01*
X90666666Y-49226190D01*
X90285714Y-49226190D01*
X91238095Y-48797619D02*
X91285714Y-48750000D01*
X91380952Y-48702380D01*
X91619047Y-48702380D01*
X91714285Y-48750000D01*
X91761904Y-48797619D01*
X91809523Y-48892857D01*
X91809523Y-48988095D01*
X91761904Y-49130952D01*
X91190476Y-49702380D01*
X91809523Y-49702380D01*
X92714285Y-48702380D02*
X92238095Y-48702380D01*
X92190476Y-49178571D01*
X92238095Y-49130952D01*
X92333333Y-49083333D01*
X92571428Y-49083333D01*
X92666666Y-49130952D01*
X92714285Y-49178571D01*
X92761904Y-49273809D01*
X92761904Y-49511904D01*
X92714285Y-49607142D01*
X92666666Y-49654761D01*
X92571428Y-49702380D01*
X92333333Y-49702380D01*
X92238095Y-49654761D01*
X92190476Y-49607142D01*
%TO.C,R26*%
X90857142Y-52202380D02*
X90523809Y-51726190D01*
X90285714Y-52202380D02*
X90285714Y-51202380D01*
X90666666Y-51202380D01*
X90761904Y-51250000D01*
X90809523Y-51297619D01*
X90857142Y-51392857D01*
X90857142Y-51535714D01*
X90809523Y-51630952D01*
X90761904Y-51678571D01*
X90666666Y-51726190D01*
X90285714Y-51726190D01*
X91238095Y-51297619D02*
X91285714Y-51250000D01*
X91380952Y-51202380D01*
X91619047Y-51202380D01*
X91714285Y-51250000D01*
X91761904Y-51297619D01*
X91809523Y-51392857D01*
X91809523Y-51488095D01*
X91761904Y-51630952D01*
X91190476Y-52202380D01*
X91809523Y-52202380D01*
X92666666Y-51202380D02*
X92476190Y-51202380D01*
X92380952Y-51250000D01*
X92333333Y-51297619D01*
X92238095Y-51440476D01*
X92190476Y-51630952D01*
X92190476Y-52011904D01*
X92238095Y-52107142D01*
X92285714Y-52154761D01*
X92380952Y-52202380D01*
X92571428Y-52202380D01*
X92666666Y-52154761D01*
X92714285Y-52107142D01*
X92761904Y-52011904D01*
X92761904Y-51773809D01*
X92714285Y-51678571D01*
X92666666Y-51630952D01*
X92571428Y-51583333D01*
X92380952Y-51583333D01*
X92285714Y-51630952D01*
X92238095Y-51678571D01*
X92190476Y-51773809D01*
%TO.C,SW1*%
X81276666Y-56874761D02*
X81419523Y-56922380D01*
X81657619Y-56922380D01*
X81752857Y-56874761D01*
X81800476Y-56827142D01*
X81848095Y-56731904D01*
X81848095Y-56636666D01*
X81800476Y-56541428D01*
X81752857Y-56493809D01*
X81657619Y-56446190D01*
X81467142Y-56398571D01*
X81371904Y-56350952D01*
X81324285Y-56303333D01*
X81276666Y-56208095D01*
X81276666Y-56112857D01*
X81324285Y-56017619D01*
X81371904Y-55970000D01*
X81467142Y-55922380D01*
X81705238Y-55922380D01*
X81848095Y-55970000D01*
X82181428Y-55922380D02*
X82419523Y-56922380D01*
X82610000Y-56208095D01*
X82800476Y-56922380D01*
X83038571Y-55922380D01*
X83943333Y-56922380D02*
X83371904Y-56922380D01*
X83657619Y-56922380D02*
X83657619Y-55922380D01*
X83562380Y-56065238D01*
X83467142Y-56160476D01*
X83371904Y-56208095D01*
%TO.C,SW2*%
X80826666Y-32074761D02*
X80969523Y-32122380D01*
X81207619Y-32122380D01*
X81302857Y-32074761D01*
X81350476Y-32027142D01*
X81398095Y-31931904D01*
X81398095Y-31836666D01*
X81350476Y-31741428D01*
X81302857Y-31693809D01*
X81207619Y-31646190D01*
X81017142Y-31598571D01*
X80921904Y-31550952D01*
X80874285Y-31503333D01*
X80826666Y-31408095D01*
X80826666Y-31312857D01*
X80874285Y-31217619D01*
X80921904Y-31170000D01*
X81017142Y-31122380D01*
X81255238Y-31122380D01*
X81398095Y-31170000D01*
X81731428Y-31122380D02*
X81969523Y-32122380D01*
X82160000Y-31408095D01*
X82350476Y-32122380D01*
X82588571Y-31122380D01*
X82921904Y-31217619D02*
X82969523Y-31170000D01*
X83064761Y-31122380D01*
X83302857Y-31122380D01*
X83398095Y-31170000D01*
X83445714Y-31217619D01*
X83493333Y-31312857D01*
X83493333Y-31408095D01*
X83445714Y-31550952D01*
X82874285Y-32122380D01*
X83493333Y-32122380D01*
%TO.C,C1*%
X74357142Y-36166666D02*
X74404761Y-36214285D01*
X74452380Y-36357142D01*
X74452380Y-36452380D01*
X74404761Y-36595238D01*
X74309523Y-36690476D01*
X74214285Y-36738095D01*
X74023809Y-36785714D01*
X73880952Y-36785714D01*
X73690476Y-36738095D01*
X73595238Y-36690476D01*
X73500000Y-36595238D01*
X73452380Y-36452380D01*
X73452380Y-36357142D01*
X73500000Y-36214285D01*
X73547619Y-36166666D01*
X74452380Y-35214285D02*
X74452380Y-35785714D01*
X74452380Y-35500000D02*
X73452380Y-35500000D01*
X73595238Y-35595238D01*
X73690476Y-35690476D01*
X73738095Y-35785714D01*
%TO.C,C9*%
X100583333Y-39107142D02*
X100535714Y-39154761D01*
X100392857Y-39202380D01*
X100297619Y-39202380D01*
X100154761Y-39154761D01*
X100059523Y-39059523D01*
X100011904Y-38964285D01*
X99964285Y-38773809D01*
X99964285Y-38630952D01*
X100011904Y-38440476D01*
X100059523Y-38345238D01*
X100154761Y-38250000D01*
X100297619Y-38202380D01*
X100392857Y-38202380D01*
X100535714Y-38250000D01*
X100583333Y-38297619D01*
X101059523Y-39202380D02*
X101250000Y-39202380D01*
X101345238Y-39154761D01*
X101392857Y-39107142D01*
X101488095Y-38964285D01*
X101535714Y-38773809D01*
X101535714Y-38392857D01*
X101488095Y-38297619D01*
X101440476Y-38250000D01*
X101345238Y-38202380D01*
X101154761Y-38202380D01*
X101059523Y-38250000D01*
X101011904Y-38297619D01*
X100964285Y-38392857D01*
X100964285Y-38630952D01*
X101011904Y-38726190D01*
X101059523Y-38773809D01*
X101154761Y-38821428D01*
X101345238Y-38821428D01*
X101440476Y-38773809D01*
X101488095Y-38726190D01*
X101535714Y-38630952D01*
%TO.C,C3*%
X115583333Y-50957142D02*
X115535714Y-51004761D01*
X115392857Y-51052380D01*
X115297619Y-51052380D01*
X115154761Y-51004761D01*
X115059523Y-50909523D01*
X115011904Y-50814285D01*
X114964285Y-50623809D01*
X114964285Y-50480952D01*
X115011904Y-50290476D01*
X115059523Y-50195238D01*
X115154761Y-50100000D01*
X115297619Y-50052380D01*
X115392857Y-50052380D01*
X115535714Y-50100000D01*
X115583333Y-50147619D01*
X115916666Y-50052380D02*
X116535714Y-50052380D01*
X116202380Y-50433333D01*
X116345238Y-50433333D01*
X116440476Y-50480952D01*
X116488095Y-50528571D01*
X116535714Y-50623809D01*
X116535714Y-50861904D01*
X116488095Y-50957142D01*
X116440476Y-51004761D01*
X116345238Y-51052380D01*
X116059523Y-51052380D01*
X115964285Y-51004761D01*
X115916666Y-50957142D01*
%TO.C,R19*%
X91107142Y-59202380D02*
X90773809Y-58726190D01*
X90535714Y-59202380D02*
X90535714Y-58202380D01*
X90916666Y-58202380D01*
X91011904Y-58250000D01*
X91059523Y-58297619D01*
X91107142Y-58392857D01*
X91107142Y-58535714D01*
X91059523Y-58630952D01*
X91011904Y-58678571D01*
X90916666Y-58726190D01*
X90535714Y-58726190D01*
X92059523Y-59202380D02*
X91488095Y-59202380D01*
X91773809Y-59202380D02*
X91773809Y-58202380D01*
X91678571Y-58345238D01*
X91583333Y-58440476D01*
X91488095Y-58488095D01*
X92535714Y-59202380D02*
X92726190Y-59202380D01*
X92821428Y-59154761D01*
X92869047Y-59107142D01*
X92964285Y-58964285D01*
X93011904Y-58773809D01*
X93011904Y-58392857D01*
X92964285Y-58297619D01*
X92916666Y-58250000D01*
X92821428Y-58202380D01*
X92630952Y-58202380D01*
X92535714Y-58250000D01*
X92488095Y-58297619D01*
X92440476Y-58392857D01*
X92440476Y-58630952D01*
X92488095Y-58726190D01*
X92535714Y-58773809D01*
X92630952Y-58821428D01*
X92821428Y-58821428D01*
X92916666Y-58773809D01*
X92964285Y-58726190D01*
X93011904Y-58630952D01*
%TO.C,R27*%
X90897142Y-34452380D02*
X90563809Y-33976190D01*
X90325714Y-34452380D02*
X90325714Y-33452380D01*
X90706666Y-33452380D01*
X90801904Y-33500000D01*
X90849523Y-33547619D01*
X90897142Y-33642857D01*
X90897142Y-33785714D01*
X90849523Y-33880952D01*
X90801904Y-33928571D01*
X90706666Y-33976190D01*
X90325714Y-33976190D01*
X91278095Y-33547619D02*
X91325714Y-33500000D01*
X91420952Y-33452380D01*
X91659047Y-33452380D01*
X91754285Y-33500000D01*
X91801904Y-33547619D01*
X91849523Y-33642857D01*
X91849523Y-33738095D01*
X91801904Y-33880952D01*
X91230476Y-34452380D01*
X91849523Y-34452380D01*
X92182857Y-33452380D02*
X92849523Y-33452380D01*
X92420952Y-34452380D01*
%TO.C,U1*%
X63122380Y-56071904D02*
X63931904Y-56071904D01*
X64027142Y-56024285D01*
X64074761Y-55976666D01*
X64122380Y-55881428D01*
X64122380Y-55690952D01*
X64074761Y-55595714D01*
X64027142Y-55548095D01*
X63931904Y-55500476D01*
X63122380Y-55500476D01*
X64122380Y-54500476D02*
X64122380Y-55071904D01*
X64122380Y-54786190D02*
X63122380Y-54786190D01*
X63265238Y-54881428D01*
X63360476Y-54976666D01*
X63408095Y-55071904D01*
%TD*%
M02*
