M48
; DRILL file {KiCad 7.0.1-3b83917a11~172~ubuntu22.04.1} date to. 30. mars 2023 kl. 15.08 +0200
; FORMAT={-:-/ absolute / metric / decimal}
; #@! TF.CreationDate,2023-03-30T15:08:57+02:00
; #@! TF.GenerationSoftware,Kicad,Pcbnew,7.0.1-3b83917a11~172~ubuntu22.04.1
; #@! TF.FileFunction,Plated,1,2,PTH
FMAT,2
METRIC
; #@! TA.AperFunction,Plated,PTH,ViaDrill
T1C0.400
; #@! TA.AperFunction,Plated,PTH,ComponentDrill
T2C0.700
; #@! TA.AperFunction,Plated,PTH,ComponentDrill
T3C0.800
; #@! TA.AperFunction,Plated,PTH,ComponentDrill
T4C1.000
; #@! TA.AperFunction,Plated,PTH,ComponentDrill
T5C2.200
%
G90
G05
T1
X55.5Y-46.0
X57.0Y-63.5
X57.5Y-50.0
X57.5Y-59.0
X63.5Y-49.5
X67.5Y-49.0
X71.5Y-55.5
X73.0Y-62.0
X78.5Y-61.0
X79.0Y-54.0
X80.5Y-43.0
X81.0Y-36.5
T2
X47.0Y-33.5
X47.0Y-38.58
X47.0Y-72.0
X47.0Y-77.08
X53.0Y-33.58
X53.0Y-38.66
X53.0Y-72.0
X53.0Y-77.08
X68.92Y-47.0
X68.92Y-64.0
X74.0Y-47.0
X74.0Y-64.0
X106.75Y-71.0
X106.75Y-76.08
X108.0Y-34.0
X108.0Y-39.08
X109.42Y-41.5
X109.67Y-68.75
X114.5Y-41.5
X114.75Y-68.75
X125.0Y-52.42
X125.0Y-57.5
T3
X47.0Y-42.0
X47.0Y-49.62
X47.0Y-60.88
X47.0Y-68.5
X53.0Y-42.0
X53.0Y-49.62
X53.0Y-61.0
X53.0Y-68.62
X55.5Y-54.0
X55.5Y-56.5
X60.5Y-46.0
X60.5Y-48.0
X60.5Y-62.5
X60.5Y-64.5
X66.0Y-51.5
X66.0Y-59.12
X68.54Y-51.5
X68.54Y-59.12
X71.08Y-51.5
X71.08Y-59.12
X73.62Y-51.5
X73.62Y-59.12
X74.0Y-33.5
X74.0Y-38.5
X99.5Y-63.0
X99.5Y-73.5
X100.0Y-45.0
X102.0Y-45.0
X102.0Y-63.0
X102.0Y-73.5
X114.5Y-34.5
X114.5Y-37.0
X114.75Y-72.5
X114.75Y-75.0
X121.0Y-51.25
X121.0Y-58.87
T4
X85.34Y-54.0
X85.34Y-56.5
X87.0Y-54.0
X87.0Y-56.5
X88.66Y-54.0
X88.66Y-56.5
T5
X38.25Y-41.75
X38.5Y-55.0
X39.0Y-35.0
X39.0Y-69.0
X39.0Y-76.0
X130.25Y-45.75
X130.25Y-54.75
X130.25Y-63.75
X131.0Y-35.0
X131.0Y-76.0
T0
M30
