%TF.GenerationSoftware,KiCad,Pcbnew,7.0.1-3b83917a11~172~ubuntu22.04.1*%
%TF.CreationDate,2023-03-30T15:08:59+02:00*%
%TF.ProjectId,tht-dip,7468742d-6469-4702-9e6b-696361645f70,rev?*%
%TF.SameCoordinates,Original*%
%TF.FileFunction,Copper,L2,Bot*%
%TF.FilePolarity,Positive*%
%FSLAX46Y46*%
G04 Gerber Fmt 4.6, Leading zero omitted, Abs format (unit mm)*
G04 Created by KiCad (PCBNEW 7.0.1-3b83917a11~172~ubuntu22.04.1) date 2023-03-30 15:08:59*
%MOMM*%
%LPD*%
G01*
G04 APERTURE LIST*
%TA.AperFunction,ComponentPad*%
%ADD10C,1.600000*%
%TD*%
%TA.AperFunction,ComponentPad*%
%ADD11R,1.600000X1.600000*%
%TD*%
%TA.AperFunction,ComponentPad*%
%ADD12O,1.600000X1.600000*%
%TD*%
%TA.AperFunction,ComponentPad*%
%ADD13C,3.500000*%
%TD*%
%TA.AperFunction,ComponentPad*%
%ADD14C,1.400000*%
%TD*%
%TA.AperFunction,ComponentPad*%
%ADD15O,1.400000X1.400000*%
%TD*%
%TA.AperFunction,ComponentPad*%
%ADD16C,1.500000*%
%TD*%
%TA.AperFunction,ViaPad*%
%ADD17C,0.800000*%
%TD*%
%TA.AperFunction,Conductor*%
%ADD18C,0.800000*%
%TD*%
G04 APERTURE END LIST*
D10*
%TO.P,C3,1*%
%TO.N,VCC*%
X99500000Y-73500000D03*
%TO.P,C3,2*%
%TO.N,V-*%
X102000000Y-73500000D03*
%TD*%
%TO.P,C5,1*%
%TO.N,/2*%
X114500000Y-37000000D03*
%TO.P,C5,2*%
%TO.N,Net-(C5-Pad2)*%
X114500000Y-34500000D03*
%TD*%
%TO.P,C6,1*%
%TO.N,/3*%
X114750000Y-75000000D03*
%TO.P,C6,2*%
%TO.N,Net-(C6-Pad2)*%
X114750000Y-72500000D03*
%TD*%
D11*
%TO.P,C7,1*%
%TO.N,V-*%
X60500000Y-48000000D03*
D10*
%TO.P,C7,2*%
%TO.N,Net-(C7-Pad2)*%
X60500000Y-46000000D03*
%TD*%
%TO.P,C8,1*%
%TO.N,Net-(C8-Pad1)*%
X55500000Y-56500000D03*
%TO.P,C8,2*%
%TO.N,V-*%
X55500000Y-54000000D03*
%TD*%
D11*
%TO.P,C9,1*%
%TO.N,V-*%
X60500000Y-62500000D03*
D10*
%TO.P,C9,2*%
%TO.N,Net-(C9-Pad2)*%
X60500000Y-64500000D03*
%TD*%
D11*
%TO.P,D1,1,K*%
%TO.N,Net-(D1-K)*%
X121000000Y-51250000D03*
D12*
%TO.P,D1,2,A*%
%TO.N,V-*%
X121000000Y-58870000D03*
%TD*%
D11*
%TO.P,D2,1,K*%
%TO.N,VCC*%
X47000000Y-42000000D03*
D12*
%TO.P,D2,2,A*%
%TO.N,ind*%
X47000000Y-49620000D03*
%TD*%
D11*
%TO.P,D3,1,K*%
%TO.N,ind*%
X47000000Y-60880000D03*
D12*
%TO.P,D3,2,A*%
%TO.N,V-*%
X47000000Y-68500000D03*
%TD*%
D11*
%TO.P,D4,1,K*%
%TO.N,VCC*%
X53000000Y-42000000D03*
D12*
%TO.P,D4,2,A*%
%TO.N,Net-(D4-A)*%
X53000000Y-49620000D03*
%TD*%
D11*
%TO.P,D5,1,K*%
%TO.N,Net-(D4-A)*%
X53000000Y-61000000D03*
D12*
%TO.P,D5,2,A*%
%TO.N,V-*%
X53000000Y-68620000D03*
%TD*%
D13*
%TO.P,J1,1,Pin_1*%
%TO.N,/2*%
X130250000Y-45750000D03*
%TD*%
%TO.P,J2,1,Pin_1*%
%TO.N,/3*%
X130250000Y-54750000D03*
%TD*%
%TO.P,J3,1,Pin_1*%
%TO.N,ind*%
X38250000Y-41750000D03*
%TD*%
%TO.P,J4,1,Pin_1*%
%TO.N,Net-(D4-A)*%
X39000000Y-69000000D03*
%TD*%
%TO.P,J5,1,Pin_1*%
%TO.N,V-*%
X130250000Y-63750000D03*
%TD*%
%TO.P,J6,1,Pin_1*%
%TO.N,V-*%
X38500000Y-55000000D03*
%TD*%
%TO.P,J7,1,Pin_1*%
%TO.N,Earth*%
X39000000Y-35000000D03*
%TD*%
%TO.P,J8,1,Pin_1*%
%TO.N,Earth*%
X39000000Y-76000000D03*
%TD*%
%TO.P,J9,1,Pin_1*%
%TO.N,Earth*%
X131000000Y-35000000D03*
%TD*%
%TO.P,J10,1,Pin_1*%
%TO.N,Earth*%
X131000000Y-76000000D03*
%TD*%
D14*
%TO.P,R1,1*%
%TO.N,Net-(D1-K)*%
X106750000Y-71000000D03*
D15*
%TO.P,R1,2*%
%TO.N,VCC*%
X106750000Y-76080000D03*
%TD*%
D14*
%TO.P,R2,1*%
%TO.N,VCC*%
X53000000Y-33580000D03*
D15*
%TO.P,R2,2*%
%TO.N,Net-(C8-Pad1)*%
X53000000Y-38660000D03*
%TD*%
D14*
%TO.P,R3,1*%
%TO.N,Net-(C8-Pad1)*%
X47000000Y-38580000D03*
D15*
%TO.P,R3,2*%
%TO.N,ind*%
X47000000Y-33500000D03*
%TD*%
D14*
%TO.P,R4,1*%
%TO.N,Net-(C8-Pad1)*%
X47000000Y-72000000D03*
D15*
%TO.P,R4,2*%
%TO.N,Net-(D4-A)*%
X47000000Y-77080000D03*
%TD*%
D14*
%TO.P,R5,1*%
%TO.N,Net-(D1-K)*%
X114500000Y-41500000D03*
D15*
%TO.P,R5,2*%
%TO.N,/2*%
X109420000Y-41500000D03*
%TD*%
D14*
%TO.P,R6,1*%
%TO.N,Net-(D1-K)*%
X125000000Y-52420000D03*
D15*
%TO.P,R6,2*%
%TO.N,/3*%
X125000000Y-57500000D03*
%TD*%
D14*
%TO.P,R7,1*%
%TO.N,Net-(C5-Pad2)*%
X108000000Y-39080000D03*
D15*
%TO.P,R7,2*%
%TO.N,ResOUT*%
X108000000Y-34000000D03*
%TD*%
D14*
%TO.P,R8,1*%
%TO.N,Net-(C6-Pad2)*%
X114750000Y-68750000D03*
D15*
%TO.P,R8,2*%
%TO.N,ResOUT2*%
X109670000Y-68750000D03*
%TD*%
D14*
%TO.P,R9,1*%
%TO.N,Net-(C7-Pad2)*%
X68920000Y-47000000D03*
D15*
%TO.P,R9,2*%
%TO.N,ResIN*%
X74000000Y-47000000D03*
%TD*%
D14*
%TO.P,R10,1*%
%TO.N,Net-(C8-Pad1)*%
X53000000Y-72000000D03*
D15*
%TO.P,R10,2*%
%TO.N,V-*%
X53000000Y-77080000D03*
%TD*%
D14*
%TO.P,R11,1*%
%TO.N,Net-(C9-Pad2)*%
X68920000Y-64000000D03*
D15*
%TO.P,R11,2*%
%TO.N,ResIN1*%
X74000000Y-64000000D03*
%TD*%
D10*
%TO.P,C2,1*%
%TO.N,VCC*%
X74000000Y-38500000D03*
%TO.P,C2,2*%
%TO.N,V-*%
X74000000Y-33500000D03*
%TD*%
D11*
%TO.P,C1,1*%
%TO.N,V-*%
X100000000Y-45000000D03*
D10*
%TO.P,C1,2*%
%TO.N,VCC*%
X102000000Y-45000000D03*
%TD*%
D11*
%TO.P,C4,1*%
%TO.N,VCC*%
X99500000Y-63000000D03*
D10*
%TO.P,C4,2*%
%TO.N,V-*%
X102000000Y-63000000D03*
%TD*%
D11*
%TO.P,U1,1*%
%TO.N,ResOUT*%
X66000000Y-59120000D03*
D12*
%TO.P,U1,2,-*%
%TO.N,ResIN*%
X68540000Y-59120000D03*
%TO.P,U1,3,+*%
%TO.N,Net-(D4-A)*%
X71080000Y-59120000D03*
%TO.P,U1,4,V-*%
%TO.N,V-*%
X73620000Y-59120000D03*
%TO.P,U1,5,+*%
%TO.N,ind*%
X73620000Y-51500000D03*
%TO.P,U1,6,-*%
%TO.N,ResIN1*%
X71080000Y-51500000D03*
%TO.P,U1,7*%
%TO.N,ResOUT2*%
X68540000Y-51500000D03*
%TO.P,U1,8,V+*%
%TO.N,VCC*%
X66000000Y-51500000D03*
%TD*%
D16*
%TO.P,RV1,1,1*%
%TO.N,ResIN*%
X88660000Y-56500000D03*
%TO.P,RV1,2,2*%
%TO.N,ResOUT*%
X87000000Y-56500000D03*
%TO.P,RV1,3,3*%
%TO.N,unconnected-(RV1-Pad3)*%
X85340000Y-56500000D03*
%TO.P,RV1,4,4*%
%TO.N,ResIN1*%
X88660000Y-54000000D03*
%TO.P,RV1,5,5*%
%TO.N,ResOUT2*%
X87000000Y-54000000D03*
%TO.P,RV1,6,6*%
%TO.N,unconnected-(RV1-Pad6)*%
X85340000Y-54000000D03*
%TD*%
D17*
%TO.N,Earth*%
X63500000Y-49500000D03*
X71500000Y-55500000D03*
X57000000Y-63500000D03*
X81000000Y-36500000D03*
X78500000Y-61000000D03*
X73000000Y-62000000D03*
X80500000Y-43000000D03*
X57500000Y-50000000D03*
X79000000Y-54000000D03*
X55500000Y-46000000D03*
X67500000Y-49000000D03*
X57500000Y-59000000D03*
%TD*%
D18*
%TO.N,V-*%
X38500000Y-58400000D02*
X38500000Y-55000000D01*
X60500000Y-59000000D02*
X55500000Y-54000000D01*
X100000000Y-45000000D02*
X98400000Y-45000000D01*
X53000000Y-73881300D02*
X52989900Y-73871100D01*
X47000000Y-66900000D02*
X38500000Y-58400000D01*
X53000000Y-68620000D02*
X53000000Y-70220000D01*
X52989900Y-73871100D02*
X56723200Y-70137800D01*
X52989900Y-73871100D02*
X51666600Y-72547900D01*
X127480000Y-63750000D02*
X122600000Y-58870000D01*
X53000000Y-76330000D02*
X53000000Y-73881300D01*
X51666600Y-71420000D02*
X52866600Y-70220000D01*
X74000000Y-34500000D02*
X60500000Y-48000000D01*
X60500000Y-62500000D02*
X60500000Y-59000000D01*
X52866600Y-70220000D02*
X53000000Y-70220000D01*
X130250000Y-63750000D02*
X127480000Y-63750000D01*
X74000000Y-33500000D02*
X74000000Y-34500000D01*
X87900000Y-34500000D02*
X74000000Y-34500000D01*
X51666600Y-72547900D02*
X51666600Y-71420000D01*
X47000000Y-68500000D02*
X47000000Y-66900000D01*
X98400000Y-45000000D02*
X87900000Y-34500000D01*
X121000000Y-58870000D02*
X122600000Y-58870000D01*
X53000000Y-77080000D02*
X53000000Y-76330000D01*
X56723200Y-66276800D02*
X60500000Y-62500000D01*
X56723200Y-70137800D02*
X56723200Y-66276800D01*
%TO.N,VCC*%
X102080000Y-76080000D02*
X99500000Y-73500000D01*
X53000000Y-33580000D02*
X54342500Y-34922500D01*
X102000000Y-45000000D02*
X102000000Y-58900000D01*
X61200000Y-51500000D02*
X58500000Y-48800000D01*
X74000000Y-38500000D02*
X66000000Y-46500000D01*
X102000000Y-58900000D02*
X99500000Y-61400000D01*
X106750000Y-76080000D02*
X102080000Y-76080000D01*
X99500000Y-63000000D02*
X99500000Y-61400000D01*
X66000000Y-51500000D02*
X61200000Y-51500000D01*
X58500000Y-48800000D02*
X58500000Y-43500000D01*
X54342500Y-40657500D02*
X53000000Y-42000000D01*
X54342500Y-34922500D02*
X54342500Y-40657500D01*
X57000000Y-42000000D02*
X53000000Y-42000000D01*
X58500000Y-43500000D02*
X57000000Y-42000000D01*
X66000000Y-46500000D02*
X66000000Y-51500000D01*
%TO.N,/2*%
X130250000Y-45750000D02*
X121500000Y-37000000D01*
X121500000Y-37000000D02*
X114500000Y-37000000D01*
%TO.N,/3*%
X125000000Y-57500000D02*
X127500000Y-57500000D01*
X123500000Y-57500000D02*
X123433000Y-57433000D01*
X120448400Y-57433000D02*
X117698700Y-60182700D01*
X123433000Y-57433000D02*
X120448400Y-57433000D01*
X127500000Y-57500000D02*
X130250000Y-54750000D01*
X117698700Y-72051300D02*
X114750000Y-75000000D01*
X125000000Y-57500000D02*
X123500000Y-57500000D01*
X117698700Y-60182700D02*
X117698700Y-72051300D01*
%TO.N,Net-(C6-Pad2)*%
X114750000Y-68750000D02*
X114750000Y-72500000D01*
%TO.N,Net-(C8-Pad1)*%
X53000000Y-40160000D02*
X52329000Y-40160000D01*
X53000000Y-72000000D02*
X55500000Y-69500000D01*
X51579200Y-52579200D02*
X55500000Y-56500000D01*
X51579200Y-40909800D02*
X51579200Y-52579200D01*
X55500000Y-69500000D02*
X55500000Y-56500000D01*
X52329000Y-40160000D02*
X51579200Y-40909800D01*
X53000000Y-38660000D02*
X53000000Y-40160000D01*
%TO.N,Net-(D1-K)*%
X110660000Y-71090900D02*
X112376700Y-69374200D01*
X121000000Y-48000000D02*
X121000000Y-51250000D01*
X114500000Y-41500000D02*
X121000000Y-48000000D01*
X106750000Y-71000000D02*
X106840900Y-71090900D01*
X121000000Y-51250000D02*
X121000000Y-52850000D01*
X112376700Y-61473300D02*
X121000000Y-52850000D01*
X106840900Y-71090900D02*
X110660000Y-71090900D01*
X112376700Y-69374200D02*
X112376700Y-61473300D01*
%TO.N,ind*%
X47000000Y-60880000D02*
X47000000Y-49620000D01*
X47000000Y-49620000D02*
X47000000Y-48020000D01*
X45500000Y-33500000D02*
X45500000Y-34500000D01*
X39490000Y-40510000D02*
X38250000Y-41750000D01*
X45500000Y-34500000D02*
X39490000Y-40510000D01*
X47000000Y-33500000D02*
X45500000Y-33500000D01*
X39490000Y-40510000D02*
X47000000Y-48020000D01*
%TO.N,Net-(D4-A)*%
X45580000Y-75580000D02*
X39000000Y-69000000D01*
X53000000Y-61000000D02*
X53000000Y-62600000D01*
X53000000Y-49620000D02*
X54600000Y-49620000D01*
X47000000Y-75580000D02*
X45580000Y-75580000D01*
X47000000Y-76330000D02*
X47000000Y-75580000D01*
X64559600Y-52599600D02*
X57865200Y-52599600D01*
X47000000Y-77080000D02*
X47000000Y-76330000D01*
X50060000Y-73270000D02*
X50060000Y-65540000D01*
X50060000Y-65540000D02*
X53000000Y-62600000D01*
X71080000Y-59120000D02*
X64559600Y-52599600D01*
X47000000Y-76330000D02*
X50060000Y-73270000D01*
X54885600Y-49620000D02*
X54600000Y-49620000D01*
X57865200Y-52599600D02*
X54885600Y-49620000D01*
%TO.N,ResOUT*%
X87000000Y-56500000D02*
X87000000Y-56751000D01*
X111010900Y-38510900D02*
X108000000Y-35500000D01*
X66000000Y-59120000D02*
X72210000Y-65330000D01*
X110201300Y-70066800D02*
X111010900Y-69257200D01*
X105467100Y-66800700D02*
X108733200Y-70066800D01*
X108733200Y-70066800D02*
X110201300Y-70066800D01*
X90350000Y-57850000D02*
X99300700Y-66800700D01*
X88099000Y-57850000D02*
X90350000Y-57850000D01*
X87000000Y-56751000D02*
X88099000Y-57850000D01*
X111010900Y-69257200D02*
X111010900Y-38510900D01*
X108000000Y-35500000D02*
X108000000Y-34000000D01*
X72210000Y-65330000D02*
X78421000Y-65330000D01*
X78421000Y-65330000D02*
X87000000Y-56751000D01*
X99300700Y-66800700D02*
X105467100Y-66800700D01*
%TO.N,ResOUT2*%
X106420000Y-65500000D02*
X99494200Y-65500000D01*
X99494200Y-65500000D02*
X90023700Y-56029500D01*
X90023700Y-56029500D02*
X90023700Y-53439700D01*
X88044400Y-52641400D02*
X87000000Y-53685800D01*
X89225400Y-52641400D02*
X88044400Y-52641400D01*
X83387300Y-50066700D02*
X87000000Y-53679400D01*
X90023700Y-53439700D02*
X89225400Y-52641400D01*
X87000000Y-53685800D02*
X87000000Y-54000000D01*
X109670000Y-68750000D02*
X106420000Y-65500000D01*
X68540000Y-51500000D02*
X69973300Y-50066700D01*
X69973300Y-50066700D02*
X83387300Y-50066700D01*
X87000000Y-53679400D02*
X87000000Y-54000000D01*
%TO.N,ResIN1*%
X71080000Y-51500000D02*
X71080000Y-53100000D01*
X75060700Y-57080700D02*
X75060700Y-61439300D01*
X71080000Y-53100000D02*
X75060700Y-57080700D01*
X75060700Y-61439300D02*
X74000000Y-62500000D01*
X74000000Y-64000000D02*
X74000000Y-62500000D01*
%TD*%
%TA.AperFunction,Conductor*%
%TO.N,Earth*%
G36*
X56979502Y-56764315D02*
G01*
X59554595Y-59339408D01*
X59581909Y-59380285D01*
X59591500Y-59428503D01*
X59591500Y-61110266D01*
X59581327Y-61159866D01*
X59552450Y-61201456D01*
X59509533Y-61228322D01*
X59453793Y-61249111D01*
X59336738Y-61336738D01*
X59249111Y-61453794D01*
X59198011Y-61590799D01*
X59191500Y-61651362D01*
X59191500Y-62471497D01*
X59181909Y-62519715D01*
X59154595Y-62560592D01*
X56623595Y-65091592D01*
X56573436Y-65122330D01*
X56514789Y-65126946D01*
X56460439Y-65104433D01*
X56422233Y-65059700D01*
X56408500Y-65002497D01*
X56408500Y-57494188D01*
X56418091Y-57445969D01*
X56445402Y-57405095D01*
X56506198Y-57344300D01*
X56637523Y-57156749D01*
X56734284Y-56949243D01*
X56768701Y-56820796D01*
X56801311Y-56764315D01*
X56857796Y-56731703D01*
X56923018Y-56731703D01*
X56979502Y-56764315D01*
G37*
%TD.AperFunction*%
%TA.AperFunction,Conductor*%
G36*
X83007015Y-50984791D02*
G01*
X83047892Y-51012105D01*
X84740269Y-52704482D01*
X84771340Y-52755682D01*
X84775262Y-52815445D01*
X84751148Y-52870266D01*
X84716372Y-52898185D01*
X84717377Y-52899621D01*
X84527958Y-53032253D01*
X84372253Y-53187958D01*
X84245943Y-53368347D01*
X84152879Y-53567925D01*
X84095885Y-53780624D01*
X84076693Y-54000000D01*
X84095885Y-54219375D01*
X84152879Y-54432074D01*
X84245943Y-54631653D01*
X84372253Y-54812041D01*
X84527958Y-54967746D01*
X84527961Y-54967748D01*
X84527962Y-54967749D01*
X84574021Y-55000000D01*
X84708346Y-55094056D01*
X84797878Y-55135805D01*
X84850896Y-55182300D01*
X84870629Y-55250000D01*
X84850896Y-55317700D01*
X84797879Y-55364194D01*
X84774474Y-55375108D01*
X84708345Y-55405944D01*
X84527958Y-55532253D01*
X84372253Y-55687958D01*
X84245943Y-55868347D01*
X84152879Y-56067925D01*
X84095885Y-56280624D01*
X84076693Y-56499999D01*
X84095885Y-56719375D01*
X84152879Y-56932074D01*
X84245943Y-57131653D01*
X84372253Y-57312041D01*
X84527958Y-57467746D01*
X84527961Y-57467748D01*
X84527962Y-57467749D01*
X84681676Y-57575381D01*
X84718522Y-57615592D01*
X84734924Y-57667610D01*
X84727804Y-57721687D01*
X84698498Y-57767687D01*
X78081592Y-64384595D01*
X78040715Y-64411909D01*
X77992497Y-64421500D01*
X75302397Y-64421500D01*
X75246669Y-64408506D01*
X75202435Y-64372204D01*
X75178818Y-64320082D01*
X75180690Y-64262889D01*
X75183905Y-64250889D01*
X75194686Y-64210655D01*
X75213116Y-64000000D01*
X75194686Y-63789345D01*
X75139956Y-63585090D01*
X75050589Y-63393442D01*
X74931285Y-63223058D01*
X74914332Y-63188679D01*
X74908500Y-63150790D01*
X74908500Y-62928504D01*
X74918091Y-62880286D01*
X74945404Y-62839409D01*
X75119313Y-62665500D01*
X75645542Y-62139269D01*
X75660571Y-62126434D01*
X75671953Y-62118166D01*
X75717726Y-62067328D01*
X75722229Y-62062582D01*
X75736772Y-62048041D01*
X75749708Y-62032065D01*
X75753978Y-62027068D01*
X75799739Y-61976245D01*
X75806772Y-61964064D01*
X75817972Y-61947767D01*
X75826829Y-61936830D01*
X75857882Y-61875881D01*
X75861021Y-61870099D01*
X75895227Y-61810856D01*
X75899578Y-61797462D01*
X75907139Y-61779210D01*
X75913529Y-61766670D01*
X75931232Y-61700598D01*
X75933093Y-61694314D01*
X75954242Y-61629228D01*
X75955712Y-61615237D01*
X75959314Y-61595795D01*
X75962957Y-61582204D01*
X75966536Y-61513894D01*
X75967053Y-61507337D01*
X75969200Y-61486914D01*
X75969200Y-61466375D01*
X75969373Y-61459781D01*
X75970000Y-61447809D01*
X75972952Y-61391491D01*
X75970751Y-61377594D01*
X75969200Y-61357885D01*
X75969200Y-57162116D01*
X75970751Y-57142407D01*
X75970904Y-57141438D01*
X75972952Y-57128510D01*
X75969372Y-57060219D01*
X75969200Y-57053626D01*
X75969200Y-57033095D01*
X75969200Y-57033090D01*
X75967049Y-57012630D01*
X75966536Y-57006106D01*
X75962957Y-56937797D01*
X75959313Y-56924201D01*
X75955712Y-56904763D01*
X75954242Y-56890773D01*
X75951204Y-56881424D01*
X75933105Y-56825721D01*
X75931231Y-56819394D01*
X75924865Y-56795635D01*
X75913530Y-56753330D01*
X75907137Y-56740784D01*
X75899575Y-56722527D01*
X75895227Y-56709144D01*
X75861026Y-56649907D01*
X75857895Y-56644141D01*
X75826829Y-56583170D01*
X75817967Y-56572226D01*
X75806776Y-56555942D01*
X75799740Y-56543756D01*
X75784644Y-56526990D01*
X75753971Y-56492923D01*
X75749691Y-56487912D01*
X75736771Y-56471958D01*
X75736770Y-56471957D01*
X75722238Y-56457425D01*
X75717734Y-56452679D01*
X75671953Y-56401834D01*
X75660564Y-56393559D01*
X75645532Y-56380719D01*
X72025405Y-52760592D01*
X71998091Y-52719715D01*
X71988500Y-52671497D01*
X71988500Y-52494188D01*
X71998091Y-52445969D01*
X72025402Y-52405095D01*
X72086198Y-52344300D01*
X72217523Y-52156749D01*
X72235804Y-52117543D01*
X72282300Y-52064525D01*
X72350000Y-52044792D01*
X72417700Y-52064525D01*
X72464195Y-52117543D01*
X72482476Y-52156748D01*
X72613804Y-52344303D01*
X72775696Y-52506195D01*
X72963249Y-52637522D01*
X73170756Y-52734284D01*
X73211753Y-52745269D01*
X73391913Y-52793543D01*
X73620000Y-52813498D01*
X73848087Y-52793543D01*
X74069243Y-52734284D01*
X74276749Y-52637523D01*
X74464300Y-52506198D01*
X74626198Y-52344300D01*
X74757523Y-52156749D01*
X74854284Y-51949243D01*
X74913543Y-51728087D01*
X74933498Y-51500000D01*
X74913543Y-51271913D01*
X74876537Y-51133809D01*
X74874666Y-51076619D01*
X74898282Y-51024496D01*
X74942517Y-50988194D01*
X74998245Y-50975200D01*
X82958797Y-50975200D01*
X83007015Y-50984791D01*
G37*
%TD.AperFunction*%
%TA.AperFunction,Conductor*%
G36*
X72417700Y-59684525D02*
G01*
X72464195Y-59737543D01*
X72482476Y-59776748D01*
X72613804Y-59964303D01*
X72775696Y-60126195D01*
X72775699Y-60126197D01*
X72775700Y-60126198D01*
X72822430Y-60158919D01*
X72963249Y-60257522D01*
X73170756Y-60354284D01*
X73230015Y-60370162D01*
X73391913Y-60413543D01*
X73620000Y-60433498D01*
X73848087Y-60413543D01*
X73950175Y-60386188D01*
X73993589Y-60374556D01*
X74050782Y-60372684D01*
X74102904Y-60396301D01*
X74139206Y-60440535D01*
X74152200Y-60496263D01*
X74152200Y-61010796D01*
X74142609Y-61059014D01*
X74115295Y-61099892D01*
X73415160Y-61800025D01*
X73400131Y-61812861D01*
X73388746Y-61821133D01*
X73342991Y-61871949D01*
X73338456Y-61876729D01*
X73323927Y-61891259D01*
X73311004Y-61907216D01*
X73306728Y-61912223D01*
X73260957Y-61963059D01*
X73253919Y-61975248D01*
X73242733Y-61991523D01*
X73233870Y-62002469D01*
X73202814Y-62063420D01*
X73199667Y-62069217D01*
X73165471Y-62128445D01*
X73161118Y-62141841D01*
X73153559Y-62160089D01*
X73147172Y-62172626D01*
X73129472Y-62238678D01*
X73127600Y-62244997D01*
X73106457Y-62310072D01*
X73104985Y-62324077D01*
X73101383Y-62343509D01*
X73097742Y-62357095D01*
X73094162Y-62425399D01*
X73093645Y-62431966D01*
X73091500Y-62452385D01*
X73091500Y-62472926D01*
X73091327Y-62479520D01*
X73087748Y-62547809D01*
X73089949Y-62561707D01*
X73091500Y-62581416D01*
X73091500Y-63150790D01*
X73085668Y-63188679D01*
X73068714Y-63223058D01*
X73029638Y-63278865D01*
X72949411Y-63393441D01*
X72860043Y-63585090D01*
X72805314Y-63789344D01*
X72786884Y-64000000D01*
X72805314Y-64210655D01*
X72819310Y-64262889D01*
X72821182Y-64320082D01*
X72797565Y-64372204D01*
X72753331Y-64408506D01*
X72697603Y-64421500D01*
X72638503Y-64421500D01*
X72590285Y-64411909D01*
X72549408Y-64384595D01*
X68772768Y-60607955D01*
X68740156Y-60551471D01*
X68740156Y-60486249D01*
X68772768Y-60429764D01*
X68829249Y-60397154D01*
X68989243Y-60354284D01*
X69196749Y-60257523D01*
X69384300Y-60126198D01*
X69546198Y-59964300D01*
X69677523Y-59776749D01*
X69695804Y-59737543D01*
X69742300Y-59684525D01*
X69810000Y-59664792D01*
X69877700Y-59684525D01*
X69924195Y-59737543D01*
X69942476Y-59776748D01*
X70073804Y-59964303D01*
X70235696Y-60126195D01*
X70235699Y-60126197D01*
X70235700Y-60126198D01*
X70282430Y-60158919D01*
X70423249Y-60257522D01*
X70630756Y-60354284D01*
X70690015Y-60370162D01*
X70851913Y-60413543D01*
X71080000Y-60433498D01*
X71308087Y-60413543D01*
X71529243Y-60354284D01*
X71736749Y-60257523D01*
X71924300Y-60126198D01*
X72086198Y-59964300D01*
X72217523Y-59776749D01*
X72235804Y-59737543D01*
X72282300Y-59684525D01*
X72350000Y-59664792D01*
X72417700Y-59684525D01*
G37*
%TD.AperFunction*%
%TA.AperFunction,Conductor*%
G36*
X87519715Y-35418091D02*
G01*
X87560592Y-35445405D01*
X97700019Y-45584832D01*
X97712859Y-45599864D01*
X97721134Y-45611253D01*
X97771979Y-45657034D01*
X97776725Y-45661538D01*
X97791259Y-45676072D01*
X97791262Y-45676075D01*
X97807205Y-45688985D01*
X97812222Y-45693269D01*
X97863057Y-45739041D01*
X97875231Y-45746069D01*
X97891530Y-45757271D01*
X97902468Y-45766129D01*
X97963414Y-45797181D01*
X97969199Y-45800321D01*
X98028444Y-45834527D01*
X98041828Y-45838875D01*
X98060092Y-45846441D01*
X98065766Y-45849332D01*
X98072630Y-45852829D01*
X98138700Y-45870532D01*
X98145005Y-45872400D01*
X98210072Y-45893542D01*
X98224063Y-45895012D01*
X98243500Y-45898613D01*
X98257096Y-45902257D01*
X98325407Y-45905836D01*
X98331963Y-45906353D01*
X98352386Y-45908500D01*
X98352390Y-45908500D01*
X98372925Y-45908500D01*
X98379518Y-45908672D01*
X98447809Y-45912252D01*
X98460737Y-45910204D01*
X98461706Y-45910051D01*
X98481415Y-45908500D01*
X98610266Y-45908500D01*
X98659866Y-45918673D01*
X98701456Y-45947550D01*
X98728322Y-45990467D01*
X98749111Y-46046206D01*
X98836738Y-46163261D01*
X98953794Y-46250888D01*
X98953795Y-46250888D01*
X98953796Y-46250889D01*
X99090799Y-46301989D01*
X99151362Y-46308500D01*
X100848638Y-46308500D01*
X100909201Y-46301989D01*
X100921470Y-46297412D01*
X100981202Y-46290451D01*
X101037361Y-46311970D01*
X101077148Y-46357067D01*
X101091500Y-46415469D01*
X101091500Y-58471497D01*
X101081909Y-58519715D01*
X101054595Y-58560592D01*
X98915163Y-60700022D01*
X98900134Y-60712860D01*
X98888743Y-60721136D01*
X98842991Y-60771949D01*
X98838456Y-60776729D01*
X98823927Y-60791259D01*
X98811004Y-60807216D01*
X98806728Y-60812223D01*
X98760957Y-60863059D01*
X98753919Y-60875248D01*
X98742733Y-60891523D01*
X98733870Y-60902469D01*
X98702814Y-60963420D01*
X98699667Y-60969217D01*
X98665471Y-61028445D01*
X98661118Y-61041841D01*
X98653559Y-61060089D01*
X98647172Y-61072626D01*
X98629472Y-61138678D01*
X98627600Y-61144997D01*
X98606457Y-61210072D01*
X98604985Y-61224077D01*
X98601383Y-61243509D01*
X98597742Y-61257095D01*
X98594162Y-61325399D01*
X98593645Y-61331966D01*
X98591500Y-61352385D01*
X98591500Y-61372926D01*
X98591327Y-61379520D01*
X98587748Y-61447809D01*
X98589949Y-61461707D01*
X98591500Y-61481416D01*
X98591500Y-61610266D01*
X98581327Y-61659866D01*
X98552450Y-61701456D01*
X98509533Y-61728322D01*
X98453793Y-61749111D01*
X98336738Y-61836738D01*
X98249111Y-61953794D01*
X98198011Y-62090799D01*
X98191500Y-62151362D01*
X98191500Y-62608297D01*
X98177767Y-62665500D01*
X98139561Y-62710233D01*
X98085211Y-62732746D01*
X98026564Y-62728130D01*
X97976405Y-62697392D01*
X90969105Y-55690092D01*
X90941791Y-55649215D01*
X90932200Y-55600997D01*
X90932200Y-53521116D01*
X90933751Y-53501408D01*
X90934827Y-53494612D01*
X90935952Y-53487510D01*
X90932372Y-53419219D01*
X90932200Y-53412626D01*
X90932200Y-53392095D01*
X90932200Y-53392090D01*
X90930049Y-53371630D01*
X90929536Y-53365106D01*
X90925957Y-53296797D01*
X90922313Y-53283201D01*
X90918712Y-53263763D01*
X90918113Y-53258066D01*
X90917242Y-53249772D01*
X90896105Y-53184721D01*
X90894231Y-53178394D01*
X90886509Y-53149573D01*
X90876530Y-53112330D01*
X90870137Y-53099784D01*
X90862575Y-53081527D01*
X90858227Y-53068144D01*
X90824026Y-53008907D01*
X90820895Y-53003141D01*
X90789829Y-52942170D01*
X90780967Y-52931226D01*
X90769776Y-52914942D01*
X90762740Y-52902756D01*
X90733679Y-52870480D01*
X90716971Y-52851923D01*
X90712691Y-52846912D01*
X90699772Y-52830959D01*
X90685238Y-52816425D01*
X90680734Y-52811679D01*
X90634953Y-52760834D01*
X90623564Y-52752559D01*
X90608532Y-52739719D01*
X89925377Y-52056564D01*
X89912535Y-52041529D01*
X89904266Y-52030147D01*
X89853420Y-51984365D01*
X89848669Y-51979856D01*
X89834141Y-51965328D01*
X89818174Y-51952397D01*
X89813176Y-51948128D01*
X89762346Y-51902361D01*
X89758691Y-51900251D01*
X89750157Y-51895323D01*
X89733871Y-51884130D01*
X89722930Y-51875271D01*
X89722929Y-51875270D01*
X89693045Y-51860044D01*
X89661971Y-51844211D01*
X89656206Y-51841081D01*
X89596956Y-51806873D01*
X89596957Y-51806873D01*
X89596953Y-51806871D01*
X89583567Y-51802522D01*
X89565306Y-51794958D01*
X89552770Y-51788571D01*
X89486705Y-51770868D01*
X89480388Y-51768997D01*
X89456935Y-51761376D01*
X89415326Y-51747857D01*
X89401323Y-51746385D01*
X89381893Y-51742784D01*
X89368301Y-51739142D01*
X89300000Y-51735562D01*
X89293431Y-51735045D01*
X89273014Y-51732900D01*
X89273010Y-51732900D01*
X89252474Y-51732900D01*
X89245880Y-51732727D01*
X89177590Y-51729148D01*
X89163693Y-51731349D01*
X89143984Y-51732900D01*
X88125816Y-51732900D01*
X88106108Y-51731349D01*
X88099296Y-51730270D01*
X88092210Y-51729148D01*
X88092209Y-51729148D01*
X88023920Y-51732727D01*
X88017326Y-51732900D01*
X87996785Y-51732900D01*
X87976366Y-51735045D01*
X87969799Y-51735562D01*
X87901495Y-51739142D01*
X87887909Y-51742783D01*
X87868477Y-51746385D01*
X87854474Y-51747857D01*
X87789428Y-51768991D01*
X87783108Y-51770863D01*
X87717027Y-51788570D01*
X87704482Y-51794962D01*
X87686230Y-51802523D01*
X87672844Y-51806873D01*
X87613621Y-51841064D01*
X87607830Y-51844208D01*
X87546869Y-51875271D01*
X87535924Y-51884133D01*
X87519649Y-51895318D01*
X87507460Y-51902356D01*
X87456623Y-51948128D01*
X87451616Y-51952404D01*
X87435659Y-51965327D01*
X87421129Y-51979856D01*
X87416349Y-51984391D01*
X87365533Y-52030146D01*
X87357261Y-52041531D01*
X87344425Y-52056560D01*
X87092295Y-52308691D01*
X87035810Y-52341303D01*
X86970588Y-52341303D01*
X86914104Y-52308691D01*
X84087277Y-49481864D01*
X84074435Y-49466829D01*
X84066166Y-49455447D01*
X84015320Y-49409665D01*
X84010569Y-49405156D01*
X83996041Y-49390628D01*
X83995538Y-49390221D01*
X83992519Y-49387776D01*
X83980074Y-49377697D01*
X83975076Y-49373428D01*
X83924246Y-49327661D01*
X83919223Y-49324761D01*
X83912057Y-49320623D01*
X83895771Y-49309430D01*
X83884830Y-49300571D01*
X83884829Y-49300570D01*
X83854945Y-49285344D01*
X83823871Y-49269511D01*
X83818106Y-49266381D01*
X83766501Y-49236587D01*
X83758853Y-49232171D01*
X83745467Y-49227822D01*
X83727206Y-49220258D01*
X83714670Y-49213871D01*
X83648605Y-49196168D01*
X83642288Y-49194297D01*
X83618835Y-49186676D01*
X83577226Y-49173157D01*
X83563223Y-49171685D01*
X83543793Y-49168084D01*
X83530201Y-49164442D01*
X83461900Y-49160862D01*
X83455331Y-49160345D01*
X83434914Y-49158200D01*
X83434910Y-49158200D01*
X83414374Y-49158200D01*
X83407780Y-49158027D01*
X83339490Y-49154448D01*
X83325593Y-49156649D01*
X83305884Y-49158200D01*
X70054715Y-49158200D01*
X70035006Y-49156649D01*
X70030087Y-49155870D01*
X70021109Y-49154448D01*
X70021108Y-49154448D01*
X69952819Y-49158027D01*
X69946225Y-49158200D01*
X69925685Y-49158200D01*
X69905267Y-49160345D01*
X69898699Y-49160862D01*
X69830398Y-49164442D01*
X69822872Y-49166458D01*
X69816799Y-49168085D01*
X69797370Y-49171686D01*
X69783371Y-49173157D01*
X69718316Y-49194295D01*
X69711995Y-49196168D01*
X69645926Y-49213872D01*
X69633390Y-49220259D01*
X69615140Y-49227818D01*
X69601747Y-49232170D01*
X69542517Y-49266367D01*
X69536720Y-49269514D01*
X69475769Y-49300570D01*
X69464823Y-49309433D01*
X69448548Y-49320619D01*
X69436359Y-49327657D01*
X69385523Y-49373428D01*
X69380516Y-49377704D01*
X69364559Y-49390627D01*
X69350029Y-49405156D01*
X69345249Y-49409691D01*
X69294436Y-49455443D01*
X69286160Y-49466834D01*
X69273322Y-49481863D01*
X68603862Y-50151323D01*
X68568017Y-50176423D01*
X68525750Y-50187748D01*
X68376821Y-50200778D01*
X68311912Y-50206457D01*
X68090756Y-50265715D01*
X67883249Y-50362477D01*
X67695696Y-50493804D01*
X67533804Y-50655696D01*
X67402477Y-50843250D01*
X67384195Y-50882457D01*
X67337700Y-50935474D01*
X67270000Y-50955207D01*
X67202300Y-50935474D01*
X67155805Y-50882457D01*
X67153734Y-50878015D01*
X67137523Y-50843251D01*
X67006198Y-50655700D01*
X66945402Y-50594904D01*
X66918091Y-50554031D01*
X66908500Y-50505812D01*
X66908500Y-46999999D01*
X67706884Y-46999999D01*
X67725314Y-47210655D01*
X67780043Y-47414909D01*
X67869411Y-47606559D01*
X67990701Y-47779779D01*
X68140220Y-47929298D01*
X68140223Y-47929300D01*
X68140224Y-47929301D01*
X68172586Y-47951961D01*
X68313440Y-48050588D01*
X68313441Y-48050588D01*
X68313442Y-48050589D01*
X68505090Y-48139956D01*
X68709345Y-48194686D01*
X68920000Y-48213116D01*
X69130655Y-48194686D01*
X69334910Y-48139956D01*
X69526558Y-48050589D01*
X69699776Y-47929301D01*
X69849301Y-47779776D01*
X69970589Y-47606558D01*
X70059956Y-47414910D01*
X70114686Y-47210655D01*
X70133116Y-47000000D01*
X70133116Y-46999999D01*
X72786884Y-46999999D01*
X72805314Y-47210655D01*
X72860043Y-47414909D01*
X72949411Y-47606559D01*
X73070701Y-47779779D01*
X73220220Y-47929298D01*
X73220223Y-47929300D01*
X73220224Y-47929301D01*
X73252586Y-47951961D01*
X73393440Y-48050588D01*
X73393441Y-48050588D01*
X73393442Y-48050589D01*
X73585090Y-48139956D01*
X73789345Y-48194686D01*
X74000000Y-48213116D01*
X74210655Y-48194686D01*
X74414910Y-48139956D01*
X74606558Y-48050589D01*
X74779776Y-47929301D01*
X74929301Y-47779776D01*
X75050589Y-47606558D01*
X75139956Y-47414910D01*
X75194686Y-47210655D01*
X75213116Y-47000000D01*
X75194686Y-46789345D01*
X75139956Y-46585090D01*
X75050589Y-46393442D01*
X75008918Y-46333930D01*
X74944460Y-46241874D01*
X74929301Y-46220224D01*
X74929300Y-46220223D01*
X74929298Y-46220220D01*
X74779779Y-46070701D01*
X74606559Y-45949411D01*
X74414909Y-45860043D01*
X74210655Y-45805314D01*
X74000000Y-45786884D01*
X73789344Y-45805314D01*
X73585090Y-45860043D01*
X73393440Y-45949411D01*
X73220220Y-46070701D01*
X73070701Y-46220220D01*
X72949411Y-46393440D01*
X72860043Y-46585090D01*
X72805314Y-46789344D01*
X72786884Y-46999999D01*
X70133116Y-46999999D01*
X70114686Y-46789345D01*
X70059956Y-46585090D01*
X69970589Y-46393442D01*
X69928918Y-46333930D01*
X69864460Y-46241874D01*
X69849301Y-46220224D01*
X69849300Y-46220223D01*
X69849298Y-46220220D01*
X69699779Y-46070701D01*
X69526559Y-45949411D01*
X69334909Y-45860043D01*
X69130655Y-45805314D01*
X68920000Y-45786884D01*
X68709344Y-45805314D01*
X68505090Y-45860043D01*
X68313440Y-45949411D01*
X68140220Y-46070701D01*
X67990701Y-46220220D01*
X67869411Y-46393440D01*
X67780043Y-46585090D01*
X67725314Y-46789344D01*
X67706884Y-46999999D01*
X66908500Y-46999999D01*
X66908500Y-46928503D01*
X66918091Y-46880285D01*
X66945405Y-46839408D01*
X70434386Y-43350427D01*
X73936139Y-39848673D01*
X73971981Y-39823576D01*
X74014242Y-39812251D01*
X74228087Y-39793543D01*
X74449243Y-39734284D01*
X74656749Y-39637523D01*
X74844300Y-39506198D01*
X75006198Y-39344300D01*
X75137523Y-39156749D01*
X75234284Y-38949243D01*
X75293543Y-38728087D01*
X75313498Y-38500000D01*
X75293543Y-38271913D01*
X75250162Y-38110014D01*
X75234284Y-38050756D01*
X75148543Y-37866884D01*
X75137523Y-37843251D01*
X75119797Y-37817936D01*
X75006933Y-37656750D01*
X75006198Y-37655700D01*
X75006197Y-37655699D01*
X75006195Y-37655696D01*
X74844303Y-37493804D01*
X74656750Y-37362477D01*
X74449243Y-37265715D01*
X74228087Y-37206457D01*
X74000000Y-37186502D01*
X73771912Y-37206457D01*
X73550756Y-37265715D01*
X73343249Y-37362477D01*
X73155696Y-37493804D01*
X72993804Y-37655696D01*
X72862477Y-37843249D01*
X72765715Y-38050756D01*
X72706457Y-38271912D01*
X72687749Y-38485748D01*
X72676423Y-38528016D01*
X72651323Y-38563861D01*
X65415163Y-45800022D01*
X65400134Y-45812860D01*
X65388743Y-45821136D01*
X65342991Y-45871949D01*
X65338456Y-45876729D01*
X65323927Y-45891259D01*
X65311004Y-45907216D01*
X65306728Y-45912223D01*
X65260957Y-45963059D01*
X65253919Y-45975248D01*
X65242733Y-45991523D01*
X65233870Y-46002469D01*
X65202814Y-46063420D01*
X65199667Y-46069217D01*
X65165471Y-46128445D01*
X65161118Y-46141841D01*
X65153559Y-46160089D01*
X65147172Y-46172626D01*
X65129472Y-46238678D01*
X65127600Y-46244997D01*
X65106457Y-46310072D01*
X65104985Y-46324077D01*
X65101383Y-46343509D01*
X65097742Y-46357095D01*
X65094162Y-46425399D01*
X65093645Y-46431966D01*
X65091500Y-46452385D01*
X65091500Y-46472926D01*
X65091327Y-46479520D01*
X65087748Y-46547809D01*
X65089949Y-46561707D01*
X65091500Y-46581416D01*
X65091500Y-50465500D01*
X65074619Y-50528500D01*
X65028500Y-50574619D01*
X64965500Y-50591500D01*
X61628503Y-50591500D01*
X61580285Y-50581909D01*
X61539408Y-50554595D01*
X60508408Y-49523595D01*
X60477670Y-49473436D01*
X60473054Y-49414789D01*
X60495567Y-49360439D01*
X60540300Y-49322233D01*
X60597503Y-49308500D01*
X61348638Y-49308500D01*
X61409201Y-49301989D01*
X61546204Y-49250889D01*
X61663261Y-49163261D01*
X61750889Y-49046204D01*
X61801989Y-48909201D01*
X61808500Y-48848638D01*
X61808500Y-48028503D01*
X61818091Y-47980285D01*
X61845405Y-47939408D01*
X74339408Y-35445405D01*
X74380285Y-35418091D01*
X74428503Y-35408500D01*
X87471497Y-35408500D01*
X87519715Y-35418091D01*
G37*
%TD.AperFunction*%
%TA.AperFunction,Conductor*%
G36*
X69877700Y-52064525D02*
G01*
X69924195Y-52117543D01*
X69942476Y-52156748D01*
X69944193Y-52159200D01*
X70073802Y-52344300D01*
X70134597Y-52405095D01*
X70161909Y-52445969D01*
X70171500Y-52494188D01*
X70171500Y-53018584D01*
X70169949Y-53038293D01*
X70167748Y-53052190D01*
X70171327Y-53120480D01*
X70171500Y-53127074D01*
X70171500Y-53147614D01*
X70173645Y-53168031D01*
X70174162Y-53174600D01*
X70177742Y-53242901D01*
X70181384Y-53256493D01*
X70184985Y-53275923D01*
X70186457Y-53289926D01*
X70187414Y-53292871D01*
X70206181Y-53350632D01*
X70207595Y-53354982D01*
X70209468Y-53361305D01*
X70227171Y-53427370D01*
X70233558Y-53439906D01*
X70241122Y-53458167D01*
X70245471Y-53471553D01*
X70254684Y-53487509D01*
X70279681Y-53530806D01*
X70282811Y-53536571D01*
X70313871Y-53597530D01*
X70322730Y-53608471D01*
X70333926Y-53624761D01*
X70340961Y-53636946D01*
X70386728Y-53687776D01*
X70390997Y-53692774D01*
X70403928Y-53708741D01*
X70418459Y-53723272D01*
X70422965Y-53728020D01*
X70468747Y-53778866D01*
X70480132Y-53787137D01*
X70495164Y-53799977D01*
X74115295Y-57420108D01*
X74142609Y-57460985D01*
X74152200Y-57509203D01*
X74152200Y-57743737D01*
X74139206Y-57799465D01*
X74102904Y-57843699D01*
X74050782Y-57867316D01*
X73993589Y-57865444D01*
X73848087Y-57826457D01*
X73620000Y-57806502D01*
X73391912Y-57826457D01*
X73170756Y-57885715D01*
X72963249Y-57982477D01*
X72775696Y-58113804D01*
X72613804Y-58275696D01*
X72482477Y-58463250D01*
X72464195Y-58502457D01*
X72417700Y-58555474D01*
X72350000Y-58575207D01*
X72282300Y-58555474D01*
X72235805Y-58502457D01*
X72227117Y-58483826D01*
X72217523Y-58463251D01*
X72086198Y-58275700D01*
X72086196Y-58275698D01*
X72086195Y-58275696D01*
X71924303Y-58113804D01*
X71736750Y-57982477D01*
X71529243Y-57885715D01*
X71308087Y-57826457D01*
X71094246Y-57807748D01*
X71051981Y-57796423D01*
X71016136Y-57771323D01*
X66232768Y-52987955D01*
X66200156Y-52931471D01*
X66200156Y-52866249D01*
X66232768Y-52809764D01*
X66289249Y-52777154D01*
X66449243Y-52734284D01*
X66656749Y-52637523D01*
X66844300Y-52506198D01*
X67006198Y-52344300D01*
X67137523Y-52156749D01*
X67155804Y-52117543D01*
X67202300Y-52064525D01*
X67270000Y-52044792D01*
X67337700Y-52064525D01*
X67384195Y-52117543D01*
X67402476Y-52156748D01*
X67533804Y-52344303D01*
X67695696Y-52506195D01*
X67883249Y-52637522D01*
X68090756Y-52734284D01*
X68131753Y-52745269D01*
X68311913Y-52793543D01*
X68540000Y-52813498D01*
X68768087Y-52793543D01*
X68989243Y-52734284D01*
X69196749Y-52637523D01*
X69384300Y-52506198D01*
X69546198Y-52344300D01*
X69677523Y-52156749D01*
X69695804Y-52117543D01*
X69742300Y-52064525D01*
X69810000Y-52044792D01*
X69877700Y-52064525D01*
G37*
%TD.AperFunction*%
%TA.AperFunction,Conductor*%
G36*
X56619715Y-42918091D02*
G01*
X56660592Y-42945405D01*
X57554595Y-43839408D01*
X57581909Y-43880285D01*
X57591500Y-43928503D01*
X57591500Y-48718584D01*
X57589949Y-48738293D01*
X57587748Y-48752190D01*
X57591327Y-48820480D01*
X57591500Y-48827074D01*
X57591500Y-48847614D01*
X57593645Y-48868031D01*
X57594162Y-48874600D01*
X57597742Y-48942901D01*
X57601384Y-48956493D01*
X57604985Y-48975923D01*
X57606457Y-48989926D01*
X57627595Y-49054982D01*
X57629468Y-49061305D01*
X57647171Y-49127370D01*
X57653558Y-49139906D01*
X57661122Y-49158167D01*
X57665471Y-49171553D01*
X57665473Y-49171556D01*
X57699681Y-49230806D01*
X57702811Y-49236571D01*
X57733871Y-49297530D01*
X57742730Y-49308471D01*
X57753923Y-49324757D01*
X57755600Y-49327661D01*
X57760961Y-49336946D01*
X57806728Y-49387776D01*
X57810997Y-49392774D01*
X57823928Y-49408741D01*
X57838459Y-49423272D01*
X57842965Y-49428020D01*
X57888747Y-49478866D01*
X57900132Y-49487137D01*
X57915164Y-49499977D01*
X59891192Y-51476005D01*
X59921930Y-51526164D01*
X59926546Y-51584811D01*
X59904033Y-51639161D01*
X59859300Y-51677367D01*
X59802097Y-51691100D01*
X58293703Y-51691100D01*
X58245485Y-51681509D01*
X58204608Y-51654195D01*
X55585577Y-49035164D01*
X55572735Y-49020129D01*
X55564466Y-49008747D01*
X55513620Y-48962965D01*
X55508872Y-48958459D01*
X55494341Y-48943928D01*
X55478374Y-48930997D01*
X55473376Y-48926728D01*
X55422546Y-48880961D01*
X55418891Y-48878851D01*
X55410357Y-48873923D01*
X55394071Y-48862730D01*
X55383130Y-48853871D01*
X55383129Y-48853870D01*
X55353245Y-48838644D01*
X55322171Y-48822811D01*
X55316406Y-48819681D01*
X55257156Y-48785473D01*
X55257157Y-48785473D01*
X55257153Y-48785471D01*
X55243767Y-48781122D01*
X55225506Y-48773558D01*
X55212970Y-48767171D01*
X55146905Y-48749468D01*
X55140588Y-48747597D01*
X55111953Y-48738293D01*
X55075526Y-48726457D01*
X55061523Y-48724985D01*
X55042093Y-48721384D01*
X55028501Y-48717742D01*
X54960200Y-48714162D01*
X54953631Y-48713645D01*
X54933214Y-48711500D01*
X54933210Y-48711500D01*
X54912674Y-48711500D01*
X54906080Y-48711327D01*
X54837790Y-48707748D01*
X54823893Y-48709949D01*
X54804184Y-48711500D01*
X54647610Y-48711500D01*
X53994188Y-48711500D01*
X53945969Y-48701909D01*
X53905095Y-48674597D01*
X53844300Y-48613802D01*
X53750524Y-48548139D01*
X53656750Y-48482477D01*
X53449243Y-48385715D01*
X53228087Y-48326457D01*
X53000000Y-48306502D01*
X52771908Y-48326457D01*
X52646312Y-48360112D01*
X52589119Y-48361985D01*
X52536996Y-48338369D01*
X52500694Y-48294135D01*
X52487700Y-48238406D01*
X52487700Y-43434500D01*
X52504581Y-43371500D01*
X52550700Y-43325381D01*
X52613700Y-43308500D01*
X53848638Y-43308500D01*
X53909201Y-43301989D01*
X54046204Y-43250889D01*
X54163261Y-43163261D01*
X54189327Y-43128441D01*
X54250888Y-43046206D01*
X54271678Y-42990467D01*
X54298544Y-42947550D01*
X54340134Y-42918673D01*
X54389734Y-42908500D01*
X56571497Y-42908500D01*
X56619715Y-42918091D01*
G37*
%TD.AperFunction*%
%TA.AperFunction,Conductor*%
G36*
X134911500Y-31042381D02*
G01*
X134957619Y-31088500D01*
X134974500Y-31151500D01*
X134974500Y-79848500D01*
X134957619Y-79911500D01*
X134911500Y-79957619D01*
X134848500Y-79974500D01*
X35151500Y-79974500D01*
X35088500Y-79957619D01*
X35042381Y-79911500D01*
X35025500Y-79848500D01*
X35025500Y-68999999D01*
X36736654Y-68999999D01*
X36756016Y-69295423D01*
X36813776Y-69585800D01*
X36908938Y-69866141D01*
X37039886Y-70131675D01*
X37204364Y-70377835D01*
X37399572Y-70600427D01*
X37622164Y-70795635D01*
X37852307Y-70949411D01*
X37868327Y-70960115D01*
X37949204Y-70999999D01*
X38133858Y-71091061D01*
X38414199Y-71186223D01*
X38414201Y-71186223D01*
X38414203Y-71186224D01*
X38704574Y-71243983D01*
X39000000Y-71263346D01*
X39295426Y-71243983D01*
X39585797Y-71186224D01*
X39747233Y-71131423D01*
X39816346Y-71128028D01*
X39876829Y-71161642D01*
X44880019Y-76164832D01*
X44892859Y-76179864D01*
X44901134Y-76191253D01*
X44951979Y-76237034D01*
X44956725Y-76241538D01*
X44971257Y-76256070D01*
X44971258Y-76256071D01*
X44987212Y-76268991D01*
X44992223Y-76273271D01*
X45014737Y-76293542D01*
X45043056Y-76319040D01*
X45055242Y-76326076D01*
X45071529Y-76337269D01*
X45082469Y-76346128D01*
X45082470Y-76346129D01*
X45143409Y-76377178D01*
X45149210Y-76380327D01*
X45208444Y-76414527D01*
X45221835Y-76418877D01*
X45240094Y-76426442D01*
X45252626Y-76432827D01*
X45252630Y-76432829D01*
X45318700Y-76450532D01*
X45325005Y-76452400D01*
X45390072Y-76473542D01*
X45404063Y-76475012D01*
X45423500Y-76478613D01*
X45437096Y-76482257D01*
X45505407Y-76485836D01*
X45511963Y-76486353D01*
X45532386Y-76488500D01*
X45532390Y-76488500D01*
X45552925Y-76488500D01*
X45559518Y-76488672D01*
X45627809Y-76492252D01*
X45640737Y-76490204D01*
X45641706Y-76490051D01*
X45661415Y-76488500D01*
X45744608Y-76488500D01*
X45805211Y-76504032D01*
X45850873Y-76546797D01*
X45870338Y-76606254D01*
X45861376Y-76654034D01*
X45862897Y-76654442D01*
X45805314Y-76869344D01*
X45786884Y-77079999D01*
X45805314Y-77290655D01*
X45860043Y-77494909D01*
X45949411Y-77686559D01*
X46070701Y-77859779D01*
X46220220Y-78009298D01*
X46393440Y-78130588D01*
X46393441Y-78130588D01*
X46393442Y-78130589D01*
X46585090Y-78219956D01*
X46789345Y-78274686D01*
X47000000Y-78293116D01*
X47210655Y-78274686D01*
X47414910Y-78219956D01*
X47606558Y-78130589D01*
X47779776Y-78009301D01*
X47929301Y-77859776D01*
X48050589Y-77686558D01*
X48139956Y-77494910D01*
X48194686Y-77290655D01*
X48213116Y-77080000D01*
X48194686Y-76869345D01*
X48139956Y-76665090D01*
X48116743Y-76615310D01*
X48104992Y-76565727D01*
X48113841Y-76515542D01*
X48141842Y-76472969D01*
X50644839Y-73969972D01*
X50659868Y-73957136D01*
X50671253Y-73948866D01*
X50717026Y-73898028D01*
X50721529Y-73893282D01*
X50736072Y-73878741D01*
X50749008Y-73862765D01*
X50753278Y-73857768D01*
X50799038Y-73806946D01*
X50799037Y-73806946D01*
X50799040Y-73806944D01*
X50806073Y-73794760D01*
X50817265Y-73778475D01*
X50826129Y-73767530D01*
X50857196Y-73706557D01*
X50860324Y-73700795D01*
X50894527Y-73641556D01*
X50898873Y-73628177D01*
X50906437Y-73609915D01*
X50912830Y-73597370D01*
X50930531Y-73531302D01*
X50932402Y-73524986D01*
X50938508Y-73506195D01*
X50953542Y-73459928D01*
X50955012Y-73445937D01*
X50958614Y-73426494D01*
X50962257Y-73412903D01*
X50962257Y-73412900D01*
X50965685Y-73400109D01*
X50968660Y-73400906D01*
X50977630Y-73369952D01*
X51016569Y-73327558D01*
X51070300Y-73306908D01*
X51127608Y-73312310D01*
X51176534Y-73342637D01*
X52054592Y-74220628D01*
X52081908Y-74261507D01*
X52091500Y-74309727D01*
X52091500Y-76230790D01*
X52085668Y-76268679D01*
X52068714Y-76303058D01*
X52049127Y-76331032D01*
X51949411Y-76473441D01*
X51860043Y-76665090D01*
X51805314Y-76869344D01*
X51786884Y-77079999D01*
X51805314Y-77290655D01*
X51860043Y-77494909D01*
X51949411Y-77686559D01*
X52070701Y-77859779D01*
X52220220Y-78009298D01*
X52393440Y-78130588D01*
X52393441Y-78130588D01*
X52393442Y-78130589D01*
X52585090Y-78219956D01*
X52789345Y-78274686D01*
X53000000Y-78293116D01*
X53210655Y-78274686D01*
X53414910Y-78219956D01*
X53606558Y-78130589D01*
X53779776Y-78009301D01*
X53929301Y-77859776D01*
X54050589Y-77686558D01*
X54139956Y-77494910D01*
X54194686Y-77290655D01*
X54213116Y-77080000D01*
X54194686Y-76869345D01*
X54139956Y-76665090D01*
X54050589Y-76473442D01*
X53931285Y-76303058D01*
X53914332Y-76268679D01*
X53908500Y-76230790D01*
X53908500Y-74289503D01*
X53918091Y-74241285D01*
X53945405Y-74200408D01*
X54645814Y-73499999D01*
X98186502Y-73499999D01*
X98206457Y-73728087D01*
X98265715Y-73949243D01*
X98362477Y-74156750D01*
X98493804Y-74344303D01*
X98655696Y-74506195D01*
X98843249Y-74637522D01*
X99050756Y-74734284D01*
X99110015Y-74750162D01*
X99271913Y-74793543D01*
X99485755Y-74812251D01*
X99528018Y-74823576D01*
X99563863Y-74848676D01*
X101380019Y-76664832D01*
X101392859Y-76679864D01*
X101401134Y-76691253D01*
X101451979Y-76737034D01*
X101456725Y-76741538D01*
X101471258Y-76756071D01*
X101487212Y-76768991D01*
X101492223Y-76773271D01*
X101543056Y-76819040D01*
X101555242Y-76826076D01*
X101571529Y-76837269D01*
X101582470Y-76846129D01*
X101643409Y-76877178D01*
X101649210Y-76880327D01*
X101708444Y-76914527D01*
X101721835Y-76918877D01*
X101740094Y-76926442D01*
X101752625Y-76932827D01*
X101752627Y-76932827D01*
X101752630Y-76932829D01*
X101818726Y-76950539D01*
X101824967Y-76952388D01*
X101890072Y-76973542D01*
X101904065Y-76975012D01*
X101923501Y-76978613D01*
X101937097Y-76982257D01*
X102005406Y-76985836D01*
X102011930Y-76986349D01*
X102032390Y-76988500D01*
X102052926Y-76988500D01*
X102059519Y-76988672D01*
X102127810Y-76992252D01*
X102140738Y-76990204D01*
X102141707Y-76990051D01*
X102161416Y-76988500D01*
X105900790Y-76988500D01*
X105938679Y-76994332D01*
X105973058Y-77011285D01*
X106143442Y-77130589D01*
X106335090Y-77219956D01*
X106539345Y-77274686D01*
X106750000Y-77293116D01*
X106960655Y-77274686D01*
X107164910Y-77219956D01*
X107356558Y-77130589D01*
X107529776Y-77009301D01*
X107679301Y-76859776D01*
X107800589Y-76686558D01*
X107889956Y-76494910D01*
X107944686Y-76290655D01*
X107963116Y-76080000D01*
X107944686Y-75869345D01*
X107889956Y-75665090D01*
X107800589Y-75473442D01*
X107679301Y-75300224D01*
X107679300Y-75300223D01*
X107679298Y-75300220D01*
X107529779Y-75150701D01*
X107356559Y-75029411D01*
X107293487Y-75000000D01*
X113436502Y-75000000D01*
X113456457Y-75228087D01*
X113515715Y-75449243D01*
X113612477Y-75656750D01*
X113743804Y-75844303D01*
X113905696Y-76006195D01*
X114093249Y-76137522D01*
X114300756Y-76234284D01*
X114360014Y-76250162D01*
X114521913Y-76293543D01*
X114750000Y-76313498D01*
X114978087Y-76293543D01*
X115199243Y-76234284D01*
X115406749Y-76137523D01*
X115594300Y-76006198D01*
X115756198Y-75844300D01*
X115887523Y-75656749D01*
X115984284Y-75449243D01*
X116043543Y-75228087D01*
X116062252Y-75014241D01*
X116073576Y-74971980D01*
X116098673Y-74936138D01*
X118283539Y-72751272D01*
X118298568Y-72738436D01*
X118309953Y-72730166D01*
X118355726Y-72679328D01*
X118360229Y-72674582D01*
X118374772Y-72660041D01*
X118387708Y-72644065D01*
X118391978Y-72639068D01*
X118437738Y-72588246D01*
X118437737Y-72588246D01*
X118437740Y-72588244D01*
X118444773Y-72576060D01*
X118455965Y-72559775D01*
X118464829Y-72548830D01*
X118495896Y-72487857D01*
X118499024Y-72482095D01*
X118533227Y-72422856D01*
X118537573Y-72409477D01*
X118545137Y-72391215D01*
X118551530Y-72378670D01*
X118569231Y-72312602D01*
X118571102Y-72306286D01*
X118582271Y-72271913D01*
X118592242Y-72241228D01*
X118593712Y-72227237D01*
X118597314Y-72207794D01*
X118600957Y-72194203D01*
X118604537Y-72125889D01*
X118605053Y-72119335D01*
X118607200Y-72098913D01*
X118607200Y-72078374D01*
X118607373Y-72071780D01*
X118610952Y-72003490D01*
X118608751Y-71989592D01*
X118607200Y-71969884D01*
X118607200Y-60611203D01*
X118616791Y-60562985D01*
X118644102Y-60522110D01*
X119664455Y-59501756D01*
X119710451Y-59472454D01*
X119764527Y-59465334D01*
X119816546Y-59481736D01*
X119856759Y-59518584D01*
X119993804Y-59714303D01*
X120155696Y-59876195D01*
X120343249Y-60007522D01*
X120550756Y-60104284D01*
X120589503Y-60114666D01*
X120771913Y-60163543D01*
X121000000Y-60183498D01*
X121228087Y-60163543D01*
X121449243Y-60104284D01*
X121656749Y-60007523D01*
X121844300Y-59876198D01*
X121905095Y-59815402D01*
X121945969Y-59788091D01*
X121994188Y-59778500D01*
X122171497Y-59778500D01*
X122219715Y-59788091D01*
X122260592Y-59815405D01*
X126780019Y-64334832D01*
X126792859Y-64349864D01*
X126801134Y-64361253D01*
X126851979Y-64407034D01*
X126856725Y-64411538D01*
X126866687Y-64421500D01*
X126871258Y-64426071D01*
X126887212Y-64438991D01*
X126892223Y-64443271D01*
X126925726Y-64473436D01*
X126943056Y-64489040D01*
X126955242Y-64496076D01*
X126971529Y-64507269D01*
X126982469Y-64516128D01*
X126982470Y-64516129D01*
X127043409Y-64547178D01*
X127049210Y-64550327D01*
X127108444Y-64584527D01*
X127121835Y-64588877D01*
X127140094Y-64596442D01*
X127149794Y-64601384D01*
X127152630Y-64602829D01*
X127218700Y-64620532D01*
X127225005Y-64622400D01*
X127290072Y-64643542D01*
X127304063Y-64645012D01*
X127323500Y-64648613D01*
X127337096Y-64652257D01*
X127405407Y-64655836D01*
X127411963Y-64656353D01*
X127432386Y-64658500D01*
X127432390Y-64658500D01*
X127452925Y-64658500D01*
X127459518Y-64658672D01*
X127527809Y-64662252D01*
X127540737Y-64660204D01*
X127541706Y-64660051D01*
X127561415Y-64658500D01*
X128101476Y-64658500D01*
X128168012Y-64677500D01*
X128214481Y-64728770D01*
X128226887Y-64753926D01*
X128289886Y-64881675D01*
X128454364Y-65127835D01*
X128649572Y-65350427D01*
X128872164Y-65545635D01*
X129009685Y-65637523D01*
X129118327Y-65710115D01*
X129251090Y-65775586D01*
X129383858Y-65841061D01*
X129664199Y-65936223D01*
X129664201Y-65936223D01*
X129664203Y-65936224D01*
X129954574Y-65993983D01*
X130250000Y-66013346D01*
X130545426Y-65993983D01*
X130835797Y-65936224D01*
X130882752Y-65920285D01*
X131116141Y-65841061D01*
X131172035Y-65813497D01*
X131381673Y-65710115D01*
X131627838Y-65545633D01*
X131850427Y-65350427D01*
X132045633Y-65127838D01*
X132210115Y-64881673D01*
X132341059Y-64616145D01*
X132341058Y-64616145D01*
X132341061Y-64616141D01*
X132436223Y-64335800D01*
X132439350Y-64320082D01*
X132493983Y-64045426D01*
X132513346Y-63750000D01*
X132493983Y-63454574D01*
X132436224Y-63164203D01*
X132422837Y-63124765D01*
X132341061Y-62883858D01*
X132255438Y-62710233D01*
X132210115Y-62618327D01*
X132162997Y-62547810D01*
X132045635Y-62372164D01*
X131850427Y-62149572D01*
X131627835Y-61954364D01*
X131381675Y-61789886D01*
X131116141Y-61658938D01*
X130835800Y-61563776D01*
X130545423Y-61506016D01*
X130250000Y-61486654D01*
X129954576Y-61506016D01*
X129664199Y-61563776D01*
X129383858Y-61658938D01*
X129118324Y-61789886D01*
X128872164Y-61954364D01*
X128649572Y-62149572D01*
X128454364Y-62372164D01*
X128289886Y-62618324D01*
X128214482Y-62771229D01*
X128168012Y-62822500D01*
X128101476Y-62841500D01*
X127908503Y-62841500D01*
X127860285Y-62831909D01*
X127819408Y-62804595D01*
X123638408Y-58623595D01*
X123607670Y-58573436D01*
X123603054Y-58514789D01*
X123625567Y-58460439D01*
X123670300Y-58422233D01*
X123727503Y-58408500D01*
X124150790Y-58408500D01*
X124188679Y-58414332D01*
X124223058Y-58431285D01*
X124393442Y-58550589D01*
X124585090Y-58639956D01*
X124789345Y-58694686D01*
X125000000Y-58713116D01*
X125210655Y-58694686D01*
X125414910Y-58639956D01*
X125606558Y-58550589D01*
X125776941Y-58431285D01*
X125811321Y-58414332D01*
X125849210Y-58408500D01*
X127418584Y-58408500D01*
X127438293Y-58410051D01*
X127439402Y-58410226D01*
X127452190Y-58412252D01*
X127520480Y-58408672D01*
X127527074Y-58408500D01*
X127547613Y-58408500D01*
X127562077Y-58406979D01*
X127568039Y-58406352D01*
X127574589Y-58405837D01*
X127642903Y-58402257D01*
X127656494Y-58398614D01*
X127675938Y-58395012D01*
X127689928Y-58393542D01*
X127755014Y-58372393D01*
X127761299Y-58370532D01*
X127827370Y-58352829D01*
X127839910Y-58346439D01*
X127858162Y-58338878D01*
X127871556Y-58334527D01*
X127930799Y-58300321D01*
X127936584Y-58297181D01*
X127976152Y-58277021D01*
X127997530Y-58266129D01*
X128008467Y-58257272D01*
X128024764Y-58246072D01*
X128036944Y-58239040D01*
X128087768Y-58193278D01*
X128092765Y-58189008D01*
X128108741Y-58176072D01*
X128123282Y-58161529D01*
X128128028Y-58157026D01*
X128178866Y-58111253D01*
X128187136Y-58099868D01*
X128199972Y-58084839D01*
X129373171Y-56911640D01*
X129433652Y-56878029D01*
X129502765Y-56881424D01*
X129664199Y-56936223D01*
X129664201Y-56936223D01*
X129664203Y-56936224D01*
X129954574Y-56993983D01*
X130250000Y-57013346D01*
X130545426Y-56993983D01*
X130835797Y-56936224D01*
X130848023Y-56932074D01*
X131116141Y-56841061D01*
X131147247Y-56825721D01*
X131381673Y-56710115D01*
X131627838Y-56545633D01*
X131850427Y-56350427D01*
X132045633Y-56127838D01*
X132210115Y-55881673D01*
X132341059Y-55616145D01*
X132341058Y-55616145D01*
X132341061Y-55616141D01*
X132436223Y-55335800D01*
X132436224Y-55335797D01*
X132493983Y-55045426D01*
X132513346Y-54750000D01*
X132493983Y-54454574D01*
X132436224Y-54164203D01*
X132436223Y-54164199D01*
X132341061Y-53883858D01*
X132254702Y-53708740D01*
X132210115Y-53618327D01*
X132207682Y-53614686D01*
X132045635Y-53372164D01*
X131850427Y-53149572D01*
X131627835Y-52954364D01*
X131381675Y-52789886D01*
X131116141Y-52658938D01*
X130835800Y-52563776D01*
X130545423Y-52506016D01*
X130250000Y-52486654D01*
X129954576Y-52506016D01*
X129664199Y-52563776D01*
X129383858Y-52658938D01*
X129118324Y-52789886D01*
X128872164Y-52954364D01*
X128649572Y-53149572D01*
X128454364Y-53372164D01*
X128289886Y-53618324D01*
X128158938Y-53883858D01*
X128063776Y-54164199D01*
X128006016Y-54454576D01*
X127986654Y-54749999D01*
X128006016Y-55045423D01*
X128063776Y-55335800D01*
X128118575Y-55497232D01*
X128121970Y-55566345D01*
X128088357Y-55626828D01*
X127160589Y-56554597D01*
X127119715Y-56581909D01*
X127071497Y-56591500D01*
X125849210Y-56591500D01*
X125811321Y-56585668D01*
X125776941Y-56568714D01*
X125606558Y-56449411D01*
X125504527Y-56401833D01*
X125414909Y-56360043D01*
X125210655Y-56305314D01*
X125000000Y-56286884D01*
X124789344Y-56305314D01*
X124585090Y-56360043D01*
X124393441Y-56449411D01*
X124321193Y-56500000D01*
X124223058Y-56568714D01*
X124188679Y-56585668D01*
X124150790Y-56591500D01*
X123812853Y-56591500D01*
X123773568Y-56582068D01*
X123773159Y-56583598D01*
X123694305Y-56562468D01*
X123687988Y-56560597D01*
X123664535Y-56552976D01*
X123622926Y-56539457D01*
X123608923Y-56537985D01*
X123589493Y-56534384D01*
X123575901Y-56530742D01*
X123507600Y-56527162D01*
X123501031Y-56526645D01*
X123480614Y-56524500D01*
X123480610Y-56524500D01*
X123460074Y-56524500D01*
X123453480Y-56524327D01*
X123385190Y-56520748D01*
X123371293Y-56522949D01*
X123351584Y-56524500D01*
X120529816Y-56524500D01*
X120510107Y-56522949D01*
X120505188Y-56522170D01*
X120496210Y-56520748D01*
X120496209Y-56520748D01*
X120427920Y-56524327D01*
X120421326Y-56524500D01*
X120400785Y-56524500D01*
X120380366Y-56526645D01*
X120373799Y-56527162D01*
X120305495Y-56530742D01*
X120291909Y-56534383D01*
X120272477Y-56537985D01*
X120258472Y-56539457D01*
X120193397Y-56560600D01*
X120187078Y-56562472D01*
X120121026Y-56580172D01*
X120108489Y-56586559D01*
X120090241Y-56594118D01*
X120076845Y-56598471D01*
X120017617Y-56632667D01*
X120011820Y-56635814D01*
X119950869Y-56666870D01*
X119939923Y-56675733D01*
X119923648Y-56686919D01*
X119911459Y-56693957D01*
X119860623Y-56739728D01*
X119855616Y-56744004D01*
X119839659Y-56756927D01*
X119825129Y-56771456D01*
X119820349Y-56775991D01*
X119769536Y-56821743D01*
X119761260Y-56833134D01*
X119748422Y-56848163D01*
X117113863Y-59482722D01*
X117098834Y-59495560D01*
X117087443Y-59503836D01*
X117041691Y-59554649D01*
X117037156Y-59559429D01*
X117022627Y-59573959D01*
X117009704Y-59589916D01*
X117005428Y-59594923D01*
X116959657Y-59645759D01*
X116952619Y-59657948D01*
X116941433Y-59674223D01*
X116932570Y-59685169D01*
X116901514Y-59746120D01*
X116898367Y-59751917D01*
X116864171Y-59811145D01*
X116859818Y-59824541D01*
X116852259Y-59842789D01*
X116845872Y-59855326D01*
X116828172Y-59921378D01*
X116826300Y-59927697D01*
X116805157Y-59992772D01*
X116803685Y-60006777D01*
X116800083Y-60026209D01*
X116796442Y-60039795D01*
X116792862Y-60108099D01*
X116792345Y-60114666D01*
X116790200Y-60135085D01*
X116790200Y-60155626D01*
X116790027Y-60162220D01*
X116786448Y-60230509D01*
X116788649Y-60244407D01*
X116790200Y-60264116D01*
X116790200Y-71622796D01*
X116780609Y-71671014D01*
X116753295Y-71711892D01*
X116229502Y-72235684D01*
X116173018Y-72268295D01*
X116107796Y-72268295D01*
X116051312Y-72235683D01*
X116018700Y-72179199D01*
X115984284Y-72050756D01*
X115887522Y-71843249D01*
X115849777Y-71789344D01*
X115756198Y-71655700D01*
X115695402Y-71594904D01*
X115668091Y-71554031D01*
X115658500Y-71505812D01*
X115658500Y-69599210D01*
X115664332Y-69561321D01*
X115681287Y-69526939D01*
X115800589Y-69356558D01*
X115889956Y-69164910D01*
X115944686Y-68960655D01*
X115963116Y-68750000D01*
X115944686Y-68539345D01*
X115889956Y-68335090D01*
X115800589Y-68143442D01*
X115793878Y-68133858D01*
X115679298Y-67970220D01*
X115529779Y-67820701D01*
X115356559Y-67699411D01*
X115164909Y-67610043D01*
X114960655Y-67555314D01*
X114750000Y-67536884D01*
X114539344Y-67555314D01*
X114335090Y-67610043D01*
X114143440Y-67699411D01*
X113970220Y-67820701D01*
X113820701Y-67970220D01*
X113699411Y-68143440D01*
X113610043Y-68335090D01*
X113555314Y-68539344D01*
X113536884Y-68749999D01*
X113555314Y-68960655D01*
X113610043Y-69164909D01*
X113684928Y-69325499D01*
X113699411Y-69356558D01*
X113817419Y-69525092D01*
X113818713Y-69526939D01*
X113835668Y-69561321D01*
X113841500Y-69599210D01*
X113841500Y-71505812D01*
X113831909Y-71554031D01*
X113804597Y-71594904D01*
X113743801Y-71655700D01*
X113743802Y-71655700D01*
X113612477Y-71843249D01*
X113515715Y-72050756D01*
X113456457Y-72271912D01*
X113436502Y-72499999D01*
X113456457Y-72728087D01*
X113515715Y-72949243D01*
X113612477Y-73156750D01*
X113743804Y-73344303D01*
X113905696Y-73506195D01*
X114102281Y-73643846D01*
X114100932Y-73645772D01*
X114142584Y-73682300D01*
X114162317Y-73750000D01*
X114142584Y-73817700D01*
X114100932Y-73854227D01*
X114102281Y-73856154D01*
X113905696Y-73993804D01*
X113743804Y-74155696D01*
X113612477Y-74343249D01*
X113515715Y-74550756D01*
X113456457Y-74771912D01*
X113436502Y-75000000D01*
X107293487Y-75000000D01*
X107164909Y-74940043D01*
X106960655Y-74885314D01*
X106750000Y-74866884D01*
X106539344Y-74885314D01*
X106335090Y-74940043D01*
X106143441Y-75029411D01*
X106042337Y-75100204D01*
X105973058Y-75148714D01*
X105938679Y-75165668D01*
X105900790Y-75171500D01*
X102508503Y-75171500D01*
X102460285Y-75161909D01*
X102419408Y-75134595D01*
X102264315Y-74979502D01*
X102231703Y-74923018D01*
X102231703Y-74857796D01*
X102264315Y-74801311D01*
X102320796Y-74768701D01*
X102449243Y-74734284D01*
X102656749Y-74637523D01*
X102844300Y-74506198D01*
X103006198Y-74344300D01*
X103137523Y-74156749D01*
X103234284Y-73949243D01*
X103293543Y-73728087D01*
X103313498Y-73500000D01*
X103293543Y-73271913D01*
X103234284Y-73050757D01*
X103234205Y-73050588D01*
X103137522Y-72843249D01*
X103009238Y-72660042D01*
X103006198Y-72655700D01*
X103006197Y-72655699D01*
X103006195Y-72655696D01*
X102844303Y-72493804D01*
X102656750Y-72362477D01*
X102449243Y-72265715D01*
X102228087Y-72206457D01*
X102000000Y-72186502D01*
X101771912Y-72206457D01*
X101550756Y-72265715D01*
X101343249Y-72362477D01*
X101155696Y-72493804D01*
X100993804Y-72655696D01*
X100856154Y-72852281D01*
X100854227Y-72850932D01*
X100817700Y-72892584D01*
X100750000Y-72912317D01*
X100682300Y-72892584D01*
X100645772Y-72850932D01*
X100643846Y-72852281D01*
X100509238Y-72660042D01*
X100506198Y-72655700D01*
X100506197Y-72655699D01*
X100506195Y-72655696D01*
X100344303Y-72493804D01*
X100156750Y-72362477D01*
X99949243Y-72265715D01*
X99728087Y-72206457D01*
X99500000Y-72186502D01*
X99271912Y-72206457D01*
X99050756Y-72265715D01*
X98843249Y-72362477D01*
X98655696Y-72493804D01*
X98493804Y-72655696D01*
X98362477Y-72843249D01*
X98265715Y-73050756D01*
X98206457Y-73271912D01*
X98186502Y-73499999D01*
X54645814Y-73499999D01*
X54775861Y-73369952D01*
X57308042Y-70837769D01*
X57323065Y-70824938D01*
X57334453Y-70816666D01*
X57380217Y-70765838D01*
X57384720Y-70761092D01*
X57399272Y-70746542D01*
X57412228Y-70730542D01*
X57416479Y-70725566D01*
X57462240Y-70674744D01*
X57469270Y-70662566D01*
X57480467Y-70646274D01*
X57489329Y-70635331D01*
X57520400Y-70574346D01*
X57523506Y-70568625D01*
X57557727Y-70509356D01*
X57562078Y-70495962D01*
X57569639Y-70477710D01*
X57576029Y-70465170D01*
X57593732Y-70399098D01*
X57595593Y-70392814D01*
X57616742Y-70327728D01*
X57618212Y-70313737D01*
X57621814Y-70294295D01*
X57625457Y-70280704D01*
X57629036Y-70212394D01*
X57629553Y-70205837D01*
X57631700Y-70185414D01*
X57631700Y-70164875D01*
X57631873Y-70158281D01*
X57633267Y-70131673D01*
X57635452Y-70089991D01*
X57633251Y-70076094D01*
X57631700Y-70056385D01*
X57631700Y-66705303D01*
X57641291Y-66657085D01*
X57668602Y-66616210D01*
X59160692Y-65124119D01*
X59211893Y-65093050D01*
X59271661Y-65089132D01*
X59326485Y-65113254D01*
X59354869Y-65148618D01*
X59356154Y-65147719D01*
X59493804Y-65344303D01*
X59655696Y-65506195D01*
X59655699Y-65506197D01*
X59655700Y-65506198D01*
X59674726Y-65519520D01*
X59843249Y-65637522D01*
X60050756Y-65734284D01*
X60110015Y-65750162D01*
X60271913Y-65793543D01*
X60500000Y-65813498D01*
X60728087Y-65793543D01*
X60949243Y-65734284D01*
X61156749Y-65637523D01*
X61344300Y-65506198D01*
X61506198Y-65344300D01*
X61637523Y-65156749D01*
X61734284Y-64949243D01*
X61793543Y-64728087D01*
X61813498Y-64500000D01*
X61793543Y-64271913D01*
X61734284Y-64050757D01*
X61732161Y-64046205D01*
X61640035Y-63848638D01*
X61637523Y-63843251D01*
X61633700Y-63837791D01*
X61611515Y-63777827D01*
X61621617Y-63714694D01*
X61661405Y-63664650D01*
X61663261Y-63663261D01*
X61750889Y-63546204D01*
X61801989Y-63409201D01*
X61808500Y-63348638D01*
X61808500Y-61651362D01*
X61801989Y-61590799D01*
X61750889Y-61453796D01*
X61746408Y-61447810D01*
X61663261Y-61336738D01*
X61546206Y-61249111D01*
X61490467Y-61228322D01*
X61447550Y-61201456D01*
X61418673Y-61159866D01*
X61408500Y-61110266D01*
X61408500Y-59081416D01*
X61410051Y-59061707D01*
X61410204Y-59060738D01*
X61412252Y-59047810D01*
X61408672Y-58979519D01*
X61408500Y-58972926D01*
X61408500Y-58952395D01*
X61408500Y-58952390D01*
X61406349Y-58931930D01*
X61405836Y-58925406D01*
X61402257Y-58857097D01*
X61398613Y-58843501D01*
X61395012Y-58824063D01*
X61393542Y-58810073D01*
X61378003Y-58762251D01*
X61372402Y-58745012D01*
X61370531Y-58738694D01*
X61367497Y-58727370D01*
X61352830Y-58672630D01*
X61346437Y-58660084D01*
X61338875Y-58641827D01*
X61334527Y-58628444D01*
X61331727Y-58623595D01*
X61304204Y-58575923D01*
X61300326Y-58569207D01*
X61297195Y-58563441D01*
X61266129Y-58502470D01*
X61257267Y-58491526D01*
X61246076Y-58475242D01*
X61239040Y-58463056D01*
X61225133Y-58447610D01*
X61193271Y-58412223D01*
X61188991Y-58407212D01*
X61176071Y-58391258D01*
X61161538Y-58376725D01*
X61157034Y-58371979D01*
X61111253Y-58321134D01*
X61099864Y-58312859D01*
X61084832Y-58300019D01*
X56848676Y-54063863D01*
X56823576Y-54028018D01*
X56812251Y-53985755D01*
X56793543Y-53771913D01*
X56734284Y-53550757D01*
X56734283Y-53550755D01*
X56637522Y-53343249D01*
X56542949Y-53208186D01*
X56506198Y-53155700D01*
X56506197Y-53155699D01*
X56506195Y-53155696D01*
X56344303Y-52993804D01*
X56156750Y-52862477D01*
X55949243Y-52765715D01*
X55728087Y-52706457D01*
X55500000Y-52686502D01*
X55271912Y-52706457D01*
X55050756Y-52765715D01*
X54843249Y-52862477D01*
X54655696Y-52993804D01*
X54493804Y-53155696D01*
X54362477Y-53343249D01*
X54265716Y-53550755D01*
X54231299Y-53679201D01*
X54198687Y-53735685D01*
X54142203Y-53768296D01*
X54076981Y-53768296D01*
X54020497Y-53735684D01*
X52524605Y-52239792D01*
X52497291Y-52198915D01*
X52487700Y-52150697D01*
X52487700Y-51001594D01*
X52500694Y-50945865D01*
X52536996Y-50901631D01*
X52589119Y-50878015D01*
X52646312Y-50879888D01*
X52771908Y-50913542D01*
X52771909Y-50913542D01*
X52771913Y-50913543D01*
X53000000Y-50933498D01*
X53228087Y-50913543D01*
X53449243Y-50854284D01*
X53656749Y-50757523D01*
X53844300Y-50626198D01*
X53905095Y-50565402D01*
X53945969Y-50538091D01*
X53994188Y-50528500D01*
X54457097Y-50528500D01*
X54505315Y-50538091D01*
X54546192Y-50565405D01*
X57165219Y-53184432D01*
X57178059Y-53199464D01*
X57186334Y-53210853D01*
X57237179Y-53256634D01*
X57241925Y-53261138D01*
X57256459Y-53275672D01*
X57269921Y-53286574D01*
X57272412Y-53288591D01*
X57277423Y-53292871D01*
X57281787Y-53296800D01*
X57328256Y-53338640D01*
X57340442Y-53345676D01*
X57356726Y-53356867D01*
X57367670Y-53365729D01*
X57428641Y-53396795D01*
X57434407Y-53399926D01*
X57493644Y-53434127D01*
X57507027Y-53438475D01*
X57525284Y-53446037D01*
X57537830Y-53452430D01*
X57603894Y-53470131D01*
X57610221Y-53472005D01*
X57675272Y-53493142D01*
X57689265Y-53494612D01*
X57708701Y-53498213D01*
X57722297Y-53501857D01*
X57790606Y-53505436D01*
X57797130Y-53505949D01*
X57817590Y-53508100D01*
X57838126Y-53508100D01*
X57844719Y-53508272D01*
X57913010Y-53511852D01*
X57925293Y-53509906D01*
X57926908Y-53509651D01*
X57946616Y-53508100D01*
X64131097Y-53508100D01*
X64179315Y-53517691D01*
X64220192Y-53545005D01*
X68307231Y-57632044D01*
X68339843Y-57688528D01*
X68339843Y-57753750D01*
X68307232Y-57810234D01*
X68250748Y-57842846D01*
X68090755Y-57885716D01*
X67883249Y-57982477D01*
X67695696Y-58113804D01*
X67533802Y-58275698D01*
X67531487Y-58279005D01*
X67485921Y-58318771D01*
X67427074Y-58332724D01*
X67368504Y-58317650D01*
X67323705Y-58277021D01*
X67302999Y-58220197D01*
X67301989Y-58210799D01*
X67250889Y-58073796D01*
X67241005Y-58060592D01*
X67163261Y-57956738D01*
X67046205Y-57869111D01*
X66931845Y-57826457D01*
X66909201Y-57818011D01*
X66848638Y-57811500D01*
X65151362Y-57811500D01*
X65090799Y-57818011D01*
X64953794Y-57869111D01*
X64836738Y-57956738D01*
X64749111Y-58073794D01*
X64706145Y-58188991D01*
X64698011Y-58210799D01*
X64691500Y-58271362D01*
X64691500Y-59968638D01*
X64698011Y-60029201D01*
X64701963Y-60039797D01*
X64749111Y-60166205D01*
X64836738Y-60283261D01*
X64953794Y-60370888D01*
X64953795Y-60370888D01*
X64953796Y-60370889D01*
X65090799Y-60421989D01*
X65151362Y-60428500D01*
X65971497Y-60428500D01*
X66019715Y-60438091D01*
X66060592Y-60465405D01*
X68343845Y-62748658D01*
X68374917Y-62799860D01*
X68378837Y-62859624D01*
X68354720Y-62914447D01*
X68321237Y-62941325D01*
X68322472Y-62943088D01*
X68140220Y-63070701D01*
X67990701Y-63220220D01*
X67869411Y-63393440D01*
X67780043Y-63585090D01*
X67725314Y-63789344D01*
X67706884Y-64000000D01*
X67725314Y-64210655D01*
X67780043Y-64414909D01*
X67869411Y-64606559D01*
X67990701Y-64779779D01*
X68140220Y-64929298D01*
X68140223Y-64929300D01*
X68140224Y-64929301D01*
X68168704Y-64949243D01*
X68313440Y-65050588D01*
X68313441Y-65050588D01*
X68313442Y-65050589D01*
X68505090Y-65139956D01*
X68709345Y-65194686D01*
X68920000Y-65213116D01*
X69130655Y-65194686D01*
X69334910Y-65139956D01*
X69526558Y-65050589D01*
X69699776Y-64929301D01*
X69849301Y-64779776D01*
X69970589Y-64606558D01*
X69970588Y-64606558D01*
X69976912Y-64597528D01*
X69978676Y-64598763D01*
X70005533Y-64565294D01*
X70060358Y-64541165D01*
X70120131Y-64545079D01*
X70171341Y-64576154D01*
X71510019Y-65914832D01*
X71522859Y-65929864D01*
X71531134Y-65941253D01*
X71581979Y-65987034D01*
X71586725Y-65991538D01*
X71601257Y-66006070D01*
X71601258Y-66006071D01*
X71617212Y-66018991D01*
X71622223Y-66023271D01*
X71622231Y-66023278D01*
X71673056Y-66069040D01*
X71685242Y-66076076D01*
X71701529Y-66087269D01*
X71701536Y-66087275D01*
X71712470Y-66096129D01*
X71773409Y-66127178D01*
X71779210Y-66130327D01*
X71838444Y-66164527D01*
X71851835Y-66168877D01*
X71870094Y-66176442D01*
X71882626Y-66182827D01*
X71882630Y-66182829D01*
X71948700Y-66200532D01*
X71955005Y-66202400D01*
X72020072Y-66223542D01*
X72034063Y-66225012D01*
X72053500Y-66228613D01*
X72067096Y-66232257D01*
X72135407Y-66235836D01*
X72141963Y-66236353D01*
X72162386Y-66238500D01*
X72162390Y-66238500D01*
X72182925Y-66238500D01*
X72189518Y-66238672D01*
X72257809Y-66242252D01*
X72270737Y-66240204D01*
X72271706Y-66240051D01*
X72291415Y-66238500D01*
X78339584Y-66238500D01*
X78359293Y-66240051D01*
X78360402Y-66240226D01*
X78373190Y-66242252D01*
X78441480Y-66238672D01*
X78448074Y-66238500D01*
X78468613Y-66238500D01*
X78483077Y-66236979D01*
X78489039Y-66236352D01*
X78495589Y-66235837D01*
X78563903Y-66232257D01*
X78577494Y-66228614D01*
X78596938Y-66225012D01*
X78610928Y-66223542D01*
X78676014Y-66202393D01*
X78682299Y-66200532D01*
X78748370Y-66182829D01*
X78760910Y-66176439D01*
X78779162Y-66168878D01*
X78792556Y-66164527D01*
X78851799Y-66130321D01*
X78857584Y-66127181D01*
X78857590Y-66127178D01*
X78918530Y-66096129D01*
X78929467Y-66087272D01*
X78945764Y-66076072D01*
X78957944Y-66069040D01*
X79008768Y-66023278D01*
X79013765Y-66019008D01*
X79029741Y-66006072D01*
X79044282Y-65991529D01*
X79049043Y-65987013D01*
X79099866Y-65941253D01*
X79108136Y-65929868D01*
X79120972Y-65914839D01*
X86910908Y-58124904D01*
X86967388Y-58092295D01*
X87032610Y-58092295D01*
X87089094Y-58124907D01*
X87399019Y-58434832D01*
X87411859Y-58449864D01*
X87420134Y-58461253D01*
X87470979Y-58507034D01*
X87475725Y-58511538D01*
X87483902Y-58519715D01*
X87490258Y-58526071D01*
X87506212Y-58538991D01*
X87511223Y-58543271D01*
X87547488Y-58575923D01*
X87562056Y-58589040D01*
X87574242Y-58596076D01*
X87590526Y-58607267D01*
X87601470Y-58616129D01*
X87662441Y-58647195D01*
X87668207Y-58650326D01*
X87727444Y-58684527D01*
X87740827Y-58688875D01*
X87759084Y-58696437D01*
X87771630Y-58702830D01*
X87810020Y-58713116D01*
X87837694Y-58720531D01*
X87844021Y-58722405D01*
X87909072Y-58743542D01*
X87923065Y-58745012D01*
X87942501Y-58748613D01*
X87956097Y-58752257D01*
X88024406Y-58755836D01*
X88030930Y-58756349D01*
X88051390Y-58758500D01*
X88071926Y-58758500D01*
X88078519Y-58758672D01*
X88146810Y-58762252D01*
X88159093Y-58760306D01*
X88160708Y-58760051D01*
X88180416Y-58758500D01*
X89921497Y-58758500D01*
X89969715Y-58768091D01*
X90010592Y-58795405D01*
X98600719Y-67385532D01*
X98613559Y-67400564D01*
X98621834Y-67411953D01*
X98672679Y-67457734D01*
X98677425Y-67462238D01*
X98691958Y-67476771D01*
X98707912Y-67489691D01*
X98712923Y-67493971D01*
X98760076Y-67536427D01*
X98763756Y-67539740D01*
X98775942Y-67546776D01*
X98792229Y-67557969D01*
X98803170Y-67566829D01*
X98864109Y-67597878D01*
X98869910Y-67601027D01*
X98929144Y-67635227D01*
X98942535Y-67639577D01*
X98960794Y-67647142D01*
X98973326Y-67653527D01*
X98973330Y-67653529D01*
X99039400Y-67671232D01*
X99045705Y-67673100D01*
X99110772Y-67694242D01*
X99124763Y-67695712D01*
X99144200Y-67699313D01*
X99157796Y-67702957D01*
X99226107Y-67706536D01*
X99232663Y-67707053D01*
X99253086Y-67709200D01*
X99253090Y-67709200D01*
X99273625Y-67709200D01*
X99280218Y-67709372D01*
X99348509Y-67712952D01*
X99361437Y-67710904D01*
X99362406Y-67710751D01*
X99382115Y-67709200D01*
X105038597Y-67709200D01*
X105086815Y-67718791D01*
X105127692Y-67746105D01*
X106963805Y-69582218D01*
X106995204Y-69634474D01*
X106998395Y-69695355D01*
X106972631Y-69750607D01*
X106923943Y-69787296D01*
X106863729Y-69796834D01*
X106750000Y-69786884D01*
X106539344Y-69805314D01*
X106335090Y-69860043D01*
X106143440Y-69949411D01*
X105970220Y-70070701D01*
X105820701Y-70220220D01*
X105699411Y-70393440D01*
X105610043Y-70585090D01*
X105555314Y-70789344D01*
X105536884Y-70999999D01*
X105555314Y-71210655D01*
X105610043Y-71414909D01*
X105699411Y-71606559D01*
X105820701Y-71779779D01*
X105970220Y-71929298D01*
X105970223Y-71929300D01*
X105970224Y-71929301D01*
X106016108Y-71961429D01*
X106143440Y-72050588D01*
X106143441Y-72050588D01*
X106143442Y-72050589D01*
X106335090Y-72139956D01*
X106539345Y-72194686D01*
X106750000Y-72213116D01*
X106960655Y-72194686D01*
X107164910Y-72139956D01*
X107356558Y-72050589D01*
X107397124Y-72022184D01*
X107431502Y-72005232D01*
X107469391Y-71999400D01*
X110578584Y-71999400D01*
X110598293Y-72000951D01*
X110599402Y-72001126D01*
X110612190Y-72003152D01*
X110680480Y-71999572D01*
X110687074Y-71999400D01*
X110707613Y-71999400D01*
X110722077Y-71997879D01*
X110728039Y-71997252D01*
X110734589Y-71996737D01*
X110802903Y-71993157D01*
X110816494Y-71989514D01*
X110835938Y-71985912D01*
X110849928Y-71984442D01*
X110915014Y-71963293D01*
X110921299Y-71961432D01*
X110987370Y-71943729D01*
X110999910Y-71937339D01*
X111018162Y-71929778D01*
X111031556Y-71925427D01*
X111090799Y-71891221D01*
X111096584Y-71888081D01*
X111157530Y-71857029D01*
X111168467Y-71848172D01*
X111184764Y-71836972D01*
X111196944Y-71829940D01*
X111242029Y-71789345D01*
X111247768Y-71784178D01*
X111252765Y-71779908D01*
X111268741Y-71766972D01*
X111283282Y-71752429D01*
X111288028Y-71747926D01*
X111338866Y-71702153D01*
X111347136Y-71690768D01*
X111359972Y-71675739D01*
X112961539Y-70074172D01*
X112976568Y-70061336D01*
X112987953Y-70053066D01*
X113033726Y-70002228D01*
X113038229Y-69997482D01*
X113052772Y-69982941D01*
X113065708Y-69966965D01*
X113069973Y-69961971D01*
X113115740Y-69911144D01*
X113122769Y-69898966D01*
X113133969Y-69882670D01*
X113142829Y-69871731D01*
X113173885Y-69810776D01*
X113177024Y-69804994D01*
X113211227Y-69745756D01*
X113215578Y-69732362D01*
X113223139Y-69714110D01*
X113229529Y-69701570D01*
X113247232Y-69635498D01*
X113249093Y-69629214D01*
X113270242Y-69564128D01*
X113271712Y-69550137D01*
X113275314Y-69530695D01*
X113278957Y-69517104D01*
X113282536Y-69448794D01*
X113283053Y-69442237D01*
X113285200Y-69421814D01*
X113285200Y-69401275D01*
X113285373Y-69394681D01*
X113286720Y-69368976D01*
X113288952Y-69326391D01*
X113286751Y-69312494D01*
X113285200Y-69292785D01*
X113285200Y-68759110D01*
X113287570Y-68750000D01*
X113285200Y-68740890D01*
X113285200Y-61901803D01*
X113294791Y-61853585D01*
X113322105Y-61812708D01*
X115385760Y-59749053D01*
X121584839Y-53549972D01*
X121599868Y-53537136D01*
X121611253Y-53528866D01*
X121657026Y-53478028D01*
X121661529Y-53473282D01*
X121676072Y-53458741D01*
X121689008Y-53442765D01*
X121693278Y-53437768D01*
X121734402Y-53392095D01*
X121739040Y-53386944D01*
X121746073Y-53374760D01*
X121757265Y-53358475D01*
X121766129Y-53347530D01*
X121797196Y-53286557D01*
X121800324Y-53280795D01*
X121834527Y-53221556D01*
X121838873Y-53208177D01*
X121846437Y-53189915D01*
X121852830Y-53177370D01*
X121870531Y-53111302D01*
X121872402Y-53104986D01*
X121872735Y-53103961D01*
X121893542Y-53039928D01*
X121895012Y-53025937D01*
X121898614Y-53006494D01*
X121902257Y-52992903D01*
X121905837Y-52924589D01*
X121906353Y-52918035D01*
X121908500Y-52897613D01*
X121908500Y-52877074D01*
X121908673Y-52870480D01*
X121909092Y-52862477D01*
X121912252Y-52802190D01*
X121910051Y-52788293D01*
X121908500Y-52768584D01*
X121908500Y-52639734D01*
X121918673Y-52590134D01*
X121947550Y-52548544D01*
X121990467Y-52521678D01*
X122001687Y-52517493D01*
X122046204Y-52500889D01*
X122046204Y-52500888D01*
X122046206Y-52500888D01*
X122154259Y-52420000D01*
X123786884Y-52420000D01*
X123805314Y-52630655D01*
X123860043Y-52834909D01*
X123949411Y-53026559D01*
X124070701Y-53199779D01*
X124220220Y-53349298D01*
X124220223Y-53349300D01*
X124220224Y-53349301D01*
X124237368Y-53361305D01*
X124393440Y-53470588D01*
X124393441Y-53470588D01*
X124393442Y-53470589D01*
X124585090Y-53559956D01*
X124789345Y-53614686D01*
X125000000Y-53633116D01*
X125210655Y-53614686D01*
X125414910Y-53559956D01*
X125606558Y-53470589D01*
X125779776Y-53349301D01*
X125929301Y-53199776D01*
X126050589Y-53026558D01*
X126139956Y-52834910D01*
X126194686Y-52630655D01*
X126213116Y-52420000D01*
X126194686Y-52209345D01*
X126139956Y-52005090D01*
X126050589Y-51813442D01*
X126045989Y-51806873D01*
X125955309Y-51677367D01*
X125929301Y-51640224D01*
X125929300Y-51640223D01*
X125929298Y-51640220D01*
X125779779Y-51490701D01*
X125606559Y-51369411D01*
X125414909Y-51280043D01*
X125210655Y-51225314D01*
X125000000Y-51206884D01*
X124789344Y-51225314D01*
X124585090Y-51280043D01*
X124393440Y-51369411D01*
X124220220Y-51490701D01*
X124070701Y-51640220D01*
X123949411Y-51813440D01*
X123860043Y-52005090D01*
X123805314Y-52209344D01*
X123786884Y-52420000D01*
X122154259Y-52420000D01*
X122163261Y-52413261D01*
X122250888Y-52296205D01*
X122250887Y-52296205D01*
X122250889Y-52296204D01*
X122301989Y-52159201D01*
X122308500Y-52098638D01*
X122308500Y-50401362D01*
X122301989Y-50340799D01*
X122250889Y-50203796D01*
X122239670Y-50188809D01*
X122163261Y-50086738D01*
X122046206Y-49999111D01*
X121990467Y-49978322D01*
X121947550Y-49951456D01*
X121918673Y-49909866D01*
X121908500Y-49860266D01*
X121908500Y-48081416D01*
X121910051Y-48061707D01*
X121910204Y-48060738D01*
X121912252Y-48047810D01*
X121908673Y-47979519D01*
X121908500Y-47972925D01*
X121908500Y-47952386D01*
X121906353Y-47931963D01*
X121905836Y-47925407D01*
X121902257Y-47857096D01*
X121898613Y-47843500D01*
X121895012Y-47824062D01*
X121893542Y-47810073D01*
X121878903Y-47765021D01*
X121872400Y-47745005D01*
X121870529Y-47738689D01*
X121852829Y-47672630D01*
X121846442Y-47660094D01*
X121838877Y-47641835D01*
X121834527Y-47628444D01*
X121800327Y-47569209D01*
X121797178Y-47563409D01*
X121766129Y-47502470D01*
X121760273Y-47495238D01*
X121757269Y-47491529D01*
X121746076Y-47475242D01*
X121739040Y-47463056D01*
X121739039Y-47463055D01*
X121693271Y-47412223D01*
X121688991Y-47407212D01*
X121676071Y-47391258D01*
X121676070Y-47391257D01*
X121661538Y-47376725D01*
X121657034Y-47371979D01*
X121611253Y-47321134D01*
X121599864Y-47312859D01*
X121584832Y-47300019D01*
X115738670Y-41453857D01*
X115713570Y-41418012D01*
X115702244Y-41375743D01*
X115694686Y-41289345D01*
X115639956Y-41085090D01*
X115550589Y-40893442D01*
X115545391Y-40886019D01*
X115429298Y-40720220D01*
X115279779Y-40570701D01*
X115106559Y-40449411D01*
X114914909Y-40360043D01*
X114710655Y-40305314D01*
X114662020Y-40301059D01*
X114500000Y-40286884D01*
X114499999Y-40286884D01*
X114289344Y-40305314D01*
X114085090Y-40360043D01*
X113893440Y-40449411D01*
X113720220Y-40570701D01*
X113570701Y-40720220D01*
X113449411Y-40893440D01*
X113360043Y-41085090D01*
X113305314Y-41289344D01*
X113286884Y-41500000D01*
X113305314Y-41710655D01*
X113360043Y-41914909D01*
X113449411Y-42106559D01*
X113570701Y-42279779D01*
X113720220Y-42429298D01*
X113893440Y-42550588D01*
X113893441Y-42550588D01*
X113893442Y-42550589D01*
X114085090Y-42639956D01*
X114289345Y-42694686D01*
X114375744Y-42702244D01*
X114418012Y-42713570D01*
X114453857Y-42738670D01*
X120054595Y-48339408D01*
X120081909Y-48380285D01*
X120091500Y-48428503D01*
X120091500Y-49860266D01*
X120081327Y-49909866D01*
X120052450Y-49951456D01*
X120009533Y-49978322D01*
X119953793Y-49999111D01*
X119836738Y-50086738D01*
X119749111Y-50203794D01*
X119721900Y-50276750D01*
X119698011Y-50340799D01*
X119691500Y-50401362D01*
X119691500Y-52098638D01*
X119697747Y-52156750D01*
X119698011Y-52159200D01*
X119749111Y-52296205D01*
X119836738Y-52413261D01*
X119900582Y-52461054D01*
X119935661Y-52501537D01*
X119950752Y-52552933D01*
X119943129Y-52605954D01*
X119914168Y-52651017D01*
X112134495Y-60430692D01*
X112084336Y-60461430D01*
X112025689Y-60466046D01*
X111971339Y-60443533D01*
X111933133Y-60398800D01*
X111919400Y-60341597D01*
X111919400Y-38592316D01*
X111920951Y-38572608D01*
X111922336Y-38563861D01*
X111923152Y-38558710D01*
X111919572Y-38490419D01*
X111919400Y-38483826D01*
X111919400Y-38463295D01*
X111919400Y-38463290D01*
X111917249Y-38442830D01*
X111916736Y-38436306D01*
X111913157Y-38367997D01*
X111909513Y-38354401D01*
X111905912Y-38334963D01*
X111904442Y-38320973D01*
X111883305Y-38255921D01*
X111881431Y-38249594D01*
X111877329Y-38234284D01*
X111863730Y-38183530D01*
X111857337Y-38170984D01*
X111849775Y-38152727D01*
X111845427Y-38139344D01*
X111811226Y-38080107D01*
X111808095Y-38074341D01*
X111777029Y-38013370D01*
X111768167Y-38002426D01*
X111756976Y-37986142D01*
X111749940Y-37973956D01*
X111719405Y-37940043D01*
X111704171Y-37923123D01*
X111699891Y-37918112D01*
X111686971Y-37902158D01*
X111672438Y-37887625D01*
X111667934Y-37882879D01*
X111622153Y-37832034D01*
X111610764Y-37823759D01*
X111595732Y-37810919D01*
X110784813Y-37000000D01*
X113186502Y-37000000D01*
X113206457Y-37228087D01*
X113265715Y-37449243D01*
X113362477Y-37656750D01*
X113493804Y-37844303D01*
X113655696Y-38006195D01*
X113843249Y-38137522D01*
X114050756Y-38234284D01*
X114091085Y-38245090D01*
X114271913Y-38293543D01*
X114500000Y-38313498D01*
X114728087Y-38293543D01*
X114949243Y-38234284D01*
X115156749Y-38137523D01*
X115344300Y-38006198D01*
X115405095Y-37945402D01*
X115445969Y-37918091D01*
X115494188Y-37908500D01*
X121071497Y-37908500D01*
X121119715Y-37918091D01*
X121160592Y-37945405D01*
X128088357Y-44873170D01*
X128121970Y-44933653D01*
X128118575Y-45002766D01*
X128063776Y-45164199D01*
X128006016Y-45454576D01*
X127986654Y-45749999D01*
X128006016Y-46045423D01*
X128063776Y-46335800D01*
X128158938Y-46616141D01*
X128289886Y-46881675D01*
X128454364Y-47127835D01*
X128649572Y-47350427D01*
X128872164Y-47545635D01*
X129073396Y-47680093D01*
X129118327Y-47710115D01*
X129223306Y-47761885D01*
X129383858Y-47841061D01*
X129664199Y-47936223D01*
X129664201Y-47936223D01*
X129664203Y-47936224D01*
X129954574Y-47993983D01*
X130250000Y-48013346D01*
X130545426Y-47993983D01*
X130835797Y-47936224D01*
X130856192Y-47929301D01*
X131116141Y-47841061D01*
X131240408Y-47779779D01*
X131381673Y-47710115D01*
X131627838Y-47545633D01*
X131850427Y-47350427D01*
X132045633Y-47127838D01*
X132210115Y-46881673D01*
X132341059Y-46616145D01*
X132341058Y-46616145D01*
X132341061Y-46616141D01*
X132436223Y-46335800D01*
X132438555Y-46324077D01*
X132493983Y-46045426D01*
X132513346Y-45750000D01*
X132493983Y-45454574D01*
X132436224Y-45164203D01*
X132433338Y-45155700D01*
X132341061Y-44883858D01*
X132243735Y-44686502D01*
X132210115Y-44618327D01*
X132164966Y-44550756D01*
X132045635Y-44372164D01*
X131850427Y-44149572D01*
X131627835Y-43954364D01*
X131381675Y-43789886D01*
X131116141Y-43658938D01*
X130835800Y-43563776D01*
X130545423Y-43506016D01*
X130250000Y-43486654D01*
X129954576Y-43506016D01*
X129664199Y-43563776D01*
X129502766Y-43618575D01*
X129433653Y-43621970D01*
X129373170Y-43588357D01*
X122199977Y-36415164D01*
X122187135Y-36400129D01*
X122178866Y-36388747D01*
X122128020Y-36342965D01*
X122123272Y-36338459D01*
X122108741Y-36323928D01*
X122092774Y-36310997D01*
X122087776Y-36306728D01*
X122036946Y-36260961D01*
X122033291Y-36258851D01*
X122024757Y-36253923D01*
X122008471Y-36242730D01*
X121997530Y-36233871D01*
X121997529Y-36233870D01*
X121967645Y-36218644D01*
X121936571Y-36202811D01*
X121930806Y-36199681D01*
X121871556Y-36165473D01*
X121871557Y-36165473D01*
X121871553Y-36165471D01*
X121858167Y-36161122D01*
X121839906Y-36153558D01*
X121827370Y-36147171D01*
X121761305Y-36129468D01*
X121754988Y-36127597D01*
X121696955Y-36108741D01*
X121689926Y-36106457D01*
X121675923Y-36104985D01*
X121656493Y-36101384D01*
X121642901Y-36097742D01*
X121574600Y-36094162D01*
X121568031Y-36093645D01*
X121547614Y-36091500D01*
X121547610Y-36091500D01*
X121527074Y-36091500D01*
X121520480Y-36091327D01*
X121452190Y-36087748D01*
X121438293Y-36089949D01*
X121418584Y-36091500D01*
X115494188Y-36091500D01*
X115445969Y-36081909D01*
X115405095Y-36054597D01*
X115344300Y-35993802D01*
X115156749Y-35862477D01*
X115147719Y-35856154D01*
X115149068Y-35854227D01*
X115107417Y-35817703D01*
X115087682Y-35750000D01*
X115107417Y-35682297D01*
X115149068Y-35645772D01*
X115147719Y-35643846D01*
X115251312Y-35571309D01*
X115344300Y-35506198D01*
X115506198Y-35344300D01*
X115637523Y-35156749D01*
X115734284Y-34949243D01*
X115793543Y-34728087D01*
X115813498Y-34500000D01*
X115793543Y-34271913D01*
X115734284Y-34050757D01*
X115710615Y-33999999D01*
X115637522Y-33843249D01*
X115513040Y-33665471D01*
X115506198Y-33655700D01*
X115506197Y-33655699D01*
X115506195Y-33655696D01*
X115344303Y-33493804D01*
X115156750Y-33362477D01*
X114949243Y-33265715D01*
X114728087Y-33206457D01*
X114500000Y-33186502D01*
X114271912Y-33206457D01*
X114050756Y-33265715D01*
X113843249Y-33362477D01*
X113655696Y-33493804D01*
X113493804Y-33655696D01*
X113362477Y-33843249D01*
X113265715Y-34050756D01*
X113206457Y-34271912D01*
X113186502Y-34500000D01*
X113206457Y-34728087D01*
X113265715Y-34949243D01*
X113362477Y-35156750D01*
X113493804Y-35344303D01*
X113655696Y-35506195D01*
X113655699Y-35506197D01*
X113655700Y-35506198D01*
X113748688Y-35571309D01*
X113852281Y-35643846D01*
X113850932Y-35645772D01*
X113892584Y-35682300D01*
X113912317Y-35750000D01*
X113892584Y-35817700D01*
X113850932Y-35854227D01*
X113852281Y-35856154D01*
X113655696Y-35993804D01*
X113493804Y-36155696D01*
X113362477Y-36343249D01*
X113265715Y-36550756D01*
X113206457Y-36771912D01*
X113186502Y-37000000D01*
X110784813Y-37000000D01*
X108945405Y-35160592D01*
X108918091Y-35119715D01*
X108908500Y-35071497D01*
X108908500Y-34849210D01*
X108914332Y-34811321D01*
X108931287Y-34776939D01*
X108932865Y-34774686D01*
X109050589Y-34606558D01*
X109139956Y-34414910D01*
X109194686Y-34210655D01*
X109213116Y-34000000D01*
X109194686Y-33789345D01*
X109139956Y-33585090D01*
X109050589Y-33393442D01*
X109033715Y-33369344D01*
X108929298Y-33220220D01*
X108779779Y-33070701D01*
X108606559Y-32949411D01*
X108414909Y-32860043D01*
X108210655Y-32805314D01*
X108000000Y-32786884D01*
X107789344Y-32805314D01*
X107585090Y-32860043D01*
X107393440Y-32949411D01*
X107220220Y-33070701D01*
X107070701Y-33220220D01*
X106949411Y-33393440D01*
X106860043Y-33585090D01*
X106805314Y-33789344D01*
X106786884Y-33999999D01*
X106805314Y-34210655D01*
X106860043Y-34414909D01*
X106895862Y-34491722D01*
X106949411Y-34606558D01*
X107067134Y-34774685D01*
X107068713Y-34776939D01*
X107085668Y-34811321D01*
X107091500Y-34849210D01*
X107091500Y-35418584D01*
X107089949Y-35438293D01*
X107087748Y-35452190D01*
X107091327Y-35520480D01*
X107091500Y-35527074D01*
X107091500Y-35547614D01*
X107093645Y-35568031D01*
X107094162Y-35574600D01*
X107097742Y-35642901D01*
X107101384Y-35656493D01*
X107104985Y-35675923D01*
X107106457Y-35689926D01*
X107127595Y-35754982D01*
X107129468Y-35761305D01*
X107147171Y-35827370D01*
X107153558Y-35839906D01*
X107161122Y-35858167D01*
X107165471Y-35871553D01*
X107165473Y-35871556D01*
X107199681Y-35930806D01*
X107202811Y-35936571D01*
X107218644Y-35967645D01*
X107231972Y-35993804D01*
X107233871Y-35997530D01*
X107242730Y-36008471D01*
X107253926Y-36024761D01*
X107260961Y-36036946D01*
X107306728Y-36087776D01*
X107310997Y-36092774D01*
X107323928Y-36108741D01*
X107338459Y-36123272D01*
X107342965Y-36128020D01*
X107388747Y-36178866D01*
X107400132Y-36187137D01*
X107415164Y-36199977D01*
X110065495Y-38850308D01*
X110092809Y-38891185D01*
X110102400Y-38939403D01*
X110102400Y-40286996D01*
X110086868Y-40347601D01*
X110044100Y-40393263D01*
X109984641Y-40412726D01*
X109923150Y-40401191D01*
X109834909Y-40360043D01*
X109630655Y-40305314D01*
X109582020Y-40301059D01*
X109420000Y-40286884D01*
X109419999Y-40286884D01*
X109209344Y-40305314D01*
X109005090Y-40360043D01*
X108813440Y-40449411D01*
X108640220Y-40570701D01*
X108490701Y-40720220D01*
X108369411Y-40893440D01*
X108280043Y-41085090D01*
X108225314Y-41289344D01*
X108206884Y-41500000D01*
X108225314Y-41710655D01*
X108280043Y-41914909D01*
X108369411Y-42106559D01*
X108490701Y-42279779D01*
X108640220Y-42429298D01*
X108813440Y-42550588D01*
X108813441Y-42550588D01*
X108813442Y-42550589D01*
X109005090Y-42639956D01*
X109209345Y-42694686D01*
X109420000Y-42713116D01*
X109630655Y-42694686D01*
X109834910Y-42639956D01*
X109923149Y-42598809D01*
X109984641Y-42587274D01*
X110044100Y-42606737D01*
X110086868Y-42652399D01*
X110102400Y-42713004D01*
X110102400Y-67450524D01*
X110089406Y-67506252D01*
X110053104Y-67550487D01*
X110000981Y-67574103D01*
X109943790Y-67572231D01*
X109917272Y-67565125D01*
X109880649Y-67555312D01*
X109794253Y-67547753D01*
X109751985Y-67536427D01*
X109716141Y-67511328D01*
X107119977Y-64915164D01*
X107107135Y-64900129D01*
X107098866Y-64888747D01*
X107048020Y-64842965D01*
X107043272Y-64838459D01*
X107028741Y-64823928D01*
X107012774Y-64810997D01*
X107007776Y-64806728D01*
X106956946Y-64760961D01*
X106953291Y-64758851D01*
X106944757Y-64753923D01*
X106928471Y-64742730D01*
X106917530Y-64733871D01*
X106917529Y-64733870D01*
X106887645Y-64718644D01*
X106856571Y-64702811D01*
X106850806Y-64699681D01*
X106791556Y-64665473D01*
X106791557Y-64665473D01*
X106791553Y-64665471D01*
X106778167Y-64661122D01*
X106759906Y-64653558D01*
X106747370Y-64647171D01*
X106681305Y-64629468D01*
X106674988Y-64627597D01*
X106651535Y-64619976D01*
X106609926Y-64606457D01*
X106595923Y-64604985D01*
X106576493Y-64601384D01*
X106562901Y-64597742D01*
X106494600Y-64594162D01*
X106488031Y-64593645D01*
X106467614Y-64591500D01*
X106467610Y-64591500D01*
X106447074Y-64591500D01*
X106440480Y-64591327D01*
X106372190Y-64587748D01*
X106358293Y-64589949D01*
X106338584Y-64591500D01*
X99922703Y-64591500D01*
X99874485Y-64581909D01*
X99833608Y-64554595D01*
X99802608Y-64523595D01*
X99771870Y-64473436D01*
X99767254Y-64414789D01*
X99789767Y-64360439D01*
X99834500Y-64322233D01*
X99891703Y-64308500D01*
X100348638Y-64308500D01*
X100409201Y-64301989D01*
X100546204Y-64250889D01*
X100663261Y-64163261D01*
X100750889Y-64046204D01*
X100801989Y-63909201D01*
X100801989Y-63909194D01*
X100803210Y-63905923D01*
X100838753Y-63854731D01*
X100894482Y-63826835D01*
X100956764Y-63829059D01*
X101010361Y-63860860D01*
X101155696Y-64006195D01*
X101343249Y-64137522D01*
X101550756Y-64234284D01*
X101610014Y-64250162D01*
X101771913Y-64293543D01*
X102000000Y-64313498D01*
X102228087Y-64293543D01*
X102449243Y-64234284D01*
X102656749Y-64137523D01*
X102844300Y-64006198D01*
X103006198Y-63844300D01*
X103137523Y-63656749D01*
X103234284Y-63449243D01*
X103293543Y-63228087D01*
X103313498Y-63000000D01*
X103293543Y-62771913D01*
X103237218Y-62561707D01*
X103234284Y-62550756D01*
X103143979Y-62357097D01*
X103137523Y-62343251D01*
X103135340Y-62340134D01*
X103018426Y-62173164D01*
X103006198Y-62155700D01*
X103006197Y-62155699D01*
X103006195Y-62155696D01*
X102844303Y-61993804D01*
X102656750Y-61862477D01*
X102449243Y-61765715D01*
X102228087Y-61706457D01*
X102000000Y-61686502D01*
X101771912Y-61706457D01*
X101550756Y-61765715D01*
X101343249Y-61862477D01*
X101155699Y-61993802D01*
X101010361Y-62139140D01*
X100956764Y-62170940D01*
X100894482Y-62173164D01*
X100838753Y-62145268D01*
X100803210Y-62094076D01*
X100801989Y-62090803D01*
X100801989Y-62090799D01*
X100750889Y-61953796D01*
X100746373Y-61947763D01*
X100663261Y-61836738D01*
X100599416Y-61788944D01*
X100556869Y-61732108D01*
X100551805Y-61661293D01*
X100585828Y-61598983D01*
X102584839Y-59599972D01*
X102599868Y-59587136D01*
X102611253Y-59578866D01*
X102657026Y-59528028D01*
X102661529Y-59523282D01*
X102676072Y-59508741D01*
X102689008Y-59492765D01*
X102693278Y-59487768D01*
X102739038Y-59436946D01*
X102739037Y-59436946D01*
X102739040Y-59436944D01*
X102746073Y-59424760D01*
X102757265Y-59408475D01*
X102766129Y-59397530D01*
X102797196Y-59336557D01*
X102800324Y-59330795D01*
X102834527Y-59271556D01*
X102838873Y-59258177D01*
X102846437Y-59239915D01*
X102852830Y-59227370D01*
X102870531Y-59161302D01*
X102872402Y-59154986D01*
X102893542Y-59089928D01*
X102895012Y-59075937D01*
X102898614Y-59056494D01*
X102902257Y-59042903D01*
X102905837Y-58974589D01*
X102906353Y-58968035D01*
X102908500Y-58947613D01*
X102908500Y-58927074D01*
X102908673Y-58920480D01*
X102908899Y-58916173D01*
X102912252Y-58852190D01*
X102910051Y-58838293D01*
X102908500Y-58818584D01*
X102908500Y-45994188D01*
X102918091Y-45945969D01*
X102945402Y-45905095D01*
X103006198Y-45844300D01*
X103137523Y-45656749D01*
X103234284Y-45449243D01*
X103293543Y-45228087D01*
X103313498Y-45000000D01*
X103293543Y-44771913D01*
X103234284Y-44550757D01*
X103137523Y-44343251D01*
X103006198Y-44155700D01*
X103006197Y-44155699D01*
X103006195Y-44155696D01*
X102844303Y-43993804D01*
X102656750Y-43862477D01*
X102449243Y-43765715D01*
X102228087Y-43706457D01*
X102000000Y-43686502D01*
X101771912Y-43706457D01*
X101550757Y-43765715D01*
X101343249Y-43862478D01*
X101337787Y-43866303D01*
X101277826Y-43888485D01*
X101214697Y-43878382D01*
X101164652Y-43838596D01*
X101163261Y-43836738D01*
X101046205Y-43749111D01*
X100977702Y-43723560D01*
X100909201Y-43698011D01*
X100848638Y-43691500D01*
X99151362Y-43691500D01*
X99090799Y-43698011D01*
X98953794Y-43749111D01*
X98836738Y-43836738D01*
X98788943Y-43900584D01*
X98732107Y-43943129D01*
X98661292Y-43948193D01*
X98598981Y-43914168D01*
X93764813Y-39080000D01*
X106786884Y-39080000D01*
X106805314Y-39290655D01*
X106860043Y-39494909D01*
X106949411Y-39686559D01*
X107070701Y-39859779D01*
X107220220Y-40009298D01*
X107393440Y-40130588D01*
X107393441Y-40130588D01*
X107393442Y-40130589D01*
X107585090Y-40219956D01*
X107789345Y-40274686D01*
X108000000Y-40293116D01*
X108210655Y-40274686D01*
X108414910Y-40219956D01*
X108606558Y-40130589D01*
X108779776Y-40009301D01*
X108929301Y-39859776D01*
X109050589Y-39686558D01*
X109139956Y-39494910D01*
X109194686Y-39290655D01*
X109213116Y-39080000D01*
X109194686Y-38869345D01*
X109139956Y-38665090D01*
X109050589Y-38473442D01*
X109033715Y-38449344D01*
X108953625Y-38334963D01*
X108929301Y-38300224D01*
X108929300Y-38300223D01*
X108929298Y-38300220D01*
X108779779Y-38150701D01*
X108606559Y-38029411D01*
X108414909Y-37940043D01*
X108210655Y-37885314D01*
X108152476Y-37880224D01*
X108000000Y-37866884D01*
X107999999Y-37866884D01*
X107789344Y-37885314D01*
X107585090Y-37940043D01*
X107393440Y-38029411D01*
X107220220Y-38150701D01*
X107070701Y-38300220D01*
X106949411Y-38473440D01*
X106860043Y-38665090D01*
X106805314Y-38869344D01*
X106786884Y-39080000D01*
X93764813Y-39080000D01*
X88599977Y-33915164D01*
X88587135Y-33900129D01*
X88578866Y-33888747D01*
X88528020Y-33842965D01*
X88523272Y-33838459D01*
X88508741Y-33823928D01*
X88492774Y-33810997D01*
X88487776Y-33806728D01*
X88436946Y-33760961D01*
X88433291Y-33758851D01*
X88424757Y-33753923D01*
X88408471Y-33742730D01*
X88397530Y-33733871D01*
X88397529Y-33733870D01*
X88351965Y-33710655D01*
X88336571Y-33702811D01*
X88330806Y-33699681D01*
X88271556Y-33665473D01*
X88271557Y-33665473D01*
X88271553Y-33665471D01*
X88258167Y-33661122D01*
X88239906Y-33653558D01*
X88227370Y-33647171D01*
X88161305Y-33629468D01*
X88154988Y-33627597D01*
X88131535Y-33619976D01*
X88089926Y-33606457D01*
X88075923Y-33604985D01*
X88056493Y-33601384D01*
X88042901Y-33597742D01*
X87974600Y-33594162D01*
X87968031Y-33593645D01*
X87947614Y-33591500D01*
X87947610Y-33591500D01*
X87927074Y-33591500D01*
X87920480Y-33591327D01*
X87852190Y-33587748D01*
X87838293Y-33589949D01*
X87818584Y-33591500D01*
X75436961Y-33591500D01*
X75377161Y-33576405D01*
X75331689Y-33534738D01*
X75311440Y-33476482D01*
X75309626Y-33455743D01*
X75293543Y-33271913D01*
X75239628Y-33070701D01*
X75234284Y-33050756D01*
X75137522Y-32843249D01*
X75006195Y-32655696D01*
X74844303Y-32493804D01*
X74656750Y-32362477D01*
X74449243Y-32265715D01*
X74228087Y-32206457D01*
X74000000Y-32186502D01*
X73771912Y-32206457D01*
X73550756Y-32265715D01*
X73343249Y-32362477D01*
X73155696Y-32493804D01*
X72993804Y-32655696D01*
X72862477Y-32843249D01*
X72765715Y-33050756D01*
X72706457Y-33271912D01*
X72686502Y-33500000D01*
X72706457Y-33728087D01*
X72765715Y-33949243D01*
X72862477Y-34156749D01*
X72882538Y-34185399D01*
X72903995Y-34239408D01*
X72898930Y-34297303D01*
X72868420Y-34346765D01*
X61839310Y-45375875D01*
X61788101Y-45406949D01*
X61728329Y-45410865D01*
X61673503Y-45386736D01*
X61645132Y-45351380D01*
X61643846Y-45352281D01*
X61506195Y-45155696D01*
X61344303Y-44993804D01*
X61156750Y-44862477D01*
X60949243Y-44765715D01*
X60728087Y-44706457D01*
X60500000Y-44686502D01*
X60271912Y-44706457D01*
X60050756Y-44765715D01*
X59843249Y-44862477D01*
X59655696Y-44993804D01*
X59623595Y-45025906D01*
X59573436Y-45056644D01*
X59514789Y-45061260D01*
X59460439Y-45038747D01*
X59422233Y-44994014D01*
X59408500Y-44936811D01*
X59408500Y-43581415D01*
X59410051Y-43561706D01*
X59410204Y-43560737D01*
X59412252Y-43547809D01*
X59408672Y-43479518D01*
X59408500Y-43472925D01*
X59408500Y-43452386D01*
X59406353Y-43431963D01*
X59405836Y-43425407D01*
X59402257Y-43357096D01*
X59398613Y-43343500D01*
X59395012Y-43324062D01*
X59393542Y-43310073D01*
X59390915Y-43301989D01*
X59372400Y-43245005D01*
X59370529Y-43238689D01*
X59352829Y-43172630D01*
X59352827Y-43172626D01*
X59346442Y-43160094D01*
X59338877Y-43141835D01*
X59334527Y-43128444D01*
X59300327Y-43069209D01*
X59297178Y-43063409D01*
X59266129Y-43002470D01*
X59266128Y-43002469D01*
X59257269Y-42991529D01*
X59246076Y-42975242D01*
X59239040Y-42963056D01*
X59198554Y-42918091D01*
X59193271Y-42912223D01*
X59188991Y-42907212D01*
X59176071Y-42891258D01*
X59161538Y-42876725D01*
X59157034Y-42871979D01*
X59111253Y-42821134D01*
X59099864Y-42812859D01*
X59084832Y-42800019D01*
X57699977Y-41415164D01*
X57687135Y-41400129D01*
X57678866Y-41388747D01*
X57628020Y-41342965D01*
X57623272Y-41338459D01*
X57608741Y-41323928D01*
X57592774Y-41310997D01*
X57587776Y-41306728D01*
X57536946Y-41260961D01*
X57533291Y-41258851D01*
X57524757Y-41253923D01*
X57508471Y-41242730D01*
X57497530Y-41233871D01*
X57497529Y-41233870D01*
X57467645Y-41218644D01*
X57436571Y-41202811D01*
X57430806Y-41199681D01*
X57371556Y-41165473D01*
X57371557Y-41165473D01*
X57371553Y-41165471D01*
X57358167Y-41161122D01*
X57339906Y-41153558D01*
X57327370Y-41147171D01*
X57261305Y-41129468D01*
X57254988Y-41127597D01*
X57231535Y-41119976D01*
X57189926Y-41106457D01*
X57175923Y-41104985D01*
X57156493Y-41101384D01*
X57142901Y-41097742D01*
X57074600Y-41094162D01*
X57068031Y-41093645D01*
X57047614Y-41091500D01*
X57047610Y-41091500D01*
X57027074Y-41091500D01*
X57020480Y-41091327D01*
X56952190Y-41087748D01*
X56938293Y-41089949D01*
X56918584Y-41091500D01*
X55330964Y-41091500D01*
X55275237Y-41078507D01*
X55231003Y-41042206D01*
X55207386Y-40990085D01*
X55209256Y-40932894D01*
X55213032Y-40918798D01*
X55214902Y-40912486D01*
X55221090Y-40893442D01*
X55236042Y-40847428D01*
X55237512Y-40833437D01*
X55241114Y-40813994D01*
X55244757Y-40800403D01*
X55248337Y-40732089D01*
X55248853Y-40725535D01*
X55251000Y-40705113D01*
X55251000Y-40684574D01*
X55251173Y-40677980D01*
X55252388Y-40654797D01*
X55254752Y-40609690D01*
X55252551Y-40595792D01*
X55251000Y-40576084D01*
X55251000Y-35003916D01*
X55252551Y-34984208D01*
X55252806Y-34982593D01*
X55254752Y-34970310D01*
X55251172Y-34902019D01*
X55251000Y-34895426D01*
X55251000Y-34874895D01*
X55251000Y-34874890D01*
X55248849Y-34854430D01*
X55248336Y-34847906D01*
X55244757Y-34779597D01*
X55241113Y-34766001D01*
X55237512Y-34746563D01*
X55236042Y-34732573D01*
X55234584Y-34728087D01*
X55214905Y-34667521D01*
X55213031Y-34661194D01*
X55208130Y-34642903D01*
X55195330Y-34595130D01*
X55188937Y-34582584D01*
X55181375Y-34564327D01*
X55177027Y-34550944D01*
X55176821Y-34550588D01*
X55169118Y-34537245D01*
X55142826Y-34491707D01*
X55139695Y-34485941D01*
X55108629Y-34424970D01*
X55099767Y-34414026D01*
X55088576Y-34397742D01*
X55081540Y-34385556D01*
X55046613Y-34346765D01*
X55035771Y-34334723D01*
X55031491Y-34329712D01*
X55018571Y-34313758D01*
X55004038Y-34299225D01*
X54999534Y-34294479D01*
X54953753Y-34243634D01*
X54942364Y-34235359D01*
X54927332Y-34222519D01*
X54238670Y-33533857D01*
X54213570Y-33498012D01*
X54202244Y-33455743D01*
X54201951Y-33452390D01*
X54194686Y-33369345D01*
X54139956Y-33165090D01*
X54050589Y-32973442D01*
X54033762Y-32949411D01*
X53929298Y-32800220D01*
X53779779Y-32650701D01*
X53606559Y-32529411D01*
X53414909Y-32440043D01*
X53210655Y-32385314D01*
X53000000Y-32366884D01*
X52789344Y-32385314D01*
X52585090Y-32440043D01*
X52393440Y-32529411D01*
X52220220Y-32650701D01*
X52070701Y-32800220D01*
X51949411Y-32973440D01*
X51860043Y-33165090D01*
X51805314Y-33369344D01*
X51786884Y-33580000D01*
X51805314Y-33790655D01*
X51860043Y-33994909D01*
X51949411Y-34186559D01*
X52070701Y-34359779D01*
X52220220Y-34509298D01*
X52393440Y-34630588D01*
X52393441Y-34630588D01*
X52393442Y-34630589D01*
X52585090Y-34719956D01*
X52789345Y-34774686D01*
X52875744Y-34782244D01*
X52918012Y-34793570D01*
X52953857Y-34818670D01*
X53397095Y-35261908D01*
X53424409Y-35302785D01*
X53434000Y-35351003D01*
X53434000Y-37360953D01*
X53421006Y-37416682D01*
X53384704Y-37460916D01*
X53332581Y-37484532D01*
X53275388Y-37482659D01*
X53210659Y-37465314D01*
X53000000Y-37446884D01*
X52789344Y-37465314D01*
X52585090Y-37520043D01*
X52393440Y-37609411D01*
X52220220Y-37730701D01*
X52070701Y-37880220D01*
X51949411Y-38053440D01*
X51860043Y-38245090D01*
X51805314Y-38449344D01*
X51786884Y-38659999D01*
X51805314Y-38870655D01*
X51860043Y-39074909D01*
X51923315Y-39210595D01*
X51934760Y-39273365D01*
X51913987Y-39333694D01*
X51866324Y-39376111D01*
X51831468Y-39393871D01*
X51820523Y-39402733D01*
X51804248Y-39413919D01*
X51792059Y-39420957D01*
X51741223Y-39466728D01*
X51736216Y-39471004D01*
X51720259Y-39483927D01*
X51705729Y-39498456D01*
X51700949Y-39502991D01*
X51650136Y-39548743D01*
X51641860Y-39560134D01*
X51629022Y-39575163D01*
X50994363Y-40209822D01*
X50979334Y-40222660D01*
X50967943Y-40230936D01*
X50922191Y-40281749D01*
X50917656Y-40286529D01*
X50903127Y-40301059D01*
X50890204Y-40317016D01*
X50885928Y-40322023D01*
X50840157Y-40372859D01*
X50833119Y-40385048D01*
X50821933Y-40401323D01*
X50813070Y-40412269D01*
X50782014Y-40473220D01*
X50778867Y-40479017D01*
X50744671Y-40538245D01*
X50740318Y-40551641D01*
X50732759Y-40569889D01*
X50726372Y-40582426D01*
X50708672Y-40648478D01*
X50706800Y-40654797D01*
X50685657Y-40719872D01*
X50684185Y-40733877D01*
X50680583Y-40753309D01*
X50676942Y-40766895D01*
X50673362Y-40835199D01*
X50672845Y-40841766D01*
X50670700Y-40862185D01*
X50670700Y-40882726D01*
X50670527Y-40889320D01*
X50666948Y-40957609D01*
X50669149Y-40971507D01*
X50670700Y-40991216D01*
X50670700Y-52497784D01*
X50669149Y-52517493D01*
X50666948Y-52531389D01*
X50666948Y-52531390D01*
X50668031Y-52552064D01*
X50670527Y-52599680D01*
X50670700Y-52606274D01*
X50670700Y-52626814D01*
X50672845Y-52647231D01*
X50673362Y-52653800D01*
X50676942Y-52722101D01*
X50680584Y-52735693D01*
X50684185Y-52755123D01*
X50685657Y-52769126D01*
X50706795Y-52834182D01*
X50708668Y-52840505D01*
X50726371Y-52906570D01*
X50732758Y-52919106D01*
X50740322Y-52937367D01*
X50744671Y-52950753D01*
X50744673Y-52950756D01*
X50778881Y-53010006D01*
X50782011Y-53015771D01*
X50813071Y-53076730D01*
X50821930Y-53087671D01*
X50833123Y-53103957D01*
X50835524Y-53108114D01*
X50840161Y-53116146D01*
X50885928Y-53166976D01*
X50890197Y-53171974D01*
X50903128Y-53187941D01*
X50917659Y-53202472D01*
X50922165Y-53207220D01*
X50967947Y-53258066D01*
X50979332Y-53266337D01*
X50994364Y-53279177D01*
X54151323Y-56436136D01*
X54176423Y-56471981D01*
X54187748Y-56514246D01*
X54204885Y-56710115D01*
X54206457Y-56728087D01*
X54265715Y-56949243D01*
X54362477Y-57156750D01*
X54428139Y-57250524D01*
X54493802Y-57344300D01*
X54554597Y-57405095D01*
X54581909Y-57445969D01*
X54591500Y-57494188D01*
X54591500Y-69071497D01*
X54581909Y-69119715D01*
X54554597Y-69160589D01*
X54453627Y-69261560D01*
X54379886Y-69335301D01*
X54319135Y-69368976D01*
X54249769Y-69365340D01*
X54192870Y-69325499D01*
X54165730Y-69261560D01*
X54176595Y-69192956D01*
X54234284Y-69069243D01*
X54293543Y-68848087D01*
X54313498Y-68620000D01*
X54293543Y-68391913D01*
X54234284Y-68170757D01*
X54217076Y-68133855D01*
X54149740Y-67989451D01*
X54137523Y-67963251D01*
X54006198Y-67775700D01*
X54006197Y-67775699D01*
X54006195Y-67775696D01*
X53844303Y-67613804D01*
X53656750Y-67482477D01*
X53449243Y-67385715D01*
X53228087Y-67326457D01*
X53000000Y-67306502D01*
X52771912Y-67326457D01*
X52550756Y-67385715D01*
X52343249Y-67482477D01*
X52155696Y-67613804D01*
X51993804Y-67775696D01*
X51862477Y-67963249D01*
X51765715Y-68170756D01*
X51706457Y-68391912D01*
X51686502Y-68620000D01*
X51706457Y-68848087D01*
X51765715Y-69069243D01*
X51862477Y-69276750D01*
X51909777Y-69344300D01*
X51993802Y-69464300D01*
X52054597Y-69525095D01*
X52081909Y-69565969D01*
X52091500Y-69614188D01*
X52091500Y-69658097D01*
X52081909Y-69706315D01*
X52054597Y-69747189D01*
X51183592Y-70618193D01*
X51133436Y-70648929D01*
X51074789Y-70653545D01*
X51020439Y-70631032D01*
X50982233Y-70586299D01*
X50968500Y-70529096D01*
X50968500Y-65968503D01*
X50978091Y-65920285D01*
X51005405Y-65879408D01*
X51606135Y-65278678D01*
X53584839Y-63299972D01*
X53599868Y-63287136D01*
X53611253Y-63278866D01*
X53657026Y-63228028D01*
X53661529Y-63223282D01*
X53676072Y-63208741D01*
X53689008Y-63192765D01*
X53693278Y-63187768D01*
X53739038Y-63136946D01*
X53739037Y-63136946D01*
X53739040Y-63136944D01*
X53746073Y-63124760D01*
X53757265Y-63108475D01*
X53766129Y-63097530D01*
X53797196Y-63036557D01*
X53800324Y-63030795D01*
X53834527Y-62971556D01*
X53838873Y-62958177D01*
X53846437Y-62939915D01*
X53852830Y-62927370D01*
X53870531Y-62861302D01*
X53872402Y-62854986D01*
X53876784Y-62841500D01*
X53893542Y-62789928D01*
X53895012Y-62775937D01*
X53898614Y-62756494D01*
X53902257Y-62742903D01*
X53905837Y-62674589D01*
X53906353Y-62668035D01*
X53908500Y-62647613D01*
X53908500Y-62627074D01*
X53908673Y-62620480D01*
X53910720Y-62581416D01*
X53912252Y-62552190D01*
X53910051Y-62538293D01*
X53908500Y-62518584D01*
X53908500Y-62389734D01*
X53918673Y-62340134D01*
X53947550Y-62298544D01*
X53990467Y-62271678D01*
X54046204Y-62250889D01*
X54046204Y-62250888D01*
X54046206Y-62250888D01*
X54163261Y-62163261D01*
X54168924Y-62155696D01*
X54250889Y-62046204D01*
X54301989Y-61909201D01*
X54308500Y-61848638D01*
X54308500Y-60151362D01*
X54301989Y-60090799D01*
X54250889Y-59953796D01*
X54250888Y-59953794D01*
X54163261Y-59836738D01*
X54046205Y-59749111D01*
X53959412Y-59716739D01*
X53909201Y-59698011D01*
X53848638Y-59691500D01*
X52151362Y-59691500D01*
X52090799Y-59698011D01*
X51953794Y-59749111D01*
X51836738Y-59836738D01*
X51749111Y-59953794D01*
X51717034Y-60039797D01*
X51698011Y-60090799D01*
X51691500Y-60151362D01*
X51691500Y-61848638D01*
X51698011Y-61909201D01*
X51714644Y-61953796D01*
X51749111Y-62046205D01*
X51836738Y-62163261D01*
X51900582Y-62211054D01*
X51935661Y-62251537D01*
X51950752Y-62302933D01*
X51943129Y-62355954D01*
X51914168Y-62401017D01*
X49475163Y-64840022D01*
X49460134Y-64852860D01*
X49448743Y-64861136D01*
X49402991Y-64911949D01*
X49398456Y-64916729D01*
X49383927Y-64931259D01*
X49371004Y-64947216D01*
X49366728Y-64952223D01*
X49320957Y-65003059D01*
X49313919Y-65015248D01*
X49302733Y-65031523D01*
X49293870Y-65042469D01*
X49262814Y-65103420D01*
X49259667Y-65109217D01*
X49225471Y-65168445D01*
X49221118Y-65181841D01*
X49213559Y-65200089D01*
X49207172Y-65212626D01*
X49189472Y-65278678D01*
X49187600Y-65284997D01*
X49166457Y-65350072D01*
X49164985Y-65364077D01*
X49161383Y-65383509D01*
X49157742Y-65397095D01*
X49154162Y-65465399D01*
X49153645Y-65471966D01*
X49151500Y-65492385D01*
X49151500Y-65512926D01*
X49151327Y-65519520D01*
X49147748Y-65587809D01*
X49149949Y-65601707D01*
X49151500Y-65621416D01*
X49151500Y-72841497D01*
X49141909Y-72889715D01*
X49114597Y-72930589D01*
X47807873Y-74237313D01*
X47373293Y-74671893D01*
X47319984Y-74703608D01*
X47258000Y-74706043D01*
X47241920Y-74702625D01*
X47229183Y-74699212D01*
X47189927Y-74686457D01*
X47148874Y-74682141D01*
X47135855Y-74680079D01*
X47095489Y-74671500D01*
X47095487Y-74671500D01*
X47047610Y-74671500D01*
X46008503Y-74671500D01*
X45960285Y-74661909D01*
X45919408Y-74634595D01*
X43284813Y-72000000D01*
X45786884Y-72000000D01*
X45805314Y-72210655D01*
X45860043Y-72414909D01*
X45949411Y-72606559D01*
X46070701Y-72779779D01*
X46220220Y-72929298D01*
X46393440Y-73050588D01*
X46393441Y-73050588D01*
X46393442Y-73050589D01*
X46585090Y-73139956D01*
X46789345Y-73194686D01*
X47000000Y-73213116D01*
X47210655Y-73194686D01*
X47414910Y-73139956D01*
X47606558Y-73050589D01*
X47779776Y-72929301D01*
X47929301Y-72779776D01*
X48050589Y-72606558D01*
X48139956Y-72414910D01*
X48194686Y-72210655D01*
X48213116Y-72000000D01*
X48194686Y-71789345D01*
X48139956Y-71585090D01*
X48050589Y-71393442D01*
X47929301Y-71220224D01*
X47929300Y-71220223D01*
X47929298Y-71220220D01*
X47779779Y-71070701D01*
X47606559Y-70949411D01*
X47414909Y-70860043D01*
X47210655Y-70805314D01*
X47210654Y-70805313D01*
X47000000Y-70786884D01*
X46999999Y-70786884D01*
X46789344Y-70805314D01*
X46585090Y-70860043D01*
X46393440Y-70949411D01*
X46220220Y-71070701D01*
X46070701Y-71220220D01*
X45949411Y-71393440D01*
X45860043Y-71585090D01*
X45805314Y-71789344D01*
X45786884Y-72000000D01*
X43284813Y-72000000D01*
X41161642Y-69876829D01*
X41128028Y-69816346D01*
X41131424Y-69747232D01*
X41186224Y-69585797D01*
X41243983Y-69295426D01*
X41263346Y-69000000D01*
X41243983Y-68704574D01*
X41186224Y-68414203D01*
X41178658Y-68391913D01*
X41091061Y-68133858D01*
X41006925Y-67963249D01*
X40960115Y-67868327D01*
X40943360Y-67843251D01*
X40795635Y-67622164D01*
X40600427Y-67399572D01*
X40377835Y-67204364D01*
X40131675Y-67039886D01*
X39866141Y-66908938D01*
X39585800Y-66813776D01*
X39295423Y-66756016D01*
X39000000Y-66736654D01*
X38704576Y-66756016D01*
X38414199Y-66813776D01*
X38133858Y-66908938D01*
X37868324Y-67039886D01*
X37622164Y-67204364D01*
X37399572Y-67399572D01*
X37204364Y-67622164D01*
X37039886Y-67868324D01*
X36908938Y-68133858D01*
X36813776Y-68414199D01*
X36756016Y-68704576D01*
X36736654Y-68999999D01*
X35025500Y-68999999D01*
X35025500Y-55000000D01*
X36236654Y-55000000D01*
X36256016Y-55295423D01*
X36313776Y-55585800D01*
X36408938Y-55866141D01*
X36539886Y-56131675D01*
X36704364Y-56377835D01*
X36899572Y-56600427D01*
X37122164Y-56795635D01*
X37334926Y-56937797D01*
X37368327Y-56960115D01*
X37521229Y-57035518D01*
X37572500Y-57081988D01*
X37591500Y-57148524D01*
X37591500Y-58318584D01*
X37589949Y-58338293D01*
X37587748Y-58352190D01*
X37591327Y-58420480D01*
X37591500Y-58427074D01*
X37591500Y-58447614D01*
X37593645Y-58468031D01*
X37594162Y-58474600D01*
X37597742Y-58542901D01*
X37601384Y-58556493D01*
X37604985Y-58575923D01*
X37606457Y-58589926D01*
X37627595Y-58654982D01*
X37629468Y-58661305D01*
X37647171Y-58727370D01*
X37653558Y-58739906D01*
X37661122Y-58758167D01*
X37665471Y-58771553D01*
X37665473Y-58771556D01*
X37699681Y-58830806D01*
X37702811Y-58836571D01*
X37733871Y-58897530D01*
X37742730Y-58908471D01*
X37753923Y-58924757D01*
X37755261Y-58927074D01*
X37760961Y-58936946D01*
X37806728Y-58987776D01*
X37810997Y-58992774D01*
X37823928Y-59008741D01*
X37838459Y-59023272D01*
X37842965Y-59028020D01*
X37888747Y-59078866D01*
X37900132Y-59087137D01*
X37915164Y-59099977D01*
X46054595Y-67239408D01*
X46081909Y-67280285D01*
X46091500Y-67328503D01*
X46091500Y-67505812D01*
X46081909Y-67554031D01*
X46054597Y-67594904D01*
X46014277Y-67635225D01*
X45993802Y-67655700D01*
X45862477Y-67843249D01*
X45765715Y-68050756D01*
X45706457Y-68271912D01*
X45686502Y-68500000D01*
X45706457Y-68728087D01*
X45765715Y-68949243D01*
X45862477Y-69156750D01*
X45993804Y-69344303D01*
X46155696Y-69506195D01*
X46155699Y-69506197D01*
X46155700Y-69506198D01*
X46185321Y-69526939D01*
X46343249Y-69637522D01*
X46550756Y-69734284D01*
X46593582Y-69745759D01*
X46771913Y-69793543D01*
X47000000Y-69813498D01*
X47228087Y-69793543D01*
X47449243Y-69734284D01*
X47656749Y-69637523D01*
X47844300Y-69506198D01*
X48006198Y-69344300D01*
X48137523Y-69156749D01*
X48234284Y-68949243D01*
X48293543Y-68728087D01*
X48313498Y-68500000D01*
X48293543Y-68271913D01*
X48234284Y-68050757D01*
X48137523Y-67843251D01*
X48121733Y-67820701D01*
X48069500Y-67746105D01*
X48006198Y-67655700D01*
X47945402Y-67594904D01*
X47918091Y-67554031D01*
X47908500Y-67505812D01*
X47908500Y-66981415D01*
X47910051Y-66961706D01*
X47910204Y-66960737D01*
X47912252Y-66947809D01*
X47908672Y-66879518D01*
X47908500Y-66872925D01*
X47908500Y-66852386D01*
X47906353Y-66831963D01*
X47905836Y-66825407D01*
X47902257Y-66757096D01*
X47898613Y-66743500D01*
X47895012Y-66724062D01*
X47893542Y-66710073D01*
X47875034Y-66653113D01*
X47872400Y-66645005D01*
X47870529Y-66638689D01*
X47852829Y-66572630D01*
X47846442Y-66560094D01*
X47838877Y-66541835D01*
X47834527Y-66528444D01*
X47800327Y-66469209D01*
X47797178Y-66463409D01*
X47766129Y-66402470D01*
X47766128Y-66402469D01*
X47757269Y-66391529D01*
X47746076Y-66375242D01*
X47739040Y-66363056D01*
X47739039Y-66363055D01*
X47693271Y-66312223D01*
X47688991Y-66307212D01*
X47676071Y-66291258D01*
X47676070Y-66291257D01*
X47661538Y-66276725D01*
X47657034Y-66271979D01*
X47611253Y-66221134D01*
X47599864Y-66212859D01*
X47584832Y-66200019D01*
X39445405Y-58060592D01*
X39418091Y-58019715D01*
X39408500Y-57971497D01*
X39408500Y-57148524D01*
X39427500Y-57081988D01*
X39478771Y-57035518D01*
X39631673Y-56960115D01*
X39877838Y-56795633D01*
X40100427Y-56600427D01*
X40295633Y-56377838D01*
X40460115Y-56131673D01*
X40591059Y-55866145D01*
X40591058Y-55866145D01*
X40591061Y-55866141D01*
X40686223Y-55585800D01*
X40686224Y-55585797D01*
X40743983Y-55295426D01*
X40763346Y-55000000D01*
X40743983Y-54704574D01*
X40686224Y-54414203D01*
X40686223Y-54414199D01*
X40591061Y-54133858D01*
X40518021Y-53985749D01*
X40460115Y-53868327D01*
X40414445Y-53799977D01*
X40295635Y-53622164D01*
X40100427Y-53399572D01*
X39877835Y-53204364D01*
X39631675Y-53039886D01*
X39366141Y-52908938D01*
X39085800Y-52813776D01*
X38795423Y-52756016D01*
X38500000Y-52736654D01*
X38204576Y-52756016D01*
X37914199Y-52813776D01*
X37633858Y-52908938D01*
X37368324Y-53039886D01*
X37122164Y-53204364D01*
X36899572Y-53399572D01*
X36704364Y-53622164D01*
X36539886Y-53868324D01*
X36408938Y-54133858D01*
X36313776Y-54414199D01*
X36256016Y-54704576D01*
X36236654Y-55000000D01*
X35025500Y-55000000D01*
X35025500Y-41749999D01*
X35986654Y-41749999D01*
X36006016Y-42045423D01*
X36063776Y-42335800D01*
X36158938Y-42616141D01*
X36289886Y-42881675D01*
X36454364Y-43127835D01*
X36649572Y-43350427D01*
X36872164Y-43545635D01*
X37090468Y-43691500D01*
X37118327Y-43710115D01*
X37197403Y-43749111D01*
X37383858Y-43841061D01*
X37664199Y-43936223D01*
X37664201Y-43936223D01*
X37664203Y-43936224D01*
X37954574Y-43993983D01*
X38250000Y-44013346D01*
X38545426Y-43993983D01*
X38835797Y-43936224D01*
X38835800Y-43936223D01*
X39116141Y-43841061D01*
X39124907Y-43836738D01*
X39381673Y-43710115D01*
X39627838Y-43545633D01*
X39850427Y-43350427D01*
X40045633Y-43127838D01*
X40210115Y-42881673D01*
X40210115Y-42881672D01*
X40210117Y-42881670D01*
X40253472Y-42793754D01*
X40291419Y-42748277D01*
X40345953Y-42725164D01*
X40405022Y-42729521D01*
X40455573Y-42760386D01*
X46054595Y-48359408D01*
X46081909Y-48400285D01*
X46091500Y-48448503D01*
X46091500Y-48625812D01*
X46081909Y-48674031D01*
X46054597Y-48714904D01*
X46021907Y-48747595D01*
X45993802Y-48775700D01*
X45862477Y-48963249D01*
X45765715Y-49170756D01*
X45706457Y-49391912D01*
X45686502Y-49620000D01*
X45706457Y-49848087D01*
X45765715Y-50069243D01*
X45862477Y-50276750D01*
X45907325Y-50340799D01*
X45993802Y-50464300D01*
X46054597Y-50525095D01*
X46081909Y-50565969D01*
X46091500Y-50614188D01*
X46091500Y-59490266D01*
X46081327Y-59539866D01*
X46052450Y-59581456D01*
X46009533Y-59608322D01*
X45953793Y-59629111D01*
X45836738Y-59716738D01*
X45749111Y-59833794D01*
X45716444Y-59921378D01*
X45698011Y-59970799D01*
X45691500Y-60031362D01*
X45691500Y-61728638D01*
X45698011Y-61789201D01*
X45702048Y-61800025D01*
X45749111Y-61926205D01*
X45836738Y-62043261D01*
X45953794Y-62130888D01*
X45953795Y-62130888D01*
X45953796Y-62130889D01*
X46090799Y-62181989D01*
X46151362Y-62188500D01*
X47848638Y-62188500D01*
X47909201Y-62181989D01*
X48046204Y-62130889D01*
X48163261Y-62043261D01*
X48250889Y-61926204D01*
X48301989Y-61789201D01*
X48308500Y-61728638D01*
X48308500Y-60031362D01*
X48301989Y-59970799D01*
X48250889Y-59833796D01*
X48209495Y-59778500D01*
X48163261Y-59716738D01*
X48046206Y-59629111D01*
X47990467Y-59608322D01*
X47947550Y-59581456D01*
X47918673Y-59539866D01*
X47908500Y-59490266D01*
X47908500Y-50614188D01*
X47918091Y-50565969D01*
X47945402Y-50525095D01*
X48006198Y-50464300D01*
X48137523Y-50276749D01*
X48234284Y-50069243D01*
X48293543Y-49848087D01*
X48313498Y-49620000D01*
X48293543Y-49391913D01*
X48245837Y-49213872D01*
X48234284Y-49170756D01*
X48137522Y-48963249D01*
X48079902Y-48880960D01*
X48006198Y-48775700D01*
X47945402Y-48714904D01*
X47918091Y-48674031D01*
X47908500Y-48625812D01*
X47908500Y-48101416D01*
X47910051Y-48081707D01*
X47910204Y-48080738D01*
X47912252Y-48067810D01*
X47908672Y-47999519D01*
X47908500Y-47992926D01*
X47908500Y-47972395D01*
X47908500Y-47972390D01*
X47906349Y-47951930D01*
X47905836Y-47945406D01*
X47902257Y-47877097D01*
X47898613Y-47863501D01*
X47895012Y-47844063D01*
X47894696Y-47841059D01*
X47893542Y-47830072D01*
X47872405Y-47765021D01*
X47870531Y-47758694D01*
X47866866Y-47745015D01*
X47852830Y-47692630D01*
X47846437Y-47680084D01*
X47838875Y-47661827D01*
X47834527Y-47648444D01*
X47800326Y-47589207D01*
X47797195Y-47583441D01*
X47766129Y-47522470D01*
X47757267Y-47511526D01*
X47746076Y-47495242D01*
X47739040Y-47483056D01*
X47721032Y-47463056D01*
X47693271Y-47432223D01*
X47688991Y-47427212D01*
X47676072Y-47411259D01*
X47661538Y-47396725D01*
X47657034Y-47391979D01*
X47611253Y-47341134D01*
X47599864Y-47332859D01*
X47584832Y-47320019D01*
X43113451Y-42848638D01*
X45691500Y-42848638D01*
X45698011Y-42909201D01*
X45701327Y-42918091D01*
X45749111Y-43046205D01*
X45836738Y-43163261D01*
X45953794Y-43250888D01*
X45953795Y-43250888D01*
X45953796Y-43250889D01*
X46090799Y-43301989D01*
X46151362Y-43308500D01*
X47848638Y-43308500D01*
X47909201Y-43301989D01*
X48046204Y-43250889D01*
X48163261Y-43163261D01*
X48250889Y-43046204D01*
X48301989Y-42909201D01*
X48308500Y-42848638D01*
X48308500Y-41151362D01*
X48301989Y-41090799D01*
X48250889Y-40953796D01*
X48224705Y-40918818D01*
X48163261Y-40836738D01*
X48046205Y-40749111D01*
X47967812Y-40719872D01*
X47909201Y-40698011D01*
X47848638Y-40691500D01*
X46151362Y-40691500D01*
X46090799Y-40698011D01*
X45953794Y-40749111D01*
X45836738Y-40836738D01*
X45749111Y-40953794D01*
X45729548Y-41006245D01*
X45698011Y-41090799D01*
X45691500Y-41151362D01*
X45691500Y-42848638D01*
X43113451Y-42848638D01*
X40863907Y-40599094D01*
X40831295Y-40542610D01*
X40831295Y-40477388D01*
X40863904Y-40420908D01*
X42704812Y-38580000D01*
X45786884Y-38580000D01*
X45805314Y-38790655D01*
X45860043Y-38994909D01*
X45949411Y-39186559D01*
X46070701Y-39359779D01*
X46220220Y-39509298D01*
X46393440Y-39630588D01*
X46393441Y-39630588D01*
X46393442Y-39630589D01*
X46585090Y-39719956D01*
X46789345Y-39774686D01*
X47000000Y-39793116D01*
X47210655Y-39774686D01*
X47414910Y-39719956D01*
X47606558Y-39630589D01*
X47779776Y-39509301D01*
X47929301Y-39359776D01*
X48050589Y-39186558D01*
X48139956Y-38994910D01*
X48194686Y-38790655D01*
X48213116Y-38580000D01*
X48194686Y-38369345D01*
X48139956Y-38165090D01*
X48050589Y-37973442D01*
X48030957Y-37945405D01*
X47959427Y-37843249D01*
X47929301Y-37800224D01*
X47929300Y-37800223D01*
X47929298Y-37800220D01*
X47779779Y-37650701D01*
X47606559Y-37529411D01*
X47414909Y-37440043D01*
X47210655Y-37385314D01*
X47000000Y-37366884D01*
X46789344Y-37385314D01*
X46585090Y-37440043D01*
X46393440Y-37529411D01*
X46220220Y-37650701D01*
X46070701Y-37800220D01*
X45949411Y-37973440D01*
X45860043Y-38165090D01*
X45805314Y-38369344D01*
X45786884Y-38580000D01*
X42704812Y-38580000D01*
X46084839Y-35199972D01*
X46099868Y-35187136D01*
X46111253Y-35178866D01*
X46157026Y-35128028D01*
X46161529Y-35123282D01*
X46176072Y-35108741D01*
X46189008Y-35092765D01*
X46193278Y-35087768D01*
X46239038Y-35036946D01*
X46239037Y-35036946D01*
X46239040Y-35036944D01*
X46246073Y-35024760D01*
X46257265Y-35008475D01*
X46266129Y-34997530D01*
X46297196Y-34936557D01*
X46300324Y-34930795D01*
X46334527Y-34871556D01*
X46338873Y-34858177D01*
X46346437Y-34839915D01*
X46352830Y-34827370D01*
X46370531Y-34761302D01*
X46372402Y-34754987D01*
X46379685Y-34732572D01*
X46388837Y-34704407D01*
X46428241Y-34646354D01*
X46492587Y-34618377D01*
X46561920Y-34629152D01*
X46585087Y-34639955D01*
X46585089Y-34639955D01*
X46585090Y-34639956D01*
X46789345Y-34694686D01*
X47000000Y-34713116D01*
X47210655Y-34694686D01*
X47414910Y-34639956D01*
X47606558Y-34550589D01*
X47779776Y-34429301D01*
X47929301Y-34279776D01*
X48050589Y-34106558D01*
X48139956Y-33914910D01*
X48194686Y-33710655D01*
X48213116Y-33500000D01*
X48194686Y-33289345D01*
X48139956Y-33085090D01*
X48050589Y-32893442D01*
X48027963Y-32861129D01*
X47969590Y-32777763D01*
X47929301Y-32720224D01*
X47929300Y-32720223D01*
X47929298Y-32720220D01*
X47779779Y-32570701D01*
X47606559Y-32449411D01*
X47414909Y-32360043D01*
X47210655Y-32305314D01*
X47000000Y-32286884D01*
X46789344Y-32305314D01*
X46585090Y-32360043D01*
X46393441Y-32449411D01*
X46330042Y-32493804D01*
X46223058Y-32568714D01*
X46188679Y-32585668D01*
X46150790Y-32591500D01*
X45404510Y-32591500D01*
X45364143Y-32600079D01*
X45351126Y-32602141D01*
X45310071Y-32606457D01*
X45270817Y-32619212D01*
X45258079Y-32622625D01*
X45217713Y-32631205D01*
X45180005Y-32647993D01*
X45167698Y-32652717D01*
X45128445Y-32665471D01*
X45092709Y-32686104D01*
X45080959Y-32692091D01*
X45043247Y-32708881D01*
X45009851Y-32733144D01*
X44998798Y-32740323D01*
X44963055Y-32760960D01*
X44932387Y-32788574D01*
X44922141Y-32796871D01*
X44888746Y-32821134D01*
X44861129Y-32851806D01*
X44851806Y-32861129D01*
X44821134Y-32888746D01*
X44796871Y-32922141D01*
X44788574Y-32932387D01*
X44760960Y-32963055D01*
X44740323Y-32998798D01*
X44733144Y-33009851D01*
X44708881Y-33043247D01*
X44692091Y-33080959D01*
X44686104Y-33092709D01*
X44665471Y-33128445D01*
X44652717Y-33167698D01*
X44647993Y-33180005D01*
X44631205Y-33217713D01*
X44622625Y-33258079D01*
X44619212Y-33270817D01*
X44606457Y-33310071D01*
X44602141Y-33351126D01*
X44600079Y-33364143D01*
X44591500Y-33404510D01*
X44591500Y-34071497D01*
X44581909Y-34119715D01*
X44554595Y-34160592D01*
X39126828Y-39588357D01*
X39066345Y-39621970D01*
X38997232Y-39618575D01*
X38835800Y-39563776D01*
X38545423Y-39506016D01*
X38250000Y-39486654D01*
X37954576Y-39506016D01*
X37664199Y-39563776D01*
X37383858Y-39658938D01*
X37118324Y-39789886D01*
X36872164Y-39954364D01*
X36649572Y-40149572D01*
X36454364Y-40372164D01*
X36289886Y-40618324D01*
X36158938Y-40883858D01*
X36063776Y-41164199D01*
X36006016Y-41454576D01*
X35986654Y-41749999D01*
X35025500Y-41749999D01*
X35025500Y-31151500D01*
X35042381Y-31088500D01*
X35088500Y-31042381D01*
X35151500Y-31025500D01*
X134848500Y-31025500D01*
X134911500Y-31042381D01*
G37*
%TD.AperFunction*%
%TD*%
M02*
