M48
; DRILL file {KiCad 5.1.10} date Sun Jul  4 18:40:05 2021
; FORMAT={-:-/ absolute / inch / decimal}
; #@! TF.CreationDate,2021-07-04T18:40:05+02:00
; #@! TF.GenerationSoftware,Kicad,Pcbnew,5.1.10
; #@! TF.FileFunction,Plated,1,2,PTH
FMAT,2
INCH
T1C0.0157
T2C0.0276
T3C0.0315
T4C0.0866
%
G90
G05
T1
X1.9488Y-2.1654
X1.9882Y-2.5591
X2.2047Y-2.874
X2.3622Y-2.1654
X2.5591Y-2.9134
X2.6181Y-2.1457
X2.6378Y-1.2598
X2.6575Y-1.5354
X2.7362Y-2.1752
X2.7953Y-2.8937
X2.8346Y-1.378
X2.8346Y-1.8701
X2.9134Y-1.6142
X2.9134Y-2.7165
X2.9921Y-1.2598
X2.9921Y-2.3228
X3.248Y-1.5354
X3.2677Y-2.815
X3.7402Y-2.185
T2
X1.8504Y-1.3189
X1.8504Y-1.5189
X1.8504Y-2.8346
X1.8504Y-3.0346
X2.0866Y-1.322
X2.0866Y-1.522
X2.0866Y-2.8346
X2.0866Y-3.0346
X2.4803Y-1.8701
X2.4803Y-2.5
X2.6803Y-1.8701
X2.6803Y-2.5
X3.5106Y-1.3386
X3.5106Y-1.437
X3.5106Y-1.5354
X3.5106Y-1.6339
X3.5106Y-1.7421
X3.5106Y-1.8406
X3.5106Y-1.939
X3.5106Y-2.0472
X3.5106Y-2.313
X3.5106Y-2.4114
X3.5138Y-2.5098
X3.5138Y-2.6181
X3.5138Y-2.7165
X3.5138Y-2.815
X3.5138Y-2.9134
X3.5138Y-3.0118
X3.7106Y-1.3386
X3.7106Y-1.437
X3.7106Y-1.5354
X3.7106Y-1.6339
X3.7106Y-1.7421
X3.7106Y-1.8406
X3.7106Y-1.939
X3.7106Y-2.0472
X3.7106Y-2.313
X3.7106Y-2.4114
X3.7138Y-2.5098
X3.7138Y-2.6181
X3.7138Y-2.7165
X3.7138Y-2.815
X3.7138Y-2.9134
X3.7138Y-3.0118
X4.2028Y-2.7953
X4.2028Y-2.9953
X4.252Y-1.3386
X4.252Y-1.5386
X4.3079Y-1.6339
X4.3177Y-2.7067
X4.5079Y-1.6339
X4.5177Y-2.7067
X4.9213Y-2.0638
X4.9213Y-2.2638
T3
X1.8504Y-1.6535
X1.8504Y-1.9535
X1.8504Y-2.3969
X1.8504Y-2.6969
X2.0866Y-1.6535
X2.0866Y-1.9535
X2.0866Y-2.4016
X2.0866Y-2.7016
X2.4213Y-2.7165
X2.4213Y-2.8165
X2.4213Y-2.9165
X2.4213Y-3.0165
X2.4409Y-1.3386
X2.4409Y-1.4386
X2.4409Y-1.5386
X2.4409Y-1.6386
X2.5197Y-2.0472
X2.5197Y-2.2835
X2.6181Y-2.0472
X2.6181Y-2.2835
X2.7213Y-2.7165
X2.7213Y-2.8165
X2.7213Y-2.9165
X2.7213Y-3.0165
X2.7409Y-1.3386
X2.7409Y-1.4386
X2.7409Y-1.5386
X2.7409Y-1.6386
X2.815Y-2.126
X2.815Y-2.2244
X2.8937Y-2.9134
X2.8937Y-3.0118
X2.9134Y-1.3189
X2.9134Y-1.5157
X3.0945Y-1.3386
X3.0945Y-1.4386
X3.0945Y-1.5386
X3.0945Y-1.6386
X3.0945Y-1.7386
X3.0945Y-1.8386
X3.0945Y-1.9386
X3.0945Y-2.0386
X3.1024Y-2.315
X3.1024Y-2.415
X3.1024Y-2.515
X3.1024Y-2.615
X3.1024Y-2.715
X3.1024Y-2.815
X3.1024Y-2.915
X3.1024Y-3.015
X3.3945Y-1.3386
X3.3945Y-1.4386
X3.3945Y-1.5386
X3.3945Y-1.6386
X3.3945Y-1.7386
X3.3945Y-1.8386
X3.3945Y-1.9386
X3.3945Y-2.0386
X3.4024Y-2.315
X3.4024Y-2.415
X3.4024Y-2.515
X3.4024Y-2.615
X3.4024Y-2.715
X3.4024Y-2.815
X3.4024Y-2.915
X3.4024Y-3.015
X3.9272Y-1.624
X3.9272Y-2.7362
X4.0256Y-1.624
X4.0256Y-2.7362
X4.5079Y-1.3583
X4.5079Y-1.4567
X4.5177Y-2.8543
X4.5177Y-2.9528
X4.7638Y-2.0177
X4.7638Y-2.3177
T4
X1.5059Y-1.6437
X1.5157Y-2.1654
X1.5354Y-1.378
X1.5354Y-2.7165
X1.5354Y-3.0315
X5.128Y-1.8012
X5.128Y-2.1555
X5.128Y-2.5098
X5.1575Y-1.378
X5.1575Y-2.9921
T0
M30
