%TF.GenerationSoftware,KiCad,Pcbnew,7.0.0-da2b9df05c~171~ubuntu22.04.1*%
%TF.CreationDate,2023-03-13T14:35:49+01:00*%
%TF.ProjectId,tht-dip,7468742d-6469-4702-9e6b-696361645f70,rev?*%
%TF.SameCoordinates,Original*%
%TF.FileFunction,Drillmap*%
%TF.FilePolarity,Positive*%
%FSLAX45Y45*%
G04 Gerber Fmt 4.5, Leading zero omitted, Abs format (unit mm)*
G04 Created by KiCad (PCBNEW 7.0.0-da2b9df05c~171~ubuntu22.04.1) date 2023-03-13 14:35:49*
%MOMM*%
%LPD*%
G01*
G04 APERTURE LIST*
%ADD10C,0.050000*%
%ADD11C,0.200000*%
%ADD12C,0.040000*%
%ADD13C,0.070000*%
%ADD14C,0.080000*%
%ADD15C,0.100000*%
%ADD16C,0.220000*%
G04 APERTURE END LIST*
D10*
X3500000Y-8000000D02*
X3500000Y-3100000D01*
X3500000Y-3100000D02*
X13500000Y-3100000D01*
X13500000Y-8000000D02*
X3500000Y-8000000D01*
X13500000Y-3100000D02*
X13500000Y-8000000D01*
D11*
D12*
X5530000Y-4580000D02*
X5570000Y-4620000D01*
X5570000Y-4580000D02*
X5530000Y-4620000D01*
X5680000Y-6330000D02*
X5720000Y-6370000D01*
X5720000Y-6330000D02*
X5680000Y-6370000D01*
X5730000Y-4980000D02*
X5770000Y-5020000D01*
X5770000Y-4980000D02*
X5730000Y-5020000D01*
X5730000Y-5880000D02*
X5770000Y-5920000D01*
X5770000Y-5880000D02*
X5730000Y-5920000D01*
X6330000Y-4930000D02*
X6370000Y-4970000D01*
X6370000Y-4930000D02*
X6330000Y-4970000D01*
X6730000Y-4880000D02*
X6770000Y-4920000D01*
X6770000Y-4880000D02*
X6730000Y-4920000D01*
X7130000Y-5530000D02*
X7170000Y-5570000D01*
X7170000Y-5530000D02*
X7130000Y-5570000D01*
X7280000Y-6180000D02*
X7320000Y-6220000D01*
X7320000Y-6180000D02*
X7280000Y-6220000D01*
X7830000Y-6080000D02*
X7870000Y-6120000D01*
X7870000Y-6080000D02*
X7830000Y-6120000D01*
X7880000Y-5380000D02*
X7920000Y-5420000D01*
X7920000Y-5380000D02*
X7880000Y-5420000D01*
X8030000Y-4280000D02*
X8070000Y-4320000D01*
X8070000Y-4280000D02*
X8030000Y-4320000D01*
X8080000Y-3630000D02*
X8120000Y-3670000D01*
X8120000Y-3630000D02*
X8080000Y-3670000D01*
D13*
X4735000Y-3350000D02*
G75*
G03*
X4735000Y-3350000I-35000J0D01*
G01*
X4735000Y-3858000D02*
G75*
G03*
X4735000Y-3858000I-35000J0D01*
G01*
X4735000Y-7200000D02*
G75*
G03*
X4735000Y-7200000I-35000J0D01*
G01*
X4735000Y-7708000D02*
G75*
G03*
X4735000Y-7708000I-35000J0D01*
G01*
X5335000Y-3358000D02*
G75*
G03*
X5335000Y-3358000I-35000J0D01*
G01*
X5335000Y-3866000D02*
G75*
G03*
X5335000Y-3866000I-35000J0D01*
G01*
X5335000Y-7200000D02*
G75*
G03*
X5335000Y-7200000I-35000J0D01*
G01*
X5335000Y-7708000D02*
G75*
G03*
X5335000Y-7708000I-35000J0D01*
G01*
X6927000Y-4700000D02*
G75*
G03*
X6927000Y-4700000I-35000J0D01*
G01*
X6927000Y-6400000D02*
G75*
G03*
X6927000Y-6400000I-35000J0D01*
G01*
X7435000Y-4700000D02*
G75*
G03*
X7435000Y-4700000I-35000J0D01*
G01*
X7435000Y-6400000D02*
G75*
G03*
X7435000Y-6400000I-35000J0D01*
G01*
X10710000Y-7100000D02*
G75*
G03*
X10710000Y-7100000I-35000J0D01*
G01*
X10710000Y-7608000D02*
G75*
G03*
X10710000Y-7608000I-35000J0D01*
G01*
X10835000Y-3400000D02*
G75*
G03*
X10835000Y-3400000I-35000J0D01*
G01*
X10835000Y-3908000D02*
G75*
G03*
X10835000Y-3908000I-35000J0D01*
G01*
X10977000Y-4150000D02*
G75*
G03*
X10977000Y-4150000I-35000J0D01*
G01*
X11002000Y-6875000D02*
G75*
G03*
X11002000Y-6875000I-35000J0D01*
G01*
X11485000Y-4150000D02*
G75*
G03*
X11485000Y-4150000I-35000J0D01*
G01*
X11510000Y-6875000D02*
G75*
G03*
X11510000Y-6875000I-35000J0D01*
G01*
X12535000Y-5242000D02*
G75*
G03*
X12535000Y-5242000I-35000J0D01*
G01*
X12535000Y-5750000D02*
G75*
G03*
X12535000Y-5750000I-35000J0D01*
G01*
D14*
X4700000Y-4160000D02*
X4700000Y-4240000D01*
X4660000Y-4200000D02*
X4740000Y-4200000D01*
X4700000Y-4922000D02*
X4700000Y-5002000D01*
X4660000Y-4962000D02*
X4740000Y-4962000D01*
X4700000Y-6048000D02*
X4700000Y-6128000D01*
X4660000Y-6088000D02*
X4740000Y-6088000D01*
X4700000Y-6810000D02*
X4700000Y-6890000D01*
X4660000Y-6850000D02*
X4740000Y-6850000D01*
X5300000Y-4160000D02*
X5300000Y-4240000D01*
X5260000Y-4200000D02*
X5340000Y-4200000D01*
X5300000Y-4922000D02*
X5300000Y-5002000D01*
X5260000Y-4962000D02*
X5340000Y-4962000D01*
X5300000Y-6060000D02*
X5300000Y-6140000D01*
X5260000Y-6100000D02*
X5340000Y-6100000D01*
X5300000Y-6822000D02*
X5300000Y-6902000D01*
X5260000Y-6862000D02*
X5340000Y-6862000D01*
X5550000Y-5360000D02*
X5550000Y-5440000D01*
X5510000Y-5400000D02*
X5590000Y-5400000D01*
X5550000Y-5610000D02*
X5550000Y-5690000D01*
X5510000Y-5650000D02*
X5590000Y-5650000D01*
X6050000Y-4560000D02*
X6050000Y-4640000D01*
X6010000Y-4600000D02*
X6090000Y-4600000D01*
X6050000Y-4760000D02*
X6050000Y-4840000D01*
X6010000Y-4800000D02*
X6090000Y-4800000D01*
X6050000Y-6210000D02*
X6050000Y-6290000D01*
X6010000Y-6250000D02*
X6090000Y-6250000D01*
X6050000Y-6410000D02*
X6050000Y-6490000D01*
X6010000Y-6450000D02*
X6090000Y-6450000D01*
X6600000Y-5110000D02*
X6600000Y-5190000D01*
X6560000Y-5150000D02*
X6640000Y-5150000D01*
X6600000Y-5872000D02*
X6600000Y-5952000D01*
X6560000Y-5912000D02*
X6640000Y-5912000D01*
X6854000Y-5110000D02*
X6854000Y-5190000D01*
X6814000Y-5150000D02*
X6894000Y-5150000D01*
X6854000Y-5872000D02*
X6854000Y-5952000D01*
X6814000Y-5912000D02*
X6894000Y-5912000D01*
X7108000Y-5110000D02*
X7108000Y-5190000D01*
X7068000Y-5150000D02*
X7148000Y-5150000D01*
X7108000Y-5872000D02*
X7108000Y-5952000D01*
X7068000Y-5912000D02*
X7148000Y-5912000D01*
X7362000Y-5110000D02*
X7362000Y-5190000D01*
X7322000Y-5150000D02*
X7402000Y-5150000D01*
X7362000Y-5872000D02*
X7362000Y-5952000D01*
X7322000Y-5912000D02*
X7402000Y-5912000D01*
X7400000Y-3310000D02*
X7400000Y-3390000D01*
X7360000Y-3350000D02*
X7440000Y-3350000D01*
X7400000Y-3810000D02*
X7400000Y-3890000D01*
X7360000Y-3850000D02*
X7440000Y-3850000D01*
X9950000Y-6260000D02*
X9950000Y-6340000D01*
X9910000Y-6300000D02*
X9990000Y-6300000D01*
X9950000Y-7310000D02*
X9950000Y-7390000D01*
X9910000Y-7350000D02*
X9990000Y-7350000D01*
X10000000Y-4460000D02*
X10000000Y-4540000D01*
X9960000Y-4500000D02*
X10040000Y-4500000D01*
X10200000Y-4460000D02*
X10200000Y-4540000D01*
X10160000Y-4500000D02*
X10240000Y-4500000D01*
X10200000Y-6260000D02*
X10200000Y-6340000D01*
X10160000Y-6300000D02*
X10240000Y-6300000D01*
X10200000Y-7310000D02*
X10200000Y-7390000D01*
X10160000Y-7350000D02*
X10240000Y-7350000D01*
X11450000Y-3410000D02*
X11450000Y-3490000D01*
X11410000Y-3450000D02*
X11490000Y-3450000D01*
X11450000Y-3660000D02*
X11450000Y-3740000D01*
X11410000Y-3700000D02*
X11490000Y-3700000D01*
X11475000Y-7210000D02*
X11475000Y-7290000D01*
X11435000Y-7250000D02*
X11515000Y-7250000D01*
X11475000Y-7460000D02*
X11475000Y-7540000D01*
X11435000Y-7500000D02*
X11515000Y-7500000D01*
X12100000Y-5085000D02*
X12100000Y-5165000D01*
X12060000Y-5125000D02*
X12140000Y-5125000D01*
X12100000Y-5847000D02*
X12100000Y-5927000D01*
X12060000Y-5887000D02*
X12140000Y-5887000D01*
D15*
X8569356Y-5435356D02*
X8569356Y-5364644D01*
X8498644Y-5364644D01*
X8498644Y-5435356D01*
X8569356Y-5435356D01*
X8569356Y-5685356D02*
X8569356Y-5614644D01*
X8498644Y-5614644D01*
X8498644Y-5685356D01*
X8569356Y-5685356D01*
X8735356Y-5435356D02*
X8735356Y-5364644D01*
X8664644Y-5364644D01*
X8664644Y-5435356D01*
X8735356Y-5435356D01*
X8735356Y-5685356D02*
X8735356Y-5614644D01*
X8664644Y-5614644D01*
X8664644Y-5685356D01*
X8735356Y-5685356D01*
X8901356Y-5435356D02*
X8901356Y-5364644D01*
X8830644Y-5364644D01*
X8830644Y-5435356D01*
X8901356Y-5435356D01*
X8901356Y-5685356D02*
X8901356Y-5614644D01*
X8830644Y-5614644D01*
X8830644Y-5685356D01*
X8901356Y-5685356D01*
D16*
X3825000Y-4285000D02*
X3935000Y-4175000D01*
X3825000Y-4065000D01*
X3715000Y-4175000D01*
X3825000Y-4285000D01*
X3850000Y-5610000D02*
X3960000Y-5500000D01*
X3850000Y-5390000D01*
X3740000Y-5500000D01*
X3850000Y-5610000D01*
X3900000Y-3610000D02*
X4010000Y-3500000D01*
X3900000Y-3390000D01*
X3790000Y-3500000D01*
X3900000Y-3610000D01*
X3900000Y-7010000D02*
X4010000Y-6900000D01*
X3900000Y-6790000D01*
X3790000Y-6900000D01*
X3900000Y-7010000D01*
X3900000Y-7710000D02*
X4010000Y-7600000D01*
X3900000Y-7490000D01*
X3790000Y-7600000D01*
X3900000Y-7710000D01*
X13025000Y-4685000D02*
X13135000Y-4575000D01*
X13025000Y-4465000D01*
X12915000Y-4575000D01*
X13025000Y-4685000D01*
X13025000Y-5585000D02*
X13135000Y-5475000D01*
X13025000Y-5365000D01*
X12915000Y-5475000D01*
X13025000Y-5585000D01*
X13025000Y-6485000D02*
X13135000Y-6375000D01*
X13025000Y-6265000D01*
X12915000Y-6375000D01*
X13025000Y-6485000D01*
X13100000Y-3610000D02*
X13210000Y-3500000D01*
X13100000Y-3390000D01*
X12990000Y-3500000D01*
X13100000Y-3610000D01*
X13100000Y-7710000D02*
X13210000Y-7600000D01*
X13100000Y-7490000D01*
X12990000Y-7600000D01*
X13100000Y-7710000D01*
D11*
X3745119Y-8295976D02*
X3745119Y-8095976D01*
X3745119Y-8095976D02*
X3792738Y-8095976D01*
X3792738Y-8095976D02*
X3821309Y-8105500D01*
X3821309Y-8105500D02*
X3840357Y-8124548D01*
X3840357Y-8124548D02*
X3849881Y-8143595D01*
X3849881Y-8143595D02*
X3859405Y-8181690D01*
X3859405Y-8181690D02*
X3859405Y-8210262D01*
X3859405Y-8210262D02*
X3849881Y-8248357D01*
X3849881Y-8248357D02*
X3840357Y-8267405D01*
X3840357Y-8267405D02*
X3821309Y-8286452D01*
X3821309Y-8286452D02*
X3792738Y-8295976D01*
X3792738Y-8295976D02*
X3745119Y-8295976D01*
X3945119Y-8295976D02*
X3945119Y-8162643D01*
X3945119Y-8200738D02*
X3954643Y-8181690D01*
X3954643Y-8181690D02*
X3964167Y-8172167D01*
X3964167Y-8172167D02*
X3983214Y-8162643D01*
X3983214Y-8162643D02*
X4002262Y-8162643D01*
X4068928Y-8295976D02*
X4068928Y-8162643D01*
X4068928Y-8095976D02*
X4059405Y-8105500D01*
X4059405Y-8105500D02*
X4068928Y-8115024D01*
X4068928Y-8115024D02*
X4078452Y-8105500D01*
X4078452Y-8105500D02*
X4068928Y-8095976D01*
X4068928Y-8095976D02*
X4068928Y-8115024D01*
X4192738Y-8295976D02*
X4173690Y-8286452D01*
X4173690Y-8286452D02*
X4164167Y-8267405D01*
X4164167Y-8267405D02*
X4164167Y-8095976D01*
X4297500Y-8295976D02*
X4278452Y-8286452D01*
X4278452Y-8286452D02*
X4268929Y-8267405D01*
X4268929Y-8267405D02*
X4268929Y-8095976D01*
X4493690Y-8295976D02*
X4493690Y-8095976D01*
X4493690Y-8095976D02*
X4560357Y-8238833D01*
X4560357Y-8238833D02*
X4627024Y-8095976D01*
X4627024Y-8095976D02*
X4627024Y-8295976D01*
X4807976Y-8295976D02*
X4807976Y-8191214D01*
X4807976Y-8191214D02*
X4798452Y-8172167D01*
X4798452Y-8172167D02*
X4779405Y-8162643D01*
X4779405Y-8162643D02*
X4741309Y-8162643D01*
X4741309Y-8162643D02*
X4722262Y-8172167D01*
X4807976Y-8286452D02*
X4788929Y-8295976D01*
X4788929Y-8295976D02*
X4741309Y-8295976D01*
X4741309Y-8295976D02*
X4722262Y-8286452D01*
X4722262Y-8286452D02*
X4712738Y-8267405D01*
X4712738Y-8267405D02*
X4712738Y-8248357D01*
X4712738Y-8248357D02*
X4722262Y-8229309D01*
X4722262Y-8229309D02*
X4741309Y-8219786D01*
X4741309Y-8219786D02*
X4788929Y-8219786D01*
X4788929Y-8219786D02*
X4807976Y-8210262D01*
X4903214Y-8162643D02*
X4903214Y-8362643D01*
X4903214Y-8172167D02*
X4922262Y-8162643D01*
X4922262Y-8162643D02*
X4960357Y-8162643D01*
X4960357Y-8162643D02*
X4979405Y-8172167D01*
X4979405Y-8172167D02*
X4988929Y-8181690D01*
X4988929Y-8181690D02*
X4998452Y-8200738D01*
X4998452Y-8200738D02*
X4998452Y-8257881D01*
X4998452Y-8257881D02*
X4988929Y-8276928D01*
X4988929Y-8276928D02*
X4979405Y-8286452D01*
X4979405Y-8286452D02*
X4960357Y-8295976D01*
X4960357Y-8295976D02*
X4922262Y-8295976D01*
X4922262Y-8295976D02*
X4903214Y-8286452D01*
X5084167Y-8276928D02*
X5093690Y-8286452D01*
X5093690Y-8286452D02*
X5084167Y-8295976D01*
X5084167Y-8295976D02*
X5074643Y-8286452D01*
X5074643Y-8286452D02*
X5084167Y-8276928D01*
X5084167Y-8276928D02*
X5084167Y-8295976D01*
X5084167Y-8172167D02*
X5093690Y-8181690D01*
X5093690Y-8181690D02*
X5084167Y-8191214D01*
X5084167Y-8191214D02*
X5074643Y-8181690D01*
X5074643Y-8181690D02*
X5084167Y-8172167D01*
X5084167Y-8172167D02*
X5084167Y-8191214D01*
D12*
X3457500Y-8622500D02*
X3497500Y-8662500D01*
X3497500Y-8622500D02*
X3457500Y-8662500D01*
D11*
X3783214Y-8515976D02*
X3802262Y-8515976D01*
X3802262Y-8515976D02*
X3821309Y-8525500D01*
X3821309Y-8525500D02*
X3830833Y-8535024D01*
X3830833Y-8535024D02*
X3840357Y-8554071D01*
X3840357Y-8554071D02*
X3849881Y-8592167D01*
X3849881Y-8592167D02*
X3849881Y-8639786D01*
X3849881Y-8639786D02*
X3840357Y-8677881D01*
X3840357Y-8677881D02*
X3830833Y-8696929D01*
X3830833Y-8696929D02*
X3821309Y-8706452D01*
X3821309Y-8706452D02*
X3802262Y-8715976D01*
X3802262Y-8715976D02*
X3783214Y-8715976D01*
X3783214Y-8715976D02*
X3764167Y-8706452D01*
X3764167Y-8706452D02*
X3754643Y-8696929D01*
X3754643Y-8696929D02*
X3745119Y-8677881D01*
X3745119Y-8677881D02*
X3735595Y-8639786D01*
X3735595Y-8639786D02*
X3735595Y-8592167D01*
X3735595Y-8592167D02*
X3745119Y-8554071D01*
X3745119Y-8554071D02*
X3754643Y-8535024D01*
X3754643Y-8535024D02*
X3764167Y-8525500D01*
X3764167Y-8525500D02*
X3783214Y-8515976D01*
X3935595Y-8696929D02*
X3945119Y-8706452D01*
X3945119Y-8706452D02*
X3935595Y-8715976D01*
X3935595Y-8715976D02*
X3926071Y-8706452D01*
X3926071Y-8706452D02*
X3935595Y-8696929D01*
X3935595Y-8696929D02*
X3935595Y-8715976D01*
X4116548Y-8582643D02*
X4116548Y-8715976D01*
X4068928Y-8506452D02*
X4021309Y-8649310D01*
X4021309Y-8649310D02*
X4145119Y-8649310D01*
X4259405Y-8515976D02*
X4278452Y-8515976D01*
X4278452Y-8515976D02*
X4297500Y-8525500D01*
X4297500Y-8525500D02*
X4307024Y-8535024D01*
X4307024Y-8535024D02*
X4316548Y-8554071D01*
X4316548Y-8554071D02*
X4326071Y-8592167D01*
X4326071Y-8592167D02*
X4326071Y-8639786D01*
X4326071Y-8639786D02*
X4316548Y-8677881D01*
X4316548Y-8677881D02*
X4307024Y-8696929D01*
X4307024Y-8696929D02*
X4297500Y-8706452D01*
X4297500Y-8706452D02*
X4278452Y-8715976D01*
X4278452Y-8715976D02*
X4259405Y-8715976D01*
X4259405Y-8715976D02*
X4240357Y-8706452D01*
X4240357Y-8706452D02*
X4230833Y-8696929D01*
X4230833Y-8696929D02*
X4221310Y-8677881D01*
X4221310Y-8677881D02*
X4211786Y-8639786D01*
X4211786Y-8639786D02*
X4211786Y-8592167D01*
X4211786Y-8592167D02*
X4221310Y-8554071D01*
X4221310Y-8554071D02*
X4230833Y-8535024D01*
X4230833Y-8535024D02*
X4240357Y-8525500D01*
X4240357Y-8525500D02*
X4259405Y-8515976D01*
X4449881Y-8515976D02*
X4468929Y-8515976D01*
X4468929Y-8515976D02*
X4487976Y-8525500D01*
X4487976Y-8525500D02*
X4497500Y-8535024D01*
X4497500Y-8535024D02*
X4507024Y-8554071D01*
X4507024Y-8554071D02*
X4516548Y-8592167D01*
X4516548Y-8592167D02*
X4516548Y-8639786D01*
X4516548Y-8639786D02*
X4507024Y-8677881D01*
X4507024Y-8677881D02*
X4497500Y-8696929D01*
X4497500Y-8696929D02*
X4487976Y-8706452D01*
X4487976Y-8706452D02*
X4468929Y-8715976D01*
X4468929Y-8715976D02*
X4449881Y-8715976D01*
X4449881Y-8715976D02*
X4430833Y-8706452D01*
X4430833Y-8706452D02*
X4421310Y-8696929D01*
X4421310Y-8696929D02*
X4411786Y-8677881D01*
X4411786Y-8677881D02*
X4402262Y-8639786D01*
X4402262Y-8639786D02*
X4402262Y-8592167D01*
X4402262Y-8592167D02*
X4411786Y-8554071D01*
X4411786Y-8554071D02*
X4421310Y-8535024D01*
X4421310Y-8535024D02*
X4430833Y-8525500D01*
X4430833Y-8525500D02*
X4449881Y-8515976D01*
X4602262Y-8715976D02*
X4602262Y-8582643D01*
X4602262Y-8601690D02*
X4611786Y-8592167D01*
X4611786Y-8592167D02*
X4630833Y-8582643D01*
X4630833Y-8582643D02*
X4659405Y-8582643D01*
X4659405Y-8582643D02*
X4678452Y-8592167D01*
X4678452Y-8592167D02*
X4687976Y-8611214D01*
X4687976Y-8611214D02*
X4687976Y-8715976D01*
X4687976Y-8611214D02*
X4697500Y-8592167D01*
X4697500Y-8592167D02*
X4716548Y-8582643D01*
X4716548Y-8582643D02*
X4745119Y-8582643D01*
X4745119Y-8582643D02*
X4764167Y-8592167D01*
X4764167Y-8592167D02*
X4773691Y-8611214D01*
X4773691Y-8611214D02*
X4773691Y-8715976D01*
X4868929Y-8715976D02*
X4868929Y-8582643D01*
X4868929Y-8601690D02*
X4878452Y-8592167D01*
X4878452Y-8592167D02*
X4897500Y-8582643D01*
X4897500Y-8582643D02*
X4926072Y-8582643D01*
X4926072Y-8582643D02*
X4945119Y-8592167D01*
X4945119Y-8592167D02*
X4954643Y-8611214D01*
X4954643Y-8611214D02*
X4954643Y-8715976D01*
X4954643Y-8611214D02*
X4964167Y-8592167D01*
X4964167Y-8592167D02*
X4983214Y-8582643D01*
X4983214Y-8582643D02*
X5011786Y-8582643D01*
X5011786Y-8582643D02*
X5030833Y-8592167D01*
X5030833Y-8592167D02*
X5040357Y-8611214D01*
X5040357Y-8611214D02*
X5040357Y-8715976D01*
X5398452Y-8506452D02*
X5227024Y-8763595D01*
X5623214Y-8515976D02*
X5642262Y-8515976D01*
X5642262Y-8515976D02*
X5661310Y-8525500D01*
X5661310Y-8525500D02*
X5670833Y-8535024D01*
X5670833Y-8535024D02*
X5680357Y-8554071D01*
X5680357Y-8554071D02*
X5689881Y-8592167D01*
X5689881Y-8592167D02*
X5689881Y-8639786D01*
X5689881Y-8639786D02*
X5680357Y-8677881D01*
X5680357Y-8677881D02*
X5670833Y-8696929D01*
X5670833Y-8696929D02*
X5661310Y-8706452D01*
X5661310Y-8706452D02*
X5642262Y-8715976D01*
X5642262Y-8715976D02*
X5623214Y-8715976D01*
X5623214Y-8715976D02*
X5604167Y-8706452D01*
X5604167Y-8706452D02*
X5594643Y-8696929D01*
X5594643Y-8696929D02*
X5585119Y-8677881D01*
X5585119Y-8677881D02*
X5575595Y-8639786D01*
X5575595Y-8639786D02*
X5575595Y-8592167D01*
X5575595Y-8592167D02*
X5585119Y-8554071D01*
X5585119Y-8554071D02*
X5594643Y-8535024D01*
X5594643Y-8535024D02*
X5604167Y-8525500D01*
X5604167Y-8525500D02*
X5623214Y-8515976D01*
X5775595Y-8696929D02*
X5785119Y-8706452D01*
X5785119Y-8706452D02*
X5775595Y-8715976D01*
X5775595Y-8715976D02*
X5766071Y-8706452D01*
X5766071Y-8706452D02*
X5775595Y-8696929D01*
X5775595Y-8696929D02*
X5775595Y-8715976D01*
X5908929Y-8515976D02*
X5927976Y-8515976D01*
X5927976Y-8515976D02*
X5947024Y-8525500D01*
X5947024Y-8525500D02*
X5956548Y-8535024D01*
X5956548Y-8535024D02*
X5966071Y-8554071D01*
X5966071Y-8554071D02*
X5975595Y-8592167D01*
X5975595Y-8592167D02*
X5975595Y-8639786D01*
X5975595Y-8639786D02*
X5966071Y-8677881D01*
X5966071Y-8677881D02*
X5956548Y-8696929D01*
X5956548Y-8696929D02*
X5947024Y-8706452D01*
X5947024Y-8706452D02*
X5927976Y-8715976D01*
X5927976Y-8715976D02*
X5908929Y-8715976D01*
X5908929Y-8715976D02*
X5889881Y-8706452D01*
X5889881Y-8706452D02*
X5880357Y-8696929D01*
X5880357Y-8696929D02*
X5870833Y-8677881D01*
X5870833Y-8677881D02*
X5861310Y-8639786D01*
X5861310Y-8639786D02*
X5861310Y-8592167D01*
X5861310Y-8592167D02*
X5870833Y-8554071D01*
X5870833Y-8554071D02*
X5880357Y-8535024D01*
X5880357Y-8535024D02*
X5889881Y-8525500D01*
X5889881Y-8525500D02*
X5908929Y-8515976D01*
X6166071Y-8715976D02*
X6051786Y-8715976D01*
X6108929Y-8715976D02*
X6108929Y-8515976D01*
X6108929Y-8515976D02*
X6089881Y-8544548D01*
X6089881Y-8544548D02*
X6070833Y-8563595D01*
X6070833Y-8563595D02*
X6051786Y-8573119D01*
X6347024Y-8515976D02*
X6251786Y-8515976D01*
X6251786Y-8515976D02*
X6242262Y-8611214D01*
X6242262Y-8611214D02*
X6251786Y-8601690D01*
X6251786Y-8601690D02*
X6270833Y-8592167D01*
X6270833Y-8592167D02*
X6318452Y-8592167D01*
X6318452Y-8592167D02*
X6337500Y-8601690D01*
X6337500Y-8601690D02*
X6347024Y-8611214D01*
X6347024Y-8611214D02*
X6356548Y-8630262D01*
X6356548Y-8630262D02*
X6356548Y-8677881D01*
X6356548Y-8677881D02*
X6347024Y-8696929D01*
X6347024Y-8696929D02*
X6337500Y-8706452D01*
X6337500Y-8706452D02*
X6318452Y-8715976D01*
X6318452Y-8715976D02*
X6270833Y-8715976D01*
X6270833Y-8715976D02*
X6251786Y-8706452D01*
X6251786Y-8706452D02*
X6242262Y-8696929D01*
X6423214Y-8515976D02*
X6556548Y-8515976D01*
X6556548Y-8515976D02*
X6470833Y-8715976D01*
X6623214Y-8515976D02*
X6623214Y-8554071D01*
X6699405Y-8515976D02*
X6699405Y-8554071D01*
X6962262Y-8792167D02*
X6952738Y-8782643D01*
X6952738Y-8782643D02*
X6933691Y-8754071D01*
X6933691Y-8754071D02*
X6924167Y-8735024D01*
X6924167Y-8735024D02*
X6914643Y-8706452D01*
X6914643Y-8706452D02*
X6905119Y-8658833D01*
X6905119Y-8658833D02*
X6905119Y-8620738D01*
X6905119Y-8620738D02*
X6914643Y-8573119D01*
X6914643Y-8573119D02*
X6924167Y-8544548D01*
X6924167Y-8544548D02*
X6933691Y-8525500D01*
X6933691Y-8525500D02*
X6952738Y-8496929D01*
X6952738Y-8496929D02*
X6962262Y-8487405D01*
X7143214Y-8715976D02*
X7028929Y-8715976D01*
X7086071Y-8715976D02*
X7086071Y-8515976D01*
X7086071Y-8515976D02*
X7067024Y-8544548D01*
X7067024Y-8544548D02*
X7047976Y-8563595D01*
X7047976Y-8563595D02*
X7028929Y-8573119D01*
X7219405Y-8535024D02*
X7228929Y-8525500D01*
X7228929Y-8525500D02*
X7247976Y-8515976D01*
X7247976Y-8515976D02*
X7295595Y-8515976D01*
X7295595Y-8515976D02*
X7314643Y-8525500D01*
X7314643Y-8525500D02*
X7324167Y-8535024D01*
X7324167Y-8535024D02*
X7333691Y-8554071D01*
X7333691Y-8554071D02*
X7333691Y-8573119D01*
X7333691Y-8573119D02*
X7324167Y-8601690D01*
X7324167Y-8601690D02*
X7209881Y-8715976D01*
X7209881Y-8715976D02*
X7333691Y-8715976D01*
X7539405Y-8715976D02*
X7539405Y-8515976D01*
X7625119Y-8715976D02*
X7625119Y-8611214D01*
X7625119Y-8611214D02*
X7615595Y-8592167D01*
X7615595Y-8592167D02*
X7596548Y-8582643D01*
X7596548Y-8582643D02*
X7567976Y-8582643D01*
X7567976Y-8582643D02*
X7548929Y-8592167D01*
X7548929Y-8592167D02*
X7539405Y-8601690D01*
X7748929Y-8715976D02*
X7729881Y-8706452D01*
X7729881Y-8706452D02*
X7720357Y-8696929D01*
X7720357Y-8696929D02*
X7710833Y-8677881D01*
X7710833Y-8677881D02*
X7710833Y-8620738D01*
X7710833Y-8620738D02*
X7720357Y-8601690D01*
X7720357Y-8601690D02*
X7729881Y-8592167D01*
X7729881Y-8592167D02*
X7748929Y-8582643D01*
X7748929Y-8582643D02*
X7777500Y-8582643D01*
X7777500Y-8582643D02*
X7796548Y-8592167D01*
X7796548Y-8592167D02*
X7806072Y-8601690D01*
X7806072Y-8601690D02*
X7815595Y-8620738D01*
X7815595Y-8620738D02*
X7815595Y-8677881D01*
X7815595Y-8677881D02*
X7806072Y-8696929D01*
X7806072Y-8696929D02*
X7796548Y-8706452D01*
X7796548Y-8706452D02*
X7777500Y-8715976D01*
X7777500Y-8715976D02*
X7748929Y-8715976D01*
X7929881Y-8715976D02*
X7910833Y-8706452D01*
X7910833Y-8706452D02*
X7901310Y-8687405D01*
X7901310Y-8687405D02*
X7901310Y-8515976D01*
X8082262Y-8706452D02*
X8063214Y-8715976D01*
X8063214Y-8715976D02*
X8025119Y-8715976D01*
X8025119Y-8715976D02*
X8006072Y-8706452D01*
X8006072Y-8706452D02*
X7996548Y-8687405D01*
X7996548Y-8687405D02*
X7996548Y-8611214D01*
X7996548Y-8611214D02*
X8006072Y-8592167D01*
X8006072Y-8592167D02*
X8025119Y-8582643D01*
X8025119Y-8582643D02*
X8063214Y-8582643D01*
X8063214Y-8582643D02*
X8082262Y-8592167D01*
X8082262Y-8592167D02*
X8091786Y-8611214D01*
X8091786Y-8611214D02*
X8091786Y-8630262D01*
X8091786Y-8630262D02*
X7996548Y-8649310D01*
X8167976Y-8706452D02*
X8187024Y-8715976D01*
X8187024Y-8715976D02*
X8225119Y-8715976D01*
X8225119Y-8715976D02*
X8244167Y-8706452D01*
X8244167Y-8706452D02*
X8253691Y-8687405D01*
X8253691Y-8687405D02*
X8253691Y-8677881D01*
X8253691Y-8677881D02*
X8244167Y-8658833D01*
X8244167Y-8658833D02*
X8225119Y-8649310D01*
X8225119Y-8649310D02*
X8196548Y-8649310D01*
X8196548Y-8649310D02*
X8177500Y-8639786D01*
X8177500Y-8639786D02*
X8167976Y-8620738D01*
X8167976Y-8620738D02*
X8167976Y-8611214D01*
X8167976Y-8611214D02*
X8177500Y-8592167D01*
X8177500Y-8592167D02*
X8196548Y-8582643D01*
X8196548Y-8582643D02*
X8225119Y-8582643D01*
X8225119Y-8582643D02*
X8244167Y-8592167D01*
X8320357Y-8792167D02*
X8329881Y-8782643D01*
X8329881Y-8782643D02*
X8348929Y-8754071D01*
X8348929Y-8754071D02*
X8358453Y-8735024D01*
X8358453Y-8735024D02*
X8367976Y-8706452D01*
X8367976Y-8706452D02*
X8377500Y-8658833D01*
X8377500Y-8658833D02*
X8377500Y-8620738D01*
X8377500Y-8620738D02*
X8367976Y-8573119D01*
X8367976Y-8573119D02*
X8358453Y-8544548D01*
X8358453Y-8544548D02*
X8348929Y-8525500D01*
X8348929Y-8525500D02*
X8329881Y-8496929D01*
X8329881Y-8496929D02*
X8320357Y-8487405D01*
D13*
X3497500Y-8906500D02*
G75*
G03*
X3497500Y-8906500I-35000J0D01*
G01*
D11*
X3783214Y-8779976D02*
X3802262Y-8779976D01*
X3802262Y-8779976D02*
X3821309Y-8789500D01*
X3821309Y-8789500D02*
X3830833Y-8799024D01*
X3830833Y-8799024D02*
X3840357Y-8818071D01*
X3840357Y-8818071D02*
X3849881Y-8856167D01*
X3849881Y-8856167D02*
X3849881Y-8903786D01*
X3849881Y-8903786D02*
X3840357Y-8941881D01*
X3840357Y-8941881D02*
X3830833Y-8960929D01*
X3830833Y-8960929D02*
X3821309Y-8970452D01*
X3821309Y-8970452D02*
X3802262Y-8979976D01*
X3802262Y-8979976D02*
X3783214Y-8979976D01*
X3783214Y-8979976D02*
X3764167Y-8970452D01*
X3764167Y-8970452D02*
X3754643Y-8960929D01*
X3754643Y-8960929D02*
X3745119Y-8941881D01*
X3745119Y-8941881D02*
X3735595Y-8903786D01*
X3735595Y-8903786D02*
X3735595Y-8856167D01*
X3735595Y-8856167D02*
X3745119Y-8818071D01*
X3745119Y-8818071D02*
X3754643Y-8799024D01*
X3754643Y-8799024D02*
X3764167Y-8789500D01*
X3764167Y-8789500D02*
X3783214Y-8779976D01*
X3935595Y-8960929D02*
X3945119Y-8970452D01*
X3945119Y-8970452D02*
X3935595Y-8979976D01*
X3935595Y-8979976D02*
X3926071Y-8970452D01*
X3926071Y-8970452D02*
X3935595Y-8960929D01*
X3935595Y-8960929D02*
X3935595Y-8979976D01*
X4011786Y-8779976D02*
X4145119Y-8779976D01*
X4145119Y-8779976D02*
X4059405Y-8979976D01*
X4259405Y-8779976D02*
X4278452Y-8779976D01*
X4278452Y-8779976D02*
X4297500Y-8789500D01*
X4297500Y-8789500D02*
X4307024Y-8799024D01*
X4307024Y-8799024D02*
X4316548Y-8818071D01*
X4316548Y-8818071D02*
X4326071Y-8856167D01*
X4326071Y-8856167D02*
X4326071Y-8903786D01*
X4326071Y-8903786D02*
X4316548Y-8941881D01*
X4316548Y-8941881D02*
X4307024Y-8960929D01*
X4307024Y-8960929D02*
X4297500Y-8970452D01*
X4297500Y-8970452D02*
X4278452Y-8979976D01*
X4278452Y-8979976D02*
X4259405Y-8979976D01*
X4259405Y-8979976D02*
X4240357Y-8970452D01*
X4240357Y-8970452D02*
X4230833Y-8960929D01*
X4230833Y-8960929D02*
X4221310Y-8941881D01*
X4221310Y-8941881D02*
X4211786Y-8903786D01*
X4211786Y-8903786D02*
X4211786Y-8856167D01*
X4211786Y-8856167D02*
X4221310Y-8818071D01*
X4221310Y-8818071D02*
X4230833Y-8799024D01*
X4230833Y-8799024D02*
X4240357Y-8789500D01*
X4240357Y-8789500D02*
X4259405Y-8779976D01*
X4449881Y-8779976D02*
X4468929Y-8779976D01*
X4468929Y-8779976D02*
X4487976Y-8789500D01*
X4487976Y-8789500D02*
X4497500Y-8799024D01*
X4497500Y-8799024D02*
X4507024Y-8818071D01*
X4507024Y-8818071D02*
X4516548Y-8856167D01*
X4516548Y-8856167D02*
X4516548Y-8903786D01*
X4516548Y-8903786D02*
X4507024Y-8941881D01*
X4507024Y-8941881D02*
X4497500Y-8960929D01*
X4497500Y-8960929D02*
X4487976Y-8970452D01*
X4487976Y-8970452D02*
X4468929Y-8979976D01*
X4468929Y-8979976D02*
X4449881Y-8979976D01*
X4449881Y-8979976D02*
X4430833Y-8970452D01*
X4430833Y-8970452D02*
X4421310Y-8960929D01*
X4421310Y-8960929D02*
X4411786Y-8941881D01*
X4411786Y-8941881D02*
X4402262Y-8903786D01*
X4402262Y-8903786D02*
X4402262Y-8856167D01*
X4402262Y-8856167D02*
X4411786Y-8818071D01*
X4411786Y-8818071D02*
X4421310Y-8799024D01*
X4421310Y-8799024D02*
X4430833Y-8789500D01*
X4430833Y-8789500D02*
X4449881Y-8779976D01*
X4602262Y-8979976D02*
X4602262Y-8846643D01*
X4602262Y-8865690D02*
X4611786Y-8856167D01*
X4611786Y-8856167D02*
X4630833Y-8846643D01*
X4630833Y-8846643D02*
X4659405Y-8846643D01*
X4659405Y-8846643D02*
X4678452Y-8856167D01*
X4678452Y-8856167D02*
X4687976Y-8875214D01*
X4687976Y-8875214D02*
X4687976Y-8979976D01*
X4687976Y-8875214D02*
X4697500Y-8856167D01*
X4697500Y-8856167D02*
X4716548Y-8846643D01*
X4716548Y-8846643D02*
X4745119Y-8846643D01*
X4745119Y-8846643D02*
X4764167Y-8856167D01*
X4764167Y-8856167D02*
X4773691Y-8875214D01*
X4773691Y-8875214D02*
X4773691Y-8979976D01*
X4868929Y-8979976D02*
X4868929Y-8846643D01*
X4868929Y-8865690D02*
X4878452Y-8856167D01*
X4878452Y-8856167D02*
X4897500Y-8846643D01*
X4897500Y-8846643D02*
X4926072Y-8846643D01*
X4926072Y-8846643D02*
X4945119Y-8856167D01*
X4945119Y-8856167D02*
X4954643Y-8875214D01*
X4954643Y-8875214D02*
X4954643Y-8979976D01*
X4954643Y-8875214D02*
X4964167Y-8856167D01*
X4964167Y-8856167D02*
X4983214Y-8846643D01*
X4983214Y-8846643D02*
X5011786Y-8846643D01*
X5011786Y-8846643D02*
X5030833Y-8856167D01*
X5030833Y-8856167D02*
X5040357Y-8875214D01*
X5040357Y-8875214D02*
X5040357Y-8979976D01*
X5398452Y-8770452D02*
X5227024Y-9027595D01*
X5623214Y-8779976D02*
X5642262Y-8779976D01*
X5642262Y-8779976D02*
X5661310Y-8789500D01*
X5661310Y-8789500D02*
X5670833Y-8799024D01*
X5670833Y-8799024D02*
X5680357Y-8818071D01*
X5680357Y-8818071D02*
X5689881Y-8856167D01*
X5689881Y-8856167D02*
X5689881Y-8903786D01*
X5689881Y-8903786D02*
X5680357Y-8941881D01*
X5680357Y-8941881D02*
X5670833Y-8960929D01*
X5670833Y-8960929D02*
X5661310Y-8970452D01*
X5661310Y-8970452D02*
X5642262Y-8979976D01*
X5642262Y-8979976D02*
X5623214Y-8979976D01*
X5623214Y-8979976D02*
X5604167Y-8970452D01*
X5604167Y-8970452D02*
X5594643Y-8960929D01*
X5594643Y-8960929D02*
X5585119Y-8941881D01*
X5585119Y-8941881D02*
X5575595Y-8903786D01*
X5575595Y-8903786D02*
X5575595Y-8856167D01*
X5575595Y-8856167D02*
X5585119Y-8818071D01*
X5585119Y-8818071D02*
X5594643Y-8799024D01*
X5594643Y-8799024D02*
X5604167Y-8789500D01*
X5604167Y-8789500D02*
X5623214Y-8779976D01*
X5775595Y-8960929D02*
X5785119Y-8970452D01*
X5785119Y-8970452D02*
X5775595Y-8979976D01*
X5775595Y-8979976D02*
X5766071Y-8970452D01*
X5766071Y-8970452D02*
X5775595Y-8960929D01*
X5775595Y-8960929D02*
X5775595Y-8979976D01*
X5908929Y-8779976D02*
X5927976Y-8779976D01*
X5927976Y-8779976D02*
X5947024Y-8789500D01*
X5947024Y-8789500D02*
X5956548Y-8799024D01*
X5956548Y-8799024D02*
X5966071Y-8818071D01*
X5966071Y-8818071D02*
X5975595Y-8856167D01*
X5975595Y-8856167D02*
X5975595Y-8903786D01*
X5975595Y-8903786D02*
X5966071Y-8941881D01*
X5966071Y-8941881D02*
X5956548Y-8960929D01*
X5956548Y-8960929D02*
X5947024Y-8970452D01*
X5947024Y-8970452D02*
X5927976Y-8979976D01*
X5927976Y-8979976D02*
X5908929Y-8979976D01*
X5908929Y-8979976D02*
X5889881Y-8970452D01*
X5889881Y-8970452D02*
X5880357Y-8960929D01*
X5880357Y-8960929D02*
X5870833Y-8941881D01*
X5870833Y-8941881D02*
X5861310Y-8903786D01*
X5861310Y-8903786D02*
X5861310Y-8856167D01*
X5861310Y-8856167D02*
X5870833Y-8818071D01*
X5870833Y-8818071D02*
X5880357Y-8799024D01*
X5880357Y-8799024D02*
X5889881Y-8789500D01*
X5889881Y-8789500D02*
X5908929Y-8779976D01*
X6051786Y-8799024D02*
X6061310Y-8789500D01*
X6061310Y-8789500D02*
X6080357Y-8779976D01*
X6080357Y-8779976D02*
X6127976Y-8779976D01*
X6127976Y-8779976D02*
X6147024Y-8789500D01*
X6147024Y-8789500D02*
X6156548Y-8799024D01*
X6156548Y-8799024D02*
X6166071Y-8818071D01*
X6166071Y-8818071D02*
X6166071Y-8837119D01*
X6166071Y-8837119D02*
X6156548Y-8865690D01*
X6156548Y-8865690D02*
X6042262Y-8979976D01*
X6042262Y-8979976D02*
X6166071Y-8979976D01*
X6232738Y-8779976D02*
X6366071Y-8779976D01*
X6366071Y-8779976D02*
X6280357Y-8979976D01*
X6527976Y-8779976D02*
X6489881Y-8779976D01*
X6489881Y-8779976D02*
X6470833Y-8789500D01*
X6470833Y-8789500D02*
X6461310Y-8799024D01*
X6461310Y-8799024D02*
X6442262Y-8827595D01*
X6442262Y-8827595D02*
X6432738Y-8865690D01*
X6432738Y-8865690D02*
X6432738Y-8941881D01*
X6432738Y-8941881D02*
X6442262Y-8960929D01*
X6442262Y-8960929D02*
X6451786Y-8970452D01*
X6451786Y-8970452D02*
X6470833Y-8979976D01*
X6470833Y-8979976D02*
X6508929Y-8979976D01*
X6508929Y-8979976D02*
X6527976Y-8970452D01*
X6527976Y-8970452D02*
X6537500Y-8960929D01*
X6537500Y-8960929D02*
X6547024Y-8941881D01*
X6547024Y-8941881D02*
X6547024Y-8894262D01*
X6547024Y-8894262D02*
X6537500Y-8875214D01*
X6537500Y-8875214D02*
X6527976Y-8865690D01*
X6527976Y-8865690D02*
X6508929Y-8856167D01*
X6508929Y-8856167D02*
X6470833Y-8856167D01*
X6470833Y-8856167D02*
X6451786Y-8865690D01*
X6451786Y-8865690D02*
X6442262Y-8875214D01*
X6442262Y-8875214D02*
X6432738Y-8894262D01*
X6623214Y-8779976D02*
X6623214Y-8818071D01*
X6699405Y-8779976D02*
X6699405Y-8818071D01*
X6962262Y-9056167D02*
X6952738Y-9046643D01*
X6952738Y-9046643D02*
X6933691Y-9018071D01*
X6933691Y-9018071D02*
X6924167Y-8999024D01*
X6924167Y-8999024D02*
X6914643Y-8970452D01*
X6914643Y-8970452D02*
X6905119Y-8922833D01*
X6905119Y-8922833D02*
X6905119Y-8884738D01*
X6905119Y-8884738D02*
X6914643Y-8837119D01*
X6914643Y-8837119D02*
X6924167Y-8808548D01*
X6924167Y-8808548D02*
X6933691Y-8789500D01*
X6933691Y-8789500D02*
X6952738Y-8760929D01*
X6952738Y-8760929D02*
X6962262Y-8751405D01*
X7028929Y-8799024D02*
X7038452Y-8789500D01*
X7038452Y-8789500D02*
X7057500Y-8779976D01*
X7057500Y-8779976D02*
X7105119Y-8779976D01*
X7105119Y-8779976D02*
X7124167Y-8789500D01*
X7124167Y-8789500D02*
X7133691Y-8799024D01*
X7133691Y-8799024D02*
X7143214Y-8818071D01*
X7143214Y-8818071D02*
X7143214Y-8837119D01*
X7143214Y-8837119D02*
X7133691Y-8865690D01*
X7133691Y-8865690D02*
X7019405Y-8979976D01*
X7019405Y-8979976D02*
X7143214Y-8979976D01*
X7219405Y-8799024D02*
X7228929Y-8789500D01*
X7228929Y-8789500D02*
X7247976Y-8779976D01*
X7247976Y-8779976D02*
X7295595Y-8779976D01*
X7295595Y-8779976D02*
X7314643Y-8789500D01*
X7314643Y-8789500D02*
X7324167Y-8799024D01*
X7324167Y-8799024D02*
X7333691Y-8818071D01*
X7333691Y-8818071D02*
X7333691Y-8837119D01*
X7333691Y-8837119D02*
X7324167Y-8865690D01*
X7324167Y-8865690D02*
X7209881Y-8979976D01*
X7209881Y-8979976D02*
X7333691Y-8979976D01*
X7539405Y-8979976D02*
X7539405Y-8779976D01*
X7625119Y-8979976D02*
X7625119Y-8875214D01*
X7625119Y-8875214D02*
X7615595Y-8856167D01*
X7615595Y-8856167D02*
X7596548Y-8846643D01*
X7596548Y-8846643D02*
X7567976Y-8846643D01*
X7567976Y-8846643D02*
X7548929Y-8856167D01*
X7548929Y-8856167D02*
X7539405Y-8865690D01*
X7748929Y-8979976D02*
X7729881Y-8970452D01*
X7729881Y-8970452D02*
X7720357Y-8960929D01*
X7720357Y-8960929D02*
X7710833Y-8941881D01*
X7710833Y-8941881D02*
X7710833Y-8884738D01*
X7710833Y-8884738D02*
X7720357Y-8865690D01*
X7720357Y-8865690D02*
X7729881Y-8856167D01*
X7729881Y-8856167D02*
X7748929Y-8846643D01*
X7748929Y-8846643D02*
X7777500Y-8846643D01*
X7777500Y-8846643D02*
X7796548Y-8856167D01*
X7796548Y-8856167D02*
X7806072Y-8865690D01*
X7806072Y-8865690D02*
X7815595Y-8884738D01*
X7815595Y-8884738D02*
X7815595Y-8941881D01*
X7815595Y-8941881D02*
X7806072Y-8960929D01*
X7806072Y-8960929D02*
X7796548Y-8970452D01*
X7796548Y-8970452D02*
X7777500Y-8979976D01*
X7777500Y-8979976D02*
X7748929Y-8979976D01*
X7929881Y-8979976D02*
X7910833Y-8970452D01*
X7910833Y-8970452D02*
X7901310Y-8951405D01*
X7901310Y-8951405D02*
X7901310Y-8779976D01*
X8082262Y-8970452D02*
X8063214Y-8979976D01*
X8063214Y-8979976D02*
X8025119Y-8979976D01*
X8025119Y-8979976D02*
X8006072Y-8970452D01*
X8006072Y-8970452D02*
X7996548Y-8951405D01*
X7996548Y-8951405D02*
X7996548Y-8875214D01*
X7996548Y-8875214D02*
X8006072Y-8856167D01*
X8006072Y-8856167D02*
X8025119Y-8846643D01*
X8025119Y-8846643D02*
X8063214Y-8846643D01*
X8063214Y-8846643D02*
X8082262Y-8856167D01*
X8082262Y-8856167D02*
X8091786Y-8875214D01*
X8091786Y-8875214D02*
X8091786Y-8894262D01*
X8091786Y-8894262D02*
X7996548Y-8913310D01*
X8167976Y-8970452D02*
X8187024Y-8979976D01*
X8187024Y-8979976D02*
X8225119Y-8979976D01*
X8225119Y-8979976D02*
X8244167Y-8970452D01*
X8244167Y-8970452D02*
X8253691Y-8951405D01*
X8253691Y-8951405D02*
X8253691Y-8941881D01*
X8253691Y-8941881D02*
X8244167Y-8922833D01*
X8244167Y-8922833D02*
X8225119Y-8913310D01*
X8225119Y-8913310D02*
X8196548Y-8913310D01*
X8196548Y-8913310D02*
X8177500Y-8903786D01*
X8177500Y-8903786D02*
X8167976Y-8884738D01*
X8167976Y-8884738D02*
X8167976Y-8875214D01*
X8167976Y-8875214D02*
X8177500Y-8856167D01*
X8177500Y-8856167D02*
X8196548Y-8846643D01*
X8196548Y-8846643D02*
X8225119Y-8846643D01*
X8225119Y-8846643D02*
X8244167Y-8856167D01*
X8320357Y-9056167D02*
X8329881Y-9046643D01*
X8329881Y-9046643D02*
X8348929Y-9018071D01*
X8348929Y-9018071D02*
X8358453Y-8999024D01*
X8358453Y-8999024D02*
X8367976Y-8970452D01*
X8367976Y-8970452D02*
X8377500Y-8922833D01*
X8377500Y-8922833D02*
X8377500Y-8884738D01*
X8377500Y-8884738D02*
X8367976Y-8837119D01*
X8367976Y-8837119D02*
X8358453Y-8808548D01*
X8358453Y-8808548D02*
X8348929Y-8789500D01*
X8348929Y-8789500D02*
X8329881Y-8760929D01*
X8329881Y-8760929D02*
X8320357Y-8751405D01*
D14*
X3457500Y-9130500D02*
X3457500Y-9210500D01*
X3417500Y-9170500D02*
X3497500Y-9170500D01*
D11*
X3783214Y-9043976D02*
X3802262Y-9043976D01*
X3802262Y-9043976D02*
X3821309Y-9053500D01*
X3821309Y-9053500D02*
X3830833Y-9063024D01*
X3830833Y-9063024D02*
X3840357Y-9082071D01*
X3840357Y-9082071D02*
X3849881Y-9120167D01*
X3849881Y-9120167D02*
X3849881Y-9167786D01*
X3849881Y-9167786D02*
X3840357Y-9205881D01*
X3840357Y-9205881D02*
X3830833Y-9224929D01*
X3830833Y-9224929D02*
X3821309Y-9234452D01*
X3821309Y-9234452D02*
X3802262Y-9243976D01*
X3802262Y-9243976D02*
X3783214Y-9243976D01*
X3783214Y-9243976D02*
X3764167Y-9234452D01*
X3764167Y-9234452D02*
X3754643Y-9224929D01*
X3754643Y-9224929D02*
X3745119Y-9205881D01*
X3745119Y-9205881D02*
X3735595Y-9167786D01*
X3735595Y-9167786D02*
X3735595Y-9120167D01*
X3735595Y-9120167D02*
X3745119Y-9082071D01*
X3745119Y-9082071D02*
X3754643Y-9063024D01*
X3754643Y-9063024D02*
X3764167Y-9053500D01*
X3764167Y-9053500D02*
X3783214Y-9043976D01*
X3935595Y-9224929D02*
X3945119Y-9234452D01*
X3945119Y-9234452D02*
X3935595Y-9243976D01*
X3935595Y-9243976D02*
X3926071Y-9234452D01*
X3926071Y-9234452D02*
X3935595Y-9224929D01*
X3935595Y-9224929D02*
X3935595Y-9243976D01*
X4059405Y-9129690D02*
X4040357Y-9120167D01*
X4040357Y-9120167D02*
X4030833Y-9110643D01*
X4030833Y-9110643D02*
X4021309Y-9091595D01*
X4021309Y-9091595D02*
X4021309Y-9082071D01*
X4021309Y-9082071D02*
X4030833Y-9063024D01*
X4030833Y-9063024D02*
X4040357Y-9053500D01*
X4040357Y-9053500D02*
X4059405Y-9043976D01*
X4059405Y-9043976D02*
X4097500Y-9043976D01*
X4097500Y-9043976D02*
X4116548Y-9053500D01*
X4116548Y-9053500D02*
X4126071Y-9063024D01*
X4126071Y-9063024D02*
X4135595Y-9082071D01*
X4135595Y-9082071D02*
X4135595Y-9091595D01*
X4135595Y-9091595D02*
X4126071Y-9110643D01*
X4126071Y-9110643D02*
X4116548Y-9120167D01*
X4116548Y-9120167D02*
X4097500Y-9129690D01*
X4097500Y-9129690D02*
X4059405Y-9129690D01*
X4059405Y-9129690D02*
X4040357Y-9139214D01*
X4040357Y-9139214D02*
X4030833Y-9148738D01*
X4030833Y-9148738D02*
X4021309Y-9167786D01*
X4021309Y-9167786D02*
X4021309Y-9205881D01*
X4021309Y-9205881D02*
X4030833Y-9224929D01*
X4030833Y-9224929D02*
X4040357Y-9234452D01*
X4040357Y-9234452D02*
X4059405Y-9243976D01*
X4059405Y-9243976D02*
X4097500Y-9243976D01*
X4097500Y-9243976D02*
X4116548Y-9234452D01*
X4116548Y-9234452D02*
X4126071Y-9224929D01*
X4126071Y-9224929D02*
X4135595Y-9205881D01*
X4135595Y-9205881D02*
X4135595Y-9167786D01*
X4135595Y-9167786D02*
X4126071Y-9148738D01*
X4126071Y-9148738D02*
X4116548Y-9139214D01*
X4116548Y-9139214D02*
X4097500Y-9129690D01*
X4259405Y-9043976D02*
X4278452Y-9043976D01*
X4278452Y-9043976D02*
X4297500Y-9053500D01*
X4297500Y-9053500D02*
X4307024Y-9063024D01*
X4307024Y-9063024D02*
X4316548Y-9082071D01*
X4316548Y-9082071D02*
X4326071Y-9120167D01*
X4326071Y-9120167D02*
X4326071Y-9167786D01*
X4326071Y-9167786D02*
X4316548Y-9205881D01*
X4316548Y-9205881D02*
X4307024Y-9224929D01*
X4307024Y-9224929D02*
X4297500Y-9234452D01*
X4297500Y-9234452D02*
X4278452Y-9243976D01*
X4278452Y-9243976D02*
X4259405Y-9243976D01*
X4259405Y-9243976D02*
X4240357Y-9234452D01*
X4240357Y-9234452D02*
X4230833Y-9224929D01*
X4230833Y-9224929D02*
X4221310Y-9205881D01*
X4221310Y-9205881D02*
X4211786Y-9167786D01*
X4211786Y-9167786D02*
X4211786Y-9120167D01*
X4211786Y-9120167D02*
X4221310Y-9082071D01*
X4221310Y-9082071D02*
X4230833Y-9063024D01*
X4230833Y-9063024D02*
X4240357Y-9053500D01*
X4240357Y-9053500D02*
X4259405Y-9043976D01*
X4449881Y-9043976D02*
X4468929Y-9043976D01*
X4468929Y-9043976D02*
X4487976Y-9053500D01*
X4487976Y-9053500D02*
X4497500Y-9063024D01*
X4497500Y-9063024D02*
X4507024Y-9082071D01*
X4507024Y-9082071D02*
X4516548Y-9120167D01*
X4516548Y-9120167D02*
X4516548Y-9167786D01*
X4516548Y-9167786D02*
X4507024Y-9205881D01*
X4507024Y-9205881D02*
X4497500Y-9224929D01*
X4497500Y-9224929D02*
X4487976Y-9234452D01*
X4487976Y-9234452D02*
X4468929Y-9243976D01*
X4468929Y-9243976D02*
X4449881Y-9243976D01*
X4449881Y-9243976D02*
X4430833Y-9234452D01*
X4430833Y-9234452D02*
X4421310Y-9224929D01*
X4421310Y-9224929D02*
X4411786Y-9205881D01*
X4411786Y-9205881D02*
X4402262Y-9167786D01*
X4402262Y-9167786D02*
X4402262Y-9120167D01*
X4402262Y-9120167D02*
X4411786Y-9082071D01*
X4411786Y-9082071D02*
X4421310Y-9063024D01*
X4421310Y-9063024D02*
X4430833Y-9053500D01*
X4430833Y-9053500D02*
X4449881Y-9043976D01*
X4602262Y-9243976D02*
X4602262Y-9110643D01*
X4602262Y-9129690D02*
X4611786Y-9120167D01*
X4611786Y-9120167D02*
X4630833Y-9110643D01*
X4630833Y-9110643D02*
X4659405Y-9110643D01*
X4659405Y-9110643D02*
X4678452Y-9120167D01*
X4678452Y-9120167D02*
X4687976Y-9139214D01*
X4687976Y-9139214D02*
X4687976Y-9243976D01*
X4687976Y-9139214D02*
X4697500Y-9120167D01*
X4697500Y-9120167D02*
X4716548Y-9110643D01*
X4716548Y-9110643D02*
X4745119Y-9110643D01*
X4745119Y-9110643D02*
X4764167Y-9120167D01*
X4764167Y-9120167D02*
X4773691Y-9139214D01*
X4773691Y-9139214D02*
X4773691Y-9243976D01*
X4868929Y-9243976D02*
X4868929Y-9110643D01*
X4868929Y-9129690D02*
X4878452Y-9120167D01*
X4878452Y-9120167D02*
X4897500Y-9110643D01*
X4897500Y-9110643D02*
X4926072Y-9110643D01*
X4926072Y-9110643D02*
X4945119Y-9120167D01*
X4945119Y-9120167D02*
X4954643Y-9139214D01*
X4954643Y-9139214D02*
X4954643Y-9243976D01*
X4954643Y-9139214D02*
X4964167Y-9120167D01*
X4964167Y-9120167D02*
X4983214Y-9110643D01*
X4983214Y-9110643D02*
X5011786Y-9110643D01*
X5011786Y-9110643D02*
X5030833Y-9120167D01*
X5030833Y-9120167D02*
X5040357Y-9139214D01*
X5040357Y-9139214D02*
X5040357Y-9243976D01*
X5398452Y-9034452D02*
X5227024Y-9291595D01*
X5623214Y-9043976D02*
X5642262Y-9043976D01*
X5642262Y-9043976D02*
X5661310Y-9053500D01*
X5661310Y-9053500D02*
X5670833Y-9063024D01*
X5670833Y-9063024D02*
X5680357Y-9082071D01*
X5680357Y-9082071D02*
X5689881Y-9120167D01*
X5689881Y-9120167D02*
X5689881Y-9167786D01*
X5689881Y-9167786D02*
X5680357Y-9205881D01*
X5680357Y-9205881D02*
X5670833Y-9224929D01*
X5670833Y-9224929D02*
X5661310Y-9234452D01*
X5661310Y-9234452D02*
X5642262Y-9243976D01*
X5642262Y-9243976D02*
X5623214Y-9243976D01*
X5623214Y-9243976D02*
X5604167Y-9234452D01*
X5604167Y-9234452D02*
X5594643Y-9224929D01*
X5594643Y-9224929D02*
X5585119Y-9205881D01*
X5585119Y-9205881D02*
X5575595Y-9167786D01*
X5575595Y-9167786D02*
X5575595Y-9120167D01*
X5575595Y-9120167D02*
X5585119Y-9082071D01*
X5585119Y-9082071D02*
X5594643Y-9063024D01*
X5594643Y-9063024D02*
X5604167Y-9053500D01*
X5604167Y-9053500D02*
X5623214Y-9043976D01*
X5775595Y-9224929D02*
X5785119Y-9234452D01*
X5785119Y-9234452D02*
X5775595Y-9243976D01*
X5775595Y-9243976D02*
X5766071Y-9234452D01*
X5766071Y-9234452D02*
X5775595Y-9224929D01*
X5775595Y-9224929D02*
X5775595Y-9243976D01*
X5908929Y-9043976D02*
X5927976Y-9043976D01*
X5927976Y-9043976D02*
X5947024Y-9053500D01*
X5947024Y-9053500D02*
X5956548Y-9063024D01*
X5956548Y-9063024D02*
X5966071Y-9082071D01*
X5966071Y-9082071D02*
X5975595Y-9120167D01*
X5975595Y-9120167D02*
X5975595Y-9167786D01*
X5975595Y-9167786D02*
X5966071Y-9205881D01*
X5966071Y-9205881D02*
X5956548Y-9224929D01*
X5956548Y-9224929D02*
X5947024Y-9234452D01*
X5947024Y-9234452D02*
X5927976Y-9243976D01*
X5927976Y-9243976D02*
X5908929Y-9243976D01*
X5908929Y-9243976D02*
X5889881Y-9234452D01*
X5889881Y-9234452D02*
X5880357Y-9224929D01*
X5880357Y-9224929D02*
X5870833Y-9205881D01*
X5870833Y-9205881D02*
X5861310Y-9167786D01*
X5861310Y-9167786D02*
X5861310Y-9120167D01*
X5861310Y-9120167D02*
X5870833Y-9082071D01*
X5870833Y-9082071D02*
X5880357Y-9063024D01*
X5880357Y-9063024D02*
X5889881Y-9053500D01*
X5889881Y-9053500D02*
X5908929Y-9043976D01*
X6042262Y-9043976D02*
X6166071Y-9043976D01*
X6166071Y-9043976D02*
X6099405Y-9120167D01*
X6099405Y-9120167D02*
X6127976Y-9120167D01*
X6127976Y-9120167D02*
X6147024Y-9129690D01*
X6147024Y-9129690D02*
X6156548Y-9139214D01*
X6156548Y-9139214D02*
X6166071Y-9158262D01*
X6166071Y-9158262D02*
X6166071Y-9205881D01*
X6166071Y-9205881D02*
X6156548Y-9224929D01*
X6156548Y-9224929D02*
X6147024Y-9234452D01*
X6147024Y-9234452D02*
X6127976Y-9243976D01*
X6127976Y-9243976D02*
X6070833Y-9243976D01*
X6070833Y-9243976D02*
X6051786Y-9234452D01*
X6051786Y-9234452D02*
X6042262Y-9224929D01*
X6356548Y-9243976D02*
X6242262Y-9243976D01*
X6299405Y-9243976D02*
X6299405Y-9043976D01*
X6299405Y-9043976D02*
X6280357Y-9072548D01*
X6280357Y-9072548D02*
X6261310Y-9091595D01*
X6261310Y-9091595D02*
X6242262Y-9101119D01*
X6537500Y-9043976D02*
X6442262Y-9043976D01*
X6442262Y-9043976D02*
X6432738Y-9139214D01*
X6432738Y-9139214D02*
X6442262Y-9129690D01*
X6442262Y-9129690D02*
X6461310Y-9120167D01*
X6461310Y-9120167D02*
X6508929Y-9120167D01*
X6508929Y-9120167D02*
X6527976Y-9129690D01*
X6527976Y-9129690D02*
X6537500Y-9139214D01*
X6537500Y-9139214D02*
X6547024Y-9158262D01*
X6547024Y-9158262D02*
X6547024Y-9205881D01*
X6547024Y-9205881D02*
X6537500Y-9224929D01*
X6537500Y-9224929D02*
X6527976Y-9234452D01*
X6527976Y-9234452D02*
X6508929Y-9243976D01*
X6508929Y-9243976D02*
X6461310Y-9243976D01*
X6461310Y-9243976D02*
X6442262Y-9234452D01*
X6442262Y-9234452D02*
X6432738Y-9224929D01*
X6623214Y-9043976D02*
X6623214Y-9082071D01*
X6699405Y-9043976D02*
X6699405Y-9082071D01*
X6962262Y-9320167D02*
X6952738Y-9310643D01*
X6952738Y-9310643D02*
X6933691Y-9282071D01*
X6933691Y-9282071D02*
X6924167Y-9263024D01*
X6924167Y-9263024D02*
X6914643Y-9234452D01*
X6914643Y-9234452D02*
X6905119Y-9186833D01*
X6905119Y-9186833D02*
X6905119Y-9148738D01*
X6905119Y-9148738D02*
X6914643Y-9101119D01*
X6914643Y-9101119D02*
X6924167Y-9072548D01*
X6924167Y-9072548D02*
X6933691Y-9053500D01*
X6933691Y-9053500D02*
X6952738Y-9024929D01*
X6952738Y-9024929D02*
X6962262Y-9015405D01*
X7019405Y-9043976D02*
X7143214Y-9043976D01*
X7143214Y-9043976D02*
X7076548Y-9120167D01*
X7076548Y-9120167D02*
X7105119Y-9120167D01*
X7105119Y-9120167D02*
X7124167Y-9129690D01*
X7124167Y-9129690D02*
X7133691Y-9139214D01*
X7133691Y-9139214D02*
X7143214Y-9158262D01*
X7143214Y-9158262D02*
X7143214Y-9205881D01*
X7143214Y-9205881D02*
X7133691Y-9224929D01*
X7133691Y-9224929D02*
X7124167Y-9234452D01*
X7124167Y-9234452D02*
X7105119Y-9243976D01*
X7105119Y-9243976D02*
X7047976Y-9243976D01*
X7047976Y-9243976D02*
X7028929Y-9234452D01*
X7028929Y-9234452D02*
X7019405Y-9224929D01*
X7314643Y-9043976D02*
X7276548Y-9043976D01*
X7276548Y-9043976D02*
X7257500Y-9053500D01*
X7257500Y-9053500D02*
X7247976Y-9063024D01*
X7247976Y-9063024D02*
X7228929Y-9091595D01*
X7228929Y-9091595D02*
X7219405Y-9129690D01*
X7219405Y-9129690D02*
X7219405Y-9205881D01*
X7219405Y-9205881D02*
X7228929Y-9224929D01*
X7228929Y-9224929D02*
X7238452Y-9234452D01*
X7238452Y-9234452D02*
X7257500Y-9243976D01*
X7257500Y-9243976D02*
X7295595Y-9243976D01*
X7295595Y-9243976D02*
X7314643Y-9234452D01*
X7314643Y-9234452D02*
X7324167Y-9224929D01*
X7324167Y-9224929D02*
X7333691Y-9205881D01*
X7333691Y-9205881D02*
X7333691Y-9158262D01*
X7333691Y-9158262D02*
X7324167Y-9139214D01*
X7324167Y-9139214D02*
X7314643Y-9129690D01*
X7314643Y-9129690D02*
X7295595Y-9120167D01*
X7295595Y-9120167D02*
X7257500Y-9120167D01*
X7257500Y-9120167D02*
X7238452Y-9129690D01*
X7238452Y-9129690D02*
X7228929Y-9139214D01*
X7228929Y-9139214D02*
X7219405Y-9158262D01*
X7539405Y-9243976D02*
X7539405Y-9043976D01*
X7625119Y-9243976D02*
X7625119Y-9139214D01*
X7625119Y-9139214D02*
X7615595Y-9120167D01*
X7615595Y-9120167D02*
X7596548Y-9110643D01*
X7596548Y-9110643D02*
X7567976Y-9110643D01*
X7567976Y-9110643D02*
X7548929Y-9120167D01*
X7548929Y-9120167D02*
X7539405Y-9129690D01*
X7748929Y-9243976D02*
X7729881Y-9234452D01*
X7729881Y-9234452D02*
X7720357Y-9224929D01*
X7720357Y-9224929D02*
X7710833Y-9205881D01*
X7710833Y-9205881D02*
X7710833Y-9148738D01*
X7710833Y-9148738D02*
X7720357Y-9129690D01*
X7720357Y-9129690D02*
X7729881Y-9120167D01*
X7729881Y-9120167D02*
X7748929Y-9110643D01*
X7748929Y-9110643D02*
X7777500Y-9110643D01*
X7777500Y-9110643D02*
X7796548Y-9120167D01*
X7796548Y-9120167D02*
X7806072Y-9129690D01*
X7806072Y-9129690D02*
X7815595Y-9148738D01*
X7815595Y-9148738D02*
X7815595Y-9205881D01*
X7815595Y-9205881D02*
X7806072Y-9224929D01*
X7806072Y-9224929D02*
X7796548Y-9234452D01*
X7796548Y-9234452D02*
X7777500Y-9243976D01*
X7777500Y-9243976D02*
X7748929Y-9243976D01*
X7929881Y-9243976D02*
X7910833Y-9234452D01*
X7910833Y-9234452D02*
X7901310Y-9215405D01*
X7901310Y-9215405D02*
X7901310Y-9043976D01*
X8082262Y-9234452D02*
X8063214Y-9243976D01*
X8063214Y-9243976D02*
X8025119Y-9243976D01*
X8025119Y-9243976D02*
X8006072Y-9234452D01*
X8006072Y-9234452D02*
X7996548Y-9215405D01*
X7996548Y-9215405D02*
X7996548Y-9139214D01*
X7996548Y-9139214D02*
X8006072Y-9120167D01*
X8006072Y-9120167D02*
X8025119Y-9110643D01*
X8025119Y-9110643D02*
X8063214Y-9110643D01*
X8063214Y-9110643D02*
X8082262Y-9120167D01*
X8082262Y-9120167D02*
X8091786Y-9139214D01*
X8091786Y-9139214D02*
X8091786Y-9158262D01*
X8091786Y-9158262D02*
X7996548Y-9177310D01*
X8167976Y-9234452D02*
X8187024Y-9243976D01*
X8187024Y-9243976D02*
X8225119Y-9243976D01*
X8225119Y-9243976D02*
X8244167Y-9234452D01*
X8244167Y-9234452D02*
X8253691Y-9215405D01*
X8253691Y-9215405D02*
X8253691Y-9205881D01*
X8253691Y-9205881D02*
X8244167Y-9186833D01*
X8244167Y-9186833D02*
X8225119Y-9177310D01*
X8225119Y-9177310D02*
X8196548Y-9177310D01*
X8196548Y-9177310D02*
X8177500Y-9167786D01*
X8177500Y-9167786D02*
X8167976Y-9148738D01*
X8167976Y-9148738D02*
X8167976Y-9139214D01*
X8167976Y-9139214D02*
X8177500Y-9120167D01*
X8177500Y-9120167D02*
X8196548Y-9110643D01*
X8196548Y-9110643D02*
X8225119Y-9110643D01*
X8225119Y-9110643D02*
X8244167Y-9120167D01*
X8320357Y-9320167D02*
X8329881Y-9310643D01*
X8329881Y-9310643D02*
X8348929Y-9282071D01*
X8348929Y-9282071D02*
X8358453Y-9263024D01*
X8358453Y-9263024D02*
X8367976Y-9234452D01*
X8367976Y-9234452D02*
X8377500Y-9186833D01*
X8377500Y-9186833D02*
X8377500Y-9148738D01*
X8377500Y-9148738D02*
X8367976Y-9101119D01*
X8367976Y-9101119D02*
X8358453Y-9072548D01*
X8358453Y-9072548D02*
X8348929Y-9053500D01*
X8348929Y-9053500D02*
X8329881Y-9024929D01*
X8329881Y-9024929D02*
X8320357Y-9015405D01*
D15*
X3482856Y-9469856D02*
X3482856Y-9399144D01*
X3412144Y-9399144D01*
X3412144Y-9469856D01*
X3482856Y-9469856D01*
D11*
X3849881Y-9507976D02*
X3735595Y-9507976D01*
X3792738Y-9507976D02*
X3792738Y-9307976D01*
X3792738Y-9307976D02*
X3773690Y-9336548D01*
X3773690Y-9336548D02*
X3754643Y-9355595D01*
X3754643Y-9355595D02*
X3735595Y-9365119D01*
X3935595Y-9488929D02*
X3945119Y-9498452D01*
X3945119Y-9498452D02*
X3935595Y-9507976D01*
X3935595Y-9507976D02*
X3926071Y-9498452D01*
X3926071Y-9498452D02*
X3935595Y-9488929D01*
X3935595Y-9488929D02*
X3935595Y-9507976D01*
X4068928Y-9307976D02*
X4087976Y-9307976D01*
X4087976Y-9307976D02*
X4107024Y-9317500D01*
X4107024Y-9317500D02*
X4116548Y-9327024D01*
X4116548Y-9327024D02*
X4126071Y-9346071D01*
X4126071Y-9346071D02*
X4135595Y-9384167D01*
X4135595Y-9384167D02*
X4135595Y-9431786D01*
X4135595Y-9431786D02*
X4126071Y-9469881D01*
X4126071Y-9469881D02*
X4116548Y-9488929D01*
X4116548Y-9488929D02*
X4107024Y-9498452D01*
X4107024Y-9498452D02*
X4087976Y-9507976D01*
X4087976Y-9507976D02*
X4068928Y-9507976D01*
X4068928Y-9507976D02*
X4049881Y-9498452D01*
X4049881Y-9498452D02*
X4040357Y-9488929D01*
X4040357Y-9488929D02*
X4030833Y-9469881D01*
X4030833Y-9469881D02*
X4021309Y-9431786D01*
X4021309Y-9431786D02*
X4021309Y-9384167D01*
X4021309Y-9384167D02*
X4030833Y-9346071D01*
X4030833Y-9346071D02*
X4040357Y-9327024D01*
X4040357Y-9327024D02*
X4049881Y-9317500D01*
X4049881Y-9317500D02*
X4068928Y-9307976D01*
X4259405Y-9307976D02*
X4278452Y-9307976D01*
X4278452Y-9307976D02*
X4297500Y-9317500D01*
X4297500Y-9317500D02*
X4307024Y-9327024D01*
X4307024Y-9327024D02*
X4316548Y-9346071D01*
X4316548Y-9346071D02*
X4326071Y-9384167D01*
X4326071Y-9384167D02*
X4326071Y-9431786D01*
X4326071Y-9431786D02*
X4316548Y-9469881D01*
X4316548Y-9469881D02*
X4307024Y-9488929D01*
X4307024Y-9488929D02*
X4297500Y-9498452D01*
X4297500Y-9498452D02*
X4278452Y-9507976D01*
X4278452Y-9507976D02*
X4259405Y-9507976D01*
X4259405Y-9507976D02*
X4240357Y-9498452D01*
X4240357Y-9498452D02*
X4230833Y-9488929D01*
X4230833Y-9488929D02*
X4221310Y-9469881D01*
X4221310Y-9469881D02*
X4211786Y-9431786D01*
X4211786Y-9431786D02*
X4211786Y-9384167D01*
X4211786Y-9384167D02*
X4221310Y-9346071D01*
X4221310Y-9346071D02*
X4230833Y-9327024D01*
X4230833Y-9327024D02*
X4240357Y-9317500D01*
X4240357Y-9317500D02*
X4259405Y-9307976D01*
X4449881Y-9307976D02*
X4468929Y-9307976D01*
X4468929Y-9307976D02*
X4487976Y-9317500D01*
X4487976Y-9317500D02*
X4497500Y-9327024D01*
X4497500Y-9327024D02*
X4507024Y-9346071D01*
X4507024Y-9346071D02*
X4516548Y-9384167D01*
X4516548Y-9384167D02*
X4516548Y-9431786D01*
X4516548Y-9431786D02*
X4507024Y-9469881D01*
X4507024Y-9469881D02*
X4497500Y-9488929D01*
X4497500Y-9488929D02*
X4487976Y-9498452D01*
X4487976Y-9498452D02*
X4468929Y-9507976D01*
X4468929Y-9507976D02*
X4449881Y-9507976D01*
X4449881Y-9507976D02*
X4430833Y-9498452D01*
X4430833Y-9498452D02*
X4421310Y-9488929D01*
X4421310Y-9488929D02*
X4411786Y-9469881D01*
X4411786Y-9469881D02*
X4402262Y-9431786D01*
X4402262Y-9431786D02*
X4402262Y-9384167D01*
X4402262Y-9384167D02*
X4411786Y-9346071D01*
X4411786Y-9346071D02*
X4421310Y-9327024D01*
X4421310Y-9327024D02*
X4430833Y-9317500D01*
X4430833Y-9317500D02*
X4449881Y-9307976D01*
X4602262Y-9507976D02*
X4602262Y-9374643D01*
X4602262Y-9393690D02*
X4611786Y-9384167D01*
X4611786Y-9384167D02*
X4630833Y-9374643D01*
X4630833Y-9374643D02*
X4659405Y-9374643D01*
X4659405Y-9374643D02*
X4678452Y-9384167D01*
X4678452Y-9384167D02*
X4687976Y-9403214D01*
X4687976Y-9403214D02*
X4687976Y-9507976D01*
X4687976Y-9403214D02*
X4697500Y-9384167D01*
X4697500Y-9384167D02*
X4716548Y-9374643D01*
X4716548Y-9374643D02*
X4745119Y-9374643D01*
X4745119Y-9374643D02*
X4764167Y-9384167D01*
X4764167Y-9384167D02*
X4773691Y-9403214D01*
X4773691Y-9403214D02*
X4773691Y-9507976D01*
X4868929Y-9507976D02*
X4868929Y-9374643D01*
X4868929Y-9393690D02*
X4878452Y-9384167D01*
X4878452Y-9384167D02*
X4897500Y-9374643D01*
X4897500Y-9374643D02*
X4926072Y-9374643D01*
X4926072Y-9374643D02*
X4945119Y-9384167D01*
X4945119Y-9384167D02*
X4954643Y-9403214D01*
X4954643Y-9403214D02*
X4954643Y-9507976D01*
X4954643Y-9403214D02*
X4964167Y-9384167D01*
X4964167Y-9384167D02*
X4983214Y-9374643D01*
X4983214Y-9374643D02*
X5011786Y-9374643D01*
X5011786Y-9374643D02*
X5030833Y-9384167D01*
X5030833Y-9384167D02*
X5040357Y-9403214D01*
X5040357Y-9403214D02*
X5040357Y-9507976D01*
X5398452Y-9298452D02*
X5227024Y-9555595D01*
X5623214Y-9307976D02*
X5642262Y-9307976D01*
X5642262Y-9307976D02*
X5661310Y-9317500D01*
X5661310Y-9317500D02*
X5670833Y-9327024D01*
X5670833Y-9327024D02*
X5680357Y-9346071D01*
X5680357Y-9346071D02*
X5689881Y-9384167D01*
X5689881Y-9384167D02*
X5689881Y-9431786D01*
X5689881Y-9431786D02*
X5680357Y-9469881D01*
X5680357Y-9469881D02*
X5670833Y-9488929D01*
X5670833Y-9488929D02*
X5661310Y-9498452D01*
X5661310Y-9498452D02*
X5642262Y-9507976D01*
X5642262Y-9507976D02*
X5623214Y-9507976D01*
X5623214Y-9507976D02*
X5604167Y-9498452D01*
X5604167Y-9498452D02*
X5594643Y-9488929D01*
X5594643Y-9488929D02*
X5585119Y-9469881D01*
X5585119Y-9469881D02*
X5575595Y-9431786D01*
X5575595Y-9431786D02*
X5575595Y-9384167D01*
X5575595Y-9384167D02*
X5585119Y-9346071D01*
X5585119Y-9346071D02*
X5594643Y-9327024D01*
X5594643Y-9327024D02*
X5604167Y-9317500D01*
X5604167Y-9317500D02*
X5623214Y-9307976D01*
X5775595Y-9488929D02*
X5785119Y-9498452D01*
X5785119Y-9498452D02*
X5775595Y-9507976D01*
X5775595Y-9507976D02*
X5766071Y-9498452D01*
X5766071Y-9498452D02*
X5775595Y-9488929D01*
X5775595Y-9488929D02*
X5775595Y-9507976D01*
X5908929Y-9307976D02*
X5927976Y-9307976D01*
X5927976Y-9307976D02*
X5947024Y-9317500D01*
X5947024Y-9317500D02*
X5956548Y-9327024D01*
X5956548Y-9327024D02*
X5966071Y-9346071D01*
X5966071Y-9346071D02*
X5975595Y-9384167D01*
X5975595Y-9384167D02*
X5975595Y-9431786D01*
X5975595Y-9431786D02*
X5966071Y-9469881D01*
X5966071Y-9469881D02*
X5956548Y-9488929D01*
X5956548Y-9488929D02*
X5947024Y-9498452D01*
X5947024Y-9498452D02*
X5927976Y-9507976D01*
X5927976Y-9507976D02*
X5908929Y-9507976D01*
X5908929Y-9507976D02*
X5889881Y-9498452D01*
X5889881Y-9498452D02*
X5880357Y-9488929D01*
X5880357Y-9488929D02*
X5870833Y-9469881D01*
X5870833Y-9469881D02*
X5861310Y-9431786D01*
X5861310Y-9431786D02*
X5861310Y-9384167D01*
X5861310Y-9384167D02*
X5870833Y-9346071D01*
X5870833Y-9346071D02*
X5880357Y-9327024D01*
X5880357Y-9327024D02*
X5889881Y-9317500D01*
X5889881Y-9317500D02*
X5908929Y-9307976D01*
X6042262Y-9307976D02*
X6166071Y-9307976D01*
X6166071Y-9307976D02*
X6099405Y-9384167D01*
X6099405Y-9384167D02*
X6127976Y-9384167D01*
X6127976Y-9384167D02*
X6147024Y-9393690D01*
X6147024Y-9393690D02*
X6156548Y-9403214D01*
X6156548Y-9403214D02*
X6166071Y-9422262D01*
X6166071Y-9422262D02*
X6166071Y-9469881D01*
X6166071Y-9469881D02*
X6156548Y-9488929D01*
X6156548Y-9488929D02*
X6147024Y-9498452D01*
X6147024Y-9498452D02*
X6127976Y-9507976D01*
X6127976Y-9507976D02*
X6070833Y-9507976D01*
X6070833Y-9507976D02*
X6051786Y-9498452D01*
X6051786Y-9498452D02*
X6042262Y-9488929D01*
X6261310Y-9507976D02*
X6299405Y-9507976D01*
X6299405Y-9507976D02*
X6318452Y-9498452D01*
X6318452Y-9498452D02*
X6327976Y-9488929D01*
X6327976Y-9488929D02*
X6347024Y-9460357D01*
X6347024Y-9460357D02*
X6356548Y-9422262D01*
X6356548Y-9422262D02*
X6356548Y-9346071D01*
X6356548Y-9346071D02*
X6347024Y-9327024D01*
X6347024Y-9327024D02*
X6337500Y-9317500D01*
X6337500Y-9317500D02*
X6318452Y-9307976D01*
X6318452Y-9307976D02*
X6280357Y-9307976D01*
X6280357Y-9307976D02*
X6261310Y-9317500D01*
X6261310Y-9317500D02*
X6251786Y-9327024D01*
X6251786Y-9327024D02*
X6242262Y-9346071D01*
X6242262Y-9346071D02*
X6242262Y-9393690D01*
X6242262Y-9393690D02*
X6251786Y-9412738D01*
X6251786Y-9412738D02*
X6261310Y-9422262D01*
X6261310Y-9422262D02*
X6280357Y-9431786D01*
X6280357Y-9431786D02*
X6318452Y-9431786D01*
X6318452Y-9431786D02*
X6337500Y-9422262D01*
X6337500Y-9422262D02*
X6347024Y-9412738D01*
X6347024Y-9412738D02*
X6356548Y-9393690D01*
X6527976Y-9374643D02*
X6527976Y-9507976D01*
X6480357Y-9298452D02*
X6432738Y-9441310D01*
X6432738Y-9441310D02*
X6556548Y-9441310D01*
X6623214Y-9307976D02*
X6623214Y-9346071D01*
X6699405Y-9307976D02*
X6699405Y-9346071D01*
X6962262Y-9584167D02*
X6952738Y-9574643D01*
X6952738Y-9574643D02*
X6933691Y-9546071D01*
X6933691Y-9546071D02*
X6924167Y-9527024D01*
X6924167Y-9527024D02*
X6914643Y-9498452D01*
X6914643Y-9498452D02*
X6905119Y-9450833D01*
X6905119Y-9450833D02*
X6905119Y-9412738D01*
X6905119Y-9412738D02*
X6914643Y-9365119D01*
X6914643Y-9365119D02*
X6924167Y-9336548D01*
X6924167Y-9336548D02*
X6933691Y-9317500D01*
X6933691Y-9317500D02*
X6952738Y-9288929D01*
X6952738Y-9288929D02*
X6962262Y-9279405D01*
X7124167Y-9307976D02*
X7086071Y-9307976D01*
X7086071Y-9307976D02*
X7067024Y-9317500D01*
X7067024Y-9317500D02*
X7057500Y-9327024D01*
X7057500Y-9327024D02*
X7038452Y-9355595D01*
X7038452Y-9355595D02*
X7028929Y-9393690D01*
X7028929Y-9393690D02*
X7028929Y-9469881D01*
X7028929Y-9469881D02*
X7038452Y-9488929D01*
X7038452Y-9488929D02*
X7047976Y-9498452D01*
X7047976Y-9498452D02*
X7067024Y-9507976D01*
X7067024Y-9507976D02*
X7105119Y-9507976D01*
X7105119Y-9507976D02*
X7124167Y-9498452D01*
X7124167Y-9498452D02*
X7133691Y-9488929D01*
X7133691Y-9488929D02*
X7143214Y-9469881D01*
X7143214Y-9469881D02*
X7143214Y-9422262D01*
X7143214Y-9422262D02*
X7133691Y-9403214D01*
X7133691Y-9403214D02*
X7124167Y-9393690D01*
X7124167Y-9393690D02*
X7105119Y-9384167D01*
X7105119Y-9384167D02*
X7067024Y-9384167D01*
X7067024Y-9384167D02*
X7047976Y-9393690D01*
X7047976Y-9393690D02*
X7038452Y-9403214D01*
X7038452Y-9403214D02*
X7028929Y-9422262D01*
X7348929Y-9507976D02*
X7348929Y-9307976D01*
X7434643Y-9507976D02*
X7434643Y-9403214D01*
X7434643Y-9403214D02*
X7425119Y-9384167D01*
X7425119Y-9384167D02*
X7406072Y-9374643D01*
X7406072Y-9374643D02*
X7377500Y-9374643D01*
X7377500Y-9374643D02*
X7358452Y-9384167D01*
X7358452Y-9384167D02*
X7348929Y-9393690D01*
X7558452Y-9507976D02*
X7539405Y-9498452D01*
X7539405Y-9498452D02*
X7529881Y-9488929D01*
X7529881Y-9488929D02*
X7520357Y-9469881D01*
X7520357Y-9469881D02*
X7520357Y-9412738D01*
X7520357Y-9412738D02*
X7529881Y-9393690D01*
X7529881Y-9393690D02*
X7539405Y-9384167D01*
X7539405Y-9384167D02*
X7558452Y-9374643D01*
X7558452Y-9374643D02*
X7587024Y-9374643D01*
X7587024Y-9374643D02*
X7606072Y-9384167D01*
X7606072Y-9384167D02*
X7615595Y-9393690D01*
X7615595Y-9393690D02*
X7625119Y-9412738D01*
X7625119Y-9412738D02*
X7625119Y-9469881D01*
X7625119Y-9469881D02*
X7615595Y-9488929D01*
X7615595Y-9488929D02*
X7606072Y-9498452D01*
X7606072Y-9498452D02*
X7587024Y-9507976D01*
X7587024Y-9507976D02*
X7558452Y-9507976D01*
X7739405Y-9507976D02*
X7720357Y-9498452D01*
X7720357Y-9498452D02*
X7710833Y-9479405D01*
X7710833Y-9479405D02*
X7710833Y-9307976D01*
X7891786Y-9498452D02*
X7872738Y-9507976D01*
X7872738Y-9507976D02*
X7834643Y-9507976D01*
X7834643Y-9507976D02*
X7815595Y-9498452D01*
X7815595Y-9498452D02*
X7806072Y-9479405D01*
X7806072Y-9479405D02*
X7806072Y-9403214D01*
X7806072Y-9403214D02*
X7815595Y-9384167D01*
X7815595Y-9384167D02*
X7834643Y-9374643D01*
X7834643Y-9374643D02*
X7872738Y-9374643D01*
X7872738Y-9374643D02*
X7891786Y-9384167D01*
X7891786Y-9384167D02*
X7901310Y-9403214D01*
X7901310Y-9403214D02*
X7901310Y-9422262D01*
X7901310Y-9422262D02*
X7806072Y-9441310D01*
X7977500Y-9498452D02*
X7996548Y-9507976D01*
X7996548Y-9507976D02*
X8034643Y-9507976D01*
X8034643Y-9507976D02*
X8053691Y-9498452D01*
X8053691Y-9498452D02*
X8063214Y-9479405D01*
X8063214Y-9479405D02*
X8063214Y-9469881D01*
X8063214Y-9469881D02*
X8053691Y-9450833D01*
X8053691Y-9450833D02*
X8034643Y-9441310D01*
X8034643Y-9441310D02*
X8006072Y-9441310D01*
X8006072Y-9441310D02*
X7987024Y-9431786D01*
X7987024Y-9431786D02*
X7977500Y-9412738D01*
X7977500Y-9412738D02*
X7977500Y-9403214D01*
X7977500Y-9403214D02*
X7987024Y-9384167D01*
X7987024Y-9384167D02*
X8006072Y-9374643D01*
X8006072Y-9374643D02*
X8034643Y-9374643D01*
X8034643Y-9374643D02*
X8053691Y-9384167D01*
X8129881Y-9584167D02*
X8139405Y-9574643D01*
X8139405Y-9574643D02*
X8158453Y-9546071D01*
X8158453Y-9546071D02*
X8167976Y-9527024D01*
X8167976Y-9527024D02*
X8177500Y-9498452D01*
X8177500Y-9498452D02*
X8187024Y-9450833D01*
X8187024Y-9450833D02*
X8187024Y-9412738D01*
X8187024Y-9412738D02*
X8177500Y-9365119D01*
X8177500Y-9365119D02*
X8167976Y-9336548D01*
X8167976Y-9336548D02*
X8158453Y-9317500D01*
X8158453Y-9317500D02*
X8139405Y-9288929D01*
X8139405Y-9288929D02*
X8129881Y-9279405D01*
X3397500Y-9798500D02*
X3497500Y-9698500D01*
X3397500Y-9598500D01*
X3297500Y-9698500D01*
X3397500Y-9798500D01*
X3735595Y-9591024D02*
X3745119Y-9581500D01*
X3745119Y-9581500D02*
X3764167Y-9571976D01*
X3764167Y-9571976D02*
X3811786Y-9571976D01*
X3811786Y-9571976D02*
X3830833Y-9581500D01*
X3830833Y-9581500D02*
X3840357Y-9591024D01*
X3840357Y-9591024D02*
X3849881Y-9610071D01*
X3849881Y-9610071D02*
X3849881Y-9629119D01*
X3849881Y-9629119D02*
X3840357Y-9657690D01*
X3840357Y-9657690D02*
X3726071Y-9771976D01*
X3726071Y-9771976D02*
X3849881Y-9771976D01*
X3935595Y-9752929D02*
X3945119Y-9762452D01*
X3945119Y-9762452D02*
X3935595Y-9771976D01*
X3935595Y-9771976D02*
X3926071Y-9762452D01*
X3926071Y-9762452D02*
X3935595Y-9752929D01*
X3935595Y-9752929D02*
X3935595Y-9771976D01*
X4021309Y-9591024D02*
X4030833Y-9581500D01*
X4030833Y-9581500D02*
X4049881Y-9571976D01*
X4049881Y-9571976D02*
X4097500Y-9571976D01*
X4097500Y-9571976D02*
X4116548Y-9581500D01*
X4116548Y-9581500D02*
X4126071Y-9591024D01*
X4126071Y-9591024D02*
X4135595Y-9610071D01*
X4135595Y-9610071D02*
X4135595Y-9629119D01*
X4135595Y-9629119D02*
X4126071Y-9657690D01*
X4126071Y-9657690D02*
X4011786Y-9771976D01*
X4011786Y-9771976D02*
X4135595Y-9771976D01*
X4259405Y-9571976D02*
X4278452Y-9571976D01*
X4278452Y-9571976D02*
X4297500Y-9581500D01*
X4297500Y-9581500D02*
X4307024Y-9591024D01*
X4307024Y-9591024D02*
X4316548Y-9610071D01*
X4316548Y-9610071D02*
X4326071Y-9648167D01*
X4326071Y-9648167D02*
X4326071Y-9695786D01*
X4326071Y-9695786D02*
X4316548Y-9733881D01*
X4316548Y-9733881D02*
X4307024Y-9752929D01*
X4307024Y-9752929D02*
X4297500Y-9762452D01*
X4297500Y-9762452D02*
X4278452Y-9771976D01*
X4278452Y-9771976D02*
X4259405Y-9771976D01*
X4259405Y-9771976D02*
X4240357Y-9762452D01*
X4240357Y-9762452D02*
X4230833Y-9752929D01*
X4230833Y-9752929D02*
X4221310Y-9733881D01*
X4221310Y-9733881D02*
X4211786Y-9695786D01*
X4211786Y-9695786D02*
X4211786Y-9648167D01*
X4211786Y-9648167D02*
X4221310Y-9610071D01*
X4221310Y-9610071D02*
X4230833Y-9591024D01*
X4230833Y-9591024D02*
X4240357Y-9581500D01*
X4240357Y-9581500D02*
X4259405Y-9571976D01*
X4449881Y-9571976D02*
X4468929Y-9571976D01*
X4468929Y-9571976D02*
X4487976Y-9581500D01*
X4487976Y-9581500D02*
X4497500Y-9591024D01*
X4497500Y-9591024D02*
X4507024Y-9610071D01*
X4507024Y-9610071D02*
X4516548Y-9648167D01*
X4516548Y-9648167D02*
X4516548Y-9695786D01*
X4516548Y-9695786D02*
X4507024Y-9733881D01*
X4507024Y-9733881D02*
X4497500Y-9752929D01*
X4497500Y-9752929D02*
X4487976Y-9762452D01*
X4487976Y-9762452D02*
X4468929Y-9771976D01*
X4468929Y-9771976D02*
X4449881Y-9771976D01*
X4449881Y-9771976D02*
X4430833Y-9762452D01*
X4430833Y-9762452D02*
X4421310Y-9752929D01*
X4421310Y-9752929D02*
X4411786Y-9733881D01*
X4411786Y-9733881D02*
X4402262Y-9695786D01*
X4402262Y-9695786D02*
X4402262Y-9648167D01*
X4402262Y-9648167D02*
X4411786Y-9610071D01*
X4411786Y-9610071D02*
X4421310Y-9591024D01*
X4421310Y-9591024D02*
X4430833Y-9581500D01*
X4430833Y-9581500D02*
X4449881Y-9571976D01*
X4602262Y-9771976D02*
X4602262Y-9638643D01*
X4602262Y-9657690D02*
X4611786Y-9648167D01*
X4611786Y-9648167D02*
X4630833Y-9638643D01*
X4630833Y-9638643D02*
X4659405Y-9638643D01*
X4659405Y-9638643D02*
X4678452Y-9648167D01*
X4678452Y-9648167D02*
X4687976Y-9667214D01*
X4687976Y-9667214D02*
X4687976Y-9771976D01*
X4687976Y-9667214D02*
X4697500Y-9648167D01*
X4697500Y-9648167D02*
X4716548Y-9638643D01*
X4716548Y-9638643D02*
X4745119Y-9638643D01*
X4745119Y-9638643D02*
X4764167Y-9648167D01*
X4764167Y-9648167D02*
X4773691Y-9667214D01*
X4773691Y-9667214D02*
X4773691Y-9771976D01*
X4868929Y-9771976D02*
X4868929Y-9638643D01*
X4868929Y-9657690D02*
X4878452Y-9648167D01*
X4878452Y-9648167D02*
X4897500Y-9638643D01*
X4897500Y-9638643D02*
X4926072Y-9638643D01*
X4926072Y-9638643D02*
X4945119Y-9648167D01*
X4945119Y-9648167D02*
X4954643Y-9667214D01*
X4954643Y-9667214D02*
X4954643Y-9771976D01*
X4954643Y-9667214D02*
X4964167Y-9648167D01*
X4964167Y-9648167D02*
X4983214Y-9638643D01*
X4983214Y-9638643D02*
X5011786Y-9638643D01*
X5011786Y-9638643D02*
X5030833Y-9648167D01*
X5030833Y-9648167D02*
X5040357Y-9667214D01*
X5040357Y-9667214D02*
X5040357Y-9771976D01*
X5398452Y-9562452D02*
X5227024Y-9819595D01*
X5623214Y-9571976D02*
X5642262Y-9571976D01*
X5642262Y-9571976D02*
X5661310Y-9581500D01*
X5661310Y-9581500D02*
X5670833Y-9591024D01*
X5670833Y-9591024D02*
X5680357Y-9610071D01*
X5680357Y-9610071D02*
X5689881Y-9648167D01*
X5689881Y-9648167D02*
X5689881Y-9695786D01*
X5689881Y-9695786D02*
X5680357Y-9733881D01*
X5680357Y-9733881D02*
X5670833Y-9752929D01*
X5670833Y-9752929D02*
X5661310Y-9762452D01*
X5661310Y-9762452D02*
X5642262Y-9771976D01*
X5642262Y-9771976D02*
X5623214Y-9771976D01*
X5623214Y-9771976D02*
X5604167Y-9762452D01*
X5604167Y-9762452D02*
X5594643Y-9752929D01*
X5594643Y-9752929D02*
X5585119Y-9733881D01*
X5585119Y-9733881D02*
X5575595Y-9695786D01*
X5575595Y-9695786D02*
X5575595Y-9648167D01*
X5575595Y-9648167D02*
X5585119Y-9610071D01*
X5585119Y-9610071D02*
X5594643Y-9591024D01*
X5594643Y-9591024D02*
X5604167Y-9581500D01*
X5604167Y-9581500D02*
X5623214Y-9571976D01*
X5775595Y-9752929D02*
X5785119Y-9762452D01*
X5785119Y-9762452D02*
X5775595Y-9771976D01*
X5775595Y-9771976D02*
X5766071Y-9762452D01*
X5766071Y-9762452D02*
X5775595Y-9752929D01*
X5775595Y-9752929D02*
X5775595Y-9771976D01*
X5908929Y-9571976D02*
X5927976Y-9571976D01*
X5927976Y-9571976D02*
X5947024Y-9581500D01*
X5947024Y-9581500D02*
X5956548Y-9591024D01*
X5956548Y-9591024D02*
X5966071Y-9610071D01*
X5966071Y-9610071D02*
X5975595Y-9648167D01*
X5975595Y-9648167D02*
X5975595Y-9695786D01*
X5975595Y-9695786D02*
X5966071Y-9733881D01*
X5966071Y-9733881D02*
X5956548Y-9752929D01*
X5956548Y-9752929D02*
X5947024Y-9762452D01*
X5947024Y-9762452D02*
X5927976Y-9771976D01*
X5927976Y-9771976D02*
X5908929Y-9771976D01*
X5908929Y-9771976D02*
X5889881Y-9762452D01*
X5889881Y-9762452D02*
X5880357Y-9752929D01*
X5880357Y-9752929D02*
X5870833Y-9733881D01*
X5870833Y-9733881D02*
X5861310Y-9695786D01*
X5861310Y-9695786D02*
X5861310Y-9648167D01*
X5861310Y-9648167D02*
X5870833Y-9610071D01*
X5870833Y-9610071D02*
X5880357Y-9591024D01*
X5880357Y-9591024D02*
X5889881Y-9581500D01*
X5889881Y-9581500D02*
X5908929Y-9571976D01*
X6089881Y-9657690D02*
X6070833Y-9648167D01*
X6070833Y-9648167D02*
X6061310Y-9638643D01*
X6061310Y-9638643D02*
X6051786Y-9619595D01*
X6051786Y-9619595D02*
X6051786Y-9610071D01*
X6051786Y-9610071D02*
X6061310Y-9591024D01*
X6061310Y-9591024D02*
X6070833Y-9581500D01*
X6070833Y-9581500D02*
X6089881Y-9571976D01*
X6089881Y-9571976D02*
X6127976Y-9571976D01*
X6127976Y-9571976D02*
X6147024Y-9581500D01*
X6147024Y-9581500D02*
X6156548Y-9591024D01*
X6156548Y-9591024D02*
X6166071Y-9610071D01*
X6166071Y-9610071D02*
X6166071Y-9619595D01*
X6166071Y-9619595D02*
X6156548Y-9638643D01*
X6156548Y-9638643D02*
X6147024Y-9648167D01*
X6147024Y-9648167D02*
X6127976Y-9657690D01*
X6127976Y-9657690D02*
X6089881Y-9657690D01*
X6089881Y-9657690D02*
X6070833Y-9667214D01*
X6070833Y-9667214D02*
X6061310Y-9676738D01*
X6061310Y-9676738D02*
X6051786Y-9695786D01*
X6051786Y-9695786D02*
X6051786Y-9733881D01*
X6051786Y-9733881D02*
X6061310Y-9752929D01*
X6061310Y-9752929D02*
X6070833Y-9762452D01*
X6070833Y-9762452D02*
X6089881Y-9771976D01*
X6089881Y-9771976D02*
X6127976Y-9771976D01*
X6127976Y-9771976D02*
X6147024Y-9762452D01*
X6147024Y-9762452D02*
X6156548Y-9752929D01*
X6156548Y-9752929D02*
X6166071Y-9733881D01*
X6166071Y-9733881D02*
X6166071Y-9695786D01*
X6166071Y-9695786D02*
X6156548Y-9676738D01*
X6156548Y-9676738D02*
X6147024Y-9667214D01*
X6147024Y-9667214D02*
X6127976Y-9657690D01*
X6337500Y-9571976D02*
X6299405Y-9571976D01*
X6299405Y-9571976D02*
X6280357Y-9581500D01*
X6280357Y-9581500D02*
X6270833Y-9591024D01*
X6270833Y-9591024D02*
X6251786Y-9619595D01*
X6251786Y-9619595D02*
X6242262Y-9657690D01*
X6242262Y-9657690D02*
X6242262Y-9733881D01*
X6242262Y-9733881D02*
X6251786Y-9752929D01*
X6251786Y-9752929D02*
X6261310Y-9762452D01*
X6261310Y-9762452D02*
X6280357Y-9771976D01*
X6280357Y-9771976D02*
X6318452Y-9771976D01*
X6318452Y-9771976D02*
X6337500Y-9762452D01*
X6337500Y-9762452D02*
X6347024Y-9752929D01*
X6347024Y-9752929D02*
X6356548Y-9733881D01*
X6356548Y-9733881D02*
X6356548Y-9686262D01*
X6356548Y-9686262D02*
X6347024Y-9667214D01*
X6347024Y-9667214D02*
X6337500Y-9657690D01*
X6337500Y-9657690D02*
X6318452Y-9648167D01*
X6318452Y-9648167D02*
X6280357Y-9648167D01*
X6280357Y-9648167D02*
X6261310Y-9657690D01*
X6261310Y-9657690D02*
X6251786Y-9667214D01*
X6251786Y-9667214D02*
X6242262Y-9686262D01*
X6527976Y-9571976D02*
X6489881Y-9571976D01*
X6489881Y-9571976D02*
X6470833Y-9581500D01*
X6470833Y-9581500D02*
X6461310Y-9591024D01*
X6461310Y-9591024D02*
X6442262Y-9619595D01*
X6442262Y-9619595D02*
X6432738Y-9657690D01*
X6432738Y-9657690D02*
X6432738Y-9733881D01*
X6432738Y-9733881D02*
X6442262Y-9752929D01*
X6442262Y-9752929D02*
X6451786Y-9762452D01*
X6451786Y-9762452D02*
X6470833Y-9771976D01*
X6470833Y-9771976D02*
X6508929Y-9771976D01*
X6508929Y-9771976D02*
X6527976Y-9762452D01*
X6527976Y-9762452D02*
X6537500Y-9752929D01*
X6537500Y-9752929D02*
X6547024Y-9733881D01*
X6547024Y-9733881D02*
X6547024Y-9686262D01*
X6547024Y-9686262D02*
X6537500Y-9667214D01*
X6537500Y-9667214D02*
X6527976Y-9657690D01*
X6527976Y-9657690D02*
X6508929Y-9648167D01*
X6508929Y-9648167D02*
X6470833Y-9648167D01*
X6470833Y-9648167D02*
X6451786Y-9657690D01*
X6451786Y-9657690D02*
X6442262Y-9667214D01*
X6442262Y-9667214D02*
X6432738Y-9686262D01*
X6623214Y-9571976D02*
X6623214Y-9610071D01*
X6699405Y-9571976D02*
X6699405Y-9610071D01*
X6962262Y-9848167D02*
X6952738Y-9838643D01*
X6952738Y-9838643D02*
X6933691Y-9810071D01*
X6933691Y-9810071D02*
X6924167Y-9791024D01*
X6924167Y-9791024D02*
X6914643Y-9762452D01*
X6914643Y-9762452D02*
X6905119Y-9714833D01*
X6905119Y-9714833D02*
X6905119Y-9676738D01*
X6905119Y-9676738D02*
X6914643Y-9629119D01*
X6914643Y-9629119D02*
X6924167Y-9600548D01*
X6924167Y-9600548D02*
X6933691Y-9581500D01*
X6933691Y-9581500D02*
X6952738Y-9552929D01*
X6952738Y-9552929D02*
X6962262Y-9543405D01*
X7143214Y-9771976D02*
X7028929Y-9771976D01*
X7086071Y-9771976D02*
X7086071Y-9571976D01*
X7086071Y-9571976D02*
X7067024Y-9600548D01*
X7067024Y-9600548D02*
X7047976Y-9619595D01*
X7047976Y-9619595D02*
X7028929Y-9629119D01*
X7267024Y-9571976D02*
X7286072Y-9571976D01*
X7286072Y-9571976D02*
X7305119Y-9581500D01*
X7305119Y-9581500D02*
X7314643Y-9591024D01*
X7314643Y-9591024D02*
X7324167Y-9610071D01*
X7324167Y-9610071D02*
X7333691Y-9648167D01*
X7333691Y-9648167D02*
X7333691Y-9695786D01*
X7333691Y-9695786D02*
X7324167Y-9733881D01*
X7324167Y-9733881D02*
X7314643Y-9752929D01*
X7314643Y-9752929D02*
X7305119Y-9762452D01*
X7305119Y-9762452D02*
X7286072Y-9771976D01*
X7286072Y-9771976D02*
X7267024Y-9771976D01*
X7267024Y-9771976D02*
X7247976Y-9762452D01*
X7247976Y-9762452D02*
X7238452Y-9752929D01*
X7238452Y-9752929D02*
X7228929Y-9733881D01*
X7228929Y-9733881D02*
X7219405Y-9695786D01*
X7219405Y-9695786D02*
X7219405Y-9648167D01*
X7219405Y-9648167D02*
X7228929Y-9610071D01*
X7228929Y-9610071D02*
X7238452Y-9591024D01*
X7238452Y-9591024D02*
X7247976Y-9581500D01*
X7247976Y-9581500D02*
X7267024Y-9571976D01*
X7539405Y-9771976D02*
X7539405Y-9571976D01*
X7625119Y-9771976D02*
X7625119Y-9667214D01*
X7625119Y-9667214D02*
X7615595Y-9648167D01*
X7615595Y-9648167D02*
X7596548Y-9638643D01*
X7596548Y-9638643D02*
X7567976Y-9638643D01*
X7567976Y-9638643D02*
X7548929Y-9648167D01*
X7548929Y-9648167D02*
X7539405Y-9657690D01*
X7748929Y-9771976D02*
X7729881Y-9762452D01*
X7729881Y-9762452D02*
X7720357Y-9752929D01*
X7720357Y-9752929D02*
X7710833Y-9733881D01*
X7710833Y-9733881D02*
X7710833Y-9676738D01*
X7710833Y-9676738D02*
X7720357Y-9657690D01*
X7720357Y-9657690D02*
X7729881Y-9648167D01*
X7729881Y-9648167D02*
X7748929Y-9638643D01*
X7748929Y-9638643D02*
X7777500Y-9638643D01*
X7777500Y-9638643D02*
X7796548Y-9648167D01*
X7796548Y-9648167D02*
X7806072Y-9657690D01*
X7806072Y-9657690D02*
X7815595Y-9676738D01*
X7815595Y-9676738D02*
X7815595Y-9733881D01*
X7815595Y-9733881D02*
X7806072Y-9752929D01*
X7806072Y-9752929D02*
X7796548Y-9762452D01*
X7796548Y-9762452D02*
X7777500Y-9771976D01*
X7777500Y-9771976D02*
X7748929Y-9771976D01*
X7929881Y-9771976D02*
X7910833Y-9762452D01*
X7910833Y-9762452D02*
X7901310Y-9743405D01*
X7901310Y-9743405D02*
X7901310Y-9571976D01*
X8082262Y-9762452D02*
X8063214Y-9771976D01*
X8063214Y-9771976D02*
X8025119Y-9771976D01*
X8025119Y-9771976D02*
X8006072Y-9762452D01*
X8006072Y-9762452D02*
X7996548Y-9743405D01*
X7996548Y-9743405D02*
X7996548Y-9667214D01*
X7996548Y-9667214D02*
X8006072Y-9648167D01*
X8006072Y-9648167D02*
X8025119Y-9638643D01*
X8025119Y-9638643D02*
X8063214Y-9638643D01*
X8063214Y-9638643D02*
X8082262Y-9648167D01*
X8082262Y-9648167D02*
X8091786Y-9667214D01*
X8091786Y-9667214D02*
X8091786Y-9686262D01*
X8091786Y-9686262D02*
X7996548Y-9705310D01*
X8167976Y-9762452D02*
X8187024Y-9771976D01*
X8187024Y-9771976D02*
X8225119Y-9771976D01*
X8225119Y-9771976D02*
X8244167Y-9762452D01*
X8244167Y-9762452D02*
X8253691Y-9743405D01*
X8253691Y-9743405D02*
X8253691Y-9733881D01*
X8253691Y-9733881D02*
X8244167Y-9714833D01*
X8244167Y-9714833D02*
X8225119Y-9705310D01*
X8225119Y-9705310D02*
X8196548Y-9705310D01*
X8196548Y-9705310D02*
X8177500Y-9695786D01*
X8177500Y-9695786D02*
X8167976Y-9676738D01*
X8167976Y-9676738D02*
X8167976Y-9667214D01*
X8167976Y-9667214D02*
X8177500Y-9648167D01*
X8177500Y-9648167D02*
X8196548Y-9638643D01*
X8196548Y-9638643D02*
X8225119Y-9638643D01*
X8225119Y-9638643D02*
X8244167Y-9648167D01*
X8320357Y-9848167D02*
X8329881Y-9838643D01*
X8329881Y-9838643D02*
X8348929Y-9810071D01*
X8348929Y-9810071D02*
X8358453Y-9791024D01*
X8358453Y-9791024D02*
X8367976Y-9762452D01*
X8367976Y-9762452D02*
X8377500Y-9714833D01*
X8377500Y-9714833D02*
X8377500Y-9676738D01*
X8377500Y-9676738D02*
X8367976Y-9629119D01*
X8367976Y-9629119D02*
X8358453Y-9600548D01*
X8358453Y-9600548D02*
X8348929Y-9581500D01*
X8348929Y-9581500D02*
X8329881Y-9552929D01*
X8329881Y-9552929D02*
X8320357Y-9543405D01*
M02*
