%TF.GenerationSoftware,KiCad,Pcbnew,7.0.1-3b83917a11~172~ubuntu22.04.1*%
%TF.CreationDate,2023-03-30T15:08:59+02:00*%
%TF.ProjectId,tht-dip,7468742d-6469-4702-9e6b-696361645f70,rev?*%
%TF.SameCoordinates,Original*%
%TF.FileFunction,Other,User*%
%FSLAX46Y46*%
G04 Gerber Fmt 4.6, Leading zero omitted, Abs format (unit mm)*
G04 Created by KiCad (PCBNEW 7.0.1-3b83917a11~172~ubuntu22.04.1) date 2023-03-30 15:08:59*
%MOMM*%
%LPD*%
G01*
G04 APERTURE LIST*
%ADD10C,0.050000*%
G04 APERTURE END LIST*
D10*
%TO.C,C3*%
X98000000Y-72000000D02*
X98000000Y-75000000D01*
X98000000Y-75000000D02*
X103500000Y-75000000D01*
X103500000Y-72000000D02*
X98000000Y-72000000D01*
X103500000Y-75000000D02*
X103500000Y-72000000D01*
%TO.C,C5*%
X113000000Y-38500000D02*
X116000000Y-38500000D01*
X116000000Y-38500000D02*
X116000000Y-33000000D01*
X113000000Y-33000000D02*
X113000000Y-38500000D01*
X116000000Y-33000000D02*
X113000000Y-33000000D01*
%TO.C,C6*%
X113250000Y-76500000D02*
X116250000Y-76500000D01*
X116250000Y-76500000D02*
X116250000Y-71000000D01*
X113250000Y-71000000D02*
X113250000Y-76500000D01*
X116250000Y-71000000D02*
X113250000Y-71000000D01*
%TO.C,C7*%
X63250000Y-47000000D02*
G75*
G03*
X63250000Y-47000000I-2750000J0D01*
G01*
%TO.C,C8*%
X54000000Y-58000000D02*
X57000000Y-58000000D01*
X57000000Y-58000000D02*
X57000000Y-52500000D01*
X54000000Y-52500000D02*
X54000000Y-58000000D01*
X57000000Y-52500000D02*
X54000000Y-52500000D01*
%TO.C,C9*%
X63250000Y-63500000D02*
G75*
G03*
X63250000Y-63500000I-2750000J0D01*
G01*
%TO.C,D1*%
X122250000Y-50200000D02*
X119750000Y-50200000D01*
X119750000Y-50200000D02*
X119750000Y-59920000D01*
X122250000Y-59920000D02*
X122250000Y-50200000D01*
X119750000Y-59920000D02*
X122250000Y-59920000D01*
%TO.C,D2*%
X48250000Y-40950000D02*
X45750000Y-40950000D01*
X45750000Y-40950000D02*
X45750000Y-50670000D01*
X48250000Y-50670000D02*
X48250000Y-40950000D01*
X45750000Y-50670000D02*
X48250000Y-50670000D01*
%TO.C,D3*%
X48250000Y-59830000D02*
X45750000Y-59830000D01*
X45750000Y-59830000D02*
X45750000Y-69550000D01*
X48250000Y-69550000D02*
X48250000Y-59830000D01*
X45750000Y-69550000D02*
X48250000Y-69550000D01*
%TO.C,D4*%
X54250000Y-40950000D02*
X51750000Y-40950000D01*
X51750000Y-40950000D02*
X51750000Y-50670000D01*
X54250000Y-50670000D02*
X54250000Y-40950000D01*
X51750000Y-50670000D02*
X54250000Y-50670000D01*
%TO.C,D5*%
X54250000Y-59950000D02*
X51750000Y-59950000D01*
X51750000Y-59950000D02*
X51750000Y-69670000D01*
X54250000Y-69670000D02*
X54250000Y-59950000D01*
X51750000Y-69670000D02*
X54250000Y-69670000D01*
%TO.C,J1*%
X132250000Y-45750000D02*
G75*
G03*
X132250000Y-45750000I-2000000J0D01*
G01*
%TO.C,J2*%
X132250000Y-54750000D02*
G75*
G03*
X132250000Y-54750000I-2000000J0D01*
G01*
%TO.C,J3*%
X40250000Y-41750000D02*
G75*
G03*
X40250000Y-41750000I-2000000J0D01*
G01*
%TO.C,J4*%
X41000000Y-69000000D02*
G75*
G03*
X41000000Y-69000000I-2000000J0D01*
G01*
%TO.C,J5*%
X132250000Y-63750000D02*
G75*
G03*
X132250000Y-63750000I-2000000J0D01*
G01*
%TO.C,J6*%
X40500000Y-55000000D02*
G75*
G03*
X40500000Y-55000000I-2000000J0D01*
G01*
%TO.C,J7*%
X41000000Y-35000000D02*
G75*
G03*
X41000000Y-35000000I-2000000J0D01*
G01*
%TO.C,J8*%
X41000000Y-76000000D02*
G75*
G03*
X41000000Y-76000000I-2000000J0D01*
G01*
%TO.C,J9*%
X133000000Y-35000000D02*
G75*
G03*
X133000000Y-35000000I-2000000J0D01*
G01*
%TO.C,J10*%
X133000000Y-76000000D02*
G75*
G03*
X133000000Y-76000000I-2000000J0D01*
G01*
%TO.C,R1*%
X107800000Y-70050000D02*
X105700000Y-70050000D01*
X105700000Y-70050000D02*
X105700000Y-77030000D01*
X107800000Y-77030000D02*
X107800000Y-70050000D01*
X105700000Y-77030000D02*
X107800000Y-77030000D01*
%TO.C,R2*%
X54050000Y-32630000D02*
X51950000Y-32630000D01*
X51950000Y-32630000D02*
X51950000Y-39610000D01*
X54050000Y-39610000D02*
X54050000Y-32630000D01*
X51950000Y-39610000D02*
X54050000Y-39610000D01*
%TO.C,R3*%
X45950000Y-39530000D02*
X48050000Y-39530000D01*
X48050000Y-39530000D02*
X48050000Y-32550000D01*
X45950000Y-32550000D02*
X45950000Y-39530000D01*
X48050000Y-32550000D02*
X45950000Y-32550000D01*
%TO.C,R4*%
X48050000Y-71050000D02*
X45950000Y-71050000D01*
X45950000Y-71050000D02*
X45950000Y-78030000D01*
X48050000Y-78030000D02*
X48050000Y-71050000D01*
X45950000Y-78030000D02*
X48050000Y-78030000D01*
%TO.C,R5*%
X115450000Y-42550000D02*
X115450000Y-40450000D01*
X115450000Y-40450000D02*
X108470000Y-40450000D01*
X108470000Y-42550000D02*
X115450000Y-42550000D01*
X108470000Y-40450000D02*
X108470000Y-42550000D01*
%TO.C,R6*%
X126050000Y-51470000D02*
X123950000Y-51470000D01*
X123950000Y-51470000D02*
X123950000Y-58450000D01*
X126050000Y-58450000D02*
X126050000Y-51470000D01*
X123950000Y-58450000D02*
X126050000Y-58450000D01*
%TO.C,R7*%
X106950000Y-40030000D02*
X109050000Y-40030000D01*
X109050000Y-40030000D02*
X109050000Y-33050000D01*
X106950000Y-33050000D02*
X106950000Y-40030000D01*
X109050000Y-33050000D02*
X106950000Y-33050000D01*
%TO.C,R8*%
X115700000Y-69800000D02*
X115700000Y-67700000D01*
X115700000Y-67700000D02*
X108720000Y-67700000D01*
X108720000Y-69800000D02*
X115700000Y-69800000D01*
X108720000Y-67700000D02*
X108720000Y-69800000D01*
%TO.C,R9*%
X67970000Y-45950000D02*
X67970000Y-48050000D01*
X67970000Y-48050000D02*
X74950000Y-48050000D01*
X74950000Y-45950000D02*
X67970000Y-45950000D01*
X74950000Y-48050000D02*
X74950000Y-45950000D01*
%TO.C,R10*%
X54050000Y-71050000D02*
X51950000Y-71050000D01*
X51950000Y-71050000D02*
X51950000Y-78030000D01*
X54050000Y-78030000D02*
X54050000Y-71050000D01*
X51950000Y-78030000D02*
X54050000Y-78030000D01*
%TO.C,R11*%
X67970000Y-62950000D02*
X67970000Y-65050000D01*
X67970000Y-65050000D02*
X74950000Y-65050000D01*
X74950000Y-62950000D02*
X67970000Y-62950000D01*
X74950000Y-65050000D02*
X74950000Y-62950000D01*
%TO.C,C2*%
X72500000Y-39550000D02*
X75500000Y-39550000D01*
X75500000Y-39550000D02*
X75500000Y-32450000D01*
X72500000Y-32450000D02*
X72500000Y-39550000D01*
X75500000Y-32450000D02*
X72500000Y-32450000D01*
%TO.C,C1*%
X103750000Y-45000000D02*
G75*
G03*
X103750000Y-45000000I-2750000J0D01*
G01*
%TO.C,C4*%
X104150000Y-63000000D02*
G75*
G03*
X104150000Y-63000000I-3400000J0D01*
G01*
%TO.C,U1*%
X64450000Y-60220000D02*
X75150000Y-60220000D01*
X75150000Y-60220000D02*
X75150000Y-50420000D01*
X64450000Y-50420000D02*
X64450000Y-60220000D01*
X75150000Y-50420000D02*
X64450000Y-50420000D01*
%TO.C,RV1*%
X83000000Y-57500000D02*
X90000000Y-57500000D01*
X90000000Y-57500000D02*
X90000000Y-52500000D01*
X90000000Y-52500000D02*
X83000000Y-52500000D01*
X83000000Y-52500000D02*
X83000000Y-57500000D01*
%TD*%
M02*
