%TF.GenerationSoftware,KiCad,Pcbnew,7.0.1-3b83917a11~172~ubuntu22.04.1*%
%TF.CreationDate,2023-03-30T15:08:55+02:00*%
%TF.ProjectId,tht-dip,7468742d-6469-4702-9e6b-696361645f70,rev?*%
%TF.SameCoordinates,Original*%
%TF.FileFunction,Drillmap*%
%TF.FilePolarity,Positive*%
%FSLAX45Y45*%
G04 Gerber Fmt 4.5, Leading zero omitted, Abs format (unit mm)*
G04 Created by KiCad (PCBNEW 7.0.1-3b83917a11~172~ubuntu22.04.1) date 2023-03-30 15:08:55*
%MOMM*%
%LPD*%
G01*
G04 APERTURE LIST*
%ADD10C,0.050000*%
%ADD11C,0.200000*%
%ADD12C,0.040000*%
%ADD13C,0.070000*%
%ADD14C,0.080000*%
%ADD15C,0.100000*%
%ADD16C,0.220000*%
G04 APERTURE END LIST*
D10*
X3500000Y-8000000D02*
X3500000Y-3100000D01*
X3500000Y-3100000D02*
X13500000Y-3100000D01*
X13500000Y-8000000D02*
X3500000Y-8000000D01*
X13500000Y-3100000D02*
X13500000Y-8000000D01*
D11*
D12*
X5530000Y-4580000D02*
X5570000Y-4620000D01*
X5570000Y-4580000D02*
X5530000Y-4620000D01*
X5680000Y-6330000D02*
X5720000Y-6370000D01*
X5720000Y-6330000D02*
X5680000Y-6370000D01*
X5730000Y-4980000D02*
X5770000Y-5020000D01*
X5770000Y-4980000D02*
X5730000Y-5020000D01*
X5730000Y-5880000D02*
X5770000Y-5920000D01*
X5770000Y-5880000D02*
X5730000Y-5920000D01*
X6330000Y-4930000D02*
X6370000Y-4970000D01*
X6370000Y-4930000D02*
X6330000Y-4970000D01*
X6730000Y-4880000D02*
X6770000Y-4920000D01*
X6770000Y-4880000D02*
X6730000Y-4920000D01*
X7130000Y-5530000D02*
X7170000Y-5570000D01*
X7170000Y-5530000D02*
X7130000Y-5570000D01*
X7280000Y-6180000D02*
X7320000Y-6220000D01*
X7320000Y-6180000D02*
X7280000Y-6220000D01*
X7830000Y-6080000D02*
X7870000Y-6120000D01*
X7870000Y-6080000D02*
X7830000Y-6120000D01*
X7880000Y-5380000D02*
X7920000Y-5420000D01*
X7920000Y-5380000D02*
X7880000Y-5420000D01*
X8030000Y-4280000D02*
X8070000Y-4320000D01*
X8070000Y-4280000D02*
X8030000Y-4320000D01*
X8080000Y-3630000D02*
X8120000Y-3670000D01*
X8120000Y-3630000D02*
X8080000Y-3670000D01*
D13*
X4735000Y-3350000D02*
G75*
G03*
X4735000Y-3350000I-35000J0D01*
G01*
X4735000Y-3858000D02*
G75*
G03*
X4735000Y-3858000I-35000J0D01*
G01*
X4735000Y-7200000D02*
G75*
G03*
X4735000Y-7200000I-35000J0D01*
G01*
X4735000Y-7708000D02*
G75*
G03*
X4735000Y-7708000I-35000J0D01*
G01*
X5335000Y-3358000D02*
G75*
G03*
X5335000Y-3358000I-35000J0D01*
G01*
X5335000Y-3866000D02*
G75*
G03*
X5335000Y-3866000I-35000J0D01*
G01*
X5335000Y-7200000D02*
G75*
G03*
X5335000Y-7200000I-35000J0D01*
G01*
X5335000Y-7708000D02*
G75*
G03*
X5335000Y-7708000I-35000J0D01*
G01*
X6927000Y-4700000D02*
G75*
G03*
X6927000Y-4700000I-35000J0D01*
G01*
X6927000Y-6400000D02*
G75*
G03*
X6927000Y-6400000I-35000J0D01*
G01*
X7435000Y-4700000D02*
G75*
G03*
X7435000Y-4700000I-35000J0D01*
G01*
X7435000Y-6400000D02*
G75*
G03*
X7435000Y-6400000I-35000J0D01*
G01*
X10710000Y-7100000D02*
G75*
G03*
X10710000Y-7100000I-35000J0D01*
G01*
X10710000Y-7608000D02*
G75*
G03*
X10710000Y-7608000I-35000J0D01*
G01*
X10835000Y-3400000D02*
G75*
G03*
X10835000Y-3400000I-35000J0D01*
G01*
X10835000Y-3908000D02*
G75*
G03*
X10835000Y-3908000I-35000J0D01*
G01*
X10977000Y-4150000D02*
G75*
G03*
X10977000Y-4150000I-35000J0D01*
G01*
X11002000Y-6875000D02*
G75*
G03*
X11002000Y-6875000I-35000J0D01*
G01*
X11485000Y-4150000D02*
G75*
G03*
X11485000Y-4150000I-35000J0D01*
G01*
X11510000Y-6875000D02*
G75*
G03*
X11510000Y-6875000I-35000J0D01*
G01*
X12535000Y-5242000D02*
G75*
G03*
X12535000Y-5242000I-35000J0D01*
G01*
X12535000Y-5750000D02*
G75*
G03*
X12535000Y-5750000I-35000J0D01*
G01*
D14*
X4700000Y-4160000D02*
X4700000Y-4240000D01*
X4660000Y-4200000D02*
X4740000Y-4200000D01*
X4700000Y-4922000D02*
X4700000Y-5002000D01*
X4660000Y-4962000D02*
X4740000Y-4962000D01*
X4700000Y-6048000D02*
X4700000Y-6128000D01*
X4660000Y-6088000D02*
X4740000Y-6088000D01*
X4700000Y-6810000D02*
X4700000Y-6890000D01*
X4660000Y-6850000D02*
X4740000Y-6850000D01*
X5300000Y-4160000D02*
X5300000Y-4240000D01*
X5260000Y-4200000D02*
X5340000Y-4200000D01*
X5300000Y-4922000D02*
X5300000Y-5002000D01*
X5260000Y-4962000D02*
X5340000Y-4962000D01*
X5300000Y-6060000D02*
X5300000Y-6140000D01*
X5260000Y-6100000D02*
X5340000Y-6100000D01*
X5300000Y-6822000D02*
X5300000Y-6902000D01*
X5260000Y-6862000D02*
X5340000Y-6862000D01*
X5550000Y-5360000D02*
X5550000Y-5440000D01*
X5510000Y-5400000D02*
X5590000Y-5400000D01*
X5550000Y-5610000D02*
X5550000Y-5690000D01*
X5510000Y-5650000D02*
X5590000Y-5650000D01*
X6050000Y-4560000D02*
X6050000Y-4640000D01*
X6010000Y-4600000D02*
X6090000Y-4600000D01*
X6050000Y-4760000D02*
X6050000Y-4840000D01*
X6010000Y-4800000D02*
X6090000Y-4800000D01*
X6050000Y-6210000D02*
X6050000Y-6290000D01*
X6010000Y-6250000D02*
X6090000Y-6250000D01*
X6050000Y-6410000D02*
X6050000Y-6490000D01*
X6010000Y-6450000D02*
X6090000Y-6450000D01*
X6600000Y-5110000D02*
X6600000Y-5190000D01*
X6560000Y-5150000D02*
X6640000Y-5150000D01*
X6600000Y-5872000D02*
X6600000Y-5952000D01*
X6560000Y-5912000D02*
X6640000Y-5912000D01*
X6854000Y-5110000D02*
X6854000Y-5190000D01*
X6814000Y-5150000D02*
X6894000Y-5150000D01*
X6854000Y-5872000D02*
X6854000Y-5952000D01*
X6814000Y-5912000D02*
X6894000Y-5912000D01*
X7108000Y-5110000D02*
X7108000Y-5190000D01*
X7068000Y-5150000D02*
X7148000Y-5150000D01*
X7108000Y-5872000D02*
X7108000Y-5952000D01*
X7068000Y-5912000D02*
X7148000Y-5912000D01*
X7362000Y-5110000D02*
X7362000Y-5190000D01*
X7322000Y-5150000D02*
X7402000Y-5150000D01*
X7362000Y-5872000D02*
X7362000Y-5952000D01*
X7322000Y-5912000D02*
X7402000Y-5912000D01*
X7400000Y-3310000D02*
X7400000Y-3390000D01*
X7360000Y-3350000D02*
X7440000Y-3350000D01*
X7400000Y-3810000D02*
X7400000Y-3890000D01*
X7360000Y-3850000D02*
X7440000Y-3850000D01*
X9950000Y-6260000D02*
X9950000Y-6340000D01*
X9910000Y-6300000D02*
X9990000Y-6300000D01*
X9950000Y-7310000D02*
X9950000Y-7390000D01*
X9910000Y-7350000D02*
X9990000Y-7350000D01*
X10000000Y-4460000D02*
X10000000Y-4540000D01*
X9960000Y-4500000D02*
X10040000Y-4500000D01*
X10200000Y-4460000D02*
X10200000Y-4540000D01*
X10160000Y-4500000D02*
X10240000Y-4500000D01*
X10200000Y-6260000D02*
X10200000Y-6340000D01*
X10160000Y-6300000D02*
X10240000Y-6300000D01*
X10200000Y-7310000D02*
X10200000Y-7390000D01*
X10160000Y-7350000D02*
X10240000Y-7350000D01*
X11450000Y-3410000D02*
X11450000Y-3490000D01*
X11410000Y-3450000D02*
X11490000Y-3450000D01*
X11450000Y-3660000D02*
X11450000Y-3740000D01*
X11410000Y-3700000D02*
X11490000Y-3700000D01*
X11475000Y-7210000D02*
X11475000Y-7290000D01*
X11435000Y-7250000D02*
X11515000Y-7250000D01*
X11475000Y-7460000D02*
X11475000Y-7540000D01*
X11435000Y-7500000D02*
X11515000Y-7500000D01*
X12100000Y-5085000D02*
X12100000Y-5165000D01*
X12060000Y-5125000D02*
X12140000Y-5125000D01*
X12100000Y-5847000D02*
X12100000Y-5927000D01*
X12060000Y-5887000D02*
X12140000Y-5887000D01*
D15*
X8569356Y-5435356D02*
X8569356Y-5364644D01*
X8498644Y-5364644D01*
X8498644Y-5435356D01*
X8569356Y-5435356D01*
X8569356Y-5685356D02*
X8569356Y-5614644D01*
X8498644Y-5614644D01*
X8498644Y-5685356D01*
X8569356Y-5685356D01*
X8735356Y-5435356D02*
X8735356Y-5364644D01*
X8664644Y-5364644D01*
X8664644Y-5435356D01*
X8735356Y-5435356D01*
X8735356Y-5685356D02*
X8735356Y-5614644D01*
X8664644Y-5614644D01*
X8664644Y-5685356D01*
X8735356Y-5685356D01*
X8901356Y-5435356D02*
X8901356Y-5364644D01*
X8830644Y-5364644D01*
X8830644Y-5435356D01*
X8901356Y-5435356D01*
X8901356Y-5685356D02*
X8901356Y-5614644D01*
X8830644Y-5614644D01*
X8830644Y-5685356D01*
X8901356Y-5685356D01*
D16*
X3825000Y-4285000D02*
X3935000Y-4175000D01*
X3825000Y-4065000D01*
X3715000Y-4175000D01*
X3825000Y-4285000D01*
X3850000Y-5610000D02*
X3960000Y-5500000D01*
X3850000Y-5390000D01*
X3740000Y-5500000D01*
X3850000Y-5610000D01*
X3900000Y-3610000D02*
X4010000Y-3500000D01*
X3900000Y-3390000D01*
X3790000Y-3500000D01*
X3900000Y-3610000D01*
X3900000Y-7010000D02*
X4010000Y-6900000D01*
X3900000Y-6790000D01*
X3790000Y-6900000D01*
X3900000Y-7010000D01*
X3900000Y-7710000D02*
X4010000Y-7600000D01*
X3900000Y-7490000D01*
X3790000Y-7600000D01*
X3900000Y-7710000D01*
X13025000Y-4685000D02*
X13135000Y-4575000D01*
X13025000Y-4465000D01*
X12915000Y-4575000D01*
X13025000Y-4685000D01*
X13025000Y-5585000D02*
X13135000Y-5475000D01*
X13025000Y-5365000D01*
X12915000Y-5475000D01*
X13025000Y-5585000D01*
X13025000Y-6485000D02*
X13135000Y-6375000D01*
X13025000Y-6265000D01*
X12915000Y-6375000D01*
X13025000Y-6485000D01*
X13100000Y-3610000D02*
X13210000Y-3500000D01*
X13100000Y-3390000D01*
X12990000Y-3500000D01*
X13100000Y-3610000D01*
X13100000Y-7710000D02*
X13210000Y-7600000D01*
X13100000Y-7490000D01*
X12990000Y-7600000D01*
X13100000Y-7710000D01*
D11*
X3745119Y-8315024D02*
X3745119Y-8115024D01*
X3745119Y-8115024D02*
X3792738Y-8115024D01*
X3792738Y-8115024D02*
X3821309Y-8124548D01*
X3821309Y-8124548D02*
X3840357Y-8143595D01*
X3840357Y-8143595D02*
X3849881Y-8162643D01*
X3849881Y-8162643D02*
X3859405Y-8200738D01*
X3859405Y-8200738D02*
X3859405Y-8229309D01*
X3859405Y-8229309D02*
X3849881Y-8267405D01*
X3849881Y-8267405D02*
X3840357Y-8286452D01*
X3840357Y-8286452D02*
X3821309Y-8305500D01*
X3821309Y-8305500D02*
X3792738Y-8315024D01*
X3792738Y-8315024D02*
X3745119Y-8315024D01*
X3945119Y-8315024D02*
X3945119Y-8181690D01*
X3945119Y-8219786D02*
X3954643Y-8200738D01*
X3954643Y-8200738D02*
X3964167Y-8191214D01*
X3964167Y-8191214D02*
X3983214Y-8181690D01*
X3983214Y-8181690D02*
X4002262Y-8181690D01*
X4068928Y-8315024D02*
X4068928Y-8181690D01*
X4068928Y-8115024D02*
X4059405Y-8124548D01*
X4059405Y-8124548D02*
X4068928Y-8134071D01*
X4068928Y-8134071D02*
X4078452Y-8124548D01*
X4078452Y-8124548D02*
X4068928Y-8115024D01*
X4068928Y-8115024D02*
X4068928Y-8134071D01*
X4192738Y-8315024D02*
X4173690Y-8305500D01*
X4173690Y-8305500D02*
X4164167Y-8286452D01*
X4164167Y-8286452D02*
X4164167Y-8115024D01*
X4297500Y-8315024D02*
X4278452Y-8305500D01*
X4278452Y-8305500D02*
X4268929Y-8286452D01*
X4268929Y-8286452D02*
X4268929Y-8115024D01*
X4526071Y-8315024D02*
X4526071Y-8115024D01*
X4526071Y-8115024D02*
X4592738Y-8257881D01*
X4592738Y-8257881D02*
X4659405Y-8115024D01*
X4659405Y-8115024D02*
X4659405Y-8315024D01*
X4840357Y-8315024D02*
X4840357Y-8210262D01*
X4840357Y-8210262D02*
X4830833Y-8191214D01*
X4830833Y-8191214D02*
X4811786Y-8181690D01*
X4811786Y-8181690D02*
X4773690Y-8181690D01*
X4773690Y-8181690D02*
X4754643Y-8191214D01*
X4840357Y-8305500D02*
X4821310Y-8315024D01*
X4821310Y-8315024D02*
X4773690Y-8315024D01*
X4773690Y-8315024D02*
X4754643Y-8305500D01*
X4754643Y-8305500D02*
X4745119Y-8286452D01*
X4745119Y-8286452D02*
X4745119Y-8267405D01*
X4745119Y-8267405D02*
X4754643Y-8248357D01*
X4754643Y-8248357D02*
X4773690Y-8238833D01*
X4773690Y-8238833D02*
X4821310Y-8238833D01*
X4821310Y-8238833D02*
X4840357Y-8229309D01*
X4935595Y-8181690D02*
X4935595Y-8381690D01*
X4935595Y-8191214D02*
X4954643Y-8181690D01*
X4954643Y-8181690D02*
X4992738Y-8181690D01*
X4992738Y-8181690D02*
X5011786Y-8191214D01*
X5011786Y-8191214D02*
X5021310Y-8200738D01*
X5021310Y-8200738D02*
X5030833Y-8219786D01*
X5030833Y-8219786D02*
X5030833Y-8276928D01*
X5030833Y-8276928D02*
X5021310Y-8295976D01*
X5021310Y-8295976D02*
X5011786Y-8305500D01*
X5011786Y-8305500D02*
X4992738Y-8315024D01*
X4992738Y-8315024D02*
X4954643Y-8315024D01*
X4954643Y-8315024D02*
X4935595Y-8305500D01*
X5116548Y-8295976D02*
X5126071Y-8305500D01*
X5126071Y-8305500D02*
X5116548Y-8315024D01*
X5116548Y-8315024D02*
X5107024Y-8305500D01*
X5107024Y-8305500D02*
X5116548Y-8295976D01*
X5116548Y-8295976D02*
X5116548Y-8315024D01*
X5116548Y-8191214D02*
X5126071Y-8200738D01*
X5126071Y-8200738D02*
X5116548Y-8210262D01*
X5116548Y-8210262D02*
X5107024Y-8200738D01*
X5107024Y-8200738D02*
X5116548Y-8191214D01*
X5116548Y-8191214D02*
X5116548Y-8210262D01*
D12*
X3457500Y-8622500D02*
X3497500Y-8662500D01*
X3497500Y-8622500D02*
X3457500Y-8662500D01*
D11*
X3783214Y-8535024D02*
X3802262Y-8535024D01*
X3802262Y-8535024D02*
X3821309Y-8544548D01*
X3821309Y-8544548D02*
X3830833Y-8554071D01*
X3830833Y-8554071D02*
X3840357Y-8573119D01*
X3840357Y-8573119D02*
X3849881Y-8611214D01*
X3849881Y-8611214D02*
X3849881Y-8658833D01*
X3849881Y-8658833D02*
X3840357Y-8696929D01*
X3840357Y-8696929D02*
X3830833Y-8715976D01*
X3830833Y-8715976D02*
X3821309Y-8725500D01*
X3821309Y-8725500D02*
X3802262Y-8735024D01*
X3802262Y-8735024D02*
X3783214Y-8735024D01*
X3783214Y-8735024D02*
X3764167Y-8725500D01*
X3764167Y-8725500D02*
X3754643Y-8715976D01*
X3754643Y-8715976D02*
X3745119Y-8696929D01*
X3745119Y-8696929D02*
X3735595Y-8658833D01*
X3735595Y-8658833D02*
X3735595Y-8611214D01*
X3735595Y-8611214D02*
X3745119Y-8573119D01*
X3745119Y-8573119D02*
X3754643Y-8554071D01*
X3754643Y-8554071D02*
X3764167Y-8544548D01*
X3764167Y-8544548D02*
X3783214Y-8535024D01*
X3935595Y-8715976D02*
X3945119Y-8725500D01*
X3945119Y-8725500D02*
X3935595Y-8735024D01*
X3935595Y-8735024D02*
X3926071Y-8725500D01*
X3926071Y-8725500D02*
X3935595Y-8715976D01*
X3935595Y-8715976D02*
X3935595Y-8735024D01*
X4116548Y-8601690D02*
X4116548Y-8735024D01*
X4068928Y-8525500D02*
X4021309Y-8668357D01*
X4021309Y-8668357D02*
X4145119Y-8668357D01*
X4259405Y-8535024D02*
X4278452Y-8535024D01*
X4278452Y-8535024D02*
X4297500Y-8544548D01*
X4297500Y-8544548D02*
X4307024Y-8554071D01*
X4307024Y-8554071D02*
X4316548Y-8573119D01*
X4316548Y-8573119D02*
X4326071Y-8611214D01*
X4326071Y-8611214D02*
X4326071Y-8658833D01*
X4326071Y-8658833D02*
X4316548Y-8696929D01*
X4316548Y-8696929D02*
X4307024Y-8715976D01*
X4307024Y-8715976D02*
X4297500Y-8725500D01*
X4297500Y-8725500D02*
X4278452Y-8735024D01*
X4278452Y-8735024D02*
X4259405Y-8735024D01*
X4259405Y-8735024D02*
X4240357Y-8725500D01*
X4240357Y-8725500D02*
X4230833Y-8715976D01*
X4230833Y-8715976D02*
X4221310Y-8696929D01*
X4221310Y-8696929D02*
X4211786Y-8658833D01*
X4211786Y-8658833D02*
X4211786Y-8611214D01*
X4211786Y-8611214D02*
X4221310Y-8573119D01*
X4221310Y-8573119D02*
X4230833Y-8554071D01*
X4230833Y-8554071D02*
X4240357Y-8544548D01*
X4240357Y-8544548D02*
X4259405Y-8535024D01*
X4449881Y-8535024D02*
X4468929Y-8535024D01*
X4468929Y-8535024D02*
X4487976Y-8544548D01*
X4487976Y-8544548D02*
X4497500Y-8554071D01*
X4497500Y-8554071D02*
X4507024Y-8573119D01*
X4507024Y-8573119D02*
X4516548Y-8611214D01*
X4516548Y-8611214D02*
X4516548Y-8658833D01*
X4516548Y-8658833D02*
X4507024Y-8696929D01*
X4507024Y-8696929D02*
X4497500Y-8715976D01*
X4497500Y-8715976D02*
X4487976Y-8725500D01*
X4487976Y-8725500D02*
X4468929Y-8735024D01*
X4468929Y-8735024D02*
X4449881Y-8735024D01*
X4449881Y-8735024D02*
X4430833Y-8725500D01*
X4430833Y-8725500D02*
X4421310Y-8715976D01*
X4421310Y-8715976D02*
X4411786Y-8696929D01*
X4411786Y-8696929D02*
X4402262Y-8658833D01*
X4402262Y-8658833D02*
X4402262Y-8611214D01*
X4402262Y-8611214D02*
X4411786Y-8573119D01*
X4411786Y-8573119D02*
X4421310Y-8554071D01*
X4421310Y-8554071D02*
X4430833Y-8544548D01*
X4430833Y-8544548D02*
X4449881Y-8535024D01*
X4602262Y-8735024D02*
X4602262Y-8601690D01*
X4602262Y-8620738D02*
X4611786Y-8611214D01*
X4611786Y-8611214D02*
X4630833Y-8601690D01*
X4630833Y-8601690D02*
X4659405Y-8601690D01*
X4659405Y-8601690D02*
X4678452Y-8611214D01*
X4678452Y-8611214D02*
X4687976Y-8630262D01*
X4687976Y-8630262D02*
X4687976Y-8735024D01*
X4687976Y-8630262D02*
X4697500Y-8611214D01*
X4697500Y-8611214D02*
X4716548Y-8601690D01*
X4716548Y-8601690D02*
X4745119Y-8601690D01*
X4745119Y-8601690D02*
X4764167Y-8611214D01*
X4764167Y-8611214D02*
X4773691Y-8630262D01*
X4773691Y-8630262D02*
X4773691Y-8735024D01*
X4868929Y-8735024D02*
X4868929Y-8601690D01*
X4868929Y-8620738D02*
X4878452Y-8611214D01*
X4878452Y-8611214D02*
X4897500Y-8601690D01*
X4897500Y-8601690D02*
X4926072Y-8601690D01*
X4926072Y-8601690D02*
X4945119Y-8611214D01*
X4945119Y-8611214D02*
X4954643Y-8630262D01*
X4954643Y-8630262D02*
X4954643Y-8735024D01*
X4954643Y-8630262D02*
X4964167Y-8611214D01*
X4964167Y-8611214D02*
X4983214Y-8601690D01*
X4983214Y-8601690D02*
X5011786Y-8601690D01*
X5011786Y-8601690D02*
X5030833Y-8611214D01*
X5030833Y-8611214D02*
X5040357Y-8630262D01*
X5040357Y-8630262D02*
X5040357Y-8735024D01*
X5430833Y-8525500D02*
X5259405Y-8782643D01*
X5687976Y-8535024D02*
X5707024Y-8535024D01*
X5707024Y-8535024D02*
X5726072Y-8544548D01*
X5726072Y-8544548D02*
X5735595Y-8554071D01*
X5735595Y-8554071D02*
X5745119Y-8573119D01*
X5745119Y-8573119D02*
X5754643Y-8611214D01*
X5754643Y-8611214D02*
X5754643Y-8658833D01*
X5754643Y-8658833D02*
X5745119Y-8696929D01*
X5745119Y-8696929D02*
X5735595Y-8715976D01*
X5735595Y-8715976D02*
X5726072Y-8725500D01*
X5726072Y-8725500D02*
X5707024Y-8735024D01*
X5707024Y-8735024D02*
X5687976Y-8735024D01*
X5687976Y-8735024D02*
X5668929Y-8725500D01*
X5668929Y-8725500D02*
X5659405Y-8715976D01*
X5659405Y-8715976D02*
X5649881Y-8696929D01*
X5649881Y-8696929D02*
X5640357Y-8658833D01*
X5640357Y-8658833D02*
X5640357Y-8611214D01*
X5640357Y-8611214D02*
X5649881Y-8573119D01*
X5649881Y-8573119D02*
X5659405Y-8554071D01*
X5659405Y-8554071D02*
X5668929Y-8544548D01*
X5668929Y-8544548D02*
X5687976Y-8535024D01*
X5840357Y-8715976D02*
X5849881Y-8725500D01*
X5849881Y-8725500D02*
X5840357Y-8735024D01*
X5840357Y-8735024D02*
X5830833Y-8725500D01*
X5830833Y-8725500D02*
X5840357Y-8715976D01*
X5840357Y-8715976D02*
X5840357Y-8735024D01*
X5973691Y-8535024D02*
X5992738Y-8535024D01*
X5992738Y-8535024D02*
X6011786Y-8544548D01*
X6011786Y-8544548D02*
X6021310Y-8554071D01*
X6021310Y-8554071D02*
X6030833Y-8573119D01*
X6030833Y-8573119D02*
X6040357Y-8611214D01*
X6040357Y-8611214D02*
X6040357Y-8658833D01*
X6040357Y-8658833D02*
X6030833Y-8696929D01*
X6030833Y-8696929D02*
X6021310Y-8715976D01*
X6021310Y-8715976D02*
X6011786Y-8725500D01*
X6011786Y-8725500D02*
X5992738Y-8735024D01*
X5992738Y-8735024D02*
X5973691Y-8735024D01*
X5973691Y-8735024D02*
X5954643Y-8725500D01*
X5954643Y-8725500D02*
X5945119Y-8715976D01*
X5945119Y-8715976D02*
X5935595Y-8696929D01*
X5935595Y-8696929D02*
X5926072Y-8658833D01*
X5926072Y-8658833D02*
X5926072Y-8611214D01*
X5926072Y-8611214D02*
X5935595Y-8573119D01*
X5935595Y-8573119D02*
X5945119Y-8554071D01*
X5945119Y-8554071D02*
X5954643Y-8544548D01*
X5954643Y-8544548D02*
X5973691Y-8535024D01*
X6230833Y-8735024D02*
X6116548Y-8735024D01*
X6173691Y-8735024D02*
X6173691Y-8535024D01*
X6173691Y-8535024D02*
X6154643Y-8563595D01*
X6154643Y-8563595D02*
X6135595Y-8582643D01*
X6135595Y-8582643D02*
X6116548Y-8592167D01*
X6411786Y-8535024D02*
X6316548Y-8535024D01*
X6316548Y-8535024D02*
X6307024Y-8630262D01*
X6307024Y-8630262D02*
X6316548Y-8620738D01*
X6316548Y-8620738D02*
X6335595Y-8611214D01*
X6335595Y-8611214D02*
X6383214Y-8611214D01*
X6383214Y-8611214D02*
X6402262Y-8620738D01*
X6402262Y-8620738D02*
X6411786Y-8630262D01*
X6411786Y-8630262D02*
X6421310Y-8649310D01*
X6421310Y-8649310D02*
X6421310Y-8696929D01*
X6421310Y-8696929D02*
X6411786Y-8715976D01*
X6411786Y-8715976D02*
X6402262Y-8725500D01*
X6402262Y-8725500D02*
X6383214Y-8735024D01*
X6383214Y-8735024D02*
X6335595Y-8735024D01*
X6335595Y-8735024D02*
X6316548Y-8725500D01*
X6316548Y-8725500D02*
X6307024Y-8715976D01*
X6487976Y-8535024D02*
X6621310Y-8535024D01*
X6621310Y-8535024D02*
X6535595Y-8735024D01*
X6687976Y-8535024D02*
X6687976Y-8573119D01*
X6764167Y-8535024D02*
X6764167Y-8573119D01*
X7059405Y-8811214D02*
X7049881Y-8801690D01*
X7049881Y-8801690D02*
X7030834Y-8773119D01*
X7030834Y-8773119D02*
X7021310Y-8754071D01*
X7021310Y-8754071D02*
X7011786Y-8725500D01*
X7011786Y-8725500D02*
X7002262Y-8677881D01*
X7002262Y-8677881D02*
X7002262Y-8639786D01*
X7002262Y-8639786D02*
X7011786Y-8592167D01*
X7011786Y-8592167D02*
X7021310Y-8563595D01*
X7021310Y-8563595D02*
X7030834Y-8544548D01*
X7030834Y-8544548D02*
X7049881Y-8515976D01*
X7049881Y-8515976D02*
X7059405Y-8506452D01*
X7240357Y-8735024D02*
X7126072Y-8735024D01*
X7183214Y-8735024D02*
X7183214Y-8535024D01*
X7183214Y-8535024D02*
X7164167Y-8563595D01*
X7164167Y-8563595D02*
X7145119Y-8582643D01*
X7145119Y-8582643D02*
X7126072Y-8592167D01*
X7316548Y-8554071D02*
X7326072Y-8544548D01*
X7326072Y-8544548D02*
X7345119Y-8535024D01*
X7345119Y-8535024D02*
X7392738Y-8535024D01*
X7392738Y-8535024D02*
X7411786Y-8544548D01*
X7411786Y-8544548D02*
X7421310Y-8554071D01*
X7421310Y-8554071D02*
X7430834Y-8573119D01*
X7430834Y-8573119D02*
X7430834Y-8592167D01*
X7430834Y-8592167D02*
X7421310Y-8620738D01*
X7421310Y-8620738D02*
X7307024Y-8735024D01*
X7307024Y-8735024D02*
X7430834Y-8735024D01*
X7668929Y-8735024D02*
X7668929Y-8535024D01*
X7754643Y-8735024D02*
X7754643Y-8630262D01*
X7754643Y-8630262D02*
X7745119Y-8611214D01*
X7745119Y-8611214D02*
X7726072Y-8601690D01*
X7726072Y-8601690D02*
X7697500Y-8601690D01*
X7697500Y-8601690D02*
X7678453Y-8611214D01*
X7678453Y-8611214D02*
X7668929Y-8620738D01*
X7878453Y-8735024D02*
X7859405Y-8725500D01*
X7859405Y-8725500D02*
X7849881Y-8715976D01*
X7849881Y-8715976D02*
X7840357Y-8696929D01*
X7840357Y-8696929D02*
X7840357Y-8639786D01*
X7840357Y-8639786D02*
X7849881Y-8620738D01*
X7849881Y-8620738D02*
X7859405Y-8611214D01*
X7859405Y-8611214D02*
X7878453Y-8601690D01*
X7878453Y-8601690D02*
X7907024Y-8601690D01*
X7907024Y-8601690D02*
X7926072Y-8611214D01*
X7926072Y-8611214D02*
X7935596Y-8620738D01*
X7935596Y-8620738D02*
X7945119Y-8639786D01*
X7945119Y-8639786D02*
X7945119Y-8696929D01*
X7945119Y-8696929D02*
X7935596Y-8715976D01*
X7935596Y-8715976D02*
X7926072Y-8725500D01*
X7926072Y-8725500D02*
X7907024Y-8735024D01*
X7907024Y-8735024D02*
X7878453Y-8735024D01*
X8059405Y-8735024D02*
X8040357Y-8725500D01*
X8040357Y-8725500D02*
X8030834Y-8706452D01*
X8030834Y-8706452D02*
X8030834Y-8535024D01*
X8211786Y-8725500D02*
X8192738Y-8735024D01*
X8192738Y-8735024D02*
X8154643Y-8735024D01*
X8154643Y-8735024D02*
X8135596Y-8725500D01*
X8135596Y-8725500D02*
X8126072Y-8706452D01*
X8126072Y-8706452D02*
X8126072Y-8630262D01*
X8126072Y-8630262D02*
X8135596Y-8611214D01*
X8135596Y-8611214D02*
X8154643Y-8601690D01*
X8154643Y-8601690D02*
X8192738Y-8601690D01*
X8192738Y-8601690D02*
X8211786Y-8611214D01*
X8211786Y-8611214D02*
X8221310Y-8630262D01*
X8221310Y-8630262D02*
X8221310Y-8649310D01*
X8221310Y-8649310D02*
X8126072Y-8668357D01*
X8297500Y-8725500D02*
X8316548Y-8735024D01*
X8316548Y-8735024D02*
X8354643Y-8735024D01*
X8354643Y-8735024D02*
X8373691Y-8725500D01*
X8373691Y-8725500D02*
X8383215Y-8706452D01*
X8383215Y-8706452D02*
X8383215Y-8696929D01*
X8383215Y-8696929D02*
X8373691Y-8677881D01*
X8373691Y-8677881D02*
X8354643Y-8668357D01*
X8354643Y-8668357D02*
X8326072Y-8668357D01*
X8326072Y-8668357D02*
X8307024Y-8658833D01*
X8307024Y-8658833D02*
X8297500Y-8639786D01*
X8297500Y-8639786D02*
X8297500Y-8630262D01*
X8297500Y-8630262D02*
X8307024Y-8611214D01*
X8307024Y-8611214D02*
X8326072Y-8601690D01*
X8326072Y-8601690D02*
X8354643Y-8601690D01*
X8354643Y-8601690D02*
X8373691Y-8611214D01*
X8449881Y-8811214D02*
X8459405Y-8801690D01*
X8459405Y-8801690D02*
X8478453Y-8773119D01*
X8478453Y-8773119D02*
X8487977Y-8754071D01*
X8487977Y-8754071D02*
X8497500Y-8725500D01*
X8497500Y-8725500D02*
X8507024Y-8677881D01*
X8507024Y-8677881D02*
X8507024Y-8639786D01*
X8507024Y-8639786D02*
X8497500Y-8592167D01*
X8497500Y-8592167D02*
X8487977Y-8563595D01*
X8487977Y-8563595D02*
X8478453Y-8544548D01*
X8478453Y-8544548D02*
X8459405Y-8515976D01*
X8459405Y-8515976D02*
X8449881Y-8506452D01*
D13*
X3497500Y-8906500D02*
G75*
G03*
X3497500Y-8906500I-35000J0D01*
G01*
D11*
X3783214Y-8799024D02*
X3802262Y-8799024D01*
X3802262Y-8799024D02*
X3821309Y-8808548D01*
X3821309Y-8808548D02*
X3830833Y-8818071D01*
X3830833Y-8818071D02*
X3840357Y-8837119D01*
X3840357Y-8837119D02*
X3849881Y-8875214D01*
X3849881Y-8875214D02*
X3849881Y-8922833D01*
X3849881Y-8922833D02*
X3840357Y-8960929D01*
X3840357Y-8960929D02*
X3830833Y-8979976D01*
X3830833Y-8979976D02*
X3821309Y-8989500D01*
X3821309Y-8989500D02*
X3802262Y-8999024D01*
X3802262Y-8999024D02*
X3783214Y-8999024D01*
X3783214Y-8999024D02*
X3764167Y-8989500D01*
X3764167Y-8989500D02*
X3754643Y-8979976D01*
X3754643Y-8979976D02*
X3745119Y-8960929D01*
X3745119Y-8960929D02*
X3735595Y-8922833D01*
X3735595Y-8922833D02*
X3735595Y-8875214D01*
X3735595Y-8875214D02*
X3745119Y-8837119D01*
X3745119Y-8837119D02*
X3754643Y-8818071D01*
X3754643Y-8818071D02*
X3764167Y-8808548D01*
X3764167Y-8808548D02*
X3783214Y-8799024D01*
X3935595Y-8979976D02*
X3945119Y-8989500D01*
X3945119Y-8989500D02*
X3935595Y-8999024D01*
X3935595Y-8999024D02*
X3926071Y-8989500D01*
X3926071Y-8989500D02*
X3935595Y-8979976D01*
X3935595Y-8979976D02*
X3935595Y-8999024D01*
X4011786Y-8799024D02*
X4145119Y-8799024D01*
X4145119Y-8799024D02*
X4059405Y-8999024D01*
X4259405Y-8799024D02*
X4278452Y-8799024D01*
X4278452Y-8799024D02*
X4297500Y-8808548D01*
X4297500Y-8808548D02*
X4307024Y-8818071D01*
X4307024Y-8818071D02*
X4316548Y-8837119D01*
X4316548Y-8837119D02*
X4326071Y-8875214D01*
X4326071Y-8875214D02*
X4326071Y-8922833D01*
X4326071Y-8922833D02*
X4316548Y-8960929D01*
X4316548Y-8960929D02*
X4307024Y-8979976D01*
X4307024Y-8979976D02*
X4297500Y-8989500D01*
X4297500Y-8989500D02*
X4278452Y-8999024D01*
X4278452Y-8999024D02*
X4259405Y-8999024D01*
X4259405Y-8999024D02*
X4240357Y-8989500D01*
X4240357Y-8989500D02*
X4230833Y-8979976D01*
X4230833Y-8979976D02*
X4221310Y-8960929D01*
X4221310Y-8960929D02*
X4211786Y-8922833D01*
X4211786Y-8922833D02*
X4211786Y-8875214D01*
X4211786Y-8875214D02*
X4221310Y-8837119D01*
X4221310Y-8837119D02*
X4230833Y-8818071D01*
X4230833Y-8818071D02*
X4240357Y-8808548D01*
X4240357Y-8808548D02*
X4259405Y-8799024D01*
X4449881Y-8799024D02*
X4468929Y-8799024D01*
X4468929Y-8799024D02*
X4487976Y-8808548D01*
X4487976Y-8808548D02*
X4497500Y-8818071D01*
X4497500Y-8818071D02*
X4507024Y-8837119D01*
X4507024Y-8837119D02*
X4516548Y-8875214D01*
X4516548Y-8875214D02*
X4516548Y-8922833D01*
X4516548Y-8922833D02*
X4507024Y-8960929D01*
X4507024Y-8960929D02*
X4497500Y-8979976D01*
X4497500Y-8979976D02*
X4487976Y-8989500D01*
X4487976Y-8989500D02*
X4468929Y-8999024D01*
X4468929Y-8999024D02*
X4449881Y-8999024D01*
X4449881Y-8999024D02*
X4430833Y-8989500D01*
X4430833Y-8989500D02*
X4421310Y-8979976D01*
X4421310Y-8979976D02*
X4411786Y-8960929D01*
X4411786Y-8960929D02*
X4402262Y-8922833D01*
X4402262Y-8922833D02*
X4402262Y-8875214D01*
X4402262Y-8875214D02*
X4411786Y-8837119D01*
X4411786Y-8837119D02*
X4421310Y-8818071D01*
X4421310Y-8818071D02*
X4430833Y-8808548D01*
X4430833Y-8808548D02*
X4449881Y-8799024D01*
X4602262Y-8999024D02*
X4602262Y-8865690D01*
X4602262Y-8884738D02*
X4611786Y-8875214D01*
X4611786Y-8875214D02*
X4630833Y-8865690D01*
X4630833Y-8865690D02*
X4659405Y-8865690D01*
X4659405Y-8865690D02*
X4678452Y-8875214D01*
X4678452Y-8875214D02*
X4687976Y-8894262D01*
X4687976Y-8894262D02*
X4687976Y-8999024D01*
X4687976Y-8894262D02*
X4697500Y-8875214D01*
X4697500Y-8875214D02*
X4716548Y-8865690D01*
X4716548Y-8865690D02*
X4745119Y-8865690D01*
X4745119Y-8865690D02*
X4764167Y-8875214D01*
X4764167Y-8875214D02*
X4773691Y-8894262D01*
X4773691Y-8894262D02*
X4773691Y-8999024D01*
X4868929Y-8999024D02*
X4868929Y-8865690D01*
X4868929Y-8884738D02*
X4878452Y-8875214D01*
X4878452Y-8875214D02*
X4897500Y-8865690D01*
X4897500Y-8865690D02*
X4926072Y-8865690D01*
X4926072Y-8865690D02*
X4945119Y-8875214D01*
X4945119Y-8875214D02*
X4954643Y-8894262D01*
X4954643Y-8894262D02*
X4954643Y-8999024D01*
X4954643Y-8894262D02*
X4964167Y-8875214D01*
X4964167Y-8875214D02*
X4983214Y-8865690D01*
X4983214Y-8865690D02*
X5011786Y-8865690D01*
X5011786Y-8865690D02*
X5030833Y-8875214D01*
X5030833Y-8875214D02*
X5040357Y-8894262D01*
X5040357Y-8894262D02*
X5040357Y-8999024D01*
X5430833Y-8789500D02*
X5259405Y-9046643D01*
X5687976Y-8799024D02*
X5707024Y-8799024D01*
X5707024Y-8799024D02*
X5726072Y-8808548D01*
X5726072Y-8808548D02*
X5735595Y-8818071D01*
X5735595Y-8818071D02*
X5745119Y-8837119D01*
X5745119Y-8837119D02*
X5754643Y-8875214D01*
X5754643Y-8875214D02*
X5754643Y-8922833D01*
X5754643Y-8922833D02*
X5745119Y-8960929D01*
X5745119Y-8960929D02*
X5735595Y-8979976D01*
X5735595Y-8979976D02*
X5726072Y-8989500D01*
X5726072Y-8989500D02*
X5707024Y-8999024D01*
X5707024Y-8999024D02*
X5687976Y-8999024D01*
X5687976Y-8999024D02*
X5668929Y-8989500D01*
X5668929Y-8989500D02*
X5659405Y-8979976D01*
X5659405Y-8979976D02*
X5649881Y-8960929D01*
X5649881Y-8960929D02*
X5640357Y-8922833D01*
X5640357Y-8922833D02*
X5640357Y-8875214D01*
X5640357Y-8875214D02*
X5649881Y-8837119D01*
X5649881Y-8837119D02*
X5659405Y-8818071D01*
X5659405Y-8818071D02*
X5668929Y-8808548D01*
X5668929Y-8808548D02*
X5687976Y-8799024D01*
X5840357Y-8979976D02*
X5849881Y-8989500D01*
X5849881Y-8989500D02*
X5840357Y-8999024D01*
X5840357Y-8999024D02*
X5830833Y-8989500D01*
X5830833Y-8989500D02*
X5840357Y-8979976D01*
X5840357Y-8979976D02*
X5840357Y-8999024D01*
X5973691Y-8799024D02*
X5992738Y-8799024D01*
X5992738Y-8799024D02*
X6011786Y-8808548D01*
X6011786Y-8808548D02*
X6021310Y-8818071D01*
X6021310Y-8818071D02*
X6030833Y-8837119D01*
X6030833Y-8837119D02*
X6040357Y-8875214D01*
X6040357Y-8875214D02*
X6040357Y-8922833D01*
X6040357Y-8922833D02*
X6030833Y-8960929D01*
X6030833Y-8960929D02*
X6021310Y-8979976D01*
X6021310Y-8979976D02*
X6011786Y-8989500D01*
X6011786Y-8989500D02*
X5992738Y-8999024D01*
X5992738Y-8999024D02*
X5973691Y-8999024D01*
X5973691Y-8999024D02*
X5954643Y-8989500D01*
X5954643Y-8989500D02*
X5945119Y-8979976D01*
X5945119Y-8979976D02*
X5935595Y-8960929D01*
X5935595Y-8960929D02*
X5926072Y-8922833D01*
X5926072Y-8922833D02*
X5926072Y-8875214D01*
X5926072Y-8875214D02*
X5935595Y-8837119D01*
X5935595Y-8837119D02*
X5945119Y-8818071D01*
X5945119Y-8818071D02*
X5954643Y-8808548D01*
X5954643Y-8808548D02*
X5973691Y-8799024D01*
X6116548Y-8818071D02*
X6126072Y-8808548D01*
X6126072Y-8808548D02*
X6145119Y-8799024D01*
X6145119Y-8799024D02*
X6192738Y-8799024D01*
X6192738Y-8799024D02*
X6211786Y-8808548D01*
X6211786Y-8808548D02*
X6221310Y-8818071D01*
X6221310Y-8818071D02*
X6230833Y-8837119D01*
X6230833Y-8837119D02*
X6230833Y-8856167D01*
X6230833Y-8856167D02*
X6221310Y-8884738D01*
X6221310Y-8884738D02*
X6107024Y-8999024D01*
X6107024Y-8999024D02*
X6230833Y-8999024D01*
X6297500Y-8799024D02*
X6430833Y-8799024D01*
X6430833Y-8799024D02*
X6345119Y-8999024D01*
X6592738Y-8799024D02*
X6554643Y-8799024D01*
X6554643Y-8799024D02*
X6535595Y-8808548D01*
X6535595Y-8808548D02*
X6526072Y-8818071D01*
X6526072Y-8818071D02*
X6507024Y-8846643D01*
X6507024Y-8846643D02*
X6497500Y-8884738D01*
X6497500Y-8884738D02*
X6497500Y-8960929D01*
X6497500Y-8960929D02*
X6507024Y-8979976D01*
X6507024Y-8979976D02*
X6516548Y-8989500D01*
X6516548Y-8989500D02*
X6535595Y-8999024D01*
X6535595Y-8999024D02*
X6573691Y-8999024D01*
X6573691Y-8999024D02*
X6592738Y-8989500D01*
X6592738Y-8989500D02*
X6602262Y-8979976D01*
X6602262Y-8979976D02*
X6611786Y-8960929D01*
X6611786Y-8960929D02*
X6611786Y-8913310D01*
X6611786Y-8913310D02*
X6602262Y-8894262D01*
X6602262Y-8894262D02*
X6592738Y-8884738D01*
X6592738Y-8884738D02*
X6573691Y-8875214D01*
X6573691Y-8875214D02*
X6535595Y-8875214D01*
X6535595Y-8875214D02*
X6516548Y-8884738D01*
X6516548Y-8884738D02*
X6507024Y-8894262D01*
X6507024Y-8894262D02*
X6497500Y-8913310D01*
X6687976Y-8799024D02*
X6687976Y-8837119D01*
X6764167Y-8799024D02*
X6764167Y-8837119D01*
X7059405Y-9075214D02*
X7049881Y-9065690D01*
X7049881Y-9065690D02*
X7030834Y-9037119D01*
X7030834Y-9037119D02*
X7021310Y-9018071D01*
X7021310Y-9018071D02*
X7011786Y-8989500D01*
X7011786Y-8989500D02*
X7002262Y-8941881D01*
X7002262Y-8941881D02*
X7002262Y-8903786D01*
X7002262Y-8903786D02*
X7011786Y-8856167D01*
X7011786Y-8856167D02*
X7021310Y-8827595D01*
X7021310Y-8827595D02*
X7030834Y-8808548D01*
X7030834Y-8808548D02*
X7049881Y-8779976D01*
X7049881Y-8779976D02*
X7059405Y-8770452D01*
X7126072Y-8818071D02*
X7135595Y-8808548D01*
X7135595Y-8808548D02*
X7154643Y-8799024D01*
X7154643Y-8799024D02*
X7202262Y-8799024D01*
X7202262Y-8799024D02*
X7221310Y-8808548D01*
X7221310Y-8808548D02*
X7230834Y-8818071D01*
X7230834Y-8818071D02*
X7240357Y-8837119D01*
X7240357Y-8837119D02*
X7240357Y-8856167D01*
X7240357Y-8856167D02*
X7230834Y-8884738D01*
X7230834Y-8884738D02*
X7116548Y-8999024D01*
X7116548Y-8999024D02*
X7240357Y-8999024D01*
X7316548Y-8818071D02*
X7326072Y-8808548D01*
X7326072Y-8808548D02*
X7345119Y-8799024D01*
X7345119Y-8799024D02*
X7392738Y-8799024D01*
X7392738Y-8799024D02*
X7411786Y-8808548D01*
X7411786Y-8808548D02*
X7421310Y-8818071D01*
X7421310Y-8818071D02*
X7430834Y-8837119D01*
X7430834Y-8837119D02*
X7430834Y-8856167D01*
X7430834Y-8856167D02*
X7421310Y-8884738D01*
X7421310Y-8884738D02*
X7307024Y-8999024D01*
X7307024Y-8999024D02*
X7430834Y-8999024D01*
X7668929Y-8999024D02*
X7668929Y-8799024D01*
X7754643Y-8999024D02*
X7754643Y-8894262D01*
X7754643Y-8894262D02*
X7745119Y-8875214D01*
X7745119Y-8875214D02*
X7726072Y-8865690D01*
X7726072Y-8865690D02*
X7697500Y-8865690D01*
X7697500Y-8865690D02*
X7678453Y-8875214D01*
X7678453Y-8875214D02*
X7668929Y-8884738D01*
X7878453Y-8999024D02*
X7859405Y-8989500D01*
X7859405Y-8989500D02*
X7849881Y-8979976D01*
X7849881Y-8979976D02*
X7840357Y-8960929D01*
X7840357Y-8960929D02*
X7840357Y-8903786D01*
X7840357Y-8903786D02*
X7849881Y-8884738D01*
X7849881Y-8884738D02*
X7859405Y-8875214D01*
X7859405Y-8875214D02*
X7878453Y-8865690D01*
X7878453Y-8865690D02*
X7907024Y-8865690D01*
X7907024Y-8865690D02*
X7926072Y-8875214D01*
X7926072Y-8875214D02*
X7935596Y-8884738D01*
X7935596Y-8884738D02*
X7945119Y-8903786D01*
X7945119Y-8903786D02*
X7945119Y-8960929D01*
X7945119Y-8960929D02*
X7935596Y-8979976D01*
X7935596Y-8979976D02*
X7926072Y-8989500D01*
X7926072Y-8989500D02*
X7907024Y-8999024D01*
X7907024Y-8999024D02*
X7878453Y-8999024D01*
X8059405Y-8999024D02*
X8040357Y-8989500D01*
X8040357Y-8989500D02*
X8030834Y-8970452D01*
X8030834Y-8970452D02*
X8030834Y-8799024D01*
X8211786Y-8989500D02*
X8192738Y-8999024D01*
X8192738Y-8999024D02*
X8154643Y-8999024D01*
X8154643Y-8999024D02*
X8135596Y-8989500D01*
X8135596Y-8989500D02*
X8126072Y-8970452D01*
X8126072Y-8970452D02*
X8126072Y-8894262D01*
X8126072Y-8894262D02*
X8135596Y-8875214D01*
X8135596Y-8875214D02*
X8154643Y-8865690D01*
X8154643Y-8865690D02*
X8192738Y-8865690D01*
X8192738Y-8865690D02*
X8211786Y-8875214D01*
X8211786Y-8875214D02*
X8221310Y-8894262D01*
X8221310Y-8894262D02*
X8221310Y-8913310D01*
X8221310Y-8913310D02*
X8126072Y-8932357D01*
X8297500Y-8989500D02*
X8316548Y-8999024D01*
X8316548Y-8999024D02*
X8354643Y-8999024D01*
X8354643Y-8999024D02*
X8373691Y-8989500D01*
X8373691Y-8989500D02*
X8383215Y-8970452D01*
X8383215Y-8970452D02*
X8383215Y-8960929D01*
X8383215Y-8960929D02*
X8373691Y-8941881D01*
X8373691Y-8941881D02*
X8354643Y-8932357D01*
X8354643Y-8932357D02*
X8326072Y-8932357D01*
X8326072Y-8932357D02*
X8307024Y-8922833D01*
X8307024Y-8922833D02*
X8297500Y-8903786D01*
X8297500Y-8903786D02*
X8297500Y-8894262D01*
X8297500Y-8894262D02*
X8307024Y-8875214D01*
X8307024Y-8875214D02*
X8326072Y-8865690D01*
X8326072Y-8865690D02*
X8354643Y-8865690D01*
X8354643Y-8865690D02*
X8373691Y-8875214D01*
X8449881Y-9075214D02*
X8459405Y-9065690D01*
X8459405Y-9065690D02*
X8478453Y-9037119D01*
X8478453Y-9037119D02*
X8487977Y-9018071D01*
X8487977Y-9018071D02*
X8497500Y-8989500D01*
X8497500Y-8989500D02*
X8507024Y-8941881D01*
X8507024Y-8941881D02*
X8507024Y-8903786D01*
X8507024Y-8903786D02*
X8497500Y-8856167D01*
X8497500Y-8856167D02*
X8487977Y-8827595D01*
X8487977Y-8827595D02*
X8478453Y-8808548D01*
X8478453Y-8808548D02*
X8459405Y-8779976D01*
X8459405Y-8779976D02*
X8449881Y-8770452D01*
D14*
X3457500Y-9130500D02*
X3457500Y-9210500D01*
X3417500Y-9170500D02*
X3497500Y-9170500D01*
D11*
X3783214Y-9063024D02*
X3802262Y-9063024D01*
X3802262Y-9063024D02*
X3821309Y-9072548D01*
X3821309Y-9072548D02*
X3830833Y-9082071D01*
X3830833Y-9082071D02*
X3840357Y-9101119D01*
X3840357Y-9101119D02*
X3849881Y-9139214D01*
X3849881Y-9139214D02*
X3849881Y-9186833D01*
X3849881Y-9186833D02*
X3840357Y-9224929D01*
X3840357Y-9224929D02*
X3830833Y-9243976D01*
X3830833Y-9243976D02*
X3821309Y-9253500D01*
X3821309Y-9253500D02*
X3802262Y-9263024D01*
X3802262Y-9263024D02*
X3783214Y-9263024D01*
X3783214Y-9263024D02*
X3764167Y-9253500D01*
X3764167Y-9253500D02*
X3754643Y-9243976D01*
X3754643Y-9243976D02*
X3745119Y-9224929D01*
X3745119Y-9224929D02*
X3735595Y-9186833D01*
X3735595Y-9186833D02*
X3735595Y-9139214D01*
X3735595Y-9139214D02*
X3745119Y-9101119D01*
X3745119Y-9101119D02*
X3754643Y-9082071D01*
X3754643Y-9082071D02*
X3764167Y-9072548D01*
X3764167Y-9072548D02*
X3783214Y-9063024D01*
X3935595Y-9243976D02*
X3945119Y-9253500D01*
X3945119Y-9253500D02*
X3935595Y-9263024D01*
X3935595Y-9263024D02*
X3926071Y-9253500D01*
X3926071Y-9253500D02*
X3935595Y-9243976D01*
X3935595Y-9243976D02*
X3935595Y-9263024D01*
X4059405Y-9148738D02*
X4040357Y-9139214D01*
X4040357Y-9139214D02*
X4030833Y-9129690D01*
X4030833Y-9129690D02*
X4021309Y-9110643D01*
X4021309Y-9110643D02*
X4021309Y-9101119D01*
X4021309Y-9101119D02*
X4030833Y-9082071D01*
X4030833Y-9082071D02*
X4040357Y-9072548D01*
X4040357Y-9072548D02*
X4059405Y-9063024D01*
X4059405Y-9063024D02*
X4097500Y-9063024D01*
X4097500Y-9063024D02*
X4116548Y-9072548D01*
X4116548Y-9072548D02*
X4126071Y-9082071D01*
X4126071Y-9082071D02*
X4135595Y-9101119D01*
X4135595Y-9101119D02*
X4135595Y-9110643D01*
X4135595Y-9110643D02*
X4126071Y-9129690D01*
X4126071Y-9129690D02*
X4116548Y-9139214D01*
X4116548Y-9139214D02*
X4097500Y-9148738D01*
X4097500Y-9148738D02*
X4059405Y-9148738D01*
X4059405Y-9148738D02*
X4040357Y-9158262D01*
X4040357Y-9158262D02*
X4030833Y-9167786D01*
X4030833Y-9167786D02*
X4021309Y-9186833D01*
X4021309Y-9186833D02*
X4021309Y-9224929D01*
X4021309Y-9224929D02*
X4030833Y-9243976D01*
X4030833Y-9243976D02*
X4040357Y-9253500D01*
X4040357Y-9253500D02*
X4059405Y-9263024D01*
X4059405Y-9263024D02*
X4097500Y-9263024D01*
X4097500Y-9263024D02*
X4116548Y-9253500D01*
X4116548Y-9253500D02*
X4126071Y-9243976D01*
X4126071Y-9243976D02*
X4135595Y-9224929D01*
X4135595Y-9224929D02*
X4135595Y-9186833D01*
X4135595Y-9186833D02*
X4126071Y-9167786D01*
X4126071Y-9167786D02*
X4116548Y-9158262D01*
X4116548Y-9158262D02*
X4097500Y-9148738D01*
X4259405Y-9063024D02*
X4278452Y-9063024D01*
X4278452Y-9063024D02*
X4297500Y-9072548D01*
X4297500Y-9072548D02*
X4307024Y-9082071D01*
X4307024Y-9082071D02*
X4316548Y-9101119D01*
X4316548Y-9101119D02*
X4326071Y-9139214D01*
X4326071Y-9139214D02*
X4326071Y-9186833D01*
X4326071Y-9186833D02*
X4316548Y-9224929D01*
X4316548Y-9224929D02*
X4307024Y-9243976D01*
X4307024Y-9243976D02*
X4297500Y-9253500D01*
X4297500Y-9253500D02*
X4278452Y-9263024D01*
X4278452Y-9263024D02*
X4259405Y-9263024D01*
X4259405Y-9263024D02*
X4240357Y-9253500D01*
X4240357Y-9253500D02*
X4230833Y-9243976D01*
X4230833Y-9243976D02*
X4221310Y-9224929D01*
X4221310Y-9224929D02*
X4211786Y-9186833D01*
X4211786Y-9186833D02*
X4211786Y-9139214D01*
X4211786Y-9139214D02*
X4221310Y-9101119D01*
X4221310Y-9101119D02*
X4230833Y-9082071D01*
X4230833Y-9082071D02*
X4240357Y-9072548D01*
X4240357Y-9072548D02*
X4259405Y-9063024D01*
X4449881Y-9063024D02*
X4468929Y-9063024D01*
X4468929Y-9063024D02*
X4487976Y-9072548D01*
X4487976Y-9072548D02*
X4497500Y-9082071D01*
X4497500Y-9082071D02*
X4507024Y-9101119D01*
X4507024Y-9101119D02*
X4516548Y-9139214D01*
X4516548Y-9139214D02*
X4516548Y-9186833D01*
X4516548Y-9186833D02*
X4507024Y-9224929D01*
X4507024Y-9224929D02*
X4497500Y-9243976D01*
X4497500Y-9243976D02*
X4487976Y-9253500D01*
X4487976Y-9253500D02*
X4468929Y-9263024D01*
X4468929Y-9263024D02*
X4449881Y-9263024D01*
X4449881Y-9263024D02*
X4430833Y-9253500D01*
X4430833Y-9253500D02*
X4421310Y-9243976D01*
X4421310Y-9243976D02*
X4411786Y-9224929D01*
X4411786Y-9224929D02*
X4402262Y-9186833D01*
X4402262Y-9186833D02*
X4402262Y-9139214D01*
X4402262Y-9139214D02*
X4411786Y-9101119D01*
X4411786Y-9101119D02*
X4421310Y-9082071D01*
X4421310Y-9082071D02*
X4430833Y-9072548D01*
X4430833Y-9072548D02*
X4449881Y-9063024D01*
X4602262Y-9263024D02*
X4602262Y-9129690D01*
X4602262Y-9148738D02*
X4611786Y-9139214D01*
X4611786Y-9139214D02*
X4630833Y-9129690D01*
X4630833Y-9129690D02*
X4659405Y-9129690D01*
X4659405Y-9129690D02*
X4678452Y-9139214D01*
X4678452Y-9139214D02*
X4687976Y-9158262D01*
X4687976Y-9158262D02*
X4687976Y-9263024D01*
X4687976Y-9158262D02*
X4697500Y-9139214D01*
X4697500Y-9139214D02*
X4716548Y-9129690D01*
X4716548Y-9129690D02*
X4745119Y-9129690D01*
X4745119Y-9129690D02*
X4764167Y-9139214D01*
X4764167Y-9139214D02*
X4773691Y-9158262D01*
X4773691Y-9158262D02*
X4773691Y-9263024D01*
X4868929Y-9263024D02*
X4868929Y-9129690D01*
X4868929Y-9148738D02*
X4878452Y-9139214D01*
X4878452Y-9139214D02*
X4897500Y-9129690D01*
X4897500Y-9129690D02*
X4926072Y-9129690D01*
X4926072Y-9129690D02*
X4945119Y-9139214D01*
X4945119Y-9139214D02*
X4954643Y-9158262D01*
X4954643Y-9158262D02*
X4954643Y-9263024D01*
X4954643Y-9158262D02*
X4964167Y-9139214D01*
X4964167Y-9139214D02*
X4983214Y-9129690D01*
X4983214Y-9129690D02*
X5011786Y-9129690D01*
X5011786Y-9129690D02*
X5030833Y-9139214D01*
X5030833Y-9139214D02*
X5040357Y-9158262D01*
X5040357Y-9158262D02*
X5040357Y-9263024D01*
X5430833Y-9053500D02*
X5259405Y-9310643D01*
X5687976Y-9063024D02*
X5707024Y-9063024D01*
X5707024Y-9063024D02*
X5726072Y-9072548D01*
X5726072Y-9072548D02*
X5735595Y-9082071D01*
X5735595Y-9082071D02*
X5745119Y-9101119D01*
X5745119Y-9101119D02*
X5754643Y-9139214D01*
X5754643Y-9139214D02*
X5754643Y-9186833D01*
X5754643Y-9186833D02*
X5745119Y-9224929D01*
X5745119Y-9224929D02*
X5735595Y-9243976D01*
X5735595Y-9243976D02*
X5726072Y-9253500D01*
X5726072Y-9253500D02*
X5707024Y-9263024D01*
X5707024Y-9263024D02*
X5687976Y-9263024D01*
X5687976Y-9263024D02*
X5668929Y-9253500D01*
X5668929Y-9253500D02*
X5659405Y-9243976D01*
X5659405Y-9243976D02*
X5649881Y-9224929D01*
X5649881Y-9224929D02*
X5640357Y-9186833D01*
X5640357Y-9186833D02*
X5640357Y-9139214D01*
X5640357Y-9139214D02*
X5649881Y-9101119D01*
X5649881Y-9101119D02*
X5659405Y-9082071D01*
X5659405Y-9082071D02*
X5668929Y-9072548D01*
X5668929Y-9072548D02*
X5687976Y-9063024D01*
X5840357Y-9243976D02*
X5849881Y-9253500D01*
X5849881Y-9253500D02*
X5840357Y-9263024D01*
X5840357Y-9263024D02*
X5830833Y-9253500D01*
X5830833Y-9253500D02*
X5840357Y-9243976D01*
X5840357Y-9243976D02*
X5840357Y-9263024D01*
X5973691Y-9063024D02*
X5992738Y-9063024D01*
X5992738Y-9063024D02*
X6011786Y-9072548D01*
X6011786Y-9072548D02*
X6021310Y-9082071D01*
X6021310Y-9082071D02*
X6030833Y-9101119D01*
X6030833Y-9101119D02*
X6040357Y-9139214D01*
X6040357Y-9139214D02*
X6040357Y-9186833D01*
X6040357Y-9186833D02*
X6030833Y-9224929D01*
X6030833Y-9224929D02*
X6021310Y-9243976D01*
X6021310Y-9243976D02*
X6011786Y-9253500D01*
X6011786Y-9253500D02*
X5992738Y-9263024D01*
X5992738Y-9263024D02*
X5973691Y-9263024D01*
X5973691Y-9263024D02*
X5954643Y-9253500D01*
X5954643Y-9253500D02*
X5945119Y-9243976D01*
X5945119Y-9243976D02*
X5935595Y-9224929D01*
X5935595Y-9224929D02*
X5926072Y-9186833D01*
X5926072Y-9186833D02*
X5926072Y-9139214D01*
X5926072Y-9139214D02*
X5935595Y-9101119D01*
X5935595Y-9101119D02*
X5945119Y-9082071D01*
X5945119Y-9082071D02*
X5954643Y-9072548D01*
X5954643Y-9072548D02*
X5973691Y-9063024D01*
X6107024Y-9063024D02*
X6230833Y-9063024D01*
X6230833Y-9063024D02*
X6164167Y-9139214D01*
X6164167Y-9139214D02*
X6192738Y-9139214D01*
X6192738Y-9139214D02*
X6211786Y-9148738D01*
X6211786Y-9148738D02*
X6221310Y-9158262D01*
X6221310Y-9158262D02*
X6230833Y-9177310D01*
X6230833Y-9177310D02*
X6230833Y-9224929D01*
X6230833Y-9224929D02*
X6221310Y-9243976D01*
X6221310Y-9243976D02*
X6211786Y-9253500D01*
X6211786Y-9253500D02*
X6192738Y-9263024D01*
X6192738Y-9263024D02*
X6135595Y-9263024D01*
X6135595Y-9263024D02*
X6116548Y-9253500D01*
X6116548Y-9253500D02*
X6107024Y-9243976D01*
X6421310Y-9263024D02*
X6307024Y-9263024D01*
X6364167Y-9263024D02*
X6364167Y-9063024D01*
X6364167Y-9063024D02*
X6345119Y-9091595D01*
X6345119Y-9091595D02*
X6326072Y-9110643D01*
X6326072Y-9110643D02*
X6307024Y-9120167D01*
X6602262Y-9063024D02*
X6507024Y-9063024D01*
X6507024Y-9063024D02*
X6497500Y-9158262D01*
X6497500Y-9158262D02*
X6507024Y-9148738D01*
X6507024Y-9148738D02*
X6526072Y-9139214D01*
X6526072Y-9139214D02*
X6573691Y-9139214D01*
X6573691Y-9139214D02*
X6592738Y-9148738D01*
X6592738Y-9148738D02*
X6602262Y-9158262D01*
X6602262Y-9158262D02*
X6611786Y-9177310D01*
X6611786Y-9177310D02*
X6611786Y-9224929D01*
X6611786Y-9224929D02*
X6602262Y-9243976D01*
X6602262Y-9243976D02*
X6592738Y-9253500D01*
X6592738Y-9253500D02*
X6573691Y-9263024D01*
X6573691Y-9263024D02*
X6526072Y-9263024D01*
X6526072Y-9263024D02*
X6507024Y-9253500D01*
X6507024Y-9253500D02*
X6497500Y-9243976D01*
X6687976Y-9063024D02*
X6687976Y-9101119D01*
X6764167Y-9063024D02*
X6764167Y-9101119D01*
X7059405Y-9339214D02*
X7049881Y-9329690D01*
X7049881Y-9329690D02*
X7030834Y-9301119D01*
X7030834Y-9301119D02*
X7021310Y-9282071D01*
X7021310Y-9282071D02*
X7011786Y-9253500D01*
X7011786Y-9253500D02*
X7002262Y-9205881D01*
X7002262Y-9205881D02*
X7002262Y-9167786D01*
X7002262Y-9167786D02*
X7011786Y-9120167D01*
X7011786Y-9120167D02*
X7021310Y-9091595D01*
X7021310Y-9091595D02*
X7030834Y-9072548D01*
X7030834Y-9072548D02*
X7049881Y-9043976D01*
X7049881Y-9043976D02*
X7059405Y-9034452D01*
X7116548Y-9063024D02*
X7240357Y-9063024D01*
X7240357Y-9063024D02*
X7173691Y-9139214D01*
X7173691Y-9139214D02*
X7202262Y-9139214D01*
X7202262Y-9139214D02*
X7221310Y-9148738D01*
X7221310Y-9148738D02*
X7230834Y-9158262D01*
X7230834Y-9158262D02*
X7240357Y-9177310D01*
X7240357Y-9177310D02*
X7240357Y-9224929D01*
X7240357Y-9224929D02*
X7230834Y-9243976D01*
X7230834Y-9243976D02*
X7221310Y-9253500D01*
X7221310Y-9253500D02*
X7202262Y-9263024D01*
X7202262Y-9263024D02*
X7145119Y-9263024D01*
X7145119Y-9263024D02*
X7126072Y-9253500D01*
X7126072Y-9253500D02*
X7116548Y-9243976D01*
X7411786Y-9063024D02*
X7373691Y-9063024D01*
X7373691Y-9063024D02*
X7354643Y-9072548D01*
X7354643Y-9072548D02*
X7345119Y-9082071D01*
X7345119Y-9082071D02*
X7326072Y-9110643D01*
X7326072Y-9110643D02*
X7316548Y-9148738D01*
X7316548Y-9148738D02*
X7316548Y-9224929D01*
X7316548Y-9224929D02*
X7326072Y-9243976D01*
X7326072Y-9243976D02*
X7335595Y-9253500D01*
X7335595Y-9253500D02*
X7354643Y-9263024D01*
X7354643Y-9263024D02*
X7392738Y-9263024D01*
X7392738Y-9263024D02*
X7411786Y-9253500D01*
X7411786Y-9253500D02*
X7421310Y-9243976D01*
X7421310Y-9243976D02*
X7430834Y-9224929D01*
X7430834Y-9224929D02*
X7430834Y-9177310D01*
X7430834Y-9177310D02*
X7421310Y-9158262D01*
X7421310Y-9158262D02*
X7411786Y-9148738D01*
X7411786Y-9148738D02*
X7392738Y-9139214D01*
X7392738Y-9139214D02*
X7354643Y-9139214D01*
X7354643Y-9139214D02*
X7335595Y-9148738D01*
X7335595Y-9148738D02*
X7326072Y-9158262D01*
X7326072Y-9158262D02*
X7316548Y-9177310D01*
X7668929Y-9263024D02*
X7668929Y-9063024D01*
X7754643Y-9263024D02*
X7754643Y-9158262D01*
X7754643Y-9158262D02*
X7745119Y-9139214D01*
X7745119Y-9139214D02*
X7726072Y-9129690D01*
X7726072Y-9129690D02*
X7697500Y-9129690D01*
X7697500Y-9129690D02*
X7678453Y-9139214D01*
X7678453Y-9139214D02*
X7668929Y-9148738D01*
X7878453Y-9263024D02*
X7859405Y-9253500D01*
X7859405Y-9253500D02*
X7849881Y-9243976D01*
X7849881Y-9243976D02*
X7840357Y-9224929D01*
X7840357Y-9224929D02*
X7840357Y-9167786D01*
X7840357Y-9167786D02*
X7849881Y-9148738D01*
X7849881Y-9148738D02*
X7859405Y-9139214D01*
X7859405Y-9139214D02*
X7878453Y-9129690D01*
X7878453Y-9129690D02*
X7907024Y-9129690D01*
X7907024Y-9129690D02*
X7926072Y-9139214D01*
X7926072Y-9139214D02*
X7935596Y-9148738D01*
X7935596Y-9148738D02*
X7945119Y-9167786D01*
X7945119Y-9167786D02*
X7945119Y-9224929D01*
X7945119Y-9224929D02*
X7935596Y-9243976D01*
X7935596Y-9243976D02*
X7926072Y-9253500D01*
X7926072Y-9253500D02*
X7907024Y-9263024D01*
X7907024Y-9263024D02*
X7878453Y-9263024D01*
X8059405Y-9263024D02*
X8040357Y-9253500D01*
X8040357Y-9253500D02*
X8030834Y-9234452D01*
X8030834Y-9234452D02*
X8030834Y-9063024D01*
X8211786Y-9253500D02*
X8192738Y-9263024D01*
X8192738Y-9263024D02*
X8154643Y-9263024D01*
X8154643Y-9263024D02*
X8135596Y-9253500D01*
X8135596Y-9253500D02*
X8126072Y-9234452D01*
X8126072Y-9234452D02*
X8126072Y-9158262D01*
X8126072Y-9158262D02*
X8135596Y-9139214D01*
X8135596Y-9139214D02*
X8154643Y-9129690D01*
X8154643Y-9129690D02*
X8192738Y-9129690D01*
X8192738Y-9129690D02*
X8211786Y-9139214D01*
X8211786Y-9139214D02*
X8221310Y-9158262D01*
X8221310Y-9158262D02*
X8221310Y-9177310D01*
X8221310Y-9177310D02*
X8126072Y-9196357D01*
X8297500Y-9253500D02*
X8316548Y-9263024D01*
X8316548Y-9263024D02*
X8354643Y-9263024D01*
X8354643Y-9263024D02*
X8373691Y-9253500D01*
X8373691Y-9253500D02*
X8383215Y-9234452D01*
X8383215Y-9234452D02*
X8383215Y-9224929D01*
X8383215Y-9224929D02*
X8373691Y-9205881D01*
X8373691Y-9205881D02*
X8354643Y-9196357D01*
X8354643Y-9196357D02*
X8326072Y-9196357D01*
X8326072Y-9196357D02*
X8307024Y-9186833D01*
X8307024Y-9186833D02*
X8297500Y-9167786D01*
X8297500Y-9167786D02*
X8297500Y-9158262D01*
X8297500Y-9158262D02*
X8307024Y-9139214D01*
X8307024Y-9139214D02*
X8326072Y-9129690D01*
X8326072Y-9129690D02*
X8354643Y-9129690D01*
X8354643Y-9129690D02*
X8373691Y-9139214D01*
X8449881Y-9339214D02*
X8459405Y-9329690D01*
X8459405Y-9329690D02*
X8478453Y-9301119D01*
X8478453Y-9301119D02*
X8487977Y-9282071D01*
X8487977Y-9282071D02*
X8497500Y-9253500D01*
X8497500Y-9253500D02*
X8507024Y-9205881D01*
X8507024Y-9205881D02*
X8507024Y-9167786D01*
X8507024Y-9167786D02*
X8497500Y-9120167D01*
X8497500Y-9120167D02*
X8487977Y-9091595D01*
X8487977Y-9091595D02*
X8478453Y-9072548D01*
X8478453Y-9072548D02*
X8459405Y-9043976D01*
X8459405Y-9043976D02*
X8449881Y-9034452D01*
D15*
X3482856Y-9469856D02*
X3482856Y-9399144D01*
X3412144Y-9399144D01*
X3412144Y-9469856D01*
X3482856Y-9469856D01*
D11*
X3849881Y-9527024D02*
X3735595Y-9527024D01*
X3792738Y-9527024D02*
X3792738Y-9327024D01*
X3792738Y-9327024D02*
X3773690Y-9355595D01*
X3773690Y-9355595D02*
X3754643Y-9374643D01*
X3754643Y-9374643D02*
X3735595Y-9384167D01*
X3935595Y-9507976D02*
X3945119Y-9517500D01*
X3945119Y-9517500D02*
X3935595Y-9527024D01*
X3935595Y-9527024D02*
X3926071Y-9517500D01*
X3926071Y-9517500D02*
X3935595Y-9507976D01*
X3935595Y-9507976D02*
X3935595Y-9527024D01*
X4068928Y-9327024D02*
X4087976Y-9327024D01*
X4087976Y-9327024D02*
X4107024Y-9336548D01*
X4107024Y-9336548D02*
X4116548Y-9346071D01*
X4116548Y-9346071D02*
X4126071Y-9365119D01*
X4126071Y-9365119D02*
X4135595Y-9403214D01*
X4135595Y-9403214D02*
X4135595Y-9450833D01*
X4135595Y-9450833D02*
X4126071Y-9488929D01*
X4126071Y-9488929D02*
X4116548Y-9507976D01*
X4116548Y-9507976D02*
X4107024Y-9517500D01*
X4107024Y-9517500D02*
X4087976Y-9527024D01*
X4087976Y-9527024D02*
X4068928Y-9527024D01*
X4068928Y-9527024D02*
X4049881Y-9517500D01*
X4049881Y-9517500D02*
X4040357Y-9507976D01*
X4040357Y-9507976D02*
X4030833Y-9488929D01*
X4030833Y-9488929D02*
X4021309Y-9450833D01*
X4021309Y-9450833D02*
X4021309Y-9403214D01*
X4021309Y-9403214D02*
X4030833Y-9365119D01*
X4030833Y-9365119D02*
X4040357Y-9346071D01*
X4040357Y-9346071D02*
X4049881Y-9336548D01*
X4049881Y-9336548D02*
X4068928Y-9327024D01*
X4259405Y-9327024D02*
X4278452Y-9327024D01*
X4278452Y-9327024D02*
X4297500Y-9336548D01*
X4297500Y-9336548D02*
X4307024Y-9346071D01*
X4307024Y-9346071D02*
X4316548Y-9365119D01*
X4316548Y-9365119D02*
X4326071Y-9403214D01*
X4326071Y-9403214D02*
X4326071Y-9450833D01*
X4326071Y-9450833D02*
X4316548Y-9488929D01*
X4316548Y-9488929D02*
X4307024Y-9507976D01*
X4307024Y-9507976D02*
X4297500Y-9517500D01*
X4297500Y-9517500D02*
X4278452Y-9527024D01*
X4278452Y-9527024D02*
X4259405Y-9527024D01*
X4259405Y-9527024D02*
X4240357Y-9517500D01*
X4240357Y-9517500D02*
X4230833Y-9507976D01*
X4230833Y-9507976D02*
X4221310Y-9488929D01*
X4221310Y-9488929D02*
X4211786Y-9450833D01*
X4211786Y-9450833D02*
X4211786Y-9403214D01*
X4211786Y-9403214D02*
X4221310Y-9365119D01*
X4221310Y-9365119D02*
X4230833Y-9346071D01*
X4230833Y-9346071D02*
X4240357Y-9336548D01*
X4240357Y-9336548D02*
X4259405Y-9327024D01*
X4449881Y-9327024D02*
X4468929Y-9327024D01*
X4468929Y-9327024D02*
X4487976Y-9336548D01*
X4487976Y-9336548D02*
X4497500Y-9346071D01*
X4497500Y-9346071D02*
X4507024Y-9365119D01*
X4507024Y-9365119D02*
X4516548Y-9403214D01*
X4516548Y-9403214D02*
X4516548Y-9450833D01*
X4516548Y-9450833D02*
X4507024Y-9488929D01*
X4507024Y-9488929D02*
X4497500Y-9507976D01*
X4497500Y-9507976D02*
X4487976Y-9517500D01*
X4487976Y-9517500D02*
X4468929Y-9527024D01*
X4468929Y-9527024D02*
X4449881Y-9527024D01*
X4449881Y-9527024D02*
X4430833Y-9517500D01*
X4430833Y-9517500D02*
X4421310Y-9507976D01*
X4421310Y-9507976D02*
X4411786Y-9488929D01*
X4411786Y-9488929D02*
X4402262Y-9450833D01*
X4402262Y-9450833D02*
X4402262Y-9403214D01*
X4402262Y-9403214D02*
X4411786Y-9365119D01*
X4411786Y-9365119D02*
X4421310Y-9346071D01*
X4421310Y-9346071D02*
X4430833Y-9336548D01*
X4430833Y-9336548D02*
X4449881Y-9327024D01*
X4602262Y-9527024D02*
X4602262Y-9393690D01*
X4602262Y-9412738D02*
X4611786Y-9403214D01*
X4611786Y-9403214D02*
X4630833Y-9393690D01*
X4630833Y-9393690D02*
X4659405Y-9393690D01*
X4659405Y-9393690D02*
X4678452Y-9403214D01*
X4678452Y-9403214D02*
X4687976Y-9422262D01*
X4687976Y-9422262D02*
X4687976Y-9527024D01*
X4687976Y-9422262D02*
X4697500Y-9403214D01*
X4697500Y-9403214D02*
X4716548Y-9393690D01*
X4716548Y-9393690D02*
X4745119Y-9393690D01*
X4745119Y-9393690D02*
X4764167Y-9403214D01*
X4764167Y-9403214D02*
X4773691Y-9422262D01*
X4773691Y-9422262D02*
X4773691Y-9527024D01*
X4868929Y-9527024D02*
X4868929Y-9393690D01*
X4868929Y-9412738D02*
X4878452Y-9403214D01*
X4878452Y-9403214D02*
X4897500Y-9393690D01*
X4897500Y-9393690D02*
X4926072Y-9393690D01*
X4926072Y-9393690D02*
X4945119Y-9403214D01*
X4945119Y-9403214D02*
X4954643Y-9422262D01*
X4954643Y-9422262D02*
X4954643Y-9527024D01*
X4954643Y-9422262D02*
X4964167Y-9403214D01*
X4964167Y-9403214D02*
X4983214Y-9393690D01*
X4983214Y-9393690D02*
X5011786Y-9393690D01*
X5011786Y-9393690D02*
X5030833Y-9403214D01*
X5030833Y-9403214D02*
X5040357Y-9422262D01*
X5040357Y-9422262D02*
X5040357Y-9527024D01*
X5430833Y-9317500D02*
X5259405Y-9574643D01*
X5687976Y-9327024D02*
X5707024Y-9327024D01*
X5707024Y-9327024D02*
X5726072Y-9336548D01*
X5726072Y-9336548D02*
X5735595Y-9346071D01*
X5735595Y-9346071D02*
X5745119Y-9365119D01*
X5745119Y-9365119D02*
X5754643Y-9403214D01*
X5754643Y-9403214D02*
X5754643Y-9450833D01*
X5754643Y-9450833D02*
X5745119Y-9488929D01*
X5745119Y-9488929D02*
X5735595Y-9507976D01*
X5735595Y-9507976D02*
X5726072Y-9517500D01*
X5726072Y-9517500D02*
X5707024Y-9527024D01*
X5707024Y-9527024D02*
X5687976Y-9527024D01*
X5687976Y-9527024D02*
X5668929Y-9517500D01*
X5668929Y-9517500D02*
X5659405Y-9507976D01*
X5659405Y-9507976D02*
X5649881Y-9488929D01*
X5649881Y-9488929D02*
X5640357Y-9450833D01*
X5640357Y-9450833D02*
X5640357Y-9403214D01*
X5640357Y-9403214D02*
X5649881Y-9365119D01*
X5649881Y-9365119D02*
X5659405Y-9346071D01*
X5659405Y-9346071D02*
X5668929Y-9336548D01*
X5668929Y-9336548D02*
X5687976Y-9327024D01*
X5840357Y-9507976D02*
X5849881Y-9517500D01*
X5849881Y-9517500D02*
X5840357Y-9527024D01*
X5840357Y-9527024D02*
X5830833Y-9517500D01*
X5830833Y-9517500D02*
X5840357Y-9507976D01*
X5840357Y-9507976D02*
X5840357Y-9527024D01*
X5973691Y-9327024D02*
X5992738Y-9327024D01*
X5992738Y-9327024D02*
X6011786Y-9336548D01*
X6011786Y-9336548D02*
X6021310Y-9346071D01*
X6021310Y-9346071D02*
X6030833Y-9365119D01*
X6030833Y-9365119D02*
X6040357Y-9403214D01*
X6040357Y-9403214D02*
X6040357Y-9450833D01*
X6040357Y-9450833D02*
X6030833Y-9488929D01*
X6030833Y-9488929D02*
X6021310Y-9507976D01*
X6021310Y-9507976D02*
X6011786Y-9517500D01*
X6011786Y-9517500D02*
X5992738Y-9527024D01*
X5992738Y-9527024D02*
X5973691Y-9527024D01*
X5973691Y-9527024D02*
X5954643Y-9517500D01*
X5954643Y-9517500D02*
X5945119Y-9507976D01*
X5945119Y-9507976D02*
X5935595Y-9488929D01*
X5935595Y-9488929D02*
X5926072Y-9450833D01*
X5926072Y-9450833D02*
X5926072Y-9403214D01*
X5926072Y-9403214D02*
X5935595Y-9365119D01*
X5935595Y-9365119D02*
X5945119Y-9346071D01*
X5945119Y-9346071D02*
X5954643Y-9336548D01*
X5954643Y-9336548D02*
X5973691Y-9327024D01*
X6107024Y-9327024D02*
X6230833Y-9327024D01*
X6230833Y-9327024D02*
X6164167Y-9403214D01*
X6164167Y-9403214D02*
X6192738Y-9403214D01*
X6192738Y-9403214D02*
X6211786Y-9412738D01*
X6211786Y-9412738D02*
X6221310Y-9422262D01*
X6221310Y-9422262D02*
X6230833Y-9441310D01*
X6230833Y-9441310D02*
X6230833Y-9488929D01*
X6230833Y-9488929D02*
X6221310Y-9507976D01*
X6221310Y-9507976D02*
X6211786Y-9517500D01*
X6211786Y-9517500D02*
X6192738Y-9527024D01*
X6192738Y-9527024D02*
X6135595Y-9527024D01*
X6135595Y-9527024D02*
X6116548Y-9517500D01*
X6116548Y-9517500D02*
X6107024Y-9507976D01*
X6326072Y-9527024D02*
X6364167Y-9527024D01*
X6364167Y-9527024D02*
X6383214Y-9517500D01*
X6383214Y-9517500D02*
X6392738Y-9507976D01*
X6392738Y-9507976D02*
X6411786Y-9479405D01*
X6411786Y-9479405D02*
X6421310Y-9441310D01*
X6421310Y-9441310D02*
X6421310Y-9365119D01*
X6421310Y-9365119D02*
X6411786Y-9346071D01*
X6411786Y-9346071D02*
X6402262Y-9336548D01*
X6402262Y-9336548D02*
X6383214Y-9327024D01*
X6383214Y-9327024D02*
X6345119Y-9327024D01*
X6345119Y-9327024D02*
X6326072Y-9336548D01*
X6326072Y-9336548D02*
X6316548Y-9346071D01*
X6316548Y-9346071D02*
X6307024Y-9365119D01*
X6307024Y-9365119D02*
X6307024Y-9412738D01*
X6307024Y-9412738D02*
X6316548Y-9431786D01*
X6316548Y-9431786D02*
X6326072Y-9441310D01*
X6326072Y-9441310D02*
X6345119Y-9450833D01*
X6345119Y-9450833D02*
X6383214Y-9450833D01*
X6383214Y-9450833D02*
X6402262Y-9441310D01*
X6402262Y-9441310D02*
X6411786Y-9431786D01*
X6411786Y-9431786D02*
X6421310Y-9412738D01*
X6592738Y-9393690D02*
X6592738Y-9527024D01*
X6545119Y-9317500D02*
X6497500Y-9460357D01*
X6497500Y-9460357D02*
X6621310Y-9460357D01*
X6687976Y-9327024D02*
X6687976Y-9365119D01*
X6764167Y-9327024D02*
X6764167Y-9365119D01*
X7059405Y-9603214D02*
X7049881Y-9593690D01*
X7049881Y-9593690D02*
X7030834Y-9565119D01*
X7030834Y-9565119D02*
X7021310Y-9546071D01*
X7021310Y-9546071D02*
X7011786Y-9517500D01*
X7011786Y-9517500D02*
X7002262Y-9469881D01*
X7002262Y-9469881D02*
X7002262Y-9431786D01*
X7002262Y-9431786D02*
X7011786Y-9384167D01*
X7011786Y-9384167D02*
X7021310Y-9355595D01*
X7021310Y-9355595D02*
X7030834Y-9336548D01*
X7030834Y-9336548D02*
X7049881Y-9307976D01*
X7049881Y-9307976D02*
X7059405Y-9298452D01*
X7221310Y-9327024D02*
X7183214Y-9327024D01*
X7183214Y-9327024D02*
X7164167Y-9336548D01*
X7164167Y-9336548D02*
X7154643Y-9346071D01*
X7154643Y-9346071D02*
X7135595Y-9374643D01*
X7135595Y-9374643D02*
X7126072Y-9412738D01*
X7126072Y-9412738D02*
X7126072Y-9488929D01*
X7126072Y-9488929D02*
X7135595Y-9507976D01*
X7135595Y-9507976D02*
X7145119Y-9517500D01*
X7145119Y-9517500D02*
X7164167Y-9527024D01*
X7164167Y-9527024D02*
X7202262Y-9527024D01*
X7202262Y-9527024D02*
X7221310Y-9517500D01*
X7221310Y-9517500D02*
X7230834Y-9507976D01*
X7230834Y-9507976D02*
X7240357Y-9488929D01*
X7240357Y-9488929D02*
X7240357Y-9441310D01*
X7240357Y-9441310D02*
X7230834Y-9422262D01*
X7230834Y-9422262D02*
X7221310Y-9412738D01*
X7221310Y-9412738D02*
X7202262Y-9403214D01*
X7202262Y-9403214D02*
X7164167Y-9403214D01*
X7164167Y-9403214D02*
X7145119Y-9412738D01*
X7145119Y-9412738D02*
X7135595Y-9422262D01*
X7135595Y-9422262D02*
X7126072Y-9441310D01*
X7478453Y-9527024D02*
X7478453Y-9327024D01*
X7564167Y-9527024D02*
X7564167Y-9422262D01*
X7564167Y-9422262D02*
X7554643Y-9403214D01*
X7554643Y-9403214D02*
X7535596Y-9393690D01*
X7535596Y-9393690D02*
X7507024Y-9393690D01*
X7507024Y-9393690D02*
X7487976Y-9403214D01*
X7487976Y-9403214D02*
X7478453Y-9412738D01*
X7687976Y-9527024D02*
X7668929Y-9517500D01*
X7668929Y-9517500D02*
X7659405Y-9507976D01*
X7659405Y-9507976D02*
X7649881Y-9488929D01*
X7649881Y-9488929D02*
X7649881Y-9431786D01*
X7649881Y-9431786D02*
X7659405Y-9412738D01*
X7659405Y-9412738D02*
X7668929Y-9403214D01*
X7668929Y-9403214D02*
X7687976Y-9393690D01*
X7687976Y-9393690D02*
X7716548Y-9393690D01*
X7716548Y-9393690D02*
X7735596Y-9403214D01*
X7735596Y-9403214D02*
X7745119Y-9412738D01*
X7745119Y-9412738D02*
X7754643Y-9431786D01*
X7754643Y-9431786D02*
X7754643Y-9488929D01*
X7754643Y-9488929D02*
X7745119Y-9507976D01*
X7745119Y-9507976D02*
X7735596Y-9517500D01*
X7735596Y-9517500D02*
X7716548Y-9527024D01*
X7716548Y-9527024D02*
X7687976Y-9527024D01*
X7868929Y-9527024D02*
X7849881Y-9517500D01*
X7849881Y-9517500D02*
X7840357Y-9498452D01*
X7840357Y-9498452D02*
X7840357Y-9327024D01*
X8021310Y-9517500D02*
X8002262Y-9527024D01*
X8002262Y-9527024D02*
X7964167Y-9527024D01*
X7964167Y-9527024D02*
X7945119Y-9517500D01*
X7945119Y-9517500D02*
X7935596Y-9498452D01*
X7935596Y-9498452D02*
X7935596Y-9422262D01*
X7935596Y-9422262D02*
X7945119Y-9403214D01*
X7945119Y-9403214D02*
X7964167Y-9393690D01*
X7964167Y-9393690D02*
X8002262Y-9393690D01*
X8002262Y-9393690D02*
X8021310Y-9403214D01*
X8021310Y-9403214D02*
X8030834Y-9422262D01*
X8030834Y-9422262D02*
X8030834Y-9441310D01*
X8030834Y-9441310D02*
X7935596Y-9460357D01*
X8107024Y-9517500D02*
X8126072Y-9527024D01*
X8126072Y-9527024D02*
X8164167Y-9527024D01*
X8164167Y-9527024D02*
X8183215Y-9517500D01*
X8183215Y-9517500D02*
X8192738Y-9498452D01*
X8192738Y-9498452D02*
X8192738Y-9488929D01*
X8192738Y-9488929D02*
X8183215Y-9469881D01*
X8183215Y-9469881D02*
X8164167Y-9460357D01*
X8164167Y-9460357D02*
X8135596Y-9460357D01*
X8135596Y-9460357D02*
X8116548Y-9450833D01*
X8116548Y-9450833D02*
X8107024Y-9431786D01*
X8107024Y-9431786D02*
X8107024Y-9422262D01*
X8107024Y-9422262D02*
X8116548Y-9403214D01*
X8116548Y-9403214D02*
X8135596Y-9393690D01*
X8135596Y-9393690D02*
X8164167Y-9393690D01*
X8164167Y-9393690D02*
X8183215Y-9403214D01*
X8259405Y-9603214D02*
X8268929Y-9593690D01*
X8268929Y-9593690D02*
X8287977Y-9565119D01*
X8287977Y-9565119D02*
X8297500Y-9546071D01*
X8297500Y-9546071D02*
X8307024Y-9517500D01*
X8307024Y-9517500D02*
X8316548Y-9469881D01*
X8316548Y-9469881D02*
X8316548Y-9431786D01*
X8316548Y-9431786D02*
X8307024Y-9384167D01*
X8307024Y-9384167D02*
X8297500Y-9355595D01*
X8297500Y-9355595D02*
X8287977Y-9336548D01*
X8287977Y-9336548D02*
X8268929Y-9307976D01*
X8268929Y-9307976D02*
X8259405Y-9298452D01*
X3397500Y-9798500D02*
X3497500Y-9698500D01*
X3397500Y-9598500D01*
X3297500Y-9698500D01*
X3397500Y-9798500D01*
X3735595Y-9610071D02*
X3745119Y-9600548D01*
X3745119Y-9600548D02*
X3764167Y-9591024D01*
X3764167Y-9591024D02*
X3811786Y-9591024D01*
X3811786Y-9591024D02*
X3830833Y-9600548D01*
X3830833Y-9600548D02*
X3840357Y-9610071D01*
X3840357Y-9610071D02*
X3849881Y-9629119D01*
X3849881Y-9629119D02*
X3849881Y-9648167D01*
X3849881Y-9648167D02*
X3840357Y-9676738D01*
X3840357Y-9676738D02*
X3726071Y-9791024D01*
X3726071Y-9791024D02*
X3849881Y-9791024D01*
X3935595Y-9771976D02*
X3945119Y-9781500D01*
X3945119Y-9781500D02*
X3935595Y-9791024D01*
X3935595Y-9791024D02*
X3926071Y-9781500D01*
X3926071Y-9781500D02*
X3935595Y-9771976D01*
X3935595Y-9771976D02*
X3935595Y-9791024D01*
X4021309Y-9610071D02*
X4030833Y-9600548D01*
X4030833Y-9600548D02*
X4049881Y-9591024D01*
X4049881Y-9591024D02*
X4097500Y-9591024D01*
X4097500Y-9591024D02*
X4116548Y-9600548D01*
X4116548Y-9600548D02*
X4126071Y-9610071D01*
X4126071Y-9610071D02*
X4135595Y-9629119D01*
X4135595Y-9629119D02*
X4135595Y-9648167D01*
X4135595Y-9648167D02*
X4126071Y-9676738D01*
X4126071Y-9676738D02*
X4011786Y-9791024D01*
X4011786Y-9791024D02*
X4135595Y-9791024D01*
X4259405Y-9591024D02*
X4278452Y-9591024D01*
X4278452Y-9591024D02*
X4297500Y-9600548D01*
X4297500Y-9600548D02*
X4307024Y-9610071D01*
X4307024Y-9610071D02*
X4316548Y-9629119D01*
X4316548Y-9629119D02*
X4326071Y-9667214D01*
X4326071Y-9667214D02*
X4326071Y-9714833D01*
X4326071Y-9714833D02*
X4316548Y-9752929D01*
X4316548Y-9752929D02*
X4307024Y-9771976D01*
X4307024Y-9771976D02*
X4297500Y-9781500D01*
X4297500Y-9781500D02*
X4278452Y-9791024D01*
X4278452Y-9791024D02*
X4259405Y-9791024D01*
X4259405Y-9791024D02*
X4240357Y-9781500D01*
X4240357Y-9781500D02*
X4230833Y-9771976D01*
X4230833Y-9771976D02*
X4221310Y-9752929D01*
X4221310Y-9752929D02*
X4211786Y-9714833D01*
X4211786Y-9714833D02*
X4211786Y-9667214D01*
X4211786Y-9667214D02*
X4221310Y-9629119D01*
X4221310Y-9629119D02*
X4230833Y-9610071D01*
X4230833Y-9610071D02*
X4240357Y-9600548D01*
X4240357Y-9600548D02*
X4259405Y-9591024D01*
X4449881Y-9591024D02*
X4468929Y-9591024D01*
X4468929Y-9591024D02*
X4487976Y-9600548D01*
X4487976Y-9600548D02*
X4497500Y-9610071D01*
X4497500Y-9610071D02*
X4507024Y-9629119D01*
X4507024Y-9629119D02*
X4516548Y-9667214D01*
X4516548Y-9667214D02*
X4516548Y-9714833D01*
X4516548Y-9714833D02*
X4507024Y-9752929D01*
X4507024Y-9752929D02*
X4497500Y-9771976D01*
X4497500Y-9771976D02*
X4487976Y-9781500D01*
X4487976Y-9781500D02*
X4468929Y-9791024D01*
X4468929Y-9791024D02*
X4449881Y-9791024D01*
X4449881Y-9791024D02*
X4430833Y-9781500D01*
X4430833Y-9781500D02*
X4421310Y-9771976D01*
X4421310Y-9771976D02*
X4411786Y-9752929D01*
X4411786Y-9752929D02*
X4402262Y-9714833D01*
X4402262Y-9714833D02*
X4402262Y-9667214D01*
X4402262Y-9667214D02*
X4411786Y-9629119D01*
X4411786Y-9629119D02*
X4421310Y-9610071D01*
X4421310Y-9610071D02*
X4430833Y-9600548D01*
X4430833Y-9600548D02*
X4449881Y-9591024D01*
X4602262Y-9791024D02*
X4602262Y-9657690D01*
X4602262Y-9676738D02*
X4611786Y-9667214D01*
X4611786Y-9667214D02*
X4630833Y-9657690D01*
X4630833Y-9657690D02*
X4659405Y-9657690D01*
X4659405Y-9657690D02*
X4678452Y-9667214D01*
X4678452Y-9667214D02*
X4687976Y-9686262D01*
X4687976Y-9686262D02*
X4687976Y-9791024D01*
X4687976Y-9686262D02*
X4697500Y-9667214D01*
X4697500Y-9667214D02*
X4716548Y-9657690D01*
X4716548Y-9657690D02*
X4745119Y-9657690D01*
X4745119Y-9657690D02*
X4764167Y-9667214D01*
X4764167Y-9667214D02*
X4773691Y-9686262D01*
X4773691Y-9686262D02*
X4773691Y-9791024D01*
X4868929Y-9791024D02*
X4868929Y-9657690D01*
X4868929Y-9676738D02*
X4878452Y-9667214D01*
X4878452Y-9667214D02*
X4897500Y-9657690D01*
X4897500Y-9657690D02*
X4926072Y-9657690D01*
X4926072Y-9657690D02*
X4945119Y-9667214D01*
X4945119Y-9667214D02*
X4954643Y-9686262D01*
X4954643Y-9686262D02*
X4954643Y-9791024D01*
X4954643Y-9686262D02*
X4964167Y-9667214D01*
X4964167Y-9667214D02*
X4983214Y-9657690D01*
X4983214Y-9657690D02*
X5011786Y-9657690D01*
X5011786Y-9657690D02*
X5030833Y-9667214D01*
X5030833Y-9667214D02*
X5040357Y-9686262D01*
X5040357Y-9686262D02*
X5040357Y-9791024D01*
X5430833Y-9581500D02*
X5259405Y-9838643D01*
X5687976Y-9591024D02*
X5707024Y-9591024D01*
X5707024Y-9591024D02*
X5726072Y-9600548D01*
X5726072Y-9600548D02*
X5735595Y-9610071D01*
X5735595Y-9610071D02*
X5745119Y-9629119D01*
X5745119Y-9629119D02*
X5754643Y-9667214D01*
X5754643Y-9667214D02*
X5754643Y-9714833D01*
X5754643Y-9714833D02*
X5745119Y-9752929D01*
X5745119Y-9752929D02*
X5735595Y-9771976D01*
X5735595Y-9771976D02*
X5726072Y-9781500D01*
X5726072Y-9781500D02*
X5707024Y-9791024D01*
X5707024Y-9791024D02*
X5687976Y-9791024D01*
X5687976Y-9791024D02*
X5668929Y-9781500D01*
X5668929Y-9781500D02*
X5659405Y-9771976D01*
X5659405Y-9771976D02*
X5649881Y-9752929D01*
X5649881Y-9752929D02*
X5640357Y-9714833D01*
X5640357Y-9714833D02*
X5640357Y-9667214D01*
X5640357Y-9667214D02*
X5649881Y-9629119D01*
X5649881Y-9629119D02*
X5659405Y-9610071D01*
X5659405Y-9610071D02*
X5668929Y-9600548D01*
X5668929Y-9600548D02*
X5687976Y-9591024D01*
X5840357Y-9771976D02*
X5849881Y-9781500D01*
X5849881Y-9781500D02*
X5840357Y-9791024D01*
X5840357Y-9791024D02*
X5830833Y-9781500D01*
X5830833Y-9781500D02*
X5840357Y-9771976D01*
X5840357Y-9771976D02*
X5840357Y-9791024D01*
X5973691Y-9591024D02*
X5992738Y-9591024D01*
X5992738Y-9591024D02*
X6011786Y-9600548D01*
X6011786Y-9600548D02*
X6021310Y-9610071D01*
X6021310Y-9610071D02*
X6030833Y-9629119D01*
X6030833Y-9629119D02*
X6040357Y-9667214D01*
X6040357Y-9667214D02*
X6040357Y-9714833D01*
X6040357Y-9714833D02*
X6030833Y-9752929D01*
X6030833Y-9752929D02*
X6021310Y-9771976D01*
X6021310Y-9771976D02*
X6011786Y-9781500D01*
X6011786Y-9781500D02*
X5992738Y-9791024D01*
X5992738Y-9791024D02*
X5973691Y-9791024D01*
X5973691Y-9791024D02*
X5954643Y-9781500D01*
X5954643Y-9781500D02*
X5945119Y-9771976D01*
X5945119Y-9771976D02*
X5935595Y-9752929D01*
X5935595Y-9752929D02*
X5926072Y-9714833D01*
X5926072Y-9714833D02*
X5926072Y-9667214D01*
X5926072Y-9667214D02*
X5935595Y-9629119D01*
X5935595Y-9629119D02*
X5945119Y-9610071D01*
X5945119Y-9610071D02*
X5954643Y-9600548D01*
X5954643Y-9600548D02*
X5973691Y-9591024D01*
X6154643Y-9676738D02*
X6135595Y-9667214D01*
X6135595Y-9667214D02*
X6126072Y-9657690D01*
X6126072Y-9657690D02*
X6116548Y-9638643D01*
X6116548Y-9638643D02*
X6116548Y-9629119D01*
X6116548Y-9629119D02*
X6126072Y-9610071D01*
X6126072Y-9610071D02*
X6135595Y-9600548D01*
X6135595Y-9600548D02*
X6154643Y-9591024D01*
X6154643Y-9591024D02*
X6192738Y-9591024D01*
X6192738Y-9591024D02*
X6211786Y-9600548D01*
X6211786Y-9600548D02*
X6221310Y-9610071D01*
X6221310Y-9610071D02*
X6230833Y-9629119D01*
X6230833Y-9629119D02*
X6230833Y-9638643D01*
X6230833Y-9638643D02*
X6221310Y-9657690D01*
X6221310Y-9657690D02*
X6211786Y-9667214D01*
X6211786Y-9667214D02*
X6192738Y-9676738D01*
X6192738Y-9676738D02*
X6154643Y-9676738D01*
X6154643Y-9676738D02*
X6135595Y-9686262D01*
X6135595Y-9686262D02*
X6126072Y-9695786D01*
X6126072Y-9695786D02*
X6116548Y-9714833D01*
X6116548Y-9714833D02*
X6116548Y-9752929D01*
X6116548Y-9752929D02*
X6126072Y-9771976D01*
X6126072Y-9771976D02*
X6135595Y-9781500D01*
X6135595Y-9781500D02*
X6154643Y-9791024D01*
X6154643Y-9791024D02*
X6192738Y-9791024D01*
X6192738Y-9791024D02*
X6211786Y-9781500D01*
X6211786Y-9781500D02*
X6221310Y-9771976D01*
X6221310Y-9771976D02*
X6230833Y-9752929D01*
X6230833Y-9752929D02*
X6230833Y-9714833D01*
X6230833Y-9714833D02*
X6221310Y-9695786D01*
X6221310Y-9695786D02*
X6211786Y-9686262D01*
X6211786Y-9686262D02*
X6192738Y-9676738D01*
X6402262Y-9591024D02*
X6364167Y-9591024D01*
X6364167Y-9591024D02*
X6345119Y-9600548D01*
X6345119Y-9600548D02*
X6335595Y-9610071D01*
X6335595Y-9610071D02*
X6316548Y-9638643D01*
X6316548Y-9638643D02*
X6307024Y-9676738D01*
X6307024Y-9676738D02*
X6307024Y-9752929D01*
X6307024Y-9752929D02*
X6316548Y-9771976D01*
X6316548Y-9771976D02*
X6326072Y-9781500D01*
X6326072Y-9781500D02*
X6345119Y-9791024D01*
X6345119Y-9791024D02*
X6383214Y-9791024D01*
X6383214Y-9791024D02*
X6402262Y-9781500D01*
X6402262Y-9781500D02*
X6411786Y-9771976D01*
X6411786Y-9771976D02*
X6421310Y-9752929D01*
X6421310Y-9752929D02*
X6421310Y-9705310D01*
X6421310Y-9705310D02*
X6411786Y-9686262D01*
X6411786Y-9686262D02*
X6402262Y-9676738D01*
X6402262Y-9676738D02*
X6383214Y-9667214D01*
X6383214Y-9667214D02*
X6345119Y-9667214D01*
X6345119Y-9667214D02*
X6326072Y-9676738D01*
X6326072Y-9676738D02*
X6316548Y-9686262D01*
X6316548Y-9686262D02*
X6307024Y-9705310D01*
X6592738Y-9591024D02*
X6554643Y-9591024D01*
X6554643Y-9591024D02*
X6535595Y-9600548D01*
X6535595Y-9600548D02*
X6526072Y-9610071D01*
X6526072Y-9610071D02*
X6507024Y-9638643D01*
X6507024Y-9638643D02*
X6497500Y-9676738D01*
X6497500Y-9676738D02*
X6497500Y-9752929D01*
X6497500Y-9752929D02*
X6507024Y-9771976D01*
X6507024Y-9771976D02*
X6516548Y-9781500D01*
X6516548Y-9781500D02*
X6535595Y-9791024D01*
X6535595Y-9791024D02*
X6573691Y-9791024D01*
X6573691Y-9791024D02*
X6592738Y-9781500D01*
X6592738Y-9781500D02*
X6602262Y-9771976D01*
X6602262Y-9771976D02*
X6611786Y-9752929D01*
X6611786Y-9752929D02*
X6611786Y-9705310D01*
X6611786Y-9705310D02*
X6602262Y-9686262D01*
X6602262Y-9686262D02*
X6592738Y-9676738D01*
X6592738Y-9676738D02*
X6573691Y-9667214D01*
X6573691Y-9667214D02*
X6535595Y-9667214D01*
X6535595Y-9667214D02*
X6516548Y-9676738D01*
X6516548Y-9676738D02*
X6507024Y-9686262D01*
X6507024Y-9686262D02*
X6497500Y-9705310D01*
X6687976Y-9591024D02*
X6687976Y-9629119D01*
X6764167Y-9591024D02*
X6764167Y-9629119D01*
X7059405Y-9867214D02*
X7049881Y-9857690D01*
X7049881Y-9857690D02*
X7030834Y-9829119D01*
X7030834Y-9829119D02*
X7021310Y-9810071D01*
X7021310Y-9810071D02*
X7011786Y-9781500D01*
X7011786Y-9781500D02*
X7002262Y-9733881D01*
X7002262Y-9733881D02*
X7002262Y-9695786D01*
X7002262Y-9695786D02*
X7011786Y-9648167D01*
X7011786Y-9648167D02*
X7021310Y-9619595D01*
X7021310Y-9619595D02*
X7030834Y-9600548D01*
X7030834Y-9600548D02*
X7049881Y-9571976D01*
X7049881Y-9571976D02*
X7059405Y-9562452D01*
X7240357Y-9791024D02*
X7126072Y-9791024D01*
X7183214Y-9791024D02*
X7183214Y-9591024D01*
X7183214Y-9591024D02*
X7164167Y-9619595D01*
X7164167Y-9619595D02*
X7145119Y-9638643D01*
X7145119Y-9638643D02*
X7126072Y-9648167D01*
X7364167Y-9591024D02*
X7383215Y-9591024D01*
X7383215Y-9591024D02*
X7402262Y-9600548D01*
X7402262Y-9600548D02*
X7411786Y-9610071D01*
X7411786Y-9610071D02*
X7421310Y-9629119D01*
X7421310Y-9629119D02*
X7430834Y-9667214D01*
X7430834Y-9667214D02*
X7430834Y-9714833D01*
X7430834Y-9714833D02*
X7421310Y-9752929D01*
X7421310Y-9752929D02*
X7411786Y-9771976D01*
X7411786Y-9771976D02*
X7402262Y-9781500D01*
X7402262Y-9781500D02*
X7383215Y-9791024D01*
X7383215Y-9791024D02*
X7364167Y-9791024D01*
X7364167Y-9791024D02*
X7345119Y-9781500D01*
X7345119Y-9781500D02*
X7335595Y-9771976D01*
X7335595Y-9771976D02*
X7326072Y-9752929D01*
X7326072Y-9752929D02*
X7316548Y-9714833D01*
X7316548Y-9714833D02*
X7316548Y-9667214D01*
X7316548Y-9667214D02*
X7326072Y-9629119D01*
X7326072Y-9629119D02*
X7335595Y-9610071D01*
X7335595Y-9610071D02*
X7345119Y-9600548D01*
X7345119Y-9600548D02*
X7364167Y-9591024D01*
X7668929Y-9791024D02*
X7668929Y-9591024D01*
X7754643Y-9791024D02*
X7754643Y-9686262D01*
X7754643Y-9686262D02*
X7745119Y-9667214D01*
X7745119Y-9667214D02*
X7726072Y-9657690D01*
X7726072Y-9657690D02*
X7697500Y-9657690D01*
X7697500Y-9657690D02*
X7678453Y-9667214D01*
X7678453Y-9667214D02*
X7668929Y-9676738D01*
X7878453Y-9791024D02*
X7859405Y-9781500D01*
X7859405Y-9781500D02*
X7849881Y-9771976D01*
X7849881Y-9771976D02*
X7840357Y-9752929D01*
X7840357Y-9752929D02*
X7840357Y-9695786D01*
X7840357Y-9695786D02*
X7849881Y-9676738D01*
X7849881Y-9676738D02*
X7859405Y-9667214D01*
X7859405Y-9667214D02*
X7878453Y-9657690D01*
X7878453Y-9657690D02*
X7907024Y-9657690D01*
X7907024Y-9657690D02*
X7926072Y-9667214D01*
X7926072Y-9667214D02*
X7935596Y-9676738D01*
X7935596Y-9676738D02*
X7945119Y-9695786D01*
X7945119Y-9695786D02*
X7945119Y-9752929D01*
X7945119Y-9752929D02*
X7935596Y-9771976D01*
X7935596Y-9771976D02*
X7926072Y-9781500D01*
X7926072Y-9781500D02*
X7907024Y-9791024D01*
X7907024Y-9791024D02*
X7878453Y-9791024D01*
X8059405Y-9791024D02*
X8040357Y-9781500D01*
X8040357Y-9781500D02*
X8030834Y-9762452D01*
X8030834Y-9762452D02*
X8030834Y-9591024D01*
X8211786Y-9781500D02*
X8192738Y-9791024D01*
X8192738Y-9791024D02*
X8154643Y-9791024D01*
X8154643Y-9791024D02*
X8135596Y-9781500D01*
X8135596Y-9781500D02*
X8126072Y-9762452D01*
X8126072Y-9762452D02*
X8126072Y-9686262D01*
X8126072Y-9686262D02*
X8135596Y-9667214D01*
X8135596Y-9667214D02*
X8154643Y-9657690D01*
X8154643Y-9657690D02*
X8192738Y-9657690D01*
X8192738Y-9657690D02*
X8211786Y-9667214D01*
X8211786Y-9667214D02*
X8221310Y-9686262D01*
X8221310Y-9686262D02*
X8221310Y-9705310D01*
X8221310Y-9705310D02*
X8126072Y-9724357D01*
X8297500Y-9781500D02*
X8316548Y-9791024D01*
X8316548Y-9791024D02*
X8354643Y-9791024D01*
X8354643Y-9791024D02*
X8373691Y-9781500D01*
X8373691Y-9781500D02*
X8383215Y-9762452D01*
X8383215Y-9762452D02*
X8383215Y-9752929D01*
X8383215Y-9752929D02*
X8373691Y-9733881D01*
X8373691Y-9733881D02*
X8354643Y-9724357D01*
X8354643Y-9724357D02*
X8326072Y-9724357D01*
X8326072Y-9724357D02*
X8307024Y-9714833D01*
X8307024Y-9714833D02*
X8297500Y-9695786D01*
X8297500Y-9695786D02*
X8297500Y-9686262D01*
X8297500Y-9686262D02*
X8307024Y-9667214D01*
X8307024Y-9667214D02*
X8326072Y-9657690D01*
X8326072Y-9657690D02*
X8354643Y-9657690D01*
X8354643Y-9657690D02*
X8373691Y-9667214D01*
X8449881Y-9867214D02*
X8459405Y-9857690D01*
X8459405Y-9857690D02*
X8478453Y-9829119D01*
X8478453Y-9829119D02*
X8487977Y-9810071D01*
X8487977Y-9810071D02*
X8497500Y-9781500D01*
X8497500Y-9781500D02*
X8507024Y-9733881D01*
X8507024Y-9733881D02*
X8507024Y-9695786D01*
X8507024Y-9695786D02*
X8497500Y-9648167D01*
X8497500Y-9648167D02*
X8487977Y-9619595D01*
X8487977Y-9619595D02*
X8478453Y-9600548D01*
X8478453Y-9600548D02*
X8459405Y-9571976D01*
X8459405Y-9571976D02*
X8449881Y-9562452D01*
M02*
