%TF.GenerationSoftware,KiCad,Pcbnew,5.1.10*%
%TF.CreationDate,2021-07-17T21:41:45+02:00*%
%TF.ProjectId,tht-dip,7468742d-6469-4702-9e6b-696361645f70,rev?*%
%TF.SameCoordinates,Original*%
%TF.FileFunction,Other,User*%
%FSLAX46Y46*%
G04 Gerber Fmt 4.6, Leading zero omitted, Abs format (unit mm)*
G04 Created by KiCad (PCBNEW 5.1.10) date 2021-07-17 21:41:45*
%MOMM*%
%LPD*%
G01*
G04 APERTURE LIST*
%ADD10C,0.050000*%
G04 APERTURE END LIST*
D10*
%TO.C,C2*%
X103750000Y-68000000D02*
X98250000Y-68000000D01*
X103750000Y-71000000D02*
X103750000Y-68000000D01*
X98250000Y-71000000D02*
X103750000Y-71000000D01*
X98250000Y-68000000D02*
X98250000Y-71000000D01*
%TO.C,C4*%
X113000000Y-38500000D02*
X116000000Y-38500000D01*
X116000000Y-38500000D02*
X116000000Y-33000000D01*
X116000000Y-33000000D02*
X113000000Y-33000000D01*
X113000000Y-33000000D02*
X113000000Y-38500000D01*
%TO.C,C5*%
X113250000Y-71000000D02*
X113250000Y-76500000D01*
X116250000Y-71000000D02*
X113250000Y-71000000D01*
X116250000Y-76500000D02*
X116250000Y-71000000D01*
X113250000Y-76500000D02*
X116250000Y-76500000D01*
%TO.C,C6*%
X59000000Y-52500000D02*
X59000000Y-58000000D01*
X62000000Y-52500000D02*
X59000000Y-52500000D01*
X62000000Y-58000000D02*
X62000000Y-52500000D01*
X59000000Y-58000000D02*
X62000000Y-58000000D01*
%TO.C,C7*%
X54000000Y-58000000D02*
X57000000Y-58000000D01*
X57000000Y-58000000D02*
X57000000Y-52500000D01*
X57000000Y-52500000D02*
X54000000Y-52500000D01*
X54000000Y-52500000D02*
X54000000Y-58000000D01*
%TO.C,C8*%
X49500000Y-58000000D02*
X49500000Y-52500000D01*
X46500000Y-58000000D02*
X49500000Y-58000000D01*
X46500000Y-52500000D02*
X46500000Y-58000000D01*
X49500000Y-52500000D02*
X46500000Y-52500000D01*
%TO.C,D1*%
X122250000Y-50200000D02*
X119750000Y-50200000D01*
X119750000Y-50200000D02*
X119750000Y-59920000D01*
X119750000Y-59920000D02*
X122250000Y-59920000D01*
X122250000Y-59920000D02*
X122250000Y-50200000D01*
%TO.C,D2*%
X48250000Y-50670000D02*
X48250000Y-40950000D01*
X45750000Y-50670000D02*
X48250000Y-50670000D01*
X45750000Y-40950000D02*
X45750000Y-50670000D01*
X48250000Y-40950000D02*
X45750000Y-40950000D01*
%TO.C,D3*%
X48250000Y-59830000D02*
X45750000Y-59830000D01*
X45750000Y-59830000D02*
X45750000Y-69550000D01*
X45750000Y-69550000D02*
X48250000Y-69550000D01*
X48250000Y-69550000D02*
X48250000Y-59830000D01*
%TO.C,D4*%
X54250000Y-50670000D02*
X54250000Y-40950000D01*
X51750000Y-50670000D02*
X54250000Y-50670000D01*
X51750000Y-40950000D02*
X51750000Y-50670000D01*
X54250000Y-40950000D02*
X51750000Y-40950000D01*
%TO.C,D5*%
X54250000Y-69670000D02*
X54250000Y-59950000D01*
X51750000Y-69670000D02*
X54250000Y-69670000D01*
X51750000Y-59950000D02*
X51750000Y-69670000D01*
X54250000Y-59950000D02*
X51750000Y-59950000D01*
%TO.C,J1*%
X132250000Y-45750000D02*
G75*
G03*
X132250000Y-45750000I-2000000J0D01*
G01*
%TO.C,J2*%
X132250000Y-54750000D02*
G75*
G03*
X132250000Y-54750000I-2000000J0D01*
G01*
%TO.C,J3*%
X40250000Y-41750000D02*
G75*
G03*
X40250000Y-41750000I-2000000J0D01*
G01*
%TO.C,J4*%
X41000000Y-69000000D02*
G75*
G03*
X41000000Y-69000000I-2000000J0D01*
G01*
%TO.C,J5*%
X132250000Y-63750000D02*
G75*
G03*
X132250000Y-63750000I-2000000J0D01*
G01*
%TO.C,J6*%
X40500000Y-55000000D02*
G75*
G03*
X40500000Y-55000000I-2000000J0D01*
G01*
%TO.C,J7*%
X41000000Y-35000000D02*
G75*
G03*
X41000000Y-35000000I-2000000J0D01*
G01*
%TO.C,J8*%
X41000000Y-76000000D02*
G75*
G03*
X41000000Y-76000000I-2000000J0D01*
G01*
%TO.C,J9*%
X133000000Y-35000000D02*
G75*
G03*
X133000000Y-35000000I-2000000J0D01*
G01*
%TO.C,J10*%
X133000000Y-76000000D02*
G75*
G03*
X133000000Y-76000000I-2000000J0D01*
G01*
%TO.C,R1*%
X107800000Y-70050000D02*
X105700000Y-70050000D01*
X105700000Y-70050000D02*
X105700000Y-77030000D01*
X105700000Y-77030000D02*
X107800000Y-77030000D01*
X107800000Y-77030000D02*
X107800000Y-70050000D01*
%TO.C,R2*%
X54050000Y-39610000D02*
X54050000Y-32630000D01*
X51950000Y-39610000D02*
X54050000Y-39610000D01*
X51950000Y-32630000D02*
X51950000Y-39610000D01*
X54050000Y-32630000D02*
X51950000Y-32630000D01*
%TO.C,R3*%
X45950000Y-32550000D02*
X45950000Y-39530000D01*
X48050000Y-32550000D02*
X45950000Y-32550000D01*
X48050000Y-39530000D02*
X48050000Y-32550000D01*
X45950000Y-39530000D02*
X48050000Y-39530000D01*
%TO.C,R4*%
X48050000Y-78030000D02*
X48050000Y-71050000D01*
X45950000Y-78030000D02*
X48050000Y-78030000D01*
X45950000Y-71050000D02*
X45950000Y-78030000D01*
X48050000Y-71050000D02*
X45950000Y-71050000D01*
%TO.C,R5*%
X108470000Y-42550000D02*
X115450000Y-42550000D01*
X108470000Y-40450000D02*
X108470000Y-42550000D01*
X115450000Y-40450000D02*
X108470000Y-40450000D01*
X115450000Y-42550000D02*
X115450000Y-40450000D01*
%TO.C,R6*%
X126050000Y-51470000D02*
X123950000Y-51470000D01*
X123950000Y-51470000D02*
X123950000Y-58450000D01*
X123950000Y-58450000D02*
X126050000Y-58450000D01*
X126050000Y-58450000D02*
X126050000Y-51470000D01*
%TO.C,R7*%
X106950000Y-40030000D02*
X109050000Y-40030000D01*
X109050000Y-40030000D02*
X109050000Y-33050000D01*
X109050000Y-33050000D02*
X106950000Y-33050000D01*
X106950000Y-33050000D02*
X106950000Y-40030000D01*
%TO.C,R8*%
X115700000Y-69800000D02*
X115700000Y-67700000D01*
X115700000Y-67700000D02*
X108720000Y-67700000D01*
X108720000Y-67700000D02*
X108720000Y-69800000D01*
X108720000Y-69800000D02*
X115700000Y-69800000D01*
%TO.C,R9*%
X67970000Y-45950000D02*
X67970000Y-48050000D01*
X67970000Y-48050000D02*
X74950000Y-48050000D01*
X74950000Y-48050000D02*
X74950000Y-45950000D01*
X74950000Y-45950000D02*
X67970000Y-45950000D01*
%TO.C,R10*%
X54050000Y-78030000D02*
X54050000Y-71050000D01*
X51950000Y-78030000D02*
X54050000Y-78030000D01*
X51950000Y-71050000D02*
X51950000Y-78030000D01*
X54050000Y-71050000D02*
X51950000Y-71050000D01*
%TO.C,R11*%
X74950000Y-62950000D02*
X67970000Y-62950000D01*
X74950000Y-65050000D02*
X74950000Y-62950000D01*
X67970000Y-65050000D02*
X74950000Y-65050000D01*
X67970000Y-62950000D02*
X67970000Y-65050000D01*
%TO.C,R12*%
X95200000Y-62300000D02*
X95200000Y-60200000D01*
X95200000Y-60200000D02*
X88220000Y-60200000D01*
X88220000Y-60200000D02*
X88220000Y-62300000D01*
X88220000Y-62300000D02*
X95200000Y-62300000D01*
%TO.C,R13*%
X88220000Y-64800000D02*
X95200000Y-64800000D01*
X88220000Y-62700000D02*
X88220000Y-64800000D01*
X95200000Y-62700000D02*
X88220000Y-62700000D01*
X95200000Y-64800000D02*
X95200000Y-62700000D01*
%TO.C,R14*%
X95280000Y-67300000D02*
X95280000Y-65200000D01*
X95280000Y-65200000D02*
X88300000Y-65200000D01*
X88300000Y-65200000D02*
X88300000Y-67300000D01*
X88300000Y-67300000D02*
X95280000Y-67300000D01*
%TO.C,R15*%
X88300000Y-70050000D02*
X95280000Y-70050000D01*
X88300000Y-67950000D02*
X88300000Y-70050000D01*
X95280000Y-67950000D02*
X88300000Y-67950000D01*
X95280000Y-70050000D02*
X95280000Y-67950000D01*
%TO.C,R16*%
X95280000Y-72550000D02*
X95280000Y-70450000D01*
X95280000Y-70450000D02*
X88300000Y-70450000D01*
X88300000Y-70450000D02*
X88300000Y-72550000D01*
X88300000Y-72550000D02*
X95280000Y-72550000D01*
%TO.C,R17*%
X88300000Y-75050000D02*
X95280000Y-75050000D01*
X88300000Y-72950000D02*
X88300000Y-75050000D01*
X95280000Y-72950000D02*
X88300000Y-72950000D01*
X95280000Y-75050000D02*
X95280000Y-72950000D01*
%TO.C,R18*%
X95280000Y-77550000D02*
X95280000Y-75450000D01*
X95280000Y-75450000D02*
X88300000Y-75450000D01*
X88300000Y-75450000D02*
X88300000Y-77550000D01*
X88300000Y-77550000D02*
X95280000Y-77550000D01*
%TO.C,R20*%
X94950000Y-37550000D02*
X94950000Y-35450000D01*
X94950000Y-35450000D02*
X87970000Y-35450000D01*
X87970000Y-35450000D02*
X87970000Y-37550000D01*
X87970000Y-37550000D02*
X94950000Y-37550000D01*
%TO.C,R21*%
X87970000Y-40050000D02*
X94950000Y-40050000D01*
X87970000Y-37950000D02*
X87970000Y-40050000D01*
X94950000Y-37950000D02*
X87970000Y-37950000D01*
X94950000Y-40050000D02*
X94950000Y-37950000D01*
%TO.C,R22*%
X94950000Y-42550000D02*
X94950000Y-40450000D01*
X94950000Y-40450000D02*
X87970000Y-40450000D01*
X87970000Y-40450000D02*
X87970000Y-42550000D01*
X87970000Y-42550000D02*
X94950000Y-42550000D01*
%TO.C,R23*%
X87970000Y-45050000D02*
X94950000Y-45050000D01*
X87970000Y-42950000D02*
X87970000Y-45050000D01*
X94950000Y-42950000D02*
X87970000Y-42950000D01*
X94950000Y-45050000D02*
X94950000Y-42950000D01*
%TO.C,R24*%
X94950000Y-47800000D02*
X94950000Y-45700000D01*
X94950000Y-45700000D02*
X87970000Y-45700000D01*
X87970000Y-45700000D02*
X87970000Y-47800000D01*
X87970000Y-47800000D02*
X94950000Y-47800000D01*
%TO.C,R25*%
X87970000Y-50300000D02*
X94950000Y-50300000D01*
X87970000Y-48200000D02*
X87970000Y-50300000D01*
X94950000Y-48200000D02*
X87970000Y-48200000D01*
X94950000Y-50300000D02*
X94950000Y-48200000D01*
%TO.C,R26*%
X94950000Y-52800000D02*
X94950000Y-50700000D01*
X94950000Y-50700000D02*
X87970000Y-50700000D01*
X87970000Y-50700000D02*
X87970000Y-52800000D01*
X87970000Y-52800000D02*
X94950000Y-52800000D01*
%TO.C,SW1*%
X87500000Y-57250000D02*
X77700000Y-57250000D01*
X87500000Y-78100000D02*
X87500000Y-57250000D01*
X77700000Y-78100000D02*
X87500000Y-78100000D01*
X77700000Y-57250000D02*
X77700000Y-78100000D01*
%TO.C,SW2*%
X87050000Y-32450000D02*
X77250000Y-32450000D01*
X87050000Y-53300000D02*
X87050000Y-32450000D01*
X77250000Y-53300000D02*
X87050000Y-53300000D01*
X77250000Y-32450000D02*
X77250000Y-53300000D01*
%TO.C,C1*%
X72500000Y-32450000D02*
X72500000Y-39550000D01*
X75500000Y-32450000D02*
X72500000Y-32450000D01*
X75500000Y-39550000D02*
X75500000Y-32450000D01*
X72500000Y-39550000D02*
X75500000Y-39550000D01*
%TO.C,C9*%
X98250000Y-42750000D02*
X103750000Y-42750000D01*
X98250000Y-39750000D02*
X98250000Y-42750000D01*
X103750000Y-39750000D02*
X98250000Y-39750000D01*
X103750000Y-42750000D02*
X103750000Y-39750000D01*
%TO.C,C3*%
X119150000Y-55000000D02*
G75*
G03*
X119150000Y-55000000I-3400000J0D01*
G01*
%TO.C,R19*%
X88220000Y-59800000D02*
X95200000Y-59800000D01*
X88220000Y-57700000D02*
X88220000Y-59800000D01*
X95200000Y-57700000D02*
X88220000Y-57700000D01*
X95200000Y-59800000D02*
X95200000Y-57700000D01*
%TO.C,R27*%
X95030000Y-35050000D02*
X95030000Y-32950000D01*
X95030000Y-32950000D02*
X88050000Y-32950000D01*
X88050000Y-32950000D02*
X88050000Y-35050000D01*
X88050000Y-35050000D02*
X95030000Y-35050000D01*
%TO.C,U1*%
X64450000Y-50420000D02*
X64450000Y-60220000D01*
X75150000Y-50420000D02*
X64450000Y-50420000D01*
X75150000Y-60220000D02*
X75150000Y-50420000D01*
X64450000Y-60220000D02*
X75150000Y-60220000D01*
%TD*%
M02*
