%TF.GenerationSoftware,KiCad,Pcbnew,5.1.10*%
%TF.CreationDate,2021-07-04T23:49:32+02:00*%
%TF.ProjectId,tht-dip,7468742d-6469-4702-9e6b-696361645f70,rev?*%
%TF.SameCoordinates,Original*%
%TF.FileFunction,Copper,L2,Bot*%
%TF.FilePolarity,Positive*%
%FSLAX46Y46*%
G04 Gerber Fmt 4.6, Leading zero omitted, Abs format (unit mm)*
G04 Created by KiCad (PCBNEW 5.1.10) date 2021-07-04 23:49:32*
%MOMM*%
%LPD*%
G01*
G04 APERTURE LIST*
%TA.AperFunction,ComponentPad*%
%ADD10C,1.600000*%
%TD*%
%TA.AperFunction,ComponentPad*%
%ADD11O,1.600000X1.600000*%
%TD*%
%TA.AperFunction,ComponentPad*%
%ADD12R,1.600000X1.600000*%
%TD*%
%TA.AperFunction,ComponentPad*%
%ADD13C,3.500000*%
%TD*%
%TA.AperFunction,ComponentPad*%
%ADD14O,1.400000X1.400000*%
%TD*%
%TA.AperFunction,ComponentPad*%
%ADD15C,1.400000*%
%TD*%
%TA.AperFunction,ViaPad*%
%ADD16C,0.800000*%
%TD*%
%TA.AperFunction,Conductor*%
%ADD17C,0.800000*%
%TD*%
%TA.AperFunction,Conductor*%
%ADD18C,0.254000*%
%TD*%
%TA.AperFunction,Conductor*%
%ADD19C,0.100000*%
%TD*%
G04 APERTURE END LIST*
D10*
%TO.P,C2,1*%
%TO.N,VCC*%
X99750000Y-69500000D03*
%TO.P,C2,2*%
%TO.N,V-*%
X102250000Y-69500000D03*
%TD*%
%TO.P,C3,2*%
%TO.N,V-*%
X73500000Y-76500000D03*
%TO.P,C3,1*%
%TO.N,VCC*%
X73500000Y-74000000D03*
%TD*%
%TO.P,C4,2*%
%TO.N,Net-(C4-Pad2)*%
X114500000Y-34500000D03*
%TO.P,C4,1*%
%TO.N,/2*%
X114500000Y-37000000D03*
%TD*%
%TO.P,C5,1*%
%TO.N,/3*%
X114750000Y-75000000D03*
%TO.P,C5,2*%
%TO.N,Net-(C5-Pad2)*%
X114750000Y-72500000D03*
%TD*%
%TO.P,C6,1*%
%TO.N,V-*%
X64000000Y-58000000D03*
%TO.P,C6,2*%
%TO.N,Net-(C6-Pad2)*%
X66500000Y-58000000D03*
%TD*%
%TO.P,C7,2*%
%TO.N,V-*%
X66500000Y-52000000D03*
%TO.P,C7,1*%
%TO.N,Net-(C7-Pad1)*%
X64000000Y-52000000D03*
%TD*%
%TO.P,C8,1*%
%TO.N,V-*%
X71500000Y-54000000D03*
%TO.P,C8,2*%
%TO.N,Net-(C8-Pad2)*%
X71500000Y-56500000D03*
%TD*%
D11*
%TO.P,D1,2*%
%TO.N,V-*%
X121000000Y-58870000D03*
D12*
%TO.P,D1,1*%
%TO.N,Net-(D1-Pad1)*%
X121000000Y-51250000D03*
%TD*%
%TO.P,D2,1*%
%TO.N,VCC*%
X47000000Y-42000000D03*
D11*
%TO.P,D2,2*%
%TO.N,ind*%
X47000000Y-49620000D03*
%TD*%
%TO.P,D3,2*%
%TO.N,V-*%
X47000000Y-68500000D03*
D12*
%TO.P,D3,1*%
%TO.N,ind*%
X47000000Y-60880000D03*
%TD*%
%TO.P,D4,1*%
%TO.N,VCC*%
X53000000Y-42000000D03*
D11*
%TO.P,D4,2*%
%TO.N,Net-(D4-Pad2)*%
X53000000Y-49620000D03*
%TD*%
D12*
%TO.P,D5,1*%
%TO.N,Net-(D4-Pad2)*%
X53000000Y-61000000D03*
D11*
%TO.P,D5,2*%
%TO.N,V-*%
X53000000Y-68620000D03*
%TD*%
D13*
%TO.P,J1,1*%
%TO.N,/2*%
X130250000Y-45750000D03*
%TD*%
%TO.P,J2,1*%
%TO.N,/3*%
X130250000Y-54750000D03*
%TD*%
%TO.P,J3,1*%
%TO.N,ind*%
X38250000Y-41750000D03*
%TD*%
%TO.P,J4,1*%
%TO.N,Net-(D4-Pad2)*%
X39000000Y-69000000D03*
%TD*%
%TO.P,J5,1*%
%TO.N,V-*%
X130250000Y-63750000D03*
%TD*%
%TO.P,J6,1*%
%TO.N,V-*%
X38500000Y-55000000D03*
%TD*%
%TO.P,J7,1*%
%TO.N,Earth*%
X39000000Y-35000000D03*
%TD*%
%TO.P,J8,1*%
%TO.N,Earth*%
X39000000Y-76000000D03*
%TD*%
%TO.P,J9,1*%
%TO.N,Earth*%
X131000000Y-35000000D03*
%TD*%
%TO.P,J10,1*%
%TO.N,Earth*%
X131000000Y-76000000D03*
%TD*%
D14*
%TO.P,R1,2*%
%TO.N,VCC*%
X106750000Y-76080000D03*
D15*
%TO.P,R1,1*%
%TO.N,Net-(D1-Pad1)*%
X106750000Y-71000000D03*
%TD*%
%TO.P,R2,1*%
%TO.N,VCC*%
X53000000Y-33580000D03*
D14*
%TO.P,R2,2*%
%TO.N,Net-(C7-Pad1)*%
X53000000Y-38660000D03*
%TD*%
D15*
%TO.P,R3,1*%
%TO.N,Net-(C7-Pad1)*%
X47000000Y-38580000D03*
D14*
%TO.P,R3,2*%
%TO.N,ind*%
X47000000Y-33500000D03*
%TD*%
D15*
%TO.P,R4,1*%
%TO.N,Net-(C7-Pad1)*%
X47000000Y-72000000D03*
D14*
%TO.P,R4,2*%
%TO.N,Net-(D4-Pad2)*%
X47000000Y-77080000D03*
%TD*%
D15*
%TO.P,R5,1*%
%TO.N,Net-(D1-Pad1)*%
X114500000Y-41500000D03*
D14*
%TO.P,R5,2*%
%TO.N,/2*%
X109420000Y-41500000D03*
%TD*%
%TO.P,R6,2*%
%TO.N,/3*%
X125000000Y-57500000D03*
D15*
%TO.P,R6,1*%
%TO.N,Net-(D1-Pad1)*%
X125000000Y-52420000D03*
%TD*%
D14*
%TO.P,R7,2*%
%TO.N,ResOUT*%
X108000000Y-34000000D03*
D15*
%TO.P,R7,1*%
%TO.N,Net-(C4-Pad2)*%
X108000000Y-39080000D03*
%TD*%
D14*
%TO.P,R8,2*%
%TO.N,ResOUT2*%
X109670000Y-68750000D03*
D15*
%TO.P,R8,1*%
%TO.N,Net-(C5-Pad2)*%
X114750000Y-68750000D03*
%TD*%
D14*
%TO.P,R9,2*%
%TO.N,ResIN*%
X68080000Y-47500000D03*
D15*
%TO.P,R9,1*%
%TO.N,Net-(C6-Pad2)*%
X63000000Y-47500000D03*
%TD*%
%TO.P,R10,1*%
%TO.N,Net-(C7-Pad1)*%
X53000000Y-72000000D03*
D14*
%TO.P,R10,2*%
%TO.N,V-*%
X53000000Y-77080000D03*
%TD*%
D15*
%TO.P,R11,1*%
%TO.N,Net-(C8-Pad2)*%
X63000000Y-63500000D03*
D14*
%TO.P,R11,2*%
%TO.N,ResIN1*%
X68080000Y-63500000D03*
%TD*%
%TO.P,R12,2*%
%TO.N,Net-(R12-Pad2)*%
X89170000Y-58750000D03*
D15*
%TO.P,R12,1*%
%TO.N,ResOUT*%
X94250000Y-58750000D03*
%TD*%
%TO.P,R13,1*%
%TO.N,ResOUT*%
X94250000Y-61250000D03*
D14*
%TO.P,R13,2*%
%TO.N,Net-(R13-Pad2)*%
X89170000Y-61250000D03*
%TD*%
%TO.P,R14,2*%
%TO.N,Net-(R14-Pad2)*%
X89250000Y-63750000D03*
D15*
%TO.P,R14,1*%
%TO.N,ResOUT*%
X94330000Y-63750000D03*
%TD*%
%TO.P,R15,1*%
%TO.N,ResOUT*%
X94330000Y-66500000D03*
D14*
%TO.P,R15,2*%
%TO.N,Net-(R15-Pad2)*%
X89250000Y-66500000D03*
%TD*%
%TO.P,R16,2*%
%TO.N,Net-(R16-Pad2)*%
X89250000Y-69000000D03*
D15*
%TO.P,R16,1*%
%TO.N,ResOUT*%
X94330000Y-69000000D03*
%TD*%
%TO.P,R17,1*%
%TO.N,ResOUT*%
X94330000Y-71500000D03*
D14*
%TO.P,R17,2*%
%TO.N,Net-(R17-Pad2)*%
X89250000Y-71500000D03*
%TD*%
%TO.P,R18,2*%
%TO.N,Net-(R18-Pad2)*%
X89250000Y-74000000D03*
D15*
%TO.P,R18,1*%
%TO.N,ResOUT*%
X94330000Y-74000000D03*
%TD*%
D14*
%TO.P,R20,2*%
%TO.N,Net-(R20-Pad2)*%
X89170000Y-34000000D03*
D15*
%TO.P,R20,1*%
%TO.N,ResOUT2*%
X94250000Y-34000000D03*
%TD*%
%TO.P,R21,1*%
%TO.N,ResOUT2*%
X94250000Y-36500000D03*
D14*
%TO.P,R21,2*%
%TO.N,Net-(R21-Pad2)*%
X89170000Y-36500000D03*
%TD*%
%TO.P,R22,2*%
%TO.N,Net-(R22-Pad2)*%
X89170000Y-39000000D03*
D15*
%TO.P,R22,1*%
%TO.N,ResOUT2*%
X94250000Y-39000000D03*
%TD*%
%TO.P,R23,1*%
%TO.N,ResOUT2*%
X94250000Y-41500000D03*
D14*
%TO.P,R23,2*%
%TO.N,Net-(R23-Pad2)*%
X89170000Y-41500000D03*
%TD*%
%TO.P,R24,2*%
%TO.N,Net-(R24-Pad2)*%
X89170000Y-44250000D03*
D15*
%TO.P,R24,1*%
%TO.N,ResOUT2*%
X94250000Y-44250000D03*
%TD*%
%TO.P,R25,1*%
%TO.N,ResOUT2*%
X94250000Y-46750000D03*
D14*
%TO.P,R25,2*%
%TO.N,Net-(R25-Pad2)*%
X89170000Y-46750000D03*
%TD*%
%TO.P,R26,2*%
%TO.N,Net-(R26-Pad2)*%
X89170000Y-49250000D03*
D15*
%TO.P,R26,1*%
%TO.N,ResOUT2*%
X94250000Y-49250000D03*
%TD*%
D12*
%TO.P,SW1,1*%
%TO.N,ResIN*%
X78800000Y-58800000D03*
D11*
%TO.P,SW1,9*%
%TO.N,N/C*%
X86420000Y-76580000D03*
%TO.P,SW1,2*%
%TO.N,ResIN*%
X78800000Y-61340000D03*
%TO.P,SW1,10*%
%TO.N,Net-(R18-Pad2)*%
X86420000Y-74040000D03*
%TO.P,SW1,3*%
%TO.N,ResIN*%
X78800000Y-63880000D03*
%TO.P,SW1,11*%
%TO.N,Net-(R17-Pad2)*%
X86420000Y-71500000D03*
%TO.P,SW1,4*%
%TO.N,ResIN*%
X78800000Y-66420000D03*
%TO.P,SW1,12*%
%TO.N,Net-(R16-Pad2)*%
X86420000Y-68960000D03*
%TO.P,SW1,5*%
%TO.N,ResIN*%
X78800000Y-68960000D03*
%TO.P,SW1,13*%
%TO.N,Net-(R15-Pad2)*%
X86420000Y-66420000D03*
%TO.P,SW1,6*%
%TO.N,ResIN*%
X78800000Y-71500000D03*
%TO.P,SW1,14*%
%TO.N,Net-(R14-Pad2)*%
X86420000Y-63880000D03*
%TO.P,SW1,7*%
%TO.N,ResIN*%
X78800000Y-74040000D03*
%TO.P,SW1,15*%
%TO.N,Net-(R13-Pad2)*%
X86420000Y-61340000D03*
%TO.P,SW1,8*%
%TO.N,ResIN*%
X78800000Y-76580000D03*
%TO.P,SW1,16*%
%TO.N,Net-(R12-Pad2)*%
X86420000Y-58800000D03*
%TD*%
D12*
%TO.P,SW2,1*%
%TO.N,ResIN1*%
X78600000Y-34000000D03*
D11*
%TO.P,SW2,9*%
%TO.N,N/C*%
X86220000Y-51780000D03*
%TO.P,SW2,2*%
%TO.N,ResIN1*%
X78600000Y-36540000D03*
%TO.P,SW2,10*%
%TO.N,Net-(R26-Pad2)*%
X86220000Y-49240000D03*
%TO.P,SW2,3*%
%TO.N,ResIN1*%
X78600000Y-39080000D03*
%TO.P,SW2,11*%
%TO.N,Net-(R25-Pad2)*%
X86220000Y-46700000D03*
%TO.P,SW2,4*%
%TO.N,ResIN1*%
X78600000Y-41620000D03*
%TO.P,SW2,12*%
%TO.N,Net-(R24-Pad2)*%
X86220000Y-44160000D03*
%TO.P,SW2,5*%
%TO.N,ResIN1*%
X78600000Y-44160000D03*
%TO.P,SW2,13*%
%TO.N,Net-(R23-Pad2)*%
X86220000Y-41620000D03*
%TO.P,SW2,6*%
%TO.N,ResIN1*%
X78600000Y-46700000D03*
%TO.P,SW2,14*%
%TO.N,Net-(R22-Pad2)*%
X86220000Y-39080000D03*
%TO.P,SW2,7*%
%TO.N,ResIN1*%
X78600000Y-49240000D03*
%TO.P,SW2,15*%
%TO.N,Net-(R21-Pad2)*%
X86220000Y-36540000D03*
%TO.P,SW2,8*%
%TO.N,ResIN1*%
X78600000Y-51780000D03*
%TO.P,SW2,16*%
%TO.N,Net-(R20-Pad2)*%
X86220000Y-34000000D03*
%TD*%
%TO.P,U1,8*%
%TO.N,N/C*%
X69120000Y-69000000D03*
%TO.P,U1,4*%
%TO.N,V-*%
X61500000Y-76620000D03*
%TO.P,U1,7*%
%TO.N,VCC*%
X69120000Y-71540000D03*
%TO.P,U1,3*%
%TO.N,Net-(D4-Pad2)*%
X61500000Y-74080000D03*
%TO.P,U1,6*%
%TO.N,ResOUT*%
X69120000Y-74080000D03*
%TO.P,U1,2*%
%TO.N,ResIN*%
X61500000Y-71540000D03*
%TO.P,U1,5*%
%TO.N,N/C*%
X69120000Y-76620000D03*
D12*
%TO.P,U1,1*%
X61500000Y-69000000D03*
%TD*%
%TO.P,U2,1*%
%TO.N,N/C*%
X62000000Y-34000000D03*
D11*
%TO.P,U2,5*%
X69620000Y-41620000D03*
%TO.P,U2,2*%
%TO.N,ResIN1*%
X62000000Y-36540000D03*
%TO.P,U2,6*%
%TO.N,ResOUT2*%
X69620000Y-39080000D03*
%TO.P,U2,3*%
%TO.N,ind*%
X62000000Y-39080000D03*
%TO.P,U2,7*%
%TO.N,VCC*%
X69620000Y-36540000D03*
%TO.P,U2,4*%
%TO.N,V-*%
X62000000Y-41620000D03*
%TO.P,U2,8*%
%TO.N,N/C*%
X69620000Y-34000000D03*
%TD*%
D10*
%TO.P,C1,1*%
%TO.N,VCC*%
X74000000Y-38500000D03*
%TO.P,C1,2*%
%TO.N,V-*%
X74000000Y-33500000D03*
%TD*%
%TO.P,C9,1*%
%TO.N,V-*%
X102250000Y-41250000D03*
%TO.P,C9,2*%
%TO.N,VCC*%
X99750000Y-41250000D03*
%TD*%
D16*
%TO.N,Earth*%
X82500000Y-39000000D03*
X83000000Y-71500000D03*
X95000000Y-55500000D03*
X49500000Y-55000000D03*
X60000000Y-55000000D03*
X72000000Y-47500000D03*
X76000000Y-59000000D03*
X50500000Y-65000000D03*
X56000000Y-73000000D03*
X65000000Y-74000000D03*
X74000000Y-69000000D03*
X71000000Y-73500000D03*
X76000000Y-32000000D03*
X67500000Y-39000000D03*
X67000000Y-32000000D03*
X74000000Y-41000000D03*
X69500000Y-55250000D03*
X66500000Y-54500000D03*
X72000000Y-35000000D03*
%TO.N,ResOUT*%
X94330000Y-76500000D03*
%TD*%
D17*
%TO.N,V-*%
X61500000Y-76620000D02*
X59900000Y-76620000D01*
X53000000Y-76330000D02*
X59610000Y-76330000D01*
X59610000Y-76330000D02*
X59900000Y-76620000D01*
X53000000Y-76330000D02*
X53000000Y-75580000D01*
X53000000Y-77080000D02*
X53000000Y-76330000D01*
X74000000Y-33500000D02*
X73056000Y-32556000D01*
X73056000Y-32556000D02*
X69038900Y-32556000D01*
X69038900Y-32556000D02*
X67441900Y-34153000D01*
X67441900Y-34153000D02*
X67441900Y-36178100D01*
X67441900Y-36178100D02*
X62000000Y-41620000D01*
X53000000Y-68620000D02*
X53000000Y-70220000D01*
X53000000Y-70220000D02*
X52871900Y-70220000D01*
X52871900Y-70220000D02*
X51687900Y-71404000D01*
X51687900Y-71404000D02*
X51687900Y-74267900D01*
X51687900Y-74267900D02*
X53000000Y-75580000D01*
X66500000Y-52000000D02*
X64000000Y-54500000D01*
X64000000Y-54500000D02*
X64000000Y-58000000D01*
X62000000Y-43220000D02*
X66500000Y-47720000D01*
X66500000Y-47720000D02*
X66500000Y-52000000D01*
X61500000Y-76620000D02*
X63100000Y-76620000D01*
X63100000Y-76620000D02*
X64566200Y-78086200D01*
X64566200Y-78086200D02*
X71913800Y-78086200D01*
X71913800Y-78086200D02*
X73500000Y-76500000D01*
X62000000Y-41620000D02*
X62000000Y-43220000D01*
%TO.N,VCC*%
X106750000Y-76080000D02*
X106750000Y-74580000D01*
X105435200Y-72948000D02*
X105435200Y-70457400D01*
X105435200Y-70457400D02*
X106231400Y-69661200D01*
X106231400Y-69661200D02*
X107931700Y-69661200D01*
X107931700Y-69661200D02*
X108350100Y-70079600D01*
X108350100Y-70079600D02*
X110190900Y-70079600D01*
X110190900Y-70079600D02*
X110984500Y-69286000D01*
X110984500Y-69286000D02*
X110984500Y-52484500D01*
X110984500Y-52484500D02*
X99750000Y-41250000D01*
X106750000Y-74580000D02*
X105435200Y-73265200D01*
X105435200Y-73265200D02*
X105435200Y-72948000D01*
X105435200Y-72948000D02*
X99750000Y-72948000D01*
X80200400Y-77167900D02*
X81057700Y-78025200D01*
X81057700Y-78025200D02*
X94672800Y-78025200D01*
X94672800Y-78025200D02*
X99750000Y-72948000D01*
X73500000Y-74000000D02*
X77496000Y-77996000D01*
X77496000Y-77996000D02*
X79372300Y-77996000D01*
X79372300Y-77996000D02*
X80200400Y-77167900D01*
X74000000Y-36540000D02*
X74000000Y-36121800D01*
X74000000Y-36121800D02*
X77522200Y-32599600D01*
X77522200Y-32599600D02*
X79690600Y-32599600D01*
X79690600Y-32599600D02*
X80200400Y-33109400D01*
X80200400Y-33109400D02*
X80200400Y-77167900D01*
X74000000Y-38500000D02*
X74000000Y-36540000D01*
X74000000Y-36540000D02*
X71220000Y-36540000D01*
X99750000Y-72948000D02*
X99750000Y-69500000D01*
X69620000Y-36540000D02*
X71220000Y-36540000D01*
X69120000Y-71540000D02*
X71040000Y-71540000D01*
X71040000Y-71540000D02*
X73500000Y-74000000D01*
%TO.N,Net-(C4-Pad2)*%
X108000000Y-39080000D02*
X112580000Y-34500000D01*
X112580000Y-34500000D02*
X114500000Y-34500000D01*
%TO.N,/2*%
X114500000Y-37485600D02*
X121985600Y-37485600D01*
X121985600Y-37485600D02*
X130250000Y-45750000D01*
X110920000Y-41500000D02*
X110920000Y-41065600D01*
X110920000Y-41065600D02*
X114500000Y-37485600D01*
X114500000Y-37485600D02*
X114500000Y-37000000D01*
X109420000Y-41500000D02*
X110920000Y-41500000D01*
%TO.N,/3*%
X125000000Y-57500000D02*
X125000000Y-64750000D01*
X125000000Y-64750000D02*
X114750000Y-75000000D01*
X125000000Y-57500000D02*
X127500000Y-57500000D01*
X127500000Y-57500000D02*
X130250000Y-54750000D01*
%TO.N,Net-(C5-Pad2)*%
X114750000Y-68750000D02*
X114750000Y-72500000D01*
%TO.N,Net-(C7-Pad1)*%
X53000000Y-38660000D02*
X53000000Y-40160000D01*
X59549700Y-52000000D02*
X64000000Y-52000000D01*
X47000000Y-72000000D02*
X48400400Y-70599600D01*
X48400400Y-70599600D02*
X48400400Y-63149300D01*
X48400400Y-63149300D02*
X59549700Y-52000000D01*
X53000000Y-40160000D02*
X53656200Y-40160000D01*
X53656200Y-40160000D02*
X59549700Y-46053500D01*
X59549700Y-46053500D02*
X59549700Y-52000000D01*
%TO.N,Net-(D1-Pad1)*%
X121000000Y-51250000D02*
X121000000Y-49650000D01*
X114500000Y-41500000D02*
X114500000Y-43150000D01*
X114500000Y-43150000D02*
X121000000Y-49650000D01*
X106750000Y-71000000D02*
X106875000Y-71125000D01*
X106875000Y-71125000D02*
X110560200Y-71125000D01*
X110560200Y-71125000D02*
X112699400Y-68985800D01*
X112699400Y-68985800D02*
X112699400Y-61150600D01*
X112699400Y-61150600D02*
X121000000Y-52850000D01*
X121000000Y-51250000D02*
X121000000Y-52850000D01*
%TO.N,ind*%
X47000000Y-33500000D02*
X48500000Y-33500000D01*
X62000000Y-39080000D02*
X60400000Y-39080000D01*
X60400000Y-39080000D02*
X56418500Y-35098500D01*
X56418500Y-35098500D02*
X50098500Y-35098500D01*
X50098500Y-35098500D02*
X48500000Y-33500000D01*
X40700000Y-41720000D02*
X47000000Y-48020000D01*
X45500000Y-33500000D02*
X45500000Y-36920000D01*
X45500000Y-36920000D02*
X40700000Y-41720000D01*
X40700000Y-41720000D02*
X38280000Y-41720000D01*
X38280000Y-41720000D02*
X38250000Y-41750000D01*
X47000000Y-49620000D02*
X47000000Y-48020000D01*
X47000000Y-33500000D02*
X45500000Y-33500000D01*
X47000000Y-49620000D02*
X47000000Y-60880000D01*
%TO.N,Net-(D4-Pad2)*%
X47000000Y-74967900D02*
X45467900Y-74967900D01*
X45467900Y-74967900D02*
X38500000Y-68000000D01*
X53005000Y-66622100D02*
X50610200Y-69016900D01*
X50610200Y-69016900D02*
X50610200Y-71357700D01*
X50610200Y-71357700D02*
X47000000Y-74967900D01*
X47000000Y-74967900D02*
X47000000Y-75580000D01*
X53000000Y-62600000D02*
X53000000Y-66617100D01*
X53000000Y-66617100D02*
X53005000Y-66622100D01*
X53005000Y-66622100D02*
X59900000Y-73517100D01*
X59900000Y-73517100D02*
X59900000Y-74080000D01*
X47000000Y-77080000D02*
X47000000Y-75580000D01*
X53000000Y-61000000D02*
X53000000Y-62600000D01*
X61500000Y-74080000D02*
X59900000Y-74080000D01*
%TO.N,Earth*%
X39000000Y-77000000D02*
X35837800Y-73837800D01*
X35837800Y-73837800D02*
X35837800Y-38162200D01*
X35837800Y-38162200D02*
X39000000Y-35000000D01*
X131000000Y-76000000D02*
X132605500Y-74394500D01*
X132605500Y-74394500D02*
X132605500Y-36605500D01*
X132605500Y-36605500D02*
X131000000Y-35000000D01*
%TO.N,ResOUT*%
X94250000Y-58750000D02*
X92949200Y-57449200D01*
X92949200Y-57449200D02*
X92949200Y-33426000D01*
X92949200Y-33426000D02*
X93723900Y-32651300D01*
X93723900Y-32651300D02*
X105151300Y-32651300D01*
X105151300Y-32651300D02*
X106500000Y-34000000D01*
X94250000Y-61250000D02*
X94250000Y-58750000D01*
X108000000Y-34000000D02*
X106500000Y-34000000D01*
X94330000Y-63750000D02*
X94250000Y-63670000D01*
X94250000Y-63670000D02*
X94250000Y-61250000D01*
X94330000Y-66500000D02*
X94330000Y-63750000D01*
X94330000Y-69000000D02*
X94330000Y-66500000D01*
X94330000Y-71500000D02*
X94330000Y-69000000D01*
X94330000Y-74000000D02*
X94330000Y-71500000D01*
X94330000Y-76500000D02*
X94330000Y-74000000D01*
%TO.N,ResOUT2*%
X109670000Y-68750000D02*
X109670000Y-67250000D01*
X94250000Y-52000000D02*
X109500000Y-67250000D01*
X109500000Y-67250000D02*
X109670000Y-67250000D01*
X94250000Y-52000000D02*
X94250000Y-49250000D01*
X94250000Y-36500000D02*
X94250000Y-34000000D01*
X94250000Y-39000000D02*
X94250000Y-36500000D01*
X94250000Y-44250000D02*
X94250000Y-41500000D01*
X94250000Y-46750000D02*
X94250000Y-44250000D01*
X94250000Y-49250000D02*
X94250000Y-46750000D01*
X94250000Y-41500000D02*
X94250000Y-39000000D01*
%TO.N,ResIN*%
X68220000Y-66420000D02*
X78800000Y-66420000D01*
X63100000Y-71540000D02*
X68220000Y-66420000D01*
X68220000Y-66420000D02*
X66731700Y-64931700D01*
X66731700Y-64931700D02*
X66731700Y-60849500D01*
X66731700Y-60849500D02*
X68080000Y-59501200D01*
X68080000Y-59501200D02*
X68080000Y-47500000D01*
X61500000Y-71540000D02*
X63100000Y-71540000D01*
X78800000Y-61340000D02*
X78800000Y-58800000D01*
X78800000Y-63880000D02*
X78800000Y-61340000D01*
X78800000Y-66420000D02*
X78800000Y-63880000D01*
X78800000Y-68960000D02*
X78800000Y-66420000D01*
X78800000Y-71500000D02*
X78800000Y-68960000D01*
X78800000Y-74040000D02*
X78800000Y-71500000D01*
X78800000Y-76580000D02*
X78800000Y-74040000D01*
%TO.N,ResIN1*%
X68080000Y-63500000D02*
X69580000Y-63500000D01*
X78600000Y-51780000D02*
X78600000Y-53380000D01*
X78600000Y-53380000D02*
X69580000Y-62400000D01*
X69580000Y-62400000D02*
X69580000Y-63500000D01*
X78600000Y-49240000D02*
X78600000Y-51780000D01*
X78600000Y-36540000D02*
X78600000Y-34000000D01*
X78600000Y-39080000D02*
X78600000Y-36540000D01*
X78600000Y-41620000D02*
X78600000Y-39080000D01*
X78600000Y-44160000D02*
X78600000Y-41620000D01*
X78600000Y-46700000D02*
X78600000Y-44160000D01*
X78600000Y-49240000D02*
X78600000Y-46700000D01*
%TD*%
D18*
%TO.N,Earth*%
X68461102Y-31691266D02*
X68407976Y-31734866D01*
X68303504Y-31820604D01*
X68271097Y-31860092D01*
X66745997Y-33385193D01*
X66706504Y-33417604D01*
X66577166Y-33575203D01*
X66481059Y-33755008D01*
X66421876Y-33950106D01*
X66406900Y-34102163D01*
X66406900Y-34102172D01*
X66401894Y-34153000D01*
X66406900Y-34203828D01*
X66406901Y-35749388D01*
X63398935Y-38757355D01*
X63379853Y-38661426D01*
X63271680Y-38400273D01*
X63114637Y-38165241D01*
X62914759Y-37965363D01*
X62682241Y-37810000D01*
X62914759Y-37654637D01*
X63114637Y-37454759D01*
X63271680Y-37219727D01*
X63379853Y-36958574D01*
X63435000Y-36681335D01*
X63435000Y-36398665D01*
X63379853Y-36121426D01*
X63271680Y-35860273D01*
X63114637Y-35625241D01*
X62916039Y-35426643D01*
X62924482Y-35425812D01*
X63044180Y-35389502D01*
X63154494Y-35330537D01*
X63251185Y-35251185D01*
X63330537Y-35154494D01*
X63389502Y-35044180D01*
X63425812Y-34924482D01*
X63438072Y-34800000D01*
X63438072Y-33200000D01*
X63425812Y-33075518D01*
X63389502Y-32955820D01*
X63330537Y-32845506D01*
X63251185Y-32748815D01*
X63154494Y-32669463D01*
X63044180Y-32610498D01*
X62924482Y-32574188D01*
X62800000Y-32561928D01*
X61200000Y-32561928D01*
X61075518Y-32574188D01*
X60955820Y-32610498D01*
X60845506Y-32669463D01*
X60748815Y-32748815D01*
X60669463Y-32845506D01*
X60610498Y-32955820D01*
X60574188Y-33075518D01*
X60561928Y-33200000D01*
X60561928Y-34800000D01*
X60574188Y-34924482D01*
X60610498Y-35044180D01*
X60669463Y-35154494D01*
X60748815Y-35251185D01*
X60845506Y-35330537D01*
X60955820Y-35389502D01*
X61075518Y-35425812D01*
X61083961Y-35426643D01*
X60885363Y-35625241D01*
X60728320Y-35860273D01*
X60620147Y-36121426D01*
X60565000Y-36398665D01*
X60565000Y-36681335D01*
X60620147Y-36958574D01*
X60728320Y-37219727D01*
X60885363Y-37454759D01*
X61085241Y-37654637D01*
X61317759Y-37810000D01*
X61085241Y-37965363D01*
X61005604Y-38045000D01*
X60828711Y-38045000D01*
X57186307Y-34402597D01*
X57153896Y-34363104D01*
X56996297Y-34233766D01*
X56816493Y-34137659D01*
X56621395Y-34078476D01*
X56469338Y-34063500D01*
X56469328Y-34063500D01*
X56418500Y-34058494D01*
X56367672Y-34063500D01*
X54244721Y-34063500D01*
X54283696Y-33969405D01*
X54335000Y-33711486D01*
X54335000Y-33448514D01*
X54283696Y-33190595D01*
X54183061Y-32947641D01*
X54036962Y-32728987D01*
X53851013Y-32543038D01*
X53632359Y-32396939D01*
X53389405Y-32296304D01*
X53131486Y-32245000D01*
X52868514Y-32245000D01*
X52610595Y-32296304D01*
X52367641Y-32396939D01*
X52148987Y-32543038D01*
X51963038Y-32728987D01*
X51816939Y-32947641D01*
X51716304Y-33190595D01*
X51665000Y-33448514D01*
X51665000Y-33711486D01*
X51716304Y-33969405D01*
X51755279Y-34063500D01*
X50527211Y-34063500D01*
X49267807Y-32804097D01*
X49235396Y-32764604D01*
X49077797Y-32635266D01*
X48897993Y-32539159D01*
X48702895Y-32479976D01*
X48550838Y-32465000D01*
X48550828Y-32465000D01*
X48500000Y-32459994D01*
X48449172Y-32465000D01*
X47852975Y-32465000D01*
X47851013Y-32463038D01*
X47632359Y-32316939D01*
X47389405Y-32216304D01*
X47131486Y-32165000D01*
X46868514Y-32165000D01*
X46610595Y-32216304D01*
X46367641Y-32316939D01*
X46148987Y-32463038D01*
X46147025Y-32465000D01*
X45550838Y-32465000D01*
X45500000Y-32459993D01*
X45449162Y-32465000D01*
X45297105Y-32479976D01*
X45102007Y-32539159D01*
X44922203Y-32635266D01*
X44764604Y-32764604D01*
X44635266Y-32922203D01*
X44539159Y-33102007D01*
X44479976Y-33297105D01*
X44459993Y-33500000D01*
X44465000Y-33550838D01*
X44465001Y-36491288D01*
X40352525Y-40603765D01*
X40102550Y-40229651D01*
X39770349Y-39897450D01*
X39379721Y-39636440D01*
X38945679Y-39456654D01*
X38484902Y-39365000D01*
X38015098Y-39365000D01*
X37554321Y-39456654D01*
X37120279Y-39636440D01*
X36729651Y-39897450D01*
X36397450Y-40229651D01*
X36136440Y-40620279D01*
X35956654Y-41054321D01*
X35865000Y-41515098D01*
X35865000Y-41984902D01*
X35956654Y-42445679D01*
X36136440Y-42879721D01*
X36397450Y-43270349D01*
X36729651Y-43602550D01*
X37120279Y-43863560D01*
X37554321Y-44043346D01*
X38015098Y-44135000D01*
X38484902Y-44135000D01*
X38945679Y-44043346D01*
X39379721Y-43863560D01*
X39770349Y-43602550D01*
X40102550Y-43270349D01*
X40363560Y-42879721D01*
X40373065Y-42856775D01*
X45965001Y-48448712D01*
X45965001Y-48625603D01*
X45885363Y-48705241D01*
X45728320Y-48940273D01*
X45620147Y-49201426D01*
X45565000Y-49478665D01*
X45565000Y-49761335D01*
X45620147Y-50038574D01*
X45728320Y-50299727D01*
X45885363Y-50534759D01*
X45965000Y-50614396D01*
X45965001Y-59487713D01*
X45955820Y-59490498D01*
X45845506Y-59549463D01*
X45748815Y-59628815D01*
X45669463Y-59725506D01*
X45610498Y-59835820D01*
X45574188Y-59955518D01*
X45561928Y-60080000D01*
X45561928Y-61680000D01*
X45574188Y-61804482D01*
X45610498Y-61924180D01*
X45669463Y-62034494D01*
X45748815Y-62131185D01*
X45845506Y-62210537D01*
X45955820Y-62269502D01*
X46075518Y-62305812D01*
X46200000Y-62318072D01*
X47767918Y-62318072D01*
X47704493Y-62381497D01*
X47665005Y-62413904D01*
X47632598Y-62453392D01*
X47632597Y-62453393D01*
X47535666Y-62571503D01*
X47439560Y-62751307D01*
X47380377Y-62946405D01*
X47360394Y-63149300D01*
X47365401Y-63200138D01*
X47365400Y-67109570D01*
X47141335Y-67065000D01*
X46858665Y-67065000D01*
X46581426Y-67120147D01*
X46320273Y-67228320D01*
X46085241Y-67385363D01*
X45885363Y-67585241D01*
X45728320Y-67820273D01*
X45620147Y-68081426D01*
X45565000Y-68358665D01*
X45565000Y-68641335D01*
X45620147Y-68918574D01*
X45728320Y-69179727D01*
X45885363Y-69414759D01*
X46085241Y-69614637D01*
X46320273Y-69771680D01*
X46581426Y-69879853D01*
X46858665Y-69935000D01*
X47141335Y-69935000D01*
X47365400Y-69890430D01*
X47365400Y-70170889D01*
X46871290Y-70665000D01*
X46868514Y-70665000D01*
X46610595Y-70716304D01*
X46367641Y-70816939D01*
X46148987Y-70963038D01*
X45963038Y-71148987D01*
X45816939Y-71367641D01*
X45716304Y-71610595D01*
X45665000Y-71868514D01*
X45665000Y-72131486D01*
X45716304Y-72389405D01*
X45816939Y-72632359D01*
X45963038Y-72851013D01*
X46148987Y-73036962D01*
X46367641Y-73183061D01*
X46610595Y-73283696D01*
X46868514Y-73335000D01*
X47131486Y-73335000D01*
X47178552Y-73325638D01*
X46571290Y-73932900D01*
X45896611Y-73932900D01*
X41354076Y-69390366D01*
X41385000Y-69234902D01*
X41385000Y-68765098D01*
X41293346Y-68304321D01*
X41113560Y-67870279D01*
X40852550Y-67479651D01*
X40520349Y-67147450D01*
X40129721Y-66886440D01*
X39695679Y-66706654D01*
X39234902Y-66615000D01*
X38765098Y-66615000D01*
X38304321Y-66706654D01*
X37870279Y-66886440D01*
X37479651Y-67147450D01*
X37147450Y-67479651D01*
X36886440Y-67870279D01*
X36706654Y-68304321D01*
X36615000Y-68765098D01*
X36615000Y-69234902D01*
X36706654Y-69695679D01*
X36886440Y-70129721D01*
X37147450Y-70520349D01*
X37479651Y-70852550D01*
X37870279Y-71113560D01*
X38304321Y-71293346D01*
X38765098Y-71385000D01*
X39234902Y-71385000D01*
X39695679Y-71293346D01*
X40129721Y-71113560D01*
X40141787Y-71105498D01*
X44700097Y-75663808D01*
X44732504Y-75703296D01*
X44771992Y-75735703D01*
X44890102Y-75832634D01*
X44950158Y-75864734D01*
X45069907Y-75928741D01*
X45265005Y-75987924D01*
X45417062Y-76002900D01*
X45417065Y-76002900D01*
X45467900Y-76007907D01*
X45518735Y-76002900D01*
X45965001Y-76002900D01*
X45965001Y-76227024D01*
X45963038Y-76228987D01*
X45816939Y-76447641D01*
X45716304Y-76690595D01*
X45665000Y-76948514D01*
X45665000Y-77211486D01*
X45716304Y-77469405D01*
X45816939Y-77712359D01*
X45963038Y-77931013D01*
X46148987Y-78116962D01*
X46367641Y-78263061D01*
X46610595Y-78363696D01*
X46868514Y-78415000D01*
X47131486Y-78415000D01*
X47389405Y-78363696D01*
X47632359Y-78263061D01*
X47851013Y-78116962D01*
X48036962Y-77931013D01*
X48183061Y-77712359D01*
X48283696Y-77469405D01*
X48335000Y-77211486D01*
X48335000Y-76948514D01*
X48283696Y-76690595D01*
X48183061Y-76447641D01*
X48036962Y-76228987D01*
X48035000Y-76227025D01*
X48035000Y-75396610D01*
X50652900Y-72778710D01*
X50652901Y-74217062D01*
X50647894Y-74267900D01*
X50667877Y-74470795D01*
X50727060Y-74665893D01*
X50823166Y-74845697D01*
X50917662Y-74960840D01*
X50952505Y-75003296D01*
X50991992Y-75035702D01*
X51965000Y-76008711D01*
X51965000Y-76227025D01*
X51963038Y-76228987D01*
X51816939Y-76447641D01*
X51716304Y-76690595D01*
X51665000Y-76948514D01*
X51665000Y-77211486D01*
X51716304Y-77469405D01*
X51816939Y-77712359D01*
X51963038Y-77931013D01*
X52148987Y-78116962D01*
X52367641Y-78263061D01*
X52610595Y-78363696D01*
X52868514Y-78415000D01*
X53131486Y-78415000D01*
X53389405Y-78363696D01*
X53632359Y-78263061D01*
X53851013Y-78116962D01*
X54036962Y-77931013D01*
X54183061Y-77712359D01*
X54283696Y-77469405D01*
X54304464Y-77365000D01*
X59176307Y-77365000D01*
X59322203Y-77484734D01*
X59502007Y-77580841D01*
X59697105Y-77640024D01*
X59849162Y-77655000D01*
X59849164Y-77655000D01*
X59900000Y-77660007D01*
X59950835Y-77655000D01*
X60505604Y-77655000D01*
X60585241Y-77734637D01*
X60820273Y-77891680D01*
X61081426Y-77999853D01*
X61358665Y-78055000D01*
X61641335Y-78055000D01*
X61918574Y-77999853D01*
X62179727Y-77891680D01*
X62414759Y-77734637D01*
X62494396Y-77655000D01*
X62671290Y-77655000D01*
X63798397Y-78782108D01*
X63830804Y-78821596D01*
X63870292Y-78854003D01*
X63988402Y-78950934D01*
X64084509Y-79002304D01*
X64168207Y-79047041D01*
X64363305Y-79106224D01*
X64515362Y-79121200D01*
X64515364Y-79121200D01*
X64566200Y-79126207D01*
X64617035Y-79121200D01*
X71862972Y-79121200D01*
X71913800Y-79126206D01*
X71964628Y-79121200D01*
X71964638Y-79121200D01*
X72116695Y-79106224D01*
X72311793Y-79047041D01*
X72491597Y-78950934D01*
X72649196Y-78821596D01*
X72681607Y-78782103D01*
X73528711Y-77935000D01*
X73641335Y-77935000D01*
X73918574Y-77879853D01*
X74179727Y-77771680D01*
X74414759Y-77614637D01*
X74614637Y-77414759D01*
X74771680Y-77179727D01*
X74879853Y-76918574D01*
X74892298Y-76856009D01*
X76728197Y-78691908D01*
X76760604Y-78731396D01*
X76800092Y-78763803D01*
X76918202Y-78860734D01*
X76972832Y-78889934D01*
X77098007Y-78956841D01*
X77293105Y-79016024D01*
X77445162Y-79031000D01*
X77445171Y-79031000D01*
X77495999Y-79036006D01*
X77546827Y-79031000D01*
X79321472Y-79031000D01*
X79372300Y-79036006D01*
X79423128Y-79031000D01*
X79423138Y-79031000D01*
X79575195Y-79016024D01*
X79770293Y-78956841D01*
X79950097Y-78860734D01*
X80107696Y-78731396D01*
X80140107Y-78691903D01*
X80200400Y-78631610D01*
X80289897Y-78721108D01*
X80322304Y-78760596D01*
X80361792Y-78793003D01*
X80479902Y-78889934D01*
X80576009Y-78941304D01*
X80659707Y-78986041D01*
X80854805Y-79045224D01*
X81006862Y-79060200D01*
X81006871Y-79060200D01*
X81057699Y-79065206D01*
X81108527Y-79060200D01*
X94621972Y-79060200D01*
X94672800Y-79065206D01*
X94723628Y-79060200D01*
X94723638Y-79060200D01*
X94875695Y-79045224D01*
X95070793Y-78986041D01*
X95250597Y-78889934D01*
X95408196Y-78760596D01*
X95440607Y-78721103D01*
X100178711Y-73983000D01*
X104685363Y-73983000D01*
X104699804Y-74000596D01*
X104739297Y-74033007D01*
X105715001Y-75008711D01*
X105715001Y-75227024D01*
X105713038Y-75228987D01*
X105566939Y-75447641D01*
X105466304Y-75690595D01*
X105415000Y-75948514D01*
X105415000Y-76211486D01*
X105466304Y-76469405D01*
X105566939Y-76712359D01*
X105713038Y-76931013D01*
X105898987Y-77116962D01*
X106117641Y-77263061D01*
X106360595Y-77363696D01*
X106618514Y-77415000D01*
X106881486Y-77415000D01*
X107139405Y-77363696D01*
X107382359Y-77263061D01*
X107601013Y-77116962D01*
X107786962Y-76931013D01*
X107933061Y-76712359D01*
X108033696Y-76469405D01*
X108085000Y-76211486D01*
X108085000Y-75948514D01*
X108033696Y-75690595D01*
X107933061Y-75447641D01*
X107786962Y-75228987D01*
X107785000Y-75227025D01*
X107785000Y-74630835D01*
X107790007Y-74580000D01*
X107779251Y-74470795D01*
X107770024Y-74377105D01*
X107710841Y-74182007D01*
X107640730Y-74050838D01*
X107614734Y-74002202D01*
X107517803Y-73884092D01*
X107485396Y-73844604D01*
X107445908Y-73812197D01*
X106470200Y-72836490D01*
X106470200Y-72305498D01*
X106618514Y-72335000D01*
X106881486Y-72335000D01*
X107139405Y-72283696D01*
X107382359Y-72183061D01*
X107416872Y-72160000D01*
X110509372Y-72160000D01*
X110560200Y-72165006D01*
X110611028Y-72160000D01*
X110611038Y-72160000D01*
X110763095Y-72145024D01*
X110958193Y-72085841D01*
X111137997Y-71989734D01*
X111295596Y-71860396D01*
X111328007Y-71820903D01*
X113395308Y-69753603D01*
X113434796Y-69721196D01*
X113480915Y-69665000D01*
X113564134Y-69563598D01*
X113619201Y-69460574D01*
X113713038Y-69601013D01*
X113715000Y-69602975D01*
X113715001Y-71505603D01*
X113635363Y-71585241D01*
X113478320Y-71820273D01*
X113370147Y-72081426D01*
X113315000Y-72358665D01*
X113315000Y-72641335D01*
X113370147Y-72918574D01*
X113478320Y-73179727D01*
X113635363Y-73414759D01*
X113835241Y-73614637D01*
X114037827Y-73750000D01*
X113835241Y-73885363D01*
X113635363Y-74085241D01*
X113478320Y-74320273D01*
X113370147Y-74581426D01*
X113315000Y-74858665D01*
X113315000Y-75141335D01*
X113370147Y-75418574D01*
X113478320Y-75679727D01*
X113635363Y-75914759D01*
X113835241Y-76114637D01*
X114070273Y-76271680D01*
X114331426Y-76379853D01*
X114608665Y-76435000D01*
X114891335Y-76435000D01*
X115168574Y-76379853D01*
X115429727Y-76271680D01*
X115664759Y-76114637D01*
X115864637Y-75914759D01*
X116021680Y-75679727D01*
X116129853Y-75418574D01*
X116185000Y-75141335D01*
X116185000Y-75028710D01*
X125695908Y-65517803D01*
X125735396Y-65485396D01*
X125767803Y-65445908D01*
X125864734Y-65327798D01*
X125924328Y-65216304D01*
X125960841Y-65147993D01*
X126020024Y-64952895D01*
X126035000Y-64800838D01*
X126035000Y-64800829D01*
X126040006Y-64750001D01*
X126035000Y-64699173D01*
X126035000Y-63515098D01*
X127865000Y-63515098D01*
X127865000Y-63984902D01*
X127956654Y-64445679D01*
X128136440Y-64879721D01*
X128397450Y-65270349D01*
X128729651Y-65602550D01*
X129120279Y-65863560D01*
X129554321Y-66043346D01*
X130015098Y-66135000D01*
X130484902Y-66135000D01*
X130945679Y-66043346D01*
X131379721Y-65863560D01*
X131770349Y-65602550D01*
X132102550Y-65270349D01*
X132363560Y-64879721D01*
X132543346Y-64445679D01*
X132635000Y-63984902D01*
X132635000Y-63515098D01*
X132543346Y-63054321D01*
X132363560Y-62620279D01*
X132102550Y-62229651D01*
X131770349Y-61897450D01*
X131379721Y-61636440D01*
X130945679Y-61456654D01*
X130484902Y-61365000D01*
X130015098Y-61365000D01*
X129554321Y-61456654D01*
X129120279Y-61636440D01*
X128729651Y-61897450D01*
X128397450Y-62229651D01*
X128136440Y-62620279D01*
X127956654Y-63054321D01*
X127865000Y-63515098D01*
X126035000Y-63515098D01*
X126035000Y-58535000D01*
X127449172Y-58535000D01*
X127500000Y-58540006D01*
X127550828Y-58535000D01*
X127550838Y-58535000D01*
X127702895Y-58520024D01*
X127897993Y-58460841D01*
X128077797Y-58364734D01*
X128235396Y-58235396D01*
X128267807Y-58195903D01*
X129459599Y-57004111D01*
X129554321Y-57043346D01*
X130015098Y-57135000D01*
X130484902Y-57135000D01*
X130945679Y-57043346D01*
X131379721Y-56863560D01*
X131770349Y-56602550D01*
X132102550Y-56270349D01*
X132363560Y-55879721D01*
X132543346Y-55445679D01*
X132635000Y-54984902D01*
X132635000Y-54515098D01*
X132543346Y-54054321D01*
X132363560Y-53620279D01*
X132102550Y-53229651D01*
X131770349Y-52897450D01*
X131379721Y-52636440D01*
X130945679Y-52456654D01*
X130484902Y-52365000D01*
X130015098Y-52365000D01*
X129554321Y-52456654D01*
X129120279Y-52636440D01*
X128729651Y-52897450D01*
X128397450Y-53229651D01*
X128136440Y-53620279D01*
X127956654Y-54054321D01*
X127865000Y-54515098D01*
X127865000Y-54984902D01*
X127956654Y-55445679D01*
X127995889Y-55540401D01*
X127071290Y-56465000D01*
X125852975Y-56465000D01*
X125851013Y-56463038D01*
X125632359Y-56316939D01*
X125389405Y-56216304D01*
X125131486Y-56165000D01*
X124868514Y-56165000D01*
X124610595Y-56216304D01*
X124367641Y-56316939D01*
X124148987Y-56463038D01*
X123963038Y-56648987D01*
X123816939Y-56867641D01*
X123716304Y-57110595D01*
X123665000Y-57368514D01*
X123665000Y-57631486D01*
X123716304Y-57889405D01*
X123816939Y-58132359D01*
X123963038Y-58351013D01*
X123965000Y-58352975D01*
X123965001Y-64321288D01*
X116142298Y-72143992D01*
X116129853Y-72081426D01*
X116021680Y-71820273D01*
X115864637Y-71585241D01*
X115785000Y-71505604D01*
X115785000Y-69602975D01*
X115786962Y-69601013D01*
X115933061Y-69382359D01*
X116033696Y-69139405D01*
X116085000Y-68881486D01*
X116085000Y-68618514D01*
X116033696Y-68360595D01*
X115933061Y-68117641D01*
X115786962Y-67898987D01*
X115601013Y-67713038D01*
X115382359Y-67566939D01*
X115139405Y-67466304D01*
X114881486Y-67415000D01*
X114618514Y-67415000D01*
X114360595Y-67466304D01*
X114117641Y-67566939D01*
X113898987Y-67713038D01*
X113734400Y-67877625D01*
X113734400Y-61579310D01*
X116585045Y-58728665D01*
X119565000Y-58728665D01*
X119565000Y-59011335D01*
X119620147Y-59288574D01*
X119728320Y-59549727D01*
X119885363Y-59784759D01*
X120085241Y-59984637D01*
X120320273Y-60141680D01*
X120581426Y-60249853D01*
X120858665Y-60305000D01*
X121141335Y-60305000D01*
X121418574Y-60249853D01*
X121679727Y-60141680D01*
X121914759Y-59984637D01*
X122114637Y-59784759D01*
X122271680Y-59549727D01*
X122379853Y-59288574D01*
X122435000Y-59011335D01*
X122435000Y-58728665D01*
X122379853Y-58451426D01*
X122271680Y-58190273D01*
X122114637Y-57955241D01*
X121914759Y-57755363D01*
X121679727Y-57598320D01*
X121418574Y-57490147D01*
X121141335Y-57435000D01*
X120858665Y-57435000D01*
X120581426Y-57490147D01*
X120320273Y-57598320D01*
X120085241Y-57755363D01*
X119885363Y-57955241D01*
X119728320Y-58190273D01*
X119620147Y-58451426D01*
X119565000Y-58728665D01*
X116585045Y-58728665D01*
X121695908Y-53617803D01*
X121735396Y-53585396D01*
X121822179Y-53479651D01*
X121864734Y-53427798D01*
X121948180Y-53271680D01*
X121960841Y-53247993D01*
X122020024Y-53052895D01*
X122035000Y-52900838D01*
X122035000Y-52900829D01*
X122040006Y-52850001D01*
X122035000Y-52799173D01*
X122035000Y-52642287D01*
X122044180Y-52639502D01*
X122154494Y-52580537D01*
X122251185Y-52501185D01*
X122330537Y-52404494D01*
X122389502Y-52294180D01*
X122391220Y-52288514D01*
X123665000Y-52288514D01*
X123665000Y-52551486D01*
X123716304Y-52809405D01*
X123816939Y-53052359D01*
X123963038Y-53271013D01*
X124148987Y-53456962D01*
X124367641Y-53603061D01*
X124610595Y-53703696D01*
X124868514Y-53755000D01*
X125131486Y-53755000D01*
X125389405Y-53703696D01*
X125632359Y-53603061D01*
X125851013Y-53456962D01*
X126036962Y-53271013D01*
X126183061Y-53052359D01*
X126283696Y-52809405D01*
X126335000Y-52551486D01*
X126335000Y-52288514D01*
X126283696Y-52030595D01*
X126183061Y-51787641D01*
X126036962Y-51568987D01*
X125851013Y-51383038D01*
X125632359Y-51236939D01*
X125389405Y-51136304D01*
X125131486Y-51085000D01*
X124868514Y-51085000D01*
X124610595Y-51136304D01*
X124367641Y-51236939D01*
X124148987Y-51383038D01*
X123963038Y-51568987D01*
X123816939Y-51787641D01*
X123716304Y-52030595D01*
X123665000Y-52288514D01*
X122391220Y-52288514D01*
X122425812Y-52174482D01*
X122438072Y-52050000D01*
X122438072Y-50450000D01*
X122425812Y-50325518D01*
X122389502Y-50205820D01*
X122330537Y-50095506D01*
X122251185Y-49998815D01*
X122154494Y-49919463D01*
X122044180Y-49860498D01*
X122035000Y-49857713D01*
X122035000Y-49700827D01*
X122040006Y-49649999D01*
X122035000Y-49599171D01*
X122035000Y-49599162D01*
X122020024Y-49447105D01*
X121960841Y-49252007D01*
X121889488Y-49118514D01*
X121864734Y-49072202D01*
X121767803Y-48954092D01*
X121735396Y-48914604D01*
X121695908Y-48882197D01*
X115535000Y-42721290D01*
X115535000Y-42352975D01*
X115536962Y-42351013D01*
X115683061Y-42132359D01*
X115783696Y-41889405D01*
X115835000Y-41631486D01*
X115835000Y-41368514D01*
X115783696Y-41110595D01*
X115683061Y-40867641D01*
X115536962Y-40648987D01*
X115351013Y-40463038D01*
X115132359Y-40316939D01*
X114889405Y-40216304D01*
X114631486Y-40165000D01*
X114368514Y-40165000D01*
X114110595Y-40216304D01*
X113867641Y-40316939D01*
X113648987Y-40463038D01*
X113463038Y-40648987D01*
X113316939Y-40867641D01*
X113216304Y-41110595D01*
X113165000Y-41368514D01*
X113165000Y-41631486D01*
X113216304Y-41889405D01*
X113316939Y-42132359D01*
X113463038Y-42351013D01*
X113465001Y-42352976D01*
X113465001Y-43099163D01*
X113459994Y-43150000D01*
X113479977Y-43352895D01*
X113539160Y-43547993D01*
X113635266Y-43727797D01*
X113663342Y-43762007D01*
X113764605Y-43885396D01*
X113804093Y-43917803D01*
X119823671Y-49937382D01*
X119748815Y-49998815D01*
X119669463Y-50095506D01*
X119610498Y-50205820D01*
X119574188Y-50325518D01*
X119561928Y-50450000D01*
X119561928Y-52050000D01*
X119574188Y-52174482D01*
X119610498Y-52294180D01*
X119669463Y-52404494D01*
X119748815Y-52501185D01*
X119823671Y-52562618D01*
X112019500Y-60366790D01*
X112019500Y-52535327D01*
X112024506Y-52484499D01*
X112019500Y-52433671D01*
X112019500Y-52433662D01*
X112004524Y-52281605D01*
X111945341Y-52086507D01*
X111857055Y-51921335D01*
X111849234Y-51906702D01*
X111752303Y-51788592D01*
X111719896Y-51749104D01*
X111680408Y-51716697D01*
X102606008Y-42642298D01*
X102668574Y-42629853D01*
X102929727Y-42521680D01*
X103164759Y-42364637D01*
X103364637Y-42164759D01*
X103521680Y-41929727D01*
X103629853Y-41668574D01*
X103685000Y-41391335D01*
X103685000Y-41108665D01*
X103629853Y-40831426D01*
X103521680Y-40570273D01*
X103364637Y-40335241D01*
X103164759Y-40135363D01*
X102929727Y-39978320D01*
X102668574Y-39870147D01*
X102391335Y-39815000D01*
X102108665Y-39815000D01*
X101831426Y-39870147D01*
X101570273Y-39978320D01*
X101335241Y-40135363D01*
X101135363Y-40335241D01*
X101000000Y-40537827D01*
X100864637Y-40335241D01*
X100664759Y-40135363D01*
X100429727Y-39978320D01*
X100168574Y-39870147D01*
X99891335Y-39815000D01*
X99608665Y-39815000D01*
X99331426Y-39870147D01*
X99070273Y-39978320D01*
X98835241Y-40135363D01*
X98635363Y-40335241D01*
X98478320Y-40570273D01*
X98370147Y-40831426D01*
X98315000Y-41108665D01*
X98315000Y-41391335D01*
X98370147Y-41668574D01*
X98478320Y-41929727D01*
X98635363Y-42164759D01*
X98835241Y-42364637D01*
X99070273Y-42521680D01*
X99331426Y-42629853D01*
X99608665Y-42685000D01*
X99721290Y-42685000D01*
X109949501Y-52913212D01*
X109949500Y-66235789D01*
X95285000Y-51571290D01*
X95285000Y-50102975D01*
X95286962Y-50101013D01*
X95433061Y-49882359D01*
X95533696Y-49639405D01*
X95585000Y-49381486D01*
X95585000Y-49118514D01*
X95533696Y-48860595D01*
X95433061Y-48617641D01*
X95286962Y-48398987D01*
X95285000Y-48397025D01*
X95285000Y-47602975D01*
X95286962Y-47601013D01*
X95433061Y-47382359D01*
X95533696Y-47139405D01*
X95585000Y-46881486D01*
X95585000Y-46618514D01*
X95533696Y-46360595D01*
X95433061Y-46117641D01*
X95286962Y-45898987D01*
X95285000Y-45897025D01*
X95285000Y-45102975D01*
X95286962Y-45101013D01*
X95433061Y-44882359D01*
X95533696Y-44639405D01*
X95585000Y-44381486D01*
X95585000Y-44118514D01*
X95533696Y-43860595D01*
X95433061Y-43617641D01*
X95286962Y-43398987D01*
X95285000Y-43397025D01*
X95285000Y-42352975D01*
X95286962Y-42351013D01*
X95433061Y-42132359D01*
X95533696Y-41889405D01*
X95585000Y-41631486D01*
X95585000Y-41368514D01*
X95533696Y-41110595D01*
X95433061Y-40867641D01*
X95286962Y-40648987D01*
X95285000Y-40647025D01*
X95285000Y-39852975D01*
X95286962Y-39851013D01*
X95433061Y-39632359D01*
X95533696Y-39389405D01*
X95585000Y-39131486D01*
X95585000Y-38948514D01*
X106665000Y-38948514D01*
X106665000Y-39211486D01*
X106716304Y-39469405D01*
X106816939Y-39712359D01*
X106963038Y-39931013D01*
X107148987Y-40116962D01*
X107367641Y-40263061D01*
X107610595Y-40363696D01*
X107868514Y-40415000D01*
X108131486Y-40415000D01*
X108389405Y-40363696D01*
X108632359Y-40263061D01*
X108851013Y-40116962D01*
X109036962Y-39931013D01*
X109183061Y-39712359D01*
X109283696Y-39469405D01*
X109335000Y-39211486D01*
X109335000Y-39208710D01*
X113008711Y-35535000D01*
X113505604Y-35535000D01*
X113585241Y-35614637D01*
X113787827Y-35750000D01*
X113585241Y-35885363D01*
X113385363Y-36085241D01*
X113228320Y-36320273D01*
X113120147Y-36581426D01*
X113065000Y-36858665D01*
X113065000Y-37141335D01*
X113117354Y-37404535D01*
X110224092Y-40297798D01*
X110184605Y-40330204D01*
X110152198Y-40369692D01*
X110152197Y-40369693D01*
X110144800Y-40378706D01*
X110052359Y-40316939D01*
X109809405Y-40216304D01*
X109551486Y-40165000D01*
X109288514Y-40165000D01*
X109030595Y-40216304D01*
X108787641Y-40316939D01*
X108568987Y-40463038D01*
X108383038Y-40648987D01*
X108236939Y-40867641D01*
X108136304Y-41110595D01*
X108085000Y-41368514D01*
X108085000Y-41631486D01*
X108136304Y-41889405D01*
X108236939Y-42132359D01*
X108383038Y-42351013D01*
X108568987Y-42536962D01*
X108787641Y-42683061D01*
X109030595Y-42783696D01*
X109288514Y-42835000D01*
X109551486Y-42835000D01*
X109809405Y-42783696D01*
X110052359Y-42683061D01*
X110271013Y-42536962D01*
X110272975Y-42535000D01*
X110869162Y-42535000D01*
X110920000Y-42540007D01*
X110970838Y-42535000D01*
X111122895Y-42520024D01*
X111317993Y-42460841D01*
X111497797Y-42364734D01*
X111655396Y-42235396D01*
X111784734Y-42077797D01*
X111880841Y-41897993D01*
X111940024Y-41702895D01*
X111960007Y-41500000D01*
X111959048Y-41490262D01*
X114928711Y-38520600D01*
X121556890Y-38520600D01*
X127995889Y-44959600D01*
X127956654Y-45054321D01*
X127865000Y-45515098D01*
X127865000Y-45984902D01*
X127956654Y-46445679D01*
X128136440Y-46879721D01*
X128397450Y-47270349D01*
X128729651Y-47602550D01*
X129120279Y-47863560D01*
X129554321Y-48043346D01*
X130015098Y-48135000D01*
X130484902Y-48135000D01*
X130945679Y-48043346D01*
X131379721Y-47863560D01*
X131770349Y-47602550D01*
X132102550Y-47270349D01*
X132363560Y-46879721D01*
X132543346Y-46445679D01*
X132635000Y-45984902D01*
X132635000Y-45515098D01*
X132543346Y-45054321D01*
X132363560Y-44620279D01*
X132102550Y-44229651D01*
X131770349Y-43897450D01*
X131379721Y-43636440D01*
X130945679Y-43456654D01*
X130484902Y-43365000D01*
X130015098Y-43365000D01*
X129554321Y-43456654D01*
X129459600Y-43495889D01*
X122753407Y-36789697D01*
X122720996Y-36750204D01*
X122563397Y-36620866D01*
X122383593Y-36524759D01*
X122188495Y-36465576D01*
X122036438Y-36450600D01*
X122036428Y-36450600D01*
X121985600Y-36445594D01*
X121934772Y-36450600D01*
X115825663Y-36450600D01*
X115771680Y-36320273D01*
X115614637Y-36085241D01*
X115414759Y-35885363D01*
X115212173Y-35750000D01*
X115414759Y-35614637D01*
X115614637Y-35414759D01*
X115771680Y-35179727D01*
X115879853Y-34918574D01*
X115935000Y-34641335D01*
X115935000Y-34358665D01*
X115879853Y-34081426D01*
X115771680Y-33820273D01*
X115614637Y-33585241D01*
X115414759Y-33385363D01*
X115179727Y-33228320D01*
X114918574Y-33120147D01*
X114641335Y-33065000D01*
X114358665Y-33065000D01*
X114081426Y-33120147D01*
X113820273Y-33228320D01*
X113585241Y-33385363D01*
X113505604Y-33465000D01*
X112630827Y-33465000D01*
X112579999Y-33459994D01*
X112529171Y-33465000D01*
X112529162Y-33465000D01*
X112377105Y-33479976D01*
X112182007Y-33539159D01*
X112114573Y-33575203D01*
X112002202Y-33635266D01*
X111884092Y-33732197D01*
X111844604Y-33764604D01*
X111812197Y-33804092D01*
X107871290Y-37745000D01*
X107868514Y-37745000D01*
X107610595Y-37796304D01*
X107367641Y-37896939D01*
X107148987Y-38043038D01*
X106963038Y-38228987D01*
X106816939Y-38447641D01*
X106716304Y-38690595D01*
X106665000Y-38948514D01*
X95585000Y-38948514D01*
X95585000Y-38868514D01*
X95533696Y-38610595D01*
X95433061Y-38367641D01*
X95286962Y-38148987D01*
X95285000Y-38147025D01*
X95285000Y-37352975D01*
X95286962Y-37351013D01*
X95433061Y-37132359D01*
X95533696Y-36889405D01*
X95585000Y-36631486D01*
X95585000Y-36368514D01*
X95533696Y-36110595D01*
X95433061Y-35867641D01*
X95286962Y-35648987D01*
X95285000Y-35647025D01*
X95285000Y-34852975D01*
X95286962Y-34851013D01*
X95433061Y-34632359D01*
X95533696Y-34389405D01*
X95585000Y-34131486D01*
X95585000Y-33868514D01*
X95548755Y-33686300D01*
X104722590Y-33686300D01*
X105732197Y-34695908D01*
X105764604Y-34735396D01*
X105804092Y-34767803D01*
X105922202Y-34864734D01*
X105984426Y-34897993D01*
X106102007Y-34960841D01*
X106297105Y-35020024D01*
X106449162Y-35035000D01*
X106449165Y-35035000D01*
X106500000Y-35040007D01*
X106550835Y-35035000D01*
X107147025Y-35035000D01*
X107148987Y-35036962D01*
X107367641Y-35183061D01*
X107610595Y-35283696D01*
X107868514Y-35335000D01*
X108131486Y-35335000D01*
X108389405Y-35283696D01*
X108632359Y-35183061D01*
X108851013Y-35036962D01*
X109036962Y-34851013D01*
X109183061Y-34632359D01*
X109283696Y-34389405D01*
X109335000Y-34131486D01*
X109335000Y-33868514D01*
X109283696Y-33610595D01*
X109183061Y-33367641D01*
X109036962Y-33148987D01*
X108851013Y-32963038D01*
X108632359Y-32816939D01*
X108389405Y-32716304D01*
X108131486Y-32665000D01*
X107868514Y-32665000D01*
X107610595Y-32716304D01*
X107367641Y-32816939D01*
X107148987Y-32963038D01*
X107147025Y-32965000D01*
X106928711Y-32965000D01*
X105919107Y-31955397D01*
X105886696Y-31915904D01*
X105729097Y-31786566D01*
X105549293Y-31690459D01*
X105448884Y-31660000D01*
X134340000Y-31660000D01*
X134340001Y-79340000D01*
X35660000Y-79340000D01*
X35660000Y-54765098D01*
X36115000Y-54765098D01*
X36115000Y-55234902D01*
X36206654Y-55695679D01*
X36386440Y-56129721D01*
X36647450Y-56520349D01*
X36979651Y-56852550D01*
X37370279Y-57113560D01*
X37804321Y-57293346D01*
X38265098Y-57385000D01*
X38734902Y-57385000D01*
X39195679Y-57293346D01*
X39629721Y-57113560D01*
X40020349Y-56852550D01*
X40352550Y-56520349D01*
X40613560Y-56129721D01*
X40793346Y-55695679D01*
X40885000Y-55234902D01*
X40885000Y-54765098D01*
X40793346Y-54304321D01*
X40613560Y-53870279D01*
X40352550Y-53479651D01*
X40020349Y-53147450D01*
X39629721Y-52886440D01*
X39195679Y-52706654D01*
X38734902Y-52615000D01*
X38265098Y-52615000D01*
X37804321Y-52706654D01*
X37370279Y-52886440D01*
X36979651Y-53147450D01*
X36647450Y-53479651D01*
X36386440Y-53870279D01*
X36206654Y-54304321D01*
X36115000Y-54765098D01*
X35660000Y-54765098D01*
X35660000Y-31660000D01*
X68519597Y-31660000D01*
X68461102Y-31691266D01*
%TA.AperFunction,Conductor*%
D19*
G36*
X68461102Y-31691266D02*
G01*
X68407976Y-31734866D01*
X68303504Y-31820604D01*
X68271097Y-31860092D01*
X66745997Y-33385193D01*
X66706504Y-33417604D01*
X66577166Y-33575203D01*
X66481059Y-33755008D01*
X66421876Y-33950106D01*
X66406900Y-34102163D01*
X66406900Y-34102172D01*
X66401894Y-34153000D01*
X66406900Y-34203828D01*
X66406901Y-35749388D01*
X63398935Y-38757355D01*
X63379853Y-38661426D01*
X63271680Y-38400273D01*
X63114637Y-38165241D01*
X62914759Y-37965363D01*
X62682241Y-37810000D01*
X62914759Y-37654637D01*
X63114637Y-37454759D01*
X63271680Y-37219727D01*
X63379853Y-36958574D01*
X63435000Y-36681335D01*
X63435000Y-36398665D01*
X63379853Y-36121426D01*
X63271680Y-35860273D01*
X63114637Y-35625241D01*
X62916039Y-35426643D01*
X62924482Y-35425812D01*
X63044180Y-35389502D01*
X63154494Y-35330537D01*
X63251185Y-35251185D01*
X63330537Y-35154494D01*
X63389502Y-35044180D01*
X63425812Y-34924482D01*
X63438072Y-34800000D01*
X63438072Y-33200000D01*
X63425812Y-33075518D01*
X63389502Y-32955820D01*
X63330537Y-32845506D01*
X63251185Y-32748815D01*
X63154494Y-32669463D01*
X63044180Y-32610498D01*
X62924482Y-32574188D01*
X62800000Y-32561928D01*
X61200000Y-32561928D01*
X61075518Y-32574188D01*
X60955820Y-32610498D01*
X60845506Y-32669463D01*
X60748815Y-32748815D01*
X60669463Y-32845506D01*
X60610498Y-32955820D01*
X60574188Y-33075518D01*
X60561928Y-33200000D01*
X60561928Y-34800000D01*
X60574188Y-34924482D01*
X60610498Y-35044180D01*
X60669463Y-35154494D01*
X60748815Y-35251185D01*
X60845506Y-35330537D01*
X60955820Y-35389502D01*
X61075518Y-35425812D01*
X61083961Y-35426643D01*
X60885363Y-35625241D01*
X60728320Y-35860273D01*
X60620147Y-36121426D01*
X60565000Y-36398665D01*
X60565000Y-36681335D01*
X60620147Y-36958574D01*
X60728320Y-37219727D01*
X60885363Y-37454759D01*
X61085241Y-37654637D01*
X61317759Y-37810000D01*
X61085241Y-37965363D01*
X61005604Y-38045000D01*
X60828711Y-38045000D01*
X57186307Y-34402597D01*
X57153896Y-34363104D01*
X56996297Y-34233766D01*
X56816493Y-34137659D01*
X56621395Y-34078476D01*
X56469338Y-34063500D01*
X56469328Y-34063500D01*
X56418500Y-34058494D01*
X56367672Y-34063500D01*
X54244721Y-34063500D01*
X54283696Y-33969405D01*
X54335000Y-33711486D01*
X54335000Y-33448514D01*
X54283696Y-33190595D01*
X54183061Y-32947641D01*
X54036962Y-32728987D01*
X53851013Y-32543038D01*
X53632359Y-32396939D01*
X53389405Y-32296304D01*
X53131486Y-32245000D01*
X52868514Y-32245000D01*
X52610595Y-32296304D01*
X52367641Y-32396939D01*
X52148987Y-32543038D01*
X51963038Y-32728987D01*
X51816939Y-32947641D01*
X51716304Y-33190595D01*
X51665000Y-33448514D01*
X51665000Y-33711486D01*
X51716304Y-33969405D01*
X51755279Y-34063500D01*
X50527211Y-34063500D01*
X49267807Y-32804097D01*
X49235396Y-32764604D01*
X49077797Y-32635266D01*
X48897993Y-32539159D01*
X48702895Y-32479976D01*
X48550838Y-32465000D01*
X48550828Y-32465000D01*
X48500000Y-32459994D01*
X48449172Y-32465000D01*
X47852975Y-32465000D01*
X47851013Y-32463038D01*
X47632359Y-32316939D01*
X47389405Y-32216304D01*
X47131486Y-32165000D01*
X46868514Y-32165000D01*
X46610595Y-32216304D01*
X46367641Y-32316939D01*
X46148987Y-32463038D01*
X46147025Y-32465000D01*
X45550838Y-32465000D01*
X45500000Y-32459993D01*
X45449162Y-32465000D01*
X45297105Y-32479976D01*
X45102007Y-32539159D01*
X44922203Y-32635266D01*
X44764604Y-32764604D01*
X44635266Y-32922203D01*
X44539159Y-33102007D01*
X44479976Y-33297105D01*
X44459993Y-33500000D01*
X44465000Y-33550838D01*
X44465001Y-36491288D01*
X40352525Y-40603765D01*
X40102550Y-40229651D01*
X39770349Y-39897450D01*
X39379721Y-39636440D01*
X38945679Y-39456654D01*
X38484902Y-39365000D01*
X38015098Y-39365000D01*
X37554321Y-39456654D01*
X37120279Y-39636440D01*
X36729651Y-39897450D01*
X36397450Y-40229651D01*
X36136440Y-40620279D01*
X35956654Y-41054321D01*
X35865000Y-41515098D01*
X35865000Y-41984902D01*
X35956654Y-42445679D01*
X36136440Y-42879721D01*
X36397450Y-43270349D01*
X36729651Y-43602550D01*
X37120279Y-43863560D01*
X37554321Y-44043346D01*
X38015098Y-44135000D01*
X38484902Y-44135000D01*
X38945679Y-44043346D01*
X39379721Y-43863560D01*
X39770349Y-43602550D01*
X40102550Y-43270349D01*
X40363560Y-42879721D01*
X40373065Y-42856775D01*
X45965001Y-48448712D01*
X45965001Y-48625603D01*
X45885363Y-48705241D01*
X45728320Y-48940273D01*
X45620147Y-49201426D01*
X45565000Y-49478665D01*
X45565000Y-49761335D01*
X45620147Y-50038574D01*
X45728320Y-50299727D01*
X45885363Y-50534759D01*
X45965000Y-50614396D01*
X45965001Y-59487713D01*
X45955820Y-59490498D01*
X45845506Y-59549463D01*
X45748815Y-59628815D01*
X45669463Y-59725506D01*
X45610498Y-59835820D01*
X45574188Y-59955518D01*
X45561928Y-60080000D01*
X45561928Y-61680000D01*
X45574188Y-61804482D01*
X45610498Y-61924180D01*
X45669463Y-62034494D01*
X45748815Y-62131185D01*
X45845506Y-62210537D01*
X45955820Y-62269502D01*
X46075518Y-62305812D01*
X46200000Y-62318072D01*
X47767918Y-62318072D01*
X47704493Y-62381497D01*
X47665005Y-62413904D01*
X47632598Y-62453392D01*
X47632597Y-62453393D01*
X47535666Y-62571503D01*
X47439560Y-62751307D01*
X47380377Y-62946405D01*
X47360394Y-63149300D01*
X47365401Y-63200138D01*
X47365400Y-67109570D01*
X47141335Y-67065000D01*
X46858665Y-67065000D01*
X46581426Y-67120147D01*
X46320273Y-67228320D01*
X46085241Y-67385363D01*
X45885363Y-67585241D01*
X45728320Y-67820273D01*
X45620147Y-68081426D01*
X45565000Y-68358665D01*
X45565000Y-68641335D01*
X45620147Y-68918574D01*
X45728320Y-69179727D01*
X45885363Y-69414759D01*
X46085241Y-69614637D01*
X46320273Y-69771680D01*
X46581426Y-69879853D01*
X46858665Y-69935000D01*
X47141335Y-69935000D01*
X47365400Y-69890430D01*
X47365400Y-70170889D01*
X46871290Y-70665000D01*
X46868514Y-70665000D01*
X46610595Y-70716304D01*
X46367641Y-70816939D01*
X46148987Y-70963038D01*
X45963038Y-71148987D01*
X45816939Y-71367641D01*
X45716304Y-71610595D01*
X45665000Y-71868514D01*
X45665000Y-72131486D01*
X45716304Y-72389405D01*
X45816939Y-72632359D01*
X45963038Y-72851013D01*
X46148987Y-73036962D01*
X46367641Y-73183061D01*
X46610595Y-73283696D01*
X46868514Y-73335000D01*
X47131486Y-73335000D01*
X47178552Y-73325638D01*
X46571290Y-73932900D01*
X45896611Y-73932900D01*
X41354076Y-69390366D01*
X41385000Y-69234902D01*
X41385000Y-68765098D01*
X41293346Y-68304321D01*
X41113560Y-67870279D01*
X40852550Y-67479651D01*
X40520349Y-67147450D01*
X40129721Y-66886440D01*
X39695679Y-66706654D01*
X39234902Y-66615000D01*
X38765098Y-66615000D01*
X38304321Y-66706654D01*
X37870279Y-66886440D01*
X37479651Y-67147450D01*
X37147450Y-67479651D01*
X36886440Y-67870279D01*
X36706654Y-68304321D01*
X36615000Y-68765098D01*
X36615000Y-69234902D01*
X36706654Y-69695679D01*
X36886440Y-70129721D01*
X37147450Y-70520349D01*
X37479651Y-70852550D01*
X37870279Y-71113560D01*
X38304321Y-71293346D01*
X38765098Y-71385000D01*
X39234902Y-71385000D01*
X39695679Y-71293346D01*
X40129721Y-71113560D01*
X40141787Y-71105498D01*
X44700097Y-75663808D01*
X44732504Y-75703296D01*
X44771992Y-75735703D01*
X44890102Y-75832634D01*
X44950158Y-75864734D01*
X45069907Y-75928741D01*
X45265005Y-75987924D01*
X45417062Y-76002900D01*
X45417065Y-76002900D01*
X45467900Y-76007907D01*
X45518735Y-76002900D01*
X45965001Y-76002900D01*
X45965001Y-76227024D01*
X45963038Y-76228987D01*
X45816939Y-76447641D01*
X45716304Y-76690595D01*
X45665000Y-76948514D01*
X45665000Y-77211486D01*
X45716304Y-77469405D01*
X45816939Y-77712359D01*
X45963038Y-77931013D01*
X46148987Y-78116962D01*
X46367641Y-78263061D01*
X46610595Y-78363696D01*
X46868514Y-78415000D01*
X47131486Y-78415000D01*
X47389405Y-78363696D01*
X47632359Y-78263061D01*
X47851013Y-78116962D01*
X48036962Y-77931013D01*
X48183061Y-77712359D01*
X48283696Y-77469405D01*
X48335000Y-77211486D01*
X48335000Y-76948514D01*
X48283696Y-76690595D01*
X48183061Y-76447641D01*
X48036962Y-76228987D01*
X48035000Y-76227025D01*
X48035000Y-75396610D01*
X50652900Y-72778710D01*
X50652901Y-74217062D01*
X50647894Y-74267900D01*
X50667877Y-74470795D01*
X50727060Y-74665893D01*
X50823166Y-74845697D01*
X50917662Y-74960840D01*
X50952505Y-75003296D01*
X50991992Y-75035702D01*
X51965000Y-76008711D01*
X51965000Y-76227025D01*
X51963038Y-76228987D01*
X51816939Y-76447641D01*
X51716304Y-76690595D01*
X51665000Y-76948514D01*
X51665000Y-77211486D01*
X51716304Y-77469405D01*
X51816939Y-77712359D01*
X51963038Y-77931013D01*
X52148987Y-78116962D01*
X52367641Y-78263061D01*
X52610595Y-78363696D01*
X52868514Y-78415000D01*
X53131486Y-78415000D01*
X53389405Y-78363696D01*
X53632359Y-78263061D01*
X53851013Y-78116962D01*
X54036962Y-77931013D01*
X54183061Y-77712359D01*
X54283696Y-77469405D01*
X54304464Y-77365000D01*
X59176307Y-77365000D01*
X59322203Y-77484734D01*
X59502007Y-77580841D01*
X59697105Y-77640024D01*
X59849162Y-77655000D01*
X59849164Y-77655000D01*
X59900000Y-77660007D01*
X59950835Y-77655000D01*
X60505604Y-77655000D01*
X60585241Y-77734637D01*
X60820273Y-77891680D01*
X61081426Y-77999853D01*
X61358665Y-78055000D01*
X61641335Y-78055000D01*
X61918574Y-77999853D01*
X62179727Y-77891680D01*
X62414759Y-77734637D01*
X62494396Y-77655000D01*
X62671290Y-77655000D01*
X63798397Y-78782108D01*
X63830804Y-78821596D01*
X63870292Y-78854003D01*
X63988402Y-78950934D01*
X64084509Y-79002304D01*
X64168207Y-79047041D01*
X64363305Y-79106224D01*
X64515362Y-79121200D01*
X64515364Y-79121200D01*
X64566200Y-79126207D01*
X64617035Y-79121200D01*
X71862972Y-79121200D01*
X71913800Y-79126206D01*
X71964628Y-79121200D01*
X71964638Y-79121200D01*
X72116695Y-79106224D01*
X72311793Y-79047041D01*
X72491597Y-78950934D01*
X72649196Y-78821596D01*
X72681607Y-78782103D01*
X73528711Y-77935000D01*
X73641335Y-77935000D01*
X73918574Y-77879853D01*
X74179727Y-77771680D01*
X74414759Y-77614637D01*
X74614637Y-77414759D01*
X74771680Y-77179727D01*
X74879853Y-76918574D01*
X74892298Y-76856009D01*
X76728197Y-78691908D01*
X76760604Y-78731396D01*
X76800092Y-78763803D01*
X76918202Y-78860734D01*
X76972832Y-78889934D01*
X77098007Y-78956841D01*
X77293105Y-79016024D01*
X77445162Y-79031000D01*
X77445171Y-79031000D01*
X77495999Y-79036006D01*
X77546827Y-79031000D01*
X79321472Y-79031000D01*
X79372300Y-79036006D01*
X79423128Y-79031000D01*
X79423138Y-79031000D01*
X79575195Y-79016024D01*
X79770293Y-78956841D01*
X79950097Y-78860734D01*
X80107696Y-78731396D01*
X80140107Y-78691903D01*
X80200400Y-78631610D01*
X80289897Y-78721108D01*
X80322304Y-78760596D01*
X80361792Y-78793003D01*
X80479902Y-78889934D01*
X80576009Y-78941304D01*
X80659707Y-78986041D01*
X80854805Y-79045224D01*
X81006862Y-79060200D01*
X81006871Y-79060200D01*
X81057699Y-79065206D01*
X81108527Y-79060200D01*
X94621972Y-79060200D01*
X94672800Y-79065206D01*
X94723628Y-79060200D01*
X94723638Y-79060200D01*
X94875695Y-79045224D01*
X95070793Y-78986041D01*
X95250597Y-78889934D01*
X95408196Y-78760596D01*
X95440607Y-78721103D01*
X100178711Y-73983000D01*
X104685363Y-73983000D01*
X104699804Y-74000596D01*
X104739297Y-74033007D01*
X105715001Y-75008711D01*
X105715001Y-75227024D01*
X105713038Y-75228987D01*
X105566939Y-75447641D01*
X105466304Y-75690595D01*
X105415000Y-75948514D01*
X105415000Y-76211486D01*
X105466304Y-76469405D01*
X105566939Y-76712359D01*
X105713038Y-76931013D01*
X105898987Y-77116962D01*
X106117641Y-77263061D01*
X106360595Y-77363696D01*
X106618514Y-77415000D01*
X106881486Y-77415000D01*
X107139405Y-77363696D01*
X107382359Y-77263061D01*
X107601013Y-77116962D01*
X107786962Y-76931013D01*
X107933061Y-76712359D01*
X108033696Y-76469405D01*
X108085000Y-76211486D01*
X108085000Y-75948514D01*
X108033696Y-75690595D01*
X107933061Y-75447641D01*
X107786962Y-75228987D01*
X107785000Y-75227025D01*
X107785000Y-74630835D01*
X107790007Y-74580000D01*
X107779251Y-74470795D01*
X107770024Y-74377105D01*
X107710841Y-74182007D01*
X107640730Y-74050838D01*
X107614734Y-74002202D01*
X107517803Y-73884092D01*
X107485396Y-73844604D01*
X107445908Y-73812197D01*
X106470200Y-72836490D01*
X106470200Y-72305498D01*
X106618514Y-72335000D01*
X106881486Y-72335000D01*
X107139405Y-72283696D01*
X107382359Y-72183061D01*
X107416872Y-72160000D01*
X110509372Y-72160000D01*
X110560200Y-72165006D01*
X110611028Y-72160000D01*
X110611038Y-72160000D01*
X110763095Y-72145024D01*
X110958193Y-72085841D01*
X111137997Y-71989734D01*
X111295596Y-71860396D01*
X111328007Y-71820903D01*
X113395308Y-69753603D01*
X113434796Y-69721196D01*
X113480915Y-69665000D01*
X113564134Y-69563598D01*
X113619201Y-69460574D01*
X113713038Y-69601013D01*
X113715000Y-69602975D01*
X113715001Y-71505603D01*
X113635363Y-71585241D01*
X113478320Y-71820273D01*
X113370147Y-72081426D01*
X113315000Y-72358665D01*
X113315000Y-72641335D01*
X113370147Y-72918574D01*
X113478320Y-73179727D01*
X113635363Y-73414759D01*
X113835241Y-73614637D01*
X114037827Y-73750000D01*
X113835241Y-73885363D01*
X113635363Y-74085241D01*
X113478320Y-74320273D01*
X113370147Y-74581426D01*
X113315000Y-74858665D01*
X113315000Y-75141335D01*
X113370147Y-75418574D01*
X113478320Y-75679727D01*
X113635363Y-75914759D01*
X113835241Y-76114637D01*
X114070273Y-76271680D01*
X114331426Y-76379853D01*
X114608665Y-76435000D01*
X114891335Y-76435000D01*
X115168574Y-76379853D01*
X115429727Y-76271680D01*
X115664759Y-76114637D01*
X115864637Y-75914759D01*
X116021680Y-75679727D01*
X116129853Y-75418574D01*
X116185000Y-75141335D01*
X116185000Y-75028710D01*
X125695908Y-65517803D01*
X125735396Y-65485396D01*
X125767803Y-65445908D01*
X125864734Y-65327798D01*
X125924328Y-65216304D01*
X125960841Y-65147993D01*
X126020024Y-64952895D01*
X126035000Y-64800838D01*
X126035000Y-64800829D01*
X126040006Y-64750001D01*
X126035000Y-64699173D01*
X126035000Y-63515098D01*
X127865000Y-63515098D01*
X127865000Y-63984902D01*
X127956654Y-64445679D01*
X128136440Y-64879721D01*
X128397450Y-65270349D01*
X128729651Y-65602550D01*
X129120279Y-65863560D01*
X129554321Y-66043346D01*
X130015098Y-66135000D01*
X130484902Y-66135000D01*
X130945679Y-66043346D01*
X131379721Y-65863560D01*
X131770349Y-65602550D01*
X132102550Y-65270349D01*
X132363560Y-64879721D01*
X132543346Y-64445679D01*
X132635000Y-63984902D01*
X132635000Y-63515098D01*
X132543346Y-63054321D01*
X132363560Y-62620279D01*
X132102550Y-62229651D01*
X131770349Y-61897450D01*
X131379721Y-61636440D01*
X130945679Y-61456654D01*
X130484902Y-61365000D01*
X130015098Y-61365000D01*
X129554321Y-61456654D01*
X129120279Y-61636440D01*
X128729651Y-61897450D01*
X128397450Y-62229651D01*
X128136440Y-62620279D01*
X127956654Y-63054321D01*
X127865000Y-63515098D01*
X126035000Y-63515098D01*
X126035000Y-58535000D01*
X127449172Y-58535000D01*
X127500000Y-58540006D01*
X127550828Y-58535000D01*
X127550838Y-58535000D01*
X127702895Y-58520024D01*
X127897993Y-58460841D01*
X128077797Y-58364734D01*
X128235396Y-58235396D01*
X128267807Y-58195903D01*
X129459599Y-57004111D01*
X129554321Y-57043346D01*
X130015098Y-57135000D01*
X130484902Y-57135000D01*
X130945679Y-57043346D01*
X131379721Y-56863560D01*
X131770349Y-56602550D01*
X132102550Y-56270349D01*
X132363560Y-55879721D01*
X132543346Y-55445679D01*
X132635000Y-54984902D01*
X132635000Y-54515098D01*
X132543346Y-54054321D01*
X132363560Y-53620279D01*
X132102550Y-53229651D01*
X131770349Y-52897450D01*
X131379721Y-52636440D01*
X130945679Y-52456654D01*
X130484902Y-52365000D01*
X130015098Y-52365000D01*
X129554321Y-52456654D01*
X129120279Y-52636440D01*
X128729651Y-52897450D01*
X128397450Y-53229651D01*
X128136440Y-53620279D01*
X127956654Y-54054321D01*
X127865000Y-54515098D01*
X127865000Y-54984902D01*
X127956654Y-55445679D01*
X127995889Y-55540401D01*
X127071290Y-56465000D01*
X125852975Y-56465000D01*
X125851013Y-56463038D01*
X125632359Y-56316939D01*
X125389405Y-56216304D01*
X125131486Y-56165000D01*
X124868514Y-56165000D01*
X124610595Y-56216304D01*
X124367641Y-56316939D01*
X124148987Y-56463038D01*
X123963038Y-56648987D01*
X123816939Y-56867641D01*
X123716304Y-57110595D01*
X123665000Y-57368514D01*
X123665000Y-57631486D01*
X123716304Y-57889405D01*
X123816939Y-58132359D01*
X123963038Y-58351013D01*
X123965000Y-58352975D01*
X123965001Y-64321288D01*
X116142298Y-72143992D01*
X116129853Y-72081426D01*
X116021680Y-71820273D01*
X115864637Y-71585241D01*
X115785000Y-71505604D01*
X115785000Y-69602975D01*
X115786962Y-69601013D01*
X115933061Y-69382359D01*
X116033696Y-69139405D01*
X116085000Y-68881486D01*
X116085000Y-68618514D01*
X116033696Y-68360595D01*
X115933061Y-68117641D01*
X115786962Y-67898987D01*
X115601013Y-67713038D01*
X115382359Y-67566939D01*
X115139405Y-67466304D01*
X114881486Y-67415000D01*
X114618514Y-67415000D01*
X114360595Y-67466304D01*
X114117641Y-67566939D01*
X113898987Y-67713038D01*
X113734400Y-67877625D01*
X113734400Y-61579310D01*
X116585045Y-58728665D01*
X119565000Y-58728665D01*
X119565000Y-59011335D01*
X119620147Y-59288574D01*
X119728320Y-59549727D01*
X119885363Y-59784759D01*
X120085241Y-59984637D01*
X120320273Y-60141680D01*
X120581426Y-60249853D01*
X120858665Y-60305000D01*
X121141335Y-60305000D01*
X121418574Y-60249853D01*
X121679727Y-60141680D01*
X121914759Y-59984637D01*
X122114637Y-59784759D01*
X122271680Y-59549727D01*
X122379853Y-59288574D01*
X122435000Y-59011335D01*
X122435000Y-58728665D01*
X122379853Y-58451426D01*
X122271680Y-58190273D01*
X122114637Y-57955241D01*
X121914759Y-57755363D01*
X121679727Y-57598320D01*
X121418574Y-57490147D01*
X121141335Y-57435000D01*
X120858665Y-57435000D01*
X120581426Y-57490147D01*
X120320273Y-57598320D01*
X120085241Y-57755363D01*
X119885363Y-57955241D01*
X119728320Y-58190273D01*
X119620147Y-58451426D01*
X119565000Y-58728665D01*
X116585045Y-58728665D01*
X121695908Y-53617803D01*
X121735396Y-53585396D01*
X121822179Y-53479651D01*
X121864734Y-53427798D01*
X121948180Y-53271680D01*
X121960841Y-53247993D01*
X122020024Y-53052895D01*
X122035000Y-52900838D01*
X122035000Y-52900829D01*
X122040006Y-52850001D01*
X122035000Y-52799173D01*
X122035000Y-52642287D01*
X122044180Y-52639502D01*
X122154494Y-52580537D01*
X122251185Y-52501185D01*
X122330537Y-52404494D01*
X122389502Y-52294180D01*
X122391220Y-52288514D01*
X123665000Y-52288514D01*
X123665000Y-52551486D01*
X123716304Y-52809405D01*
X123816939Y-53052359D01*
X123963038Y-53271013D01*
X124148987Y-53456962D01*
X124367641Y-53603061D01*
X124610595Y-53703696D01*
X124868514Y-53755000D01*
X125131486Y-53755000D01*
X125389405Y-53703696D01*
X125632359Y-53603061D01*
X125851013Y-53456962D01*
X126036962Y-53271013D01*
X126183061Y-53052359D01*
X126283696Y-52809405D01*
X126335000Y-52551486D01*
X126335000Y-52288514D01*
X126283696Y-52030595D01*
X126183061Y-51787641D01*
X126036962Y-51568987D01*
X125851013Y-51383038D01*
X125632359Y-51236939D01*
X125389405Y-51136304D01*
X125131486Y-51085000D01*
X124868514Y-51085000D01*
X124610595Y-51136304D01*
X124367641Y-51236939D01*
X124148987Y-51383038D01*
X123963038Y-51568987D01*
X123816939Y-51787641D01*
X123716304Y-52030595D01*
X123665000Y-52288514D01*
X122391220Y-52288514D01*
X122425812Y-52174482D01*
X122438072Y-52050000D01*
X122438072Y-50450000D01*
X122425812Y-50325518D01*
X122389502Y-50205820D01*
X122330537Y-50095506D01*
X122251185Y-49998815D01*
X122154494Y-49919463D01*
X122044180Y-49860498D01*
X122035000Y-49857713D01*
X122035000Y-49700827D01*
X122040006Y-49649999D01*
X122035000Y-49599171D01*
X122035000Y-49599162D01*
X122020024Y-49447105D01*
X121960841Y-49252007D01*
X121889488Y-49118514D01*
X121864734Y-49072202D01*
X121767803Y-48954092D01*
X121735396Y-48914604D01*
X121695908Y-48882197D01*
X115535000Y-42721290D01*
X115535000Y-42352975D01*
X115536962Y-42351013D01*
X115683061Y-42132359D01*
X115783696Y-41889405D01*
X115835000Y-41631486D01*
X115835000Y-41368514D01*
X115783696Y-41110595D01*
X115683061Y-40867641D01*
X115536962Y-40648987D01*
X115351013Y-40463038D01*
X115132359Y-40316939D01*
X114889405Y-40216304D01*
X114631486Y-40165000D01*
X114368514Y-40165000D01*
X114110595Y-40216304D01*
X113867641Y-40316939D01*
X113648987Y-40463038D01*
X113463038Y-40648987D01*
X113316939Y-40867641D01*
X113216304Y-41110595D01*
X113165000Y-41368514D01*
X113165000Y-41631486D01*
X113216304Y-41889405D01*
X113316939Y-42132359D01*
X113463038Y-42351013D01*
X113465001Y-42352976D01*
X113465001Y-43099163D01*
X113459994Y-43150000D01*
X113479977Y-43352895D01*
X113539160Y-43547993D01*
X113635266Y-43727797D01*
X113663342Y-43762007D01*
X113764605Y-43885396D01*
X113804093Y-43917803D01*
X119823671Y-49937382D01*
X119748815Y-49998815D01*
X119669463Y-50095506D01*
X119610498Y-50205820D01*
X119574188Y-50325518D01*
X119561928Y-50450000D01*
X119561928Y-52050000D01*
X119574188Y-52174482D01*
X119610498Y-52294180D01*
X119669463Y-52404494D01*
X119748815Y-52501185D01*
X119823671Y-52562618D01*
X112019500Y-60366790D01*
X112019500Y-52535327D01*
X112024506Y-52484499D01*
X112019500Y-52433671D01*
X112019500Y-52433662D01*
X112004524Y-52281605D01*
X111945341Y-52086507D01*
X111857055Y-51921335D01*
X111849234Y-51906702D01*
X111752303Y-51788592D01*
X111719896Y-51749104D01*
X111680408Y-51716697D01*
X102606008Y-42642298D01*
X102668574Y-42629853D01*
X102929727Y-42521680D01*
X103164759Y-42364637D01*
X103364637Y-42164759D01*
X103521680Y-41929727D01*
X103629853Y-41668574D01*
X103685000Y-41391335D01*
X103685000Y-41108665D01*
X103629853Y-40831426D01*
X103521680Y-40570273D01*
X103364637Y-40335241D01*
X103164759Y-40135363D01*
X102929727Y-39978320D01*
X102668574Y-39870147D01*
X102391335Y-39815000D01*
X102108665Y-39815000D01*
X101831426Y-39870147D01*
X101570273Y-39978320D01*
X101335241Y-40135363D01*
X101135363Y-40335241D01*
X101000000Y-40537827D01*
X100864637Y-40335241D01*
X100664759Y-40135363D01*
X100429727Y-39978320D01*
X100168574Y-39870147D01*
X99891335Y-39815000D01*
X99608665Y-39815000D01*
X99331426Y-39870147D01*
X99070273Y-39978320D01*
X98835241Y-40135363D01*
X98635363Y-40335241D01*
X98478320Y-40570273D01*
X98370147Y-40831426D01*
X98315000Y-41108665D01*
X98315000Y-41391335D01*
X98370147Y-41668574D01*
X98478320Y-41929727D01*
X98635363Y-42164759D01*
X98835241Y-42364637D01*
X99070273Y-42521680D01*
X99331426Y-42629853D01*
X99608665Y-42685000D01*
X99721290Y-42685000D01*
X109949501Y-52913212D01*
X109949500Y-66235789D01*
X95285000Y-51571290D01*
X95285000Y-50102975D01*
X95286962Y-50101013D01*
X95433061Y-49882359D01*
X95533696Y-49639405D01*
X95585000Y-49381486D01*
X95585000Y-49118514D01*
X95533696Y-48860595D01*
X95433061Y-48617641D01*
X95286962Y-48398987D01*
X95285000Y-48397025D01*
X95285000Y-47602975D01*
X95286962Y-47601013D01*
X95433061Y-47382359D01*
X95533696Y-47139405D01*
X95585000Y-46881486D01*
X95585000Y-46618514D01*
X95533696Y-46360595D01*
X95433061Y-46117641D01*
X95286962Y-45898987D01*
X95285000Y-45897025D01*
X95285000Y-45102975D01*
X95286962Y-45101013D01*
X95433061Y-44882359D01*
X95533696Y-44639405D01*
X95585000Y-44381486D01*
X95585000Y-44118514D01*
X95533696Y-43860595D01*
X95433061Y-43617641D01*
X95286962Y-43398987D01*
X95285000Y-43397025D01*
X95285000Y-42352975D01*
X95286962Y-42351013D01*
X95433061Y-42132359D01*
X95533696Y-41889405D01*
X95585000Y-41631486D01*
X95585000Y-41368514D01*
X95533696Y-41110595D01*
X95433061Y-40867641D01*
X95286962Y-40648987D01*
X95285000Y-40647025D01*
X95285000Y-39852975D01*
X95286962Y-39851013D01*
X95433061Y-39632359D01*
X95533696Y-39389405D01*
X95585000Y-39131486D01*
X95585000Y-38948514D01*
X106665000Y-38948514D01*
X106665000Y-39211486D01*
X106716304Y-39469405D01*
X106816939Y-39712359D01*
X106963038Y-39931013D01*
X107148987Y-40116962D01*
X107367641Y-40263061D01*
X107610595Y-40363696D01*
X107868514Y-40415000D01*
X108131486Y-40415000D01*
X108389405Y-40363696D01*
X108632359Y-40263061D01*
X108851013Y-40116962D01*
X109036962Y-39931013D01*
X109183061Y-39712359D01*
X109283696Y-39469405D01*
X109335000Y-39211486D01*
X109335000Y-39208710D01*
X113008711Y-35535000D01*
X113505604Y-35535000D01*
X113585241Y-35614637D01*
X113787827Y-35750000D01*
X113585241Y-35885363D01*
X113385363Y-36085241D01*
X113228320Y-36320273D01*
X113120147Y-36581426D01*
X113065000Y-36858665D01*
X113065000Y-37141335D01*
X113117354Y-37404535D01*
X110224092Y-40297798D01*
X110184605Y-40330204D01*
X110152198Y-40369692D01*
X110152197Y-40369693D01*
X110144800Y-40378706D01*
X110052359Y-40316939D01*
X109809405Y-40216304D01*
X109551486Y-40165000D01*
X109288514Y-40165000D01*
X109030595Y-40216304D01*
X108787641Y-40316939D01*
X108568987Y-40463038D01*
X108383038Y-40648987D01*
X108236939Y-40867641D01*
X108136304Y-41110595D01*
X108085000Y-41368514D01*
X108085000Y-41631486D01*
X108136304Y-41889405D01*
X108236939Y-42132359D01*
X108383038Y-42351013D01*
X108568987Y-42536962D01*
X108787641Y-42683061D01*
X109030595Y-42783696D01*
X109288514Y-42835000D01*
X109551486Y-42835000D01*
X109809405Y-42783696D01*
X110052359Y-42683061D01*
X110271013Y-42536962D01*
X110272975Y-42535000D01*
X110869162Y-42535000D01*
X110920000Y-42540007D01*
X110970838Y-42535000D01*
X111122895Y-42520024D01*
X111317993Y-42460841D01*
X111497797Y-42364734D01*
X111655396Y-42235396D01*
X111784734Y-42077797D01*
X111880841Y-41897993D01*
X111940024Y-41702895D01*
X111960007Y-41500000D01*
X111959048Y-41490262D01*
X114928711Y-38520600D01*
X121556890Y-38520600D01*
X127995889Y-44959600D01*
X127956654Y-45054321D01*
X127865000Y-45515098D01*
X127865000Y-45984902D01*
X127956654Y-46445679D01*
X128136440Y-46879721D01*
X128397450Y-47270349D01*
X128729651Y-47602550D01*
X129120279Y-47863560D01*
X129554321Y-48043346D01*
X130015098Y-48135000D01*
X130484902Y-48135000D01*
X130945679Y-48043346D01*
X131379721Y-47863560D01*
X131770349Y-47602550D01*
X132102550Y-47270349D01*
X132363560Y-46879721D01*
X132543346Y-46445679D01*
X132635000Y-45984902D01*
X132635000Y-45515098D01*
X132543346Y-45054321D01*
X132363560Y-44620279D01*
X132102550Y-44229651D01*
X131770349Y-43897450D01*
X131379721Y-43636440D01*
X130945679Y-43456654D01*
X130484902Y-43365000D01*
X130015098Y-43365000D01*
X129554321Y-43456654D01*
X129459600Y-43495889D01*
X122753407Y-36789697D01*
X122720996Y-36750204D01*
X122563397Y-36620866D01*
X122383593Y-36524759D01*
X122188495Y-36465576D01*
X122036438Y-36450600D01*
X122036428Y-36450600D01*
X121985600Y-36445594D01*
X121934772Y-36450600D01*
X115825663Y-36450600D01*
X115771680Y-36320273D01*
X115614637Y-36085241D01*
X115414759Y-35885363D01*
X115212173Y-35750000D01*
X115414759Y-35614637D01*
X115614637Y-35414759D01*
X115771680Y-35179727D01*
X115879853Y-34918574D01*
X115935000Y-34641335D01*
X115935000Y-34358665D01*
X115879853Y-34081426D01*
X115771680Y-33820273D01*
X115614637Y-33585241D01*
X115414759Y-33385363D01*
X115179727Y-33228320D01*
X114918574Y-33120147D01*
X114641335Y-33065000D01*
X114358665Y-33065000D01*
X114081426Y-33120147D01*
X113820273Y-33228320D01*
X113585241Y-33385363D01*
X113505604Y-33465000D01*
X112630827Y-33465000D01*
X112579999Y-33459994D01*
X112529171Y-33465000D01*
X112529162Y-33465000D01*
X112377105Y-33479976D01*
X112182007Y-33539159D01*
X112114573Y-33575203D01*
X112002202Y-33635266D01*
X111884092Y-33732197D01*
X111844604Y-33764604D01*
X111812197Y-33804092D01*
X107871290Y-37745000D01*
X107868514Y-37745000D01*
X107610595Y-37796304D01*
X107367641Y-37896939D01*
X107148987Y-38043038D01*
X106963038Y-38228987D01*
X106816939Y-38447641D01*
X106716304Y-38690595D01*
X106665000Y-38948514D01*
X95585000Y-38948514D01*
X95585000Y-38868514D01*
X95533696Y-38610595D01*
X95433061Y-38367641D01*
X95286962Y-38148987D01*
X95285000Y-38147025D01*
X95285000Y-37352975D01*
X95286962Y-37351013D01*
X95433061Y-37132359D01*
X95533696Y-36889405D01*
X95585000Y-36631486D01*
X95585000Y-36368514D01*
X95533696Y-36110595D01*
X95433061Y-35867641D01*
X95286962Y-35648987D01*
X95285000Y-35647025D01*
X95285000Y-34852975D01*
X95286962Y-34851013D01*
X95433061Y-34632359D01*
X95533696Y-34389405D01*
X95585000Y-34131486D01*
X95585000Y-33868514D01*
X95548755Y-33686300D01*
X104722590Y-33686300D01*
X105732197Y-34695908D01*
X105764604Y-34735396D01*
X105804092Y-34767803D01*
X105922202Y-34864734D01*
X105984426Y-34897993D01*
X106102007Y-34960841D01*
X106297105Y-35020024D01*
X106449162Y-35035000D01*
X106449165Y-35035000D01*
X106500000Y-35040007D01*
X106550835Y-35035000D01*
X107147025Y-35035000D01*
X107148987Y-35036962D01*
X107367641Y-35183061D01*
X107610595Y-35283696D01*
X107868514Y-35335000D01*
X108131486Y-35335000D01*
X108389405Y-35283696D01*
X108632359Y-35183061D01*
X108851013Y-35036962D01*
X109036962Y-34851013D01*
X109183061Y-34632359D01*
X109283696Y-34389405D01*
X109335000Y-34131486D01*
X109335000Y-33868514D01*
X109283696Y-33610595D01*
X109183061Y-33367641D01*
X109036962Y-33148987D01*
X108851013Y-32963038D01*
X108632359Y-32816939D01*
X108389405Y-32716304D01*
X108131486Y-32665000D01*
X107868514Y-32665000D01*
X107610595Y-32716304D01*
X107367641Y-32816939D01*
X107148987Y-32963038D01*
X107147025Y-32965000D01*
X106928711Y-32965000D01*
X105919107Y-31955397D01*
X105886696Y-31915904D01*
X105729097Y-31786566D01*
X105549293Y-31690459D01*
X105448884Y-31660000D01*
X134340000Y-31660000D01*
X134340001Y-79340000D01*
X35660000Y-79340000D01*
X35660000Y-54765098D01*
X36115000Y-54765098D01*
X36115000Y-55234902D01*
X36206654Y-55695679D01*
X36386440Y-56129721D01*
X36647450Y-56520349D01*
X36979651Y-56852550D01*
X37370279Y-57113560D01*
X37804321Y-57293346D01*
X38265098Y-57385000D01*
X38734902Y-57385000D01*
X39195679Y-57293346D01*
X39629721Y-57113560D01*
X40020349Y-56852550D01*
X40352550Y-56520349D01*
X40613560Y-56129721D01*
X40793346Y-55695679D01*
X40885000Y-55234902D01*
X40885000Y-54765098D01*
X40793346Y-54304321D01*
X40613560Y-53870279D01*
X40352550Y-53479651D01*
X40020349Y-53147450D01*
X39629721Y-52886440D01*
X39195679Y-52706654D01*
X38734902Y-52615000D01*
X38265098Y-52615000D01*
X37804321Y-52706654D01*
X37370279Y-52886440D01*
X36979651Y-53147450D01*
X36647450Y-53479651D01*
X36386440Y-53870279D01*
X36206654Y-54304321D01*
X36115000Y-54765098D01*
X35660000Y-54765098D01*
X35660000Y-31660000D01*
X68519597Y-31660000D01*
X68461102Y-31691266D01*
G37*
%TD.AperFunction*%
D18*
X72065000Y-74028711D02*
X72065000Y-74141335D01*
X72120147Y-74418574D01*
X72228320Y-74679727D01*
X72385363Y-74914759D01*
X72585241Y-75114637D01*
X72787827Y-75250000D01*
X72585241Y-75385363D01*
X72385363Y-75585241D01*
X72228320Y-75820273D01*
X72120147Y-76081426D01*
X72065000Y-76358665D01*
X72065000Y-76471289D01*
X71485090Y-77051200D01*
X70494623Y-77051200D01*
X70499853Y-77038574D01*
X70555000Y-76761335D01*
X70555000Y-76478665D01*
X70499853Y-76201426D01*
X70391680Y-75940273D01*
X70234637Y-75705241D01*
X70034759Y-75505363D01*
X69802241Y-75350000D01*
X70034759Y-75194637D01*
X70234637Y-74994759D01*
X70391680Y-74759727D01*
X70499853Y-74498574D01*
X70555000Y-74221335D01*
X70555000Y-73938665D01*
X70499853Y-73661426D01*
X70391680Y-73400273D01*
X70234637Y-73165241D01*
X70034759Y-72965363D01*
X69802241Y-72810000D01*
X70034759Y-72654637D01*
X70114396Y-72575000D01*
X70611290Y-72575000D01*
X72065000Y-74028711D01*
%TA.AperFunction,Conductor*%
D19*
G36*
X72065000Y-74028711D02*
G01*
X72065000Y-74141335D01*
X72120147Y-74418574D01*
X72228320Y-74679727D01*
X72385363Y-74914759D01*
X72585241Y-75114637D01*
X72787827Y-75250000D01*
X72585241Y-75385363D01*
X72385363Y-75585241D01*
X72228320Y-75820273D01*
X72120147Y-76081426D01*
X72065000Y-76358665D01*
X72065000Y-76471289D01*
X71485090Y-77051200D01*
X70494623Y-77051200D01*
X70499853Y-77038574D01*
X70555000Y-76761335D01*
X70555000Y-76478665D01*
X70499853Y-76201426D01*
X70391680Y-75940273D01*
X70234637Y-75705241D01*
X70034759Y-75505363D01*
X69802241Y-75350000D01*
X70034759Y-75194637D01*
X70234637Y-74994759D01*
X70391680Y-74759727D01*
X70499853Y-74498574D01*
X70555000Y-74221335D01*
X70555000Y-73938665D01*
X70499853Y-73661426D01*
X70391680Y-73400273D01*
X70234637Y-73165241D01*
X70034759Y-72965363D01*
X69802241Y-72810000D01*
X70034759Y-72654637D01*
X70114396Y-72575000D01*
X70611290Y-72575000D01*
X72065000Y-74028711D01*
G37*
%TD.AperFunction*%
D18*
X67848320Y-68320273D02*
X67740147Y-68581426D01*
X67685000Y-68858665D01*
X67685000Y-69141335D01*
X67740147Y-69418574D01*
X67848320Y-69679727D01*
X68005363Y-69914759D01*
X68205241Y-70114637D01*
X68437759Y-70270000D01*
X68205241Y-70425363D01*
X68005363Y-70625241D01*
X67848320Y-70860273D01*
X67740147Y-71121426D01*
X67685000Y-71398665D01*
X67685000Y-71681335D01*
X67740147Y-71958574D01*
X67848320Y-72219727D01*
X68005363Y-72454759D01*
X68205241Y-72654637D01*
X68437759Y-72810000D01*
X68205241Y-72965363D01*
X68005363Y-73165241D01*
X67848320Y-73400273D01*
X67740147Y-73661426D01*
X67685000Y-73938665D01*
X67685000Y-74221335D01*
X67740147Y-74498574D01*
X67848320Y-74759727D01*
X68005363Y-74994759D01*
X68205241Y-75194637D01*
X68437759Y-75350000D01*
X68205241Y-75505363D01*
X68005363Y-75705241D01*
X67848320Y-75940273D01*
X67740147Y-76201426D01*
X67685000Y-76478665D01*
X67685000Y-76761335D01*
X67740147Y-77038574D01*
X67745377Y-77051200D01*
X64994911Y-77051200D01*
X63867807Y-75924097D01*
X63835396Y-75884604D01*
X63677797Y-75755266D01*
X63497993Y-75659159D01*
X63302895Y-75599976D01*
X63150838Y-75585000D01*
X63150828Y-75585000D01*
X63100000Y-75579994D01*
X63049172Y-75585000D01*
X62494396Y-75585000D01*
X62414759Y-75505363D01*
X62182241Y-75350000D01*
X62414759Y-75194637D01*
X62614637Y-74994759D01*
X62771680Y-74759727D01*
X62879853Y-74498574D01*
X62935000Y-74221335D01*
X62935000Y-73938665D01*
X62879853Y-73661426D01*
X62771680Y-73400273D01*
X62614637Y-73165241D01*
X62414759Y-72965363D01*
X62182241Y-72810000D01*
X62414759Y-72654637D01*
X62494396Y-72575000D01*
X63049172Y-72575000D01*
X63100000Y-72580006D01*
X63150828Y-72575000D01*
X63150838Y-72575000D01*
X63302895Y-72560024D01*
X63497993Y-72500841D01*
X63677797Y-72404734D01*
X63835396Y-72275396D01*
X63867807Y-72235903D01*
X67978970Y-68124740D01*
X67848320Y-68320273D01*
%TA.AperFunction,Conductor*%
D19*
G36*
X67848320Y-68320273D02*
G01*
X67740147Y-68581426D01*
X67685000Y-68858665D01*
X67685000Y-69141335D01*
X67740147Y-69418574D01*
X67848320Y-69679727D01*
X68005363Y-69914759D01*
X68205241Y-70114637D01*
X68437759Y-70270000D01*
X68205241Y-70425363D01*
X68005363Y-70625241D01*
X67848320Y-70860273D01*
X67740147Y-71121426D01*
X67685000Y-71398665D01*
X67685000Y-71681335D01*
X67740147Y-71958574D01*
X67848320Y-72219727D01*
X68005363Y-72454759D01*
X68205241Y-72654637D01*
X68437759Y-72810000D01*
X68205241Y-72965363D01*
X68005363Y-73165241D01*
X67848320Y-73400273D01*
X67740147Y-73661426D01*
X67685000Y-73938665D01*
X67685000Y-74221335D01*
X67740147Y-74498574D01*
X67848320Y-74759727D01*
X68005363Y-74994759D01*
X68205241Y-75194637D01*
X68437759Y-75350000D01*
X68205241Y-75505363D01*
X68005363Y-75705241D01*
X67848320Y-75940273D01*
X67740147Y-76201426D01*
X67685000Y-76478665D01*
X67685000Y-76761335D01*
X67740147Y-77038574D01*
X67745377Y-77051200D01*
X64994911Y-77051200D01*
X63867807Y-75924097D01*
X63835396Y-75884604D01*
X63677797Y-75755266D01*
X63497993Y-75659159D01*
X63302895Y-75599976D01*
X63150838Y-75585000D01*
X63150828Y-75585000D01*
X63100000Y-75579994D01*
X63049172Y-75585000D01*
X62494396Y-75585000D01*
X62414759Y-75505363D01*
X62182241Y-75350000D01*
X62414759Y-75194637D01*
X62614637Y-74994759D01*
X62771680Y-74759727D01*
X62879853Y-74498574D01*
X62935000Y-74221335D01*
X62935000Y-73938665D01*
X62879853Y-73661426D01*
X62771680Y-73400273D01*
X62614637Y-73165241D01*
X62414759Y-72965363D01*
X62182241Y-72810000D01*
X62414759Y-72654637D01*
X62494396Y-72575000D01*
X63049172Y-72575000D01*
X63100000Y-72580006D01*
X63150828Y-72575000D01*
X63150838Y-72575000D01*
X63302895Y-72560024D01*
X63497993Y-72500841D01*
X63677797Y-72404734D01*
X63835396Y-72275396D01*
X63867807Y-72235903D01*
X67978970Y-68124740D01*
X67848320Y-68320273D01*
G37*
%TD.AperFunction*%
D18*
X93325907Y-31690459D02*
X93242827Y-31734866D01*
X93146102Y-31786566D01*
X93051499Y-31864205D01*
X92988504Y-31915904D01*
X92956097Y-31955392D01*
X92253292Y-32658198D01*
X92213805Y-32690604D01*
X92181398Y-32730092D01*
X92181397Y-32730093D01*
X92084466Y-32848203D01*
X91988360Y-33028007D01*
X91929177Y-33223105D01*
X91909194Y-33426000D01*
X91914201Y-33476838D01*
X91914200Y-57398372D01*
X91909194Y-57449200D01*
X91914200Y-57500028D01*
X91914200Y-57500037D01*
X91929176Y-57652094D01*
X91988359Y-57847192D01*
X92084466Y-58026997D01*
X92213804Y-58184596D01*
X92253297Y-58217007D01*
X92915000Y-58878711D01*
X92915000Y-58881486D01*
X92966304Y-59139405D01*
X93066939Y-59382359D01*
X93213038Y-59601013D01*
X93215001Y-59602976D01*
X93215000Y-60397025D01*
X93213038Y-60398987D01*
X93066939Y-60617641D01*
X92966304Y-60860595D01*
X92915000Y-61118514D01*
X92915000Y-61381486D01*
X92966304Y-61639405D01*
X93066939Y-61882359D01*
X93213038Y-62101013D01*
X93215001Y-62102976D01*
X93215000Y-63015779D01*
X93146939Y-63117641D01*
X93046304Y-63360595D01*
X92995000Y-63618514D01*
X92995000Y-63881486D01*
X93046304Y-64139405D01*
X93146939Y-64382359D01*
X93293038Y-64601013D01*
X93295001Y-64602976D01*
X93295000Y-65647025D01*
X93293038Y-65648987D01*
X93146939Y-65867641D01*
X93046304Y-66110595D01*
X92995000Y-66368514D01*
X92995000Y-66631486D01*
X93046304Y-66889405D01*
X93146939Y-67132359D01*
X93293038Y-67351013D01*
X93295001Y-67352976D01*
X93295000Y-68147025D01*
X93293038Y-68148987D01*
X93146939Y-68367641D01*
X93046304Y-68610595D01*
X92995000Y-68868514D01*
X92995000Y-69131486D01*
X93046304Y-69389405D01*
X93146939Y-69632359D01*
X93293038Y-69851013D01*
X93295001Y-69852976D01*
X93295000Y-70647025D01*
X93293038Y-70648987D01*
X93146939Y-70867641D01*
X93046304Y-71110595D01*
X92995000Y-71368514D01*
X92995000Y-71631486D01*
X93046304Y-71889405D01*
X93146939Y-72132359D01*
X93293038Y-72351013D01*
X93295001Y-72352976D01*
X93295000Y-73147025D01*
X93293038Y-73148987D01*
X93146939Y-73367641D01*
X93046304Y-73610595D01*
X92995000Y-73868514D01*
X92995000Y-74131486D01*
X93046304Y-74389405D01*
X93146939Y-74632359D01*
X93293038Y-74851013D01*
X93295001Y-74852976D01*
X93295000Y-76398061D01*
X93295000Y-76601939D01*
X93304969Y-76652058D01*
X93309976Y-76702894D01*
X93324804Y-76751774D01*
X93334774Y-76801898D01*
X93354332Y-76849116D01*
X93369159Y-76897992D01*
X93393237Y-76943039D01*
X93412772Y-76990200D01*
X87801519Y-76990200D01*
X87855000Y-76721335D01*
X87855000Y-76438665D01*
X87799853Y-76161426D01*
X87691680Y-75900273D01*
X87534637Y-75665241D01*
X87334759Y-75465363D01*
X87102241Y-75310000D01*
X87334759Y-75154637D01*
X87534637Y-74954759D01*
X87691680Y-74719727D01*
X87799853Y-74458574D01*
X87855000Y-74181335D01*
X87855000Y-73898665D01*
X87799853Y-73621426D01*
X87691680Y-73360273D01*
X87534637Y-73125241D01*
X87334759Y-72925363D01*
X87102241Y-72770000D01*
X87334759Y-72614637D01*
X87534637Y-72414759D01*
X87691680Y-72179727D01*
X87799853Y-71918574D01*
X87855000Y-71641335D01*
X87855000Y-71358665D01*
X87799853Y-71081426D01*
X87691680Y-70820273D01*
X87534637Y-70585241D01*
X87334759Y-70385363D01*
X87102241Y-70230000D01*
X87334759Y-70074637D01*
X87534637Y-69874759D01*
X87691680Y-69639727D01*
X87799853Y-69378574D01*
X87855000Y-69101335D01*
X87855000Y-68818665D01*
X87799853Y-68541426D01*
X87691680Y-68280273D01*
X87534637Y-68045241D01*
X87334759Y-67845363D01*
X87102241Y-67690000D01*
X87334759Y-67534637D01*
X87534637Y-67334759D01*
X87691680Y-67099727D01*
X87799853Y-66838574D01*
X87855000Y-66561335D01*
X87855000Y-66368514D01*
X87915000Y-66368514D01*
X87915000Y-66631486D01*
X87966304Y-66889405D01*
X88066939Y-67132359D01*
X88213038Y-67351013D01*
X88398987Y-67536962D01*
X88617641Y-67683061D01*
X88779246Y-67750000D01*
X88617641Y-67816939D01*
X88398987Y-67963038D01*
X88213038Y-68148987D01*
X88066939Y-68367641D01*
X87966304Y-68610595D01*
X87915000Y-68868514D01*
X87915000Y-69131486D01*
X87966304Y-69389405D01*
X88066939Y-69632359D01*
X88213038Y-69851013D01*
X88398987Y-70036962D01*
X88617641Y-70183061D01*
X88779246Y-70250000D01*
X88617641Y-70316939D01*
X88398987Y-70463038D01*
X88213038Y-70648987D01*
X88066939Y-70867641D01*
X87966304Y-71110595D01*
X87915000Y-71368514D01*
X87915000Y-71631486D01*
X87966304Y-71889405D01*
X88066939Y-72132359D01*
X88213038Y-72351013D01*
X88398987Y-72536962D01*
X88617641Y-72683061D01*
X88779246Y-72750000D01*
X88617641Y-72816939D01*
X88398987Y-72963038D01*
X88213038Y-73148987D01*
X88066939Y-73367641D01*
X87966304Y-73610595D01*
X87915000Y-73868514D01*
X87915000Y-74131486D01*
X87966304Y-74389405D01*
X88066939Y-74632359D01*
X88213038Y-74851013D01*
X88398987Y-75036962D01*
X88617641Y-75183061D01*
X88860595Y-75283696D01*
X89118514Y-75335000D01*
X89381486Y-75335000D01*
X89639405Y-75283696D01*
X89882359Y-75183061D01*
X90101013Y-75036962D01*
X90286962Y-74851013D01*
X90433061Y-74632359D01*
X90533696Y-74389405D01*
X90585000Y-74131486D01*
X90585000Y-73868514D01*
X90533696Y-73610595D01*
X90433061Y-73367641D01*
X90286962Y-73148987D01*
X90101013Y-72963038D01*
X89882359Y-72816939D01*
X89720754Y-72750000D01*
X89882359Y-72683061D01*
X90101013Y-72536962D01*
X90286962Y-72351013D01*
X90433061Y-72132359D01*
X90533696Y-71889405D01*
X90585000Y-71631486D01*
X90585000Y-71368514D01*
X90533696Y-71110595D01*
X90433061Y-70867641D01*
X90286962Y-70648987D01*
X90101013Y-70463038D01*
X89882359Y-70316939D01*
X89720754Y-70250000D01*
X89882359Y-70183061D01*
X90101013Y-70036962D01*
X90286962Y-69851013D01*
X90433061Y-69632359D01*
X90533696Y-69389405D01*
X90585000Y-69131486D01*
X90585000Y-68868514D01*
X90533696Y-68610595D01*
X90433061Y-68367641D01*
X90286962Y-68148987D01*
X90101013Y-67963038D01*
X89882359Y-67816939D01*
X89720754Y-67750000D01*
X89882359Y-67683061D01*
X90101013Y-67536962D01*
X90286962Y-67351013D01*
X90433061Y-67132359D01*
X90533696Y-66889405D01*
X90585000Y-66631486D01*
X90585000Y-66368514D01*
X90533696Y-66110595D01*
X90433061Y-65867641D01*
X90286962Y-65648987D01*
X90101013Y-65463038D01*
X89882359Y-65316939D01*
X89639405Y-65216304D01*
X89381486Y-65165000D01*
X89118514Y-65165000D01*
X88860595Y-65216304D01*
X88617641Y-65316939D01*
X88398987Y-65463038D01*
X88213038Y-65648987D01*
X88066939Y-65867641D01*
X87966304Y-66110595D01*
X87915000Y-66368514D01*
X87855000Y-66368514D01*
X87855000Y-66278665D01*
X87799853Y-66001426D01*
X87691680Y-65740273D01*
X87534637Y-65505241D01*
X87334759Y-65305363D01*
X87102241Y-65150000D01*
X87334759Y-64994637D01*
X87534637Y-64794759D01*
X87691680Y-64559727D01*
X87799853Y-64298574D01*
X87855000Y-64021335D01*
X87855000Y-63738665D01*
X87799853Y-63461426D01*
X87691680Y-63200273D01*
X87534637Y-62965241D01*
X87334759Y-62765363D01*
X87102241Y-62610000D01*
X87334759Y-62454637D01*
X87534637Y-62254759D01*
X87691680Y-62019727D01*
X87799853Y-61758574D01*
X87854931Y-61481683D01*
X87886304Y-61639405D01*
X87986939Y-61882359D01*
X88133038Y-62101013D01*
X88318987Y-62286962D01*
X88537641Y-62433061D01*
X88739246Y-62516569D01*
X88617641Y-62566939D01*
X88398987Y-62713038D01*
X88213038Y-62898987D01*
X88066939Y-63117641D01*
X87966304Y-63360595D01*
X87915000Y-63618514D01*
X87915000Y-63881486D01*
X87966304Y-64139405D01*
X88066939Y-64382359D01*
X88213038Y-64601013D01*
X88398987Y-64786962D01*
X88617641Y-64933061D01*
X88860595Y-65033696D01*
X89118514Y-65085000D01*
X89381486Y-65085000D01*
X89639405Y-65033696D01*
X89882359Y-64933061D01*
X90101013Y-64786962D01*
X90286962Y-64601013D01*
X90433061Y-64382359D01*
X90533696Y-64139405D01*
X90585000Y-63881486D01*
X90585000Y-63618514D01*
X90533696Y-63360595D01*
X90433061Y-63117641D01*
X90286962Y-62898987D01*
X90101013Y-62713038D01*
X89882359Y-62566939D01*
X89680754Y-62483431D01*
X89802359Y-62433061D01*
X90021013Y-62286962D01*
X90206962Y-62101013D01*
X90353061Y-61882359D01*
X90453696Y-61639405D01*
X90505000Y-61381486D01*
X90505000Y-61118514D01*
X90453696Y-60860595D01*
X90353061Y-60617641D01*
X90206962Y-60398987D01*
X90021013Y-60213038D01*
X89802359Y-60066939D01*
X89640754Y-60000000D01*
X89802359Y-59933061D01*
X90021013Y-59786962D01*
X90206962Y-59601013D01*
X90353061Y-59382359D01*
X90453696Y-59139405D01*
X90505000Y-58881486D01*
X90505000Y-58618514D01*
X90453696Y-58360595D01*
X90353061Y-58117641D01*
X90206962Y-57898987D01*
X90021013Y-57713038D01*
X89802359Y-57566939D01*
X89559405Y-57466304D01*
X89301486Y-57415000D01*
X89038514Y-57415000D01*
X88780595Y-57466304D01*
X88537641Y-57566939D01*
X88318987Y-57713038D01*
X88133038Y-57898987D01*
X87986939Y-58117641D01*
X87886304Y-58360595D01*
X87841007Y-58588317D01*
X87799853Y-58381426D01*
X87691680Y-58120273D01*
X87534637Y-57885241D01*
X87334759Y-57685363D01*
X87099727Y-57528320D01*
X86838574Y-57420147D01*
X86561335Y-57365000D01*
X86278665Y-57365000D01*
X86001426Y-57420147D01*
X85740273Y-57528320D01*
X85505241Y-57685363D01*
X85305363Y-57885241D01*
X85148320Y-58120273D01*
X85040147Y-58381426D01*
X84985000Y-58658665D01*
X84985000Y-58941335D01*
X85040147Y-59218574D01*
X85148320Y-59479727D01*
X85305363Y-59714759D01*
X85505241Y-59914637D01*
X85737759Y-60070000D01*
X85505241Y-60225363D01*
X85305363Y-60425241D01*
X85148320Y-60660273D01*
X85040147Y-60921426D01*
X84985000Y-61198665D01*
X84985000Y-61481335D01*
X85040147Y-61758574D01*
X85148320Y-62019727D01*
X85305363Y-62254759D01*
X85505241Y-62454637D01*
X85737759Y-62610000D01*
X85505241Y-62765363D01*
X85305363Y-62965241D01*
X85148320Y-63200273D01*
X85040147Y-63461426D01*
X84985000Y-63738665D01*
X84985000Y-64021335D01*
X85040147Y-64298574D01*
X85148320Y-64559727D01*
X85305363Y-64794759D01*
X85505241Y-64994637D01*
X85737759Y-65150000D01*
X85505241Y-65305363D01*
X85305363Y-65505241D01*
X85148320Y-65740273D01*
X85040147Y-66001426D01*
X84985000Y-66278665D01*
X84985000Y-66561335D01*
X85040147Y-66838574D01*
X85148320Y-67099727D01*
X85305363Y-67334759D01*
X85505241Y-67534637D01*
X85737759Y-67690000D01*
X85505241Y-67845363D01*
X85305363Y-68045241D01*
X85148320Y-68280273D01*
X85040147Y-68541426D01*
X84985000Y-68818665D01*
X84985000Y-69101335D01*
X85040147Y-69378574D01*
X85148320Y-69639727D01*
X85305363Y-69874759D01*
X85505241Y-70074637D01*
X85737759Y-70230000D01*
X85505241Y-70385363D01*
X85305363Y-70585241D01*
X85148320Y-70820273D01*
X85040147Y-71081426D01*
X84985000Y-71358665D01*
X84985000Y-71641335D01*
X85040147Y-71918574D01*
X85148320Y-72179727D01*
X85305363Y-72414759D01*
X85505241Y-72614637D01*
X85737759Y-72770000D01*
X85505241Y-72925363D01*
X85305363Y-73125241D01*
X85148320Y-73360273D01*
X85040147Y-73621426D01*
X84985000Y-73898665D01*
X84985000Y-74181335D01*
X85040147Y-74458574D01*
X85148320Y-74719727D01*
X85305363Y-74954759D01*
X85505241Y-75154637D01*
X85737759Y-75310000D01*
X85505241Y-75465363D01*
X85305363Y-75665241D01*
X85148320Y-75900273D01*
X85040147Y-76161426D01*
X84985000Y-76438665D01*
X84985000Y-76721335D01*
X85038481Y-76990200D01*
X81486411Y-76990200D01*
X81235400Y-76739190D01*
X81235400Y-33858665D01*
X84785000Y-33858665D01*
X84785000Y-34141335D01*
X84840147Y-34418574D01*
X84948320Y-34679727D01*
X85105363Y-34914759D01*
X85305241Y-35114637D01*
X85537759Y-35270000D01*
X85305241Y-35425363D01*
X85105363Y-35625241D01*
X84948320Y-35860273D01*
X84840147Y-36121426D01*
X84785000Y-36398665D01*
X84785000Y-36681335D01*
X84840147Y-36958574D01*
X84948320Y-37219727D01*
X85105363Y-37454759D01*
X85305241Y-37654637D01*
X85537759Y-37810000D01*
X85305241Y-37965363D01*
X85105363Y-38165241D01*
X84948320Y-38400273D01*
X84840147Y-38661426D01*
X84785000Y-38938665D01*
X84785000Y-39221335D01*
X84840147Y-39498574D01*
X84948320Y-39759727D01*
X85105363Y-39994759D01*
X85305241Y-40194637D01*
X85537759Y-40350000D01*
X85305241Y-40505363D01*
X85105363Y-40705241D01*
X84948320Y-40940273D01*
X84840147Y-41201426D01*
X84785000Y-41478665D01*
X84785000Y-41761335D01*
X84840147Y-42038574D01*
X84948320Y-42299727D01*
X85105363Y-42534759D01*
X85305241Y-42734637D01*
X85537759Y-42890000D01*
X85305241Y-43045363D01*
X85105363Y-43245241D01*
X84948320Y-43480273D01*
X84840147Y-43741426D01*
X84785000Y-44018665D01*
X84785000Y-44301335D01*
X84840147Y-44578574D01*
X84948320Y-44839727D01*
X85105363Y-45074759D01*
X85305241Y-45274637D01*
X85537759Y-45430000D01*
X85305241Y-45585363D01*
X85105363Y-45785241D01*
X84948320Y-46020273D01*
X84840147Y-46281426D01*
X84785000Y-46558665D01*
X84785000Y-46841335D01*
X84840147Y-47118574D01*
X84948320Y-47379727D01*
X85105363Y-47614759D01*
X85305241Y-47814637D01*
X85537759Y-47970000D01*
X85305241Y-48125363D01*
X85105363Y-48325241D01*
X84948320Y-48560273D01*
X84840147Y-48821426D01*
X84785000Y-49098665D01*
X84785000Y-49381335D01*
X84840147Y-49658574D01*
X84948320Y-49919727D01*
X85105363Y-50154759D01*
X85305241Y-50354637D01*
X85537759Y-50510000D01*
X85305241Y-50665363D01*
X85105363Y-50865241D01*
X84948320Y-51100273D01*
X84840147Y-51361426D01*
X84785000Y-51638665D01*
X84785000Y-51921335D01*
X84840147Y-52198574D01*
X84948320Y-52459727D01*
X85105363Y-52694759D01*
X85305241Y-52894637D01*
X85540273Y-53051680D01*
X85801426Y-53159853D01*
X86078665Y-53215000D01*
X86361335Y-53215000D01*
X86638574Y-53159853D01*
X86899727Y-53051680D01*
X87134759Y-52894637D01*
X87334637Y-52694759D01*
X87491680Y-52459727D01*
X87599853Y-52198574D01*
X87655000Y-51921335D01*
X87655000Y-51638665D01*
X87599853Y-51361426D01*
X87491680Y-51100273D01*
X87334637Y-50865241D01*
X87134759Y-50665363D01*
X86902241Y-50510000D01*
X87134759Y-50354637D01*
X87334637Y-50154759D01*
X87491680Y-49919727D01*
X87599853Y-49658574D01*
X87655000Y-49381335D01*
X87655000Y-49098665D01*
X87599853Y-48821426D01*
X87491680Y-48560273D01*
X87334637Y-48325241D01*
X87134759Y-48125363D01*
X86902241Y-47970000D01*
X87134759Y-47814637D01*
X87334637Y-47614759D01*
X87491680Y-47379727D01*
X87599853Y-47118574D01*
X87655000Y-46841335D01*
X87655000Y-46558665D01*
X87599853Y-46281426D01*
X87491680Y-46020273D01*
X87334637Y-45785241D01*
X87134759Y-45585363D01*
X86902241Y-45430000D01*
X87134759Y-45274637D01*
X87334637Y-45074759D01*
X87491680Y-44839727D01*
X87599853Y-44578574D01*
X87655000Y-44301335D01*
X87655000Y-44118514D01*
X87835000Y-44118514D01*
X87835000Y-44381486D01*
X87886304Y-44639405D01*
X87986939Y-44882359D01*
X88133038Y-45101013D01*
X88318987Y-45286962D01*
X88537641Y-45433061D01*
X88699246Y-45500000D01*
X88537641Y-45566939D01*
X88318987Y-45713038D01*
X88133038Y-45898987D01*
X87986939Y-46117641D01*
X87886304Y-46360595D01*
X87835000Y-46618514D01*
X87835000Y-46881486D01*
X87886304Y-47139405D01*
X87986939Y-47382359D01*
X88133038Y-47601013D01*
X88318987Y-47786962D01*
X88537641Y-47933061D01*
X88699246Y-48000000D01*
X88537641Y-48066939D01*
X88318987Y-48213038D01*
X88133038Y-48398987D01*
X87986939Y-48617641D01*
X87886304Y-48860595D01*
X87835000Y-49118514D01*
X87835000Y-49381486D01*
X87886304Y-49639405D01*
X87986939Y-49882359D01*
X88133038Y-50101013D01*
X88318987Y-50286962D01*
X88537641Y-50433061D01*
X88780595Y-50533696D01*
X89038514Y-50585000D01*
X89301486Y-50585000D01*
X89559405Y-50533696D01*
X89802359Y-50433061D01*
X90021013Y-50286962D01*
X90206962Y-50101013D01*
X90353061Y-49882359D01*
X90453696Y-49639405D01*
X90505000Y-49381486D01*
X90505000Y-49118514D01*
X90453696Y-48860595D01*
X90353061Y-48617641D01*
X90206962Y-48398987D01*
X90021013Y-48213038D01*
X89802359Y-48066939D01*
X89640754Y-48000000D01*
X89802359Y-47933061D01*
X90021013Y-47786962D01*
X90206962Y-47601013D01*
X90353061Y-47382359D01*
X90453696Y-47139405D01*
X90505000Y-46881486D01*
X90505000Y-46618514D01*
X90453696Y-46360595D01*
X90353061Y-46117641D01*
X90206962Y-45898987D01*
X90021013Y-45713038D01*
X89802359Y-45566939D01*
X89640754Y-45500000D01*
X89802359Y-45433061D01*
X90021013Y-45286962D01*
X90206962Y-45101013D01*
X90353061Y-44882359D01*
X90453696Y-44639405D01*
X90505000Y-44381486D01*
X90505000Y-44118514D01*
X90453696Y-43860595D01*
X90353061Y-43617641D01*
X90206962Y-43398987D01*
X90021013Y-43213038D01*
X89802359Y-43066939D01*
X89559405Y-42966304D01*
X89301486Y-42915000D01*
X89038514Y-42915000D01*
X88780595Y-42966304D01*
X88537641Y-43066939D01*
X88318987Y-43213038D01*
X88133038Y-43398987D01*
X87986939Y-43617641D01*
X87886304Y-43860595D01*
X87835000Y-44118514D01*
X87655000Y-44118514D01*
X87655000Y-44018665D01*
X87599853Y-43741426D01*
X87491680Y-43480273D01*
X87334637Y-43245241D01*
X87134759Y-43045363D01*
X86902241Y-42890000D01*
X87134759Y-42734637D01*
X87334637Y-42534759D01*
X87491680Y-42299727D01*
X87599853Y-42038574D01*
X87655000Y-41761335D01*
X87655000Y-41478665D01*
X87599853Y-41201426D01*
X87491680Y-40940273D01*
X87334637Y-40705241D01*
X87134759Y-40505363D01*
X86902241Y-40350000D01*
X87134759Y-40194637D01*
X87334637Y-39994759D01*
X87491680Y-39759727D01*
X87599853Y-39498574D01*
X87655000Y-39221335D01*
X87655000Y-38938665D01*
X87599853Y-38661426D01*
X87491680Y-38400273D01*
X87334637Y-38165241D01*
X87134759Y-37965363D01*
X86902241Y-37810000D01*
X87134759Y-37654637D01*
X87334637Y-37454759D01*
X87491680Y-37219727D01*
X87599853Y-36958574D01*
X87655000Y-36681335D01*
X87655000Y-36398665D01*
X87599853Y-36121426D01*
X87491680Y-35860273D01*
X87334637Y-35625241D01*
X87134759Y-35425363D01*
X86902241Y-35270000D01*
X87134759Y-35114637D01*
X87334637Y-34914759D01*
X87491680Y-34679727D01*
X87599853Y-34418574D01*
X87655000Y-34141335D01*
X87655000Y-33868514D01*
X87835000Y-33868514D01*
X87835000Y-34131486D01*
X87886304Y-34389405D01*
X87986939Y-34632359D01*
X88133038Y-34851013D01*
X88318987Y-35036962D01*
X88537641Y-35183061D01*
X88699246Y-35250000D01*
X88537641Y-35316939D01*
X88318987Y-35463038D01*
X88133038Y-35648987D01*
X87986939Y-35867641D01*
X87886304Y-36110595D01*
X87835000Y-36368514D01*
X87835000Y-36631486D01*
X87886304Y-36889405D01*
X87986939Y-37132359D01*
X88133038Y-37351013D01*
X88318987Y-37536962D01*
X88537641Y-37683061D01*
X88699246Y-37750000D01*
X88537641Y-37816939D01*
X88318987Y-37963038D01*
X88133038Y-38148987D01*
X87986939Y-38367641D01*
X87886304Y-38610595D01*
X87835000Y-38868514D01*
X87835000Y-39131486D01*
X87886304Y-39389405D01*
X87986939Y-39632359D01*
X88133038Y-39851013D01*
X88318987Y-40036962D01*
X88537641Y-40183061D01*
X88699246Y-40250000D01*
X88537641Y-40316939D01*
X88318987Y-40463038D01*
X88133038Y-40648987D01*
X87986939Y-40867641D01*
X87886304Y-41110595D01*
X87835000Y-41368514D01*
X87835000Y-41631486D01*
X87886304Y-41889405D01*
X87986939Y-42132359D01*
X88133038Y-42351013D01*
X88318987Y-42536962D01*
X88537641Y-42683061D01*
X88780595Y-42783696D01*
X89038514Y-42835000D01*
X89301486Y-42835000D01*
X89559405Y-42783696D01*
X89802359Y-42683061D01*
X90021013Y-42536962D01*
X90206962Y-42351013D01*
X90353061Y-42132359D01*
X90453696Y-41889405D01*
X90505000Y-41631486D01*
X90505000Y-41368514D01*
X90453696Y-41110595D01*
X90353061Y-40867641D01*
X90206962Y-40648987D01*
X90021013Y-40463038D01*
X89802359Y-40316939D01*
X89640754Y-40250000D01*
X89802359Y-40183061D01*
X90021013Y-40036962D01*
X90206962Y-39851013D01*
X90353061Y-39632359D01*
X90453696Y-39389405D01*
X90505000Y-39131486D01*
X90505000Y-38868514D01*
X90453696Y-38610595D01*
X90353061Y-38367641D01*
X90206962Y-38148987D01*
X90021013Y-37963038D01*
X89802359Y-37816939D01*
X89640754Y-37750000D01*
X89802359Y-37683061D01*
X90021013Y-37536962D01*
X90206962Y-37351013D01*
X90353061Y-37132359D01*
X90453696Y-36889405D01*
X90505000Y-36631486D01*
X90505000Y-36368514D01*
X90453696Y-36110595D01*
X90353061Y-35867641D01*
X90206962Y-35648987D01*
X90021013Y-35463038D01*
X89802359Y-35316939D01*
X89640754Y-35250000D01*
X89802359Y-35183061D01*
X90021013Y-35036962D01*
X90206962Y-34851013D01*
X90353061Y-34632359D01*
X90453696Y-34389405D01*
X90505000Y-34131486D01*
X90505000Y-33868514D01*
X90453696Y-33610595D01*
X90353061Y-33367641D01*
X90206962Y-33148987D01*
X90021013Y-32963038D01*
X89802359Y-32816939D01*
X89559405Y-32716304D01*
X89301486Y-32665000D01*
X89038514Y-32665000D01*
X88780595Y-32716304D01*
X88537641Y-32816939D01*
X88318987Y-32963038D01*
X88133038Y-33148987D01*
X87986939Y-33367641D01*
X87886304Y-33610595D01*
X87835000Y-33868514D01*
X87655000Y-33868514D01*
X87655000Y-33858665D01*
X87599853Y-33581426D01*
X87491680Y-33320273D01*
X87334637Y-33085241D01*
X87134759Y-32885363D01*
X86899727Y-32728320D01*
X86638574Y-32620147D01*
X86361335Y-32565000D01*
X86078665Y-32565000D01*
X85801426Y-32620147D01*
X85540273Y-32728320D01*
X85305241Y-32885363D01*
X85105363Y-33085241D01*
X84948320Y-33320273D01*
X84840147Y-33581426D01*
X84785000Y-33858665D01*
X81235400Y-33858665D01*
X81235400Y-33160227D01*
X81240406Y-33109399D01*
X81235400Y-33058571D01*
X81235400Y-33058562D01*
X81220424Y-32906505D01*
X81161241Y-32711407D01*
X81065134Y-32531603D01*
X80935796Y-32374004D01*
X80896303Y-32341593D01*
X80458407Y-31903697D01*
X80425996Y-31864204D01*
X80268397Y-31734866D01*
X80128332Y-31660000D01*
X93426316Y-31660000D01*
X93325907Y-31690459D01*
%TA.AperFunction,Conductor*%
D19*
G36*
X93325907Y-31690459D02*
G01*
X93242827Y-31734866D01*
X93146102Y-31786566D01*
X93051499Y-31864205D01*
X92988504Y-31915904D01*
X92956097Y-31955392D01*
X92253292Y-32658198D01*
X92213805Y-32690604D01*
X92181398Y-32730092D01*
X92181397Y-32730093D01*
X92084466Y-32848203D01*
X91988360Y-33028007D01*
X91929177Y-33223105D01*
X91909194Y-33426000D01*
X91914201Y-33476838D01*
X91914200Y-57398372D01*
X91909194Y-57449200D01*
X91914200Y-57500028D01*
X91914200Y-57500037D01*
X91929176Y-57652094D01*
X91988359Y-57847192D01*
X92084466Y-58026997D01*
X92213804Y-58184596D01*
X92253297Y-58217007D01*
X92915000Y-58878711D01*
X92915000Y-58881486D01*
X92966304Y-59139405D01*
X93066939Y-59382359D01*
X93213038Y-59601013D01*
X93215001Y-59602976D01*
X93215000Y-60397025D01*
X93213038Y-60398987D01*
X93066939Y-60617641D01*
X92966304Y-60860595D01*
X92915000Y-61118514D01*
X92915000Y-61381486D01*
X92966304Y-61639405D01*
X93066939Y-61882359D01*
X93213038Y-62101013D01*
X93215001Y-62102976D01*
X93215000Y-63015779D01*
X93146939Y-63117641D01*
X93046304Y-63360595D01*
X92995000Y-63618514D01*
X92995000Y-63881486D01*
X93046304Y-64139405D01*
X93146939Y-64382359D01*
X93293038Y-64601013D01*
X93295001Y-64602976D01*
X93295000Y-65647025D01*
X93293038Y-65648987D01*
X93146939Y-65867641D01*
X93046304Y-66110595D01*
X92995000Y-66368514D01*
X92995000Y-66631486D01*
X93046304Y-66889405D01*
X93146939Y-67132359D01*
X93293038Y-67351013D01*
X93295001Y-67352976D01*
X93295000Y-68147025D01*
X93293038Y-68148987D01*
X93146939Y-68367641D01*
X93046304Y-68610595D01*
X92995000Y-68868514D01*
X92995000Y-69131486D01*
X93046304Y-69389405D01*
X93146939Y-69632359D01*
X93293038Y-69851013D01*
X93295001Y-69852976D01*
X93295000Y-70647025D01*
X93293038Y-70648987D01*
X93146939Y-70867641D01*
X93046304Y-71110595D01*
X92995000Y-71368514D01*
X92995000Y-71631486D01*
X93046304Y-71889405D01*
X93146939Y-72132359D01*
X93293038Y-72351013D01*
X93295001Y-72352976D01*
X93295000Y-73147025D01*
X93293038Y-73148987D01*
X93146939Y-73367641D01*
X93046304Y-73610595D01*
X92995000Y-73868514D01*
X92995000Y-74131486D01*
X93046304Y-74389405D01*
X93146939Y-74632359D01*
X93293038Y-74851013D01*
X93295001Y-74852976D01*
X93295000Y-76398061D01*
X93295000Y-76601939D01*
X93304969Y-76652058D01*
X93309976Y-76702894D01*
X93324804Y-76751774D01*
X93334774Y-76801898D01*
X93354332Y-76849116D01*
X93369159Y-76897992D01*
X93393237Y-76943039D01*
X93412772Y-76990200D01*
X87801519Y-76990200D01*
X87855000Y-76721335D01*
X87855000Y-76438665D01*
X87799853Y-76161426D01*
X87691680Y-75900273D01*
X87534637Y-75665241D01*
X87334759Y-75465363D01*
X87102241Y-75310000D01*
X87334759Y-75154637D01*
X87534637Y-74954759D01*
X87691680Y-74719727D01*
X87799853Y-74458574D01*
X87855000Y-74181335D01*
X87855000Y-73898665D01*
X87799853Y-73621426D01*
X87691680Y-73360273D01*
X87534637Y-73125241D01*
X87334759Y-72925363D01*
X87102241Y-72770000D01*
X87334759Y-72614637D01*
X87534637Y-72414759D01*
X87691680Y-72179727D01*
X87799853Y-71918574D01*
X87855000Y-71641335D01*
X87855000Y-71358665D01*
X87799853Y-71081426D01*
X87691680Y-70820273D01*
X87534637Y-70585241D01*
X87334759Y-70385363D01*
X87102241Y-70230000D01*
X87334759Y-70074637D01*
X87534637Y-69874759D01*
X87691680Y-69639727D01*
X87799853Y-69378574D01*
X87855000Y-69101335D01*
X87855000Y-68818665D01*
X87799853Y-68541426D01*
X87691680Y-68280273D01*
X87534637Y-68045241D01*
X87334759Y-67845363D01*
X87102241Y-67690000D01*
X87334759Y-67534637D01*
X87534637Y-67334759D01*
X87691680Y-67099727D01*
X87799853Y-66838574D01*
X87855000Y-66561335D01*
X87855000Y-66368514D01*
X87915000Y-66368514D01*
X87915000Y-66631486D01*
X87966304Y-66889405D01*
X88066939Y-67132359D01*
X88213038Y-67351013D01*
X88398987Y-67536962D01*
X88617641Y-67683061D01*
X88779246Y-67750000D01*
X88617641Y-67816939D01*
X88398987Y-67963038D01*
X88213038Y-68148987D01*
X88066939Y-68367641D01*
X87966304Y-68610595D01*
X87915000Y-68868514D01*
X87915000Y-69131486D01*
X87966304Y-69389405D01*
X88066939Y-69632359D01*
X88213038Y-69851013D01*
X88398987Y-70036962D01*
X88617641Y-70183061D01*
X88779246Y-70250000D01*
X88617641Y-70316939D01*
X88398987Y-70463038D01*
X88213038Y-70648987D01*
X88066939Y-70867641D01*
X87966304Y-71110595D01*
X87915000Y-71368514D01*
X87915000Y-71631486D01*
X87966304Y-71889405D01*
X88066939Y-72132359D01*
X88213038Y-72351013D01*
X88398987Y-72536962D01*
X88617641Y-72683061D01*
X88779246Y-72750000D01*
X88617641Y-72816939D01*
X88398987Y-72963038D01*
X88213038Y-73148987D01*
X88066939Y-73367641D01*
X87966304Y-73610595D01*
X87915000Y-73868514D01*
X87915000Y-74131486D01*
X87966304Y-74389405D01*
X88066939Y-74632359D01*
X88213038Y-74851013D01*
X88398987Y-75036962D01*
X88617641Y-75183061D01*
X88860595Y-75283696D01*
X89118514Y-75335000D01*
X89381486Y-75335000D01*
X89639405Y-75283696D01*
X89882359Y-75183061D01*
X90101013Y-75036962D01*
X90286962Y-74851013D01*
X90433061Y-74632359D01*
X90533696Y-74389405D01*
X90585000Y-74131486D01*
X90585000Y-73868514D01*
X90533696Y-73610595D01*
X90433061Y-73367641D01*
X90286962Y-73148987D01*
X90101013Y-72963038D01*
X89882359Y-72816939D01*
X89720754Y-72750000D01*
X89882359Y-72683061D01*
X90101013Y-72536962D01*
X90286962Y-72351013D01*
X90433061Y-72132359D01*
X90533696Y-71889405D01*
X90585000Y-71631486D01*
X90585000Y-71368514D01*
X90533696Y-71110595D01*
X90433061Y-70867641D01*
X90286962Y-70648987D01*
X90101013Y-70463038D01*
X89882359Y-70316939D01*
X89720754Y-70250000D01*
X89882359Y-70183061D01*
X90101013Y-70036962D01*
X90286962Y-69851013D01*
X90433061Y-69632359D01*
X90533696Y-69389405D01*
X90585000Y-69131486D01*
X90585000Y-68868514D01*
X90533696Y-68610595D01*
X90433061Y-68367641D01*
X90286962Y-68148987D01*
X90101013Y-67963038D01*
X89882359Y-67816939D01*
X89720754Y-67750000D01*
X89882359Y-67683061D01*
X90101013Y-67536962D01*
X90286962Y-67351013D01*
X90433061Y-67132359D01*
X90533696Y-66889405D01*
X90585000Y-66631486D01*
X90585000Y-66368514D01*
X90533696Y-66110595D01*
X90433061Y-65867641D01*
X90286962Y-65648987D01*
X90101013Y-65463038D01*
X89882359Y-65316939D01*
X89639405Y-65216304D01*
X89381486Y-65165000D01*
X89118514Y-65165000D01*
X88860595Y-65216304D01*
X88617641Y-65316939D01*
X88398987Y-65463038D01*
X88213038Y-65648987D01*
X88066939Y-65867641D01*
X87966304Y-66110595D01*
X87915000Y-66368514D01*
X87855000Y-66368514D01*
X87855000Y-66278665D01*
X87799853Y-66001426D01*
X87691680Y-65740273D01*
X87534637Y-65505241D01*
X87334759Y-65305363D01*
X87102241Y-65150000D01*
X87334759Y-64994637D01*
X87534637Y-64794759D01*
X87691680Y-64559727D01*
X87799853Y-64298574D01*
X87855000Y-64021335D01*
X87855000Y-63738665D01*
X87799853Y-63461426D01*
X87691680Y-63200273D01*
X87534637Y-62965241D01*
X87334759Y-62765363D01*
X87102241Y-62610000D01*
X87334759Y-62454637D01*
X87534637Y-62254759D01*
X87691680Y-62019727D01*
X87799853Y-61758574D01*
X87854931Y-61481683D01*
X87886304Y-61639405D01*
X87986939Y-61882359D01*
X88133038Y-62101013D01*
X88318987Y-62286962D01*
X88537641Y-62433061D01*
X88739246Y-62516569D01*
X88617641Y-62566939D01*
X88398987Y-62713038D01*
X88213038Y-62898987D01*
X88066939Y-63117641D01*
X87966304Y-63360595D01*
X87915000Y-63618514D01*
X87915000Y-63881486D01*
X87966304Y-64139405D01*
X88066939Y-64382359D01*
X88213038Y-64601013D01*
X88398987Y-64786962D01*
X88617641Y-64933061D01*
X88860595Y-65033696D01*
X89118514Y-65085000D01*
X89381486Y-65085000D01*
X89639405Y-65033696D01*
X89882359Y-64933061D01*
X90101013Y-64786962D01*
X90286962Y-64601013D01*
X90433061Y-64382359D01*
X90533696Y-64139405D01*
X90585000Y-63881486D01*
X90585000Y-63618514D01*
X90533696Y-63360595D01*
X90433061Y-63117641D01*
X90286962Y-62898987D01*
X90101013Y-62713038D01*
X89882359Y-62566939D01*
X89680754Y-62483431D01*
X89802359Y-62433061D01*
X90021013Y-62286962D01*
X90206962Y-62101013D01*
X90353061Y-61882359D01*
X90453696Y-61639405D01*
X90505000Y-61381486D01*
X90505000Y-61118514D01*
X90453696Y-60860595D01*
X90353061Y-60617641D01*
X90206962Y-60398987D01*
X90021013Y-60213038D01*
X89802359Y-60066939D01*
X89640754Y-60000000D01*
X89802359Y-59933061D01*
X90021013Y-59786962D01*
X90206962Y-59601013D01*
X90353061Y-59382359D01*
X90453696Y-59139405D01*
X90505000Y-58881486D01*
X90505000Y-58618514D01*
X90453696Y-58360595D01*
X90353061Y-58117641D01*
X90206962Y-57898987D01*
X90021013Y-57713038D01*
X89802359Y-57566939D01*
X89559405Y-57466304D01*
X89301486Y-57415000D01*
X89038514Y-57415000D01*
X88780595Y-57466304D01*
X88537641Y-57566939D01*
X88318987Y-57713038D01*
X88133038Y-57898987D01*
X87986939Y-58117641D01*
X87886304Y-58360595D01*
X87841007Y-58588317D01*
X87799853Y-58381426D01*
X87691680Y-58120273D01*
X87534637Y-57885241D01*
X87334759Y-57685363D01*
X87099727Y-57528320D01*
X86838574Y-57420147D01*
X86561335Y-57365000D01*
X86278665Y-57365000D01*
X86001426Y-57420147D01*
X85740273Y-57528320D01*
X85505241Y-57685363D01*
X85305363Y-57885241D01*
X85148320Y-58120273D01*
X85040147Y-58381426D01*
X84985000Y-58658665D01*
X84985000Y-58941335D01*
X85040147Y-59218574D01*
X85148320Y-59479727D01*
X85305363Y-59714759D01*
X85505241Y-59914637D01*
X85737759Y-60070000D01*
X85505241Y-60225363D01*
X85305363Y-60425241D01*
X85148320Y-60660273D01*
X85040147Y-60921426D01*
X84985000Y-61198665D01*
X84985000Y-61481335D01*
X85040147Y-61758574D01*
X85148320Y-62019727D01*
X85305363Y-62254759D01*
X85505241Y-62454637D01*
X85737759Y-62610000D01*
X85505241Y-62765363D01*
X85305363Y-62965241D01*
X85148320Y-63200273D01*
X85040147Y-63461426D01*
X84985000Y-63738665D01*
X84985000Y-64021335D01*
X85040147Y-64298574D01*
X85148320Y-64559727D01*
X85305363Y-64794759D01*
X85505241Y-64994637D01*
X85737759Y-65150000D01*
X85505241Y-65305363D01*
X85305363Y-65505241D01*
X85148320Y-65740273D01*
X85040147Y-66001426D01*
X84985000Y-66278665D01*
X84985000Y-66561335D01*
X85040147Y-66838574D01*
X85148320Y-67099727D01*
X85305363Y-67334759D01*
X85505241Y-67534637D01*
X85737759Y-67690000D01*
X85505241Y-67845363D01*
X85305363Y-68045241D01*
X85148320Y-68280273D01*
X85040147Y-68541426D01*
X84985000Y-68818665D01*
X84985000Y-69101335D01*
X85040147Y-69378574D01*
X85148320Y-69639727D01*
X85305363Y-69874759D01*
X85505241Y-70074637D01*
X85737759Y-70230000D01*
X85505241Y-70385363D01*
X85305363Y-70585241D01*
X85148320Y-70820273D01*
X85040147Y-71081426D01*
X84985000Y-71358665D01*
X84985000Y-71641335D01*
X85040147Y-71918574D01*
X85148320Y-72179727D01*
X85305363Y-72414759D01*
X85505241Y-72614637D01*
X85737759Y-72770000D01*
X85505241Y-72925363D01*
X85305363Y-73125241D01*
X85148320Y-73360273D01*
X85040147Y-73621426D01*
X84985000Y-73898665D01*
X84985000Y-74181335D01*
X85040147Y-74458574D01*
X85148320Y-74719727D01*
X85305363Y-74954759D01*
X85505241Y-75154637D01*
X85737759Y-75310000D01*
X85505241Y-75465363D01*
X85305363Y-75665241D01*
X85148320Y-75900273D01*
X85040147Y-76161426D01*
X84985000Y-76438665D01*
X84985000Y-76721335D01*
X85038481Y-76990200D01*
X81486411Y-76990200D01*
X81235400Y-76739190D01*
X81235400Y-33858665D01*
X84785000Y-33858665D01*
X84785000Y-34141335D01*
X84840147Y-34418574D01*
X84948320Y-34679727D01*
X85105363Y-34914759D01*
X85305241Y-35114637D01*
X85537759Y-35270000D01*
X85305241Y-35425363D01*
X85105363Y-35625241D01*
X84948320Y-35860273D01*
X84840147Y-36121426D01*
X84785000Y-36398665D01*
X84785000Y-36681335D01*
X84840147Y-36958574D01*
X84948320Y-37219727D01*
X85105363Y-37454759D01*
X85305241Y-37654637D01*
X85537759Y-37810000D01*
X85305241Y-37965363D01*
X85105363Y-38165241D01*
X84948320Y-38400273D01*
X84840147Y-38661426D01*
X84785000Y-38938665D01*
X84785000Y-39221335D01*
X84840147Y-39498574D01*
X84948320Y-39759727D01*
X85105363Y-39994759D01*
X85305241Y-40194637D01*
X85537759Y-40350000D01*
X85305241Y-40505363D01*
X85105363Y-40705241D01*
X84948320Y-40940273D01*
X84840147Y-41201426D01*
X84785000Y-41478665D01*
X84785000Y-41761335D01*
X84840147Y-42038574D01*
X84948320Y-42299727D01*
X85105363Y-42534759D01*
X85305241Y-42734637D01*
X85537759Y-42890000D01*
X85305241Y-43045363D01*
X85105363Y-43245241D01*
X84948320Y-43480273D01*
X84840147Y-43741426D01*
X84785000Y-44018665D01*
X84785000Y-44301335D01*
X84840147Y-44578574D01*
X84948320Y-44839727D01*
X85105363Y-45074759D01*
X85305241Y-45274637D01*
X85537759Y-45430000D01*
X85305241Y-45585363D01*
X85105363Y-45785241D01*
X84948320Y-46020273D01*
X84840147Y-46281426D01*
X84785000Y-46558665D01*
X84785000Y-46841335D01*
X84840147Y-47118574D01*
X84948320Y-47379727D01*
X85105363Y-47614759D01*
X85305241Y-47814637D01*
X85537759Y-47970000D01*
X85305241Y-48125363D01*
X85105363Y-48325241D01*
X84948320Y-48560273D01*
X84840147Y-48821426D01*
X84785000Y-49098665D01*
X84785000Y-49381335D01*
X84840147Y-49658574D01*
X84948320Y-49919727D01*
X85105363Y-50154759D01*
X85305241Y-50354637D01*
X85537759Y-50510000D01*
X85305241Y-50665363D01*
X85105363Y-50865241D01*
X84948320Y-51100273D01*
X84840147Y-51361426D01*
X84785000Y-51638665D01*
X84785000Y-51921335D01*
X84840147Y-52198574D01*
X84948320Y-52459727D01*
X85105363Y-52694759D01*
X85305241Y-52894637D01*
X85540273Y-53051680D01*
X85801426Y-53159853D01*
X86078665Y-53215000D01*
X86361335Y-53215000D01*
X86638574Y-53159853D01*
X86899727Y-53051680D01*
X87134759Y-52894637D01*
X87334637Y-52694759D01*
X87491680Y-52459727D01*
X87599853Y-52198574D01*
X87655000Y-51921335D01*
X87655000Y-51638665D01*
X87599853Y-51361426D01*
X87491680Y-51100273D01*
X87334637Y-50865241D01*
X87134759Y-50665363D01*
X86902241Y-50510000D01*
X87134759Y-50354637D01*
X87334637Y-50154759D01*
X87491680Y-49919727D01*
X87599853Y-49658574D01*
X87655000Y-49381335D01*
X87655000Y-49098665D01*
X87599853Y-48821426D01*
X87491680Y-48560273D01*
X87334637Y-48325241D01*
X87134759Y-48125363D01*
X86902241Y-47970000D01*
X87134759Y-47814637D01*
X87334637Y-47614759D01*
X87491680Y-47379727D01*
X87599853Y-47118574D01*
X87655000Y-46841335D01*
X87655000Y-46558665D01*
X87599853Y-46281426D01*
X87491680Y-46020273D01*
X87334637Y-45785241D01*
X87134759Y-45585363D01*
X86902241Y-45430000D01*
X87134759Y-45274637D01*
X87334637Y-45074759D01*
X87491680Y-44839727D01*
X87599853Y-44578574D01*
X87655000Y-44301335D01*
X87655000Y-44118514D01*
X87835000Y-44118514D01*
X87835000Y-44381486D01*
X87886304Y-44639405D01*
X87986939Y-44882359D01*
X88133038Y-45101013D01*
X88318987Y-45286962D01*
X88537641Y-45433061D01*
X88699246Y-45500000D01*
X88537641Y-45566939D01*
X88318987Y-45713038D01*
X88133038Y-45898987D01*
X87986939Y-46117641D01*
X87886304Y-46360595D01*
X87835000Y-46618514D01*
X87835000Y-46881486D01*
X87886304Y-47139405D01*
X87986939Y-47382359D01*
X88133038Y-47601013D01*
X88318987Y-47786962D01*
X88537641Y-47933061D01*
X88699246Y-48000000D01*
X88537641Y-48066939D01*
X88318987Y-48213038D01*
X88133038Y-48398987D01*
X87986939Y-48617641D01*
X87886304Y-48860595D01*
X87835000Y-49118514D01*
X87835000Y-49381486D01*
X87886304Y-49639405D01*
X87986939Y-49882359D01*
X88133038Y-50101013D01*
X88318987Y-50286962D01*
X88537641Y-50433061D01*
X88780595Y-50533696D01*
X89038514Y-50585000D01*
X89301486Y-50585000D01*
X89559405Y-50533696D01*
X89802359Y-50433061D01*
X90021013Y-50286962D01*
X90206962Y-50101013D01*
X90353061Y-49882359D01*
X90453696Y-49639405D01*
X90505000Y-49381486D01*
X90505000Y-49118514D01*
X90453696Y-48860595D01*
X90353061Y-48617641D01*
X90206962Y-48398987D01*
X90021013Y-48213038D01*
X89802359Y-48066939D01*
X89640754Y-48000000D01*
X89802359Y-47933061D01*
X90021013Y-47786962D01*
X90206962Y-47601013D01*
X90353061Y-47382359D01*
X90453696Y-47139405D01*
X90505000Y-46881486D01*
X90505000Y-46618514D01*
X90453696Y-46360595D01*
X90353061Y-46117641D01*
X90206962Y-45898987D01*
X90021013Y-45713038D01*
X89802359Y-45566939D01*
X89640754Y-45500000D01*
X89802359Y-45433061D01*
X90021013Y-45286962D01*
X90206962Y-45101013D01*
X90353061Y-44882359D01*
X90453696Y-44639405D01*
X90505000Y-44381486D01*
X90505000Y-44118514D01*
X90453696Y-43860595D01*
X90353061Y-43617641D01*
X90206962Y-43398987D01*
X90021013Y-43213038D01*
X89802359Y-43066939D01*
X89559405Y-42966304D01*
X89301486Y-42915000D01*
X89038514Y-42915000D01*
X88780595Y-42966304D01*
X88537641Y-43066939D01*
X88318987Y-43213038D01*
X88133038Y-43398987D01*
X87986939Y-43617641D01*
X87886304Y-43860595D01*
X87835000Y-44118514D01*
X87655000Y-44118514D01*
X87655000Y-44018665D01*
X87599853Y-43741426D01*
X87491680Y-43480273D01*
X87334637Y-43245241D01*
X87134759Y-43045363D01*
X86902241Y-42890000D01*
X87134759Y-42734637D01*
X87334637Y-42534759D01*
X87491680Y-42299727D01*
X87599853Y-42038574D01*
X87655000Y-41761335D01*
X87655000Y-41478665D01*
X87599853Y-41201426D01*
X87491680Y-40940273D01*
X87334637Y-40705241D01*
X87134759Y-40505363D01*
X86902241Y-40350000D01*
X87134759Y-40194637D01*
X87334637Y-39994759D01*
X87491680Y-39759727D01*
X87599853Y-39498574D01*
X87655000Y-39221335D01*
X87655000Y-38938665D01*
X87599853Y-38661426D01*
X87491680Y-38400273D01*
X87334637Y-38165241D01*
X87134759Y-37965363D01*
X86902241Y-37810000D01*
X87134759Y-37654637D01*
X87334637Y-37454759D01*
X87491680Y-37219727D01*
X87599853Y-36958574D01*
X87655000Y-36681335D01*
X87655000Y-36398665D01*
X87599853Y-36121426D01*
X87491680Y-35860273D01*
X87334637Y-35625241D01*
X87134759Y-35425363D01*
X86902241Y-35270000D01*
X87134759Y-35114637D01*
X87334637Y-34914759D01*
X87491680Y-34679727D01*
X87599853Y-34418574D01*
X87655000Y-34141335D01*
X87655000Y-33868514D01*
X87835000Y-33868514D01*
X87835000Y-34131486D01*
X87886304Y-34389405D01*
X87986939Y-34632359D01*
X88133038Y-34851013D01*
X88318987Y-35036962D01*
X88537641Y-35183061D01*
X88699246Y-35250000D01*
X88537641Y-35316939D01*
X88318987Y-35463038D01*
X88133038Y-35648987D01*
X87986939Y-35867641D01*
X87886304Y-36110595D01*
X87835000Y-36368514D01*
X87835000Y-36631486D01*
X87886304Y-36889405D01*
X87986939Y-37132359D01*
X88133038Y-37351013D01*
X88318987Y-37536962D01*
X88537641Y-37683061D01*
X88699246Y-37750000D01*
X88537641Y-37816939D01*
X88318987Y-37963038D01*
X88133038Y-38148987D01*
X87986939Y-38367641D01*
X87886304Y-38610595D01*
X87835000Y-38868514D01*
X87835000Y-39131486D01*
X87886304Y-39389405D01*
X87986939Y-39632359D01*
X88133038Y-39851013D01*
X88318987Y-40036962D01*
X88537641Y-40183061D01*
X88699246Y-40250000D01*
X88537641Y-40316939D01*
X88318987Y-40463038D01*
X88133038Y-40648987D01*
X87986939Y-40867641D01*
X87886304Y-41110595D01*
X87835000Y-41368514D01*
X87835000Y-41631486D01*
X87886304Y-41889405D01*
X87986939Y-42132359D01*
X88133038Y-42351013D01*
X88318987Y-42536962D01*
X88537641Y-42683061D01*
X88780595Y-42783696D01*
X89038514Y-42835000D01*
X89301486Y-42835000D01*
X89559405Y-42783696D01*
X89802359Y-42683061D01*
X90021013Y-42536962D01*
X90206962Y-42351013D01*
X90353061Y-42132359D01*
X90453696Y-41889405D01*
X90505000Y-41631486D01*
X90505000Y-41368514D01*
X90453696Y-41110595D01*
X90353061Y-40867641D01*
X90206962Y-40648987D01*
X90021013Y-40463038D01*
X89802359Y-40316939D01*
X89640754Y-40250000D01*
X89802359Y-40183061D01*
X90021013Y-40036962D01*
X90206962Y-39851013D01*
X90353061Y-39632359D01*
X90453696Y-39389405D01*
X90505000Y-39131486D01*
X90505000Y-38868514D01*
X90453696Y-38610595D01*
X90353061Y-38367641D01*
X90206962Y-38148987D01*
X90021013Y-37963038D01*
X89802359Y-37816939D01*
X89640754Y-37750000D01*
X89802359Y-37683061D01*
X90021013Y-37536962D01*
X90206962Y-37351013D01*
X90353061Y-37132359D01*
X90453696Y-36889405D01*
X90505000Y-36631486D01*
X90505000Y-36368514D01*
X90453696Y-36110595D01*
X90353061Y-35867641D01*
X90206962Y-35648987D01*
X90021013Y-35463038D01*
X89802359Y-35316939D01*
X89640754Y-35250000D01*
X89802359Y-35183061D01*
X90021013Y-35036962D01*
X90206962Y-34851013D01*
X90353061Y-34632359D01*
X90453696Y-34389405D01*
X90505000Y-34131486D01*
X90505000Y-33868514D01*
X90453696Y-33610595D01*
X90353061Y-33367641D01*
X90206962Y-33148987D01*
X90021013Y-32963038D01*
X89802359Y-32816939D01*
X89559405Y-32716304D01*
X89301486Y-32665000D01*
X89038514Y-32665000D01*
X88780595Y-32716304D01*
X88537641Y-32816939D01*
X88318987Y-32963038D01*
X88133038Y-33148987D01*
X87986939Y-33367641D01*
X87886304Y-33610595D01*
X87835000Y-33868514D01*
X87655000Y-33868514D01*
X87655000Y-33858665D01*
X87599853Y-33581426D01*
X87491680Y-33320273D01*
X87334637Y-33085241D01*
X87134759Y-32885363D01*
X86899727Y-32728320D01*
X86638574Y-32620147D01*
X86361335Y-32565000D01*
X86078665Y-32565000D01*
X85801426Y-32620147D01*
X85540273Y-32728320D01*
X85305241Y-32885363D01*
X85105363Y-33085241D01*
X84948320Y-33320273D01*
X84840147Y-33581426D01*
X84785000Y-33858665D01*
X81235400Y-33858665D01*
X81235400Y-33160227D01*
X81240406Y-33109399D01*
X81235400Y-33058571D01*
X81235400Y-33058562D01*
X81220424Y-32906505D01*
X81161241Y-32711407D01*
X81065134Y-32531603D01*
X80935796Y-32374004D01*
X80896303Y-32341593D01*
X80458407Y-31903697D01*
X80425996Y-31864204D01*
X80268397Y-31734866D01*
X80128332Y-31660000D01*
X93426316Y-31660000D01*
X93325907Y-31690459D01*
G37*
%TD.AperFunction*%
D18*
X77765000Y-67965604D02*
X77685363Y-68045241D01*
X77528320Y-68280273D01*
X77420147Y-68541426D01*
X77365000Y-68818665D01*
X77365000Y-69101335D01*
X77420147Y-69378574D01*
X77528320Y-69639727D01*
X77685363Y-69874759D01*
X77765001Y-69954397D01*
X77765000Y-70505604D01*
X77685363Y-70585241D01*
X77528320Y-70820273D01*
X77420147Y-71081426D01*
X77365000Y-71358665D01*
X77365000Y-71641335D01*
X77420147Y-71918574D01*
X77528320Y-72179727D01*
X77685363Y-72414759D01*
X77765001Y-72494397D01*
X77765000Y-73045604D01*
X77685363Y-73125241D01*
X77528320Y-73360273D01*
X77420147Y-73621426D01*
X77365000Y-73898665D01*
X77365000Y-74181335D01*
X77420147Y-74458574D01*
X77528320Y-74719727D01*
X77685363Y-74954759D01*
X77765001Y-75034397D01*
X77765000Y-75585604D01*
X77685363Y-75665241D01*
X77528320Y-75900273D01*
X77420147Y-76161426D01*
X77371201Y-76407490D01*
X74935000Y-73971290D01*
X74935000Y-73858665D01*
X74879853Y-73581426D01*
X74771680Y-73320273D01*
X74614637Y-73085241D01*
X74414759Y-72885363D01*
X74179727Y-72728320D01*
X73918574Y-72620147D01*
X73641335Y-72565000D01*
X73528711Y-72565000D01*
X71807807Y-70844097D01*
X71775396Y-70804604D01*
X71617797Y-70675266D01*
X71437993Y-70579159D01*
X71242895Y-70519976D01*
X71090838Y-70505000D01*
X71090828Y-70505000D01*
X71040000Y-70499994D01*
X70989172Y-70505000D01*
X70114396Y-70505000D01*
X70034759Y-70425363D01*
X69802241Y-70270000D01*
X70034759Y-70114637D01*
X70234637Y-69914759D01*
X70391680Y-69679727D01*
X70499853Y-69418574D01*
X70555000Y-69141335D01*
X70555000Y-68858665D01*
X70499853Y-68581426D01*
X70391680Y-68320273D01*
X70234637Y-68085241D01*
X70034759Y-67885363D01*
X69799727Y-67728320D01*
X69538574Y-67620147D01*
X69261335Y-67565000D01*
X68978665Y-67565000D01*
X68701426Y-67620147D01*
X68440273Y-67728320D01*
X68244741Y-67858970D01*
X68648711Y-67455000D01*
X77765001Y-67455000D01*
X77765000Y-67965604D01*
%TA.AperFunction,Conductor*%
D19*
G36*
X77765000Y-67965604D02*
G01*
X77685363Y-68045241D01*
X77528320Y-68280273D01*
X77420147Y-68541426D01*
X77365000Y-68818665D01*
X77365000Y-69101335D01*
X77420147Y-69378574D01*
X77528320Y-69639727D01*
X77685363Y-69874759D01*
X77765001Y-69954397D01*
X77765000Y-70505604D01*
X77685363Y-70585241D01*
X77528320Y-70820273D01*
X77420147Y-71081426D01*
X77365000Y-71358665D01*
X77365000Y-71641335D01*
X77420147Y-71918574D01*
X77528320Y-72179727D01*
X77685363Y-72414759D01*
X77765001Y-72494397D01*
X77765000Y-73045604D01*
X77685363Y-73125241D01*
X77528320Y-73360273D01*
X77420147Y-73621426D01*
X77365000Y-73898665D01*
X77365000Y-74181335D01*
X77420147Y-74458574D01*
X77528320Y-74719727D01*
X77685363Y-74954759D01*
X77765001Y-75034397D01*
X77765000Y-75585604D01*
X77685363Y-75665241D01*
X77528320Y-75900273D01*
X77420147Y-76161426D01*
X77371201Y-76407490D01*
X74935000Y-73971290D01*
X74935000Y-73858665D01*
X74879853Y-73581426D01*
X74771680Y-73320273D01*
X74614637Y-73085241D01*
X74414759Y-72885363D01*
X74179727Y-72728320D01*
X73918574Y-72620147D01*
X73641335Y-72565000D01*
X73528711Y-72565000D01*
X71807807Y-70844097D01*
X71775396Y-70804604D01*
X71617797Y-70675266D01*
X71437993Y-70579159D01*
X71242895Y-70519976D01*
X71090838Y-70505000D01*
X71090828Y-70505000D01*
X71040000Y-70499994D01*
X70989172Y-70505000D01*
X70114396Y-70505000D01*
X70034759Y-70425363D01*
X69802241Y-70270000D01*
X70034759Y-70114637D01*
X70234637Y-69914759D01*
X70391680Y-69679727D01*
X70499853Y-69418574D01*
X70555000Y-69141335D01*
X70555000Y-68858665D01*
X70499853Y-68581426D01*
X70391680Y-68320273D01*
X70234637Y-68085241D01*
X70034759Y-67885363D01*
X69799727Y-67728320D01*
X69538574Y-67620147D01*
X69261335Y-67565000D01*
X68978665Y-67565000D01*
X68701426Y-67620147D01*
X68440273Y-67728320D01*
X68244741Y-67858970D01*
X68648711Y-67455000D01*
X77765001Y-67455000D01*
X77765000Y-67965604D01*
G37*
%TD.AperFunction*%
D18*
X108635001Y-67848712D02*
X108635001Y-67897024D01*
X108633038Y-67898987D01*
X108486939Y-68117641D01*
X108386304Y-68360595D01*
X108335000Y-68618514D01*
X108335000Y-68703196D01*
X108329693Y-68700359D01*
X108134595Y-68641176D01*
X107982538Y-68626200D01*
X107982528Y-68626200D01*
X107931700Y-68621194D01*
X107880872Y-68626200D01*
X106282235Y-68626200D01*
X106231400Y-68621193D01*
X106180565Y-68626200D01*
X106180562Y-68626200D01*
X106028505Y-68641176D01*
X105833407Y-68700359D01*
X105749709Y-68745096D01*
X105653602Y-68796466D01*
X105577813Y-68858665D01*
X105496004Y-68925804D01*
X105463597Y-68965292D01*
X104739292Y-69689598D01*
X104699805Y-69722004D01*
X104667398Y-69761492D01*
X104667397Y-69761493D01*
X104570466Y-69879603D01*
X104474360Y-70059407D01*
X104415177Y-70254505D01*
X104395194Y-70457400D01*
X104400201Y-70508238D01*
X104400200Y-71913000D01*
X100785000Y-71913000D01*
X100785000Y-70494396D01*
X100864637Y-70414759D01*
X101000000Y-70212173D01*
X101135363Y-70414759D01*
X101335241Y-70614637D01*
X101570273Y-70771680D01*
X101831426Y-70879853D01*
X102108665Y-70935000D01*
X102391335Y-70935000D01*
X102668574Y-70879853D01*
X102929727Y-70771680D01*
X103164759Y-70614637D01*
X103364637Y-70414759D01*
X103521680Y-70179727D01*
X103629853Y-69918574D01*
X103685000Y-69641335D01*
X103685000Y-69358665D01*
X103629853Y-69081426D01*
X103521680Y-68820273D01*
X103364637Y-68585241D01*
X103164759Y-68385363D01*
X102929727Y-68228320D01*
X102668574Y-68120147D01*
X102391335Y-68065000D01*
X102108665Y-68065000D01*
X101831426Y-68120147D01*
X101570273Y-68228320D01*
X101335241Y-68385363D01*
X101135363Y-68585241D01*
X101000000Y-68787827D01*
X100864637Y-68585241D01*
X100664759Y-68385363D01*
X100429727Y-68228320D01*
X100168574Y-68120147D01*
X99891335Y-68065000D01*
X99608665Y-68065000D01*
X99331426Y-68120147D01*
X99070273Y-68228320D01*
X98835241Y-68385363D01*
X98635363Y-68585241D01*
X98478320Y-68820273D01*
X98370147Y-69081426D01*
X98315000Y-69358665D01*
X98315000Y-69641335D01*
X98370147Y-69918574D01*
X98478320Y-70179727D01*
X98635363Y-70414759D01*
X98715001Y-70494397D01*
X98715000Y-72519289D01*
X95365000Y-75869290D01*
X95365000Y-74852975D01*
X95366962Y-74851013D01*
X95513061Y-74632359D01*
X95613696Y-74389405D01*
X95665000Y-74131486D01*
X95665000Y-73868514D01*
X95613696Y-73610595D01*
X95513061Y-73367641D01*
X95366962Y-73148987D01*
X95365000Y-73147025D01*
X95365000Y-72352975D01*
X95366962Y-72351013D01*
X95513061Y-72132359D01*
X95613696Y-71889405D01*
X95665000Y-71631486D01*
X95665000Y-71368514D01*
X95613696Y-71110595D01*
X95513061Y-70867641D01*
X95366962Y-70648987D01*
X95365000Y-70647025D01*
X95365000Y-69852975D01*
X95366962Y-69851013D01*
X95513061Y-69632359D01*
X95613696Y-69389405D01*
X95665000Y-69131486D01*
X95665000Y-68868514D01*
X95613696Y-68610595D01*
X95513061Y-68367641D01*
X95366962Y-68148987D01*
X95365000Y-68147025D01*
X95365000Y-67352975D01*
X95366962Y-67351013D01*
X95513061Y-67132359D01*
X95613696Y-66889405D01*
X95665000Y-66631486D01*
X95665000Y-66368514D01*
X95613696Y-66110595D01*
X95513061Y-65867641D01*
X95366962Y-65648987D01*
X95365000Y-65647025D01*
X95365000Y-64602975D01*
X95366962Y-64601013D01*
X95513061Y-64382359D01*
X95613696Y-64139405D01*
X95665000Y-63881486D01*
X95665000Y-63618514D01*
X95613696Y-63360595D01*
X95513061Y-63117641D01*
X95366962Y-62898987D01*
X95285000Y-62817025D01*
X95285000Y-62102975D01*
X95286962Y-62101013D01*
X95433061Y-61882359D01*
X95533696Y-61639405D01*
X95585000Y-61381486D01*
X95585000Y-61118514D01*
X95533696Y-60860595D01*
X95433061Y-60617641D01*
X95286962Y-60398987D01*
X95285000Y-60397025D01*
X95285000Y-59602975D01*
X95286962Y-59601013D01*
X95433061Y-59382359D01*
X95533696Y-59139405D01*
X95585000Y-58881486D01*
X95585000Y-58618514D01*
X95533696Y-58360595D01*
X95433061Y-58117641D01*
X95286962Y-57898987D01*
X95101013Y-57713038D01*
X94882359Y-57566939D01*
X94639405Y-57466304D01*
X94381486Y-57415000D01*
X94378711Y-57415000D01*
X93984200Y-57020490D01*
X93984200Y-53197910D01*
X108635001Y-67848712D01*
%TA.AperFunction,Conductor*%
D19*
G36*
X108635001Y-67848712D02*
G01*
X108635001Y-67897024D01*
X108633038Y-67898987D01*
X108486939Y-68117641D01*
X108386304Y-68360595D01*
X108335000Y-68618514D01*
X108335000Y-68703196D01*
X108329693Y-68700359D01*
X108134595Y-68641176D01*
X107982538Y-68626200D01*
X107982528Y-68626200D01*
X107931700Y-68621194D01*
X107880872Y-68626200D01*
X106282235Y-68626200D01*
X106231400Y-68621193D01*
X106180565Y-68626200D01*
X106180562Y-68626200D01*
X106028505Y-68641176D01*
X105833407Y-68700359D01*
X105749709Y-68745096D01*
X105653602Y-68796466D01*
X105577813Y-68858665D01*
X105496004Y-68925804D01*
X105463597Y-68965292D01*
X104739292Y-69689598D01*
X104699805Y-69722004D01*
X104667398Y-69761492D01*
X104667397Y-69761493D01*
X104570466Y-69879603D01*
X104474360Y-70059407D01*
X104415177Y-70254505D01*
X104395194Y-70457400D01*
X104400201Y-70508238D01*
X104400200Y-71913000D01*
X100785000Y-71913000D01*
X100785000Y-70494396D01*
X100864637Y-70414759D01*
X101000000Y-70212173D01*
X101135363Y-70414759D01*
X101335241Y-70614637D01*
X101570273Y-70771680D01*
X101831426Y-70879853D01*
X102108665Y-70935000D01*
X102391335Y-70935000D01*
X102668574Y-70879853D01*
X102929727Y-70771680D01*
X103164759Y-70614637D01*
X103364637Y-70414759D01*
X103521680Y-70179727D01*
X103629853Y-69918574D01*
X103685000Y-69641335D01*
X103685000Y-69358665D01*
X103629853Y-69081426D01*
X103521680Y-68820273D01*
X103364637Y-68585241D01*
X103164759Y-68385363D01*
X102929727Y-68228320D01*
X102668574Y-68120147D01*
X102391335Y-68065000D01*
X102108665Y-68065000D01*
X101831426Y-68120147D01*
X101570273Y-68228320D01*
X101335241Y-68385363D01*
X101135363Y-68585241D01*
X101000000Y-68787827D01*
X100864637Y-68585241D01*
X100664759Y-68385363D01*
X100429727Y-68228320D01*
X100168574Y-68120147D01*
X99891335Y-68065000D01*
X99608665Y-68065000D01*
X99331426Y-68120147D01*
X99070273Y-68228320D01*
X98835241Y-68385363D01*
X98635363Y-68585241D01*
X98478320Y-68820273D01*
X98370147Y-69081426D01*
X98315000Y-69358665D01*
X98315000Y-69641335D01*
X98370147Y-69918574D01*
X98478320Y-70179727D01*
X98635363Y-70414759D01*
X98715001Y-70494397D01*
X98715000Y-72519289D01*
X95365000Y-75869290D01*
X95365000Y-74852975D01*
X95366962Y-74851013D01*
X95513061Y-74632359D01*
X95613696Y-74389405D01*
X95665000Y-74131486D01*
X95665000Y-73868514D01*
X95613696Y-73610595D01*
X95513061Y-73367641D01*
X95366962Y-73148987D01*
X95365000Y-73147025D01*
X95365000Y-72352975D01*
X95366962Y-72351013D01*
X95513061Y-72132359D01*
X95613696Y-71889405D01*
X95665000Y-71631486D01*
X95665000Y-71368514D01*
X95613696Y-71110595D01*
X95513061Y-70867641D01*
X95366962Y-70648987D01*
X95365000Y-70647025D01*
X95365000Y-69852975D01*
X95366962Y-69851013D01*
X95513061Y-69632359D01*
X95613696Y-69389405D01*
X95665000Y-69131486D01*
X95665000Y-68868514D01*
X95613696Y-68610595D01*
X95513061Y-68367641D01*
X95366962Y-68148987D01*
X95365000Y-68147025D01*
X95365000Y-67352975D01*
X95366962Y-67351013D01*
X95513061Y-67132359D01*
X95613696Y-66889405D01*
X95665000Y-66631486D01*
X95665000Y-66368514D01*
X95613696Y-66110595D01*
X95513061Y-65867641D01*
X95366962Y-65648987D01*
X95365000Y-65647025D01*
X95365000Y-64602975D01*
X95366962Y-64601013D01*
X95513061Y-64382359D01*
X95613696Y-64139405D01*
X95665000Y-63881486D01*
X95665000Y-63618514D01*
X95613696Y-63360595D01*
X95513061Y-63117641D01*
X95366962Y-62898987D01*
X95285000Y-62817025D01*
X95285000Y-62102975D01*
X95286962Y-62101013D01*
X95433061Y-61882359D01*
X95533696Y-61639405D01*
X95585000Y-61381486D01*
X95585000Y-61118514D01*
X95533696Y-60860595D01*
X95433061Y-60617641D01*
X95286962Y-60398987D01*
X95285000Y-60397025D01*
X95285000Y-59602975D01*
X95286962Y-59601013D01*
X95433061Y-59382359D01*
X95533696Y-59139405D01*
X95585000Y-58881486D01*
X95585000Y-58618514D01*
X95533696Y-58360595D01*
X95433061Y-58117641D01*
X95286962Y-57898987D01*
X95101013Y-57713038D01*
X94882359Y-57566939D01*
X94639405Y-57466304D01*
X94381486Y-57415000D01*
X94378711Y-57415000D01*
X93984200Y-57020490D01*
X93984200Y-53197910D01*
X108635001Y-67848712D01*
G37*
%TD.AperFunction*%
D18*
X58865000Y-73945811D02*
X58865000Y-74029162D01*
X58859993Y-74080000D01*
X58879976Y-74282895D01*
X58939159Y-74477993D01*
X59035266Y-74657797D01*
X59164604Y-74815396D01*
X59322203Y-74944734D01*
X59502007Y-75040841D01*
X59697105Y-75100024D01*
X59849162Y-75115000D01*
X59900000Y-75120007D01*
X59950838Y-75115000D01*
X60505604Y-75115000D01*
X60585241Y-75194637D01*
X60817759Y-75350000D01*
X60585241Y-75505363D01*
X60505604Y-75585000D01*
X60333693Y-75585000D01*
X60187797Y-75465266D01*
X60007993Y-75369159D01*
X59812895Y-75309976D01*
X59660838Y-75295000D01*
X59660828Y-75295000D01*
X59610000Y-75289994D01*
X59559172Y-75295000D01*
X53995117Y-75295000D01*
X53974890Y-75228320D01*
X53960841Y-75182006D01*
X53864734Y-75002202D01*
X53767803Y-74884092D01*
X53735396Y-74844604D01*
X53695908Y-74812197D01*
X52722900Y-73839190D01*
X52722900Y-73306035D01*
X52868514Y-73335000D01*
X53131486Y-73335000D01*
X53389405Y-73283696D01*
X53632359Y-73183061D01*
X53851013Y-73036962D01*
X54036962Y-72851013D01*
X54183061Y-72632359D01*
X54283696Y-72389405D01*
X54335000Y-72131486D01*
X54335000Y-71868514D01*
X54283696Y-71610595D01*
X54183061Y-71367641D01*
X54036962Y-71148987D01*
X53851013Y-70963038D01*
X53772292Y-70910438D01*
X53864734Y-70797797D01*
X53960841Y-70617993D01*
X54020024Y-70422895D01*
X54035000Y-70270838D01*
X54040007Y-70220000D01*
X54035000Y-70169162D01*
X54035000Y-69614396D01*
X54114637Y-69534759D01*
X54250546Y-69331356D01*
X58865000Y-73945811D01*
%TA.AperFunction,Conductor*%
D19*
G36*
X58865000Y-73945811D02*
G01*
X58865000Y-74029162D01*
X58859993Y-74080000D01*
X58879976Y-74282895D01*
X58939159Y-74477993D01*
X59035266Y-74657797D01*
X59164604Y-74815396D01*
X59322203Y-74944734D01*
X59502007Y-75040841D01*
X59697105Y-75100024D01*
X59849162Y-75115000D01*
X59900000Y-75120007D01*
X59950838Y-75115000D01*
X60505604Y-75115000D01*
X60585241Y-75194637D01*
X60817759Y-75350000D01*
X60585241Y-75505363D01*
X60505604Y-75585000D01*
X60333693Y-75585000D01*
X60187797Y-75465266D01*
X60007993Y-75369159D01*
X59812895Y-75309976D01*
X59660838Y-75295000D01*
X59660828Y-75295000D01*
X59610000Y-75289994D01*
X59559172Y-75295000D01*
X53995117Y-75295000D01*
X53974890Y-75228320D01*
X53960841Y-75182006D01*
X53864734Y-75002202D01*
X53767803Y-74884092D01*
X53735396Y-74844604D01*
X53695908Y-74812197D01*
X52722900Y-73839190D01*
X52722900Y-73306035D01*
X52868514Y-73335000D01*
X53131486Y-73335000D01*
X53389405Y-73283696D01*
X53632359Y-73183061D01*
X53851013Y-73036962D01*
X54036962Y-72851013D01*
X54183061Y-72632359D01*
X54283696Y-72389405D01*
X54335000Y-72131486D01*
X54335000Y-71868514D01*
X54283696Y-71610595D01*
X54183061Y-71367641D01*
X54036962Y-71148987D01*
X53851013Y-70963038D01*
X53772292Y-70910438D01*
X53864734Y-70797797D01*
X53960841Y-70617993D01*
X54020024Y-70422895D01*
X54035000Y-70270838D01*
X54040007Y-70220000D01*
X54035000Y-70169162D01*
X54035000Y-69614396D01*
X54114637Y-69534759D01*
X54250546Y-69331356D01*
X58865000Y-73945811D01*
G37*
%TD.AperFunction*%
D18*
X63085241Y-53114637D02*
X63320273Y-53271680D01*
X63581426Y-53379853D01*
X63643992Y-53392298D01*
X63304097Y-53732193D01*
X63264604Y-53764604D01*
X63135266Y-53922203D01*
X63039159Y-54102008D01*
X62979976Y-54297106D01*
X62965000Y-54449163D01*
X62965000Y-54449172D01*
X62959994Y-54500000D01*
X62965000Y-54550828D01*
X62965001Y-57005603D01*
X62885363Y-57085241D01*
X62728320Y-57320273D01*
X62620147Y-57581426D01*
X62565000Y-57858665D01*
X62565000Y-58141335D01*
X62620147Y-58418574D01*
X62728320Y-58679727D01*
X62885363Y-58914759D01*
X63085241Y-59114637D01*
X63320273Y-59271680D01*
X63581426Y-59379853D01*
X63858665Y-59435000D01*
X64141335Y-59435000D01*
X64418574Y-59379853D01*
X64679727Y-59271680D01*
X64914759Y-59114637D01*
X65114637Y-58914759D01*
X65250000Y-58712173D01*
X65385363Y-58914759D01*
X65585241Y-59114637D01*
X65820273Y-59271680D01*
X66081426Y-59379853D01*
X66358665Y-59435000D01*
X66641335Y-59435000D01*
X66692708Y-59424781D01*
X66035792Y-60081698D01*
X65996305Y-60114104D01*
X65963898Y-60153592D01*
X65963897Y-60153593D01*
X65866966Y-60271703D01*
X65770860Y-60451507D01*
X65711677Y-60646605D01*
X65691694Y-60849500D01*
X65696701Y-60900338D01*
X65696700Y-64880872D01*
X65691694Y-64931700D01*
X65696700Y-64982528D01*
X65696700Y-64982537D01*
X65711676Y-65134594D01*
X65770859Y-65329692D01*
X65866966Y-65509497D01*
X65996304Y-65667096D01*
X66035797Y-65699507D01*
X66756289Y-66420000D01*
X62671290Y-70505000D01*
X62494396Y-70505000D01*
X62416039Y-70426643D01*
X62424482Y-70425812D01*
X62544180Y-70389502D01*
X62654494Y-70330537D01*
X62751185Y-70251185D01*
X62830537Y-70154494D01*
X62889502Y-70044180D01*
X62925812Y-69924482D01*
X62938072Y-69800000D01*
X62938072Y-68200000D01*
X62925812Y-68075518D01*
X62889502Y-67955820D01*
X62830537Y-67845506D01*
X62751185Y-67748815D01*
X62654494Y-67669463D01*
X62544180Y-67610498D01*
X62424482Y-67574188D01*
X62300000Y-67561928D01*
X60700000Y-67561928D01*
X60575518Y-67574188D01*
X60455820Y-67610498D01*
X60345506Y-67669463D01*
X60248815Y-67748815D01*
X60169463Y-67845506D01*
X60110498Y-67955820D01*
X60074188Y-68075518D01*
X60061928Y-68200000D01*
X60061928Y-69800000D01*
X60074188Y-69924482D01*
X60110498Y-70044180D01*
X60169463Y-70154494D01*
X60248815Y-70251185D01*
X60345506Y-70330537D01*
X60455820Y-70389502D01*
X60575518Y-70425812D01*
X60583961Y-70426643D01*
X60385363Y-70625241D01*
X60228320Y-70860273D01*
X60120147Y-71121426D01*
X60065000Y-71398665D01*
X60065000Y-71681335D01*
X60120147Y-71958574D01*
X60228320Y-72219727D01*
X60385363Y-72454759D01*
X60585241Y-72654637D01*
X60817759Y-72810000D01*
X60714979Y-72878675D01*
X60667803Y-72821192D01*
X60635396Y-72781704D01*
X60595908Y-72749297D01*
X54035000Y-66188390D01*
X54035000Y-63368514D01*
X61665000Y-63368514D01*
X61665000Y-63631486D01*
X61716304Y-63889405D01*
X61816939Y-64132359D01*
X61963038Y-64351013D01*
X62148987Y-64536962D01*
X62367641Y-64683061D01*
X62610595Y-64783696D01*
X62868514Y-64835000D01*
X63131486Y-64835000D01*
X63389405Y-64783696D01*
X63632359Y-64683061D01*
X63851013Y-64536962D01*
X64036962Y-64351013D01*
X64183061Y-64132359D01*
X64283696Y-63889405D01*
X64335000Y-63631486D01*
X64335000Y-63368514D01*
X64283696Y-63110595D01*
X64183061Y-62867641D01*
X64036962Y-62648987D01*
X63851013Y-62463038D01*
X63632359Y-62316939D01*
X63389405Y-62216304D01*
X63131486Y-62165000D01*
X62868514Y-62165000D01*
X62610595Y-62216304D01*
X62367641Y-62316939D01*
X62148987Y-62463038D01*
X61963038Y-62648987D01*
X61816939Y-62867641D01*
X61716304Y-63110595D01*
X61665000Y-63368514D01*
X54035000Y-63368514D01*
X54035000Y-62392287D01*
X54044180Y-62389502D01*
X54154494Y-62330537D01*
X54251185Y-62251185D01*
X54330537Y-62154494D01*
X54389502Y-62044180D01*
X54425812Y-61924482D01*
X54438072Y-61800000D01*
X54438072Y-60200000D01*
X54425812Y-60075518D01*
X54389502Y-59955820D01*
X54330537Y-59845506D01*
X54251185Y-59748815D01*
X54154494Y-59669463D01*
X54044180Y-59610498D01*
X53924482Y-59574188D01*
X53800000Y-59561928D01*
X53451482Y-59561928D01*
X59978411Y-53035000D01*
X63005604Y-53035000D01*
X63085241Y-53114637D01*
%TA.AperFunction,Conductor*%
D19*
G36*
X63085241Y-53114637D02*
G01*
X63320273Y-53271680D01*
X63581426Y-53379853D01*
X63643992Y-53392298D01*
X63304097Y-53732193D01*
X63264604Y-53764604D01*
X63135266Y-53922203D01*
X63039159Y-54102008D01*
X62979976Y-54297106D01*
X62965000Y-54449163D01*
X62965000Y-54449172D01*
X62959994Y-54500000D01*
X62965000Y-54550828D01*
X62965001Y-57005603D01*
X62885363Y-57085241D01*
X62728320Y-57320273D01*
X62620147Y-57581426D01*
X62565000Y-57858665D01*
X62565000Y-58141335D01*
X62620147Y-58418574D01*
X62728320Y-58679727D01*
X62885363Y-58914759D01*
X63085241Y-59114637D01*
X63320273Y-59271680D01*
X63581426Y-59379853D01*
X63858665Y-59435000D01*
X64141335Y-59435000D01*
X64418574Y-59379853D01*
X64679727Y-59271680D01*
X64914759Y-59114637D01*
X65114637Y-58914759D01*
X65250000Y-58712173D01*
X65385363Y-58914759D01*
X65585241Y-59114637D01*
X65820273Y-59271680D01*
X66081426Y-59379853D01*
X66358665Y-59435000D01*
X66641335Y-59435000D01*
X66692708Y-59424781D01*
X66035792Y-60081698D01*
X65996305Y-60114104D01*
X65963898Y-60153592D01*
X65963897Y-60153593D01*
X65866966Y-60271703D01*
X65770860Y-60451507D01*
X65711677Y-60646605D01*
X65691694Y-60849500D01*
X65696701Y-60900338D01*
X65696700Y-64880872D01*
X65691694Y-64931700D01*
X65696700Y-64982528D01*
X65696700Y-64982537D01*
X65711676Y-65134594D01*
X65770859Y-65329692D01*
X65866966Y-65509497D01*
X65996304Y-65667096D01*
X66035797Y-65699507D01*
X66756289Y-66420000D01*
X62671290Y-70505000D01*
X62494396Y-70505000D01*
X62416039Y-70426643D01*
X62424482Y-70425812D01*
X62544180Y-70389502D01*
X62654494Y-70330537D01*
X62751185Y-70251185D01*
X62830537Y-70154494D01*
X62889502Y-70044180D01*
X62925812Y-69924482D01*
X62938072Y-69800000D01*
X62938072Y-68200000D01*
X62925812Y-68075518D01*
X62889502Y-67955820D01*
X62830537Y-67845506D01*
X62751185Y-67748815D01*
X62654494Y-67669463D01*
X62544180Y-67610498D01*
X62424482Y-67574188D01*
X62300000Y-67561928D01*
X60700000Y-67561928D01*
X60575518Y-67574188D01*
X60455820Y-67610498D01*
X60345506Y-67669463D01*
X60248815Y-67748815D01*
X60169463Y-67845506D01*
X60110498Y-67955820D01*
X60074188Y-68075518D01*
X60061928Y-68200000D01*
X60061928Y-69800000D01*
X60074188Y-69924482D01*
X60110498Y-70044180D01*
X60169463Y-70154494D01*
X60248815Y-70251185D01*
X60345506Y-70330537D01*
X60455820Y-70389502D01*
X60575518Y-70425812D01*
X60583961Y-70426643D01*
X60385363Y-70625241D01*
X60228320Y-70860273D01*
X60120147Y-71121426D01*
X60065000Y-71398665D01*
X60065000Y-71681335D01*
X60120147Y-71958574D01*
X60228320Y-72219727D01*
X60385363Y-72454759D01*
X60585241Y-72654637D01*
X60817759Y-72810000D01*
X60714979Y-72878675D01*
X60667803Y-72821192D01*
X60635396Y-72781704D01*
X60595908Y-72749297D01*
X54035000Y-66188390D01*
X54035000Y-63368514D01*
X61665000Y-63368514D01*
X61665000Y-63631486D01*
X61716304Y-63889405D01*
X61816939Y-64132359D01*
X61963038Y-64351013D01*
X62148987Y-64536962D01*
X62367641Y-64683061D01*
X62610595Y-64783696D01*
X62868514Y-64835000D01*
X63131486Y-64835000D01*
X63389405Y-64783696D01*
X63632359Y-64683061D01*
X63851013Y-64536962D01*
X64036962Y-64351013D01*
X64183061Y-64132359D01*
X64283696Y-63889405D01*
X64335000Y-63631486D01*
X64335000Y-63368514D01*
X64283696Y-63110595D01*
X64183061Y-62867641D01*
X64036962Y-62648987D01*
X63851013Y-62463038D01*
X63632359Y-62316939D01*
X63389405Y-62216304D01*
X63131486Y-62165000D01*
X62868514Y-62165000D01*
X62610595Y-62216304D01*
X62367641Y-62316939D01*
X62148987Y-62463038D01*
X61963038Y-62648987D01*
X61816939Y-62867641D01*
X61716304Y-63110595D01*
X61665000Y-63368514D01*
X54035000Y-63368514D01*
X54035000Y-62392287D01*
X54044180Y-62389502D01*
X54154494Y-62330537D01*
X54251185Y-62251185D01*
X54330537Y-62154494D01*
X54389502Y-62044180D01*
X54425812Y-61924482D01*
X54438072Y-61800000D01*
X54438072Y-60200000D01*
X54425812Y-60075518D01*
X54389502Y-59955820D01*
X54330537Y-59845506D01*
X54251185Y-59748815D01*
X54154494Y-59669463D01*
X54044180Y-59610498D01*
X53924482Y-59574188D01*
X53800000Y-59561928D01*
X53451482Y-59561928D01*
X59978411Y-53035000D01*
X63005604Y-53035000D01*
X63085241Y-53114637D01*
G37*
%TD.AperFunction*%
D18*
X51561928Y-61800000D02*
X51574188Y-61924482D01*
X51610498Y-62044180D01*
X51669463Y-62154494D01*
X51748815Y-62251185D01*
X51845506Y-62330537D01*
X51955820Y-62389502D01*
X51965001Y-62392287D01*
X51965001Y-62549153D01*
X51965000Y-62549163D01*
X51965001Y-66198388D01*
X49914297Y-68249093D01*
X49874804Y-68281504D01*
X49745466Y-68439103D01*
X49649359Y-68618908D01*
X49590176Y-68814006D01*
X49575200Y-68966063D01*
X49575200Y-68966072D01*
X49570194Y-69016900D01*
X49575200Y-69067728D01*
X49575201Y-70928988D01*
X48325638Y-72178551D01*
X48335000Y-72131486D01*
X48335000Y-72128710D01*
X49096308Y-71367403D01*
X49135796Y-71334996D01*
X49201447Y-71255000D01*
X49265134Y-71177398D01*
X49356743Y-71006008D01*
X49361241Y-70997593D01*
X49420424Y-70802495D01*
X49435400Y-70650438D01*
X49435400Y-70650435D01*
X49440407Y-70599600D01*
X49435400Y-70548765D01*
X49435400Y-63578010D01*
X51561928Y-61451482D01*
X51561928Y-61800000D01*
%TA.AperFunction,Conductor*%
D19*
G36*
X51561928Y-61800000D02*
G01*
X51574188Y-61924482D01*
X51610498Y-62044180D01*
X51669463Y-62154494D01*
X51748815Y-62251185D01*
X51845506Y-62330537D01*
X51955820Y-62389502D01*
X51965001Y-62392287D01*
X51965001Y-62549153D01*
X51965000Y-62549163D01*
X51965001Y-66198388D01*
X49914297Y-68249093D01*
X49874804Y-68281504D01*
X49745466Y-68439103D01*
X49649359Y-68618908D01*
X49590176Y-68814006D01*
X49575200Y-68966063D01*
X49575200Y-68966072D01*
X49570194Y-69016900D01*
X49575200Y-69067728D01*
X49575201Y-70928988D01*
X48325638Y-72178551D01*
X48335000Y-72131486D01*
X48335000Y-72128710D01*
X49096308Y-71367403D01*
X49135796Y-71334996D01*
X49201447Y-71255000D01*
X49265134Y-71177398D01*
X49356743Y-71006008D01*
X49361241Y-70997593D01*
X49420424Y-70802495D01*
X49435400Y-70650438D01*
X49435400Y-70650435D01*
X49440407Y-70599600D01*
X49435400Y-70548765D01*
X49435400Y-63578010D01*
X51561928Y-61451482D01*
X51561928Y-61800000D01*
G37*
%TD.AperFunction*%
D18*
X79165401Y-57361928D02*
X78000000Y-57361928D01*
X77875518Y-57374188D01*
X77755820Y-57410498D01*
X77645506Y-57469463D01*
X77548815Y-57548815D01*
X77469463Y-57645506D01*
X77410498Y-57755820D01*
X77374188Y-57875518D01*
X77361928Y-58000000D01*
X77361928Y-59600000D01*
X77374188Y-59724482D01*
X77410498Y-59844180D01*
X77469463Y-59954494D01*
X77548815Y-60051185D01*
X77645506Y-60130537D01*
X77755820Y-60189502D01*
X77765000Y-60192287D01*
X77765000Y-60345604D01*
X77685363Y-60425241D01*
X77528320Y-60660273D01*
X77420147Y-60921426D01*
X77365000Y-61198665D01*
X77365000Y-61481335D01*
X77420147Y-61758574D01*
X77528320Y-62019727D01*
X77685363Y-62254759D01*
X77765001Y-62334397D01*
X77765000Y-62885604D01*
X77685363Y-62965241D01*
X77528320Y-63200273D01*
X77420147Y-63461426D01*
X77365000Y-63738665D01*
X77365000Y-64021335D01*
X77420147Y-64298574D01*
X77528320Y-64559727D01*
X77685363Y-64794759D01*
X77765001Y-64874397D01*
X77765000Y-65385000D01*
X68648711Y-65385000D01*
X68098710Y-64835000D01*
X68211486Y-64835000D01*
X68469405Y-64783696D01*
X68712359Y-64683061D01*
X68931013Y-64536962D01*
X68932975Y-64535000D01*
X69529162Y-64535000D01*
X69580000Y-64540007D01*
X69782895Y-64520024D01*
X69977993Y-64460841D01*
X70157797Y-64364734D01*
X70315396Y-64235396D01*
X70444734Y-64077797D01*
X70540841Y-63897993D01*
X70600024Y-63702895D01*
X70615000Y-63550838D01*
X70620007Y-63500000D01*
X70615000Y-63449162D01*
X70615000Y-62828710D01*
X79165400Y-54278310D01*
X79165401Y-57361928D01*
%TA.AperFunction,Conductor*%
D19*
G36*
X79165401Y-57361928D02*
G01*
X78000000Y-57361928D01*
X77875518Y-57374188D01*
X77755820Y-57410498D01*
X77645506Y-57469463D01*
X77548815Y-57548815D01*
X77469463Y-57645506D01*
X77410498Y-57755820D01*
X77374188Y-57875518D01*
X77361928Y-58000000D01*
X77361928Y-59600000D01*
X77374188Y-59724482D01*
X77410498Y-59844180D01*
X77469463Y-59954494D01*
X77548815Y-60051185D01*
X77645506Y-60130537D01*
X77755820Y-60189502D01*
X77765000Y-60192287D01*
X77765000Y-60345604D01*
X77685363Y-60425241D01*
X77528320Y-60660273D01*
X77420147Y-60921426D01*
X77365000Y-61198665D01*
X77365000Y-61481335D01*
X77420147Y-61758574D01*
X77528320Y-62019727D01*
X77685363Y-62254759D01*
X77765001Y-62334397D01*
X77765000Y-62885604D01*
X77685363Y-62965241D01*
X77528320Y-63200273D01*
X77420147Y-63461426D01*
X77365000Y-63738665D01*
X77365000Y-64021335D01*
X77420147Y-64298574D01*
X77528320Y-64559727D01*
X77685363Y-64794759D01*
X77765001Y-64874397D01*
X77765000Y-65385000D01*
X68648711Y-65385000D01*
X68098710Y-64835000D01*
X68211486Y-64835000D01*
X68469405Y-64783696D01*
X68712359Y-64683061D01*
X68931013Y-64536962D01*
X68932975Y-64535000D01*
X69529162Y-64535000D01*
X69580000Y-64540007D01*
X69782895Y-64520024D01*
X69977993Y-64460841D01*
X70157797Y-64364734D01*
X70315396Y-64235396D01*
X70444734Y-64077797D01*
X70540841Y-63897993D01*
X70600024Y-63702895D01*
X70615000Y-63550838D01*
X70620007Y-63500000D01*
X70615000Y-63449162D01*
X70615000Y-62828710D01*
X79165400Y-54278310D01*
X79165401Y-57361928D01*
G37*
%TD.AperFunction*%
D18*
X77161928Y-34800000D02*
X77174188Y-34924482D01*
X77210498Y-35044180D01*
X77269463Y-35154494D01*
X77348815Y-35251185D01*
X77445506Y-35330537D01*
X77555820Y-35389502D01*
X77565000Y-35392287D01*
X77565000Y-35545604D01*
X77485363Y-35625241D01*
X77328320Y-35860273D01*
X77220147Y-36121426D01*
X77165000Y-36398665D01*
X77165000Y-36681335D01*
X77220147Y-36958574D01*
X77328320Y-37219727D01*
X77485363Y-37454759D01*
X77565001Y-37534397D01*
X77565000Y-38085604D01*
X77485363Y-38165241D01*
X77328320Y-38400273D01*
X77220147Y-38661426D01*
X77165000Y-38938665D01*
X77165000Y-39221335D01*
X77220147Y-39498574D01*
X77328320Y-39759727D01*
X77485363Y-39994759D01*
X77565001Y-40074397D01*
X77565000Y-40625604D01*
X77485363Y-40705241D01*
X77328320Y-40940273D01*
X77220147Y-41201426D01*
X77165000Y-41478665D01*
X77165000Y-41761335D01*
X77220147Y-42038574D01*
X77328320Y-42299727D01*
X77485363Y-42534759D01*
X77565001Y-42614397D01*
X77565000Y-43165604D01*
X77485363Y-43245241D01*
X77328320Y-43480273D01*
X77220147Y-43741426D01*
X77165000Y-44018665D01*
X77165000Y-44301335D01*
X77220147Y-44578574D01*
X77328320Y-44839727D01*
X77485363Y-45074759D01*
X77565001Y-45154397D01*
X77565000Y-45705604D01*
X77485363Y-45785241D01*
X77328320Y-46020273D01*
X77220147Y-46281426D01*
X77165000Y-46558665D01*
X77165000Y-46841335D01*
X77220147Y-47118574D01*
X77328320Y-47379727D01*
X77485363Y-47614759D01*
X77565001Y-47694397D01*
X77565000Y-48245604D01*
X77485363Y-48325241D01*
X77328320Y-48560273D01*
X77220147Y-48821426D01*
X77165000Y-49098665D01*
X77165000Y-49381335D01*
X77220147Y-49658574D01*
X77328320Y-49919727D01*
X77485363Y-50154759D01*
X77565000Y-50234396D01*
X77565001Y-50785603D01*
X77485363Y-50865241D01*
X77328320Y-51100273D01*
X77220147Y-51361426D01*
X77165000Y-51638665D01*
X77165000Y-51921335D01*
X77220147Y-52198574D01*
X77328320Y-52459727D01*
X77485363Y-52694759D01*
X77565001Y-52774397D01*
X77565001Y-52951288D01*
X68884097Y-61632193D01*
X68844604Y-61664604D01*
X68715266Y-61822203D01*
X68619159Y-62002008D01*
X68559976Y-62197106D01*
X68554609Y-62251597D01*
X68469405Y-62216304D01*
X68211486Y-62165000D01*
X67948514Y-62165000D01*
X67766700Y-62201166D01*
X67766700Y-61278210D01*
X68775908Y-60269003D01*
X68815396Y-60236596D01*
X68883515Y-60153593D01*
X68944734Y-60078998D01*
X68997662Y-59979976D01*
X69040841Y-59899193D01*
X69100024Y-59704095D01*
X69115000Y-59552038D01*
X69115000Y-59552029D01*
X69120006Y-59501201D01*
X69115000Y-59450373D01*
X69115000Y-53858665D01*
X70065000Y-53858665D01*
X70065000Y-54141335D01*
X70120147Y-54418574D01*
X70228320Y-54679727D01*
X70385363Y-54914759D01*
X70585241Y-55114637D01*
X70787827Y-55250000D01*
X70585241Y-55385363D01*
X70385363Y-55585241D01*
X70228320Y-55820273D01*
X70120147Y-56081426D01*
X70065000Y-56358665D01*
X70065000Y-56641335D01*
X70120147Y-56918574D01*
X70228320Y-57179727D01*
X70385363Y-57414759D01*
X70585241Y-57614637D01*
X70820273Y-57771680D01*
X71081426Y-57879853D01*
X71358665Y-57935000D01*
X71641335Y-57935000D01*
X71918574Y-57879853D01*
X72179727Y-57771680D01*
X72414759Y-57614637D01*
X72614637Y-57414759D01*
X72771680Y-57179727D01*
X72879853Y-56918574D01*
X72935000Y-56641335D01*
X72935000Y-56358665D01*
X72879853Y-56081426D01*
X72771680Y-55820273D01*
X72614637Y-55585241D01*
X72414759Y-55385363D01*
X72212173Y-55250000D01*
X72414759Y-55114637D01*
X72614637Y-54914759D01*
X72771680Y-54679727D01*
X72879853Y-54418574D01*
X72935000Y-54141335D01*
X72935000Y-53858665D01*
X72879853Y-53581426D01*
X72771680Y-53320273D01*
X72614637Y-53085241D01*
X72414759Y-52885363D01*
X72179727Y-52728320D01*
X71918574Y-52620147D01*
X71641335Y-52565000D01*
X71358665Y-52565000D01*
X71081426Y-52620147D01*
X70820273Y-52728320D01*
X70585241Y-52885363D01*
X70385363Y-53085241D01*
X70228320Y-53320273D01*
X70120147Y-53581426D01*
X70065000Y-53858665D01*
X69115000Y-53858665D01*
X69115000Y-48352975D01*
X69116962Y-48351013D01*
X69263061Y-48132359D01*
X69363696Y-47889405D01*
X69415000Y-47631486D01*
X69415000Y-47368514D01*
X69363696Y-47110595D01*
X69263061Y-46867641D01*
X69116962Y-46648987D01*
X68931013Y-46463038D01*
X68712359Y-46316939D01*
X68469405Y-46216304D01*
X68211486Y-46165000D01*
X67948514Y-46165000D01*
X67690595Y-46216304D01*
X67447641Y-46316939D01*
X67228987Y-46463038D01*
X67043038Y-46648987D01*
X66982820Y-46739110D01*
X63035000Y-42791290D01*
X63035000Y-42614396D01*
X63114637Y-42534759D01*
X63271680Y-42299727D01*
X63379853Y-42038574D01*
X63435000Y-41761335D01*
X63435000Y-41648710D01*
X68137808Y-36945903D01*
X68177296Y-36913496D01*
X68220668Y-36860647D01*
X68240147Y-36958574D01*
X68348320Y-37219727D01*
X68505363Y-37454759D01*
X68705241Y-37654637D01*
X68937759Y-37810000D01*
X68705241Y-37965363D01*
X68505363Y-38165241D01*
X68348320Y-38400273D01*
X68240147Y-38661426D01*
X68185000Y-38938665D01*
X68185000Y-39221335D01*
X68240147Y-39498574D01*
X68348320Y-39759727D01*
X68505363Y-39994759D01*
X68705241Y-40194637D01*
X68937759Y-40350000D01*
X68705241Y-40505363D01*
X68505363Y-40705241D01*
X68348320Y-40940273D01*
X68240147Y-41201426D01*
X68185000Y-41478665D01*
X68185000Y-41761335D01*
X68240147Y-42038574D01*
X68348320Y-42299727D01*
X68505363Y-42534759D01*
X68705241Y-42734637D01*
X68940273Y-42891680D01*
X69201426Y-42999853D01*
X69478665Y-43055000D01*
X69761335Y-43055000D01*
X70038574Y-42999853D01*
X70299727Y-42891680D01*
X70534759Y-42734637D01*
X70734637Y-42534759D01*
X70891680Y-42299727D01*
X70999853Y-42038574D01*
X71055000Y-41761335D01*
X71055000Y-41478665D01*
X70999853Y-41201426D01*
X70891680Y-40940273D01*
X70734637Y-40705241D01*
X70534759Y-40505363D01*
X70302241Y-40350000D01*
X70534759Y-40194637D01*
X70734637Y-39994759D01*
X70891680Y-39759727D01*
X70999853Y-39498574D01*
X71055000Y-39221335D01*
X71055000Y-38938665D01*
X70999853Y-38661426D01*
X70891680Y-38400273D01*
X70734637Y-38165241D01*
X70534759Y-37965363D01*
X70302241Y-37810000D01*
X70534759Y-37654637D01*
X70614396Y-37575000D01*
X72895604Y-37575000D01*
X72885363Y-37585241D01*
X72728320Y-37820273D01*
X72620147Y-38081426D01*
X72565000Y-38358665D01*
X72565000Y-38641335D01*
X72620147Y-38918574D01*
X72728320Y-39179727D01*
X72885363Y-39414759D01*
X73085241Y-39614637D01*
X73320273Y-39771680D01*
X73581426Y-39879853D01*
X73858665Y-39935000D01*
X74141335Y-39935000D01*
X74418574Y-39879853D01*
X74679727Y-39771680D01*
X74914759Y-39614637D01*
X75114637Y-39414759D01*
X75271680Y-39179727D01*
X75379853Y-38918574D01*
X75435000Y-38641335D01*
X75435000Y-38358665D01*
X75379853Y-38081426D01*
X75271680Y-37820273D01*
X75114637Y-37585241D01*
X75035000Y-37505604D01*
X75035000Y-36590837D01*
X75039406Y-36546104D01*
X77161928Y-34423583D01*
X77161928Y-34800000D01*
%TA.AperFunction,Conductor*%
D19*
G36*
X77161928Y-34800000D02*
G01*
X77174188Y-34924482D01*
X77210498Y-35044180D01*
X77269463Y-35154494D01*
X77348815Y-35251185D01*
X77445506Y-35330537D01*
X77555820Y-35389502D01*
X77565000Y-35392287D01*
X77565000Y-35545604D01*
X77485363Y-35625241D01*
X77328320Y-35860273D01*
X77220147Y-36121426D01*
X77165000Y-36398665D01*
X77165000Y-36681335D01*
X77220147Y-36958574D01*
X77328320Y-37219727D01*
X77485363Y-37454759D01*
X77565001Y-37534397D01*
X77565000Y-38085604D01*
X77485363Y-38165241D01*
X77328320Y-38400273D01*
X77220147Y-38661426D01*
X77165000Y-38938665D01*
X77165000Y-39221335D01*
X77220147Y-39498574D01*
X77328320Y-39759727D01*
X77485363Y-39994759D01*
X77565001Y-40074397D01*
X77565000Y-40625604D01*
X77485363Y-40705241D01*
X77328320Y-40940273D01*
X77220147Y-41201426D01*
X77165000Y-41478665D01*
X77165000Y-41761335D01*
X77220147Y-42038574D01*
X77328320Y-42299727D01*
X77485363Y-42534759D01*
X77565001Y-42614397D01*
X77565000Y-43165604D01*
X77485363Y-43245241D01*
X77328320Y-43480273D01*
X77220147Y-43741426D01*
X77165000Y-44018665D01*
X77165000Y-44301335D01*
X77220147Y-44578574D01*
X77328320Y-44839727D01*
X77485363Y-45074759D01*
X77565001Y-45154397D01*
X77565000Y-45705604D01*
X77485363Y-45785241D01*
X77328320Y-46020273D01*
X77220147Y-46281426D01*
X77165000Y-46558665D01*
X77165000Y-46841335D01*
X77220147Y-47118574D01*
X77328320Y-47379727D01*
X77485363Y-47614759D01*
X77565001Y-47694397D01*
X77565000Y-48245604D01*
X77485363Y-48325241D01*
X77328320Y-48560273D01*
X77220147Y-48821426D01*
X77165000Y-49098665D01*
X77165000Y-49381335D01*
X77220147Y-49658574D01*
X77328320Y-49919727D01*
X77485363Y-50154759D01*
X77565000Y-50234396D01*
X77565001Y-50785603D01*
X77485363Y-50865241D01*
X77328320Y-51100273D01*
X77220147Y-51361426D01*
X77165000Y-51638665D01*
X77165000Y-51921335D01*
X77220147Y-52198574D01*
X77328320Y-52459727D01*
X77485363Y-52694759D01*
X77565001Y-52774397D01*
X77565001Y-52951288D01*
X68884097Y-61632193D01*
X68844604Y-61664604D01*
X68715266Y-61822203D01*
X68619159Y-62002008D01*
X68559976Y-62197106D01*
X68554609Y-62251597D01*
X68469405Y-62216304D01*
X68211486Y-62165000D01*
X67948514Y-62165000D01*
X67766700Y-62201166D01*
X67766700Y-61278210D01*
X68775908Y-60269003D01*
X68815396Y-60236596D01*
X68883515Y-60153593D01*
X68944734Y-60078998D01*
X68997662Y-59979976D01*
X69040841Y-59899193D01*
X69100024Y-59704095D01*
X69115000Y-59552038D01*
X69115000Y-59552029D01*
X69120006Y-59501201D01*
X69115000Y-59450373D01*
X69115000Y-53858665D01*
X70065000Y-53858665D01*
X70065000Y-54141335D01*
X70120147Y-54418574D01*
X70228320Y-54679727D01*
X70385363Y-54914759D01*
X70585241Y-55114637D01*
X70787827Y-55250000D01*
X70585241Y-55385363D01*
X70385363Y-55585241D01*
X70228320Y-55820273D01*
X70120147Y-56081426D01*
X70065000Y-56358665D01*
X70065000Y-56641335D01*
X70120147Y-56918574D01*
X70228320Y-57179727D01*
X70385363Y-57414759D01*
X70585241Y-57614637D01*
X70820273Y-57771680D01*
X71081426Y-57879853D01*
X71358665Y-57935000D01*
X71641335Y-57935000D01*
X71918574Y-57879853D01*
X72179727Y-57771680D01*
X72414759Y-57614637D01*
X72614637Y-57414759D01*
X72771680Y-57179727D01*
X72879853Y-56918574D01*
X72935000Y-56641335D01*
X72935000Y-56358665D01*
X72879853Y-56081426D01*
X72771680Y-55820273D01*
X72614637Y-55585241D01*
X72414759Y-55385363D01*
X72212173Y-55250000D01*
X72414759Y-55114637D01*
X72614637Y-54914759D01*
X72771680Y-54679727D01*
X72879853Y-54418574D01*
X72935000Y-54141335D01*
X72935000Y-53858665D01*
X72879853Y-53581426D01*
X72771680Y-53320273D01*
X72614637Y-53085241D01*
X72414759Y-52885363D01*
X72179727Y-52728320D01*
X71918574Y-52620147D01*
X71641335Y-52565000D01*
X71358665Y-52565000D01*
X71081426Y-52620147D01*
X70820273Y-52728320D01*
X70585241Y-52885363D01*
X70385363Y-53085241D01*
X70228320Y-53320273D01*
X70120147Y-53581426D01*
X70065000Y-53858665D01*
X69115000Y-53858665D01*
X69115000Y-48352975D01*
X69116962Y-48351013D01*
X69263061Y-48132359D01*
X69363696Y-47889405D01*
X69415000Y-47631486D01*
X69415000Y-47368514D01*
X69363696Y-47110595D01*
X69263061Y-46867641D01*
X69116962Y-46648987D01*
X68931013Y-46463038D01*
X68712359Y-46316939D01*
X68469405Y-46216304D01*
X68211486Y-46165000D01*
X67948514Y-46165000D01*
X67690595Y-46216304D01*
X67447641Y-46316939D01*
X67228987Y-46463038D01*
X67043038Y-46648987D01*
X66982820Y-46739110D01*
X63035000Y-42791290D01*
X63035000Y-42614396D01*
X63114637Y-42534759D01*
X63271680Y-42299727D01*
X63379853Y-42038574D01*
X63435000Y-41761335D01*
X63435000Y-41648710D01*
X68137808Y-36945903D01*
X68177296Y-36913496D01*
X68220668Y-36860647D01*
X68240147Y-36958574D01*
X68348320Y-37219727D01*
X68505363Y-37454759D01*
X68705241Y-37654637D01*
X68937759Y-37810000D01*
X68705241Y-37965363D01*
X68505363Y-38165241D01*
X68348320Y-38400273D01*
X68240147Y-38661426D01*
X68185000Y-38938665D01*
X68185000Y-39221335D01*
X68240147Y-39498574D01*
X68348320Y-39759727D01*
X68505363Y-39994759D01*
X68705241Y-40194637D01*
X68937759Y-40350000D01*
X68705241Y-40505363D01*
X68505363Y-40705241D01*
X68348320Y-40940273D01*
X68240147Y-41201426D01*
X68185000Y-41478665D01*
X68185000Y-41761335D01*
X68240147Y-42038574D01*
X68348320Y-42299727D01*
X68505363Y-42534759D01*
X68705241Y-42734637D01*
X68940273Y-42891680D01*
X69201426Y-42999853D01*
X69478665Y-43055000D01*
X69761335Y-43055000D01*
X70038574Y-42999853D01*
X70299727Y-42891680D01*
X70534759Y-42734637D01*
X70734637Y-42534759D01*
X70891680Y-42299727D01*
X70999853Y-42038574D01*
X71055000Y-41761335D01*
X71055000Y-41478665D01*
X70999853Y-41201426D01*
X70891680Y-40940273D01*
X70734637Y-40705241D01*
X70534759Y-40505363D01*
X70302241Y-40350000D01*
X70534759Y-40194637D01*
X70734637Y-39994759D01*
X70891680Y-39759727D01*
X70999853Y-39498574D01*
X71055000Y-39221335D01*
X71055000Y-38938665D01*
X70999853Y-38661426D01*
X70891680Y-38400273D01*
X70734637Y-38165241D01*
X70534759Y-37965363D01*
X70302241Y-37810000D01*
X70534759Y-37654637D01*
X70614396Y-37575000D01*
X72895604Y-37575000D01*
X72885363Y-37585241D01*
X72728320Y-37820273D01*
X72620147Y-38081426D01*
X72565000Y-38358665D01*
X72565000Y-38641335D01*
X72620147Y-38918574D01*
X72728320Y-39179727D01*
X72885363Y-39414759D01*
X73085241Y-39614637D01*
X73320273Y-39771680D01*
X73581426Y-39879853D01*
X73858665Y-39935000D01*
X74141335Y-39935000D01*
X74418574Y-39879853D01*
X74679727Y-39771680D01*
X74914759Y-39614637D01*
X75114637Y-39414759D01*
X75271680Y-39179727D01*
X75379853Y-38918574D01*
X75435000Y-38641335D01*
X75435000Y-38358665D01*
X75379853Y-38081426D01*
X75271680Y-37820273D01*
X75114637Y-37585241D01*
X75035000Y-37505604D01*
X75035000Y-36590837D01*
X75039406Y-36546104D01*
X77161928Y-34423583D01*
X77161928Y-34800000D01*
G37*
%TD.AperFunction*%
D18*
X49330696Y-35794407D02*
X49363104Y-35833896D01*
X49402592Y-35866303D01*
X49520702Y-35963234D01*
X49616809Y-36014604D01*
X49700507Y-36059341D01*
X49895605Y-36118524D01*
X50047662Y-36133500D01*
X50047671Y-36133500D01*
X50098499Y-36138506D01*
X50149327Y-36133500D01*
X55989790Y-36133500D01*
X59632197Y-39775908D01*
X59664604Y-39815396D01*
X59704092Y-39847803D01*
X59822202Y-39944734D01*
X59885038Y-39978320D01*
X60002007Y-40040841D01*
X60197105Y-40100024D01*
X60349162Y-40115000D01*
X60349171Y-40115000D01*
X60399999Y-40120006D01*
X60450827Y-40115000D01*
X61005604Y-40115000D01*
X61085241Y-40194637D01*
X61317759Y-40350000D01*
X61085241Y-40505363D01*
X60885363Y-40705241D01*
X60728320Y-40940273D01*
X60620147Y-41201426D01*
X60565000Y-41478665D01*
X60565000Y-41761335D01*
X60620147Y-42038574D01*
X60728320Y-42299727D01*
X60885363Y-42534759D01*
X60965001Y-42614397D01*
X60965001Y-43169163D01*
X60959994Y-43220000D01*
X60979977Y-43422895D01*
X61039160Y-43617993D01*
X61135266Y-43797797D01*
X61217050Y-43897450D01*
X61264605Y-43955396D01*
X61304092Y-43987803D01*
X63634979Y-46318690D01*
X63632359Y-46316939D01*
X63389405Y-46216304D01*
X63131486Y-46165000D01*
X62868514Y-46165000D01*
X62610595Y-46216304D01*
X62367641Y-46316939D01*
X62148987Y-46463038D01*
X61963038Y-46648987D01*
X61816939Y-46867641D01*
X61716304Y-47110595D01*
X61665000Y-47368514D01*
X61665000Y-47631486D01*
X61716304Y-47889405D01*
X61816939Y-48132359D01*
X61963038Y-48351013D01*
X62148987Y-48536962D01*
X62367641Y-48683061D01*
X62610595Y-48783696D01*
X62868514Y-48835000D01*
X63131486Y-48835000D01*
X63389405Y-48783696D01*
X63632359Y-48683061D01*
X63851013Y-48536962D01*
X64036962Y-48351013D01*
X64183061Y-48132359D01*
X64283696Y-47889405D01*
X64335000Y-47631486D01*
X64335000Y-47368514D01*
X64283696Y-47110595D01*
X64183061Y-46867641D01*
X64181310Y-46865021D01*
X65465000Y-48148711D01*
X65465001Y-51005603D01*
X65385363Y-51085241D01*
X65250000Y-51287827D01*
X65114637Y-51085241D01*
X64914759Y-50885363D01*
X64679727Y-50728320D01*
X64418574Y-50620147D01*
X64141335Y-50565000D01*
X63858665Y-50565000D01*
X63581426Y-50620147D01*
X63320273Y-50728320D01*
X63085241Y-50885363D01*
X63005604Y-50965000D01*
X60584700Y-50965000D01*
X60584700Y-46104335D01*
X60589707Y-46053500D01*
X60584700Y-46002662D01*
X60569724Y-45850605D01*
X60510541Y-45655507D01*
X60435491Y-45515098D01*
X60414434Y-45475702D01*
X60317503Y-45357592D01*
X60285096Y-45318104D01*
X60245608Y-45285697D01*
X54424007Y-39464097D01*
X54391596Y-39424604D01*
X54233997Y-39295266D01*
X54191308Y-39272448D01*
X54283696Y-39049405D01*
X54335000Y-38791486D01*
X54335000Y-38528514D01*
X54283696Y-38270595D01*
X54183061Y-38027641D01*
X54036962Y-37808987D01*
X53851013Y-37623038D01*
X53632359Y-37476939D01*
X53389405Y-37376304D01*
X53131486Y-37325000D01*
X52868514Y-37325000D01*
X52610595Y-37376304D01*
X52367641Y-37476939D01*
X52148987Y-37623038D01*
X51963038Y-37808987D01*
X51816939Y-38027641D01*
X51716304Y-38270595D01*
X51665000Y-38528514D01*
X51665000Y-38791486D01*
X51716304Y-39049405D01*
X51816939Y-39292359D01*
X51963038Y-39511013D01*
X51965001Y-39512976D01*
X51965001Y-40109153D01*
X51959993Y-40160000D01*
X51979976Y-40362895D01*
X52039159Y-40557993D01*
X52051680Y-40581419D01*
X51955820Y-40610498D01*
X51845506Y-40669463D01*
X51748815Y-40748815D01*
X51669463Y-40845506D01*
X51610498Y-40955820D01*
X51574188Y-41075518D01*
X51561928Y-41200000D01*
X51561928Y-42800000D01*
X51574188Y-42924482D01*
X51610498Y-43044180D01*
X51669463Y-43154494D01*
X51748815Y-43251185D01*
X51845506Y-43330537D01*
X51955820Y-43389502D01*
X52075518Y-43425812D01*
X52200000Y-43438072D01*
X53800000Y-43438072D01*
X53924482Y-43425812D01*
X54044180Y-43389502D01*
X54154494Y-43330537D01*
X54251185Y-43251185D01*
X54330537Y-43154494D01*
X54389502Y-43044180D01*
X54425812Y-42924482D01*
X54438072Y-42800000D01*
X54438072Y-42405582D01*
X58514700Y-46482211D01*
X58514701Y-51571288D01*
X48438072Y-61647918D01*
X48438072Y-60080000D01*
X48425812Y-59955518D01*
X48389502Y-59835820D01*
X48330537Y-59725506D01*
X48251185Y-59628815D01*
X48154494Y-59549463D01*
X48044180Y-59490498D01*
X48035000Y-59487713D01*
X48035000Y-50614396D01*
X48114637Y-50534759D01*
X48271680Y-50299727D01*
X48379853Y-50038574D01*
X48435000Y-49761335D01*
X48435000Y-49478665D01*
X51565000Y-49478665D01*
X51565000Y-49761335D01*
X51620147Y-50038574D01*
X51728320Y-50299727D01*
X51885363Y-50534759D01*
X52085241Y-50734637D01*
X52320273Y-50891680D01*
X52581426Y-50999853D01*
X52858665Y-51055000D01*
X53141335Y-51055000D01*
X53418574Y-50999853D01*
X53679727Y-50891680D01*
X53914759Y-50734637D01*
X54114637Y-50534759D01*
X54271680Y-50299727D01*
X54379853Y-50038574D01*
X54435000Y-49761335D01*
X54435000Y-49478665D01*
X54379853Y-49201426D01*
X54271680Y-48940273D01*
X54114637Y-48705241D01*
X53914759Y-48505363D01*
X53679727Y-48348320D01*
X53418574Y-48240147D01*
X53141335Y-48185000D01*
X52858665Y-48185000D01*
X52581426Y-48240147D01*
X52320273Y-48348320D01*
X52085241Y-48505363D01*
X51885363Y-48705241D01*
X51728320Y-48940273D01*
X51620147Y-49201426D01*
X51565000Y-49478665D01*
X48435000Y-49478665D01*
X48379853Y-49201426D01*
X48271680Y-48940273D01*
X48114637Y-48705241D01*
X48035000Y-48625604D01*
X48035000Y-48070827D01*
X48040006Y-48019999D01*
X48035000Y-47969171D01*
X48035000Y-47969162D01*
X48020024Y-47817105D01*
X47960841Y-47622007D01*
X47916104Y-47538309D01*
X47864734Y-47442202D01*
X47767803Y-47324092D01*
X47735396Y-47284604D01*
X47695908Y-47252197D01*
X42163710Y-41720000D01*
X42683710Y-41200000D01*
X45561928Y-41200000D01*
X45561928Y-42800000D01*
X45574188Y-42924482D01*
X45610498Y-43044180D01*
X45669463Y-43154494D01*
X45748815Y-43251185D01*
X45845506Y-43330537D01*
X45955820Y-43389502D01*
X46075518Y-43425812D01*
X46200000Y-43438072D01*
X47800000Y-43438072D01*
X47924482Y-43425812D01*
X48044180Y-43389502D01*
X48154494Y-43330537D01*
X48251185Y-43251185D01*
X48330537Y-43154494D01*
X48389502Y-43044180D01*
X48425812Y-42924482D01*
X48438072Y-42800000D01*
X48438072Y-41200000D01*
X48425812Y-41075518D01*
X48389502Y-40955820D01*
X48330537Y-40845506D01*
X48251185Y-40748815D01*
X48154494Y-40669463D01*
X48044180Y-40610498D01*
X47924482Y-40574188D01*
X47800000Y-40561928D01*
X46200000Y-40561928D01*
X46075518Y-40574188D01*
X45955820Y-40610498D01*
X45845506Y-40669463D01*
X45748815Y-40748815D01*
X45669463Y-40845506D01*
X45610498Y-40955820D01*
X45574188Y-41075518D01*
X45561928Y-41200000D01*
X42683710Y-41200000D01*
X45732701Y-38151010D01*
X45716304Y-38190595D01*
X45665000Y-38448514D01*
X45665000Y-38711486D01*
X45716304Y-38969405D01*
X45816939Y-39212359D01*
X45963038Y-39431013D01*
X46148987Y-39616962D01*
X46367641Y-39763061D01*
X46610595Y-39863696D01*
X46868514Y-39915000D01*
X47131486Y-39915000D01*
X47389405Y-39863696D01*
X47632359Y-39763061D01*
X47851013Y-39616962D01*
X48036962Y-39431013D01*
X48183061Y-39212359D01*
X48283696Y-38969405D01*
X48335000Y-38711486D01*
X48335000Y-38448514D01*
X48283696Y-38190595D01*
X48183061Y-37947641D01*
X48036962Y-37728987D01*
X47851013Y-37543038D01*
X47632359Y-37396939D01*
X47389405Y-37296304D01*
X47131486Y-37245000D01*
X46868514Y-37245000D01*
X46610595Y-37296304D01*
X46433146Y-37369806D01*
X46443191Y-37351013D01*
X46460841Y-37317993D01*
X46520024Y-37122895D01*
X46535000Y-36970838D01*
X46535000Y-36970829D01*
X46540006Y-36920001D01*
X46535000Y-36869173D01*
X46535000Y-34752383D01*
X46610595Y-34783696D01*
X46868514Y-34835000D01*
X47131486Y-34835000D01*
X47389405Y-34783696D01*
X47632359Y-34683061D01*
X47851013Y-34536962D01*
X47852975Y-34535000D01*
X48071290Y-34535000D01*
X49330696Y-35794407D01*
%TA.AperFunction,Conductor*%
D19*
G36*
X49330696Y-35794407D02*
G01*
X49363104Y-35833896D01*
X49402592Y-35866303D01*
X49520702Y-35963234D01*
X49616809Y-36014604D01*
X49700507Y-36059341D01*
X49895605Y-36118524D01*
X50047662Y-36133500D01*
X50047671Y-36133500D01*
X50098499Y-36138506D01*
X50149327Y-36133500D01*
X55989790Y-36133500D01*
X59632197Y-39775908D01*
X59664604Y-39815396D01*
X59704092Y-39847803D01*
X59822202Y-39944734D01*
X59885038Y-39978320D01*
X60002007Y-40040841D01*
X60197105Y-40100024D01*
X60349162Y-40115000D01*
X60349171Y-40115000D01*
X60399999Y-40120006D01*
X60450827Y-40115000D01*
X61005604Y-40115000D01*
X61085241Y-40194637D01*
X61317759Y-40350000D01*
X61085241Y-40505363D01*
X60885363Y-40705241D01*
X60728320Y-40940273D01*
X60620147Y-41201426D01*
X60565000Y-41478665D01*
X60565000Y-41761335D01*
X60620147Y-42038574D01*
X60728320Y-42299727D01*
X60885363Y-42534759D01*
X60965001Y-42614397D01*
X60965001Y-43169163D01*
X60959994Y-43220000D01*
X60979977Y-43422895D01*
X61039160Y-43617993D01*
X61135266Y-43797797D01*
X61217050Y-43897450D01*
X61264605Y-43955396D01*
X61304092Y-43987803D01*
X63634979Y-46318690D01*
X63632359Y-46316939D01*
X63389405Y-46216304D01*
X63131486Y-46165000D01*
X62868514Y-46165000D01*
X62610595Y-46216304D01*
X62367641Y-46316939D01*
X62148987Y-46463038D01*
X61963038Y-46648987D01*
X61816939Y-46867641D01*
X61716304Y-47110595D01*
X61665000Y-47368514D01*
X61665000Y-47631486D01*
X61716304Y-47889405D01*
X61816939Y-48132359D01*
X61963038Y-48351013D01*
X62148987Y-48536962D01*
X62367641Y-48683061D01*
X62610595Y-48783696D01*
X62868514Y-48835000D01*
X63131486Y-48835000D01*
X63389405Y-48783696D01*
X63632359Y-48683061D01*
X63851013Y-48536962D01*
X64036962Y-48351013D01*
X64183061Y-48132359D01*
X64283696Y-47889405D01*
X64335000Y-47631486D01*
X64335000Y-47368514D01*
X64283696Y-47110595D01*
X64183061Y-46867641D01*
X64181310Y-46865021D01*
X65465000Y-48148711D01*
X65465001Y-51005603D01*
X65385363Y-51085241D01*
X65250000Y-51287827D01*
X65114637Y-51085241D01*
X64914759Y-50885363D01*
X64679727Y-50728320D01*
X64418574Y-50620147D01*
X64141335Y-50565000D01*
X63858665Y-50565000D01*
X63581426Y-50620147D01*
X63320273Y-50728320D01*
X63085241Y-50885363D01*
X63005604Y-50965000D01*
X60584700Y-50965000D01*
X60584700Y-46104335D01*
X60589707Y-46053500D01*
X60584700Y-46002662D01*
X60569724Y-45850605D01*
X60510541Y-45655507D01*
X60435491Y-45515098D01*
X60414434Y-45475702D01*
X60317503Y-45357592D01*
X60285096Y-45318104D01*
X60245608Y-45285697D01*
X54424007Y-39464097D01*
X54391596Y-39424604D01*
X54233997Y-39295266D01*
X54191308Y-39272448D01*
X54283696Y-39049405D01*
X54335000Y-38791486D01*
X54335000Y-38528514D01*
X54283696Y-38270595D01*
X54183061Y-38027641D01*
X54036962Y-37808987D01*
X53851013Y-37623038D01*
X53632359Y-37476939D01*
X53389405Y-37376304D01*
X53131486Y-37325000D01*
X52868514Y-37325000D01*
X52610595Y-37376304D01*
X52367641Y-37476939D01*
X52148987Y-37623038D01*
X51963038Y-37808987D01*
X51816939Y-38027641D01*
X51716304Y-38270595D01*
X51665000Y-38528514D01*
X51665000Y-38791486D01*
X51716304Y-39049405D01*
X51816939Y-39292359D01*
X51963038Y-39511013D01*
X51965001Y-39512976D01*
X51965001Y-40109153D01*
X51959993Y-40160000D01*
X51979976Y-40362895D01*
X52039159Y-40557993D01*
X52051680Y-40581419D01*
X51955820Y-40610498D01*
X51845506Y-40669463D01*
X51748815Y-40748815D01*
X51669463Y-40845506D01*
X51610498Y-40955820D01*
X51574188Y-41075518D01*
X51561928Y-41200000D01*
X51561928Y-42800000D01*
X51574188Y-42924482D01*
X51610498Y-43044180D01*
X51669463Y-43154494D01*
X51748815Y-43251185D01*
X51845506Y-43330537D01*
X51955820Y-43389502D01*
X52075518Y-43425812D01*
X52200000Y-43438072D01*
X53800000Y-43438072D01*
X53924482Y-43425812D01*
X54044180Y-43389502D01*
X54154494Y-43330537D01*
X54251185Y-43251185D01*
X54330537Y-43154494D01*
X54389502Y-43044180D01*
X54425812Y-42924482D01*
X54438072Y-42800000D01*
X54438072Y-42405582D01*
X58514700Y-46482211D01*
X58514701Y-51571288D01*
X48438072Y-61647918D01*
X48438072Y-60080000D01*
X48425812Y-59955518D01*
X48389502Y-59835820D01*
X48330537Y-59725506D01*
X48251185Y-59628815D01*
X48154494Y-59549463D01*
X48044180Y-59490498D01*
X48035000Y-59487713D01*
X48035000Y-50614396D01*
X48114637Y-50534759D01*
X48271680Y-50299727D01*
X48379853Y-50038574D01*
X48435000Y-49761335D01*
X48435000Y-49478665D01*
X51565000Y-49478665D01*
X51565000Y-49761335D01*
X51620147Y-50038574D01*
X51728320Y-50299727D01*
X51885363Y-50534759D01*
X52085241Y-50734637D01*
X52320273Y-50891680D01*
X52581426Y-50999853D01*
X52858665Y-51055000D01*
X53141335Y-51055000D01*
X53418574Y-50999853D01*
X53679727Y-50891680D01*
X53914759Y-50734637D01*
X54114637Y-50534759D01*
X54271680Y-50299727D01*
X54379853Y-50038574D01*
X54435000Y-49761335D01*
X54435000Y-49478665D01*
X54379853Y-49201426D01*
X54271680Y-48940273D01*
X54114637Y-48705241D01*
X53914759Y-48505363D01*
X53679727Y-48348320D01*
X53418574Y-48240147D01*
X53141335Y-48185000D01*
X52858665Y-48185000D01*
X52581426Y-48240147D01*
X52320273Y-48348320D01*
X52085241Y-48505363D01*
X51885363Y-48705241D01*
X51728320Y-48940273D01*
X51620147Y-49201426D01*
X51565000Y-49478665D01*
X48435000Y-49478665D01*
X48379853Y-49201426D01*
X48271680Y-48940273D01*
X48114637Y-48705241D01*
X48035000Y-48625604D01*
X48035000Y-48070827D01*
X48040006Y-48019999D01*
X48035000Y-47969171D01*
X48035000Y-47969162D01*
X48020024Y-47817105D01*
X47960841Y-47622007D01*
X47916104Y-47538309D01*
X47864734Y-47442202D01*
X47767803Y-47324092D01*
X47735396Y-47284604D01*
X47695908Y-47252197D01*
X42163710Y-41720000D01*
X42683710Y-41200000D01*
X45561928Y-41200000D01*
X45561928Y-42800000D01*
X45574188Y-42924482D01*
X45610498Y-43044180D01*
X45669463Y-43154494D01*
X45748815Y-43251185D01*
X45845506Y-43330537D01*
X45955820Y-43389502D01*
X46075518Y-43425812D01*
X46200000Y-43438072D01*
X47800000Y-43438072D01*
X47924482Y-43425812D01*
X48044180Y-43389502D01*
X48154494Y-43330537D01*
X48251185Y-43251185D01*
X48330537Y-43154494D01*
X48389502Y-43044180D01*
X48425812Y-42924482D01*
X48438072Y-42800000D01*
X48438072Y-41200000D01*
X48425812Y-41075518D01*
X48389502Y-40955820D01*
X48330537Y-40845506D01*
X48251185Y-40748815D01*
X48154494Y-40669463D01*
X48044180Y-40610498D01*
X47924482Y-40574188D01*
X47800000Y-40561928D01*
X46200000Y-40561928D01*
X46075518Y-40574188D01*
X45955820Y-40610498D01*
X45845506Y-40669463D01*
X45748815Y-40748815D01*
X45669463Y-40845506D01*
X45610498Y-40955820D01*
X45574188Y-41075518D01*
X45561928Y-41200000D01*
X42683710Y-41200000D01*
X45732701Y-38151010D01*
X45716304Y-38190595D01*
X45665000Y-38448514D01*
X45665000Y-38711486D01*
X45716304Y-38969405D01*
X45816939Y-39212359D01*
X45963038Y-39431013D01*
X46148987Y-39616962D01*
X46367641Y-39763061D01*
X46610595Y-39863696D01*
X46868514Y-39915000D01*
X47131486Y-39915000D01*
X47389405Y-39863696D01*
X47632359Y-39763061D01*
X47851013Y-39616962D01*
X48036962Y-39431013D01*
X48183061Y-39212359D01*
X48283696Y-38969405D01*
X48335000Y-38711486D01*
X48335000Y-38448514D01*
X48283696Y-38190595D01*
X48183061Y-37947641D01*
X48036962Y-37728987D01*
X47851013Y-37543038D01*
X47632359Y-37396939D01*
X47389405Y-37296304D01*
X47131486Y-37245000D01*
X46868514Y-37245000D01*
X46610595Y-37296304D01*
X46433146Y-37369806D01*
X46443191Y-37351013D01*
X46460841Y-37317993D01*
X46520024Y-37122895D01*
X46535000Y-36970838D01*
X46535000Y-36970829D01*
X46540006Y-36920001D01*
X46535000Y-36869173D01*
X46535000Y-34752383D01*
X46610595Y-34783696D01*
X46868514Y-34835000D01*
X47131486Y-34835000D01*
X47389405Y-34783696D01*
X47632359Y-34683061D01*
X47851013Y-34536962D01*
X47852975Y-34535000D01*
X48071290Y-34535000D01*
X49330696Y-35794407D01*
G37*
%TD.AperFunction*%
D18*
X67045000Y-56672514D02*
X66918574Y-56620147D01*
X66641335Y-56565000D01*
X66358665Y-56565000D01*
X66081426Y-56620147D01*
X65820273Y-56728320D01*
X65585241Y-56885363D01*
X65385363Y-57085241D01*
X65250000Y-57287827D01*
X65114637Y-57085241D01*
X65035000Y-57005604D01*
X65035000Y-54928710D01*
X66528711Y-53435000D01*
X66641335Y-53435000D01*
X66918574Y-53379853D01*
X67045001Y-53327485D01*
X67045000Y-56672514D01*
%TA.AperFunction,Conductor*%
D19*
G36*
X67045000Y-56672514D02*
G01*
X66918574Y-56620147D01*
X66641335Y-56565000D01*
X66358665Y-56565000D01*
X66081426Y-56620147D01*
X65820273Y-56728320D01*
X65585241Y-56885363D01*
X65385363Y-57085241D01*
X65250000Y-57287827D01*
X65114637Y-57085241D01*
X65035000Y-57005604D01*
X65035000Y-54928710D01*
X66528711Y-53435000D01*
X66641335Y-53435000D01*
X66918574Y-53379853D01*
X67045001Y-53327485D01*
X67045000Y-56672514D01*
G37*
%TD.AperFunction*%
D18*
X72565000Y-33641335D02*
X72620147Y-33918574D01*
X72728320Y-34179727D01*
X72885363Y-34414759D01*
X73085241Y-34614637D01*
X73320273Y-34771680D01*
X73581426Y-34879853D01*
X73745583Y-34912506D01*
X73304092Y-35353998D01*
X73264605Y-35386404D01*
X73232198Y-35425892D01*
X73232197Y-35425893D01*
X73167275Y-35505000D01*
X70614396Y-35505000D01*
X70534759Y-35425363D01*
X70302241Y-35270000D01*
X70534759Y-35114637D01*
X70734637Y-34914759D01*
X70891680Y-34679727D01*
X70999853Y-34418574D01*
X71055000Y-34141335D01*
X71055000Y-33858665D01*
X71001757Y-33591000D01*
X72565000Y-33591000D01*
X72565000Y-33641335D01*
%TA.AperFunction,Conductor*%
D19*
G36*
X72565000Y-33641335D02*
G01*
X72620147Y-33918574D01*
X72728320Y-34179727D01*
X72885363Y-34414759D01*
X73085241Y-34614637D01*
X73320273Y-34771680D01*
X73581426Y-34879853D01*
X73745583Y-34912506D01*
X73304092Y-35353998D01*
X73264605Y-35386404D01*
X73232198Y-35425892D01*
X73232197Y-35425893D01*
X73167275Y-35505000D01*
X70614396Y-35505000D01*
X70534759Y-35425363D01*
X70302241Y-35270000D01*
X70534759Y-35114637D01*
X70734637Y-34914759D01*
X70891680Y-34679727D01*
X70999853Y-34418574D01*
X71055000Y-34141335D01*
X71055000Y-33858665D01*
X71001757Y-33591000D01*
X72565000Y-33591000D01*
X72565000Y-33641335D01*
G37*
%TD.AperFunction*%
D18*
X76944402Y-31734866D02*
X76826292Y-31831797D01*
X76786804Y-31864204D01*
X76754397Y-31903692D01*
X75412506Y-33245583D01*
X75379853Y-33081426D01*
X75271680Y-32820273D01*
X75114637Y-32585241D01*
X74914759Y-32385363D01*
X74679727Y-32228320D01*
X74418574Y-32120147D01*
X74141335Y-32065000D01*
X74028710Y-32065000D01*
X73823807Y-31860097D01*
X73791396Y-31820604D01*
X73633797Y-31691266D01*
X73575302Y-31660000D01*
X77084468Y-31660000D01*
X76944402Y-31734866D01*
%TA.AperFunction,Conductor*%
D19*
G36*
X76944402Y-31734866D02*
G01*
X76826292Y-31831797D01*
X76786804Y-31864204D01*
X76754397Y-31903692D01*
X75412506Y-33245583D01*
X75379853Y-33081426D01*
X75271680Y-32820273D01*
X75114637Y-32585241D01*
X74914759Y-32385363D01*
X74679727Y-32228320D01*
X74418574Y-32120147D01*
X74141335Y-32065000D01*
X74028710Y-32065000D01*
X73823807Y-31860097D01*
X73791396Y-31820604D01*
X73633797Y-31691266D01*
X73575302Y-31660000D01*
X77084468Y-31660000D01*
X76944402Y-31734866D01*
G37*
%TD.AperFunction*%
%TD*%
M02*
