%TF.GenerationSoftware,KiCad,Pcbnew,5.1.10*%
%TF.CreationDate,2021-07-17T21:41:45+02:00*%
%TF.ProjectId,tht-dip,7468742d-6469-4702-9e6b-696361645f70,rev?*%
%TF.SameCoordinates,Original*%
%TF.FileFunction,Copper,L1,Top*%
%TF.FilePolarity,Positive*%
%FSLAX46Y46*%
G04 Gerber Fmt 4.6, Leading zero omitted, Abs format (unit mm)*
G04 Created by KiCad (PCBNEW 5.1.10) date 2021-07-17 21:41:45*
%MOMM*%
%LPD*%
G01*
G04 APERTURE LIST*
%TA.AperFunction,ComponentPad*%
%ADD10C,1.600000*%
%TD*%
%TA.AperFunction,ComponentPad*%
%ADD11O,1.600000X1.600000*%
%TD*%
%TA.AperFunction,ComponentPad*%
%ADD12R,1.600000X1.600000*%
%TD*%
%TA.AperFunction,ComponentPad*%
%ADD13C,3.500000*%
%TD*%
%TA.AperFunction,ComponentPad*%
%ADD14O,1.400000X1.400000*%
%TD*%
%TA.AperFunction,ComponentPad*%
%ADD15C,1.400000*%
%TD*%
%TA.AperFunction,ViaPad*%
%ADD16C,0.800000*%
%TD*%
%TA.AperFunction,Conductor*%
%ADD17C,0.800000*%
%TD*%
%TA.AperFunction,Conductor*%
%ADD18C,0.254000*%
%TD*%
%TA.AperFunction,Conductor*%
%ADD19C,0.100000*%
%TD*%
G04 APERTURE END LIST*
D10*
%TO.P,C2,1*%
%TO.N,VCC*%
X99750000Y-69500000D03*
%TO.P,C2,2*%
%TO.N,V-*%
X102250000Y-69500000D03*
%TD*%
%TO.P,C4,2*%
%TO.N,Net-(C4-Pad2)*%
X114500000Y-34500000D03*
%TO.P,C4,1*%
%TO.N,/2*%
X114500000Y-37000000D03*
%TD*%
%TO.P,C5,1*%
%TO.N,/3*%
X114750000Y-75000000D03*
%TO.P,C5,2*%
%TO.N,Net-(C5-Pad2)*%
X114750000Y-72500000D03*
%TD*%
%TO.P,C6,1*%
%TO.N,V-*%
X60500000Y-56500000D03*
%TO.P,C6,2*%
%TO.N,Net-(C6-Pad2)*%
X60500000Y-54000000D03*
%TD*%
%TO.P,C7,2*%
%TO.N,V-*%
X55500000Y-54000000D03*
%TO.P,C7,1*%
%TO.N,Net-(C7-Pad1)*%
X55500000Y-56500000D03*
%TD*%
%TO.P,C8,1*%
%TO.N,V-*%
X48000000Y-54000000D03*
%TO.P,C8,2*%
%TO.N,Net-(C8-Pad2)*%
X48000000Y-56500000D03*
%TD*%
D11*
%TO.P,D1,2*%
%TO.N,V-*%
X121000000Y-58870000D03*
D12*
%TO.P,D1,1*%
%TO.N,Net-(D1-Pad1)*%
X121000000Y-51250000D03*
%TD*%
%TO.P,D2,1*%
%TO.N,VCC*%
X47000000Y-42000000D03*
D11*
%TO.P,D2,2*%
%TO.N,ind*%
X47000000Y-49620000D03*
%TD*%
%TO.P,D3,2*%
%TO.N,V-*%
X47000000Y-68500000D03*
D12*
%TO.P,D3,1*%
%TO.N,ind*%
X47000000Y-60880000D03*
%TD*%
%TO.P,D4,1*%
%TO.N,VCC*%
X53000000Y-42000000D03*
D11*
%TO.P,D4,2*%
%TO.N,Net-(D4-Pad2)*%
X53000000Y-49620000D03*
%TD*%
D12*
%TO.P,D5,1*%
%TO.N,Net-(D4-Pad2)*%
X53000000Y-61000000D03*
D11*
%TO.P,D5,2*%
%TO.N,V-*%
X53000000Y-68620000D03*
%TD*%
D13*
%TO.P,J1,1*%
%TO.N,/2*%
X130250000Y-45750000D03*
%TD*%
%TO.P,J2,1*%
%TO.N,/3*%
X130250000Y-54750000D03*
%TD*%
%TO.P,J3,1*%
%TO.N,ind*%
X38250000Y-41750000D03*
%TD*%
%TO.P,J4,1*%
%TO.N,Net-(D4-Pad2)*%
X39000000Y-69000000D03*
%TD*%
%TO.P,J5,1*%
%TO.N,V-*%
X130250000Y-63750000D03*
%TD*%
%TO.P,J6,1*%
%TO.N,V-*%
X38500000Y-55000000D03*
%TD*%
%TO.P,J7,1*%
%TO.N,Earth*%
X39000000Y-35000000D03*
%TD*%
%TO.P,J8,1*%
%TO.N,Earth*%
X39000000Y-76000000D03*
%TD*%
%TO.P,J9,1*%
%TO.N,Earth*%
X131000000Y-35000000D03*
%TD*%
%TO.P,J10,1*%
%TO.N,Earth*%
X131000000Y-76000000D03*
%TD*%
D14*
%TO.P,R1,2*%
%TO.N,VCC*%
X106750000Y-76080000D03*
D15*
%TO.P,R1,1*%
%TO.N,Net-(D1-Pad1)*%
X106750000Y-71000000D03*
%TD*%
%TO.P,R2,1*%
%TO.N,VCC*%
X53000000Y-33580000D03*
D14*
%TO.P,R2,2*%
%TO.N,Net-(C7-Pad1)*%
X53000000Y-38660000D03*
%TD*%
D15*
%TO.P,R3,1*%
%TO.N,Net-(C7-Pad1)*%
X47000000Y-38580000D03*
D14*
%TO.P,R3,2*%
%TO.N,ind*%
X47000000Y-33500000D03*
%TD*%
D15*
%TO.P,R4,1*%
%TO.N,Net-(C7-Pad1)*%
X47000000Y-72000000D03*
D14*
%TO.P,R4,2*%
%TO.N,Net-(D4-Pad2)*%
X47000000Y-77080000D03*
%TD*%
D15*
%TO.P,R5,1*%
%TO.N,Net-(D1-Pad1)*%
X114500000Y-41500000D03*
D14*
%TO.P,R5,2*%
%TO.N,/2*%
X109420000Y-41500000D03*
%TD*%
%TO.P,R6,2*%
%TO.N,/3*%
X125000000Y-57500000D03*
D15*
%TO.P,R6,1*%
%TO.N,Net-(D1-Pad1)*%
X125000000Y-52420000D03*
%TD*%
D14*
%TO.P,R7,2*%
%TO.N,ResOUT*%
X108000000Y-34000000D03*
D15*
%TO.P,R7,1*%
%TO.N,Net-(C4-Pad2)*%
X108000000Y-39080000D03*
%TD*%
D14*
%TO.P,R8,2*%
%TO.N,ResOUT2*%
X109670000Y-68750000D03*
D15*
%TO.P,R8,1*%
%TO.N,Net-(C5-Pad2)*%
X114750000Y-68750000D03*
%TD*%
D14*
%TO.P,R9,2*%
%TO.N,ResIN*%
X74000000Y-47000000D03*
D15*
%TO.P,R9,1*%
%TO.N,Net-(C6-Pad2)*%
X68920000Y-47000000D03*
%TD*%
%TO.P,R10,1*%
%TO.N,Net-(C7-Pad1)*%
X53000000Y-72000000D03*
D14*
%TO.P,R10,2*%
%TO.N,V-*%
X53000000Y-77080000D03*
%TD*%
D15*
%TO.P,R11,1*%
%TO.N,Net-(C8-Pad2)*%
X68920000Y-64000000D03*
D14*
%TO.P,R11,2*%
%TO.N,ResIN1*%
X74000000Y-64000000D03*
%TD*%
%TO.P,R12,2*%
%TO.N,Net-(R12-Pad2)*%
X89170000Y-61250000D03*
D15*
%TO.P,R12,1*%
%TO.N,ResOUT*%
X94250000Y-61250000D03*
%TD*%
%TO.P,R13,1*%
%TO.N,ResOUT*%
X94250000Y-63750000D03*
D14*
%TO.P,R13,2*%
%TO.N,Net-(R13-Pad2)*%
X89170000Y-63750000D03*
%TD*%
%TO.P,R14,2*%
%TO.N,Net-(R14-Pad2)*%
X89250000Y-66250000D03*
D15*
%TO.P,R14,1*%
%TO.N,ResOUT*%
X94330000Y-66250000D03*
%TD*%
%TO.P,R15,1*%
%TO.N,ResOUT*%
X94330000Y-69000000D03*
D14*
%TO.P,R15,2*%
%TO.N,Net-(R15-Pad2)*%
X89250000Y-69000000D03*
%TD*%
%TO.P,R16,2*%
%TO.N,Net-(R16-Pad2)*%
X89250000Y-71500000D03*
D15*
%TO.P,R16,1*%
%TO.N,ResOUT*%
X94330000Y-71500000D03*
%TD*%
%TO.P,R17,1*%
%TO.N,ResOUT*%
X94330000Y-74000000D03*
D14*
%TO.P,R17,2*%
%TO.N,Net-(R17-Pad2)*%
X89250000Y-74000000D03*
%TD*%
%TO.P,R18,2*%
%TO.N,Net-(R18-Pad2)*%
X89250000Y-76500000D03*
D15*
%TO.P,R18,1*%
%TO.N,ResOUT*%
X94330000Y-76500000D03*
%TD*%
D14*
%TO.P,R20,2*%
%TO.N,Net-(R20-Pad2)*%
X88920000Y-36500000D03*
D15*
%TO.P,R20,1*%
%TO.N,ResOUT2*%
X94000000Y-36500000D03*
%TD*%
%TO.P,R21,1*%
%TO.N,ResOUT2*%
X94000000Y-39000000D03*
D14*
%TO.P,R21,2*%
%TO.N,Net-(R21-Pad2)*%
X88920000Y-39000000D03*
%TD*%
%TO.P,R22,2*%
%TO.N,Net-(R22-Pad2)*%
X88920000Y-41500000D03*
D15*
%TO.P,R22,1*%
%TO.N,ResOUT2*%
X94000000Y-41500000D03*
%TD*%
%TO.P,R23,1*%
%TO.N,ResOUT2*%
X94000000Y-44000000D03*
D14*
%TO.P,R23,2*%
%TO.N,Net-(R23-Pad2)*%
X88920000Y-44000000D03*
%TD*%
%TO.P,R24,2*%
%TO.N,Net-(R24-Pad2)*%
X88920000Y-46750000D03*
D15*
%TO.P,R24,1*%
%TO.N,ResOUT2*%
X94000000Y-46750000D03*
%TD*%
%TO.P,R25,1*%
%TO.N,ResOUT2*%
X94000000Y-49250000D03*
D14*
%TO.P,R25,2*%
%TO.N,Net-(R25-Pad2)*%
X88920000Y-49250000D03*
%TD*%
%TO.P,R26,2*%
%TO.N,Net-(R26-Pad2)*%
X88920000Y-51750000D03*
D15*
%TO.P,R26,1*%
%TO.N,ResOUT2*%
X94000000Y-51750000D03*
%TD*%
D12*
%TO.P,SW1,1*%
%TO.N,ResIN*%
X78800000Y-58800000D03*
D11*
%TO.P,SW1,9*%
%TO.N,Net-(R18-Pad2)*%
X86420000Y-76580000D03*
%TO.P,SW1,2*%
%TO.N,ResIN*%
X78800000Y-61340000D03*
%TO.P,SW1,10*%
%TO.N,Net-(R17-Pad2)*%
X86420000Y-74040000D03*
%TO.P,SW1,3*%
%TO.N,ResIN*%
X78800000Y-63880000D03*
%TO.P,SW1,11*%
%TO.N,Net-(R16-Pad2)*%
X86420000Y-71500000D03*
%TO.P,SW1,4*%
%TO.N,ResIN*%
X78800000Y-66420000D03*
%TO.P,SW1,12*%
%TO.N,Net-(R15-Pad2)*%
X86420000Y-68960000D03*
%TO.P,SW1,5*%
%TO.N,ResIN*%
X78800000Y-68960000D03*
%TO.P,SW1,13*%
%TO.N,Net-(R14-Pad2)*%
X86420000Y-66420000D03*
%TO.P,SW1,6*%
%TO.N,ResIN*%
X78800000Y-71500000D03*
%TO.P,SW1,14*%
%TO.N,Net-(R13-Pad2)*%
X86420000Y-63880000D03*
%TO.P,SW1,7*%
%TO.N,ResIN*%
X78800000Y-74040000D03*
%TO.P,SW1,15*%
%TO.N,Net-(R12-Pad2)*%
X86420000Y-61340000D03*
%TO.P,SW1,8*%
%TO.N,ResIN*%
X78800000Y-76580000D03*
%TO.P,SW1,16*%
%TO.N,Net-(R19-Pad2)*%
X86420000Y-58800000D03*
%TD*%
D12*
%TO.P,SW2,1*%
%TO.N,ResIN1*%
X78350000Y-34000000D03*
D11*
%TO.P,SW2,9*%
%TO.N,Net-(R26-Pad2)*%
X85970000Y-51780000D03*
%TO.P,SW2,2*%
%TO.N,ResIN1*%
X78350000Y-36540000D03*
%TO.P,SW2,10*%
%TO.N,Net-(R25-Pad2)*%
X85970000Y-49240000D03*
%TO.P,SW2,3*%
%TO.N,ResIN1*%
X78350000Y-39080000D03*
%TO.P,SW2,11*%
%TO.N,Net-(R24-Pad2)*%
X85970000Y-46700000D03*
%TO.P,SW2,4*%
%TO.N,ResIN1*%
X78350000Y-41620000D03*
%TO.P,SW2,12*%
%TO.N,Net-(R23-Pad2)*%
X85970000Y-44160000D03*
%TO.P,SW2,5*%
%TO.N,ResIN1*%
X78350000Y-44160000D03*
%TO.P,SW2,13*%
%TO.N,Net-(R22-Pad2)*%
X85970000Y-41620000D03*
%TO.P,SW2,6*%
%TO.N,ResIN1*%
X78350000Y-46700000D03*
%TO.P,SW2,14*%
%TO.N,Net-(R21-Pad2)*%
X85970000Y-39080000D03*
%TO.P,SW2,7*%
%TO.N,ResIN1*%
X78350000Y-49240000D03*
%TO.P,SW2,15*%
%TO.N,Net-(R20-Pad2)*%
X85970000Y-36540000D03*
%TO.P,SW2,8*%
%TO.N,ResIN1*%
X78350000Y-51780000D03*
%TO.P,SW2,16*%
%TO.N,Net-(R27-Pad2)*%
X85970000Y-34000000D03*
%TD*%
D10*
%TO.P,C1,1*%
%TO.N,VCC*%
X74000000Y-38500000D03*
%TO.P,C1,2*%
%TO.N,V-*%
X74000000Y-33500000D03*
%TD*%
%TO.P,C9,1*%
%TO.N,V-*%
X102250000Y-41250000D03*
%TO.P,C9,2*%
%TO.N,VCC*%
X99750000Y-41250000D03*
%TD*%
D12*
%TO.P,C3,1*%
%TO.N,VCC*%
X114500000Y-55000000D03*
D10*
%TO.P,C3,2*%
%TO.N,V-*%
X117000000Y-55000000D03*
%TD*%
D14*
%TO.P,R19,2*%
%TO.N,Net-(R19-Pad2)*%
X89170000Y-58750000D03*
D15*
%TO.P,R19,1*%
%TO.N,ResOUT*%
X94250000Y-58750000D03*
%TD*%
%TO.P,R27,1*%
%TO.N,ResOUT2*%
X94080000Y-34000000D03*
D14*
%TO.P,R27,2*%
%TO.N,Net-(R27-Pad2)*%
X89000000Y-34000000D03*
%TD*%
D12*
%TO.P,U1,1*%
%TO.N,ResOUT*%
X66000000Y-59120000D03*
D11*
%TO.P,U1,5*%
%TO.N,ind*%
X73620000Y-51500000D03*
%TO.P,U1,2*%
%TO.N,ResIN*%
X68540000Y-59120000D03*
%TO.P,U1,6*%
%TO.N,ResIN1*%
X71080000Y-51500000D03*
%TO.P,U1,3*%
%TO.N,Net-(D4-Pad2)*%
X71080000Y-59120000D03*
%TO.P,U1,7*%
%TO.N,ResOUT2*%
X68540000Y-51500000D03*
%TO.P,U1,4*%
%TO.N,V-*%
X73620000Y-59120000D03*
%TO.P,U1,8*%
%TO.N,VCC*%
X66000000Y-51500000D03*
%TD*%
D16*
%TO.N,Earth*%
X82000000Y-46500000D03*
X97000000Y-45000000D03*
X60500000Y-50500000D03*
X49000000Y-66500000D03*
X73500000Y-56000000D03*
X73000000Y-48500000D03*
X108250000Y-48000000D03*
%TD*%
D17*
%TO.N,V-*%
X102250000Y-69500000D02*
X102500000Y-69500000D01*
X102500000Y-69500000D02*
X117000000Y-55000000D01*
X73620000Y-59120000D02*
X71000000Y-56500000D01*
X71000000Y-56500000D02*
X60500000Y-56500000D01*
X55500000Y-54000000D02*
X48000000Y-54000000D01*
X45531200Y-55000000D02*
X47000000Y-55000000D01*
X47000000Y-55000000D02*
X48000000Y-54000000D01*
X38500000Y-55000000D02*
X45531200Y-55000000D01*
X45531200Y-55000000D02*
X45531200Y-65431200D01*
X45531200Y-65431200D02*
X47000000Y-66900000D01*
X47000000Y-68500000D02*
X47000000Y-66900000D01*
X47000000Y-68500000D02*
X48600000Y-68500000D01*
X53000000Y-68620000D02*
X48720000Y-68620000D01*
X48720000Y-68620000D02*
X48600000Y-68500000D01*
X121000000Y-58870000D02*
X122600000Y-58870000D01*
X130250000Y-63750000D02*
X127480000Y-63750000D01*
X127480000Y-63750000D02*
X122600000Y-58870000D01*
%TO.N,VCC*%
X114500000Y-55000000D02*
X112900000Y-55000000D01*
X112900000Y-55000000D02*
X112900000Y-56350000D01*
X112900000Y-56350000D02*
X99750000Y-69500000D01*
X99750000Y-41250000D02*
X99750000Y-37801600D01*
X99750000Y-37801600D02*
X94530900Y-32582500D01*
X94530900Y-32582500D02*
X77248400Y-32582500D01*
X77248400Y-32582500D02*
X74000000Y-35830900D01*
X74000000Y-35830900D02*
X74000000Y-38500000D01*
X55075600Y-38424400D02*
X55075600Y-35655600D01*
X55075600Y-35655600D02*
X53000000Y-33580000D01*
X53000000Y-40400000D02*
X53100000Y-40400000D01*
X53100000Y-40400000D02*
X55075600Y-38424400D01*
X74000000Y-38500000D02*
X55151200Y-38500000D01*
X55151200Y-38500000D02*
X55075600Y-38424400D01*
X53000000Y-41200000D02*
X53000000Y-40400000D01*
X47000000Y-42000000D02*
X48600000Y-42000000D01*
X53000000Y-41200000D02*
X49400000Y-41200000D01*
X49400000Y-41200000D02*
X48600000Y-42000000D01*
X53000000Y-42000000D02*
X53000000Y-41200000D01*
%TO.N,Net-(C4-Pad2)*%
X108000000Y-39080000D02*
X112580000Y-34500000D01*
X112580000Y-34500000D02*
X114500000Y-34500000D01*
%TO.N,Net-(C7-Pad1)*%
X53000000Y-72000000D02*
X54400400Y-70599600D01*
X54400400Y-70599600D02*
X54400400Y-68012600D01*
X54400400Y-68012600D02*
X51599600Y-65211800D01*
X51599600Y-65211800D02*
X51599600Y-59899800D01*
X51599600Y-59899800D02*
X54999400Y-56500000D01*
X54999400Y-56500000D02*
X55500000Y-56500000D01*
X53000000Y-72000000D02*
X47000000Y-72000000D01*
X53000000Y-38660000D02*
X51500000Y-38660000D01*
X47000000Y-38580000D02*
X51420000Y-38580000D01*
X51420000Y-38580000D02*
X51500000Y-38660000D01*
%TO.N,Net-(D1-Pad1)*%
X123770000Y-52420000D02*
X122600000Y-51250000D01*
X125000000Y-52420000D02*
X123770000Y-52420000D01*
X123770000Y-52420000D02*
X106750000Y-69440000D01*
X106750000Y-69440000D02*
X106750000Y-71000000D01*
X121000000Y-51250000D02*
X122600000Y-51250000D01*
%TO.N,ind*%
X47000000Y-49620000D02*
X48600000Y-49620000D01*
X73620000Y-51500000D02*
X70610300Y-48490300D01*
X70610300Y-48490300D02*
X54016300Y-48490300D01*
X54016300Y-48490300D02*
X53714300Y-48188300D01*
X53714300Y-48188300D02*
X50031700Y-48188300D01*
X50031700Y-48188300D02*
X48600000Y-49620000D01*
%TO.N,Net-(D4-Pad2)*%
X53000000Y-61000000D02*
X54600000Y-61000000D01*
X56937500Y-57913400D02*
X56937500Y-51957500D01*
X56937500Y-51957500D02*
X54600000Y-49620000D01*
X54600000Y-61000000D02*
X54600000Y-60250900D01*
X54600000Y-60250900D02*
X56937500Y-57913400D01*
X71080000Y-59120000D02*
X69667600Y-57707600D01*
X69667600Y-57707600D02*
X61292400Y-57707600D01*
X61292400Y-57707600D02*
X61086600Y-57913400D01*
X61086600Y-57913400D02*
X56937500Y-57913400D01*
X53000000Y-49620000D02*
X54600000Y-49620000D01*
%TO.N,Earth*%
X39273800Y-75726200D02*
X39000000Y-76000000D01*
X131000000Y-76000000D02*
X128995900Y-78004100D01*
X128995900Y-78004100D02*
X65483400Y-78004100D01*
X65483400Y-78004100D02*
X63205500Y-75726200D01*
X63205500Y-75726200D02*
X39273800Y-75726200D01*
X39273800Y-75726200D02*
X35875200Y-72327600D01*
X35875200Y-72327600D02*
X35875200Y-38124800D01*
X35875200Y-38124800D02*
X39000000Y-35000000D01*
X131000000Y-35000000D02*
X132602400Y-36602400D01*
X132602400Y-36602400D02*
X132602400Y-74397600D01*
X132602400Y-74397600D02*
X131000000Y-76000000D01*
%TO.N,ResOUT*%
X108000000Y-34000000D02*
X108000000Y-35500000D01*
X92883200Y-57383200D02*
X104220400Y-46046000D01*
X104220400Y-46046000D02*
X104220400Y-39279600D01*
X104220400Y-39279600D02*
X108000000Y-35500000D01*
X92883200Y-57383200D02*
X94250000Y-58750000D01*
X66000000Y-59120000D02*
X67473000Y-60593000D01*
X67473000Y-60593000D02*
X74551300Y-60593000D01*
X74551300Y-60593000D02*
X77761100Y-57383200D01*
X77761100Y-57383200D02*
X92883200Y-57383200D01*
%TO.N,ResOUT2*%
X68540000Y-51500000D02*
X70949700Y-53909700D01*
X70949700Y-53909700D02*
X91840300Y-53909700D01*
X91840300Y-53909700D02*
X94000000Y-51750000D01*
%TO.N,ResIN1*%
X78350000Y-51780000D02*
X76750000Y-51780000D01*
X71080000Y-51500000D02*
X72484800Y-52904800D01*
X72484800Y-52904800D02*
X75625200Y-52904800D01*
X75625200Y-52904800D02*
X76750000Y-51780000D01*
%TO.N,Net-(R12-Pad2)*%
X89170000Y-61250000D02*
X87670000Y-61250000D01*
X86420000Y-61340000D02*
X87580000Y-61340000D01*
X87580000Y-61340000D02*
X87670000Y-61250000D01*
%TO.N,Net-(R13-Pad2)*%
X89170000Y-63750000D02*
X87670000Y-63750000D01*
X86420000Y-63880000D02*
X87540000Y-63880000D01*
X87540000Y-63880000D02*
X87670000Y-63750000D01*
%TO.N,Net-(R14-Pad2)*%
X89250000Y-66250000D02*
X87750000Y-66250000D01*
X86420000Y-66420000D02*
X87580000Y-66420000D01*
X87580000Y-66420000D02*
X87750000Y-66250000D01*
%TO.N,Net-(R15-Pad2)*%
X89250000Y-69000000D02*
X87750000Y-69000000D01*
X86420000Y-68960000D02*
X87710000Y-68960000D01*
X87710000Y-68960000D02*
X87750000Y-69000000D01*
%TO.N,Net-(R16-Pad2)*%
X86420000Y-71500000D02*
X89250000Y-71500000D01*
%TO.N,Net-(R17-Pad2)*%
X89250000Y-74000000D02*
X87750000Y-74000000D01*
X86420000Y-74040000D02*
X87710000Y-74040000D01*
X87710000Y-74040000D02*
X87750000Y-74000000D01*
%TO.N,Net-(R18-Pad2)*%
X89250000Y-76500000D02*
X87750000Y-76500000D01*
X86420000Y-76580000D02*
X87670000Y-76580000D01*
X87670000Y-76580000D02*
X87750000Y-76500000D01*
%TO.N,Net-(R20-Pad2)*%
X88920000Y-36500000D02*
X87420000Y-36500000D01*
X85970000Y-36540000D02*
X87380000Y-36540000D01*
X87380000Y-36540000D02*
X87420000Y-36500000D01*
%TO.N,Net-(R21-Pad2)*%
X88920000Y-39000000D02*
X87420000Y-39000000D01*
X85970000Y-39080000D02*
X87340000Y-39080000D01*
X87340000Y-39080000D02*
X87420000Y-39000000D01*
%TO.N,Net-(R22-Pad2)*%
X88920000Y-41500000D02*
X87420000Y-41500000D01*
X85970000Y-41620000D02*
X87300000Y-41620000D01*
X87300000Y-41620000D02*
X87420000Y-41500000D01*
%TO.N,Net-(R23-Pad2)*%
X88920000Y-44000000D02*
X87420000Y-44000000D01*
X85970000Y-44160000D02*
X87260000Y-44160000D01*
X87260000Y-44160000D02*
X87420000Y-44000000D01*
%TO.N,Net-(R24-Pad2)*%
X88920000Y-46750000D02*
X87420000Y-46750000D01*
X85970000Y-46700000D02*
X87370000Y-46700000D01*
X87370000Y-46700000D02*
X87420000Y-46750000D01*
%TO.N,Net-(R25-Pad2)*%
X88920000Y-49250000D02*
X87420000Y-49250000D01*
X85970000Y-49240000D02*
X87410000Y-49240000D01*
X87410000Y-49240000D02*
X87420000Y-49250000D01*
%TO.N,Net-(R26-Pad2)*%
X88920000Y-51750000D02*
X87420000Y-51750000D01*
X85970000Y-51780000D02*
X87390000Y-51780000D01*
X87390000Y-51780000D02*
X87420000Y-51750000D01*
%TO.N,Net-(R19-Pad2)*%
X86420000Y-58800000D02*
X88020000Y-58800000D01*
X89170000Y-58750000D02*
X88070000Y-58750000D01*
X88070000Y-58750000D02*
X88020000Y-58800000D01*
%TO.N,Net-(R27-Pad2)*%
X89000000Y-34000000D02*
X85970000Y-34000000D01*
%TD*%
D18*
%TO.N,Earth*%
X76670602Y-31717766D02*
X76552492Y-31814697D01*
X76513004Y-31847104D01*
X76480597Y-31886592D01*
X75352295Y-33014895D01*
X75271680Y-32820273D01*
X75114637Y-32585241D01*
X74914759Y-32385363D01*
X74679727Y-32228320D01*
X74418574Y-32120147D01*
X74141335Y-32065000D01*
X73858665Y-32065000D01*
X73581426Y-32120147D01*
X73320273Y-32228320D01*
X73085241Y-32385363D01*
X72885363Y-32585241D01*
X72728320Y-32820273D01*
X72620147Y-33081426D01*
X72565000Y-33358665D01*
X72565000Y-33641335D01*
X72620147Y-33918574D01*
X72728320Y-34179727D01*
X72885363Y-34414759D01*
X73085241Y-34614637D01*
X73320273Y-34771680D01*
X73514895Y-34852295D01*
X73304097Y-35063093D01*
X73264604Y-35095504D01*
X73135266Y-35253103D01*
X73039159Y-35432908D01*
X72979976Y-35628006D01*
X72965000Y-35780063D01*
X72965000Y-35780072D01*
X72959994Y-35830900D01*
X72965000Y-35881728D01*
X72965001Y-37465000D01*
X56110600Y-37465000D01*
X56110600Y-35706435D01*
X56115607Y-35655600D01*
X56108078Y-35579159D01*
X56095624Y-35452705D01*
X56036441Y-35257607D01*
X55954871Y-35105000D01*
X55940334Y-35077802D01*
X55843403Y-34959692D01*
X55810996Y-34920204D01*
X55771508Y-34887797D01*
X54335000Y-33451290D01*
X54335000Y-33448514D01*
X54283696Y-33190595D01*
X54183061Y-32947641D01*
X54036962Y-32728987D01*
X53851013Y-32543038D01*
X53632359Y-32396939D01*
X53389405Y-32296304D01*
X53131486Y-32245000D01*
X52868514Y-32245000D01*
X52610595Y-32296304D01*
X52367641Y-32396939D01*
X52148987Y-32543038D01*
X51963038Y-32728987D01*
X51816939Y-32947641D01*
X51716304Y-33190595D01*
X51665000Y-33448514D01*
X51665000Y-33711486D01*
X51716304Y-33969405D01*
X51816939Y-34212359D01*
X51963038Y-34431013D01*
X52148987Y-34616962D01*
X52367641Y-34763061D01*
X52610595Y-34863696D01*
X52868514Y-34915000D01*
X52871290Y-34915000D01*
X54040601Y-36084312D01*
X54040600Y-37814432D01*
X54036962Y-37808987D01*
X53851013Y-37623038D01*
X53632359Y-37476939D01*
X53389405Y-37376304D01*
X53131486Y-37325000D01*
X52868514Y-37325000D01*
X52610595Y-37376304D01*
X52367641Y-37476939D01*
X52148987Y-37623038D01*
X52147025Y-37625000D01*
X51828921Y-37625000D01*
X51817993Y-37619159D01*
X51622895Y-37559976D01*
X51470838Y-37545000D01*
X51470828Y-37545000D01*
X51420000Y-37539994D01*
X51369172Y-37545000D01*
X47852975Y-37545000D01*
X47851013Y-37543038D01*
X47632359Y-37396939D01*
X47389405Y-37296304D01*
X47131486Y-37245000D01*
X46868514Y-37245000D01*
X46610595Y-37296304D01*
X46367641Y-37396939D01*
X46148987Y-37543038D01*
X45963038Y-37728987D01*
X45816939Y-37947641D01*
X45716304Y-38190595D01*
X45665000Y-38448514D01*
X45665000Y-38711486D01*
X45716304Y-38969405D01*
X45816939Y-39212359D01*
X45963038Y-39431013D01*
X46148987Y-39616962D01*
X46367641Y-39763061D01*
X46610595Y-39863696D01*
X46868514Y-39915000D01*
X47131486Y-39915000D01*
X47389405Y-39863696D01*
X47632359Y-39763061D01*
X47851013Y-39616962D01*
X47852975Y-39615000D01*
X51091079Y-39615000D01*
X51102007Y-39620841D01*
X51297105Y-39680024D01*
X51449162Y-39695000D01*
X51449171Y-39695000D01*
X51499999Y-39700006D01*
X51550827Y-39695000D01*
X52147025Y-39695000D01*
X52148987Y-39696962D01*
X52206507Y-39735395D01*
X52135266Y-39822203D01*
X52039159Y-40002007D01*
X51989715Y-40165000D01*
X49450835Y-40165000D01*
X49400000Y-40159993D01*
X49349165Y-40165000D01*
X49349162Y-40165000D01*
X49197105Y-40179976D01*
X49002007Y-40239159D01*
X48918684Y-40283696D01*
X48822202Y-40335266D01*
X48704092Y-40432197D01*
X48664604Y-40464604D01*
X48632197Y-40504092D01*
X48312618Y-40823672D01*
X48251185Y-40748815D01*
X48154494Y-40669463D01*
X48044180Y-40610498D01*
X47924482Y-40574188D01*
X47800000Y-40561928D01*
X46200000Y-40561928D01*
X46075518Y-40574188D01*
X45955820Y-40610498D01*
X45845506Y-40669463D01*
X45748815Y-40748815D01*
X45669463Y-40845506D01*
X45610498Y-40955820D01*
X45574188Y-41075518D01*
X45561928Y-41200000D01*
X45561928Y-42800000D01*
X45574188Y-42924482D01*
X45610498Y-43044180D01*
X45669463Y-43154494D01*
X45748815Y-43251185D01*
X45845506Y-43330537D01*
X45955820Y-43389502D01*
X46075518Y-43425812D01*
X46200000Y-43438072D01*
X47800000Y-43438072D01*
X47924482Y-43425812D01*
X48044180Y-43389502D01*
X48154494Y-43330537D01*
X48251185Y-43251185D01*
X48330537Y-43154494D01*
X48389502Y-43044180D01*
X48392287Y-43035000D01*
X48549172Y-43035000D01*
X48600000Y-43040006D01*
X48650828Y-43035000D01*
X48650838Y-43035000D01*
X48802895Y-43020024D01*
X48997993Y-42960841D01*
X49177797Y-42864734D01*
X49335396Y-42735396D01*
X49367807Y-42695903D01*
X49828711Y-42235000D01*
X51561928Y-42235000D01*
X51561928Y-42800000D01*
X51574188Y-42924482D01*
X51610498Y-43044180D01*
X51669463Y-43154494D01*
X51748815Y-43251185D01*
X51845506Y-43330537D01*
X51955820Y-43389502D01*
X52075518Y-43425812D01*
X52200000Y-43438072D01*
X53800000Y-43438072D01*
X53924482Y-43425812D01*
X54044180Y-43389502D01*
X54154494Y-43330537D01*
X54251185Y-43251185D01*
X54330537Y-43154494D01*
X54389502Y-43044180D01*
X54425812Y-42924482D01*
X54438072Y-42800000D01*
X54438072Y-41200000D01*
X54425812Y-41075518D01*
X54389502Y-40955820D01*
X54330537Y-40845506D01*
X54251185Y-40748815D01*
X54231253Y-40732457D01*
X55428711Y-39535000D01*
X73005604Y-39535000D01*
X73085241Y-39614637D01*
X73320273Y-39771680D01*
X73581426Y-39879853D01*
X73858665Y-39935000D01*
X74141335Y-39935000D01*
X74418574Y-39879853D01*
X74679727Y-39771680D01*
X74914759Y-39614637D01*
X75114637Y-39414759D01*
X75271680Y-39179727D01*
X75379853Y-38918574D01*
X75435000Y-38641335D01*
X75435000Y-38358665D01*
X75379853Y-38081426D01*
X75271680Y-37820273D01*
X75114637Y-37585241D01*
X75035000Y-37505604D01*
X75035000Y-36259610D01*
X76911928Y-34382683D01*
X76911928Y-34800000D01*
X76924188Y-34924482D01*
X76960498Y-35044180D01*
X77019463Y-35154494D01*
X77098815Y-35251185D01*
X77195506Y-35330537D01*
X77305820Y-35389502D01*
X77425518Y-35425812D01*
X77433961Y-35426643D01*
X77235363Y-35625241D01*
X77078320Y-35860273D01*
X76970147Y-36121426D01*
X76915000Y-36398665D01*
X76915000Y-36681335D01*
X76970147Y-36958574D01*
X77078320Y-37219727D01*
X77235363Y-37454759D01*
X77435241Y-37654637D01*
X77667759Y-37810000D01*
X77435241Y-37965363D01*
X77235363Y-38165241D01*
X77078320Y-38400273D01*
X76970147Y-38661426D01*
X76915000Y-38938665D01*
X76915000Y-39221335D01*
X76970147Y-39498574D01*
X77078320Y-39759727D01*
X77235363Y-39994759D01*
X77435241Y-40194637D01*
X77667759Y-40350000D01*
X77435241Y-40505363D01*
X77235363Y-40705241D01*
X77078320Y-40940273D01*
X76970147Y-41201426D01*
X76915000Y-41478665D01*
X76915000Y-41761335D01*
X76970147Y-42038574D01*
X77078320Y-42299727D01*
X77235363Y-42534759D01*
X77435241Y-42734637D01*
X77667759Y-42890000D01*
X77435241Y-43045363D01*
X77235363Y-43245241D01*
X77078320Y-43480273D01*
X76970147Y-43741426D01*
X76915000Y-44018665D01*
X76915000Y-44301335D01*
X76970147Y-44578574D01*
X77078320Y-44839727D01*
X77235363Y-45074759D01*
X77435241Y-45274637D01*
X77667759Y-45430000D01*
X77435241Y-45585363D01*
X77235363Y-45785241D01*
X77078320Y-46020273D01*
X76970147Y-46281426D01*
X76915000Y-46558665D01*
X76915000Y-46841335D01*
X76970147Y-47118574D01*
X77078320Y-47379727D01*
X77235363Y-47614759D01*
X77435241Y-47814637D01*
X77667759Y-47970000D01*
X77435241Y-48125363D01*
X77235363Y-48325241D01*
X77078320Y-48560273D01*
X76970147Y-48821426D01*
X76915000Y-49098665D01*
X76915000Y-49381335D01*
X76970147Y-49658574D01*
X77078320Y-49919727D01*
X77235363Y-50154759D01*
X77435241Y-50354637D01*
X77667759Y-50510000D01*
X77435241Y-50665363D01*
X77355604Y-50745000D01*
X76800827Y-50745000D01*
X76749999Y-50739994D01*
X76699171Y-50745000D01*
X76699162Y-50745000D01*
X76547105Y-50759976D01*
X76352007Y-50819159D01*
X76290553Y-50852007D01*
X76172202Y-50915266D01*
X76090647Y-50982197D01*
X76014604Y-51044604D01*
X75982197Y-51084092D01*
X75196490Y-51869800D01*
X75009555Y-51869800D01*
X75055000Y-51641335D01*
X75055000Y-51358665D01*
X74999853Y-51081426D01*
X74891680Y-50820273D01*
X74734637Y-50585241D01*
X74534759Y-50385363D01*
X74299727Y-50228320D01*
X74038574Y-50120147D01*
X73761335Y-50065000D01*
X73648711Y-50065000D01*
X71378107Y-47794397D01*
X71345696Y-47754904D01*
X71188097Y-47625566D01*
X71008293Y-47529459D01*
X70813195Y-47470276D01*
X70661138Y-47455300D01*
X70661128Y-47455300D01*
X70610300Y-47450294D01*
X70559472Y-47455300D01*
X70176401Y-47455300D01*
X70203696Y-47389405D01*
X70255000Y-47131486D01*
X70255000Y-46868514D01*
X72665000Y-46868514D01*
X72665000Y-47131486D01*
X72716304Y-47389405D01*
X72816939Y-47632359D01*
X72963038Y-47851013D01*
X73148987Y-48036962D01*
X73367641Y-48183061D01*
X73610595Y-48283696D01*
X73868514Y-48335000D01*
X74131486Y-48335000D01*
X74389405Y-48283696D01*
X74632359Y-48183061D01*
X74851013Y-48036962D01*
X75036962Y-47851013D01*
X75183061Y-47632359D01*
X75283696Y-47389405D01*
X75335000Y-47131486D01*
X75335000Y-46868514D01*
X75283696Y-46610595D01*
X75183061Y-46367641D01*
X75036962Y-46148987D01*
X74851013Y-45963038D01*
X74632359Y-45816939D01*
X74389405Y-45716304D01*
X74131486Y-45665000D01*
X73868514Y-45665000D01*
X73610595Y-45716304D01*
X73367641Y-45816939D01*
X73148987Y-45963038D01*
X72963038Y-46148987D01*
X72816939Y-46367641D01*
X72716304Y-46610595D01*
X72665000Y-46868514D01*
X70255000Y-46868514D01*
X70203696Y-46610595D01*
X70103061Y-46367641D01*
X69956962Y-46148987D01*
X69771013Y-45963038D01*
X69552359Y-45816939D01*
X69309405Y-45716304D01*
X69051486Y-45665000D01*
X68788514Y-45665000D01*
X68530595Y-45716304D01*
X68287641Y-45816939D01*
X68068987Y-45963038D01*
X67883038Y-46148987D01*
X67736939Y-46367641D01*
X67636304Y-46610595D01*
X67585000Y-46868514D01*
X67585000Y-47131486D01*
X67636304Y-47389405D01*
X67663599Y-47455300D01*
X54451662Y-47455300D01*
X54449696Y-47452904D01*
X54292097Y-47323566D01*
X54112293Y-47227459D01*
X53917195Y-47168276D01*
X53765138Y-47153300D01*
X53765128Y-47153300D01*
X53714300Y-47148294D01*
X53663472Y-47153300D01*
X50082535Y-47153300D01*
X50031700Y-47148293D01*
X49980865Y-47153300D01*
X49980862Y-47153300D01*
X49828805Y-47168276D01*
X49679115Y-47213685D01*
X49633706Y-47227459D01*
X49453902Y-47323566D01*
X49365755Y-47395907D01*
X49296304Y-47452904D01*
X49263897Y-47492392D01*
X48171290Y-48585000D01*
X47994396Y-48585000D01*
X47914759Y-48505363D01*
X47679727Y-48348320D01*
X47418574Y-48240147D01*
X47141335Y-48185000D01*
X46858665Y-48185000D01*
X46581426Y-48240147D01*
X46320273Y-48348320D01*
X46085241Y-48505363D01*
X45885363Y-48705241D01*
X45728320Y-48940273D01*
X45620147Y-49201426D01*
X45565000Y-49478665D01*
X45565000Y-49761335D01*
X45620147Y-50038574D01*
X45728320Y-50299727D01*
X45885363Y-50534759D01*
X46085241Y-50734637D01*
X46320273Y-50891680D01*
X46581426Y-50999853D01*
X46858665Y-51055000D01*
X47141335Y-51055000D01*
X47418574Y-50999853D01*
X47679727Y-50891680D01*
X47914759Y-50734637D01*
X47994396Y-50655000D01*
X48549172Y-50655000D01*
X48600000Y-50660006D01*
X48650828Y-50655000D01*
X48650838Y-50655000D01*
X48802895Y-50640024D01*
X48997993Y-50580841D01*
X49177797Y-50484734D01*
X49335396Y-50355396D01*
X49367807Y-50315903D01*
X50460411Y-49223300D01*
X51615796Y-49223300D01*
X51565000Y-49478665D01*
X51565000Y-49761335D01*
X51620147Y-50038574D01*
X51728320Y-50299727D01*
X51885363Y-50534759D01*
X52085241Y-50734637D01*
X52320273Y-50891680D01*
X52581426Y-50999853D01*
X52858665Y-51055000D01*
X53141335Y-51055000D01*
X53418574Y-50999853D01*
X53679727Y-50891680D01*
X53914759Y-50734637D01*
X53994396Y-50655000D01*
X54171290Y-50655000D01*
X55902501Y-52386212D01*
X55902501Y-52616950D01*
X55641335Y-52565000D01*
X55358665Y-52565000D01*
X55081426Y-52620147D01*
X54820273Y-52728320D01*
X54585241Y-52885363D01*
X54505604Y-52965000D01*
X48994396Y-52965000D01*
X48914759Y-52885363D01*
X48679727Y-52728320D01*
X48418574Y-52620147D01*
X48141335Y-52565000D01*
X47858665Y-52565000D01*
X47581426Y-52620147D01*
X47320273Y-52728320D01*
X47085241Y-52885363D01*
X46885363Y-53085241D01*
X46728320Y-53320273D01*
X46620147Y-53581426D01*
X46565000Y-53858665D01*
X46565000Y-53965000D01*
X45582038Y-53965000D01*
X45531200Y-53959993D01*
X45480362Y-53965000D01*
X40652795Y-53965000D01*
X40613560Y-53870279D01*
X40352550Y-53479651D01*
X40020349Y-53147450D01*
X39629721Y-52886440D01*
X39195679Y-52706654D01*
X38734902Y-52615000D01*
X38265098Y-52615000D01*
X37804321Y-52706654D01*
X37370279Y-52886440D01*
X36979651Y-53147450D01*
X36647450Y-53479651D01*
X36386440Y-53870279D01*
X36206654Y-54304321D01*
X36115000Y-54765098D01*
X36115000Y-55234902D01*
X36206654Y-55695679D01*
X36386440Y-56129721D01*
X36647450Y-56520349D01*
X36979651Y-56852550D01*
X37370279Y-57113560D01*
X37804321Y-57293346D01*
X38265098Y-57385000D01*
X38734902Y-57385000D01*
X39195679Y-57293346D01*
X39629721Y-57113560D01*
X40020349Y-56852550D01*
X40352550Y-56520349D01*
X40613560Y-56129721D01*
X40652795Y-56035000D01*
X44496200Y-56035000D01*
X44496201Y-65380362D01*
X44491194Y-65431200D01*
X44511177Y-65634095D01*
X44570360Y-65829193D01*
X44666466Y-66008997D01*
X44721893Y-66076534D01*
X44795805Y-66166596D01*
X44835292Y-66199002D01*
X45965001Y-67328711D01*
X45965001Y-67505603D01*
X45885363Y-67585241D01*
X45728320Y-67820273D01*
X45620147Y-68081426D01*
X45565000Y-68358665D01*
X45565000Y-68641335D01*
X45620147Y-68918574D01*
X45728320Y-69179727D01*
X45885363Y-69414759D01*
X46085241Y-69614637D01*
X46320273Y-69771680D01*
X46581426Y-69879853D01*
X46858665Y-69935000D01*
X47141335Y-69935000D01*
X47418574Y-69879853D01*
X47679727Y-69771680D01*
X47914759Y-69614637D01*
X47994396Y-69535000D01*
X48236244Y-69535000D01*
X48322007Y-69580841D01*
X48517105Y-69640024D01*
X48669162Y-69655000D01*
X48669165Y-69655000D01*
X48720000Y-69660007D01*
X48770835Y-69655000D01*
X52005604Y-69655000D01*
X52085241Y-69734637D01*
X52320273Y-69891680D01*
X52581426Y-69999853D01*
X52858665Y-70055000D01*
X53141335Y-70055000D01*
X53365400Y-70010430D01*
X53365400Y-70170889D01*
X52871290Y-70665000D01*
X52868514Y-70665000D01*
X52610595Y-70716304D01*
X52367641Y-70816939D01*
X52148987Y-70963038D01*
X52147025Y-70965000D01*
X47852975Y-70965000D01*
X47851013Y-70963038D01*
X47632359Y-70816939D01*
X47389405Y-70716304D01*
X47131486Y-70665000D01*
X46868514Y-70665000D01*
X46610595Y-70716304D01*
X46367641Y-70816939D01*
X46148987Y-70963038D01*
X45963038Y-71148987D01*
X45816939Y-71367641D01*
X45716304Y-71610595D01*
X45665000Y-71868514D01*
X45665000Y-72131486D01*
X45716304Y-72389405D01*
X45816939Y-72632359D01*
X45963038Y-72851013D01*
X46148987Y-73036962D01*
X46367641Y-73183061D01*
X46610595Y-73283696D01*
X46868514Y-73335000D01*
X47131486Y-73335000D01*
X47389405Y-73283696D01*
X47632359Y-73183061D01*
X47851013Y-73036962D01*
X47852975Y-73035000D01*
X52147025Y-73035000D01*
X52148987Y-73036962D01*
X52367641Y-73183061D01*
X52610595Y-73283696D01*
X52868514Y-73335000D01*
X53131486Y-73335000D01*
X53389405Y-73283696D01*
X53632359Y-73183061D01*
X53851013Y-73036962D01*
X54036962Y-72851013D01*
X54183061Y-72632359D01*
X54283696Y-72389405D01*
X54335000Y-72131486D01*
X54335000Y-72128710D01*
X55096308Y-71367403D01*
X55135796Y-71334996D01*
X55223343Y-71228320D01*
X55265134Y-71177398D01*
X55332781Y-71050838D01*
X55361241Y-70997593D01*
X55420424Y-70802495D01*
X55435400Y-70650438D01*
X55435400Y-70650435D01*
X55440407Y-70599600D01*
X55435400Y-70548765D01*
X55435400Y-68063427D01*
X55440406Y-68012599D01*
X55435400Y-67961771D01*
X55435400Y-67961762D01*
X55420424Y-67809705D01*
X55361241Y-67614607D01*
X55289280Y-67479977D01*
X55265134Y-67434802D01*
X55168203Y-67316692D01*
X55135796Y-67277204D01*
X55096308Y-67244797D01*
X52634600Y-64783090D01*
X52634600Y-63868514D01*
X67585000Y-63868514D01*
X67585000Y-64131486D01*
X67636304Y-64389405D01*
X67736939Y-64632359D01*
X67883038Y-64851013D01*
X68068987Y-65036962D01*
X68287641Y-65183061D01*
X68530595Y-65283696D01*
X68788514Y-65335000D01*
X69051486Y-65335000D01*
X69309405Y-65283696D01*
X69552359Y-65183061D01*
X69771013Y-65036962D01*
X69956962Y-64851013D01*
X70103061Y-64632359D01*
X70203696Y-64389405D01*
X70255000Y-64131486D01*
X70255000Y-63868514D01*
X72665000Y-63868514D01*
X72665000Y-64131486D01*
X72716304Y-64389405D01*
X72816939Y-64632359D01*
X72963038Y-64851013D01*
X73148987Y-65036962D01*
X73367641Y-65183061D01*
X73610595Y-65283696D01*
X73868514Y-65335000D01*
X74131486Y-65335000D01*
X74389405Y-65283696D01*
X74632359Y-65183061D01*
X74851013Y-65036962D01*
X75036962Y-64851013D01*
X75183061Y-64632359D01*
X75283696Y-64389405D01*
X75335000Y-64131486D01*
X75335000Y-63868514D01*
X75283696Y-63610595D01*
X75183061Y-63367641D01*
X75036962Y-63148987D01*
X74851013Y-62963038D01*
X74632359Y-62816939D01*
X74389405Y-62716304D01*
X74131486Y-62665000D01*
X73868514Y-62665000D01*
X73610595Y-62716304D01*
X73367641Y-62816939D01*
X73148987Y-62963038D01*
X72963038Y-63148987D01*
X72816939Y-63367641D01*
X72716304Y-63610595D01*
X72665000Y-63868514D01*
X70255000Y-63868514D01*
X70203696Y-63610595D01*
X70103061Y-63367641D01*
X69956962Y-63148987D01*
X69771013Y-62963038D01*
X69552359Y-62816939D01*
X69309405Y-62716304D01*
X69051486Y-62665000D01*
X68788514Y-62665000D01*
X68530595Y-62716304D01*
X68287641Y-62816939D01*
X68068987Y-62963038D01*
X67883038Y-63148987D01*
X67736939Y-63367641D01*
X67636304Y-63610595D01*
X67585000Y-63868514D01*
X52634600Y-63868514D01*
X52634600Y-62438072D01*
X53800000Y-62438072D01*
X53924482Y-62425812D01*
X54044180Y-62389502D01*
X54154494Y-62330537D01*
X54251185Y-62251185D01*
X54330537Y-62154494D01*
X54389502Y-62044180D01*
X54392287Y-62035000D01*
X54549162Y-62035000D01*
X54600000Y-62040007D01*
X54650838Y-62035000D01*
X54802895Y-62020024D01*
X54997993Y-61960841D01*
X55177797Y-61864734D01*
X55335396Y-61735396D01*
X55464734Y-61577797D01*
X55560841Y-61397993D01*
X55620024Y-61202895D01*
X55640007Y-61000000D01*
X55635000Y-60949162D01*
X55635000Y-60679610D01*
X57366211Y-58948400D01*
X61035772Y-58948400D01*
X61086600Y-58953406D01*
X61137428Y-58948400D01*
X61137438Y-58948400D01*
X61289495Y-58933424D01*
X61484593Y-58874241D01*
X61664397Y-58778134D01*
X61707695Y-58742600D01*
X64561928Y-58742600D01*
X64561928Y-59920000D01*
X64574188Y-60044482D01*
X64610498Y-60164180D01*
X64669463Y-60274494D01*
X64748815Y-60371185D01*
X64845506Y-60450537D01*
X64955820Y-60509502D01*
X65075518Y-60545812D01*
X65200000Y-60558072D01*
X65974362Y-60558072D01*
X66705197Y-61288908D01*
X66737604Y-61328396D01*
X66777092Y-61360803D01*
X66895202Y-61457734D01*
X67075006Y-61553841D01*
X67120415Y-61567615D01*
X67270105Y-61613024D01*
X67422162Y-61628000D01*
X67422165Y-61628000D01*
X67473000Y-61633007D01*
X67523835Y-61628000D01*
X74500472Y-61628000D01*
X74551300Y-61633006D01*
X74602128Y-61628000D01*
X74602138Y-61628000D01*
X74754195Y-61613024D01*
X74949293Y-61553841D01*
X75129097Y-61457734D01*
X75286696Y-61328396D01*
X75319107Y-61288903D01*
X77361928Y-59246083D01*
X77361928Y-59600000D01*
X77374188Y-59724482D01*
X77410498Y-59844180D01*
X77469463Y-59954494D01*
X77548815Y-60051185D01*
X77645506Y-60130537D01*
X77755820Y-60189502D01*
X77875518Y-60225812D01*
X77883961Y-60226643D01*
X77685363Y-60425241D01*
X77528320Y-60660273D01*
X77420147Y-60921426D01*
X77365000Y-61198665D01*
X77365000Y-61481335D01*
X77420147Y-61758574D01*
X77528320Y-62019727D01*
X77685363Y-62254759D01*
X77885241Y-62454637D01*
X78117759Y-62610000D01*
X77885241Y-62765363D01*
X77685363Y-62965241D01*
X77528320Y-63200273D01*
X77420147Y-63461426D01*
X77365000Y-63738665D01*
X77365000Y-64021335D01*
X77420147Y-64298574D01*
X77528320Y-64559727D01*
X77685363Y-64794759D01*
X77885241Y-64994637D01*
X78117759Y-65150000D01*
X77885241Y-65305363D01*
X77685363Y-65505241D01*
X77528320Y-65740273D01*
X77420147Y-66001426D01*
X77365000Y-66278665D01*
X77365000Y-66561335D01*
X77420147Y-66838574D01*
X77528320Y-67099727D01*
X77685363Y-67334759D01*
X77885241Y-67534637D01*
X78117759Y-67690000D01*
X77885241Y-67845363D01*
X77685363Y-68045241D01*
X77528320Y-68280273D01*
X77420147Y-68541426D01*
X77365000Y-68818665D01*
X77365000Y-69101335D01*
X77420147Y-69378574D01*
X77528320Y-69639727D01*
X77685363Y-69874759D01*
X77885241Y-70074637D01*
X78117759Y-70230000D01*
X77885241Y-70385363D01*
X77685363Y-70585241D01*
X77528320Y-70820273D01*
X77420147Y-71081426D01*
X77365000Y-71358665D01*
X77365000Y-71641335D01*
X77420147Y-71918574D01*
X77528320Y-72179727D01*
X77685363Y-72414759D01*
X77885241Y-72614637D01*
X78117759Y-72770000D01*
X77885241Y-72925363D01*
X77685363Y-73125241D01*
X77528320Y-73360273D01*
X77420147Y-73621426D01*
X77365000Y-73898665D01*
X77365000Y-74181335D01*
X77420147Y-74458574D01*
X77528320Y-74719727D01*
X77685363Y-74954759D01*
X77885241Y-75154637D01*
X78117759Y-75310000D01*
X77885241Y-75465363D01*
X77685363Y-75665241D01*
X77528320Y-75900273D01*
X77420147Y-76161426D01*
X77365000Y-76438665D01*
X77365000Y-76721335D01*
X77420147Y-76998574D01*
X77528320Y-77259727D01*
X77685363Y-77494759D01*
X77885241Y-77694637D01*
X78120273Y-77851680D01*
X78381426Y-77959853D01*
X78658665Y-78015000D01*
X78941335Y-78015000D01*
X79218574Y-77959853D01*
X79479727Y-77851680D01*
X79714759Y-77694637D01*
X79914637Y-77494759D01*
X80071680Y-77259727D01*
X80179853Y-76998574D01*
X80235000Y-76721335D01*
X80235000Y-76438665D01*
X80179853Y-76161426D01*
X80071680Y-75900273D01*
X79914637Y-75665241D01*
X79714759Y-75465363D01*
X79482241Y-75310000D01*
X79714759Y-75154637D01*
X79914637Y-74954759D01*
X80071680Y-74719727D01*
X80179853Y-74458574D01*
X80235000Y-74181335D01*
X80235000Y-73898665D01*
X80179853Y-73621426D01*
X80071680Y-73360273D01*
X79914637Y-73125241D01*
X79714759Y-72925363D01*
X79482241Y-72770000D01*
X79714759Y-72614637D01*
X79914637Y-72414759D01*
X80071680Y-72179727D01*
X80179853Y-71918574D01*
X80235000Y-71641335D01*
X80235000Y-71358665D01*
X80179853Y-71081426D01*
X80071680Y-70820273D01*
X79914637Y-70585241D01*
X79714759Y-70385363D01*
X79482241Y-70230000D01*
X79714759Y-70074637D01*
X79914637Y-69874759D01*
X80071680Y-69639727D01*
X80179853Y-69378574D01*
X80235000Y-69101335D01*
X80235000Y-68818665D01*
X80179853Y-68541426D01*
X80071680Y-68280273D01*
X79914637Y-68045241D01*
X79714759Y-67845363D01*
X79482241Y-67690000D01*
X79714759Y-67534637D01*
X79914637Y-67334759D01*
X80071680Y-67099727D01*
X80179853Y-66838574D01*
X80235000Y-66561335D01*
X80235000Y-66278665D01*
X80179853Y-66001426D01*
X80071680Y-65740273D01*
X79914637Y-65505241D01*
X79714759Y-65305363D01*
X79482241Y-65150000D01*
X79714759Y-64994637D01*
X79914637Y-64794759D01*
X80071680Y-64559727D01*
X80179853Y-64298574D01*
X80235000Y-64021335D01*
X80235000Y-63738665D01*
X80179853Y-63461426D01*
X80071680Y-63200273D01*
X79914637Y-62965241D01*
X79714759Y-62765363D01*
X79482241Y-62610000D01*
X79714759Y-62454637D01*
X79914637Y-62254759D01*
X80071680Y-62019727D01*
X80179853Y-61758574D01*
X80235000Y-61481335D01*
X80235000Y-61198665D01*
X80179853Y-60921426D01*
X80071680Y-60660273D01*
X79914637Y-60425241D01*
X79716039Y-60226643D01*
X79724482Y-60225812D01*
X79844180Y-60189502D01*
X79954494Y-60130537D01*
X80051185Y-60051185D01*
X80130537Y-59954494D01*
X80189502Y-59844180D01*
X80225812Y-59724482D01*
X80238072Y-59600000D01*
X80238072Y-58418200D01*
X85032832Y-58418200D01*
X84985000Y-58658665D01*
X84985000Y-58941335D01*
X85040147Y-59218574D01*
X85148320Y-59479727D01*
X85305363Y-59714759D01*
X85505241Y-59914637D01*
X85737759Y-60070000D01*
X85505241Y-60225363D01*
X85305363Y-60425241D01*
X85148320Y-60660273D01*
X85040147Y-60921426D01*
X84985000Y-61198665D01*
X84985000Y-61481335D01*
X85040147Y-61758574D01*
X85148320Y-62019727D01*
X85305363Y-62254759D01*
X85505241Y-62454637D01*
X85737759Y-62610000D01*
X85505241Y-62765363D01*
X85305363Y-62965241D01*
X85148320Y-63200273D01*
X85040147Y-63461426D01*
X84985000Y-63738665D01*
X84985000Y-64021335D01*
X85040147Y-64298574D01*
X85148320Y-64559727D01*
X85305363Y-64794759D01*
X85505241Y-64994637D01*
X85737759Y-65150000D01*
X85505241Y-65305363D01*
X85305363Y-65505241D01*
X85148320Y-65740273D01*
X85040147Y-66001426D01*
X84985000Y-66278665D01*
X84985000Y-66561335D01*
X85040147Y-66838574D01*
X85148320Y-67099727D01*
X85305363Y-67334759D01*
X85505241Y-67534637D01*
X85737759Y-67690000D01*
X85505241Y-67845363D01*
X85305363Y-68045241D01*
X85148320Y-68280273D01*
X85040147Y-68541426D01*
X84985000Y-68818665D01*
X84985000Y-69101335D01*
X85040147Y-69378574D01*
X85148320Y-69639727D01*
X85305363Y-69874759D01*
X85505241Y-70074637D01*
X85737759Y-70230000D01*
X85505241Y-70385363D01*
X85305363Y-70585241D01*
X85148320Y-70820273D01*
X85040147Y-71081426D01*
X84985000Y-71358665D01*
X84985000Y-71641335D01*
X85040147Y-71918574D01*
X85148320Y-72179727D01*
X85305363Y-72414759D01*
X85505241Y-72614637D01*
X85737759Y-72770000D01*
X85505241Y-72925363D01*
X85305363Y-73125241D01*
X85148320Y-73360273D01*
X85040147Y-73621426D01*
X84985000Y-73898665D01*
X84985000Y-74181335D01*
X85040147Y-74458574D01*
X85148320Y-74719727D01*
X85305363Y-74954759D01*
X85505241Y-75154637D01*
X85737759Y-75310000D01*
X85505241Y-75465363D01*
X85305363Y-75665241D01*
X85148320Y-75900273D01*
X85040147Y-76161426D01*
X84985000Y-76438665D01*
X84985000Y-76721335D01*
X85040147Y-76998574D01*
X85148320Y-77259727D01*
X85305363Y-77494759D01*
X85505241Y-77694637D01*
X85740273Y-77851680D01*
X86001426Y-77959853D01*
X86278665Y-78015000D01*
X86561335Y-78015000D01*
X86838574Y-77959853D01*
X87099727Y-77851680D01*
X87334759Y-77694637D01*
X87414396Y-77615000D01*
X87619172Y-77615000D01*
X87670000Y-77620006D01*
X87720828Y-77615000D01*
X87720838Y-77615000D01*
X87872895Y-77600024D01*
X88067993Y-77540841D01*
X88078921Y-77535000D01*
X88397025Y-77535000D01*
X88398987Y-77536962D01*
X88617641Y-77683061D01*
X88860595Y-77783696D01*
X89118514Y-77835000D01*
X89381486Y-77835000D01*
X89639405Y-77783696D01*
X89882359Y-77683061D01*
X90101013Y-77536962D01*
X90286962Y-77351013D01*
X90433061Y-77132359D01*
X90533696Y-76889405D01*
X90585000Y-76631486D01*
X90585000Y-76368514D01*
X90533696Y-76110595D01*
X90433061Y-75867641D01*
X90286962Y-75648987D01*
X90101013Y-75463038D01*
X89882359Y-75316939D01*
X89720754Y-75250000D01*
X89882359Y-75183061D01*
X90101013Y-75036962D01*
X90286962Y-74851013D01*
X90433061Y-74632359D01*
X90533696Y-74389405D01*
X90585000Y-74131486D01*
X90585000Y-73868514D01*
X90533696Y-73610595D01*
X90433061Y-73367641D01*
X90286962Y-73148987D01*
X90101013Y-72963038D01*
X89882359Y-72816939D01*
X89720754Y-72750000D01*
X89882359Y-72683061D01*
X90101013Y-72536962D01*
X90286962Y-72351013D01*
X90433061Y-72132359D01*
X90533696Y-71889405D01*
X90585000Y-71631486D01*
X90585000Y-71368514D01*
X90533696Y-71110595D01*
X90433061Y-70867641D01*
X90286962Y-70648987D01*
X90101013Y-70463038D01*
X89882359Y-70316939D01*
X89720754Y-70250000D01*
X89882359Y-70183061D01*
X90101013Y-70036962D01*
X90286962Y-69851013D01*
X90433061Y-69632359D01*
X90533696Y-69389405D01*
X90585000Y-69131486D01*
X90585000Y-68868514D01*
X92995000Y-68868514D01*
X92995000Y-69131486D01*
X93046304Y-69389405D01*
X93146939Y-69632359D01*
X93293038Y-69851013D01*
X93478987Y-70036962D01*
X93697641Y-70183061D01*
X93859246Y-70250000D01*
X93697641Y-70316939D01*
X93478987Y-70463038D01*
X93293038Y-70648987D01*
X93146939Y-70867641D01*
X93046304Y-71110595D01*
X92995000Y-71368514D01*
X92995000Y-71631486D01*
X93046304Y-71889405D01*
X93146939Y-72132359D01*
X93293038Y-72351013D01*
X93478987Y-72536962D01*
X93697641Y-72683061D01*
X93859246Y-72750000D01*
X93697641Y-72816939D01*
X93478987Y-72963038D01*
X93293038Y-73148987D01*
X93146939Y-73367641D01*
X93046304Y-73610595D01*
X92995000Y-73868514D01*
X92995000Y-74131486D01*
X93046304Y-74389405D01*
X93146939Y-74632359D01*
X93293038Y-74851013D01*
X93478987Y-75036962D01*
X93697641Y-75183061D01*
X93859246Y-75250000D01*
X93697641Y-75316939D01*
X93478987Y-75463038D01*
X93293038Y-75648987D01*
X93146939Y-75867641D01*
X93046304Y-76110595D01*
X92995000Y-76368514D01*
X92995000Y-76631486D01*
X93046304Y-76889405D01*
X93146939Y-77132359D01*
X93293038Y-77351013D01*
X93478987Y-77536962D01*
X93697641Y-77683061D01*
X93940595Y-77783696D01*
X94198514Y-77835000D01*
X94461486Y-77835000D01*
X94719405Y-77783696D01*
X94962359Y-77683061D01*
X95181013Y-77536962D01*
X95366962Y-77351013D01*
X95513061Y-77132359D01*
X95613696Y-76889405D01*
X95665000Y-76631486D01*
X95665000Y-76368514D01*
X95613696Y-76110595D01*
X95546560Y-75948514D01*
X105415000Y-75948514D01*
X105415000Y-76211486D01*
X105466304Y-76469405D01*
X105566939Y-76712359D01*
X105713038Y-76931013D01*
X105898987Y-77116962D01*
X106117641Y-77263061D01*
X106360595Y-77363696D01*
X106618514Y-77415000D01*
X106881486Y-77415000D01*
X107139405Y-77363696D01*
X107382359Y-77263061D01*
X107601013Y-77116962D01*
X107786962Y-76931013D01*
X107933061Y-76712359D01*
X108033696Y-76469405D01*
X108085000Y-76211486D01*
X108085000Y-75948514D01*
X108033696Y-75690595D01*
X107933061Y-75447641D01*
X107786962Y-75228987D01*
X107601013Y-75043038D01*
X107382359Y-74896939D01*
X107139405Y-74796304D01*
X106881486Y-74745000D01*
X106618514Y-74745000D01*
X106360595Y-74796304D01*
X106117641Y-74896939D01*
X105898987Y-75043038D01*
X105713038Y-75228987D01*
X105566939Y-75447641D01*
X105466304Y-75690595D01*
X105415000Y-75948514D01*
X95546560Y-75948514D01*
X95513061Y-75867641D01*
X95366962Y-75648987D01*
X95181013Y-75463038D01*
X94962359Y-75316939D01*
X94800754Y-75250000D01*
X94962359Y-75183061D01*
X95181013Y-75036962D01*
X95366962Y-74851013D01*
X95513061Y-74632359D01*
X95613696Y-74389405D01*
X95665000Y-74131486D01*
X95665000Y-73868514D01*
X95613696Y-73610595D01*
X95513061Y-73367641D01*
X95366962Y-73148987D01*
X95181013Y-72963038D01*
X94962359Y-72816939D01*
X94800754Y-72750000D01*
X94962359Y-72683061D01*
X95181013Y-72536962D01*
X95359310Y-72358665D01*
X113315000Y-72358665D01*
X113315000Y-72641335D01*
X113370147Y-72918574D01*
X113478320Y-73179727D01*
X113635363Y-73414759D01*
X113835241Y-73614637D01*
X114037827Y-73750000D01*
X113835241Y-73885363D01*
X113635363Y-74085241D01*
X113478320Y-74320273D01*
X113370147Y-74581426D01*
X113315000Y-74858665D01*
X113315000Y-75141335D01*
X113370147Y-75418574D01*
X113478320Y-75679727D01*
X113635363Y-75914759D01*
X113835241Y-76114637D01*
X114070273Y-76271680D01*
X114331426Y-76379853D01*
X114608665Y-76435000D01*
X114891335Y-76435000D01*
X115168574Y-76379853D01*
X115429727Y-76271680D01*
X115664759Y-76114637D01*
X115864637Y-75914759D01*
X116021680Y-75679727D01*
X116129853Y-75418574D01*
X116185000Y-75141335D01*
X116185000Y-74858665D01*
X116129853Y-74581426D01*
X116021680Y-74320273D01*
X115864637Y-74085241D01*
X115664759Y-73885363D01*
X115462173Y-73750000D01*
X115664759Y-73614637D01*
X115864637Y-73414759D01*
X116021680Y-73179727D01*
X116129853Y-72918574D01*
X116185000Y-72641335D01*
X116185000Y-72358665D01*
X116129853Y-72081426D01*
X116021680Y-71820273D01*
X115864637Y-71585241D01*
X115664759Y-71385363D01*
X115429727Y-71228320D01*
X115168574Y-71120147D01*
X114891335Y-71065000D01*
X114608665Y-71065000D01*
X114331426Y-71120147D01*
X114070273Y-71228320D01*
X113835241Y-71385363D01*
X113635363Y-71585241D01*
X113478320Y-71820273D01*
X113370147Y-72081426D01*
X113315000Y-72358665D01*
X95359310Y-72358665D01*
X95366962Y-72351013D01*
X95513061Y-72132359D01*
X95613696Y-71889405D01*
X95665000Y-71631486D01*
X95665000Y-71368514D01*
X95613696Y-71110595D01*
X95513061Y-70867641D01*
X95366962Y-70648987D01*
X95181013Y-70463038D01*
X94962359Y-70316939D01*
X94800754Y-70250000D01*
X94962359Y-70183061D01*
X95181013Y-70036962D01*
X95366962Y-69851013D01*
X95513061Y-69632359D01*
X95613696Y-69389405D01*
X95619810Y-69358665D01*
X98315000Y-69358665D01*
X98315000Y-69641335D01*
X98370147Y-69918574D01*
X98478320Y-70179727D01*
X98635363Y-70414759D01*
X98835241Y-70614637D01*
X99070273Y-70771680D01*
X99331426Y-70879853D01*
X99608665Y-70935000D01*
X99891335Y-70935000D01*
X100168574Y-70879853D01*
X100429727Y-70771680D01*
X100664759Y-70614637D01*
X100864637Y-70414759D01*
X101000000Y-70212173D01*
X101135363Y-70414759D01*
X101335241Y-70614637D01*
X101570273Y-70771680D01*
X101831426Y-70879853D01*
X102108665Y-70935000D01*
X102391335Y-70935000D01*
X102668574Y-70879853D01*
X102695948Y-70868514D01*
X105415000Y-70868514D01*
X105415000Y-71131486D01*
X105466304Y-71389405D01*
X105566939Y-71632359D01*
X105713038Y-71851013D01*
X105898987Y-72036962D01*
X106117641Y-72183061D01*
X106360595Y-72283696D01*
X106618514Y-72335000D01*
X106881486Y-72335000D01*
X107139405Y-72283696D01*
X107382359Y-72183061D01*
X107601013Y-72036962D01*
X107786962Y-71851013D01*
X107933061Y-71632359D01*
X108033696Y-71389405D01*
X108085000Y-71131486D01*
X108085000Y-70868514D01*
X108033696Y-70610595D01*
X107933061Y-70367641D01*
X107786962Y-70148987D01*
X107785000Y-70147025D01*
X107785000Y-69868710D01*
X108423795Y-69229915D01*
X108486939Y-69382359D01*
X108633038Y-69601013D01*
X108818987Y-69786962D01*
X109037641Y-69933061D01*
X109280595Y-70033696D01*
X109538514Y-70085000D01*
X109801486Y-70085000D01*
X110059405Y-70033696D01*
X110302359Y-69933061D01*
X110521013Y-69786962D01*
X110706962Y-69601013D01*
X110853061Y-69382359D01*
X110953696Y-69139405D01*
X111005000Y-68881486D01*
X111005000Y-68618514D01*
X113415000Y-68618514D01*
X113415000Y-68881486D01*
X113466304Y-69139405D01*
X113566939Y-69382359D01*
X113713038Y-69601013D01*
X113898987Y-69786962D01*
X114117641Y-69933061D01*
X114360595Y-70033696D01*
X114618514Y-70085000D01*
X114881486Y-70085000D01*
X115139405Y-70033696D01*
X115382359Y-69933061D01*
X115601013Y-69786962D01*
X115786962Y-69601013D01*
X115933061Y-69382359D01*
X116033696Y-69139405D01*
X116085000Y-68881486D01*
X116085000Y-68618514D01*
X116033696Y-68360595D01*
X115933061Y-68117641D01*
X115786962Y-67898987D01*
X115601013Y-67713038D01*
X115382359Y-67566939D01*
X115139405Y-67466304D01*
X114881486Y-67415000D01*
X114618514Y-67415000D01*
X114360595Y-67466304D01*
X114117641Y-67566939D01*
X113898987Y-67713038D01*
X113713038Y-67898987D01*
X113566939Y-68117641D01*
X113466304Y-68360595D01*
X113415000Y-68618514D01*
X111005000Y-68618514D01*
X110953696Y-68360595D01*
X110853061Y-68117641D01*
X110706962Y-67898987D01*
X110521013Y-67713038D01*
X110302359Y-67566939D01*
X110149915Y-67503795D01*
X118925045Y-58728665D01*
X119565000Y-58728665D01*
X119565000Y-59011335D01*
X119620147Y-59288574D01*
X119728320Y-59549727D01*
X119885363Y-59784759D01*
X120085241Y-59984637D01*
X120320273Y-60141680D01*
X120581426Y-60249853D01*
X120858665Y-60305000D01*
X121141335Y-60305000D01*
X121418574Y-60249853D01*
X121679727Y-60141680D01*
X121914759Y-59984637D01*
X121994396Y-59905000D01*
X122171290Y-59905000D01*
X126712196Y-64445907D01*
X126744604Y-64485396D01*
X126784092Y-64517803D01*
X126902202Y-64614734D01*
X126964071Y-64647803D01*
X127082007Y-64710841D01*
X127277105Y-64770024D01*
X127429162Y-64785000D01*
X127429171Y-64785000D01*
X127479999Y-64790006D01*
X127530827Y-64785000D01*
X128097205Y-64785000D01*
X128136440Y-64879721D01*
X128397450Y-65270349D01*
X128729651Y-65602550D01*
X129120279Y-65863560D01*
X129554321Y-66043346D01*
X130015098Y-66135000D01*
X130484902Y-66135000D01*
X130945679Y-66043346D01*
X131379721Y-65863560D01*
X131770349Y-65602550D01*
X132102550Y-65270349D01*
X132363560Y-64879721D01*
X132543346Y-64445679D01*
X132635000Y-63984902D01*
X132635000Y-63515098D01*
X132543346Y-63054321D01*
X132363560Y-62620279D01*
X132102550Y-62229651D01*
X131770349Y-61897450D01*
X131379721Y-61636440D01*
X130945679Y-61456654D01*
X130484902Y-61365000D01*
X130015098Y-61365000D01*
X129554321Y-61456654D01*
X129120279Y-61636440D01*
X128729651Y-61897450D01*
X128397450Y-62229651D01*
X128136440Y-62620279D01*
X128097205Y-62715000D01*
X127908711Y-62715000D01*
X123367807Y-58174097D01*
X123335396Y-58134604D01*
X123177797Y-58005266D01*
X122997993Y-57909159D01*
X122802895Y-57849976D01*
X122650838Y-57835000D01*
X122650828Y-57835000D01*
X122600000Y-57829994D01*
X122549172Y-57835000D01*
X121994396Y-57835000D01*
X121914759Y-57755363D01*
X121679727Y-57598320D01*
X121418574Y-57490147D01*
X121141335Y-57435000D01*
X120858665Y-57435000D01*
X120581426Y-57490147D01*
X120320273Y-57598320D01*
X120085241Y-57755363D01*
X119885363Y-57955241D01*
X119728320Y-58190273D01*
X119620147Y-58451426D01*
X119565000Y-58728665D01*
X118925045Y-58728665D01*
X120285196Y-57368514D01*
X123665000Y-57368514D01*
X123665000Y-57631486D01*
X123716304Y-57889405D01*
X123816939Y-58132359D01*
X123963038Y-58351013D01*
X124148987Y-58536962D01*
X124367641Y-58683061D01*
X124610595Y-58783696D01*
X124868514Y-58835000D01*
X125131486Y-58835000D01*
X125389405Y-58783696D01*
X125632359Y-58683061D01*
X125851013Y-58536962D01*
X126036962Y-58351013D01*
X126183061Y-58132359D01*
X126283696Y-57889405D01*
X126335000Y-57631486D01*
X126335000Y-57368514D01*
X126283696Y-57110595D01*
X126183061Y-56867641D01*
X126036962Y-56648987D01*
X125851013Y-56463038D01*
X125632359Y-56316939D01*
X125389405Y-56216304D01*
X125131486Y-56165000D01*
X124868514Y-56165000D01*
X124610595Y-56216304D01*
X124367641Y-56316939D01*
X124148987Y-56463038D01*
X123963038Y-56648987D01*
X123816939Y-56867641D01*
X123716304Y-57110595D01*
X123665000Y-57368514D01*
X120285196Y-57368514D01*
X123138612Y-54515098D01*
X127865000Y-54515098D01*
X127865000Y-54984902D01*
X127956654Y-55445679D01*
X128136440Y-55879721D01*
X128397450Y-56270349D01*
X128729651Y-56602550D01*
X129120279Y-56863560D01*
X129554321Y-57043346D01*
X130015098Y-57135000D01*
X130484902Y-57135000D01*
X130945679Y-57043346D01*
X131379721Y-56863560D01*
X131770349Y-56602550D01*
X132102550Y-56270349D01*
X132363560Y-55879721D01*
X132543346Y-55445679D01*
X132635000Y-54984902D01*
X132635000Y-54515098D01*
X132543346Y-54054321D01*
X132363560Y-53620279D01*
X132102550Y-53229651D01*
X131770349Y-52897450D01*
X131379721Y-52636440D01*
X130945679Y-52456654D01*
X130484902Y-52365000D01*
X130015098Y-52365000D01*
X129554321Y-52456654D01*
X129120279Y-52636440D01*
X128729651Y-52897450D01*
X128397450Y-53229651D01*
X128136440Y-53620279D01*
X127956654Y-54054321D01*
X127865000Y-54515098D01*
X123138612Y-54515098D01*
X124177618Y-53476093D01*
X124367641Y-53603061D01*
X124610595Y-53703696D01*
X124868514Y-53755000D01*
X125131486Y-53755000D01*
X125389405Y-53703696D01*
X125632359Y-53603061D01*
X125851013Y-53456962D01*
X126036962Y-53271013D01*
X126183061Y-53052359D01*
X126283696Y-52809405D01*
X126335000Y-52551486D01*
X126335000Y-52288514D01*
X126283696Y-52030595D01*
X126183061Y-51787641D01*
X126036962Y-51568987D01*
X125851013Y-51383038D01*
X125632359Y-51236939D01*
X125389405Y-51136304D01*
X125131486Y-51085000D01*
X124868514Y-51085000D01*
X124610595Y-51136304D01*
X124367641Y-51236939D01*
X124177618Y-51363907D01*
X123367807Y-50554097D01*
X123335396Y-50514604D01*
X123177797Y-50385266D01*
X122997993Y-50289159D01*
X122802895Y-50229976D01*
X122650838Y-50215000D01*
X122650828Y-50215000D01*
X122600000Y-50209994D01*
X122549172Y-50215000D01*
X122392287Y-50215000D01*
X122389502Y-50205820D01*
X122330537Y-50095506D01*
X122251185Y-49998815D01*
X122154494Y-49919463D01*
X122044180Y-49860498D01*
X121924482Y-49824188D01*
X121800000Y-49811928D01*
X120200000Y-49811928D01*
X120075518Y-49824188D01*
X119955820Y-49860498D01*
X119845506Y-49919463D01*
X119748815Y-49998815D01*
X119669463Y-50095506D01*
X119610498Y-50205820D01*
X119574188Y-50325518D01*
X119561928Y-50450000D01*
X119561928Y-52050000D01*
X119574188Y-52174482D01*
X119610498Y-52294180D01*
X119669463Y-52404494D01*
X119748815Y-52501185D01*
X119845506Y-52580537D01*
X119955820Y-52639502D01*
X120075518Y-52675812D01*
X120200000Y-52688072D01*
X121800000Y-52688072D01*
X121924482Y-52675812D01*
X122044180Y-52639502D01*
X122135714Y-52590576D01*
X106054097Y-68672193D01*
X106014604Y-68704604D01*
X105885266Y-68862203D01*
X105789159Y-69042008D01*
X105729976Y-69237106D01*
X105715000Y-69389163D01*
X105715000Y-69389172D01*
X105709994Y-69440000D01*
X105715000Y-69490828D01*
X105715000Y-70147025D01*
X105713038Y-70148987D01*
X105566939Y-70367641D01*
X105466304Y-70610595D01*
X105415000Y-70868514D01*
X102695948Y-70868514D01*
X102929727Y-70771680D01*
X103164759Y-70614637D01*
X103364637Y-70414759D01*
X103521680Y-70179727D01*
X103629853Y-69918574D01*
X103650889Y-69812821D01*
X117028711Y-56435000D01*
X117141335Y-56435000D01*
X117418574Y-56379853D01*
X117679727Y-56271680D01*
X117914759Y-56114637D01*
X118114637Y-55914759D01*
X118271680Y-55679727D01*
X118379853Y-55418574D01*
X118435000Y-55141335D01*
X118435000Y-54858665D01*
X118379853Y-54581426D01*
X118271680Y-54320273D01*
X118114637Y-54085241D01*
X117914759Y-53885363D01*
X117679727Y-53728320D01*
X117418574Y-53620147D01*
X117141335Y-53565000D01*
X116858665Y-53565000D01*
X116581426Y-53620147D01*
X116320273Y-53728320D01*
X116085241Y-53885363D01*
X115918661Y-54051943D01*
X115889502Y-53955820D01*
X115830537Y-53845506D01*
X115751185Y-53748815D01*
X115654494Y-53669463D01*
X115544180Y-53610498D01*
X115424482Y-53574188D01*
X115300000Y-53561928D01*
X113700000Y-53561928D01*
X113575518Y-53574188D01*
X113455820Y-53610498D01*
X113345506Y-53669463D01*
X113248815Y-53748815D01*
X113169463Y-53845506D01*
X113110498Y-53955820D01*
X113107713Y-53965000D01*
X112950838Y-53965000D01*
X112900000Y-53959993D01*
X112849162Y-53965000D01*
X112697105Y-53979976D01*
X112502007Y-54039159D01*
X112322203Y-54135266D01*
X112164604Y-54264604D01*
X112035266Y-54422203D01*
X111939159Y-54602007D01*
X111879976Y-54797105D01*
X111859993Y-55000000D01*
X111865000Y-55050839D01*
X111865001Y-55921288D01*
X99721290Y-68065000D01*
X99608665Y-68065000D01*
X99331426Y-68120147D01*
X99070273Y-68228320D01*
X98835241Y-68385363D01*
X98635363Y-68585241D01*
X98478320Y-68820273D01*
X98370147Y-69081426D01*
X98315000Y-69358665D01*
X95619810Y-69358665D01*
X95665000Y-69131486D01*
X95665000Y-68868514D01*
X95613696Y-68610595D01*
X95513061Y-68367641D01*
X95366962Y-68148987D01*
X95181013Y-67963038D01*
X94962359Y-67816939D01*
X94719405Y-67716304D01*
X94461486Y-67665000D01*
X94198514Y-67665000D01*
X93940595Y-67716304D01*
X93697641Y-67816939D01*
X93478987Y-67963038D01*
X93293038Y-68148987D01*
X93146939Y-68367641D01*
X93046304Y-68610595D01*
X92995000Y-68868514D01*
X90585000Y-68868514D01*
X90533696Y-68610595D01*
X90433061Y-68367641D01*
X90286962Y-68148987D01*
X90101013Y-67963038D01*
X89882359Y-67816939D01*
X89639405Y-67716304D01*
X89381486Y-67665000D01*
X89118514Y-67665000D01*
X88860595Y-67716304D01*
X88617641Y-67816939D01*
X88398987Y-67963038D01*
X88397025Y-67965000D01*
X87995387Y-67965000D01*
X87912895Y-67939976D01*
X87760838Y-67925000D01*
X87760828Y-67925000D01*
X87710000Y-67919994D01*
X87659172Y-67925000D01*
X87414396Y-67925000D01*
X87334759Y-67845363D01*
X87102241Y-67690000D01*
X87334759Y-67534637D01*
X87414396Y-67455000D01*
X87529172Y-67455000D01*
X87580000Y-67460006D01*
X87630828Y-67455000D01*
X87630838Y-67455000D01*
X87782895Y-67440024D01*
X87977993Y-67380841D01*
X88157299Y-67285000D01*
X88397025Y-67285000D01*
X88398987Y-67286962D01*
X88617641Y-67433061D01*
X88860595Y-67533696D01*
X89118514Y-67585000D01*
X89381486Y-67585000D01*
X89639405Y-67533696D01*
X89882359Y-67433061D01*
X90101013Y-67286962D01*
X90286962Y-67101013D01*
X90433061Y-66882359D01*
X90533696Y-66639405D01*
X90585000Y-66381486D01*
X90585000Y-66118514D01*
X90533696Y-65860595D01*
X90433061Y-65617641D01*
X90286962Y-65398987D01*
X90101013Y-65213038D01*
X89882359Y-65066939D01*
X89680754Y-64983431D01*
X89802359Y-64933061D01*
X90021013Y-64786962D01*
X90206962Y-64601013D01*
X90353061Y-64382359D01*
X90453696Y-64139405D01*
X90505000Y-63881486D01*
X90505000Y-63618514D01*
X90453696Y-63360595D01*
X90353061Y-63117641D01*
X90206962Y-62898987D01*
X90021013Y-62713038D01*
X89802359Y-62566939D01*
X89640754Y-62500000D01*
X89802359Y-62433061D01*
X90021013Y-62286962D01*
X90206962Y-62101013D01*
X90353061Y-61882359D01*
X90453696Y-61639405D01*
X90505000Y-61381486D01*
X90505000Y-61118514D01*
X90453696Y-60860595D01*
X90353061Y-60617641D01*
X90206962Y-60398987D01*
X90021013Y-60213038D01*
X89802359Y-60066939D01*
X89640754Y-60000000D01*
X89802359Y-59933061D01*
X90021013Y-59786962D01*
X90206962Y-59601013D01*
X90353061Y-59382359D01*
X90453696Y-59139405D01*
X90505000Y-58881486D01*
X90505000Y-58618514D01*
X90465155Y-58418200D01*
X92454490Y-58418200D01*
X92915000Y-58878711D01*
X92915000Y-58881486D01*
X92966304Y-59139405D01*
X93066939Y-59382359D01*
X93213038Y-59601013D01*
X93398987Y-59786962D01*
X93617641Y-59933061D01*
X93779246Y-60000000D01*
X93617641Y-60066939D01*
X93398987Y-60213038D01*
X93213038Y-60398987D01*
X93066939Y-60617641D01*
X92966304Y-60860595D01*
X92915000Y-61118514D01*
X92915000Y-61381486D01*
X92966304Y-61639405D01*
X93066939Y-61882359D01*
X93213038Y-62101013D01*
X93398987Y-62286962D01*
X93617641Y-62433061D01*
X93779246Y-62500000D01*
X93617641Y-62566939D01*
X93398987Y-62713038D01*
X93213038Y-62898987D01*
X93066939Y-63117641D01*
X92966304Y-63360595D01*
X92915000Y-63618514D01*
X92915000Y-63881486D01*
X92966304Y-64139405D01*
X93066939Y-64382359D01*
X93213038Y-64601013D01*
X93398987Y-64786962D01*
X93617641Y-64933061D01*
X93819246Y-65016569D01*
X93697641Y-65066939D01*
X93478987Y-65213038D01*
X93293038Y-65398987D01*
X93146939Y-65617641D01*
X93046304Y-65860595D01*
X92995000Y-66118514D01*
X92995000Y-66381486D01*
X93046304Y-66639405D01*
X93146939Y-66882359D01*
X93293038Y-67101013D01*
X93478987Y-67286962D01*
X93697641Y-67433061D01*
X93940595Y-67533696D01*
X94198514Y-67585000D01*
X94461486Y-67585000D01*
X94719405Y-67533696D01*
X94962359Y-67433061D01*
X95181013Y-67286962D01*
X95366962Y-67101013D01*
X95513061Y-66882359D01*
X95613696Y-66639405D01*
X95665000Y-66381486D01*
X95665000Y-66118514D01*
X95613696Y-65860595D01*
X95513061Y-65617641D01*
X95366962Y-65398987D01*
X95181013Y-65213038D01*
X94962359Y-65066939D01*
X94760754Y-64983431D01*
X94882359Y-64933061D01*
X95101013Y-64786962D01*
X95286962Y-64601013D01*
X95433061Y-64382359D01*
X95533696Y-64139405D01*
X95585000Y-63881486D01*
X95585000Y-63618514D01*
X95533696Y-63360595D01*
X95433061Y-63117641D01*
X95286962Y-62898987D01*
X95101013Y-62713038D01*
X94882359Y-62566939D01*
X94720754Y-62500000D01*
X94882359Y-62433061D01*
X95101013Y-62286962D01*
X95286962Y-62101013D01*
X95433061Y-61882359D01*
X95533696Y-61639405D01*
X95585000Y-61381486D01*
X95585000Y-61118514D01*
X95533696Y-60860595D01*
X95433061Y-60617641D01*
X95286962Y-60398987D01*
X95101013Y-60213038D01*
X94882359Y-60066939D01*
X94720754Y-60000000D01*
X94882359Y-59933061D01*
X95101013Y-59786962D01*
X95286962Y-59601013D01*
X95433061Y-59382359D01*
X95533696Y-59139405D01*
X95585000Y-58881486D01*
X95585000Y-58618514D01*
X95533696Y-58360595D01*
X95433061Y-58117641D01*
X95286962Y-57898987D01*
X95101013Y-57713038D01*
X94882359Y-57566939D01*
X94639405Y-57466304D01*
X94381486Y-57415000D01*
X94378711Y-57415000D01*
X94346910Y-57383200D01*
X104916308Y-46813803D01*
X104955796Y-46781396D01*
X105022596Y-46700000D01*
X105085134Y-46623798D01*
X105152852Y-46497105D01*
X105181241Y-46443993D01*
X105240424Y-46248895D01*
X105255400Y-46096838D01*
X105255400Y-46096828D01*
X105260406Y-46046000D01*
X105255400Y-45995172D01*
X105255400Y-45515098D01*
X127865000Y-45515098D01*
X127865000Y-45984902D01*
X127956654Y-46445679D01*
X128136440Y-46879721D01*
X128397450Y-47270349D01*
X128729651Y-47602550D01*
X129120279Y-47863560D01*
X129554321Y-48043346D01*
X130015098Y-48135000D01*
X130484902Y-48135000D01*
X130945679Y-48043346D01*
X131379721Y-47863560D01*
X131770349Y-47602550D01*
X132102550Y-47270349D01*
X132363560Y-46879721D01*
X132543346Y-46445679D01*
X132635000Y-45984902D01*
X132635000Y-45515098D01*
X132543346Y-45054321D01*
X132363560Y-44620279D01*
X132102550Y-44229651D01*
X131770349Y-43897450D01*
X131379721Y-43636440D01*
X130945679Y-43456654D01*
X130484902Y-43365000D01*
X130015098Y-43365000D01*
X129554321Y-43456654D01*
X129120279Y-43636440D01*
X128729651Y-43897450D01*
X128397450Y-44229651D01*
X128136440Y-44620279D01*
X127956654Y-45054321D01*
X127865000Y-45515098D01*
X105255400Y-45515098D01*
X105255400Y-41368514D01*
X108085000Y-41368514D01*
X108085000Y-41631486D01*
X108136304Y-41889405D01*
X108236939Y-42132359D01*
X108383038Y-42351013D01*
X108568987Y-42536962D01*
X108787641Y-42683061D01*
X109030595Y-42783696D01*
X109288514Y-42835000D01*
X109551486Y-42835000D01*
X109809405Y-42783696D01*
X110052359Y-42683061D01*
X110271013Y-42536962D01*
X110456962Y-42351013D01*
X110603061Y-42132359D01*
X110703696Y-41889405D01*
X110755000Y-41631486D01*
X110755000Y-41368514D01*
X113165000Y-41368514D01*
X113165000Y-41631486D01*
X113216304Y-41889405D01*
X113316939Y-42132359D01*
X113463038Y-42351013D01*
X113648987Y-42536962D01*
X113867641Y-42683061D01*
X114110595Y-42783696D01*
X114368514Y-42835000D01*
X114631486Y-42835000D01*
X114889405Y-42783696D01*
X115132359Y-42683061D01*
X115351013Y-42536962D01*
X115536962Y-42351013D01*
X115683061Y-42132359D01*
X115783696Y-41889405D01*
X115835000Y-41631486D01*
X115835000Y-41368514D01*
X115783696Y-41110595D01*
X115683061Y-40867641D01*
X115536962Y-40648987D01*
X115351013Y-40463038D01*
X115132359Y-40316939D01*
X114889405Y-40216304D01*
X114631486Y-40165000D01*
X114368514Y-40165000D01*
X114110595Y-40216304D01*
X113867641Y-40316939D01*
X113648987Y-40463038D01*
X113463038Y-40648987D01*
X113316939Y-40867641D01*
X113216304Y-41110595D01*
X113165000Y-41368514D01*
X110755000Y-41368514D01*
X110703696Y-41110595D01*
X110603061Y-40867641D01*
X110456962Y-40648987D01*
X110271013Y-40463038D01*
X110052359Y-40316939D01*
X109809405Y-40216304D01*
X109551486Y-40165000D01*
X109288514Y-40165000D01*
X109030595Y-40216304D01*
X108787641Y-40316939D01*
X108568987Y-40463038D01*
X108383038Y-40648987D01*
X108236939Y-40867641D01*
X108136304Y-41110595D01*
X108085000Y-41368514D01*
X105255400Y-41368514D01*
X105255400Y-39708310D01*
X106015196Y-38948514D01*
X106665000Y-38948514D01*
X106665000Y-39211486D01*
X106716304Y-39469405D01*
X106816939Y-39712359D01*
X106963038Y-39931013D01*
X107148987Y-40116962D01*
X107367641Y-40263061D01*
X107610595Y-40363696D01*
X107868514Y-40415000D01*
X108131486Y-40415000D01*
X108389405Y-40363696D01*
X108632359Y-40263061D01*
X108851013Y-40116962D01*
X109036962Y-39931013D01*
X109183061Y-39712359D01*
X109283696Y-39469405D01*
X109335000Y-39211486D01*
X109335000Y-39208710D01*
X113008711Y-35535000D01*
X113505604Y-35535000D01*
X113585241Y-35614637D01*
X113787827Y-35750000D01*
X113585241Y-35885363D01*
X113385363Y-36085241D01*
X113228320Y-36320273D01*
X113120147Y-36581426D01*
X113065000Y-36858665D01*
X113065000Y-37141335D01*
X113120147Y-37418574D01*
X113228320Y-37679727D01*
X113385363Y-37914759D01*
X113585241Y-38114637D01*
X113820273Y-38271680D01*
X114081426Y-38379853D01*
X114358665Y-38435000D01*
X114641335Y-38435000D01*
X114918574Y-38379853D01*
X115179727Y-38271680D01*
X115414759Y-38114637D01*
X115614637Y-37914759D01*
X115771680Y-37679727D01*
X115879853Y-37418574D01*
X115935000Y-37141335D01*
X115935000Y-36858665D01*
X115879853Y-36581426D01*
X115771680Y-36320273D01*
X115614637Y-36085241D01*
X115414759Y-35885363D01*
X115212173Y-35750000D01*
X115414759Y-35614637D01*
X115614637Y-35414759D01*
X115771680Y-35179727D01*
X115879853Y-34918574D01*
X115935000Y-34641335D01*
X115935000Y-34358665D01*
X115879853Y-34081426D01*
X115771680Y-33820273D01*
X115614637Y-33585241D01*
X115414759Y-33385363D01*
X115179727Y-33228320D01*
X114918574Y-33120147D01*
X114641335Y-33065000D01*
X114358665Y-33065000D01*
X114081426Y-33120147D01*
X113820273Y-33228320D01*
X113585241Y-33385363D01*
X113505604Y-33465000D01*
X112630827Y-33465000D01*
X112579999Y-33459994D01*
X112529171Y-33465000D01*
X112529162Y-33465000D01*
X112377105Y-33479976D01*
X112182007Y-33539159D01*
X112105599Y-33580000D01*
X112002202Y-33635266D01*
X111884092Y-33732197D01*
X111844604Y-33764604D01*
X111812197Y-33804092D01*
X107871290Y-37745000D01*
X107868514Y-37745000D01*
X107610595Y-37796304D01*
X107367641Y-37896939D01*
X107148987Y-38043038D01*
X106963038Y-38228987D01*
X106816939Y-38447641D01*
X106716304Y-38690595D01*
X106665000Y-38948514D01*
X106015196Y-38948514D01*
X108695908Y-36267803D01*
X108735396Y-36235396D01*
X108767803Y-36195908D01*
X108864734Y-36077798D01*
X108960841Y-35897994D01*
X108981194Y-35830900D01*
X109020024Y-35702895D01*
X109035000Y-35550838D01*
X109035000Y-35550835D01*
X109040007Y-35500000D01*
X109035000Y-35449165D01*
X109035000Y-34852975D01*
X109036962Y-34851013D01*
X109183061Y-34632359D01*
X109283696Y-34389405D01*
X109335000Y-34131486D01*
X109335000Y-33868514D01*
X109283696Y-33610595D01*
X109183061Y-33367641D01*
X109036962Y-33148987D01*
X108851013Y-32963038D01*
X108632359Y-32816939D01*
X108389405Y-32716304D01*
X108131486Y-32665000D01*
X107868514Y-32665000D01*
X107610595Y-32716304D01*
X107367641Y-32816939D01*
X107148987Y-32963038D01*
X106963038Y-33148987D01*
X106816939Y-33367641D01*
X106716304Y-33610595D01*
X106665000Y-33868514D01*
X106665000Y-34131486D01*
X106716304Y-34389405D01*
X106816939Y-34632359D01*
X106963038Y-34851013D01*
X106965001Y-34852976D01*
X106965001Y-35071288D01*
X103524492Y-38511798D01*
X103485005Y-38544204D01*
X103452598Y-38583692D01*
X103452597Y-38583693D01*
X103355666Y-38701803D01*
X103259560Y-38881607D01*
X103200377Y-39076705D01*
X103180394Y-39279600D01*
X103185401Y-39330438D01*
X103185401Y-40156005D01*
X103164759Y-40135363D01*
X102929727Y-39978320D01*
X102668574Y-39870147D01*
X102391335Y-39815000D01*
X102108665Y-39815000D01*
X101831426Y-39870147D01*
X101570273Y-39978320D01*
X101335241Y-40135363D01*
X101135363Y-40335241D01*
X101000000Y-40537827D01*
X100864637Y-40335241D01*
X100785000Y-40255604D01*
X100785000Y-37852427D01*
X100790006Y-37801599D01*
X100785000Y-37750771D01*
X100785000Y-37750762D01*
X100770024Y-37598705D01*
X100710841Y-37403607D01*
X100659633Y-37307803D01*
X100614734Y-37223802D01*
X100517803Y-37105692D01*
X100485396Y-37066204D01*
X100445908Y-37033797D01*
X95298707Y-31886597D01*
X95266296Y-31847104D01*
X95108697Y-31717766D01*
X95000624Y-31660000D01*
X134340000Y-31660000D01*
X134340001Y-79340000D01*
X35660000Y-79340000D01*
X35660000Y-76948514D01*
X45665000Y-76948514D01*
X45665000Y-77211486D01*
X45716304Y-77469405D01*
X45816939Y-77712359D01*
X45963038Y-77931013D01*
X46148987Y-78116962D01*
X46367641Y-78263061D01*
X46610595Y-78363696D01*
X46868514Y-78415000D01*
X47131486Y-78415000D01*
X47389405Y-78363696D01*
X47632359Y-78263061D01*
X47851013Y-78116962D01*
X48036962Y-77931013D01*
X48183061Y-77712359D01*
X48283696Y-77469405D01*
X48335000Y-77211486D01*
X48335000Y-76948514D01*
X51665000Y-76948514D01*
X51665000Y-77211486D01*
X51716304Y-77469405D01*
X51816939Y-77712359D01*
X51963038Y-77931013D01*
X52148987Y-78116962D01*
X52367641Y-78263061D01*
X52610595Y-78363696D01*
X52868514Y-78415000D01*
X53131486Y-78415000D01*
X53389405Y-78363696D01*
X53632359Y-78263061D01*
X53851013Y-78116962D01*
X54036962Y-77931013D01*
X54183061Y-77712359D01*
X54283696Y-77469405D01*
X54335000Y-77211486D01*
X54335000Y-76948514D01*
X54283696Y-76690595D01*
X54183061Y-76447641D01*
X54036962Y-76228987D01*
X53851013Y-76043038D01*
X53632359Y-75896939D01*
X53389405Y-75796304D01*
X53131486Y-75745000D01*
X52868514Y-75745000D01*
X52610595Y-75796304D01*
X52367641Y-75896939D01*
X52148987Y-76043038D01*
X51963038Y-76228987D01*
X51816939Y-76447641D01*
X51716304Y-76690595D01*
X51665000Y-76948514D01*
X48335000Y-76948514D01*
X48283696Y-76690595D01*
X48183061Y-76447641D01*
X48036962Y-76228987D01*
X47851013Y-76043038D01*
X47632359Y-75896939D01*
X47389405Y-75796304D01*
X47131486Y-75745000D01*
X46868514Y-75745000D01*
X46610595Y-75796304D01*
X46367641Y-75896939D01*
X46148987Y-76043038D01*
X45963038Y-76228987D01*
X45816939Y-76447641D01*
X45716304Y-76690595D01*
X45665000Y-76948514D01*
X35660000Y-76948514D01*
X35660000Y-68765098D01*
X36615000Y-68765098D01*
X36615000Y-69234902D01*
X36706654Y-69695679D01*
X36886440Y-70129721D01*
X37147450Y-70520349D01*
X37479651Y-70852550D01*
X37870279Y-71113560D01*
X38304321Y-71293346D01*
X38765098Y-71385000D01*
X39234902Y-71385000D01*
X39695679Y-71293346D01*
X40129721Y-71113560D01*
X40520349Y-70852550D01*
X40852550Y-70520349D01*
X41113560Y-70129721D01*
X41293346Y-69695679D01*
X41385000Y-69234902D01*
X41385000Y-68765098D01*
X41293346Y-68304321D01*
X41113560Y-67870279D01*
X40852550Y-67479651D01*
X40520349Y-67147450D01*
X40129721Y-66886440D01*
X39695679Y-66706654D01*
X39234902Y-66615000D01*
X38765098Y-66615000D01*
X38304321Y-66706654D01*
X37870279Y-66886440D01*
X37479651Y-67147450D01*
X37147450Y-67479651D01*
X36886440Y-67870279D01*
X36706654Y-68304321D01*
X36615000Y-68765098D01*
X35660000Y-68765098D01*
X35660000Y-41515098D01*
X35865000Y-41515098D01*
X35865000Y-41984902D01*
X35956654Y-42445679D01*
X36136440Y-42879721D01*
X36397450Y-43270349D01*
X36729651Y-43602550D01*
X37120279Y-43863560D01*
X37554321Y-44043346D01*
X38015098Y-44135000D01*
X38484902Y-44135000D01*
X38945679Y-44043346D01*
X39379721Y-43863560D01*
X39770349Y-43602550D01*
X40102550Y-43270349D01*
X40363560Y-42879721D01*
X40543346Y-42445679D01*
X40635000Y-41984902D01*
X40635000Y-41515098D01*
X40543346Y-41054321D01*
X40363560Y-40620279D01*
X40102550Y-40229651D01*
X39770349Y-39897450D01*
X39379721Y-39636440D01*
X38945679Y-39456654D01*
X38484902Y-39365000D01*
X38015098Y-39365000D01*
X37554321Y-39456654D01*
X37120279Y-39636440D01*
X36729651Y-39897450D01*
X36397450Y-40229651D01*
X36136440Y-40620279D01*
X35956654Y-41054321D01*
X35865000Y-41515098D01*
X35660000Y-41515098D01*
X35660000Y-33368514D01*
X45665000Y-33368514D01*
X45665000Y-33631486D01*
X45716304Y-33889405D01*
X45816939Y-34132359D01*
X45963038Y-34351013D01*
X46148987Y-34536962D01*
X46367641Y-34683061D01*
X46610595Y-34783696D01*
X46868514Y-34835000D01*
X47131486Y-34835000D01*
X47389405Y-34783696D01*
X47632359Y-34683061D01*
X47851013Y-34536962D01*
X48036962Y-34351013D01*
X48183061Y-34132359D01*
X48283696Y-33889405D01*
X48335000Y-33631486D01*
X48335000Y-33368514D01*
X48283696Y-33110595D01*
X48183061Y-32867641D01*
X48036962Y-32648987D01*
X47851013Y-32463038D01*
X47632359Y-32316939D01*
X47389405Y-32216304D01*
X47131486Y-32165000D01*
X46868514Y-32165000D01*
X46610595Y-32216304D01*
X46367641Y-32316939D01*
X46148987Y-32463038D01*
X45963038Y-32648987D01*
X45816939Y-32867641D01*
X45716304Y-33110595D01*
X45665000Y-33368514D01*
X35660000Y-33368514D01*
X35660000Y-31660000D01*
X76778676Y-31660000D01*
X76670602Y-31717766D01*
%TA.AperFunction,Conductor*%
D19*
G36*
X76670602Y-31717766D02*
G01*
X76552492Y-31814697D01*
X76513004Y-31847104D01*
X76480597Y-31886592D01*
X75352295Y-33014895D01*
X75271680Y-32820273D01*
X75114637Y-32585241D01*
X74914759Y-32385363D01*
X74679727Y-32228320D01*
X74418574Y-32120147D01*
X74141335Y-32065000D01*
X73858665Y-32065000D01*
X73581426Y-32120147D01*
X73320273Y-32228320D01*
X73085241Y-32385363D01*
X72885363Y-32585241D01*
X72728320Y-32820273D01*
X72620147Y-33081426D01*
X72565000Y-33358665D01*
X72565000Y-33641335D01*
X72620147Y-33918574D01*
X72728320Y-34179727D01*
X72885363Y-34414759D01*
X73085241Y-34614637D01*
X73320273Y-34771680D01*
X73514895Y-34852295D01*
X73304097Y-35063093D01*
X73264604Y-35095504D01*
X73135266Y-35253103D01*
X73039159Y-35432908D01*
X72979976Y-35628006D01*
X72965000Y-35780063D01*
X72965000Y-35780072D01*
X72959994Y-35830900D01*
X72965000Y-35881728D01*
X72965001Y-37465000D01*
X56110600Y-37465000D01*
X56110600Y-35706435D01*
X56115607Y-35655600D01*
X56108078Y-35579159D01*
X56095624Y-35452705D01*
X56036441Y-35257607D01*
X55954871Y-35105000D01*
X55940334Y-35077802D01*
X55843403Y-34959692D01*
X55810996Y-34920204D01*
X55771508Y-34887797D01*
X54335000Y-33451290D01*
X54335000Y-33448514D01*
X54283696Y-33190595D01*
X54183061Y-32947641D01*
X54036962Y-32728987D01*
X53851013Y-32543038D01*
X53632359Y-32396939D01*
X53389405Y-32296304D01*
X53131486Y-32245000D01*
X52868514Y-32245000D01*
X52610595Y-32296304D01*
X52367641Y-32396939D01*
X52148987Y-32543038D01*
X51963038Y-32728987D01*
X51816939Y-32947641D01*
X51716304Y-33190595D01*
X51665000Y-33448514D01*
X51665000Y-33711486D01*
X51716304Y-33969405D01*
X51816939Y-34212359D01*
X51963038Y-34431013D01*
X52148987Y-34616962D01*
X52367641Y-34763061D01*
X52610595Y-34863696D01*
X52868514Y-34915000D01*
X52871290Y-34915000D01*
X54040601Y-36084312D01*
X54040600Y-37814432D01*
X54036962Y-37808987D01*
X53851013Y-37623038D01*
X53632359Y-37476939D01*
X53389405Y-37376304D01*
X53131486Y-37325000D01*
X52868514Y-37325000D01*
X52610595Y-37376304D01*
X52367641Y-37476939D01*
X52148987Y-37623038D01*
X52147025Y-37625000D01*
X51828921Y-37625000D01*
X51817993Y-37619159D01*
X51622895Y-37559976D01*
X51470838Y-37545000D01*
X51470828Y-37545000D01*
X51420000Y-37539994D01*
X51369172Y-37545000D01*
X47852975Y-37545000D01*
X47851013Y-37543038D01*
X47632359Y-37396939D01*
X47389405Y-37296304D01*
X47131486Y-37245000D01*
X46868514Y-37245000D01*
X46610595Y-37296304D01*
X46367641Y-37396939D01*
X46148987Y-37543038D01*
X45963038Y-37728987D01*
X45816939Y-37947641D01*
X45716304Y-38190595D01*
X45665000Y-38448514D01*
X45665000Y-38711486D01*
X45716304Y-38969405D01*
X45816939Y-39212359D01*
X45963038Y-39431013D01*
X46148987Y-39616962D01*
X46367641Y-39763061D01*
X46610595Y-39863696D01*
X46868514Y-39915000D01*
X47131486Y-39915000D01*
X47389405Y-39863696D01*
X47632359Y-39763061D01*
X47851013Y-39616962D01*
X47852975Y-39615000D01*
X51091079Y-39615000D01*
X51102007Y-39620841D01*
X51297105Y-39680024D01*
X51449162Y-39695000D01*
X51449171Y-39695000D01*
X51499999Y-39700006D01*
X51550827Y-39695000D01*
X52147025Y-39695000D01*
X52148987Y-39696962D01*
X52206507Y-39735395D01*
X52135266Y-39822203D01*
X52039159Y-40002007D01*
X51989715Y-40165000D01*
X49450835Y-40165000D01*
X49400000Y-40159993D01*
X49349165Y-40165000D01*
X49349162Y-40165000D01*
X49197105Y-40179976D01*
X49002007Y-40239159D01*
X48918684Y-40283696D01*
X48822202Y-40335266D01*
X48704092Y-40432197D01*
X48664604Y-40464604D01*
X48632197Y-40504092D01*
X48312618Y-40823672D01*
X48251185Y-40748815D01*
X48154494Y-40669463D01*
X48044180Y-40610498D01*
X47924482Y-40574188D01*
X47800000Y-40561928D01*
X46200000Y-40561928D01*
X46075518Y-40574188D01*
X45955820Y-40610498D01*
X45845506Y-40669463D01*
X45748815Y-40748815D01*
X45669463Y-40845506D01*
X45610498Y-40955820D01*
X45574188Y-41075518D01*
X45561928Y-41200000D01*
X45561928Y-42800000D01*
X45574188Y-42924482D01*
X45610498Y-43044180D01*
X45669463Y-43154494D01*
X45748815Y-43251185D01*
X45845506Y-43330537D01*
X45955820Y-43389502D01*
X46075518Y-43425812D01*
X46200000Y-43438072D01*
X47800000Y-43438072D01*
X47924482Y-43425812D01*
X48044180Y-43389502D01*
X48154494Y-43330537D01*
X48251185Y-43251185D01*
X48330537Y-43154494D01*
X48389502Y-43044180D01*
X48392287Y-43035000D01*
X48549172Y-43035000D01*
X48600000Y-43040006D01*
X48650828Y-43035000D01*
X48650838Y-43035000D01*
X48802895Y-43020024D01*
X48997993Y-42960841D01*
X49177797Y-42864734D01*
X49335396Y-42735396D01*
X49367807Y-42695903D01*
X49828711Y-42235000D01*
X51561928Y-42235000D01*
X51561928Y-42800000D01*
X51574188Y-42924482D01*
X51610498Y-43044180D01*
X51669463Y-43154494D01*
X51748815Y-43251185D01*
X51845506Y-43330537D01*
X51955820Y-43389502D01*
X52075518Y-43425812D01*
X52200000Y-43438072D01*
X53800000Y-43438072D01*
X53924482Y-43425812D01*
X54044180Y-43389502D01*
X54154494Y-43330537D01*
X54251185Y-43251185D01*
X54330537Y-43154494D01*
X54389502Y-43044180D01*
X54425812Y-42924482D01*
X54438072Y-42800000D01*
X54438072Y-41200000D01*
X54425812Y-41075518D01*
X54389502Y-40955820D01*
X54330537Y-40845506D01*
X54251185Y-40748815D01*
X54231253Y-40732457D01*
X55428711Y-39535000D01*
X73005604Y-39535000D01*
X73085241Y-39614637D01*
X73320273Y-39771680D01*
X73581426Y-39879853D01*
X73858665Y-39935000D01*
X74141335Y-39935000D01*
X74418574Y-39879853D01*
X74679727Y-39771680D01*
X74914759Y-39614637D01*
X75114637Y-39414759D01*
X75271680Y-39179727D01*
X75379853Y-38918574D01*
X75435000Y-38641335D01*
X75435000Y-38358665D01*
X75379853Y-38081426D01*
X75271680Y-37820273D01*
X75114637Y-37585241D01*
X75035000Y-37505604D01*
X75035000Y-36259610D01*
X76911928Y-34382683D01*
X76911928Y-34800000D01*
X76924188Y-34924482D01*
X76960498Y-35044180D01*
X77019463Y-35154494D01*
X77098815Y-35251185D01*
X77195506Y-35330537D01*
X77305820Y-35389502D01*
X77425518Y-35425812D01*
X77433961Y-35426643D01*
X77235363Y-35625241D01*
X77078320Y-35860273D01*
X76970147Y-36121426D01*
X76915000Y-36398665D01*
X76915000Y-36681335D01*
X76970147Y-36958574D01*
X77078320Y-37219727D01*
X77235363Y-37454759D01*
X77435241Y-37654637D01*
X77667759Y-37810000D01*
X77435241Y-37965363D01*
X77235363Y-38165241D01*
X77078320Y-38400273D01*
X76970147Y-38661426D01*
X76915000Y-38938665D01*
X76915000Y-39221335D01*
X76970147Y-39498574D01*
X77078320Y-39759727D01*
X77235363Y-39994759D01*
X77435241Y-40194637D01*
X77667759Y-40350000D01*
X77435241Y-40505363D01*
X77235363Y-40705241D01*
X77078320Y-40940273D01*
X76970147Y-41201426D01*
X76915000Y-41478665D01*
X76915000Y-41761335D01*
X76970147Y-42038574D01*
X77078320Y-42299727D01*
X77235363Y-42534759D01*
X77435241Y-42734637D01*
X77667759Y-42890000D01*
X77435241Y-43045363D01*
X77235363Y-43245241D01*
X77078320Y-43480273D01*
X76970147Y-43741426D01*
X76915000Y-44018665D01*
X76915000Y-44301335D01*
X76970147Y-44578574D01*
X77078320Y-44839727D01*
X77235363Y-45074759D01*
X77435241Y-45274637D01*
X77667759Y-45430000D01*
X77435241Y-45585363D01*
X77235363Y-45785241D01*
X77078320Y-46020273D01*
X76970147Y-46281426D01*
X76915000Y-46558665D01*
X76915000Y-46841335D01*
X76970147Y-47118574D01*
X77078320Y-47379727D01*
X77235363Y-47614759D01*
X77435241Y-47814637D01*
X77667759Y-47970000D01*
X77435241Y-48125363D01*
X77235363Y-48325241D01*
X77078320Y-48560273D01*
X76970147Y-48821426D01*
X76915000Y-49098665D01*
X76915000Y-49381335D01*
X76970147Y-49658574D01*
X77078320Y-49919727D01*
X77235363Y-50154759D01*
X77435241Y-50354637D01*
X77667759Y-50510000D01*
X77435241Y-50665363D01*
X77355604Y-50745000D01*
X76800827Y-50745000D01*
X76749999Y-50739994D01*
X76699171Y-50745000D01*
X76699162Y-50745000D01*
X76547105Y-50759976D01*
X76352007Y-50819159D01*
X76290553Y-50852007D01*
X76172202Y-50915266D01*
X76090647Y-50982197D01*
X76014604Y-51044604D01*
X75982197Y-51084092D01*
X75196490Y-51869800D01*
X75009555Y-51869800D01*
X75055000Y-51641335D01*
X75055000Y-51358665D01*
X74999853Y-51081426D01*
X74891680Y-50820273D01*
X74734637Y-50585241D01*
X74534759Y-50385363D01*
X74299727Y-50228320D01*
X74038574Y-50120147D01*
X73761335Y-50065000D01*
X73648711Y-50065000D01*
X71378107Y-47794397D01*
X71345696Y-47754904D01*
X71188097Y-47625566D01*
X71008293Y-47529459D01*
X70813195Y-47470276D01*
X70661138Y-47455300D01*
X70661128Y-47455300D01*
X70610300Y-47450294D01*
X70559472Y-47455300D01*
X70176401Y-47455300D01*
X70203696Y-47389405D01*
X70255000Y-47131486D01*
X70255000Y-46868514D01*
X72665000Y-46868514D01*
X72665000Y-47131486D01*
X72716304Y-47389405D01*
X72816939Y-47632359D01*
X72963038Y-47851013D01*
X73148987Y-48036962D01*
X73367641Y-48183061D01*
X73610595Y-48283696D01*
X73868514Y-48335000D01*
X74131486Y-48335000D01*
X74389405Y-48283696D01*
X74632359Y-48183061D01*
X74851013Y-48036962D01*
X75036962Y-47851013D01*
X75183061Y-47632359D01*
X75283696Y-47389405D01*
X75335000Y-47131486D01*
X75335000Y-46868514D01*
X75283696Y-46610595D01*
X75183061Y-46367641D01*
X75036962Y-46148987D01*
X74851013Y-45963038D01*
X74632359Y-45816939D01*
X74389405Y-45716304D01*
X74131486Y-45665000D01*
X73868514Y-45665000D01*
X73610595Y-45716304D01*
X73367641Y-45816939D01*
X73148987Y-45963038D01*
X72963038Y-46148987D01*
X72816939Y-46367641D01*
X72716304Y-46610595D01*
X72665000Y-46868514D01*
X70255000Y-46868514D01*
X70203696Y-46610595D01*
X70103061Y-46367641D01*
X69956962Y-46148987D01*
X69771013Y-45963038D01*
X69552359Y-45816939D01*
X69309405Y-45716304D01*
X69051486Y-45665000D01*
X68788514Y-45665000D01*
X68530595Y-45716304D01*
X68287641Y-45816939D01*
X68068987Y-45963038D01*
X67883038Y-46148987D01*
X67736939Y-46367641D01*
X67636304Y-46610595D01*
X67585000Y-46868514D01*
X67585000Y-47131486D01*
X67636304Y-47389405D01*
X67663599Y-47455300D01*
X54451662Y-47455300D01*
X54449696Y-47452904D01*
X54292097Y-47323566D01*
X54112293Y-47227459D01*
X53917195Y-47168276D01*
X53765138Y-47153300D01*
X53765128Y-47153300D01*
X53714300Y-47148294D01*
X53663472Y-47153300D01*
X50082535Y-47153300D01*
X50031700Y-47148293D01*
X49980865Y-47153300D01*
X49980862Y-47153300D01*
X49828805Y-47168276D01*
X49679115Y-47213685D01*
X49633706Y-47227459D01*
X49453902Y-47323566D01*
X49365755Y-47395907D01*
X49296304Y-47452904D01*
X49263897Y-47492392D01*
X48171290Y-48585000D01*
X47994396Y-48585000D01*
X47914759Y-48505363D01*
X47679727Y-48348320D01*
X47418574Y-48240147D01*
X47141335Y-48185000D01*
X46858665Y-48185000D01*
X46581426Y-48240147D01*
X46320273Y-48348320D01*
X46085241Y-48505363D01*
X45885363Y-48705241D01*
X45728320Y-48940273D01*
X45620147Y-49201426D01*
X45565000Y-49478665D01*
X45565000Y-49761335D01*
X45620147Y-50038574D01*
X45728320Y-50299727D01*
X45885363Y-50534759D01*
X46085241Y-50734637D01*
X46320273Y-50891680D01*
X46581426Y-50999853D01*
X46858665Y-51055000D01*
X47141335Y-51055000D01*
X47418574Y-50999853D01*
X47679727Y-50891680D01*
X47914759Y-50734637D01*
X47994396Y-50655000D01*
X48549172Y-50655000D01*
X48600000Y-50660006D01*
X48650828Y-50655000D01*
X48650838Y-50655000D01*
X48802895Y-50640024D01*
X48997993Y-50580841D01*
X49177797Y-50484734D01*
X49335396Y-50355396D01*
X49367807Y-50315903D01*
X50460411Y-49223300D01*
X51615796Y-49223300D01*
X51565000Y-49478665D01*
X51565000Y-49761335D01*
X51620147Y-50038574D01*
X51728320Y-50299727D01*
X51885363Y-50534759D01*
X52085241Y-50734637D01*
X52320273Y-50891680D01*
X52581426Y-50999853D01*
X52858665Y-51055000D01*
X53141335Y-51055000D01*
X53418574Y-50999853D01*
X53679727Y-50891680D01*
X53914759Y-50734637D01*
X53994396Y-50655000D01*
X54171290Y-50655000D01*
X55902501Y-52386212D01*
X55902501Y-52616950D01*
X55641335Y-52565000D01*
X55358665Y-52565000D01*
X55081426Y-52620147D01*
X54820273Y-52728320D01*
X54585241Y-52885363D01*
X54505604Y-52965000D01*
X48994396Y-52965000D01*
X48914759Y-52885363D01*
X48679727Y-52728320D01*
X48418574Y-52620147D01*
X48141335Y-52565000D01*
X47858665Y-52565000D01*
X47581426Y-52620147D01*
X47320273Y-52728320D01*
X47085241Y-52885363D01*
X46885363Y-53085241D01*
X46728320Y-53320273D01*
X46620147Y-53581426D01*
X46565000Y-53858665D01*
X46565000Y-53965000D01*
X45582038Y-53965000D01*
X45531200Y-53959993D01*
X45480362Y-53965000D01*
X40652795Y-53965000D01*
X40613560Y-53870279D01*
X40352550Y-53479651D01*
X40020349Y-53147450D01*
X39629721Y-52886440D01*
X39195679Y-52706654D01*
X38734902Y-52615000D01*
X38265098Y-52615000D01*
X37804321Y-52706654D01*
X37370279Y-52886440D01*
X36979651Y-53147450D01*
X36647450Y-53479651D01*
X36386440Y-53870279D01*
X36206654Y-54304321D01*
X36115000Y-54765098D01*
X36115000Y-55234902D01*
X36206654Y-55695679D01*
X36386440Y-56129721D01*
X36647450Y-56520349D01*
X36979651Y-56852550D01*
X37370279Y-57113560D01*
X37804321Y-57293346D01*
X38265098Y-57385000D01*
X38734902Y-57385000D01*
X39195679Y-57293346D01*
X39629721Y-57113560D01*
X40020349Y-56852550D01*
X40352550Y-56520349D01*
X40613560Y-56129721D01*
X40652795Y-56035000D01*
X44496200Y-56035000D01*
X44496201Y-65380362D01*
X44491194Y-65431200D01*
X44511177Y-65634095D01*
X44570360Y-65829193D01*
X44666466Y-66008997D01*
X44721893Y-66076534D01*
X44795805Y-66166596D01*
X44835292Y-66199002D01*
X45965001Y-67328711D01*
X45965001Y-67505603D01*
X45885363Y-67585241D01*
X45728320Y-67820273D01*
X45620147Y-68081426D01*
X45565000Y-68358665D01*
X45565000Y-68641335D01*
X45620147Y-68918574D01*
X45728320Y-69179727D01*
X45885363Y-69414759D01*
X46085241Y-69614637D01*
X46320273Y-69771680D01*
X46581426Y-69879853D01*
X46858665Y-69935000D01*
X47141335Y-69935000D01*
X47418574Y-69879853D01*
X47679727Y-69771680D01*
X47914759Y-69614637D01*
X47994396Y-69535000D01*
X48236244Y-69535000D01*
X48322007Y-69580841D01*
X48517105Y-69640024D01*
X48669162Y-69655000D01*
X48669165Y-69655000D01*
X48720000Y-69660007D01*
X48770835Y-69655000D01*
X52005604Y-69655000D01*
X52085241Y-69734637D01*
X52320273Y-69891680D01*
X52581426Y-69999853D01*
X52858665Y-70055000D01*
X53141335Y-70055000D01*
X53365400Y-70010430D01*
X53365400Y-70170889D01*
X52871290Y-70665000D01*
X52868514Y-70665000D01*
X52610595Y-70716304D01*
X52367641Y-70816939D01*
X52148987Y-70963038D01*
X52147025Y-70965000D01*
X47852975Y-70965000D01*
X47851013Y-70963038D01*
X47632359Y-70816939D01*
X47389405Y-70716304D01*
X47131486Y-70665000D01*
X46868514Y-70665000D01*
X46610595Y-70716304D01*
X46367641Y-70816939D01*
X46148987Y-70963038D01*
X45963038Y-71148987D01*
X45816939Y-71367641D01*
X45716304Y-71610595D01*
X45665000Y-71868514D01*
X45665000Y-72131486D01*
X45716304Y-72389405D01*
X45816939Y-72632359D01*
X45963038Y-72851013D01*
X46148987Y-73036962D01*
X46367641Y-73183061D01*
X46610595Y-73283696D01*
X46868514Y-73335000D01*
X47131486Y-73335000D01*
X47389405Y-73283696D01*
X47632359Y-73183061D01*
X47851013Y-73036962D01*
X47852975Y-73035000D01*
X52147025Y-73035000D01*
X52148987Y-73036962D01*
X52367641Y-73183061D01*
X52610595Y-73283696D01*
X52868514Y-73335000D01*
X53131486Y-73335000D01*
X53389405Y-73283696D01*
X53632359Y-73183061D01*
X53851013Y-73036962D01*
X54036962Y-72851013D01*
X54183061Y-72632359D01*
X54283696Y-72389405D01*
X54335000Y-72131486D01*
X54335000Y-72128710D01*
X55096308Y-71367403D01*
X55135796Y-71334996D01*
X55223343Y-71228320D01*
X55265134Y-71177398D01*
X55332781Y-71050838D01*
X55361241Y-70997593D01*
X55420424Y-70802495D01*
X55435400Y-70650438D01*
X55435400Y-70650435D01*
X55440407Y-70599600D01*
X55435400Y-70548765D01*
X55435400Y-68063427D01*
X55440406Y-68012599D01*
X55435400Y-67961771D01*
X55435400Y-67961762D01*
X55420424Y-67809705D01*
X55361241Y-67614607D01*
X55289280Y-67479977D01*
X55265134Y-67434802D01*
X55168203Y-67316692D01*
X55135796Y-67277204D01*
X55096308Y-67244797D01*
X52634600Y-64783090D01*
X52634600Y-63868514D01*
X67585000Y-63868514D01*
X67585000Y-64131486D01*
X67636304Y-64389405D01*
X67736939Y-64632359D01*
X67883038Y-64851013D01*
X68068987Y-65036962D01*
X68287641Y-65183061D01*
X68530595Y-65283696D01*
X68788514Y-65335000D01*
X69051486Y-65335000D01*
X69309405Y-65283696D01*
X69552359Y-65183061D01*
X69771013Y-65036962D01*
X69956962Y-64851013D01*
X70103061Y-64632359D01*
X70203696Y-64389405D01*
X70255000Y-64131486D01*
X70255000Y-63868514D01*
X72665000Y-63868514D01*
X72665000Y-64131486D01*
X72716304Y-64389405D01*
X72816939Y-64632359D01*
X72963038Y-64851013D01*
X73148987Y-65036962D01*
X73367641Y-65183061D01*
X73610595Y-65283696D01*
X73868514Y-65335000D01*
X74131486Y-65335000D01*
X74389405Y-65283696D01*
X74632359Y-65183061D01*
X74851013Y-65036962D01*
X75036962Y-64851013D01*
X75183061Y-64632359D01*
X75283696Y-64389405D01*
X75335000Y-64131486D01*
X75335000Y-63868514D01*
X75283696Y-63610595D01*
X75183061Y-63367641D01*
X75036962Y-63148987D01*
X74851013Y-62963038D01*
X74632359Y-62816939D01*
X74389405Y-62716304D01*
X74131486Y-62665000D01*
X73868514Y-62665000D01*
X73610595Y-62716304D01*
X73367641Y-62816939D01*
X73148987Y-62963038D01*
X72963038Y-63148987D01*
X72816939Y-63367641D01*
X72716304Y-63610595D01*
X72665000Y-63868514D01*
X70255000Y-63868514D01*
X70203696Y-63610595D01*
X70103061Y-63367641D01*
X69956962Y-63148987D01*
X69771013Y-62963038D01*
X69552359Y-62816939D01*
X69309405Y-62716304D01*
X69051486Y-62665000D01*
X68788514Y-62665000D01*
X68530595Y-62716304D01*
X68287641Y-62816939D01*
X68068987Y-62963038D01*
X67883038Y-63148987D01*
X67736939Y-63367641D01*
X67636304Y-63610595D01*
X67585000Y-63868514D01*
X52634600Y-63868514D01*
X52634600Y-62438072D01*
X53800000Y-62438072D01*
X53924482Y-62425812D01*
X54044180Y-62389502D01*
X54154494Y-62330537D01*
X54251185Y-62251185D01*
X54330537Y-62154494D01*
X54389502Y-62044180D01*
X54392287Y-62035000D01*
X54549162Y-62035000D01*
X54600000Y-62040007D01*
X54650838Y-62035000D01*
X54802895Y-62020024D01*
X54997993Y-61960841D01*
X55177797Y-61864734D01*
X55335396Y-61735396D01*
X55464734Y-61577797D01*
X55560841Y-61397993D01*
X55620024Y-61202895D01*
X55640007Y-61000000D01*
X55635000Y-60949162D01*
X55635000Y-60679610D01*
X57366211Y-58948400D01*
X61035772Y-58948400D01*
X61086600Y-58953406D01*
X61137428Y-58948400D01*
X61137438Y-58948400D01*
X61289495Y-58933424D01*
X61484593Y-58874241D01*
X61664397Y-58778134D01*
X61707695Y-58742600D01*
X64561928Y-58742600D01*
X64561928Y-59920000D01*
X64574188Y-60044482D01*
X64610498Y-60164180D01*
X64669463Y-60274494D01*
X64748815Y-60371185D01*
X64845506Y-60450537D01*
X64955820Y-60509502D01*
X65075518Y-60545812D01*
X65200000Y-60558072D01*
X65974362Y-60558072D01*
X66705197Y-61288908D01*
X66737604Y-61328396D01*
X66777092Y-61360803D01*
X66895202Y-61457734D01*
X67075006Y-61553841D01*
X67120415Y-61567615D01*
X67270105Y-61613024D01*
X67422162Y-61628000D01*
X67422165Y-61628000D01*
X67473000Y-61633007D01*
X67523835Y-61628000D01*
X74500472Y-61628000D01*
X74551300Y-61633006D01*
X74602128Y-61628000D01*
X74602138Y-61628000D01*
X74754195Y-61613024D01*
X74949293Y-61553841D01*
X75129097Y-61457734D01*
X75286696Y-61328396D01*
X75319107Y-61288903D01*
X77361928Y-59246083D01*
X77361928Y-59600000D01*
X77374188Y-59724482D01*
X77410498Y-59844180D01*
X77469463Y-59954494D01*
X77548815Y-60051185D01*
X77645506Y-60130537D01*
X77755820Y-60189502D01*
X77875518Y-60225812D01*
X77883961Y-60226643D01*
X77685363Y-60425241D01*
X77528320Y-60660273D01*
X77420147Y-60921426D01*
X77365000Y-61198665D01*
X77365000Y-61481335D01*
X77420147Y-61758574D01*
X77528320Y-62019727D01*
X77685363Y-62254759D01*
X77885241Y-62454637D01*
X78117759Y-62610000D01*
X77885241Y-62765363D01*
X77685363Y-62965241D01*
X77528320Y-63200273D01*
X77420147Y-63461426D01*
X77365000Y-63738665D01*
X77365000Y-64021335D01*
X77420147Y-64298574D01*
X77528320Y-64559727D01*
X77685363Y-64794759D01*
X77885241Y-64994637D01*
X78117759Y-65150000D01*
X77885241Y-65305363D01*
X77685363Y-65505241D01*
X77528320Y-65740273D01*
X77420147Y-66001426D01*
X77365000Y-66278665D01*
X77365000Y-66561335D01*
X77420147Y-66838574D01*
X77528320Y-67099727D01*
X77685363Y-67334759D01*
X77885241Y-67534637D01*
X78117759Y-67690000D01*
X77885241Y-67845363D01*
X77685363Y-68045241D01*
X77528320Y-68280273D01*
X77420147Y-68541426D01*
X77365000Y-68818665D01*
X77365000Y-69101335D01*
X77420147Y-69378574D01*
X77528320Y-69639727D01*
X77685363Y-69874759D01*
X77885241Y-70074637D01*
X78117759Y-70230000D01*
X77885241Y-70385363D01*
X77685363Y-70585241D01*
X77528320Y-70820273D01*
X77420147Y-71081426D01*
X77365000Y-71358665D01*
X77365000Y-71641335D01*
X77420147Y-71918574D01*
X77528320Y-72179727D01*
X77685363Y-72414759D01*
X77885241Y-72614637D01*
X78117759Y-72770000D01*
X77885241Y-72925363D01*
X77685363Y-73125241D01*
X77528320Y-73360273D01*
X77420147Y-73621426D01*
X77365000Y-73898665D01*
X77365000Y-74181335D01*
X77420147Y-74458574D01*
X77528320Y-74719727D01*
X77685363Y-74954759D01*
X77885241Y-75154637D01*
X78117759Y-75310000D01*
X77885241Y-75465363D01*
X77685363Y-75665241D01*
X77528320Y-75900273D01*
X77420147Y-76161426D01*
X77365000Y-76438665D01*
X77365000Y-76721335D01*
X77420147Y-76998574D01*
X77528320Y-77259727D01*
X77685363Y-77494759D01*
X77885241Y-77694637D01*
X78120273Y-77851680D01*
X78381426Y-77959853D01*
X78658665Y-78015000D01*
X78941335Y-78015000D01*
X79218574Y-77959853D01*
X79479727Y-77851680D01*
X79714759Y-77694637D01*
X79914637Y-77494759D01*
X80071680Y-77259727D01*
X80179853Y-76998574D01*
X80235000Y-76721335D01*
X80235000Y-76438665D01*
X80179853Y-76161426D01*
X80071680Y-75900273D01*
X79914637Y-75665241D01*
X79714759Y-75465363D01*
X79482241Y-75310000D01*
X79714759Y-75154637D01*
X79914637Y-74954759D01*
X80071680Y-74719727D01*
X80179853Y-74458574D01*
X80235000Y-74181335D01*
X80235000Y-73898665D01*
X80179853Y-73621426D01*
X80071680Y-73360273D01*
X79914637Y-73125241D01*
X79714759Y-72925363D01*
X79482241Y-72770000D01*
X79714759Y-72614637D01*
X79914637Y-72414759D01*
X80071680Y-72179727D01*
X80179853Y-71918574D01*
X80235000Y-71641335D01*
X80235000Y-71358665D01*
X80179853Y-71081426D01*
X80071680Y-70820273D01*
X79914637Y-70585241D01*
X79714759Y-70385363D01*
X79482241Y-70230000D01*
X79714759Y-70074637D01*
X79914637Y-69874759D01*
X80071680Y-69639727D01*
X80179853Y-69378574D01*
X80235000Y-69101335D01*
X80235000Y-68818665D01*
X80179853Y-68541426D01*
X80071680Y-68280273D01*
X79914637Y-68045241D01*
X79714759Y-67845363D01*
X79482241Y-67690000D01*
X79714759Y-67534637D01*
X79914637Y-67334759D01*
X80071680Y-67099727D01*
X80179853Y-66838574D01*
X80235000Y-66561335D01*
X80235000Y-66278665D01*
X80179853Y-66001426D01*
X80071680Y-65740273D01*
X79914637Y-65505241D01*
X79714759Y-65305363D01*
X79482241Y-65150000D01*
X79714759Y-64994637D01*
X79914637Y-64794759D01*
X80071680Y-64559727D01*
X80179853Y-64298574D01*
X80235000Y-64021335D01*
X80235000Y-63738665D01*
X80179853Y-63461426D01*
X80071680Y-63200273D01*
X79914637Y-62965241D01*
X79714759Y-62765363D01*
X79482241Y-62610000D01*
X79714759Y-62454637D01*
X79914637Y-62254759D01*
X80071680Y-62019727D01*
X80179853Y-61758574D01*
X80235000Y-61481335D01*
X80235000Y-61198665D01*
X80179853Y-60921426D01*
X80071680Y-60660273D01*
X79914637Y-60425241D01*
X79716039Y-60226643D01*
X79724482Y-60225812D01*
X79844180Y-60189502D01*
X79954494Y-60130537D01*
X80051185Y-60051185D01*
X80130537Y-59954494D01*
X80189502Y-59844180D01*
X80225812Y-59724482D01*
X80238072Y-59600000D01*
X80238072Y-58418200D01*
X85032832Y-58418200D01*
X84985000Y-58658665D01*
X84985000Y-58941335D01*
X85040147Y-59218574D01*
X85148320Y-59479727D01*
X85305363Y-59714759D01*
X85505241Y-59914637D01*
X85737759Y-60070000D01*
X85505241Y-60225363D01*
X85305363Y-60425241D01*
X85148320Y-60660273D01*
X85040147Y-60921426D01*
X84985000Y-61198665D01*
X84985000Y-61481335D01*
X85040147Y-61758574D01*
X85148320Y-62019727D01*
X85305363Y-62254759D01*
X85505241Y-62454637D01*
X85737759Y-62610000D01*
X85505241Y-62765363D01*
X85305363Y-62965241D01*
X85148320Y-63200273D01*
X85040147Y-63461426D01*
X84985000Y-63738665D01*
X84985000Y-64021335D01*
X85040147Y-64298574D01*
X85148320Y-64559727D01*
X85305363Y-64794759D01*
X85505241Y-64994637D01*
X85737759Y-65150000D01*
X85505241Y-65305363D01*
X85305363Y-65505241D01*
X85148320Y-65740273D01*
X85040147Y-66001426D01*
X84985000Y-66278665D01*
X84985000Y-66561335D01*
X85040147Y-66838574D01*
X85148320Y-67099727D01*
X85305363Y-67334759D01*
X85505241Y-67534637D01*
X85737759Y-67690000D01*
X85505241Y-67845363D01*
X85305363Y-68045241D01*
X85148320Y-68280273D01*
X85040147Y-68541426D01*
X84985000Y-68818665D01*
X84985000Y-69101335D01*
X85040147Y-69378574D01*
X85148320Y-69639727D01*
X85305363Y-69874759D01*
X85505241Y-70074637D01*
X85737759Y-70230000D01*
X85505241Y-70385363D01*
X85305363Y-70585241D01*
X85148320Y-70820273D01*
X85040147Y-71081426D01*
X84985000Y-71358665D01*
X84985000Y-71641335D01*
X85040147Y-71918574D01*
X85148320Y-72179727D01*
X85305363Y-72414759D01*
X85505241Y-72614637D01*
X85737759Y-72770000D01*
X85505241Y-72925363D01*
X85305363Y-73125241D01*
X85148320Y-73360273D01*
X85040147Y-73621426D01*
X84985000Y-73898665D01*
X84985000Y-74181335D01*
X85040147Y-74458574D01*
X85148320Y-74719727D01*
X85305363Y-74954759D01*
X85505241Y-75154637D01*
X85737759Y-75310000D01*
X85505241Y-75465363D01*
X85305363Y-75665241D01*
X85148320Y-75900273D01*
X85040147Y-76161426D01*
X84985000Y-76438665D01*
X84985000Y-76721335D01*
X85040147Y-76998574D01*
X85148320Y-77259727D01*
X85305363Y-77494759D01*
X85505241Y-77694637D01*
X85740273Y-77851680D01*
X86001426Y-77959853D01*
X86278665Y-78015000D01*
X86561335Y-78015000D01*
X86838574Y-77959853D01*
X87099727Y-77851680D01*
X87334759Y-77694637D01*
X87414396Y-77615000D01*
X87619172Y-77615000D01*
X87670000Y-77620006D01*
X87720828Y-77615000D01*
X87720838Y-77615000D01*
X87872895Y-77600024D01*
X88067993Y-77540841D01*
X88078921Y-77535000D01*
X88397025Y-77535000D01*
X88398987Y-77536962D01*
X88617641Y-77683061D01*
X88860595Y-77783696D01*
X89118514Y-77835000D01*
X89381486Y-77835000D01*
X89639405Y-77783696D01*
X89882359Y-77683061D01*
X90101013Y-77536962D01*
X90286962Y-77351013D01*
X90433061Y-77132359D01*
X90533696Y-76889405D01*
X90585000Y-76631486D01*
X90585000Y-76368514D01*
X90533696Y-76110595D01*
X90433061Y-75867641D01*
X90286962Y-75648987D01*
X90101013Y-75463038D01*
X89882359Y-75316939D01*
X89720754Y-75250000D01*
X89882359Y-75183061D01*
X90101013Y-75036962D01*
X90286962Y-74851013D01*
X90433061Y-74632359D01*
X90533696Y-74389405D01*
X90585000Y-74131486D01*
X90585000Y-73868514D01*
X90533696Y-73610595D01*
X90433061Y-73367641D01*
X90286962Y-73148987D01*
X90101013Y-72963038D01*
X89882359Y-72816939D01*
X89720754Y-72750000D01*
X89882359Y-72683061D01*
X90101013Y-72536962D01*
X90286962Y-72351013D01*
X90433061Y-72132359D01*
X90533696Y-71889405D01*
X90585000Y-71631486D01*
X90585000Y-71368514D01*
X90533696Y-71110595D01*
X90433061Y-70867641D01*
X90286962Y-70648987D01*
X90101013Y-70463038D01*
X89882359Y-70316939D01*
X89720754Y-70250000D01*
X89882359Y-70183061D01*
X90101013Y-70036962D01*
X90286962Y-69851013D01*
X90433061Y-69632359D01*
X90533696Y-69389405D01*
X90585000Y-69131486D01*
X90585000Y-68868514D01*
X92995000Y-68868514D01*
X92995000Y-69131486D01*
X93046304Y-69389405D01*
X93146939Y-69632359D01*
X93293038Y-69851013D01*
X93478987Y-70036962D01*
X93697641Y-70183061D01*
X93859246Y-70250000D01*
X93697641Y-70316939D01*
X93478987Y-70463038D01*
X93293038Y-70648987D01*
X93146939Y-70867641D01*
X93046304Y-71110595D01*
X92995000Y-71368514D01*
X92995000Y-71631486D01*
X93046304Y-71889405D01*
X93146939Y-72132359D01*
X93293038Y-72351013D01*
X93478987Y-72536962D01*
X93697641Y-72683061D01*
X93859246Y-72750000D01*
X93697641Y-72816939D01*
X93478987Y-72963038D01*
X93293038Y-73148987D01*
X93146939Y-73367641D01*
X93046304Y-73610595D01*
X92995000Y-73868514D01*
X92995000Y-74131486D01*
X93046304Y-74389405D01*
X93146939Y-74632359D01*
X93293038Y-74851013D01*
X93478987Y-75036962D01*
X93697641Y-75183061D01*
X93859246Y-75250000D01*
X93697641Y-75316939D01*
X93478987Y-75463038D01*
X93293038Y-75648987D01*
X93146939Y-75867641D01*
X93046304Y-76110595D01*
X92995000Y-76368514D01*
X92995000Y-76631486D01*
X93046304Y-76889405D01*
X93146939Y-77132359D01*
X93293038Y-77351013D01*
X93478987Y-77536962D01*
X93697641Y-77683061D01*
X93940595Y-77783696D01*
X94198514Y-77835000D01*
X94461486Y-77835000D01*
X94719405Y-77783696D01*
X94962359Y-77683061D01*
X95181013Y-77536962D01*
X95366962Y-77351013D01*
X95513061Y-77132359D01*
X95613696Y-76889405D01*
X95665000Y-76631486D01*
X95665000Y-76368514D01*
X95613696Y-76110595D01*
X95546560Y-75948514D01*
X105415000Y-75948514D01*
X105415000Y-76211486D01*
X105466304Y-76469405D01*
X105566939Y-76712359D01*
X105713038Y-76931013D01*
X105898987Y-77116962D01*
X106117641Y-77263061D01*
X106360595Y-77363696D01*
X106618514Y-77415000D01*
X106881486Y-77415000D01*
X107139405Y-77363696D01*
X107382359Y-77263061D01*
X107601013Y-77116962D01*
X107786962Y-76931013D01*
X107933061Y-76712359D01*
X108033696Y-76469405D01*
X108085000Y-76211486D01*
X108085000Y-75948514D01*
X108033696Y-75690595D01*
X107933061Y-75447641D01*
X107786962Y-75228987D01*
X107601013Y-75043038D01*
X107382359Y-74896939D01*
X107139405Y-74796304D01*
X106881486Y-74745000D01*
X106618514Y-74745000D01*
X106360595Y-74796304D01*
X106117641Y-74896939D01*
X105898987Y-75043038D01*
X105713038Y-75228987D01*
X105566939Y-75447641D01*
X105466304Y-75690595D01*
X105415000Y-75948514D01*
X95546560Y-75948514D01*
X95513061Y-75867641D01*
X95366962Y-75648987D01*
X95181013Y-75463038D01*
X94962359Y-75316939D01*
X94800754Y-75250000D01*
X94962359Y-75183061D01*
X95181013Y-75036962D01*
X95366962Y-74851013D01*
X95513061Y-74632359D01*
X95613696Y-74389405D01*
X95665000Y-74131486D01*
X95665000Y-73868514D01*
X95613696Y-73610595D01*
X95513061Y-73367641D01*
X95366962Y-73148987D01*
X95181013Y-72963038D01*
X94962359Y-72816939D01*
X94800754Y-72750000D01*
X94962359Y-72683061D01*
X95181013Y-72536962D01*
X95359310Y-72358665D01*
X113315000Y-72358665D01*
X113315000Y-72641335D01*
X113370147Y-72918574D01*
X113478320Y-73179727D01*
X113635363Y-73414759D01*
X113835241Y-73614637D01*
X114037827Y-73750000D01*
X113835241Y-73885363D01*
X113635363Y-74085241D01*
X113478320Y-74320273D01*
X113370147Y-74581426D01*
X113315000Y-74858665D01*
X113315000Y-75141335D01*
X113370147Y-75418574D01*
X113478320Y-75679727D01*
X113635363Y-75914759D01*
X113835241Y-76114637D01*
X114070273Y-76271680D01*
X114331426Y-76379853D01*
X114608665Y-76435000D01*
X114891335Y-76435000D01*
X115168574Y-76379853D01*
X115429727Y-76271680D01*
X115664759Y-76114637D01*
X115864637Y-75914759D01*
X116021680Y-75679727D01*
X116129853Y-75418574D01*
X116185000Y-75141335D01*
X116185000Y-74858665D01*
X116129853Y-74581426D01*
X116021680Y-74320273D01*
X115864637Y-74085241D01*
X115664759Y-73885363D01*
X115462173Y-73750000D01*
X115664759Y-73614637D01*
X115864637Y-73414759D01*
X116021680Y-73179727D01*
X116129853Y-72918574D01*
X116185000Y-72641335D01*
X116185000Y-72358665D01*
X116129853Y-72081426D01*
X116021680Y-71820273D01*
X115864637Y-71585241D01*
X115664759Y-71385363D01*
X115429727Y-71228320D01*
X115168574Y-71120147D01*
X114891335Y-71065000D01*
X114608665Y-71065000D01*
X114331426Y-71120147D01*
X114070273Y-71228320D01*
X113835241Y-71385363D01*
X113635363Y-71585241D01*
X113478320Y-71820273D01*
X113370147Y-72081426D01*
X113315000Y-72358665D01*
X95359310Y-72358665D01*
X95366962Y-72351013D01*
X95513061Y-72132359D01*
X95613696Y-71889405D01*
X95665000Y-71631486D01*
X95665000Y-71368514D01*
X95613696Y-71110595D01*
X95513061Y-70867641D01*
X95366962Y-70648987D01*
X95181013Y-70463038D01*
X94962359Y-70316939D01*
X94800754Y-70250000D01*
X94962359Y-70183061D01*
X95181013Y-70036962D01*
X95366962Y-69851013D01*
X95513061Y-69632359D01*
X95613696Y-69389405D01*
X95619810Y-69358665D01*
X98315000Y-69358665D01*
X98315000Y-69641335D01*
X98370147Y-69918574D01*
X98478320Y-70179727D01*
X98635363Y-70414759D01*
X98835241Y-70614637D01*
X99070273Y-70771680D01*
X99331426Y-70879853D01*
X99608665Y-70935000D01*
X99891335Y-70935000D01*
X100168574Y-70879853D01*
X100429727Y-70771680D01*
X100664759Y-70614637D01*
X100864637Y-70414759D01*
X101000000Y-70212173D01*
X101135363Y-70414759D01*
X101335241Y-70614637D01*
X101570273Y-70771680D01*
X101831426Y-70879853D01*
X102108665Y-70935000D01*
X102391335Y-70935000D01*
X102668574Y-70879853D01*
X102695948Y-70868514D01*
X105415000Y-70868514D01*
X105415000Y-71131486D01*
X105466304Y-71389405D01*
X105566939Y-71632359D01*
X105713038Y-71851013D01*
X105898987Y-72036962D01*
X106117641Y-72183061D01*
X106360595Y-72283696D01*
X106618514Y-72335000D01*
X106881486Y-72335000D01*
X107139405Y-72283696D01*
X107382359Y-72183061D01*
X107601013Y-72036962D01*
X107786962Y-71851013D01*
X107933061Y-71632359D01*
X108033696Y-71389405D01*
X108085000Y-71131486D01*
X108085000Y-70868514D01*
X108033696Y-70610595D01*
X107933061Y-70367641D01*
X107786962Y-70148987D01*
X107785000Y-70147025D01*
X107785000Y-69868710D01*
X108423795Y-69229915D01*
X108486939Y-69382359D01*
X108633038Y-69601013D01*
X108818987Y-69786962D01*
X109037641Y-69933061D01*
X109280595Y-70033696D01*
X109538514Y-70085000D01*
X109801486Y-70085000D01*
X110059405Y-70033696D01*
X110302359Y-69933061D01*
X110521013Y-69786962D01*
X110706962Y-69601013D01*
X110853061Y-69382359D01*
X110953696Y-69139405D01*
X111005000Y-68881486D01*
X111005000Y-68618514D01*
X113415000Y-68618514D01*
X113415000Y-68881486D01*
X113466304Y-69139405D01*
X113566939Y-69382359D01*
X113713038Y-69601013D01*
X113898987Y-69786962D01*
X114117641Y-69933061D01*
X114360595Y-70033696D01*
X114618514Y-70085000D01*
X114881486Y-70085000D01*
X115139405Y-70033696D01*
X115382359Y-69933061D01*
X115601013Y-69786962D01*
X115786962Y-69601013D01*
X115933061Y-69382359D01*
X116033696Y-69139405D01*
X116085000Y-68881486D01*
X116085000Y-68618514D01*
X116033696Y-68360595D01*
X115933061Y-68117641D01*
X115786962Y-67898987D01*
X115601013Y-67713038D01*
X115382359Y-67566939D01*
X115139405Y-67466304D01*
X114881486Y-67415000D01*
X114618514Y-67415000D01*
X114360595Y-67466304D01*
X114117641Y-67566939D01*
X113898987Y-67713038D01*
X113713038Y-67898987D01*
X113566939Y-68117641D01*
X113466304Y-68360595D01*
X113415000Y-68618514D01*
X111005000Y-68618514D01*
X110953696Y-68360595D01*
X110853061Y-68117641D01*
X110706962Y-67898987D01*
X110521013Y-67713038D01*
X110302359Y-67566939D01*
X110149915Y-67503795D01*
X118925045Y-58728665D01*
X119565000Y-58728665D01*
X119565000Y-59011335D01*
X119620147Y-59288574D01*
X119728320Y-59549727D01*
X119885363Y-59784759D01*
X120085241Y-59984637D01*
X120320273Y-60141680D01*
X120581426Y-60249853D01*
X120858665Y-60305000D01*
X121141335Y-60305000D01*
X121418574Y-60249853D01*
X121679727Y-60141680D01*
X121914759Y-59984637D01*
X121994396Y-59905000D01*
X122171290Y-59905000D01*
X126712196Y-64445907D01*
X126744604Y-64485396D01*
X126784092Y-64517803D01*
X126902202Y-64614734D01*
X126964071Y-64647803D01*
X127082007Y-64710841D01*
X127277105Y-64770024D01*
X127429162Y-64785000D01*
X127429171Y-64785000D01*
X127479999Y-64790006D01*
X127530827Y-64785000D01*
X128097205Y-64785000D01*
X128136440Y-64879721D01*
X128397450Y-65270349D01*
X128729651Y-65602550D01*
X129120279Y-65863560D01*
X129554321Y-66043346D01*
X130015098Y-66135000D01*
X130484902Y-66135000D01*
X130945679Y-66043346D01*
X131379721Y-65863560D01*
X131770349Y-65602550D01*
X132102550Y-65270349D01*
X132363560Y-64879721D01*
X132543346Y-64445679D01*
X132635000Y-63984902D01*
X132635000Y-63515098D01*
X132543346Y-63054321D01*
X132363560Y-62620279D01*
X132102550Y-62229651D01*
X131770349Y-61897450D01*
X131379721Y-61636440D01*
X130945679Y-61456654D01*
X130484902Y-61365000D01*
X130015098Y-61365000D01*
X129554321Y-61456654D01*
X129120279Y-61636440D01*
X128729651Y-61897450D01*
X128397450Y-62229651D01*
X128136440Y-62620279D01*
X128097205Y-62715000D01*
X127908711Y-62715000D01*
X123367807Y-58174097D01*
X123335396Y-58134604D01*
X123177797Y-58005266D01*
X122997993Y-57909159D01*
X122802895Y-57849976D01*
X122650838Y-57835000D01*
X122650828Y-57835000D01*
X122600000Y-57829994D01*
X122549172Y-57835000D01*
X121994396Y-57835000D01*
X121914759Y-57755363D01*
X121679727Y-57598320D01*
X121418574Y-57490147D01*
X121141335Y-57435000D01*
X120858665Y-57435000D01*
X120581426Y-57490147D01*
X120320273Y-57598320D01*
X120085241Y-57755363D01*
X119885363Y-57955241D01*
X119728320Y-58190273D01*
X119620147Y-58451426D01*
X119565000Y-58728665D01*
X118925045Y-58728665D01*
X120285196Y-57368514D01*
X123665000Y-57368514D01*
X123665000Y-57631486D01*
X123716304Y-57889405D01*
X123816939Y-58132359D01*
X123963038Y-58351013D01*
X124148987Y-58536962D01*
X124367641Y-58683061D01*
X124610595Y-58783696D01*
X124868514Y-58835000D01*
X125131486Y-58835000D01*
X125389405Y-58783696D01*
X125632359Y-58683061D01*
X125851013Y-58536962D01*
X126036962Y-58351013D01*
X126183061Y-58132359D01*
X126283696Y-57889405D01*
X126335000Y-57631486D01*
X126335000Y-57368514D01*
X126283696Y-57110595D01*
X126183061Y-56867641D01*
X126036962Y-56648987D01*
X125851013Y-56463038D01*
X125632359Y-56316939D01*
X125389405Y-56216304D01*
X125131486Y-56165000D01*
X124868514Y-56165000D01*
X124610595Y-56216304D01*
X124367641Y-56316939D01*
X124148987Y-56463038D01*
X123963038Y-56648987D01*
X123816939Y-56867641D01*
X123716304Y-57110595D01*
X123665000Y-57368514D01*
X120285196Y-57368514D01*
X123138612Y-54515098D01*
X127865000Y-54515098D01*
X127865000Y-54984902D01*
X127956654Y-55445679D01*
X128136440Y-55879721D01*
X128397450Y-56270349D01*
X128729651Y-56602550D01*
X129120279Y-56863560D01*
X129554321Y-57043346D01*
X130015098Y-57135000D01*
X130484902Y-57135000D01*
X130945679Y-57043346D01*
X131379721Y-56863560D01*
X131770349Y-56602550D01*
X132102550Y-56270349D01*
X132363560Y-55879721D01*
X132543346Y-55445679D01*
X132635000Y-54984902D01*
X132635000Y-54515098D01*
X132543346Y-54054321D01*
X132363560Y-53620279D01*
X132102550Y-53229651D01*
X131770349Y-52897450D01*
X131379721Y-52636440D01*
X130945679Y-52456654D01*
X130484902Y-52365000D01*
X130015098Y-52365000D01*
X129554321Y-52456654D01*
X129120279Y-52636440D01*
X128729651Y-52897450D01*
X128397450Y-53229651D01*
X128136440Y-53620279D01*
X127956654Y-54054321D01*
X127865000Y-54515098D01*
X123138612Y-54515098D01*
X124177618Y-53476093D01*
X124367641Y-53603061D01*
X124610595Y-53703696D01*
X124868514Y-53755000D01*
X125131486Y-53755000D01*
X125389405Y-53703696D01*
X125632359Y-53603061D01*
X125851013Y-53456962D01*
X126036962Y-53271013D01*
X126183061Y-53052359D01*
X126283696Y-52809405D01*
X126335000Y-52551486D01*
X126335000Y-52288514D01*
X126283696Y-52030595D01*
X126183061Y-51787641D01*
X126036962Y-51568987D01*
X125851013Y-51383038D01*
X125632359Y-51236939D01*
X125389405Y-51136304D01*
X125131486Y-51085000D01*
X124868514Y-51085000D01*
X124610595Y-51136304D01*
X124367641Y-51236939D01*
X124177618Y-51363907D01*
X123367807Y-50554097D01*
X123335396Y-50514604D01*
X123177797Y-50385266D01*
X122997993Y-50289159D01*
X122802895Y-50229976D01*
X122650838Y-50215000D01*
X122650828Y-50215000D01*
X122600000Y-50209994D01*
X122549172Y-50215000D01*
X122392287Y-50215000D01*
X122389502Y-50205820D01*
X122330537Y-50095506D01*
X122251185Y-49998815D01*
X122154494Y-49919463D01*
X122044180Y-49860498D01*
X121924482Y-49824188D01*
X121800000Y-49811928D01*
X120200000Y-49811928D01*
X120075518Y-49824188D01*
X119955820Y-49860498D01*
X119845506Y-49919463D01*
X119748815Y-49998815D01*
X119669463Y-50095506D01*
X119610498Y-50205820D01*
X119574188Y-50325518D01*
X119561928Y-50450000D01*
X119561928Y-52050000D01*
X119574188Y-52174482D01*
X119610498Y-52294180D01*
X119669463Y-52404494D01*
X119748815Y-52501185D01*
X119845506Y-52580537D01*
X119955820Y-52639502D01*
X120075518Y-52675812D01*
X120200000Y-52688072D01*
X121800000Y-52688072D01*
X121924482Y-52675812D01*
X122044180Y-52639502D01*
X122135714Y-52590576D01*
X106054097Y-68672193D01*
X106014604Y-68704604D01*
X105885266Y-68862203D01*
X105789159Y-69042008D01*
X105729976Y-69237106D01*
X105715000Y-69389163D01*
X105715000Y-69389172D01*
X105709994Y-69440000D01*
X105715000Y-69490828D01*
X105715000Y-70147025D01*
X105713038Y-70148987D01*
X105566939Y-70367641D01*
X105466304Y-70610595D01*
X105415000Y-70868514D01*
X102695948Y-70868514D01*
X102929727Y-70771680D01*
X103164759Y-70614637D01*
X103364637Y-70414759D01*
X103521680Y-70179727D01*
X103629853Y-69918574D01*
X103650889Y-69812821D01*
X117028711Y-56435000D01*
X117141335Y-56435000D01*
X117418574Y-56379853D01*
X117679727Y-56271680D01*
X117914759Y-56114637D01*
X118114637Y-55914759D01*
X118271680Y-55679727D01*
X118379853Y-55418574D01*
X118435000Y-55141335D01*
X118435000Y-54858665D01*
X118379853Y-54581426D01*
X118271680Y-54320273D01*
X118114637Y-54085241D01*
X117914759Y-53885363D01*
X117679727Y-53728320D01*
X117418574Y-53620147D01*
X117141335Y-53565000D01*
X116858665Y-53565000D01*
X116581426Y-53620147D01*
X116320273Y-53728320D01*
X116085241Y-53885363D01*
X115918661Y-54051943D01*
X115889502Y-53955820D01*
X115830537Y-53845506D01*
X115751185Y-53748815D01*
X115654494Y-53669463D01*
X115544180Y-53610498D01*
X115424482Y-53574188D01*
X115300000Y-53561928D01*
X113700000Y-53561928D01*
X113575518Y-53574188D01*
X113455820Y-53610498D01*
X113345506Y-53669463D01*
X113248815Y-53748815D01*
X113169463Y-53845506D01*
X113110498Y-53955820D01*
X113107713Y-53965000D01*
X112950838Y-53965000D01*
X112900000Y-53959993D01*
X112849162Y-53965000D01*
X112697105Y-53979976D01*
X112502007Y-54039159D01*
X112322203Y-54135266D01*
X112164604Y-54264604D01*
X112035266Y-54422203D01*
X111939159Y-54602007D01*
X111879976Y-54797105D01*
X111859993Y-55000000D01*
X111865000Y-55050839D01*
X111865001Y-55921288D01*
X99721290Y-68065000D01*
X99608665Y-68065000D01*
X99331426Y-68120147D01*
X99070273Y-68228320D01*
X98835241Y-68385363D01*
X98635363Y-68585241D01*
X98478320Y-68820273D01*
X98370147Y-69081426D01*
X98315000Y-69358665D01*
X95619810Y-69358665D01*
X95665000Y-69131486D01*
X95665000Y-68868514D01*
X95613696Y-68610595D01*
X95513061Y-68367641D01*
X95366962Y-68148987D01*
X95181013Y-67963038D01*
X94962359Y-67816939D01*
X94719405Y-67716304D01*
X94461486Y-67665000D01*
X94198514Y-67665000D01*
X93940595Y-67716304D01*
X93697641Y-67816939D01*
X93478987Y-67963038D01*
X93293038Y-68148987D01*
X93146939Y-68367641D01*
X93046304Y-68610595D01*
X92995000Y-68868514D01*
X90585000Y-68868514D01*
X90533696Y-68610595D01*
X90433061Y-68367641D01*
X90286962Y-68148987D01*
X90101013Y-67963038D01*
X89882359Y-67816939D01*
X89639405Y-67716304D01*
X89381486Y-67665000D01*
X89118514Y-67665000D01*
X88860595Y-67716304D01*
X88617641Y-67816939D01*
X88398987Y-67963038D01*
X88397025Y-67965000D01*
X87995387Y-67965000D01*
X87912895Y-67939976D01*
X87760838Y-67925000D01*
X87760828Y-67925000D01*
X87710000Y-67919994D01*
X87659172Y-67925000D01*
X87414396Y-67925000D01*
X87334759Y-67845363D01*
X87102241Y-67690000D01*
X87334759Y-67534637D01*
X87414396Y-67455000D01*
X87529172Y-67455000D01*
X87580000Y-67460006D01*
X87630828Y-67455000D01*
X87630838Y-67455000D01*
X87782895Y-67440024D01*
X87977993Y-67380841D01*
X88157299Y-67285000D01*
X88397025Y-67285000D01*
X88398987Y-67286962D01*
X88617641Y-67433061D01*
X88860595Y-67533696D01*
X89118514Y-67585000D01*
X89381486Y-67585000D01*
X89639405Y-67533696D01*
X89882359Y-67433061D01*
X90101013Y-67286962D01*
X90286962Y-67101013D01*
X90433061Y-66882359D01*
X90533696Y-66639405D01*
X90585000Y-66381486D01*
X90585000Y-66118514D01*
X90533696Y-65860595D01*
X90433061Y-65617641D01*
X90286962Y-65398987D01*
X90101013Y-65213038D01*
X89882359Y-65066939D01*
X89680754Y-64983431D01*
X89802359Y-64933061D01*
X90021013Y-64786962D01*
X90206962Y-64601013D01*
X90353061Y-64382359D01*
X90453696Y-64139405D01*
X90505000Y-63881486D01*
X90505000Y-63618514D01*
X90453696Y-63360595D01*
X90353061Y-63117641D01*
X90206962Y-62898987D01*
X90021013Y-62713038D01*
X89802359Y-62566939D01*
X89640754Y-62500000D01*
X89802359Y-62433061D01*
X90021013Y-62286962D01*
X90206962Y-62101013D01*
X90353061Y-61882359D01*
X90453696Y-61639405D01*
X90505000Y-61381486D01*
X90505000Y-61118514D01*
X90453696Y-60860595D01*
X90353061Y-60617641D01*
X90206962Y-60398987D01*
X90021013Y-60213038D01*
X89802359Y-60066939D01*
X89640754Y-60000000D01*
X89802359Y-59933061D01*
X90021013Y-59786962D01*
X90206962Y-59601013D01*
X90353061Y-59382359D01*
X90453696Y-59139405D01*
X90505000Y-58881486D01*
X90505000Y-58618514D01*
X90465155Y-58418200D01*
X92454490Y-58418200D01*
X92915000Y-58878711D01*
X92915000Y-58881486D01*
X92966304Y-59139405D01*
X93066939Y-59382359D01*
X93213038Y-59601013D01*
X93398987Y-59786962D01*
X93617641Y-59933061D01*
X93779246Y-60000000D01*
X93617641Y-60066939D01*
X93398987Y-60213038D01*
X93213038Y-60398987D01*
X93066939Y-60617641D01*
X92966304Y-60860595D01*
X92915000Y-61118514D01*
X92915000Y-61381486D01*
X92966304Y-61639405D01*
X93066939Y-61882359D01*
X93213038Y-62101013D01*
X93398987Y-62286962D01*
X93617641Y-62433061D01*
X93779246Y-62500000D01*
X93617641Y-62566939D01*
X93398987Y-62713038D01*
X93213038Y-62898987D01*
X93066939Y-63117641D01*
X92966304Y-63360595D01*
X92915000Y-63618514D01*
X92915000Y-63881486D01*
X92966304Y-64139405D01*
X93066939Y-64382359D01*
X93213038Y-64601013D01*
X93398987Y-64786962D01*
X93617641Y-64933061D01*
X93819246Y-65016569D01*
X93697641Y-65066939D01*
X93478987Y-65213038D01*
X93293038Y-65398987D01*
X93146939Y-65617641D01*
X93046304Y-65860595D01*
X92995000Y-66118514D01*
X92995000Y-66381486D01*
X93046304Y-66639405D01*
X93146939Y-66882359D01*
X93293038Y-67101013D01*
X93478987Y-67286962D01*
X93697641Y-67433061D01*
X93940595Y-67533696D01*
X94198514Y-67585000D01*
X94461486Y-67585000D01*
X94719405Y-67533696D01*
X94962359Y-67433061D01*
X95181013Y-67286962D01*
X95366962Y-67101013D01*
X95513061Y-66882359D01*
X95613696Y-66639405D01*
X95665000Y-66381486D01*
X95665000Y-66118514D01*
X95613696Y-65860595D01*
X95513061Y-65617641D01*
X95366962Y-65398987D01*
X95181013Y-65213038D01*
X94962359Y-65066939D01*
X94760754Y-64983431D01*
X94882359Y-64933061D01*
X95101013Y-64786962D01*
X95286962Y-64601013D01*
X95433061Y-64382359D01*
X95533696Y-64139405D01*
X95585000Y-63881486D01*
X95585000Y-63618514D01*
X95533696Y-63360595D01*
X95433061Y-63117641D01*
X95286962Y-62898987D01*
X95101013Y-62713038D01*
X94882359Y-62566939D01*
X94720754Y-62500000D01*
X94882359Y-62433061D01*
X95101013Y-62286962D01*
X95286962Y-62101013D01*
X95433061Y-61882359D01*
X95533696Y-61639405D01*
X95585000Y-61381486D01*
X95585000Y-61118514D01*
X95533696Y-60860595D01*
X95433061Y-60617641D01*
X95286962Y-60398987D01*
X95101013Y-60213038D01*
X94882359Y-60066939D01*
X94720754Y-60000000D01*
X94882359Y-59933061D01*
X95101013Y-59786962D01*
X95286962Y-59601013D01*
X95433061Y-59382359D01*
X95533696Y-59139405D01*
X95585000Y-58881486D01*
X95585000Y-58618514D01*
X95533696Y-58360595D01*
X95433061Y-58117641D01*
X95286962Y-57898987D01*
X95101013Y-57713038D01*
X94882359Y-57566939D01*
X94639405Y-57466304D01*
X94381486Y-57415000D01*
X94378711Y-57415000D01*
X94346910Y-57383200D01*
X104916308Y-46813803D01*
X104955796Y-46781396D01*
X105022596Y-46700000D01*
X105085134Y-46623798D01*
X105152852Y-46497105D01*
X105181241Y-46443993D01*
X105240424Y-46248895D01*
X105255400Y-46096838D01*
X105255400Y-46096828D01*
X105260406Y-46046000D01*
X105255400Y-45995172D01*
X105255400Y-45515098D01*
X127865000Y-45515098D01*
X127865000Y-45984902D01*
X127956654Y-46445679D01*
X128136440Y-46879721D01*
X128397450Y-47270349D01*
X128729651Y-47602550D01*
X129120279Y-47863560D01*
X129554321Y-48043346D01*
X130015098Y-48135000D01*
X130484902Y-48135000D01*
X130945679Y-48043346D01*
X131379721Y-47863560D01*
X131770349Y-47602550D01*
X132102550Y-47270349D01*
X132363560Y-46879721D01*
X132543346Y-46445679D01*
X132635000Y-45984902D01*
X132635000Y-45515098D01*
X132543346Y-45054321D01*
X132363560Y-44620279D01*
X132102550Y-44229651D01*
X131770349Y-43897450D01*
X131379721Y-43636440D01*
X130945679Y-43456654D01*
X130484902Y-43365000D01*
X130015098Y-43365000D01*
X129554321Y-43456654D01*
X129120279Y-43636440D01*
X128729651Y-43897450D01*
X128397450Y-44229651D01*
X128136440Y-44620279D01*
X127956654Y-45054321D01*
X127865000Y-45515098D01*
X105255400Y-45515098D01*
X105255400Y-41368514D01*
X108085000Y-41368514D01*
X108085000Y-41631486D01*
X108136304Y-41889405D01*
X108236939Y-42132359D01*
X108383038Y-42351013D01*
X108568987Y-42536962D01*
X108787641Y-42683061D01*
X109030595Y-42783696D01*
X109288514Y-42835000D01*
X109551486Y-42835000D01*
X109809405Y-42783696D01*
X110052359Y-42683061D01*
X110271013Y-42536962D01*
X110456962Y-42351013D01*
X110603061Y-42132359D01*
X110703696Y-41889405D01*
X110755000Y-41631486D01*
X110755000Y-41368514D01*
X113165000Y-41368514D01*
X113165000Y-41631486D01*
X113216304Y-41889405D01*
X113316939Y-42132359D01*
X113463038Y-42351013D01*
X113648987Y-42536962D01*
X113867641Y-42683061D01*
X114110595Y-42783696D01*
X114368514Y-42835000D01*
X114631486Y-42835000D01*
X114889405Y-42783696D01*
X115132359Y-42683061D01*
X115351013Y-42536962D01*
X115536962Y-42351013D01*
X115683061Y-42132359D01*
X115783696Y-41889405D01*
X115835000Y-41631486D01*
X115835000Y-41368514D01*
X115783696Y-41110595D01*
X115683061Y-40867641D01*
X115536962Y-40648987D01*
X115351013Y-40463038D01*
X115132359Y-40316939D01*
X114889405Y-40216304D01*
X114631486Y-40165000D01*
X114368514Y-40165000D01*
X114110595Y-40216304D01*
X113867641Y-40316939D01*
X113648987Y-40463038D01*
X113463038Y-40648987D01*
X113316939Y-40867641D01*
X113216304Y-41110595D01*
X113165000Y-41368514D01*
X110755000Y-41368514D01*
X110703696Y-41110595D01*
X110603061Y-40867641D01*
X110456962Y-40648987D01*
X110271013Y-40463038D01*
X110052359Y-40316939D01*
X109809405Y-40216304D01*
X109551486Y-40165000D01*
X109288514Y-40165000D01*
X109030595Y-40216304D01*
X108787641Y-40316939D01*
X108568987Y-40463038D01*
X108383038Y-40648987D01*
X108236939Y-40867641D01*
X108136304Y-41110595D01*
X108085000Y-41368514D01*
X105255400Y-41368514D01*
X105255400Y-39708310D01*
X106015196Y-38948514D01*
X106665000Y-38948514D01*
X106665000Y-39211486D01*
X106716304Y-39469405D01*
X106816939Y-39712359D01*
X106963038Y-39931013D01*
X107148987Y-40116962D01*
X107367641Y-40263061D01*
X107610595Y-40363696D01*
X107868514Y-40415000D01*
X108131486Y-40415000D01*
X108389405Y-40363696D01*
X108632359Y-40263061D01*
X108851013Y-40116962D01*
X109036962Y-39931013D01*
X109183061Y-39712359D01*
X109283696Y-39469405D01*
X109335000Y-39211486D01*
X109335000Y-39208710D01*
X113008711Y-35535000D01*
X113505604Y-35535000D01*
X113585241Y-35614637D01*
X113787827Y-35750000D01*
X113585241Y-35885363D01*
X113385363Y-36085241D01*
X113228320Y-36320273D01*
X113120147Y-36581426D01*
X113065000Y-36858665D01*
X113065000Y-37141335D01*
X113120147Y-37418574D01*
X113228320Y-37679727D01*
X113385363Y-37914759D01*
X113585241Y-38114637D01*
X113820273Y-38271680D01*
X114081426Y-38379853D01*
X114358665Y-38435000D01*
X114641335Y-38435000D01*
X114918574Y-38379853D01*
X115179727Y-38271680D01*
X115414759Y-38114637D01*
X115614637Y-37914759D01*
X115771680Y-37679727D01*
X115879853Y-37418574D01*
X115935000Y-37141335D01*
X115935000Y-36858665D01*
X115879853Y-36581426D01*
X115771680Y-36320273D01*
X115614637Y-36085241D01*
X115414759Y-35885363D01*
X115212173Y-35750000D01*
X115414759Y-35614637D01*
X115614637Y-35414759D01*
X115771680Y-35179727D01*
X115879853Y-34918574D01*
X115935000Y-34641335D01*
X115935000Y-34358665D01*
X115879853Y-34081426D01*
X115771680Y-33820273D01*
X115614637Y-33585241D01*
X115414759Y-33385363D01*
X115179727Y-33228320D01*
X114918574Y-33120147D01*
X114641335Y-33065000D01*
X114358665Y-33065000D01*
X114081426Y-33120147D01*
X113820273Y-33228320D01*
X113585241Y-33385363D01*
X113505604Y-33465000D01*
X112630827Y-33465000D01*
X112579999Y-33459994D01*
X112529171Y-33465000D01*
X112529162Y-33465000D01*
X112377105Y-33479976D01*
X112182007Y-33539159D01*
X112105599Y-33580000D01*
X112002202Y-33635266D01*
X111884092Y-33732197D01*
X111844604Y-33764604D01*
X111812197Y-33804092D01*
X107871290Y-37745000D01*
X107868514Y-37745000D01*
X107610595Y-37796304D01*
X107367641Y-37896939D01*
X107148987Y-38043038D01*
X106963038Y-38228987D01*
X106816939Y-38447641D01*
X106716304Y-38690595D01*
X106665000Y-38948514D01*
X106015196Y-38948514D01*
X108695908Y-36267803D01*
X108735396Y-36235396D01*
X108767803Y-36195908D01*
X108864734Y-36077798D01*
X108960841Y-35897994D01*
X108981194Y-35830900D01*
X109020024Y-35702895D01*
X109035000Y-35550838D01*
X109035000Y-35550835D01*
X109040007Y-35500000D01*
X109035000Y-35449165D01*
X109035000Y-34852975D01*
X109036962Y-34851013D01*
X109183061Y-34632359D01*
X109283696Y-34389405D01*
X109335000Y-34131486D01*
X109335000Y-33868514D01*
X109283696Y-33610595D01*
X109183061Y-33367641D01*
X109036962Y-33148987D01*
X108851013Y-32963038D01*
X108632359Y-32816939D01*
X108389405Y-32716304D01*
X108131486Y-32665000D01*
X107868514Y-32665000D01*
X107610595Y-32716304D01*
X107367641Y-32816939D01*
X107148987Y-32963038D01*
X106963038Y-33148987D01*
X106816939Y-33367641D01*
X106716304Y-33610595D01*
X106665000Y-33868514D01*
X106665000Y-34131486D01*
X106716304Y-34389405D01*
X106816939Y-34632359D01*
X106963038Y-34851013D01*
X106965001Y-34852976D01*
X106965001Y-35071288D01*
X103524492Y-38511798D01*
X103485005Y-38544204D01*
X103452598Y-38583692D01*
X103452597Y-38583693D01*
X103355666Y-38701803D01*
X103259560Y-38881607D01*
X103200377Y-39076705D01*
X103180394Y-39279600D01*
X103185401Y-39330438D01*
X103185401Y-40156005D01*
X103164759Y-40135363D01*
X102929727Y-39978320D01*
X102668574Y-39870147D01*
X102391335Y-39815000D01*
X102108665Y-39815000D01*
X101831426Y-39870147D01*
X101570273Y-39978320D01*
X101335241Y-40135363D01*
X101135363Y-40335241D01*
X101000000Y-40537827D01*
X100864637Y-40335241D01*
X100785000Y-40255604D01*
X100785000Y-37852427D01*
X100790006Y-37801599D01*
X100785000Y-37750771D01*
X100785000Y-37750762D01*
X100770024Y-37598705D01*
X100710841Y-37403607D01*
X100659633Y-37307803D01*
X100614734Y-37223802D01*
X100517803Y-37105692D01*
X100485396Y-37066204D01*
X100445908Y-37033797D01*
X95298707Y-31886597D01*
X95266296Y-31847104D01*
X95108697Y-31717766D01*
X95000624Y-31660000D01*
X134340000Y-31660000D01*
X134340001Y-79340000D01*
X35660000Y-79340000D01*
X35660000Y-76948514D01*
X45665000Y-76948514D01*
X45665000Y-77211486D01*
X45716304Y-77469405D01*
X45816939Y-77712359D01*
X45963038Y-77931013D01*
X46148987Y-78116962D01*
X46367641Y-78263061D01*
X46610595Y-78363696D01*
X46868514Y-78415000D01*
X47131486Y-78415000D01*
X47389405Y-78363696D01*
X47632359Y-78263061D01*
X47851013Y-78116962D01*
X48036962Y-77931013D01*
X48183061Y-77712359D01*
X48283696Y-77469405D01*
X48335000Y-77211486D01*
X48335000Y-76948514D01*
X51665000Y-76948514D01*
X51665000Y-77211486D01*
X51716304Y-77469405D01*
X51816939Y-77712359D01*
X51963038Y-77931013D01*
X52148987Y-78116962D01*
X52367641Y-78263061D01*
X52610595Y-78363696D01*
X52868514Y-78415000D01*
X53131486Y-78415000D01*
X53389405Y-78363696D01*
X53632359Y-78263061D01*
X53851013Y-78116962D01*
X54036962Y-77931013D01*
X54183061Y-77712359D01*
X54283696Y-77469405D01*
X54335000Y-77211486D01*
X54335000Y-76948514D01*
X54283696Y-76690595D01*
X54183061Y-76447641D01*
X54036962Y-76228987D01*
X53851013Y-76043038D01*
X53632359Y-75896939D01*
X53389405Y-75796304D01*
X53131486Y-75745000D01*
X52868514Y-75745000D01*
X52610595Y-75796304D01*
X52367641Y-75896939D01*
X52148987Y-76043038D01*
X51963038Y-76228987D01*
X51816939Y-76447641D01*
X51716304Y-76690595D01*
X51665000Y-76948514D01*
X48335000Y-76948514D01*
X48283696Y-76690595D01*
X48183061Y-76447641D01*
X48036962Y-76228987D01*
X47851013Y-76043038D01*
X47632359Y-75896939D01*
X47389405Y-75796304D01*
X47131486Y-75745000D01*
X46868514Y-75745000D01*
X46610595Y-75796304D01*
X46367641Y-75896939D01*
X46148987Y-76043038D01*
X45963038Y-76228987D01*
X45816939Y-76447641D01*
X45716304Y-76690595D01*
X45665000Y-76948514D01*
X35660000Y-76948514D01*
X35660000Y-68765098D01*
X36615000Y-68765098D01*
X36615000Y-69234902D01*
X36706654Y-69695679D01*
X36886440Y-70129721D01*
X37147450Y-70520349D01*
X37479651Y-70852550D01*
X37870279Y-71113560D01*
X38304321Y-71293346D01*
X38765098Y-71385000D01*
X39234902Y-71385000D01*
X39695679Y-71293346D01*
X40129721Y-71113560D01*
X40520349Y-70852550D01*
X40852550Y-70520349D01*
X41113560Y-70129721D01*
X41293346Y-69695679D01*
X41385000Y-69234902D01*
X41385000Y-68765098D01*
X41293346Y-68304321D01*
X41113560Y-67870279D01*
X40852550Y-67479651D01*
X40520349Y-67147450D01*
X40129721Y-66886440D01*
X39695679Y-66706654D01*
X39234902Y-66615000D01*
X38765098Y-66615000D01*
X38304321Y-66706654D01*
X37870279Y-66886440D01*
X37479651Y-67147450D01*
X37147450Y-67479651D01*
X36886440Y-67870279D01*
X36706654Y-68304321D01*
X36615000Y-68765098D01*
X35660000Y-68765098D01*
X35660000Y-41515098D01*
X35865000Y-41515098D01*
X35865000Y-41984902D01*
X35956654Y-42445679D01*
X36136440Y-42879721D01*
X36397450Y-43270349D01*
X36729651Y-43602550D01*
X37120279Y-43863560D01*
X37554321Y-44043346D01*
X38015098Y-44135000D01*
X38484902Y-44135000D01*
X38945679Y-44043346D01*
X39379721Y-43863560D01*
X39770349Y-43602550D01*
X40102550Y-43270349D01*
X40363560Y-42879721D01*
X40543346Y-42445679D01*
X40635000Y-41984902D01*
X40635000Y-41515098D01*
X40543346Y-41054321D01*
X40363560Y-40620279D01*
X40102550Y-40229651D01*
X39770349Y-39897450D01*
X39379721Y-39636440D01*
X38945679Y-39456654D01*
X38484902Y-39365000D01*
X38015098Y-39365000D01*
X37554321Y-39456654D01*
X37120279Y-39636440D01*
X36729651Y-39897450D01*
X36397450Y-40229651D01*
X36136440Y-40620279D01*
X35956654Y-41054321D01*
X35865000Y-41515098D01*
X35660000Y-41515098D01*
X35660000Y-33368514D01*
X45665000Y-33368514D01*
X45665000Y-33631486D01*
X45716304Y-33889405D01*
X45816939Y-34132359D01*
X45963038Y-34351013D01*
X46148987Y-34536962D01*
X46367641Y-34683061D01*
X46610595Y-34783696D01*
X46868514Y-34835000D01*
X47131486Y-34835000D01*
X47389405Y-34783696D01*
X47632359Y-34683061D01*
X47851013Y-34536962D01*
X48036962Y-34351013D01*
X48183061Y-34132359D01*
X48283696Y-33889405D01*
X48335000Y-33631486D01*
X48335000Y-33368514D01*
X48283696Y-33110595D01*
X48183061Y-32867641D01*
X48036962Y-32648987D01*
X47851013Y-32463038D01*
X47632359Y-32316939D01*
X47389405Y-32216304D01*
X47131486Y-32165000D01*
X46868514Y-32165000D01*
X46610595Y-32216304D01*
X46367641Y-32316939D01*
X46148987Y-32463038D01*
X45963038Y-32648987D01*
X45816939Y-32867641D01*
X45716304Y-33110595D01*
X45665000Y-33368514D01*
X35660000Y-33368514D01*
X35660000Y-31660000D01*
X76778676Y-31660000D01*
X76670602Y-31717766D01*
G37*
%TD.AperFunction*%
D18*
X54585241Y-55114637D02*
X54787827Y-55250000D01*
X54585241Y-55385363D01*
X54385363Y-55585241D01*
X54267353Y-55761855D01*
X54264004Y-55764604D01*
X54231597Y-55804092D01*
X50903692Y-59131998D01*
X50864205Y-59164404D01*
X50831798Y-59203892D01*
X50831797Y-59203893D01*
X50734866Y-59322003D01*
X50638760Y-59501807D01*
X50579577Y-59696905D01*
X50559594Y-59899800D01*
X50564601Y-59950638D01*
X50564600Y-65160972D01*
X50559594Y-65211800D01*
X50564600Y-65262628D01*
X50564600Y-65262637D01*
X50579576Y-65414694D01*
X50638759Y-65609792D01*
X50734866Y-65789597D01*
X50864204Y-65947196D01*
X50903697Y-65979607D01*
X52291581Y-67367491D01*
X52085241Y-67505363D01*
X52005604Y-67585000D01*
X49083756Y-67585000D01*
X48997993Y-67539159D01*
X48802895Y-67479976D01*
X48650838Y-67465000D01*
X48650828Y-67465000D01*
X48600000Y-67459994D01*
X48549172Y-67465000D01*
X48035000Y-67465000D01*
X48035000Y-66950835D01*
X48040007Y-66900000D01*
X48033957Y-66838574D01*
X48020024Y-66697105D01*
X47960841Y-66502007D01*
X47902063Y-66392041D01*
X47864734Y-66322202D01*
X47767803Y-66204092D01*
X47735396Y-66164604D01*
X47695908Y-66132197D01*
X46566200Y-65002490D01*
X46566200Y-62318072D01*
X47800000Y-62318072D01*
X47924482Y-62305812D01*
X48044180Y-62269502D01*
X48154494Y-62210537D01*
X48251185Y-62131185D01*
X48330537Y-62034494D01*
X48389502Y-61924180D01*
X48425812Y-61804482D01*
X48438072Y-61680000D01*
X48438072Y-60080000D01*
X48425812Y-59955518D01*
X48389502Y-59835820D01*
X48330537Y-59725506D01*
X48251185Y-59628815D01*
X48154494Y-59549463D01*
X48044180Y-59490498D01*
X47924482Y-59454188D01*
X47800000Y-59441928D01*
X46566200Y-59441928D01*
X46566200Y-56647368D01*
X46620147Y-56918574D01*
X46728320Y-57179727D01*
X46885363Y-57414759D01*
X47085241Y-57614637D01*
X47320273Y-57771680D01*
X47581426Y-57879853D01*
X47858665Y-57935000D01*
X48141335Y-57935000D01*
X48418574Y-57879853D01*
X48679727Y-57771680D01*
X48914759Y-57614637D01*
X49114637Y-57414759D01*
X49271680Y-57179727D01*
X49379853Y-56918574D01*
X49435000Y-56641335D01*
X49435000Y-56358665D01*
X49379853Y-56081426D01*
X49271680Y-55820273D01*
X49114637Y-55585241D01*
X48914759Y-55385363D01*
X48712173Y-55250000D01*
X48914759Y-55114637D01*
X48994396Y-55035000D01*
X54505604Y-55035000D01*
X54585241Y-55114637D01*
%TA.AperFunction,Conductor*%
D19*
G36*
X54585241Y-55114637D02*
G01*
X54787827Y-55250000D01*
X54585241Y-55385363D01*
X54385363Y-55585241D01*
X54267353Y-55761855D01*
X54264004Y-55764604D01*
X54231597Y-55804092D01*
X50903692Y-59131998D01*
X50864205Y-59164404D01*
X50831798Y-59203892D01*
X50831797Y-59203893D01*
X50734866Y-59322003D01*
X50638760Y-59501807D01*
X50579577Y-59696905D01*
X50559594Y-59899800D01*
X50564601Y-59950638D01*
X50564600Y-65160972D01*
X50559594Y-65211800D01*
X50564600Y-65262628D01*
X50564600Y-65262637D01*
X50579576Y-65414694D01*
X50638759Y-65609792D01*
X50734866Y-65789597D01*
X50864204Y-65947196D01*
X50903697Y-65979607D01*
X52291581Y-67367491D01*
X52085241Y-67505363D01*
X52005604Y-67585000D01*
X49083756Y-67585000D01*
X48997993Y-67539159D01*
X48802895Y-67479976D01*
X48650838Y-67465000D01*
X48650828Y-67465000D01*
X48600000Y-67459994D01*
X48549172Y-67465000D01*
X48035000Y-67465000D01*
X48035000Y-66950835D01*
X48040007Y-66900000D01*
X48033957Y-66838574D01*
X48020024Y-66697105D01*
X47960841Y-66502007D01*
X47902063Y-66392041D01*
X47864734Y-66322202D01*
X47767803Y-66204092D01*
X47735396Y-66164604D01*
X47695908Y-66132197D01*
X46566200Y-65002490D01*
X46566200Y-62318072D01*
X47800000Y-62318072D01*
X47924482Y-62305812D01*
X48044180Y-62269502D01*
X48154494Y-62210537D01*
X48251185Y-62131185D01*
X48330537Y-62034494D01*
X48389502Y-61924180D01*
X48425812Y-61804482D01*
X48438072Y-61680000D01*
X48438072Y-60080000D01*
X48425812Y-59955518D01*
X48389502Y-59835820D01*
X48330537Y-59725506D01*
X48251185Y-59628815D01*
X48154494Y-59549463D01*
X48044180Y-59490498D01*
X47924482Y-59454188D01*
X47800000Y-59441928D01*
X46566200Y-59441928D01*
X46566200Y-56647368D01*
X46620147Y-56918574D01*
X46728320Y-57179727D01*
X46885363Y-57414759D01*
X47085241Y-57614637D01*
X47320273Y-57771680D01*
X47581426Y-57879853D01*
X47858665Y-57935000D01*
X48141335Y-57935000D01*
X48418574Y-57879853D01*
X48679727Y-57771680D01*
X48914759Y-57614637D01*
X49114637Y-57414759D01*
X49271680Y-57179727D01*
X49379853Y-56918574D01*
X49435000Y-56641335D01*
X49435000Y-56358665D01*
X49379853Y-56081426D01*
X49271680Y-55820273D01*
X49114637Y-55585241D01*
X48914759Y-55385363D01*
X48712173Y-55250000D01*
X48914759Y-55114637D01*
X48994396Y-55035000D01*
X54505604Y-55035000D01*
X54585241Y-55114637D01*
G37*
%TD.AperFunction*%
D18*
X92745000Y-33868514D02*
X92745000Y-34131486D01*
X92796304Y-34389405D01*
X92896939Y-34632359D01*
X93043038Y-34851013D01*
X93228987Y-35036962D01*
X93447641Y-35183061D01*
X93569246Y-35233431D01*
X93367641Y-35316939D01*
X93148987Y-35463038D01*
X92963038Y-35648987D01*
X92816939Y-35867641D01*
X92716304Y-36110595D01*
X92665000Y-36368514D01*
X92665000Y-36631486D01*
X92716304Y-36889405D01*
X92816939Y-37132359D01*
X92963038Y-37351013D01*
X93148987Y-37536962D01*
X93367641Y-37683061D01*
X93529246Y-37750000D01*
X93367641Y-37816939D01*
X93148987Y-37963038D01*
X92963038Y-38148987D01*
X92816939Y-38367641D01*
X92716304Y-38610595D01*
X92665000Y-38868514D01*
X92665000Y-39131486D01*
X92716304Y-39389405D01*
X92816939Y-39632359D01*
X92963038Y-39851013D01*
X93148987Y-40036962D01*
X93367641Y-40183061D01*
X93529246Y-40250000D01*
X93367641Y-40316939D01*
X93148987Y-40463038D01*
X92963038Y-40648987D01*
X92816939Y-40867641D01*
X92716304Y-41110595D01*
X92665000Y-41368514D01*
X92665000Y-41631486D01*
X92716304Y-41889405D01*
X92816939Y-42132359D01*
X92963038Y-42351013D01*
X93148987Y-42536962D01*
X93367641Y-42683061D01*
X93529246Y-42750000D01*
X93367641Y-42816939D01*
X93148987Y-42963038D01*
X92963038Y-43148987D01*
X92816939Y-43367641D01*
X92716304Y-43610595D01*
X92665000Y-43868514D01*
X92665000Y-44131486D01*
X92716304Y-44389405D01*
X92816939Y-44632359D01*
X92963038Y-44851013D01*
X93148987Y-45036962D01*
X93367641Y-45183061D01*
X93610595Y-45283696D01*
X93868514Y-45335000D01*
X94131486Y-45335000D01*
X94389405Y-45283696D01*
X94632359Y-45183061D01*
X94851013Y-45036962D01*
X95036962Y-44851013D01*
X95183061Y-44632359D01*
X95283696Y-44389405D01*
X95335000Y-44131486D01*
X95335000Y-43868514D01*
X95283696Y-43610595D01*
X95183061Y-43367641D01*
X95036962Y-43148987D01*
X94851013Y-42963038D01*
X94632359Y-42816939D01*
X94470754Y-42750000D01*
X94632359Y-42683061D01*
X94851013Y-42536962D01*
X95036962Y-42351013D01*
X95183061Y-42132359D01*
X95283696Y-41889405D01*
X95335000Y-41631486D01*
X95335000Y-41368514D01*
X95283696Y-41110595D01*
X95183061Y-40867641D01*
X95036962Y-40648987D01*
X94851013Y-40463038D01*
X94632359Y-40316939D01*
X94470754Y-40250000D01*
X94632359Y-40183061D01*
X94851013Y-40036962D01*
X95036962Y-39851013D01*
X95183061Y-39632359D01*
X95283696Y-39389405D01*
X95335000Y-39131486D01*
X95335000Y-38868514D01*
X95283696Y-38610595D01*
X95183061Y-38367641D01*
X95036962Y-38148987D01*
X94851013Y-37963038D01*
X94632359Y-37816939D01*
X94470754Y-37750000D01*
X94632359Y-37683061D01*
X94851013Y-37536962D01*
X95036962Y-37351013D01*
X95183061Y-37132359D01*
X95283696Y-36889405D01*
X95335000Y-36631486D01*
X95335000Y-36368514D01*
X95283696Y-36110595D01*
X95183061Y-35867641D01*
X95036962Y-35648987D01*
X94851013Y-35463038D01*
X94632359Y-35316939D01*
X94510754Y-35266569D01*
X94712359Y-35183061D01*
X94931013Y-35036962D01*
X95116962Y-34851013D01*
X95204577Y-34719887D01*
X98715001Y-38230312D01*
X98715000Y-40255604D01*
X98635363Y-40335241D01*
X98478320Y-40570273D01*
X98370147Y-40831426D01*
X98315000Y-41108665D01*
X98315000Y-41391335D01*
X98370147Y-41668574D01*
X98478320Y-41929727D01*
X98635363Y-42164759D01*
X98835241Y-42364637D01*
X99070273Y-42521680D01*
X99331426Y-42629853D01*
X99608665Y-42685000D01*
X99891335Y-42685000D01*
X100168574Y-42629853D01*
X100429727Y-42521680D01*
X100664759Y-42364637D01*
X100864637Y-42164759D01*
X101000000Y-41962173D01*
X101135363Y-42164759D01*
X101335241Y-42364637D01*
X101570273Y-42521680D01*
X101831426Y-42629853D01*
X102108665Y-42685000D01*
X102391335Y-42685000D01*
X102668574Y-42629853D01*
X102929727Y-42521680D01*
X103164759Y-42364637D01*
X103185401Y-42343995D01*
X103185400Y-45617289D01*
X92454490Y-56348200D01*
X77811935Y-56348200D01*
X77761100Y-56343193D01*
X77710265Y-56348200D01*
X77710262Y-56348200D01*
X77558205Y-56363176D01*
X77363107Y-56422359D01*
X77287002Y-56463038D01*
X77183302Y-56518466D01*
X77080846Y-56602550D01*
X77025704Y-56647804D01*
X76993297Y-56687292D01*
X74993793Y-58686796D01*
X74891680Y-58440273D01*
X74734637Y-58205241D01*
X74534759Y-58005363D01*
X74299727Y-57848320D01*
X74038574Y-57740147D01*
X73761335Y-57685000D01*
X73648711Y-57685000D01*
X71767807Y-55804097D01*
X71735396Y-55764604D01*
X71577797Y-55635266D01*
X71397993Y-55539159D01*
X71202895Y-55479976D01*
X71050838Y-55465000D01*
X71050828Y-55465000D01*
X71000000Y-55459994D01*
X70949172Y-55465000D01*
X61494396Y-55465000D01*
X61414759Y-55385363D01*
X61212173Y-55250000D01*
X61414759Y-55114637D01*
X61614637Y-54914759D01*
X61771680Y-54679727D01*
X61879853Y-54418574D01*
X61935000Y-54141335D01*
X61935000Y-53858665D01*
X61879853Y-53581426D01*
X61771680Y-53320273D01*
X61614637Y-53085241D01*
X61414759Y-52885363D01*
X61179727Y-52728320D01*
X60918574Y-52620147D01*
X60641335Y-52565000D01*
X60358665Y-52565000D01*
X60081426Y-52620147D01*
X59820273Y-52728320D01*
X59585241Y-52885363D01*
X59385363Y-53085241D01*
X59228320Y-53320273D01*
X59120147Y-53581426D01*
X59065000Y-53858665D01*
X59065000Y-54141335D01*
X59120147Y-54418574D01*
X59228320Y-54679727D01*
X59385363Y-54914759D01*
X59585241Y-55114637D01*
X59787827Y-55250000D01*
X59585241Y-55385363D01*
X59385363Y-55585241D01*
X59228320Y-55820273D01*
X59120147Y-56081426D01*
X59065000Y-56358665D01*
X59065000Y-56641335D01*
X59112156Y-56878400D01*
X57972500Y-56878400D01*
X57972500Y-52008327D01*
X57977506Y-51957499D01*
X57972500Y-51906671D01*
X57972500Y-51906662D01*
X57957524Y-51754605D01*
X57898341Y-51559507D01*
X57813071Y-51399977D01*
X57802234Y-51379702D01*
X57705303Y-51261592D01*
X57672896Y-51222104D01*
X57633408Y-51189697D01*
X55969010Y-49525300D01*
X70181590Y-49525300D01*
X70757355Y-50101065D01*
X70661426Y-50120147D01*
X70400273Y-50228320D01*
X70165241Y-50385363D01*
X69965363Y-50585241D01*
X69810000Y-50817759D01*
X69654637Y-50585241D01*
X69454759Y-50385363D01*
X69219727Y-50228320D01*
X68958574Y-50120147D01*
X68681335Y-50065000D01*
X68398665Y-50065000D01*
X68121426Y-50120147D01*
X67860273Y-50228320D01*
X67625241Y-50385363D01*
X67425363Y-50585241D01*
X67270000Y-50817759D01*
X67114637Y-50585241D01*
X66914759Y-50385363D01*
X66679727Y-50228320D01*
X66418574Y-50120147D01*
X66141335Y-50065000D01*
X65858665Y-50065000D01*
X65581426Y-50120147D01*
X65320273Y-50228320D01*
X65085241Y-50385363D01*
X64885363Y-50585241D01*
X64728320Y-50820273D01*
X64620147Y-51081426D01*
X64565000Y-51358665D01*
X64565000Y-51641335D01*
X64620147Y-51918574D01*
X64728320Y-52179727D01*
X64885363Y-52414759D01*
X65085241Y-52614637D01*
X65320273Y-52771680D01*
X65581426Y-52879853D01*
X65858665Y-52935000D01*
X66141335Y-52935000D01*
X66418574Y-52879853D01*
X66679727Y-52771680D01*
X66914759Y-52614637D01*
X67114637Y-52414759D01*
X67270000Y-52182241D01*
X67425363Y-52414759D01*
X67625241Y-52614637D01*
X67860273Y-52771680D01*
X68121426Y-52879853D01*
X68398665Y-52935000D01*
X68511290Y-52935000D01*
X70181897Y-54605608D01*
X70214304Y-54645096D01*
X70253792Y-54677503D01*
X70371902Y-54774434D01*
X70414319Y-54797106D01*
X70551707Y-54870541D01*
X70746805Y-54929724D01*
X70898862Y-54944700D01*
X70898871Y-54944700D01*
X70949699Y-54949706D01*
X71000527Y-54944700D01*
X91789472Y-54944700D01*
X91840300Y-54949706D01*
X91891128Y-54944700D01*
X91891138Y-54944700D01*
X92043195Y-54929724D01*
X92238293Y-54870541D01*
X92418097Y-54774434D01*
X92575696Y-54645096D01*
X92608107Y-54605603D01*
X94128711Y-53085000D01*
X94131486Y-53085000D01*
X94389405Y-53033696D01*
X94632359Y-52933061D01*
X94851013Y-52786962D01*
X95036962Y-52601013D01*
X95183061Y-52382359D01*
X95283696Y-52139405D01*
X95335000Y-51881486D01*
X95335000Y-51618514D01*
X95283696Y-51360595D01*
X95183061Y-51117641D01*
X95036962Y-50898987D01*
X94851013Y-50713038D01*
X94632359Y-50566939D01*
X94470754Y-50500000D01*
X94632359Y-50433061D01*
X94851013Y-50286962D01*
X95036962Y-50101013D01*
X95183061Y-49882359D01*
X95283696Y-49639405D01*
X95335000Y-49381486D01*
X95335000Y-49118514D01*
X95283696Y-48860595D01*
X95183061Y-48617641D01*
X95036962Y-48398987D01*
X94851013Y-48213038D01*
X94632359Y-48066939D01*
X94470754Y-48000000D01*
X94632359Y-47933061D01*
X94851013Y-47786962D01*
X95036962Y-47601013D01*
X95183061Y-47382359D01*
X95283696Y-47139405D01*
X95335000Y-46881486D01*
X95335000Y-46618514D01*
X95283696Y-46360595D01*
X95183061Y-46117641D01*
X95036962Y-45898987D01*
X94851013Y-45713038D01*
X94632359Y-45566939D01*
X94389405Y-45466304D01*
X94131486Y-45415000D01*
X93868514Y-45415000D01*
X93610595Y-45466304D01*
X93367641Y-45566939D01*
X93148987Y-45713038D01*
X92963038Y-45898987D01*
X92816939Y-46117641D01*
X92716304Y-46360595D01*
X92665000Y-46618514D01*
X92665000Y-46881486D01*
X92716304Y-47139405D01*
X92816939Y-47382359D01*
X92963038Y-47601013D01*
X93148987Y-47786962D01*
X93367641Y-47933061D01*
X93529246Y-48000000D01*
X93367641Y-48066939D01*
X93148987Y-48213038D01*
X92963038Y-48398987D01*
X92816939Y-48617641D01*
X92716304Y-48860595D01*
X92665000Y-49118514D01*
X92665000Y-49381486D01*
X92716304Y-49639405D01*
X92816939Y-49882359D01*
X92963038Y-50101013D01*
X93148987Y-50286962D01*
X93367641Y-50433061D01*
X93529246Y-50500000D01*
X93367641Y-50566939D01*
X93148987Y-50713038D01*
X92963038Y-50898987D01*
X92816939Y-51117641D01*
X92716304Y-51360595D01*
X92665000Y-51618514D01*
X92665000Y-51621289D01*
X91411590Y-52874700D01*
X89639703Y-52874700D01*
X89771013Y-52786962D01*
X89956962Y-52601013D01*
X90103061Y-52382359D01*
X90203696Y-52139405D01*
X90255000Y-51881486D01*
X90255000Y-51618514D01*
X90203696Y-51360595D01*
X90103061Y-51117641D01*
X89956962Y-50898987D01*
X89771013Y-50713038D01*
X89552359Y-50566939D01*
X89390754Y-50500000D01*
X89552359Y-50433061D01*
X89771013Y-50286962D01*
X89956962Y-50101013D01*
X90103061Y-49882359D01*
X90203696Y-49639405D01*
X90255000Y-49381486D01*
X90255000Y-49118514D01*
X90203696Y-48860595D01*
X90103061Y-48617641D01*
X89956962Y-48398987D01*
X89771013Y-48213038D01*
X89552359Y-48066939D01*
X89390754Y-48000000D01*
X89552359Y-47933061D01*
X89771013Y-47786962D01*
X89956962Y-47601013D01*
X90103061Y-47382359D01*
X90203696Y-47139405D01*
X90255000Y-46881486D01*
X90255000Y-46618514D01*
X90203696Y-46360595D01*
X90103061Y-46117641D01*
X89956962Y-45898987D01*
X89771013Y-45713038D01*
X89552359Y-45566939D01*
X89309405Y-45466304D01*
X89051486Y-45415000D01*
X88788514Y-45415000D01*
X88530595Y-45466304D01*
X88287641Y-45566939D01*
X88068987Y-45713038D01*
X88067025Y-45715000D01*
X87688352Y-45715000D01*
X87572895Y-45679976D01*
X87420838Y-45665000D01*
X87420828Y-45665000D01*
X87370000Y-45659994D01*
X87319172Y-45665000D01*
X86964396Y-45665000D01*
X86884759Y-45585363D01*
X86652241Y-45430000D01*
X86884759Y-45274637D01*
X86964396Y-45195000D01*
X87209172Y-45195000D01*
X87260000Y-45200006D01*
X87310828Y-45195000D01*
X87310838Y-45195000D01*
X87462895Y-45180024D01*
X87657993Y-45120841D01*
X87818591Y-45035000D01*
X88067025Y-45035000D01*
X88068987Y-45036962D01*
X88287641Y-45183061D01*
X88530595Y-45283696D01*
X88788514Y-45335000D01*
X89051486Y-45335000D01*
X89309405Y-45283696D01*
X89552359Y-45183061D01*
X89771013Y-45036962D01*
X89956962Y-44851013D01*
X90103061Y-44632359D01*
X90203696Y-44389405D01*
X90255000Y-44131486D01*
X90255000Y-43868514D01*
X90203696Y-43610595D01*
X90103061Y-43367641D01*
X89956962Y-43148987D01*
X89771013Y-42963038D01*
X89552359Y-42816939D01*
X89390754Y-42750000D01*
X89552359Y-42683061D01*
X89771013Y-42536962D01*
X89956962Y-42351013D01*
X90103061Y-42132359D01*
X90203696Y-41889405D01*
X90255000Y-41631486D01*
X90255000Y-41368514D01*
X90203696Y-41110595D01*
X90103061Y-40867641D01*
X89956962Y-40648987D01*
X89771013Y-40463038D01*
X89552359Y-40316939D01*
X89390754Y-40250000D01*
X89552359Y-40183061D01*
X89771013Y-40036962D01*
X89956962Y-39851013D01*
X90103061Y-39632359D01*
X90203696Y-39389405D01*
X90255000Y-39131486D01*
X90255000Y-38868514D01*
X90203696Y-38610595D01*
X90103061Y-38367641D01*
X89956962Y-38148987D01*
X89771013Y-37963038D01*
X89552359Y-37816939D01*
X89390754Y-37750000D01*
X89552359Y-37683061D01*
X89771013Y-37536962D01*
X89956962Y-37351013D01*
X90103061Y-37132359D01*
X90203696Y-36889405D01*
X90255000Y-36631486D01*
X90255000Y-36368514D01*
X90203696Y-36110595D01*
X90103061Y-35867641D01*
X89956962Y-35648987D01*
X89771013Y-35463038D01*
X89552359Y-35316939D01*
X89430754Y-35266569D01*
X89632359Y-35183061D01*
X89851013Y-35036962D01*
X90036962Y-34851013D01*
X90183061Y-34632359D01*
X90283696Y-34389405D01*
X90335000Y-34131486D01*
X90335000Y-33868514D01*
X90285070Y-33617500D01*
X92794930Y-33617500D01*
X92745000Y-33868514D01*
%TA.AperFunction,Conductor*%
D19*
G36*
X92745000Y-33868514D02*
G01*
X92745000Y-34131486D01*
X92796304Y-34389405D01*
X92896939Y-34632359D01*
X93043038Y-34851013D01*
X93228987Y-35036962D01*
X93447641Y-35183061D01*
X93569246Y-35233431D01*
X93367641Y-35316939D01*
X93148987Y-35463038D01*
X92963038Y-35648987D01*
X92816939Y-35867641D01*
X92716304Y-36110595D01*
X92665000Y-36368514D01*
X92665000Y-36631486D01*
X92716304Y-36889405D01*
X92816939Y-37132359D01*
X92963038Y-37351013D01*
X93148987Y-37536962D01*
X93367641Y-37683061D01*
X93529246Y-37750000D01*
X93367641Y-37816939D01*
X93148987Y-37963038D01*
X92963038Y-38148987D01*
X92816939Y-38367641D01*
X92716304Y-38610595D01*
X92665000Y-38868514D01*
X92665000Y-39131486D01*
X92716304Y-39389405D01*
X92816939Y-39632359D01*
X92963038Y-39851013D01*
X93148987Y-40036962D01*
X93367641Y-40183061D01*
X93529246Y-40250000D01*
X93367641Y-40316939D01*
X93148987Y-40463038D01*
X92963038Y-40648987D01*
X92816939Y-40867641D01*
X92716304Y-41110595D01*
X92665000Y-41368514D01*
X92665000Y-41631486D01*
X92716304Y-41889405D01*
X92816939Y-42132359D01*
X92963038Y-42351013D01*
X93148987Y-42536962D01*
X93367641Y-42683061D01*
X93529246Y-42750000D01*
X93367641Y-42816939D01*
X93148987Y-42963038D01*
X92963038Y-43148987D01*
X92816939Y-43367641D01*
X92716304Y-43610595D01*
X92665000Y-43868514D01*
X92665000Y-44131486D01*
X92716304Y-44389405D01*
X92816939Y-44632359D01*
X92963038Y-44851013D01*
X93148987Y-45036962D01*
X93367641Y-45183061D01*
X93610595Y-45283696D01*
X93868514Y-45335000D01*
X94131486Y-45335000D01*
X94389405Y-45283696D01*
X94632359Y-45183061D01*
X94851013Y-45036962D01*
X95036962Y-44851013D01*
X95183061Y-44632359D01*
X95283696Y-44389405D01*
X95335000Y-44131486D01*
X95335000Y-43868514D01*
X95283696Y-43610595D01*
X95183061Y-43367641D01*
X95036962Y-43148987D01*
X94851013Y-42963038D01*
X94632359Y-42816939D01*
X94470754Y-42750000D01*
X94632359Y-42683061D01*
X94851013Y-42536962D01*
X95036962Y-42351013D01*
X95183061Y-42132359D01*
X95283696Y-41889405D01*
X95335000Y-41631486D01*
X95335000Y-41368514D01*
X95283696Y-41110595D01*
X95183061Y-40867641D01*
X95036962Y-40648987D01*
X94851013Y-40463038D01*
X94632359Y-40316939D01*
X94470754Y-40250000D01*
X94632359Y-40183061D01*
X94851013Y-40036962D01*
X95036962Y-39851013D01*
X95183061Y-39632359D01*
X95283696Y-39389405D01*
X95335000Y-39131486D01*
X95335000Y-38868514D01*
X95283696Y-38610595D01*
X95183061Y-38367641D01*
X95036962Y-38148987D01*
X94851013Y-37963038D01*
X94632359Y-37816939D01*
X94470754Y-37750000D01*
X94632359Y-37683061D01*
X94851013Y-37536962D01*
X95036962Y-37351013D01*
X95183061Y-37132359D01*
X95283696Y-36889405D01*
X95335000Y-36631486D01*
X95335000Y-36368514D01*
X95283696Y-36110595D01*
X95183061Y-35867641D01*
X95036962Y-35648987D01*
X94851013Y-35463038D01*
X94632359Y-35316939D01*
X94510754Y-35266569D01*
X94712359Y-35183061D01*
X94931013Y-35036962D01*
X95116962Y-34851013D01*
X95204577Y-34719887D01*
X98715001Y-38230312D01*
X98715000Y-40255604D01*
X98635363Y-40335241D01*
X98478320Y-40570273D01*
X98370147Y-40831426D01*
X98315000Y-41108665D01*
X98315000Y-41391335D01*
X98370147Y-41668574D01*
X98478320Y-41929727D01*
X98635363Y-42164759D01*
X98835241Y-42364637D01*
X99070273Y-42521680D01*
X99331426Y-42629853D01*
X99608665Y-42685000D01*
X99891335Y-42685000D01*
X100168574Y-42629853D01*
X100429727Y-42521680D01*
X100664759Y-42364637D01*
X100864637Y-42164759D01*
X101000000Y-41962173D01*
X101135363Y-42164759D01*
X101335241Y-42364637D01*
X101570273Y-42521680D01*
X101831426Y-42629853D01*
X102108665Y-42685000D01*
X102391335Y-42685000D01*
X102668574Y-42629853D01*
X102929727Y-42521680D01*
X103164759Y-42364637D01*
X103185401Y-42343995D01*
X103185400Y-45617289D01*
X92454490Y-56348200D01*
X77811935Y-56348200D01*
X77761100Y-56343193D01*
X77710265Y-56348200D01*
X77710262Y-56348200D01*
X77558205Y-56363176D01*
X77363107Y-56422359D01*
X77287002Y-56463038D01*
X77183302Y-56518466D01*
X77080846Y-56602550D01*
X77025704Y-56647804D01*
X76993297Y-56687292D01*
X74993793Y-58686796D01*
X74891680Y-58440273D01*
X74734637Y-58205241D01*
X74534759Y-58005363D01*
X74299727Y-57848320D01*
X74038574Y-57740147D01*
X73761335Y-57685000D01*
X73648711Y-57685000D01*
X71767807Y-55804097D01*
X71735396Y-55764604D01*
X71577797Y-55635266D01*
X71397993Y-55539159D01*
X71202895Y-55479976D01*
X71050838Y-55465000D01*
X71050828Y-55465000D01*
X71000000Y-55459994D01*
X70949172Y-55465000D01*
X61494396Y-55465000D01*
X61414759Y-55385363D01*
X61212173Y-55250000D01*
X61414759Y-55114637D01*
X61614637Y-54914759D01*
X61771680Y-54679727D01*
X61879853Y-54418574D01*
X61935000Y-54141335D01*
X61935000Y-53858665D01*
X61879853Y-53581426D01*
X61771680Y-53320273D01*
X61614637Y-53085241D01*
X61414759Y-52885363D01*
X61179727Y-52728320D01*
X60918574Y-52620147D01*
X60641335Y-52565000D01*
X60358665Y-52565000D01*
X60081426Y-52620147D01*
X59820273Y-52728320D01*
X59585241Y-52885363D01*
X59385363Y-53085241D01*
X59228320Y-53320273D01*
X59120147Y-53581426D01*
X59065000Y-53858665D01*
X59065000Y-54141335D01*
X59120147Y-54418574D01*
X59228320Y-54679727D01*
X59385363Y-54914759D01*
X59585241Y-55114637D01*
X59787827Y-55250000D01*
X59585241Y-55385363D01*
X59385363Y-55585241D01*
X59228320Y-55820273D01*
X59120147Y-56081426D01*
X59065000Y-56358665D01*
X59065000Y-56641335D01*
X59112156Y-56878400D01*
X57972500Y-56878400D01*
X57972500Y-52008327D01*
X57977506Y-51957499D01*
X57972500Y-51906671D01*
X57972500Y-51906662D01*
X57957524Y-51754605D01*
X57898341Y-51559507D01*
X57813071Y-51399977D01*
X57802234Y-51379702D01*
X57705303Y-51261592D01*
X57672896Y-51222104D01*
X57633408Y-51189697D01*
X55969010Y-49525300D01*
X70181590Y-49525300D01*
X70757355Y-50101065D01*
X70661426Y-50120147D01*
X70400273Y-50228320D01*
X70165241Y-50385363D01*
X69965363Y-50585241D01*
X69810000Y-50817759D01*
X69654637Y-50585241D01*
X69454759Y-50385363D01*
X69219727Y-50228320D01*
X68958574Y-50120147D01*
X68681335Y-50065000D01*
X68398665Y-50065000D01*
X68121426Y-50120147D01*
X67860273Y-50228320D01*
X67625241Y-50385363D01*
X67425363Y-50585241D01*
X67270000Y-50817759D01*
X67114637Y-50585241D01*
X66914759Y-50385363D01*
X66679727Y-50228320D01*
X66418574Y-50120147D01*
X66141335Y-50065000D01*
X65858665Y-50065000D01*
X65581426Y-50120147D01*
X65320273Y-50228320D01*
X65085241Y-50385363D01*
X64885363Y-50585241D01*
X64728320Y-50820273D01*
X64620147Y-51081426D01*
X64565000Y-51358665D01*
X64565000Y-51641335D01*
X64620147Y-51918574D01*
X64728320Y-52179727D01*
X64885363Y-52414759D01*
X65085241Y-52614637D01*
X65320273Y-52771680D01*
X65581426Y-52879853D01*
X65858665Y-52935000D01*
X66141335Y-52935000D01*
X66418574Y-52879853D01*
X66679727Y-52771680D01*
X66914759Y-52614637D01*
X67114637Y-52414759D01*
X67270000Y-52182241D01*
X67425363Y-52414759D01*
X67625241Y-52614637D01*
X67860273Y-52771680D01*
X68121426Y-52879853D01*
X68398665Y-52935000D01*
X68511290Y-52935000D01*
X70181897Y-54605608D01*
X70214304Y-54645096D01*
X70253792Y-54677503D01*
X70371902Y-54774434D01*
X70414319Y-54797106D01*
X70551707Y-54870541D01*
X70746805Y-54929724D01*
X70898862Y-54944700D01*
X70898871Y-54944700D01*
X70949699Y-54949706D01*
X71000527Y-54944700D01*
X91789472Y-54944700D01*
X91840300Y-54949706D01*
X91891128Y-54944700D01*
X91891138Y-54944700D01*
X92043195Y-54929724D01*
X92238293Y-54870541D01*
X92418097Y-54774434D01*
X92575696Y-54645096D01*
X92608107Y-54605603D01*
X94128711Y-53085000D01*
X94131486Y-53085000D01*
X94389405Y-53033696D01*
X94632359Y-52933061D01*
X94851013Y-52786962D01*
X95036962Y-52601013D01*
X95183061Y-52382359D01*
X95283696Y-52139405D01*
X95335000Y-51881486D01*
X95335000Y-51618514D01*
X95283696Y-51360595D01*
X95183061Y-51117641D01*
X95036962Y-50898987D01*
X94851013Y-50713038D01*
X94632359Y-50566939D01*
X94470754Y-50500000D01*
X94632359Y-50433061D01*
X94851013Y-50286962D01*
X95036962Y-50101013D01*
X95183061Y-49882359D01*
X95283696Y-49639405D01*
X95335000Y-49381486D01*
X95335000Y-49118514D01*
X95283696Y-48860595D01*
X95183061Y-48617641D01*
X95036962Y-48398987D01*
X94851013Y-48213038D01*
X94632359Y-48066939D01*
X94470754Y-48000000D01*
X94632359Y-47933061D01*
X94851013Y-47786962D01*
X95036962Y-47601013D01*
X95183061Y-47382359D01*
X95283696Y-47139405D01*
X95335000Y-46881486D01*
X95335000Y-46618514D01*
X95283696Y-46360595D01*
X95183061Y-46117641D01*
X95036962Y-45898987D01*
X94851013Y-45713038D01*
X94632359Y-45566939D01*
X94389405Y-45466304D01*
X94131486Y-45415000D01*
X93868514Y-45415000D01*
X93610595Y-45466304D01*
X93367641Y-45566939D01*
X93148987Y-45713038D01*
X92963038Y-45898987D01*
X92816939Y-46117641D01*
X92716304Y-46360595D01*
X92665000Y-46618514D01*
X92665000Y-46881486D01*
X92716304Y-47139405D01*
X92816939Y-47382359D01*
X92963038Y-47601013D01*
X93148987Y-47786962D01*
X93367641Y-47933061D01*
X93529246Y-48000000D01*
X93367641Y-48066939D01*
X93148987Y-48213038D01*
X92963038Y-48398987D01*
X92816939Y-48617641D01*
X92716304Y-48860595D01*
X92665000Y-49118514D01*
X92665000Y-49381486D01*
X92716304Y-49639405D01*
X92816939Y-49882359D01*
X92963038Y-50101013D01*
X93148987Y-50286962D01*
X93367641Y-50433061D01*
X93529246Y-50500000D01*
X93367641Y-50566939D01*
X93148987Y-50713038D01*
X92963038Y-50898987D01*
X92816939Y-51117641D01*
X92716304Y-51360595D01*
X92665000Y-51618514D01*
X92665000Y-51621289D01*
X91411590Y-52874700D01*
X89639703Y-52874700D01*
X89771013Y-52786962D01*
X89956962Y-52601013D01*
X90103061Y-52382359D01*
X90203696Y-52139405D01*
X90255000Y-51881486D01*
X90255000Y-51618514D01*
X90203696Y-51360595D01*
X90103061Y-51117641D01*
X89956962Y-50898987D01*
X89771013Y-50713038D01*
X89552359Y-50566939D01*
X89390754Y-50500000D01*
X89552359Y-50433061D01*
X89771013Y-50286962D01*
X89956962Y-50101013D01*
X90103061Y-49882359D01*
X90203696Y-49639405D01*
X90255000Y-49381486D01*
X90255000Y-49118514D01*
X90203696Y-48860595D01*
X90103061Y-48617641D01*
X89956962Y-48398987D01*
X89771013Y-48213038D01*
X89552359Y-48066939D01*
X89390754Y-48000000D01*
X89552359Y-47933061D01*
X89771013Y-47786962D01*
X89956962Y-47601013D01*
X90103061Y-47382359D01*
X90203696Y-47139405D01*
X90255000Y-46881486D01*
X90255000Y-46618514D01*
X90203696Y-46360595D01*
X90103061Y-46117641D01*
X89956962Y-45898987D01*
X89771013Y-45713038D01*
X89552359Y-45566939D01*
X89309405Y-45466304D01*
X89051486Y-45415000D01*
X88788514Y-45415000D01*
X88530595Y-45466304D01*
X88287641Y-45566939D01*
X88068987Y-45713038D01*
X88067025Y-45715000D01*
X87688352Y-45715000D01*
X87572895Y-45679976D01*
X87420838Y-45665000D01*
X87420828Y-45665000D01*
X87370000Y-45659994D01*
X87319172Y-45665000D01*
X86964396Y-45665000D01*
X86884759Y-45585363D01*
X86652241Y-45430000D01*
X86884759Y-45274637D01*
X86964396Y-45195000D01*
X87209172Y-45195000D01*
X87260000Y-45200006D01*
X87310828Y-45195000D01*
X87310838Y-45195000D01*
X87462895Y-45180024D01*
X87657993Y-45120841D01*
X87818591Y-45035000D01*
X88067025Y-45035000D01*
X88068987Y-45036962D01*
X88287641Y-45183061D01*
X88530595Y-45283696D01*
X88788514Y-45335000D01*
X89051486Y-45335000D01*
X89309405Y-45283696D01*
X89552359Y-45183061D01*
X89771013Y-45036962D01*
X89956962Y-44851013D01*
X90103061Y-44632359D01*
X90203696Y-44389405D01*
X90255000Y-44131486D01*
X90255000Y-43868514D01*
X90203696Y-43610595D01*
X90103061Y-43367641D01*
X89956962Y-43148987D01*
X89771013Y-42963038D01*
X89552359Y-42816939D01*
X89390754Y-42750000D01*
X89552359Y-42683061D01*
X89771013Y-42536962D01*
X89956962Y-42351013D01*
X90103061Y-42132359D01*
X90203696Y-41889405D01*
X90255000Y-41631486D01*
X90255000Y-41368514D01*
X90203696Y-41110595D01*
X90103061Y-40867641D01*
X89956962Y-40648987D01*
X89771013Y-40463038D01*
X89552359Y-40316939D01*
X89390754Y-40250000D01*
X89552359Y-40183061D01*
X89771013Y-40036962D01*
X89956962Y-39851013D01*
X90103061Y-39632359D01*
X90203696Y-39389405D01*
X90255000Y-39131486D01*
X90255000Y-38868514D01*
X90203696Y-38610595D01*
X90103061Y-38367641D01*
X89956962Y-38148987D01*
X89771013Y-37963038D01*
X89552359Y-37816939D01*
X89390754Y-37750000D01*
X89552359Y-37683061D01*
X89771013Y-37536962D01*
X89956962Y-37351013D01*
X90103061Y-37132359D01*
X90203696Y-36889405D01*
X90255000Y-36631486D01*
X90255000Y-36368514D01*
X90203696Y-36110595D01*
X90103061Y-35867641D01*
X89956962Y-35648987D01*
X89771013Y-35463038D01*
X89552359Y-35316939D01*
X89430754Y-35266569D01*
X89632359Y-35183061D01*
X89851013Y-35036962D01*
X90036962Y-34851013D01*
X90183061Y-34632359D01*
X90283696Y-34389405D01*
X90335000Y-34131486D01*
X90335000Y-33868514D01*
X90285070Y-33617500D01*
X92794930Y-33617500D01*
X92745000Y-33868514D01*
G37*
%TD.AperFunction*%
D18*
X84535000Y-33858665D02*
X84535000Y-34141335D01*
X84590147Y-34418574D01*
X84698320Y-34679727D01*
X84855363Y-34914759D01*
X85055241Y-35114637D01*
X85287759Y-35270000D01*
X85055241Y-35425363D01*
X84855363Y-35625241D01*
X84698320Y-35860273D01*
X84590147Y-36121426D01*
X84535000Y-36398665D01*
X84535000Y-36681335D01*
X84590147Y-36958574D01*
X84698320Y-37219727D01*
X84855363Y-37454759D01*
X85055241Y-37654637D01*
X85287759Y-37810000D01*
X85055241Y-37965363D01*
X84855363Y-38165241D01*
X84698320Y-38400273D01*
X84590147Y-38661426D01*
X84535000Y-38938665D01*
X84535000Y-39221335D01*
X84590147Y-39498574D01*
X84698320Y-39759727D01*
X84855363Y-39994759D01*
X85055241Y-40194637D01*
X85287759Y-40350000D01*
X85055241Y-40505363D01*
X84855363Y-40705241D01*
X84698320Y-40940273D01*
X84590147Y-41201426D01*
X84535000Y-41478665D01*
X84535000Y-41761335D01*
X84590147Y-42038574D01*
X84698320Y-42299727D01*
X84855363Y-42534759D01*
X85055241Y-42734637D01*
X85287759Y-42890000D01*
X85055241Y-43045363D01*
X84855363Y-43245241D01*
X84698320Y-43480273D01*
X84590147Y-43741426D01*
X84535000Y-44018665D01*
X84535000Y-44301335D01*
X84590147Y-44578574D01*
X84698320Y-44839727D01*
X84855363Y-45074759D01*
X85055241Y-45274637D01*
X85287759Y-45430000D01*
X85055241Y-45585363D01*
X84855363Y-45785241D01*
X84698320Y-46020273D01*
X84590147Y-46281426D01*
X84535000Y-46558665D01*
X84535000Y-46841335D01*
X84590147Y-47118574D01*
X84698320Y-47379727D01*
X84855363Y-47614759D01*
X85055241Y-47814637D01*
X85287759Y-47970000D01*
X85055241Y-48125363D01*
X84855363Y-48325241D01*
X84698320Y-48560273D01*
X84590147Y-48821426D01*
X84535000Y-49098665D01*
X84535000Y-49381335D01*
X84590147Y-49658574D01*
X84698320Y-49919727D01*
X84855363Y-50154759D01*
X85055241Y-50354637D01*
X85287759Y-50510000D01*
X85055241Y-50665363D01*
X84855363Y-50865241D01*
X84698320Y-51100273D01*
X84590147Y-51361426D01*
X84535000Y-51638665D01*
X84535000Y-51921335D01*
X84590147Y-52198574D01*
X84698320Y-52459727D01*
X84855363Y-52694759D01*
X85035304Y-52874700D01*
X79284696Y-52874700D01*
X79464637Y-52694759D01*
X79621680Y-52459727D01*
X79729853Y-52198574D01*
X79785000Y-51921335D01*
X79785000Y-51638665D01*
X79729853Y-51361426D01*
X79621680Y-51100273D01*
X79464637Y-50865241D01*
X79264759Y-50665363D01*
X79032241Y-50510000D01*
X79264759Y-50354637D01*
X79464637Y-50154759D01*
X79621680Y-49919727D01*
X79729853Y-49658574D01*
X79785000Y-49381335D01*
X79785000Y-49098665D01*
X79729853Y-48821426D01*
X79621680Y-48560273D01*
X79464637Y-48325241D01*
X79264759Y-48125363D01*
X79032241Y-47970000D01*
X79264759Y-47814637D01*
X79464637Y-47614759D01*
X79621680Y-47379727D01*
X79729853Y-47118574D01*
X79785000Y-46841335D01*
X79785000Y-46558665D01*
X79729853Y-46281426D01*
X79621680Y-46020273D01*
X79464637Y-45785241D01*
X79264759Y-45585363D01*
X79032241Y-45430000D01*
X79264759Y-45274637D01*
X79464637Y-45074759D01*
X79621680Y-44839727D01*
X79729853Y-44578574D01*
X79785000Y-44301335D01*
X79785000Y-44018665D01*
X79729853Y-43741426D01*
X79621680Y-43480273D01*
X79464637Y-43245241D01*
X79264759Y-43045363D01*
X79032241Y-42890000D01*
X79264759Y-42734637D01*
X79464637Y-42534759D01*
X79621680Y-42299727D01*
X79729853Y-42038574D01*
X79785000Y-41761335D01*
X79785000Y-41478665D01*
X79729853Y-41201426D01*
X79621680Y-40940273D01*
X79464637Y-40705241D01*
X79264759Y-40505363D01*
X79032241Y-40350000D01*
X79264759Y-40194637D01*
X79464637Y-39994759D01*
X79621680Y-39759727D01*
X79729853Y-39498574D01*
X79785000Y-39221335D01*
X79785000Y-38938665D01*
X79729853Y-38661426D01*
X79621680Y-38400273D01*
X79464637Y-38165241D01*
X79264759Y-37965363D01*
X79032241Y-37810000D01*
X79264759Y-37654637D01*
X79464637Y-37454759D01*
X79621680Y-37219727D01*
X79729853Y-36958574D01*
X79785000Y-36681335D01*
X79785000Y-36398665D01*
X79729853Y-36121426D01*
X79621680Y-35860273D01*
X79464637Y-35625241D01*
X79266039Y-35426643D01*
X79274482Y-35425812D01*
X79394180Y-35389502D01*
X79504494Y-35330537D01*
X79601185Y-35251185D01*
X79680537Y-35154494D01*
X79739502Y-35044180D01*
X79775812Y-34924482D01*
X79788072Y-34800000D01*
X79788072Y-33617500D01*
X84582971Y-33617500D01*
X84535000Y-33858665D01*
%TA.AperFunction,Conductor*%
D19*
G36*
X84535000Y-33858665D02*
G01*
X84535000Y-34141335D01*
X84590147Y-34418574D01*
X84698320Y-34679727D01*
X84855363Y-34914759D01*
X85055241Y-35114637D01*
X85287759Y-35270000D01*
X85055241Y-35425363D01*
X84855363Y-35625241D01*
X84698320Y-35860273D01*
X84590147Y-36121426D01*
X84535000Y-36398665D01*
X84535000Y-36681335D01*
X84590147Y-36958574D01*
X84698320Y-37219727D01*
X84855363Y-37454759D01*
X85055241Y-37654637D01*
X85287759Y-37810000D01*
X85055241Y-37965363D01*
X84855363Y-38165241D01*
X84698320Y-38400273D01*
X84590147Y-38661426D01*
X84535000Y-38938665D01*
X84535000Y-39221335D01*
X84590147Y-39498574D01*
X84698320Y-39759727D01*
X84855363Y-39994759D01*
X85055241Y-40194637D01*
X85287759Y-40350000D01*
X85055241Y-40505363D01*
X84855363Y-40705241D01*
X84698320Y-40940273D01*
X84590147Y-41201426D01*
X84535000Y-41478665D01*
X84535000Y-41761335D01*
X84590147Y-42038574D01*
X84698320Y-42299727D01*
X84855363Y-42534759D01*
X85055241Y-42734637D01*
X85287759Y-42890000D01*
X85055241Y-43045363D01*
X84855363Y-43245241D01*
X84698320Y-43480273D01*
X84590147Y-43741426D01*
X84535000Y-44018665D01*
X84535000Y-44301335D01*
X84590147Y-44578574D01*
X84698320Y-44839727D01*
X84855363Y-45074759D01*
X85055241Y-45274637D01*
X85287759Y-45430000D01*
X85055241Y-45585363D01*
X84855363Y-45785241D01*
X84698320Y-46020273D01*
X84590147Y-46281426D01*
X84535000Y-46558665D01*
X84535000Y-46841335D01*
X84590147Y-47118574D01*
X84698320Y-47379727D01*
X84855363Y-47614759D01*
X85055241Y-47814637D01*
X85287759Y-47970000D01*
X85055241Y-48125363D01*
X84855363Y-48325241D01*
X84698320Y-48560273D01*
X84590147Y-48821426D01*
X84535000Y-49098665D01*
X84535000Y-49381335D01*
X84590147Y-49658574D01*
X84698320Y-49919727D01*
X84855363Y-50154759D01*
X85055241Y-50354637D01*
X85287759Y-50510000D01*
X85055241Y-50665363D01*
X84855363Y-50865241D01*
X84698320Y-51100273D01*
X84590147Y-51361426D01*
X84535000Y-51638665D01*
X84535000Y-51921335D01*
X84590147Y-52198574D01*
X84698320Y-52459727D01*
X84855363Y-52694759D01*
X85035304Y-52874700D01*
X79284696Y-52874700D01*
X79464637Y-52694759D01*
X79621680Y-52459727D01*
X79729853Y-52198574D01*
X79785000Y-51921335D01*
X79785000Y-51638665D01*
X79729853Y-51361426D01*
X79621680Y-51100273D01*
X79464637Y-50865241D01*
X79264759Y-50665363D01*
X79032241Y-50510000D01*
X79264759Y-50354637D01*
X79464637Y-50154759D01*
X79621680Y-49919727D01*
X79729853Y-49658574D01*
X79785000Y-49381335D01*
X79785000Y-49098665D01*
X79729853Y-48821426D01*
X79621680Y-48560273D01*
X79464637Y-48325241D01*
X79264759Y-48125363D01*
X79032241Y-47970000D01*
X79264759Y-47814637D01*
X79464637Y-47614759D01*
X79621680Y-47379727D01*
X79729853Y-47118574D01*
X79785000Y-46841335D01*
X79785000Y-46558665D01*
X79729853Y-46281426D01*
X79621680Y-46020273D01*
X79464637Y-45785241D01*
X79264759Y-45585363D01*
X79032241Y-45430000D01*
X79264759Y-45274637D01*
X79464637Y-45074759D01*
X79621680Y-44839727D01*
X79729853Y-44578574D01*
X79785000Y-44301335D01*
X79785000Y-44018665D01*
X79729853Y-43741426D01*
X79621680Y-43480273D01*
X79464637Y-43245241D01*
X79264759Y-43045363D01*
X79032241Y-42890000D01*
X79264759Y-42734637D01*
X79464637Y-42534759D01*
X79621680Y-42299727D01*
X79729853Y-42038574D01*
X79785000Y-41761335D01*
X79785000Y-41478665D01*
X79729853Y-41201426D01*
X79621680Y-40940273D01*
X79464637Y-40705241D01*
X79264759Y-40505363D01*
X79032241Y-40350000D01*
X79264759Y-40194637D01*
X79464637Y-39994759D01*
X79621680Y-39759727D01*
X79729853Y-39498574D01*
X79785000Y-39221335D01*
X79785000Y-38938665D01*
X79729853Y-38661426D01*
X79621680Y-38400273D01*
X79464637Y-38165241D01*
X79264759Y-37965363D01*
X79032241Y-37810000D01*
X79264759Y-37654637D01*
X79464637Y-37454759D01*
X79621680Y-37219727D01*
X79729853Y-36958574D01*
X79785000Y-36681335D01*
X79785000Y-36398665D01*
X79729853Y-36121426D01*
X79621680Y-35860273D01*
X79464637Y-35625241D01*
X79266039Y-35426643D01*
X79274482Y-35425812D01*
X79394180Y-35389502D01*
X79504494Y-35330537D01*
X79601185Y-35251185D01*
X79680537Y-35154494D01*
X79739502Y-35044180D01*
X79775812Y-34924482D01*
X79788072Y-34800000D01*
X79788072Y-33617500D01*
X84582971Y-33617500D01*
X84535000Y-33858665D01*
G37*
%TD.AperFunction*%
%TD*%
M02*
