%TF.GenerationSoftware,KiCad,Pcbnew,7.0.0-da2b9df05c~171~ubuntu22.04.1*%
%TF.CreationDate,2023-03-13T14:35:49+01:00*%
%TF.ProjectId,tht-dip,7468742d-6469-4702-9e6b-696361645f70,rev?*%
%TF.SameCoordinates,Original*%
%TF.FileFunction,Drillmap*%
%TF.FilePolarity,Positive*%
%FSLAX45Y45*%
G04 Gerber Fmt 4.5, Leading zero omitted, Abs format (unit mm)*
G04 Created by KiCad (PCBNEW 7.0.0-da2b9df05c~171~ubuntu22.04.1) date 2023-03-13 14:35:49*
%MOMM*%
%LPD*%
G01*
G04 APERTURE LIST*
%ADD10C,0.050000*%
%ADD11C,0.200000*%
G04 APERTURE END LIST*
D10*
X3500000Y-8000000D02*
X3500000Y-3100000D01*
X3500000Y-3100000D02*
X13500000Y-3100000D01*
X13500000Y-8000000D02*
X3500000Y-8000000D01*
X13500000Y-3100000D02*
X13500000Y-8000000D01*
D11*
X3745119Y-8295976D02*
X3745119Y-8095976D01*
X3745119Y-8095976D02*
X3792738Y-8095976D01*
X3792738Y-8095976D02*
X3821309Y-8105500D01*
X3821309Y-8105500D02*
X3840357Y-8124548D01*
X3840357Y-8124548D02*
X3849881Y-8143595D01*
X3849881Y-8143595D02*
X3859405Y-8181690D01*
X3859405Y-8181690D02*
X3859405Y-8210262D01*
X3859405Y-8210262D02*
X3849881Y-8248357D01*
X3849881Y-8248357D02*
X3840357Y-8267405D01*
X3840357Y-8267405D02*
X3821309Y-8286452D01*
X3821309Y-8286452D02*
X3792738Y-8295976D01*
X3792738Y-8295976D02*
X3745119Y-8295976D01*
X3945119Y-8295976D02*
X3945119Y-8162643D01*
X3945119Y-8200738D02*
X3954643Y-8181690D01*
X3954643Y-8181690D02*
X3964167Y-8172167D01*
X3964167Y-8172167D02*
X3983214Y-8162643D01*
X3983214Y-8162643D02*
X4002262Y-8162643D01*
X4068928Y-8295976D02*
X4068928Y-8162643D01*
X4068928Y-8095976D02*
X4059405Y-8105500D01*
X4059405Y-8105500D02*
X4068928Y-8115024D01*
X4068928Y-8115024D02*
X4078452Y-8105500D01*
X4078452Y-8105500D02*
X4068928Y-8095976D01*
X4068928Y-8095976D02*
X4068928Y-8115024D01*
X4192738Y-8295976D02*
X4173690Y-8286452D01*
X4173690Y-8286452D02*
X4164167Y-8267405D01*
X4164167Y-8267405D02*
X4164167Y-8095976D01*
X4297500Y-8295976D02*
X4278452Y-8286452D01*
X4278452Y-8286452D02*
X4268929Y-8267405D01*
X4268929Y-8267405D02*
X4268929Y-8095976D01*
X4493690Y-8295976D02*
X4493690Y-8095976D01*
X4493690Y-8095976D02*
X4560357Y-8238833D01*
X4560357Y-8238833D02*
X4627024Y-8095976D01*
X4627024Y-8095976D02*
X4627024Y-8295976D01*
X4807976Y-8295976D02*
X4807976Y-8191214D01*
X4807976Y-8191214D02*
X4798452Y-8172167D01*
X4798452Y-8172167D02*
X4779405Y-8162643D01*
X4779405Y-8162643D02*
X4741309Y-8162643D01*
X4741309Y-8162643D02*
X4722262Y-8172167D01*
X4807976Y-8286452D02*
X4788929Y-8295976D01*
X4788929Y-8295976D02*
X4741309Y-8295976D01*
X4741309Y-8295976D02*
X4722262Y-8286452D01*
X4722262Y-8286452D02*
X4712738Y-8267405D01*
X4712738Y-8267405D02*
X4712738Y-8248357D01*
X4712738Y-8248357D02*
X4722262Y-8229309D01*
X4722262Y-8229309D02*
X4741309Y-8219786D01*
X4741309Y-8219786D02*
X4788929Y-8219786D01*
X4788929Y-8219786D02*
X4807976Y-8210262D01*
X4903214Y-8162643D02*
X4903214Y-8362643D01*
X4903214Y-8172167D02*
X4922262Y-8162643D01*
X4922262Y-8162643D02*
X4960357Y-8162643D01*
X4960357Y-8162643D02*
X4979405Y-8172167D01*
X4979405Y-8172167D02*
X4988929Y-8181690D01*
X4988929Y-8181690D02*
X4998452Y-8200738D01*
X4998452Y-8200738D02*
X4998452Y-8257881D01*
X4998452Y-8257881D02*
X4988929Y-8276928D01*
X4988929Y-8276928D02*
X4979405Y-8286452D01*
X4979405Y-8286452D02*
X4960357Y-8295976D01*
X4960357Y-8295976D02*
X4922262Y-8295976D01*
X4922262Y-8295976D02*
X4903214Y-8286452D01*
X5084167Y-8276928D02*
X5093690Y-8286452D01*
X5093690Y-8286452D02*
X5084167Y-8295976D01*
X5084167Y-8295976D02*
X5074643Y-8286452D01*
X5074643Y-8286452D02*
X5084167Y-8276928D01*
X5084167Y-8276928D02*
X5084167Y-8295976D01*
X5084167Y-8172167D02*
X5093690Y-8181690D01*
X5093690Y-8181690D02*
X5084167Y-8191214D01*
X5084167Y-8191214D02*
X5074643Y-8181690D01*
X5074643Y-8181690D02*
X5084167Y-8172167D01*
X5084167Y-8172167D02*
X5084167Y-8191214D01*
M02*
