%TF.GenerationSoftware,KiCad,Pcbnew,7.0.1-3b83917a11~172~ubuntu22.04.1*%
%TF.CreationDate,2023-03-30T15:08:59+02:00*%
%TF.ProjectId,tht-dip,7468742d-6469-4702-9e6b-696361645f70,rev?*%
%TF.SameCoordinates,Original*%
%TF.FileFunction,Soldermask,Bot*%
%TF.FilePolarity,Negative*%
%FSLAX46Y46*%
G04 Gerber Fmt 4.6, Leading zero omitted, Abs format (unit mm)*
G04 Created by KiCad (PCBNEW 7.0.1-3b83917a11~172~ubuntu22.04.1) date 2023-03-30 15:08:59*
%MOMM*%
%LPD*%
G01*
G04 APERTURE LIST*
%ADD10C,1.600000*%
%ADD11R,1.600000X1.600000*%
%ADD12O,1.600000X1.600000*%
%ADD13C,3.500000*%
%ADD14C,1.400000*%
%ADD15O,1.400000X1.400000*%
%ADD16C,1.500000*%
G04 APERTURE END LIST*
D10*
%TO.C,C3*%
X99500000Y-73500000D03*
X102000000Y-73500000D03*
%TD*%
%TO.C,C5*%
X114500000Y-37000000D03*
X114500000Y-34500000D03*
%TD*%
%TO.C,C6*%
X114750000Y-75000000D03*
X114750000Y-72500000D03*
%TD*%
D11*
%TO.C,C7*%
X60500000Y-48000000D03*
D10*
X60500000Y-46000000D03*
%TD*%
%TO.C,C8*%
X55500000Y-56500000D03*
X55500000Y-54000000D03*
%TD*%
D11*
%TO.C,C9*%
X60500000Y-62500000D03*
D10*
X60500000Y-64500000D03*
%TD*%
D11*
%TO.C,D1*%
X121000000Y-51250000D03*
D12*
X121000000Y-58870000D03*
%TD*%
D11*
%TO.C,D2*%
X47000000Y-42000000D03*
D12*
X47000000Y-49620000D03*
%TD*%
D11*
%TO.C,D3*%
X47000000Y-60880000D03*
D12*
X47000000Y-68500000D03*
%TD*%
D11*
%TO.C,D4*%
X53000000Y-42000000D03*
D12*
X53000000Y-49620000D03*
%TD*%
D11*
%TO.C,D5*%
X53000000Y-61000000D03*
D12*
X53000000Y-68620000D03*
%TD*%
D13*
%TO.C,J1*%
X130250000Y-45750000D03*
%TD*%
%TO.C,J2*%
X130250000Y-54750000D03*
%TD*%
%TO.C,J3*%
X38250000Y-41750000D03*
%TD*%
%TO.C,J4*%
X39000000Y-69000000D03*
%TD*%
%TO.C,J5*%
X130250000Y-63750000D03*
%TD*%
%TO.C,J6*%
X38500000Y-55000000D03*
%TD*%
%TO.C,J7*%
X39000000Y-35000000D03*
%TD*%
%TO.C,J8*%
X39000000Y-76000000D03*
%TD*%
%TO.C,J9*%
X131000000Y-35000000D03*
%TD*%
%TO.C,J10*%
X131000000Y-76000000D03*
%TD*%
D14*
%TO.C,R1*%
X106750000Y-71000000D03*
D15*
X106750000Y-76080000D03*
%TD*%
D14*
%TO.C,R2*%
X53000000Y-33580000D03*
D15*
X53000000Y-38660000D03*
%TD*%
D14*
%TO.C,R3*%
X47000000Y-38580000D03*
D15*
X47000000Y-33500000D03*
%TD*%
D14*
%TO.C,R4*%
X47000000Y-72000000D03*
D15*
X47000000Y-77080000D03*
%TD*%
D14*
%TO.C,R5*%
X114500000Y-41500000D03*
D15*
X109420000Y-41500000D03*
%TD*%
D14*
%TO.C,R6*%
X125000000Y-52420000D03*
D15*
X125000000Y-57500000D03*
%TD*%
D14*
%TO.C,R7*%
X108000000Y-39080000D03*
D15*
X108000000Y-34000000D03*
%TD*%
D14*
%TO.C,R8*%
X114750000Y-68750000D03*
D15*
X109670000Y-68750000D03*
%TD*%
D14*
%TO.C,R9*%
X68920000Y-47000000D03*
D15*
X74000000Y-47000000D03*
%TD*%
D14*
%TO.C,R10*%
X53000000Y-72000000D03*
D15*
X53000000Y-77080000D03*
%TD*%
D14*
%TO.C,R11*%
X68920000Y-64000000D03*
D15*
X74000000Y-64000000D03*
%TD*%
D10*
%TO.C,C2*%
X74000000Y-38500000D03*
X74000000Y-33500000D03*
%TD*%
D11*
%TO.C,C1*%
X100000000Y-45000000D03*
D10*
X102000000Y-45000000D03*
%TD*%
D11*
%TO.C,C4*%
X99500000Y-63000000D03*
D10*
X102000000Y-63000000D03*
%TD*%
D11*
%TO.C,U1*%
X66000000Y-59120000D03*
D12*
X68540000Y-59120000D03*
X71080000Y-59120000D03*
X73620000Y-59120000D03*
X73620000Y-51500000D03*
X71080000Y-51500000D03*
X68540000Y-51500000D03*
X66000000Y-51500000D03*
%TD*%
D16*
%TO.C,RV1*%
X88660000Y-56500000D03*
X87000000Y-56500000D03*
X85340000Y-56500000D03*
X88660000Y-54000000D03*
X87000000Y-54000000D03*
X85340000Y-54000000D03*
%TD*%
M02*
