M48
; DRILL file {KiCad 5.1.10} date Sat Jul 17 21:41:43 2021
; FORMAT={-:-/ absolute / inch / decimal}
; #@! TF.CreationDate,2021-07-17T21:41:43+02:00
; #@! TF.GenerationSoftware,Kicad,Pcbnew,5.1.10
; #@! TF.FileFunction,Plated,1,2,PTH
FMAT,2
INCH
T1C0.0157
T2C0.0276
T3C0.0315
T4C0.0866
%
G90
G05
T1
X1.9291Y-2.6181
X2.3819Y-1.9882
X2.874Y-1.9094
X2.8937Y-2.2047
X3.2283Y-1.8307
X3.8189Y-1.7717
X4.2618Y-1.8898
T2
X1.8504Y-1.3189
X1.8504Y-1.5189
X1.8504Y-2.8346
X1.8504Y-3.0346
X2.0866Y-1.322
X2.0866Y-1.522
X2.0866Y-2.8346
X2.0866Y-3.0346
X2.7134Y-1.8504
X2.7134Y-2.5197
X2.9134Y-1.8504
X2.9134Y-2.5197
X3.5008Y-1.437
X3.5008Y-1.5354
X3.5008Y-1.6339
X3.5008Y-1.7323
X3.5008Y-1.8406
X3.5008Y-1.939
X3.5008Y-2.0374
X3.5039Y-1.3386
X3.5106Y-2.313
X3.5106Y-2.4114
X3.5106Y-2.5098
X3.5138Y-2.6083
X3.5138Y-2.7165
X3.5138Y-2.815
X3.5138Y-2.9134
X3.5138Y-3.0118
X3.7008Y-1.437
X3.7008Y-1.5354
X3.7008Y-1.6339
X3.7008Y-1.7323
X3.7008Y-1.8406
X3.7008Y-1.939
X3.7008Y-2.0374
X3.7039Y-1.3386
X3.7106Y-2.313
X3.7106Y-2.4114
X3.7106Y-2.5098
X3.7138Y-2.6083
X3.7138Y-2.7165
X3.7138Y-2.815
X3.7138Y-2.9134
X3.7138Y-3.0118
X4.2028Y-2.7953
X4.2028Y-2.9953
X4.252Y-1.3386
X4.252Y-1.5386
X4.3079Y-1.6339
X4.3177Y-2.7067
X4.5079Y-1.6339
X4.5177Y-2.7067
X4.9213Y-2.0638
X4.9213Y-2.2638
T3
X1.8504Y-1.6535
X1.8504Y-1.9535
X1.8504Y-2.3969
X1.8504Y-2.6969
X1.8898Y-2.126
X1.8898Y-2.2244
X2.0866Y-1.6535
X2.0866Y-1.9535
X2.0866Y-2.4016
X2.0866Y-2.7016
X2.185Y-2.126
X2.185Y-2.2244
X2.3819Y-2.126
X2.3819Y-2.2244
X2.5984Y-2.0276
X2.5984Y-2.3276
X2.6984Y-2.0276
X2.6984Y-2.3276
X2.7984Y-2.0276
X2.7984Y-2.3276
X2.8984Y-2.0276
X2.8984Y-2.3276
X2.9134Y-1.3189
X2.9134Y-1.5157
X3.0846Y-1.3386
X3.0846Y-1.4386
X3.0846Y-1.5386
X3.0846Y-1.6386
X3.0846Y-1.7386
X3.0846Y-1.8386
X3.0846Y-1.9386
X3.0846Y-2.0386
X3.1024Y-2.315
X3.1024Y-2.415
X3.1024Y-2.515
X3.1024Y-2.615
X3.1024Y-2.715
X3.1024Y-2.815
X3.1024Y-2.915
X3.1024Y-3.015
X3.3846Y-1.3386
X3.3846Y-1.4386
X3.3846Y-1.5386
X3.3846Y-1.6386
X3.3846Y-1.7386
X3.3846Y-1.8386
X3.3846Y-1.9386
X3.3846Y-2.0386
X3.4024Y-2.315
X3.4024Y-2.415
X3.4024Y-2.515
X3.4024Y-2.615
X3.4024Y-2.715
X3.4024Y-2.815
X3.4024Y-2.915
X3.4024Y-3.015
X3.9272Y-1.624
X3.9272Y-2.7362
X4.0256Y-1.624
X4.0256Y-2.7362
X4.5079Y-1.3583
X4.5079Y-1.4567
X4.5079Y-2.1654
X4.5177Y-2.8543
X4.5177Y-2.9528
X4.6063Y-2.1654
X4.7638Y-2.0177
X4.7638Y-2.3177
T4
X1.5059Y-1.6437
X1.5157Y-2.1654
X1.5354Y-1.378
X1.5354Y-2.7165
X1.5354Y-2.9921
X5.128Y-1.8012
X5.128Y-2.1555
X5.128Y-2.5098
X5.1575Y-1.378
X5.1575Y-2.9921
T0
M30
