%TF.GenerationSoftware,KiCad,Pcbnew,5.1.10*%
%TF.CreationDate,2021-07-17T21:41:45+02:00*%
%TF.ProjectId,tht-dip,7468742d-6469-4702-9e6b-696361645f70,rev?*%
%TF.SameCoordinates,Original*%
%TF.FileFunction,Copper,L2,Bot*%
%TF.FilePolarity,Positive*%
%FSLAX46Y46*%
G04 Gerber Fmt 4.6, Leading zero omitted, Abs format (unit mm)*
G04 Created by KiCad (PCBNEW 5.1.10) date 2021-07-17 21:41:45*
%MOMM*%
%LPD*%
G01*
G04 APERTURE LIST*
%TA.AperFunction,ComponentPad*%
%ADD10C,1.600000*%
%TD*%
%TA.AperFunction,ComponentPad*%
%ADD11O,1.600000X1.600000*%
%TD*%
%TA.AperFunction,ComponentPad*%
%ADD12R,1.600000X1.600000*%
%TD*%
%TA.AperFunction,ComponentPad*%
%ADD13C,3.500000*%
%TD*%
%TA.AperFunction,ComponentPad*%
%ADD14O,1.400000X1.400000*%
%TD*%
%TA.AperFunction,ComponentPad*%
%ADD15C,1.400000*%
%TD*%
%TA.AperFunction,ViaPad*%
%ADD16C,0.800000*%
%TD*%
%TA.AperFunction,Conductor*%
%ADD17C,0.800000*%
%TD*%
%TA.AperFunction,Conductor*%
%ADD18C,0.254000*%
%TD*%
%TA.AperFunction,Conductor*%
%ADD19C,0.100000*%
%TD*%
G04 APERTURE END LIST*
D10*
%TO.P,C2,1*%
%TO.N,VCC*%
X99750000Y-69500000D03*
%TO.P,C2,2*%
%TO.N,V-*%
X102250000Y-69500000D03*
%TD*%
%TO.P,C4,2*%
%TO.N,Net-(C4-Pad2)*%
X114500000Y-34500000D03*
%TO.P,C4,1*%
%TO.N,/2*%
X114500000Y-37000000D03*
%TD*%
%TO.P,C5,1*%
%TO.N,/3*%
X114750000Y-75000000D03*
%TO.P,C5,2*%
%TO.N,Net-(C5-Pad2)*%
X114750000Y-72500000D03*
%TD*%
%TO.P,C6,1*%
%TO.N,V-*%
X60500000Y-56500000D03*
%TO.P,C6,2*%
%TO.N,Net-(C6-Pad2)*%
X60500000Y-54000000D03*
%TD*%
%TO.P,C7,2*%
%TO.N,V-*%
X55500000Y-54000000D03*
%TO.P,C7,1*%
%TO.N,Net-(C7-Pad1)*%
X55500000Y-56500000D03*
%TD*%
%TO.P,C8,1*%
%TO.N,V-*%
X48000000Y-54000000D03*
%TO.P,C8,2*%
%TO.N,Net-(C8-Pad2)*%
X48000000Y-56500000D03*
%TD*%
D11*
%TO.P,D1,2*%
%TO.N,V-*%
X121000000Y-58870000D03*
D12*
%TO.P,D1,1*%
%TO.N,Net-(D1-Pad1)*%
X121000000Y-51250000D03*
%TD*%
%TO.P,D2,1*%
%TO.N,VCC*%
X47000000Y-42000000D03*
D11*
%TO.P,D2,2*%
%TO.N,ind*%
X47000000Y-49620000D03*
%TD*%
%TO.P,D3,2*%
%TO.N,V-*%
X47000000Y-68500000D03*
D12*
%TO.P,D3,1*%
%TO.N,ind*%
X47000000Y-60880000D03*
%TD*%
%TO.P,D4,1*%
%TO.N,VCC*%
X53000000Y-42000000D03*
D11*
%TO.P,D4,2*%
%TO.N,Net-(D4-Pad2)*%
X53000000Y-49620000D03*
%TD*%
D12*
%TO.P,D5,1*%
%TO.N,Net-(D4-Pad2)*%
X53000000Y-61000000D03*
D11*
%TO.P,D5,2*%
%TO.N,V-*%
X53000000Y-68620000D03*
%TD*%
D13*
%TO.P,J1,1*%
%TO.N,/2*%
X130250000Y-45750000D03*
%TD*%
%TO.P,J2,1*%
%TO.N,/3*%
X130250000Y-54750000D03*
%TD*%
%TO.P,J3,1*%
%TO.N,ind*%
X38250000Y-41750000D03*
%TD*%
%TO.P,J4,1*%
%TO.N,Net-(D4-Pad2)*%
X39000000Y-69000000D03*
%TD*%
%TO.P,J5,1*%
%TO.N,V-*%
X130250000Y-63750000D03*
%TD*%
%TO.P,J6,1*%
%TO.N,V-*%
X38500000Y-55000000D03*
%TD*%
%TO.P,J7,1*%
%TO.N,Earth*%
X39000000Y-35000000D03*
%TD*%
%TO.P,J8,1*%
%TO.N,Earth*%
X39000000Y-76000000D03*
%TD*%
%TO.P,J9,1*%
%TO.N,Earth*%
X131000000Y-35000000D03*
%TD*%
%TO.P,J10,1*%
%TO.N,Earth*%
X131000000Y-76000000D03*
%TD*%
D14*
%TO.P,R1,2*%
%TO.N,VCC*%
X106750000Y-76080000D03*
D15*
%TO.P,R1,1*%
%TO.N,Net-(D1-Pad1)*%
X106750000Y-71000000D03*
%TD*%
%TO.P,R2,1*%
%TO.N,VCC*%
X53000000Y-33580000D03*
D14*
%TO.P,R2,2*%
%TO.N,Net-(C7-Pad1)*%
X53000000Y-38660000D03*
%TD*%
D15*
%TO.P,R3,1*%
%TO.N,Net-(C7-Pad1)*%
X47000000Y-38580000D03*
D14*
%TO.P,R3,2*%
%TO.N,ind*%
X47000000Y-33500000D03*
%TD*%
D15*
%TO.P,R4,1*%
%TO.N,Net-(C7-Pad1)*%
X47000000Y-72000000D03*
D14*
%TO.P,R4,2*%
%TO.N,Net-(D4-Pad2)*%
X47000000Y-77080000D03*
%TD*%
D15*
%TO.P,R5,1*%
%TO.N,Net-(D1-Pad1)*%
X114500000Y-41500000D03*
D14*
%TO.P,R5,2*%
%TO.N,/2*%
X109420000Y-41500000D03*
%TD*%
%TO.P,R6,2*%
%TO.N,/3*%
X125000000Y-57500000D03*
D15*
%TO.P,R6,1*%
%TO.N,Net-(D1-Pad1)*%
X125000000Y-52420000D03*
%TD*%
D14*
%TO.P,R7,2*%
%TO.N,ResOUT*%
X108000000Y-34000000D03*
D15*
%TO.P,R7,1*%
%TO.N,Net-(C4-Pad2)*%
X108000000Y-39080000D03*
%TD*%
D14*
%TO.P,R8,2*%
%TO.N,ResOUT2*%
X109670000Y-68750000D03*
D15*
%TO.P,R8,1*%
%TO.N,Net-(C5-Pad2)*%
X114750000Y-68750000D03*
%TD*%
D14*
%TO.P,R9,2*%
%TO.N,ResIN*%
X74000000Y-47000000D03*
D15*
%TO.P,R9,1*%
%TO.N,Net-(C6-Pad2)*%
X68920000Y-47000000D03*
%TD*%
%TO.P,R10,1*%
%TO.N,Net-(C7-Pad1)*%
X53000000Y-72000000D03*
D14*
%TO.P,R10,2*%
%TO.N,V-*%
X53000000Y-77080000D03*
%TD*%
D15*
%TO.P,R11,1*%
%TO.N,Net-(C8-Pad2)*%
X68920000Y-64000000D03*
D14*
%TO.P,R11,2*%
%TO.N,ResIN1*%
X74000000Y-64000000D03*
%TD*%
%TO.P,R12,2*%
%TO.N,Net-(R12-Pad2)*%
X89170000Y-61250000D03*
D15*
%TO.P,R12,1*%
%TO.N,ResOUT*%
X94250000Y-61250000D03*
%TD*%
%TO.P,R13,1*%
%TO.N,ResOUT*%
X94250000Y-63750000D03*
D14*
%TO.P,R13,2*%
%TO.N,Net-(R13-Pad2)*%
X89170000Y-63750000D03*
%TD*%
%TO.P,R14,2*%
%TO.N,Net-(R14-Pad2)*%
X89250000Y-66250000D03*
D15*
%TO.P,R14,1*%
%TO.N,ResOUT*%
X94330000Y-66250000D03*
%TD*%
%TO.P,R15,1*%
%TO.N,ResOUT*%
X94330000Y-69000000D03*
D14*
%TO.P,R15,2*%
%TO.N,Net-(R15-Pad2)*%
X89250000Y-69000000D03*
%TD*%
%TO.P,R16,2*%
%TO.N,Net-(R16-Pad2)*%
X89250000Y-71500000D03*
D15*
%TO.P,R16,1*%
%TO.N,ResOUT*%
X94330000Y-71500000D03*
%TD*%
%TO.P,R17,1*%
%TO.N,ResOUT*%
X94330000Y-74000000D03*
D14*
%TO.P,R17,2*%
%TO.N,Net-(R17-Pad2)*%
X89250000Y-74000000D03*
%TD*%
%TO.P,R18,2*%
%TO.N,Net-(R18-Pad2)*%
X89250000Y-76500000D03*
D15*
%TO.P,R18,1*%
%TO.N,ResOUT*%
X94330000Y-76500000D03*
%TD*%
D14*
%TO.P,R20,2*%
%TO.N,Net-(R20-Pad2)*%
X88920000Y-36500000D03*
D15*
%TO.P,R20,1*%
%TO.N,ResOUT2*%
X94000000Y-36500000D03*
%TD*%
%TO.P,R21,1*%
%TO.N,ResOUT2*%
X94000000Y-39000000D03*
D14*
%TO.P,R21,2*%
%TO.N,Net-(R21-Pad2)*%
X88920000Y-39000000D03*
%TD*%
%TO.P,R22,2*%
%TO.N,Net-(R22-Pad2)*%
X88920000Y-41500000D03*
D15*
%TO.P,R22,1*%
%TO.N,ResOUT2*%
X94000000Y-41500000D03*
%TD*%
%TO.P,R23,1*%
%TO.N,ResOUT2*%
X94000000Y-44000000D03*
D14*
%TO.P,R23,2*%
%TO.N,Net-(R23-Pad2)*%
X88920000Y-44000000D03*
%TD*%
%TO.P,R24,2*%
%TO.N,Net-(R24-Pad2)*%
X88920000Y-46750000D03*
D15*
%TO.P,R24,1*%
%TO.N,ResOUT2*%
X94000000Y-46750000D03*
%TD*%
%TO.P,R25,1*%
%TO.N,ResOUT2*%
X94000000Y-49250000D03*
D14*
%TO.P,R25,2*%
%TO.N,Net-(R25-Pad2)*%
X88920000Y-49250000D03*
%TD*%
%TO.P,R26,2*%
%TO.N,Net-(R26-Pad2)*%
X88920000Y-51750000D03*
D15*
%TO.P,R26,1*%
%TO.N,ResOUT2*%
X94000000Y-51750000D03*
%TD*%
D12*
%TO.P,SW1,1*%
%TO.N,ResIN*%
X78800000Y-58800000D03*
D11*
%TO.P,SW1,9*%
%TO.N,Net-(R18-Pad2)*%
X86420000Y-76580000D03*
%TO.P,SW1,2*%
%TO.N,ResIN*%
X78800000Y-61340000D03*
%TO.P,SW1,10*%
%TO.N,Net-(R17-Pad2)*%
X86420000Y-74040000D03*
%TO.P,SW1,3*%
%TO.N,ResIN*%
X78800000Y-63880000D03*
%TO.P,SW1,11*%
%TO.N,Net-(R16-Pad2)*%
X86420000Y-71500000D03*
%TO.P,SW1,4*%
%TO.N,ResIN*%
X78800000Y-66420000D03*
%TO.P,SW1,12*%
%TO.N,Net-(R15-Pad2)*%
X86420000Y-68960000D03*
%TO.P,SW1,5*%
%TO.N,ResIN*%
X78800000Y-68960000D03*
%TO.P,SW1,13*%
%TO.N,Net-(R14-Pad2)*%
X86420000Y-66420000D03*
%TO.P,SW1,6*%
%TO.N,ResIN*%
X78800000Y-71500000D03*
%TO.P,SW1,14*%
%TO.N,Net-(R13-Pad2)*%
X86420000Y-63880000D03*
%TO.P,SW1,7*%
%TO.N,ResIN*%
X78800000Y-74040000D03*
%TO.P,SW1,15*%
%TO.N,Net-(R12-Pad2)*%
X86420000Y-61340000D03*
%TO.P,SW1,8*%
%TO.N,ResIN*%
X78800000Y-76580000D03*
%TO.P,SW1,16*%
%TO.N,Net-(R19-Pad2)*%
X86420000Y-58800000D03*
%TD*%
D12*
%TO.P,SW2,1*%
%TO.N,ResIN1*%
X78350000Y-34000000D03*
D11*
%TO.P,SW2,9*%
%TO.N,Net-(R26-Pad2)*%
X85970000Y-51780000D03*
%TO.P,SW2,2*%
%TO.N,ResIN1*%
X78350000Y-36540000D03*
%TO.P,SW2,10*%
%TO.N,Net-(R25-Pad2)*%
X85970000Y-49240000D03*
%TO.P,SW2,3*%
%TO.N,ResIN1*%
X78350000Y-39080000D03*
%TO.P,SW2,11*%
%TO.N,Net-(R24-Pad2)*%
X85970000Y-46700000D03*
%TO.P,SW2,4*%
%TO.N,ResIN1*%
X78350000Y-41620000D03*
%TO.P,SW2,12*%
%TO.N,Net-(R23-Pad2)*%
X85970000Y-44160000D03*
%TO.P,SW2,5*%
%TO.N,ResIN1*%
X78350000Y-44160000D03*
%TO.P,SW2,13*%
%TO.N,Net-(R22-Pad2)*%
X85970000Y-41620000D03*
%TO.P,SW2,6*%
%TO.N,ResIN1*%
X78350000Y-46700000D03*
%TO.P,SW2,14*%
%TO.N,Net-(R21-Pad2)*%
X85970000Y-39080000D03*
%TO.P,SW2,7*%
%TO.N,ResIN1*%
X78350000Y-49240000D03*
%TO.P,SW2,15*%
%TO.N,Net-(R20-Pad2)*%
X85970000Y-36540000D03*
%TO.P,SW2,8*%
%TO.N,ResIN1*%
X78350000Y-51780000D03*
%TO.P,SW2,16*%
%TO.N,Net-(R27-Pad2)*%
X85970000Y-34000000D03*
%TD*%
D10*
%TO.P,C1,1*%
%TO.N,VCC*%
X74000000Y-38500000D03*
%TO.P,C1,2*%
%TO.N,V-*%
X74000000Y-33500000D03*
%TD*%
%TO.P,C9,1*%
%TO.N,V-*%
X102250000Y-41250000D03*
%TO.P,C9,2*%
%TO.N,VCC*%
X99750000Y-41250000D03*
%TD*%
D12*
%TO.P,C3,1*%
%TO.N,VCC*%
X114500000Y-55000000D03*
D10*
%TO.P,C3,2*%
%TO.N,V-*%
X117000000Y-55000000D03*
%TD*%
D14*
%TO.P,R19,2*%
%TO.N,Net-(R19-Pad2)*%
X89170000Y-58750000D03*
D15*
%TO.P,R19,1*%
%TO.N,ResOUT*%
X94250000Y-58750000D03*
%TD*%
%TO.P,R27,1*%
%TO.N,ResOUT2*%
X94080000Y-34000000D03*
D14*
%TO.P,R27,2*%
%TO.N,Net-(R27-Pad2)*%
X89000000Y-34000000D03*
%TD*%
D12*
%TO.P,U1,1*%
%TO.N,ResOUT*%
X66000000Y-59120000D03*
D11*
%TO.P,U1,5*%
%TO.N,ind*%
X73620000Y-51500000D03*
%TO.P,U1,2*%
%TO.N,ResIN*%
X68540000Y-59120000D03*
%TO.P,U1,6*%
%TO.N,ResIN1*%
X71080000Y-51500000D03*
%TO.P,U1,3*%
%TO.N,Net-(D4-Pad2)*%
X71080000Y-59120000D03*
%TO.P,U1,7*%
%TO.N,ResOUT2*%
X68540000Y-51500000D03*
%TO.P,U1,4*%
%TO.N,V-*%
X73620000Y-59120000D03*
%TO.P,U1,8*%
%TO.N,VCC*%
X66000000Y-51500000D03*
%TD*%
D16*
%TO.N,Earth*%
X82000000Y-46500000D03*
X97000000Y-45000000D03*
X60500000Y-50500000D03*
X49000000Y-66500000D03*
X73500000Y-56000000D03*
X73000000Y-48500000D03*
X108250000Y-48000000D03*
%TD*%
D17*
%TO.N,V-*%
X121000000Y-58870000D02*
X119400000Y-58870000D01*
X119400000Y-58870000D02*
X119400000Y-57400000D01*
X119400000Y-57400000D02*
X117000000Y-55000000D01*
X117000000Y-55000000D02*
X103250000Y-41250000D01*
X103250000Y-41250000D02*
X102250000Y-41250000D01*
X74000000Y-33500000D02*
X74913000Y-32587000D01*
X74913000Y-32587000D02*
X94539700Y-32587000D01*
X94539700Y-32587000D02*
X102250000Y-40297300D01*
X102250000Y-40297300D02*
X102250000Y-41250000D01*
X58000000Y-54000000D02*
X58000000Y-49500000D01*
X58000000Y-49500000D02*
X74000000Y-33500000D01*
X58000000Y-54000000D02*
X55500000Y-54000000D01*
X60500000Y-56500000D02*
X58000000Y-54000000D01*
X53000000Y-68620000D02*
X53000000Y-70220000D01*
X53000000Y-77080000D02*
X53000000Y-75580000D01*
X53000000Y-75580000D02*
X54305800Y-74274200D01*
X54305800Y-74274200D02*
X54305800Y-71384400D01*
X54305800Y-71384400D02*
X53141400Y-70220000D01*
X53141400Y-70220000D02*
X53000000Y-70220000D01*
%TO.N,VCC*%
X106750000Y-76080000D02*
X105250000Y-76080000D01*
X105250000Y-76080000D02*
X105250000Y-75000000D01*
X105250000Y-75000000D02*
X99750000Y-69500000D01*
X114500000Y-55000000D02*
X112900000Y-55000000D01*
X99750000Y-41250000D02*
X112900000Y-54400000D01*
X112900000Y-54400000D02*
X112900000Y-55000000D01*
X66000000Y-51500000D02*
X66260600Y-51500000D01*
X66260600Y-51500000D02*
X74000000Y-43760600D01*
X74000000Y-43760600D02*
X74000000Y-38500000D01*
%TO.N,/2*%
X109420000Y-41500000D02*
X110920000Y-41500000D01*
X110920000Y-41500000D02*
X110920000Y-40580000D01*
X110920000Y-40580000D02*
X114500000Y-37000000D01*
X130250000Y-45750000D02*
X121500000Y-37000000D01*
X121500000Y-37000000D02*
X114500000Y-37000000D01*
%TO.N,/3*%
X125000000Y-57500000D02*
X125000000Y-64750000D01*
X125000000Y-64750000D02*
X114750000Y-75000000D01*
X125000000Y-57500000D02*
X127500000Y-57500000D01*
X127500000Y-57500000D02*
X130250000Y-54750000D01*
%TO.N,Net-(C5-Pad2)*%
X114750000Y-68750000D02*
X114750000Y-72500000D01*
%TO.N,Net-(C6-Pad2)*%
X68920000Y-47000000D02*
X67500000Y-47000000D01*
X67500000Y-47000000D02*
X60500000Y-54000000D01*
%TO.N,Net-(C7-Pad1)*%
X53000000Y-38660000D02*
X53000000Y-40160000D01*
X55500000Y-56500000D02*
X54094000Y-55094000D01*
X54094000Y-55094000D02*
X54094000Y-51991300D01*
X54094000Y-51991300D02*
X54411000Y-51674300D01*
X54411000Y-51674300D02*
X54411000Y-40897200D01*
X54411000Y-40897200D02*
X53673800Y-40160000D01*
X53673800Y-40160000D02*
X53000000Y-40160000D01*
%TO.N,Net-(C8-Pad2)*%
X68920000Y-64000000D02*
X58620000Y-64000000D01*
X58620000Y-64000000D02*
X51120000Y-56500000D01*
X51120000Y-56500000D02*
X48000000Y-56500000D01*
%TO.N,Net-(D1-Pad1)*%
X121000000Y-51250000D02*
X121000000Y-49650000D01*
X114500000Y-41500000D02*
X114500000Y-43150000D01*
X114500000Y-43150000D02*
X121000000Y-49650000D01*
%TO.N,ind*%
X39490000Y-40510000D02*
X38250000Y-41750000D01*
X45500000Y-33500000D02*
X45500000Y-34500000D01*
X45500000Y-34500000D02*
X39490000Y-40510000D01*
X39490000Y-40510000D02*
X47000000Y-48020000D01*
X47000000Y-49620000D02*
X47000000Y-48020000D01*
X47000000Y-33500000D02*
X45500000Y-33500000D01*
X47000000Y-49620000D02*
X47000000Y-51220000D01*
X47000000Y-51220000D02*
X46592600Y-51627400D01*
X46592600Y-51627400D02*
X46592600Y-58872600D01*
X46592600Y-58872600D02*
X47000000Y-59280000D01*
X47000000Y-60880000D02*
X47000000Y-59280000D01*
%TO.N,Net-(D4-Pad2)*%
X43400000Y-69000000D02*
X39000000Y-69000000D01*
X51400000Y-61000000D02*
X43400000Y-69000000D01*
X47000000Y-75580000D02*
X43400000Y-71980000D01*
X43400000Y-71980000D02*
X43400000Y-69000000D01*
X47000000Y-77080000D02*
X47000000Y-75580000D01*
X53000000Y-61000000D02*
X51400000Y-61000000D01*
%TO.N,ResOUT*%
X94330000Y-66250000D02*
X94250000Y-66170000D01*
X94250000Y-66170000D02*
X94250000Y-63750000D01*
X94330000Y-69000000D02*
X94330000Y-66250000D01*
X94330000Y-71500000D02*
X94330000Y-69000000D01*
X94330000Y-74000000D02*
X94330000Y-71500000D01*
X94330000Y-76500000D02*
X94330000Y-74000000D01*
X94250000Y-63750000D02*
X94250000Y-61250000D01*
X94250000Y-58750000D02*
X94250000Y-61250000D01*
%TO.N,ResOUT2*%
X94000000Y-49250000D02*
X94000000Y-51750000D01*
X94000000Y-46750000D02*
X94000000Y-49250000D01*
X94000000Y-51750000D02*
X109500000Y-67250000D01*
X109500000Y-67250000D02*
X109670000Y-67250000D01*
X109670000Y-68750000D02*
X109670000Y-67250000D01*
X94000000Y-39000000D02*
X94000000Y-36500000D01*
X94000000Y-41500000D02*
X94000000Y-39000000D01*
X94000000Y-44000000D02*
X94000000Y-41500000D01*
X94000000Y-46750000D02*
X94000000Y-44000000D01*
X94080000Y-34000000D02*
X94000000Y-34080000D01*
X94000000Y-34080000D02*
X94000000Y-36500000D01*
%TO.N,ResIN*%
X75037700Y-57520000D02*
X75037700Y-49537700D01*
X75037700Y-49537700D02*
X74000000Y-48500000D01*
X77200000Y-58800000D02*
X75920000Y-57520000D01*
X75920000Y-57520000D02*
X75037700Y-57520000D01*
X68540000Y-57520000D02*
X75037700Y-57520000D01*
X68540000Y-59120000D02*
X68540000Y-57520000D01*
X74000000Y-47000000D02*
X74000000Y-48500000D01*
X78800000Y-58800000D02*
X77200000Y-58800000D01*
X78800000Y-61340000D02*
X78800000Y-58800000D01*
X78800000Y-63880000D02*
X78800000Y-61340000D01*
X78800000Y-66420000D02*
X78800000Y-63880000D01*
X78800000Y-68960000D02*
X78800000Y-66420000D01*
X78800000Y-71500000D02*
X78800000Y-68960000D01*
X78800000Y-74040000D02*
X78800000Y-71500000D01*
X78800000Y-76580000D02*
X78800000Y-74040000D01*
%TO.N,ResIN1*%
X74000000Y-64000000D02*
X72500000Y-64000000D01*
X71080000Y-51500000D02*
X64586800Y-57993200D01*
X64586800Y-57993200D02*
X64586800Y-60187700D01*
X64586800Y-60187700D02*
X65062500Y-60663400D01*
X65062500Y-60663400D02*
X69163400Y-60663400D01*
X69163400Y-60663400D02*
X72500000Y-64000000D01*
X78350000Y-36540000D02*
X78350000Y-34000000D01*
X78350000Y-39080000D02*
X78350000Y-36540000D01*
X78350000Y-41620000D02*
X78350000Y-39080000D01*
X78350000Y-44160000D02*
X78350000Y-41620000D01*
X78350000Y-46700000D02*
X78350000Y-44160000D01*
X78350000Y-49240000D02*
X78350000Y-46700000D01*
X78350000Y-51780000D02*
X78350000Y-49240000D01*
%TD*%
D18*
%TO.N,Earth*%
X74335202Y-31722266D02*
X74217092Y-31819197D01*
X74177604Y-31851604D01*
X74145197Y-31891092D01*
X73971289Y-32065000D01*
X73858665Y-32065000D01*
X73581426Y-32120147D01*
X73320273Y-32228320D01*
X73085241Y-32385363D01*
X72885363Y-32585241D01*
X72728320Y-32820273D01*
X72620147Y-33081426D01*
X72565000Y-33358665D01*
X72565000Y-33471289D01*
X57304093Y-48732197D01*
X57264605Y-48764604D01*
X57232198Y-48804092D01*
X57232197Y-48804093D01*
X57135266Y-48922203D01*
X57039160Y-49102007D01*
X56979977Y-49297105D01*
X56959994Y-49500000D01*
X56965001Y-49550838D01*
X56965000Y-52965000D01*
X56494396Y-52965000D01*
X56414759Y-52885363D01*
X56179727Y-52728320D01*
X55918574Y-52620147D01*
X55641335Y-52565000D01*
X55358665Y-52565000D01*
X55129000Y-52610684D01*
X55129000Y-52423973D01*
X55146396Y-52409696D01*
X55275734Y-52252097D01*
X55371841Y-52072293D01*
X55431024Y-51877195D01*
X55446000Y-51725138D01*
X55446000Y-51725135D01*
X55451007Y-51674300D01*
X55446000Y-51623465D01*
X55446000Y-40948027D01*
X55451006Y-40897199D01*
X55446000Y-40846371D01*
X55446000Y-40846362D01*
X55431024Y-40694305D01*
X55371841Y-40499207D01*
X55326832Y-40415000D01*
X55275734Y-40319402D01*
X55178803Y-40201292D01*
X55146396Y-40161804D01*
X55106908Y-40129397D01*
X54441607Y-39464097D01*
X54409196Y-39424604D01*
X54251597Y-39295266D01*
X54194499Y-39264746D01*
X54283696Y-39049405D01*
X54335000Y-38791486D01*
X54335000Y-38528514D01*
X54283696Y-38270595D01*
X54183061Y-38027641D01*
X54036962Y-37808987D01*
X53851013Y-37623038D01*
X53632359Y-37476939D01*
X53389405Y-37376304D01*
X53131486Y-37325000D01*
X52868514Y-37325000D01*
X52610595Y-37376304D01*
X52367641Y-37476939D01*
X52148987Y-37623038D01*
X51963038Y-37808987D01*
X51816939Y-38027641D01*
X51716304Y-38270595D01*
X51665000Y-38528514D01*
X51665000Y-38791486D01*
X51716304Y-39049405D01*
X51816939Y-39292359D01*
X51963038Y-39511013D01*
X51965001Y-39512976D01*
X51965001Y-40109153D01*
X51959993Y-40160000D01*
X51979976Y-40362895D01*
X52039159Y-40557993D01*
X52051680Y-40581419D01*
X51955820Y-40610498D01*
X51845506Y-40669463D01*
X51748815Y-40748815D01*
X51669463Y-40845506D01*
X51610498Y-40955820D01*
X51574188Y-41075518D01*
X51561928Y-41200000D01*
X51561928Y-42800000D01*
X51574188Y-42924482D01*
X51610498Y-43044180D01*
X51669463Y-43154494D01*
X51748815Y-43251185D01*
X51845506Y-43330537D01*
X51955820Y-43389502D01*
X52075518Y-43425812D01*
X52200000Y-43438072D01*
X53376001Y-43438072D01*
X53376000Y-48231678D01*
X53141335Y-48185000D01*
X52858665Y-48185000D01*
X52581426Y-48240147D01*
X52320273Y-48348320D01*
X52085241Y-48505363D01*
X51885363Y-48705241D01*
X51728320Y-48940273D01*
X51620147Y-49201426D01*
X51565000Y-49478665D01*
X51565000Y-49761335D01*
X51620147Y-50038574D01*
X51728320Y-50299727D01*
X51885363Y-50534759D01*
X52085241Y-50734637D01*
X52320273Y-50891680D01*
X52581426Y-50999853D01*
X52858665Y-51055000D01*
X53141335Y-51055000D01*
X53376000Y-51008322D01*
X53376000Y-51241628D01*
X53358605Y-51255904D01*
X53326198Y-51295392D01*
X53326197Y-51295393D01*
X53229266Y-51413503D01*
X53133160Y-51593307D01*
X53073977Y-51788405D01*
X53053994Y-51991300D01*
X53059001Y-52042138D01*
X53059000Y-55043172D01*
X53053994Y-55094000D01*
X53059000Y-55144828D01*
X53059000Y-55144837D01*
X53073976Y-55296894D01*
X53133159Y-55491992D01*
X53229266Y-55671797D01*
X53358604Y-55829396D01*
X53398097Y-55861807D01*
X54065000Y-56528710D01*
X54065000Y-56641335D01*
X54120147Y-56918574D01*
X54228320Y-57179727D01*
X54385363Y-57414759D01*
X54585241Y-57614637D01*
X54820273Y-57771680D01*
X55081426Y-57879853D01*
X55358665Y-57935000D01*
X55641335Y-57935000D01*
X55918574Y-57879853D01*
X56179727Y-57771680D01*
X56414759Y-57614637D01*
X56614637Y-57414759D01*
X56771680Y-57179727D01*
X56879853Y-56918574D01*
X56935000Y-56641335D01*
X56935000Y-56358665D01*
X56879853Y-56081426D01*
X56771680Y-55820273D01*
X56614637Y-55585241D01*
X56414759Y-55385363D01*
X56212173Y-55250000D01*
X56414759Y-55114637D01*
X56494396Y-55035000D01*
X57571290Y-55035000D01*
X59065000Y-56528711D01*
X59065000Y-56641335D01*
X59120147Y-56918574D01*
X59228320Y-57179727D01*
X59385363Y-57414759D01*
X59585241Y-57614637D01*
X59820273Y-57771680D01*
X60081426Y-57879853D01*
X60358665Y-57935000D01*
X60641335Y-57935000D01*
X60918574Y-57879853D01*
X61179727Y-57771680D01*
X61414759Y-57614637D01*
X61614637Y-57414759D01*
X61771680Y-57179727D01*
X61879853Y-56918574D01*
X61935000Y-56641335D01*
X61935000Y-56358665D01*
X61879853Y-56081426D01*
X61771680Y-55820273D01*
X61614637Y-55585241D01*
X61414759Y-55385363D01*
X61212173Y-55250000D01*
X61414759Y-55114637D01*
X61614637Y-54914759D01*
X61771680Y-54679727D01*
X61879853Y-54418574D01*
X61935000Y-54141335D01*
X61935000Y-54028710D01*
X64565000Y-51398710D01*
X64565000Y-51641335D01*
X64620147Y-51918574D01*
X64728320Y-52179727D01*
X64885363Y-52414759D01*
X65085241Y-52614637D01*
X65320273Y-52771680D01*
X65581426Y-52879853D01*
X65858665Y-52935000D01*
X66141335Y-52935000D01*
X66418574Y-52879853D01*
X66679727Y-52771680D01*
X66914759Y-52614637D01*
X67114637Y-52414759D01*
X67270000Y-52182241D01*
X67425363Y-52414759D01*
X67625241Y-52614637D01*
X67860273Y-52771680D01*
X68121426Y-52879853D01*
X68217355Y-52898935D01*
X63890897Y-57225393D01*
X63851404Y-57257804D01*
X63722066Y-57415403D01*
X63625959Y-57595208D01*
X63566776Y-57790306D01*
X63551800Y-57942363D01*
X63551800Y-57942372D01*
X63546794Y-57993200D01*
X63551800Y-58044028D01*
X63551801Y-60136862D01*
X63546794Y-60187700D01*
X63566777Y-60390595D01*
X63625960Y-60585693D01*
X63722066Y-60765497D01*
X63818997Y-60883607D01*
X63851405Y-60923096D01*
X63890893Y-60955503D01*
X64294693Y-61359303D01*
X64327104Y-61398796D01*
X64484703Y-61528134D01*
X64664507Y-61624241D01*
X64859605Y-61683424D01*
X65011662Y-61698400D01*
X65011671Y-61698400D01*
X65062499Y-61703406D01*
X65113327Y-61698400D01*
X68734690Y-61698400D01*
X71732197Y-64695908D01*
X71764604Y-64735396D01*
X71804092Y-64767803D01*
X71922202Y-64864734D01*
X71988226Y-64900024D01*
X72102007Y-64960841D01*
X72297105Y-65020024D01*
X72449162Y-65035000D01*
X72449164Y-65035000D01*
X72500000Y-65040007D01*
X72550835Y-65035000D01*
X73147025Y-65035000D01*
X73148987Y-65036962D01*
X73367641Y-65183061D01*
X73610595Y-65283696D01*
X73868514Y-65335000D01*
X74131486Y-65335000D01*
X74389405Y-65283696D01*
X74632359Y-65183061D01*
X74851013Y-65036962D01*
X75036962Y-64851013D01*
X75183061Y-64632359D01*
X75283696Y-64389405D01*
X75335000Y-64131486D01*
X75335000Y-63868514D01*
X75283696Y-63610595D01*
X75183061Y-63367641D01*
X75036962Y-63148987D01*
X74851013Y-62963038D01*
X74632359Y-62816939D01*
X74389405Y-62716304D01*
X74131486Y-62665000D01*
X73868514Y-62665000D01*
X73610595Y-62716304D01*
X73367641Y-62816939D01*
X73148987Y-62963038D01*
X73147025Y-62965000D01*
X72928711Y-62965000D01*
X70265011Y-60301301D01*
X70400273Y-60391680D01*
X70661426Y-60499853D01*
X70938665Y-60555000D01*
X71221335Y-60555000D01*
X71498574Y-60499853D01*
X71759727Y-60391680D01*
X71994759Y-60234637D01*
X72194637Y-60034759D01*
X72350000Y-59802241D01*
X72505363Y-60034759D01*
X72705241Y-60234637D01*
X72940273Y-60391680D01*
X73201426Y-60499853D01*
X73478665Y-60555000D01*
X73761335Y-60555000D01*
X74038574Y-60499853D01*
X74299727Y-60391680D01*
X74534759Y-60234637D01*
X74734637Y-60034759D01*
X74891680Y-59799727D01*
X74999853Y-59538574D01*
X75055000Y-59261335D01*
X75055000Y-58978665D01*
X74999853Y-58701426D01*
X74939201Y-58555000D01*
X74986862Y-58555000D01*
X75037700Y-58560007D01*
X75088538Y-58555000D01*
X75491290Y-58555000D01*
X76432197Y-59495908D01*
X76464604Y-59535396D01*
X76504092Y-59567803D01*
X76622202Y-59664734D01*
X76715793Y-59714759D01*
X76802007Y-59760841D01*
X76997105Y-59820024D01*
X77149162Y-59835000D01*
X77149171Y-59835000D01*
X77199999Y-59840006D01*
X77250827Y-59835000D01*
X77407713Y-59835000D01*
X77410498Y-59844180D01*
X77469463Y-59954494D01*
X77548815Y-60051185D01*
X77645506Y-60130537D01*
X77755820Y-60189502D01*
X77765000Y-60192287D01*
X77765000Y-60345604D01*
X77685363Y-60425241D01*
X77528320Y-60660273D01*
X77420147Y-60921426D01*
X77365000Y-61198665D01*
X77365000Y-61481335D01*
X77420147Y-61758574D01*
X77528320Y-62019727D01*
X77685363Y-62254759D01*
X77765001Y-62334397D01*
X77765000Y-62885604D01*
X77685363Y-62965241D01*
X77528320Y-63200273D01*
X77420147Y-63461426D01*
X77365000Y-63738665D01*
X77365000Y-64021335D01*
X77420147Y-64298574D01*
X77528320Y-64559727D01*
X77685363Y-64794759D01*
X77765001Y-64874397D01*
X77765000Y-65425604D01*
X77685363Y-65505241D01*
X77528320Y-65740273D01*
X77420147Y-66001426D01*
X77365000Y-66278665D01*
X77365000Y-66561335D01*
X77420147Y-66838574D01*
X77528320Y-67099727D01*
X77685363Y-67334759D01*
X77765001Y-67414397D01*
X77765000Y-67965604D01*
X77685363Y-68045241D01*
X77528320Y-68280273D01*
X77420147Y-68541426D01*
X77365000Y-68818665D01*
X77365000Y-69101335D01*
X77420147Y-69378574D01*
X77528320Y-69639727D01*
X77685363Y-69874759D01*
X77765001Y-69954397D01*
X77765000Y-70505604D01*
X77685363Y-70585241D01*
X77528320Y-70820273D01*
X77420147Y-71081426D01*
X77365000Y-71358665D01*
X77365000Y-71641335D01*
X77420147Y-71918574D01*
X77528320Y-72179727D01*
X77685363Y-72414759D01*
X77765001Y-72494397D01*
X77765000Y-73045604D01*
X77685363Y-73125241D01*
X77528320Y-73360273D01*
X77420147Y-73621426D01*
X77365000Y-73898665D01*
X77365000Y-74181335D01*
X77420147Y-74458574D01*
X77528320Y-74719727D01*
X77685363Y-74954759D01*
X77765001Y-75034397D01*
X77765000Y-75585604D01*
X77685363Y-75665241D01*
X77528320Y-75900273D01*
X77420147Y-76161426D01*
X77365000Y-76438665D01*
X77365000Y-76721335D01*
X77420147Y-76998574D01*
X77528320Y-77259727D01*
X77685363Y-77494759D01*
X77885241Y-77694637D01*
X78120273Y-77851680D01*
X78381426Y-77959853D01*
X78658665Y-78015000D01*
X78941335Y-78015000D01*
X79218574Y-77959853D01*
X79479727Y-77851680D01*
X79714759Y-77694637D01*
X79914637Y-77494759D01*
X80071680Y-77259727D01*
X80179853Y-76998574D01*
X80235000Y-76721335D01*
X80235000Y-76438665D01*
X80179853Y-76161426D01*
X80071680Y-75900273D01*
X79914637Y-75665241D01*
X79835000Y-75585604D01*
X79835000Y-75034396D01*
X79914637Y-74954759D01*
X80071680Y-74719727D01*
X80179853Y-74458574D01*
X80235000Y-74181335D01*
X80235000Y-73898665D01*
X80179853Y-73621426D01*
X80071680Y-73360273D01*
X79914637Y-73125241D01*
X79835000Y-73045604D01*
X79835000Y-72494396D01*
X79914637Y-72414759D01*
X80071680Y-72179727D01*
X80179853Y-71918574D01*
X80235000Y-71641335D01*
X80235000Y-71358665D01*
X80179853Y-71081426D01*
X80071680Y-70820273D01*
X79914637Y-70585241D01*
X79835000Y-70505604D01*
X79835000Y-69954396D01*
X79914637Y-69874759D01*
X80071680Y-69639727D01*
X80179853Y-69378574D01*
X80235000Y-69101335D01*
X80235000Y-68818665D01*
X80179853Y-68541426D01*
X80071680Y-68280273D01*
X79914637Y-68045241D01*
X79835000Y-67965604D01*
X79835000Y-67414396D01*
X79914637Y-67334759D01*
X80071680Y-67099727D01*
X80179853Y-66838574D01*
X80235000Y-66561335D01*
X80235000Y-66278665D01*
X80179853Y-66001426D01*
X80071680Y-65740273D01*
X79914637Y-65505241D01*
X79835000Y-65425604D01*
X79835000Y-64874396D01*
X79914637Y-64794759D01*
X80071680Y-64559727D01*
X80179853Y-64298574D01*
X80235000Y-64021335D01*
X80235000Y-63738665D01*
X80179853Y-63461426D01*
X80071680Y-63200273D01*
X79914637Y-62965241D01*
X79835000Y-62885604D01*
X79835000Y-62334396D01*
X79914637Y-62254759D01*
X80071680Y-62019727D01*
X80179853Y-61758574D01*
X80235000Y-61481335D01*
X80235000Y-61198665D01*
X80179853Y-60921426D01*
X80071680Y-60660273D01*
X79914637Y-60425241D01*
X79835000Y-60345604D01*
X79835000Y-60192287D01*
X79844180Y-60189502D01*
X79954494Y-60130537D01*
X80051185Y-60051185D01*
X80130537Y-59954494D01*
X80189502Y-59844180D01*
X80225812Y-59724482D01*
X80238072Y-59600000D01*
X80238072Y-58658665D01*
X84985000Y-58658665D01*
X84985000Y-58941335D01*
X85040147Y-59218574D01*
X85148320Y-59479727D01*
X85305363Y-59714759D01*
X85505241Y-59914637D01*
X85737759Y-60070000D01*
X85505241Y-60225363D01*
X85305363Y-60425241D01*
X85148320Y-60660273D01*
X85040147Y-60921426D01*
X84985000Y-61198665D01*
X84985000Y-61481335D01*
X85040147Y-61758574D01*
X85148320Y-62019727D01*
X85305363Y-62254759D01*
X85505241Y-62454637D01*
X85737759Y-62610000D01*
X85505241Y-62765363D01*
X85305363Y-62965241D01*
X85148320Y-63200273D01*
X85040147Y-63461426D01*
X84985000Y-63738665D01*
X84985000Y-64021335D01*
X85040147Y-64298574D01*
X85148320Y-64559727D01*
X85305363Y-64794759D01*
X85505241Y-64994637D01*
X85737759Y-65150000D01*
X85505241Y-65305363D01*
X85305363Y-65505241D01*
X85148320Y-65740273D01*
X85040147Y-66001426D01*
X84985000Y-66278665D01*
X84985000Y-66561335D01*
X85040147Y-66838574D01*
X85148320Y-67099727D01*
X85305363Y-67334759D01*
X85505241Y-67534637D01*
X85737759Y-67690000D01*
X85505241Y-67845363D01*
X85305363Y-68045241D01*
X85148320Y-68280273D01*
X85040147Y-68541426D01*
X84985000Y-68818665D01*
X84985000Y-69101335D01*
X85040147Y-69378574D01*
X85148320Y-69639727D01*
X85305363Y-69874759D01*
X85505241Y-70074637D01*
X85737759Y-70230000D01*
X85505241Y-70385363D01*
X85305363Y-70585241D01*
X85148320Y-70820273D01*
X85040147Y-71081426D01*
X84985000Y-71358665D01*
X84985000Y-71641335D01*
X85040147Y-71918574D01*
X85148320Y-72179727D01*
X85305363Y-72414759D01*
X85505241Y-72614637D01*
X85737759Y-72770000D01*
X85505241Y-72925363D01*
X85305363Y-73125241D01*
X85148320Y-73360273D01*
X85040147Y-73621426D01*
X84985000Y-73898665D01*
X84985000Y-74181335D01*
X85040147Y-74458574D01*
X85148320Y-74719727D01*
X85305363Y-74954759D01*
X85505241Y-75154637D01*
X85737759Y-75310000D01*
X85505241Y-75465363D01*
X85305363Y-75665241D01*
X85148320Y-75900273D01*
X85040147Y-76161426D01*
X84985000Y-76438665D01*
X84985000Y-76721335D01*
X85040147Y-76998574D01*
X85148320Y-77259727D01*
X85305363Y-77494759D01*
X85505241Y-77694637D01*
X85740273Y-77851680D01*
X86001426Y-77959853D01*
X86278665Y-78015000D01*
X86561335Y-78015000D01*
X86838574Y-77959853D01*
X87099727Y-77851680D01*
X87334759Y-77694637D01*
X87534637Y-77494759D01*
X87691680Y-77259727D01*
X87799853Y-76998574D01*
X87855000Y-76721335D01*
X87855000Y-76438665D01*
X87799853Y-76161426D01*
X87691680Y-75900273D01*
X87534637Y-75665241D01*
X87334759Y-75465363D01*
X87102241Y-75310000D01*
X87334759Y-75154637D01*
X87534637Y-74954759D01*
X87691680Y-74719727D01*
X87799853Y-74458574D01*
X87855000Y-74181335D01*
X87855000Y-73898665D01*
X87799853Y-73621426D01*
X87691680Y-73360273D01*
X87534637Y-73125241D01*
X87334759Y-72925363D01*
X87102241Y-72770000D01*
X87334759Y-72614637D01*
X87534637Y-72414759D01*
X87691680Y-72179727D01*
X87799853Y-71918574D01*
X87855000Y-71641335D01*
X87855000Y-71358665D01*
X87799853Y-71081426D01*
X87691680Y-70820273D01*
X87534637Y-70585241D01*
X87334759Y-70385363D01*
X87102241Y-70230000D01*
X87334759Y-70074637D01*
X87534637Y-69874759D01*
X87691680Y-69639727D01*
X87799853Y-69378574D01*
X87855000Y-69101335D01*
X87855000Y-68868514D01*
X87915000Y-68868514D01*
X87915000Y-69131486D01*
X87966304Y-69389405D01*
X88066939Y-69632359D01*
X88213038Y-69851013D01*
X88398987Y-70036962D01*
X88617641Y-70183061D01*
X88779246Y-70250000D01*
X88617641Y-70316939D01*
X88398987Y-70463038D01*
X88213038Y-70648987D01*
X88066939Y-70867641D01*
X87966304Y-71110595D01*
X87915000Y-71368514D01*
X87915000Y-71631486D01*
X87966304Y-71889405D01*
X88066939Y-72132359D01*
X88213038Y-72351013D01*
X88398987Y-72536962D01*
X88617641Y-72683061D01*
X88779246Y-72750000D01*
X88617641Y-72816939D01*
X88398987Y-72963038D01*
X88213038Y-73148987D01*
X88066939Y-73367641D01*
X87966304Y-73610595D01*
X87915000Y-73868514D01*
X87915000Y-74131486D01*
X87966304Y-74389405D01*
X88066939Y-74632359D01*
X88213038Y-74851013D01*
X88398987Y-75036962D01*
X88617641Y-75183061D01*
X88779246Y-75250000D01*
X88617641Y-75316939D01*
X88398987Y-75463038D01*
X88213038Y-75648987D01*
X88066939Y-75867641D01*
X87966304Y-76110595D01*
X87915000Y-76368514D01*
X87915000Y-76631486D01*
X87966304Y-76889405D01*
X88066939Y-77132359D01*
X88213038Y-77351013D01*
X88398987Y-77536962D01*
X88617641Y-77683061D01*
X88860595Y-77783696D01*
X89118514Y-77835000D01*
X89381486Y-77835000D01*
X89639405Y-77783696D01*
X89882359Y-77683061D01*
X90101013Y-77536962D01*
X90286962Y-77351013D01*
X90433061Y-77132359D01*
X90533696Y-76889405D01*
X90585000Y-76631486D01*
X90585000Y-76368514D01*
X90533696Y-76110595D01*
X90433061Y-75867641D01*
X90286962Y-75648987D01*
X90101013Y-75463038D01*
X89882359Y-75316939D01*
X89720754Y-75250000D01*
X89882359Y-75183061D01*
X90101013Y-75036962D01*
X90286962Y-74851013D01*
X90433061Y-74632359D01*
X90533696Y-74389405D01*
X90585000Y-74131486D01*
X90585000Y-73868514D01*
X90533696Y-73610595D01*
X90433061Y-73367641D01*
X90286962Y-73148987D01*
X90101013Y-72963038D01*
X89882359Y-72816939D01*
X89720754Y-72750000D01*
X89882359Y-72683061D01*
X90101013Y-72536962D01*
X90286962Y-72351013D01*
X90433061Y-72132359D01*
X90533696Y-71889405D01*
X90585000Y-71631486D01*
X90585000Y-71368514D01*
X90533696Y-71110595D01*
X90433061Y-70867641D01*
X90286962Y-70648987D01*
X90101013Y-70463038D01*
X89882359Y-70316939D01*
X89720754Y-70250000D01*
X89882359Y-70183061D01*
X90101013Y-70036962D01*
X90286962Y-69851013D01*
X90433061Y-69632359D01*
X90533696Y-69389405D01*
X90585000Y-69131486D01*
X90585000Y-68868514D01*
X90533696Y-68610595D01*
X90433061Y-68367641D01*
X90286962Y-68148987D01*
X90101013Y-67963038D01*
X89882359Y-67816939D01*
X89639405Y-67716304D01*
X89381486Y-67665000D01*
X89118514Y-67665000D01*
X88860595Y-67716304D01*
X88617641Y-67816939D01*
X88398987Y-67963038D01*
X88213038Y-68148987D01*
X88066939Y-68367641D01*
X87966304Y-68610595D01*
X87915000Y-68868514D01*
X87855000Y-68868514D01*
X87855000Y-68818665D01*
X87799853Y-68541426D01*
X87691680Y-68280273D01*
X87534637Y-68045241D01*
X87334759Y-67845363D01*
X87102241Y-67690000D01*
X87334759Y-67534637D01*
X87534637Y-67334759D01*
X87691680Y-67099727D01*
X87799853Y-66838574D01*
X87855000Y-66561335D01*
X87855000Y-66278665D01*
X87799853Y-66001426D01*
X87691680Y-65740273D01*
X87534637Y-65505241D01*
X87334759Y-65305363D01*
X87102241Y-65150000D01*
X87334759Y-64994637D01*
X87534637Y-64794759D01*
X87691680Y-64559727D01*
X87799853Y-64298574D01*
X87855000Y-64021335D01*
X87855000Y-63982031D01*
X87886304Y-64139405D01*
X87986939Y-64382359D01*
X88133038Y-64601013D01*
X88318987Y-64786962D01*
X88537641Y-64933061D01*
X88739246Y-65016569D01*
X88617641Y-65066939D01*
X88398987Y-65213038D01*
X88213038Y-65398987D01*
X88066939Y-65617641D01*
X87966304Y-65860595D01*
X87915000Y-66118514D01*
X87915000Y-66381486D01*
X87966304Y-66639405D01*
X88066939Y-66882359D01*
X88213038Y-67101013D01*
X88398987Y-67286962D01*
X88617641Y-67433061D01*
X88860595Y-67533696D01*
X89118514Y-67585000D01*
X89381486Y-67585000D01*
X89639405Y-67533696D01*
X89882359Y-67433061D01*
X90101013Y-67286962D01*
X90286962Y-67101013D01*
X90433061Y-66882359D01*
X90533696Y-66639405D01*
X90585000Y-66381486D01*
X90585000Y-66118514D01*
X90533696Y-65860595D01*
X90433061Y-65617641D01*
X90286962Y-65398987D01*
X90101013Y-65213038D01*
X89882359Y-65066939D01*
X89680754Y-64983431D01*
X89802359Y-64933061D01*
X90021013Y-64786962D01*
X90206962Y-64601013D01*
X90353061Y-64382359D01*
X90453696Y-64139405D01*
X90505000Y-63881486D01*
X90505000Y-63618514D01*
X90453696Y-63360595D01*
X90353061Y-63117641D01*
X90206962Y-62898987D01*
X90021013Y-62713038D01*
X89802359Y-62566939D01*
X89640754Y-62500000D01*
X89802359Y-62433061D01*
X90021013Y-62286962D01*
X90206962Y-62101013D01*
X90353061Y-61882359D01*
X90453696Y-61639405D01*
X90505000Y-61381486D01*
X90505000Y-61118514D01*
X90453696Y-60860595D01*
X90353061Y-60617641D01*
X90206962Y-60398987D01*
X90021013Y-60213038D01*
X89802359Y-60066939D01*
X89640754Y-60000000D01*
X89802359Y-59933061D01*
X90021013Y-59786962D01*
X90206962Y-59601013D01*
X90353061Y-59382359D01*
X90453696Y-59139405D01*
X90505000Y-58881486D01*
X90505000Y-58618514D01*
X92915000Y-58618514D01*
X92915000Y-58881486D01*
X92966304Y-59139405D01*
X93066939Y-59382359D01*
X93213038Y-59601013D01*
X93215000Y-59602975D01*
X93215001Y-60397024D01*
X93213038Y-60398987D01*
X93066939Y-60617641D01*
X92966304Y-60860595D01*
X92915000Y-61118514D01*
X92915000Y-61381486D01*
X92966304Y-61639405D01*
X93066939Y-61882359D01*
X93213038Y-62101013D01*
X93215001Y-62102976D01*
X93215000Y-62897025D01*
X93213038Y-62898987D01*
X93066939Y-63117641D01*
X92966304Y-63360595D01*
X92915000Y-63618514D01*
X92915000Y-63881486D01*
X92966304Y-64139405D01*
X93066939Y-64382359D01*
X93213038Y-64601013D01*
X93215001Y-64602976D01*
X93215000Y-65515779D01*
X93146939Y-65617641D01*
X93046304Y-65860595D01*
X92995000Y-66118514D01*
X92995000Y-66381486D01*
X93046304Y-66639405D01*
X93146939Y-66882359D01*
X93293038Y-67101013D01*
X93295001Y-67102976D01*
X93295000Y-68147025D01*
X93293038Y-68148987D01*
X93146939Y-68367641D01*
X93046304Y-68610595D01*
X92995000Y-68868514D01*
X92995000Y-69131486D01*
X93046304Y-69389405D01*
X93146939Y-69632359D01*
X93293038Y-69851013D01*
X93295001Y-69852976D01*
X93295000Y-70647025D01*
X93293038Y-70648987D01*
X93146939Y-70867641D01*
X93046304Y-71110595D01*
X92995000Y-71368514D01*
X92995000Y-71631486D01*
X93046304Y-71889405D01*
X93146939Y-72132359D01*
X93293038Y-72351013D01*
X93295001Y-72352976D01*
X93295000Y-73147025D01*
X93293038Y-73148987D01*
X93146939Y-73367641D01*
X93046304Y-73610595D01*
X92995000Y-73868514D01*
X92995000Y-74131486D01*
X93046304Y-74389405D01*
X93146939Y-74632359D01*
X93293038Y-74851013D01*
X93295001Y-74852976D01*
X93295000Y-75647025D01*
X93293038Y-75648987D01*
X93146939Y-75867641D01*
X93046304Y-76110595D01*
X92995000Y-76368514D01*
X92995000Y-76631486D01*
X93046304Y-76889405D01*
X93146939Y-77132359D01*
X93293038Y-77351013D01*
X93478987Y-77536962D01*
X93697641Y-77683061D01*
X93940595Y-77783696D01*
X94198514Y-77835000D01*
X94461486Y-77835000D01*
X94719405Y-77783696D01*
X94962359Y-77683061D01*
X95181013Y-77536962D01*
X95366962Y-77351013D01*
X95513061Y-77132359D01*
X95613696Y-76889405D01*
X95665000Y-76631486D01*
X95665000Y-76368514D01*
X95613696Y-76110595D01*
X95513061Y-75867641D01*
X95366962Y-75648987D01*
X95365000Y-75647025D01*
X95365000Y-74852975D01*
X95366962Y-74851013D01*
X95513061Y-74632359D01*
X95613696Y-74389405D01*
X95665000Y-74131486D01*
X95665000Y-73868514D01*
X95613696Y-73610595D01*
X95513061Y-73367641D01*
X95366962Y-73148987D01*
X95365000Y-73147025D01*
X95365000Y-72352975D01*
X95366962Y-72351013D01*
X95513061Y-72132359D01*
X95613696Y-71889405D01*
X95665000Y-71631486D01*
X95665000Y-71368514D01*
X95613696Y-71110595D01*
X95513061Y-70867641D01*
X95366962Y-70648987D01*
X95365000Y-70647025D01*
X95365000Y-69852975D01*
X95366962Y-69851013D01*
X95513061Y-69632359D01*
X95613696Y-69389405D01*
X95619810Y-69358665D01*
X98315000Y-69358665D01*
X98315000Y-69641335D01*
X98370147Y-69918574D01*
X98478320Y-70179727D01*
X98635363Y-70414759D01*
X98835241Y-70614637D01*
X99070273Y-70771680D01*
X99331426Y-70879853D01*
X99608665Y-70935000D01*
X99721290Y-70935000D01*
X104215001Y-75428712D01*
X104215000Y-76029161D01*
X104209993Y-76080000D01*
X104229976Y-76282895D01*
X104289159Y-76477993D01*
X104354385Y-76600023D01*
X104385266Y-76657797D01*
X104514604Y-76815396D01*
X104672203Y-76944734D01*
X104852007Y-77040841D01*
X105047105Y-77100024D01*
X105250000Y-77120007D01*
X105300838Y-77115000D01*
X105897025Y-77115000D01*
X105898987Y-77116962D01*
X106117641Y-77263061D01*
X106360595Y-77363696D01*
X106618514Y-77415000D01*
X106881486Y-77415000D01*
X107139405Y-77363696D01*
X107382359Y-77263061D01*
X107601013Y-77116962D01*
X107786962Y-76931013D01*
X107933061Y-76712359D01*
X108033696Y-76469405D01*
X108085000Y-76211486D01*
X108085000Y-75948514D01*
X108033696Y-75690595D01*
X107933061Y-75447641D01*
X107786962Y-75228987D01*
X107601013Y-75043038D01*
X107382359Y-74896939D01*
X107139405Y-74796304D01*
X106881486Y-74745000D01*
X106618514Y-74745000D01*
X106360595Y-74796304D01*
X106273498Y-74832381D01*
X106270024Y-74797105D01*
X106210841Y-74602007D01*
X106210841Y-74602006D01*
X106114734Y-74422202D01*
X106017803Y-74304092D01*
X105985396Y-74264604D01*
X105945908Y-74232197D01*
X104072376Y-72358665D01*
X113315000Y-72358665D01*
X113315000Y-72641335D01*
X113370147Y-72918574D01*
X113478320Y-73179727D01*
X113635363Y-73414759D01*
X113835241Y-73614637D01*
X114037827Y-73750000D01*
X113835241Y-73885363D01*
X113635363Y-74085241D01*
X113478320Y-74320273D01*
X113370147Y-74581426D01*
X113315000Y-74858665D01*
X113315000Y-75141335D01*
X113370147Y-75418574D01*
X113478320Y-75679727D01*
X113635363Y-75914759D01*
X113835241Y-76114637D01*
X114070273Y-76271680D01*
X114331426Y-76379853D01*
X114608665Y-76435000D01*
X114891335Y-76435000D01*
X115168574Y-76379853D01*
X115429727Y-76271680D01*
X115664759Y-76114637D01*
X115864637Y-75914759D01*
X116021680Y-75679727D01*
X116129853Y-75418574D01*
X116185000Y-75141335D01*
X116185000Y-75028710D01*
X125695908Y-65517803D01*
X125735396Y-65485396D01*
X125803676Y-65402197D01*
X125864734Y-65327798D01*
X125958870Y-65151680D01*
X125960841Y-65147993D01*
X126020024Y-64952895D01*
X126035000Y-64800838D01*
X126035000Y-64800829D01*
X126040006Y-64750001D01*
X126035000Y-64699173D01*
X126035000Y-63515098D01*
X127865000Y-63515098D01*
X127865000Y-63984902D01*
X127956654Y-64445679D01*
X128136440Y-64879721D01*
X128397450Y-65270349D01*
X128729651Y-65602550D01*
X129120279Y-65863560D01*
X129554321Y-66043346D01*
X130015098Y-66135000D01*
X130484902Y-66135000D01*
X130945679Y-66043346D01*
X131379721Y-65863560D01*
X131770349Y-65602550D01*
X132102550Y-65270349D01*
X132363560Y-64879721D01*
X132543346Y-64445679D01*
X132635000Y-63984902D01*
X132635000Y-63515098D01*
X132543346Y-63054321D01*
X132363560Y-62620279D01*
X132102550Y-62229651D01*
X131770349Y-61897450D01*
X131379721Y-61636440D01*
X130945679Y-61456654D01*
X130484902Y-61365000D01*
X130015098Y-61365000D01*
X129554321Y-61456654D01*
X129120279Y-61636440D01*
X128729651Y-61897450D01*
X128397450Y-62229651D01*
X128136440Y-62620279D01*
X127956654Y-63054321D01*
X127865000Y-63515098D01*
X126035000Y-63515098D01*
X126035000Y-58535000D01*
X127449172Y-58535000D01*
X127500000Y-58540006D01*
X127550828Y-58535000D01*
X127550838Y-58535000D01*
X127702895Y-58520024D01*
X127897993Y-58460841D01*
X128077797Y-58364734D01*
X128235396Y-58235396D01*
X128267807Y-58195903D01*
X129459599Y-57004111D01*
X129554321Y-57043346D01*
X130015098Y-57135000D01*
X130484902Y-57135000D01*
X130945679Y-57043346D01*
X131379721Y-56863560D01*
X131770349Y-56602550D01*
X132102550Y-56270349D01*
X132363560Y-55879721D01*
X132543346Y-55445679D01*
X132635000Y-54984902D01*
X132635000Y-54515098D01*
X132543346Y-54054321D01*
X132363560Y-53620279D01*
X132102550Y-53229651D01*
X131770349Y-52897450D01*
X131379721Y-52636440D01*
X130945679Y-52456654D01*
X130484902Y-52365000D01*
X130015098Y-52365000D01*
X129554321Y-52456654D01*
X129120279Y-52636440D01*
X128729651Y-52897450D01*
X128397450Y-53229651D01*
X128136440Y-53620279D01*
X127956654Y-54054321D01*
X127865000Y-54515098D01*
X127865000Y-54984902D01*
X127956654Y-55445679D01*
X127995889Y-55540401D01*
X127071290Y-56465000D01*
X125852975Y-56465000D01*
X125851013Y-56463038D01*
X125632359Y-56316939D01*
X125389405Y-56216304D01*
X125131486Y-56165000D01*
X124868514Y-56165000D01*
X124610595Y-56216304D01*
X124367641Y-56316939D01*
X124148987Y-56463038D01*
X123963038Y-56648987D01*
X123816939Y-56867641D01*
X123716304Y-57110595D01*
X123665000Y-57368514D01*
X123665000Y-57631486D01*
X123716304Y-57889405D01*
X123816939Y-58132359D01*
X123963038Y-58351013D01*
X123965000Y-58352975D01*
X123965001Y-64321288D01*
X116142298Y-72143992D01*
X116129853Y-72081426D01*
X116021680Y-71820273D01*
X115864637Y-71585241D01*
X115785000Y-71505604D01*
X115785000Y-69602975D01*
X115786962Y-69601013D01*
X115933061Y-69382359D01*
X116033696Y-69139405D01*
X116085000Y-68881486D01*
X116085000Y-68618514D01*
X116033696Y-68360595D01*
X115933061Y-68117641D01*
X115786962Y-67898987D01*
X115601013Y-67713038D01*
X115382359Y-67566939D01*
X115139405Y-67466304D01*
X114881486Y-67415000D01*
X114618514Y-67415000D01*
X114360595Y-67466304D01*
X114117641Y-67566939D01*
X113898987Y-67713038D01*
X113713038Y-67898987D01*
X113566939Y-68117641D01*
X113466304Y-68360595D01*
X113415000Y-68618514D01*
X113415000Y-68881486D01*
X113466304Y-69139405D01*
X113566939Y-69382359D01*
X113713038Y-69601013D01*
X113715000Y-69602975D01*
X113715001Y-71505603D01*
X113635363Y-71585241D01*
X113478320Y-71820273D01*
X113370147Y-72081426D01*
X113315000Y-72358665D01*
X104072376Y-72358665D01*
X102606009Y-70892298D01*
X102668574Y-70879853D01*
X102695948Y-70868514D01*
X105415000Y-70868514D01*
X105415000Y-71131486D01*
X105466304Y-71389405D01*
X105566939Y-71632359D01*
X105713038Y-71851013D01*
X105898987Y-72036962D01*
X106117641Y-72183061D01*
X106360595Y-72283696D01*
X106618514Y-72335000D01*
X106881486Y-72335000D01*
X107139405Y-72283696D01*
X107382359Y-72183061D01*
X107601013Y-72036962D01*
X107786962Y-71851013D01*
X107933061Y-71632359D01*
X108033696Y-71389405D01*
X108085000Y-71131486D01*
X108085000Y-70868514D01*
X108033696Y-70610595D01*
X107933061Y-70367641D01*
X107786962Y-70148987D01*
X107601013Y-69963038D01*
X107382359Y-69816939D01*
X107139405Y-69716304D01*
X106881486Y-69665000D01*
X106618514Y-69665000D01*
X106360595Y-69716304D01*
X106117641Y-69816939D01*
X105898987Y-69963038D01*
X105713038Y-70148987D01*
X105566939Y-70367641D01*
X105466304Y-70610595D01*
X105415000Y-70868514D01*
X102695948Y-70868514D01*
X102929727Y-70771680D01*
X103164759Y-70614637D01*
X103364637Y-70414759D01*
X103521680Y-70179727D01*
X103629853Y-69918574D01*
X103685000Y-69641335D01*
X103685000Y-69358665D01*
X103629853Y-69081426D01*
X103521680Y-68820273D01*
X103364637Y-68585241D01*
X103164759Y-68385363D01*
X102929727Y-68228320D01*
X102668574Y-68120147D01*
X102391335Y-68065000D01*
X102108665Y-68065000D01*
X101831426Y-68120147D01*
X101570273Y-68228320D01*
X101335241Y-68385363D01*
X101135363Y-68585241D01*
X101000000Y-68787827D01*
X100864637Y-68585241D01*
X100664759Y-68385363D01*
X100429727Y-68228320D01*
X100168574Y-68120147D01*
X99891335Y-68065000D01*
X99608665Y-68065000D01*
X99331426Y-68120147D01*
X99070273Y-68228320D01*
X98835241Y-68385363D01*
X98635363Y-68585241D01*
X98478320Y-68820273D01*
X98370147Y-69081426D01*
X98315000Y-69358665D01*
X95619810Y-69358665D01*
X95665000Y-69131486D01*
X95665000Y-68868514D01*
X95613696Y-68610595D01*
X95513061Y-68367641D01*
X95366962Y-68148987D01*
X95365000Y-68147025D01*
X95365000Y-67102975D01*
X95366962Y-67101013D01*
X95513061Y-66882359D01*
X95613696Y-66639405D01*
X95665000Y-66381486D01*
X95665000Y-66118514D01*
X95613696Y-65860595D01*
X95513061Y-65617641D01*
X95366962Y-65398987D01*
X95285000Y-65317025D01*
X95285000Y-64602975D01*
X95286962Y-64601013D01*
X95433061Y-64382359D01*
X95533696Y-64139405D01*
X95585000Y-63881486D01*
X95585000Y-63618514D01*
X95533696Y-63360595D01*
X95433061Y-63117641D01*
X95286962Y-62898987D01*
X95285000Y-62897025D01*
X95285000Y-62102975D01*
X95286962Y-62101013D01*
X95433061Y-61882359D01*
X95533696Y-61639405D01*
X95585000Y-61381486D01*
X95585000Y-61118514D01*
X95533696Y-60860595D01*
X95433061Y-60617641D01*
X95286962Y-60398987D01*
X95285000Y-60397025D01*
X95285000Y-59602975D01*
X95286962Y-59601013D01*
X95433061Y-59382359D01*
X95533696Y-59139405D01*
X95585000Y-58881486D01*
X95585000Y-58618514D01*
X95533696Y-58360595D01*
X95433061Y-58117641D01*
X95286962Y-57898987D01*
X95101013Y-57713038D01*
X94882359Y-57566939D01*
X94639405Y-57466304D01*
X94381486Y-57415000D01*
X94118514Y-57415000D01*
X93860595Y-57466304D01*
X93617641Y-57566939D01*
X93398987Y-57713038D01*
X93213038Y-57898987D01*
X93066939Y-58117641D01*
X92966304Y-58360595D01*
X92915000Y-58618514D01*
X90505000Y-58618514D01*
X90453696Y-58360595D01*
X90353061Y-58117641D01*
X90206962Y-57898987D01*
X90021013Y-57713038D01*
X89802359Y-57566939D01*
X89559405Y-57466304D01*
X89301486Y-57415000D01*
X89038514Y-57415000D01*
X88780595Y-57466304D01*
X88537641Y-57566939D01*
X88318987Y-57713038D01*
X88133038Y-57898987D01*
X87986939Y-58117641D01*
X87886304Y-58360595D01*
X87841007Y-58588317D01*
X87799853Y-58381426D01*
X87691680Y-58120273D01*
X87534637Y-57885241D01*
X87334759Y-57685363D01*
X87099727Y-57528320D01*
X86838574Y-57420147D01*
X86561335Y-57365000D01*
X86278665Y-57365000D01*
X86001426Y-57420147D01*
X85740273Y-57528320D01*
X85505241Y-57685363D01*
X85305363Y-57885241D01*
X85148320Y-58120273D01*
X85040147Y-58381426D01*
X84985000Y-58658665D01*
X80238072Y-58658665D01*
X80238072Y-58000000D01*
X80225812Y-57875518D01*
X80189502Y-57755820D01*
X80130537Y-57645506D01*
X80051185Y-57548815D01*
X79954494Y-57469463D01*
X79844180Y-57410498D01*
X79724482Y-57374188D01*
X79600000Y-57361928D01*
X78000000Y-57361928D01*
X77875518Y-57374188D01*
X77755820Y-57410498D01*
X77645506Y-57469463D01*
X77548815Y-57548815D01*
X77487382Y-57623671D01*
X76687807Y-56824097D01*
X76655396Y-56784604D01*
X76497797Y-56655266D01*
X76317993Y-56559159D01*
X76122895Y-56499976D01*
X76072700Y-56495032D01*
X76072700Y-49588527D01*
X76077706Y-49537699D01*
X76072700Y-49486871D01*
X76072700Y-49486862D01*
X76057724Y-49334805D01*
X75998541Y-49139707D01*
X75913625Y-48980840D01*
X75902434Y-48959902D01*
X75805503Y-48841792D01*
X75773096Y-48802304D01*
X75733608Y-48769897D01*
X75035000Y-48071290D01*
X75035000Y-47852975D01*
X75036962Y-47851013D01*
X75183061Y-47632359D01*
X75283696Y-47389405D01*
X75335000Y-47131486D01*
X75335000Y-46868514D01*
X75283696Y-46610595D01*
X75183061Y-46367641D01*
X75036962Y-46148987D01*
X74851013Y-45963038D01*
X74632359Y-45816939D01*
X74389405Y-45716304D01*
X74131486Y-45665000D01*
X73868514Y-45665000D01*
X73610595Y-45716304D01*
X73435466Y-45788845D01*
X74695908Y-44528403D01*
X74735396Y-44495996D01*
X74822873Y-44389405D01*
X74864734Y-44338398D01*
X74922860Y-44229651D01*
X74960841Y-44158593D01*
X75020024Y-43963495D01*
X75035000Y-43811438D01*
X75035000Y-43811429D01*
X75040006Y-43760601D01*
X75035000Y-43709773D01*
X75035000Y-39494396D01*
X75114637Y-39414759D01*
X75271680Y-39179727D01*
X75379853Y-38918574D01*
X75435000Y-38641335D01*
X75435000Y-38358665D01*
X75379853Y-38081426D01*
X75271680Y-37820273D01*
X75114637Y-37585241D01*
X74914759Y-37385363D01*
X74679727Y-37228320D01*
X74418574Y-37120147D01*
X74141335Y-37065000D01*
X73858665Y-37065000D01*
X73581426Y-37120147D01*
X73320273Y-37228320D01*
X73085241Y-37385363D01*
X72885363Y-37585241D01*
X72728320Y-37820273D01*
X72620147Y-38081426D01*
X72565000Y-38358665D01*
X72565000Y-38641335D01*
X72620147Y-38918574D01*
X72728320Y-39179727D01*
X72885363Y-39414759D01*
X72965001Y-39494397D01*
X72965000Y-43331889D01*
X70033442Y-46263448D01*
X69956962Y-46148987D01*
X69771013Y-45963038D01*
X69552359Y-45816939D01*
X69309405Y-45716304D01*
X69051486Y-45665000D01*
X68788514Y-45665000D01*
X68530595Y-45716304D01*
X68287641Y-45816939D01*
X68068987Y-45963038D01*
X68067025Y-45965000D01*
X67550835Y-45965000D01*
X67500000Y-45959993D01*
X67449164Y-45965000D01*
X67449162Y-45965000D01*
X67297105Y-45979976D01*
X67102007Y-46039159D01*
X67018309Y-46083896D01*
X66922202Y-46135266D01*
X66804092Y-46232197D01*
X66764604Y-46264604D01*
X66732197Y-46304092D01*
X60471290Y-52565000D01*
X60358665Y-52565000D01*
X60081426Y-52620147D01*
X59820273Y-52728320D01*
X59585241Y-52885363D01*
X59385363Y-53085241D01*
X59228320Y-53320273D01*
X59120147Y-53581426D01*
X59107702Y-53643992D01*
X59035000Y-53571290D01*
X59035000Y-49928710D01*
X74028711Y-34935000D01*
X74141335Y-34935000D01*
X74418574Y-34879853D01*
X74679727Y-34771680D01*
X74914759Y-34614637D01*
X75114637Y-34414759D01*
X75271680Y-34179727D01*
X75379853Y-33918574D01*
X75435000Y-33641335D01*
X75435000Y-33622000D01*
X76911928Y-33622000D01*
X76911928Y-34800000D01*
X76924188Y-34924482D01*
X76960498Y-35044180D01*
X77019463Y-35154494D01*
X77098815Y-35251185D01*
X77195506Y-35330537D01*
X77305820Y-35389502D01*
X77315000Y-35392287D01*
X77315000Y-35545604D01*
X77235363Y-35625241D01*
X77078320Y-35860273D01*
X76970147Y-36121426D01*
X76915000Y-36398665D01*
X76915000Y-36681335D01*
X76970147Y-36958574D01*
X77078320Y-37219727D01*
X77235363Y-37454759D01*
X77315001Y-37534397D01*
X77315000Y-38085604D01*
X77235363Y-38165241D01*
X77078320Y-38400273D01*
X76970147Y-38661426D01*
X76915000Y-38938665D01*
X76915000Y-39221335D01*
X76970147Y-39498574D01*
X77078320Y-39759727D01*
X77235363Y-39994759D01*
X77315001Y-40074397D01*
X77315000Y-40625604D01*
X77235363Y-40705241D01*
X77078320Y-40940273D01*
X76970147Y-41201426D01*
X76915000Y-41478665D01*
X76915000Y-41761335D01*
X76970147Y-42038574D01*
X77078320Y-42299727D01*
X77235363Y-42534759D01*
X77315001Y-42614397D01*
X77315000Y-43165604D01*
X77235363Y-43245241D01*
X77078320Y-43480273D01*
X76970147Y-43741426D01*
X76915000Y-44018665D01*
X76915000Y-44301335D01*
X76970147Y-44578574D01*
X77078320Y-44839727D01*
X77235363Y-45074759D01*
X77315001Y-45154397D01*
X77315000Y-45705604D01*
X77235363Y-45785241D01*
X77078320Y-46020273D01*
X76970147Y-46281426D01*
X76915000Y-46558665D01*
X76915000Y-46841335D01*
X76970147Y-47118574D01*
X77078320Y-47379727D01*
X77235363Y-47614759D01*
X77315001Y-47694397D01*
X77315000Y-48245604D01*
X77235363Y-48325241D01*
X77078320Y-48560273D01*
X76970147Y-48821426D01*
X76915000Y-49098665D01*
X76915000Y-49381335D01*
X76970147Y-49658574D01*
X77078320Y-49919727D01*
X77235363Y-50154759D01*
X77315001Y-50234397D01*
X77315000Y-50785604D01*
X77235363Y-50865241D01*
X77078320Y-51100273D01*
X76970147Y-51361426D01*
X76915000Y-51638665D01*
X76915000Y-51921335D01*
X76970147Y-52198574D01*
X77078320Y-52459727D01*
X77235363Y-52694759D01*
X77435241Y-52894637D01*
X77670273Y-53051680D01*
X77931426Y-53159853D01*
X78208665Y-53215000D01*
X78491335Y-53215000D01*
X78768574Y-53159853D01*
X79029727Y-53051680D01*
X79264759Y-52894637D01*
X79464637Y-52694759D01*
X79621680Y-52459727D01*
X79729853Y-52198574D01*
X79785000Y-51921335D01*
X79785000Y-51638665D01*
X79729853Y-51361426D01*
X79621680Y-51100273D01*
X79464637Y-50865241D01*
X79385000Y-50785604D01*
X79385000Y-50234396D01*
X79464637Y-50154759D01*
X79621680Y-49919727D01*
X79729853Y-49658574D01*
X79785000Y-49381335D01*
X79785000Y-49098665D01*
X79729853Y-48821426D01*
X79621680Y-48560273D01*
X79464637Y-48325241D01*
X79385000Y-48245604D01*
X79385000Y-47694396D01*
X79464637Y-47614759D01*
X79621680Y-47379727D01*
X79729853Y-47118574D01*
X79785000Y-46841335D01*
X79785000Y-46558665D01*
X79729853Y-46281426D01*
X79621680Y-46020273D01*
X79464637Y-45785241D01*
X79385000Y-45705604D01*
X79385000Y-45154396D01*
X79464637Y-45074759D01*
X79621680Y-44839727D01*
X79729853Y-44578574D01*
X79785000Y-44301335D01*
X79785000Y-44018665D01*
X79729853Y-43741426D01*
X79621680Y-43480273D01*
X79464637Y-43245241D01*
X79385000Y-43165604D01*
X79385000Y-42614396D01*
X79464637Y-42534759D01*
X79621680Y-42299727D01*
X79729853Y-42038574D01*
X79785000Y-41761335D01*
X79785000Y-41478665D01*
X79729853Y-41201426D01*
X79621680Y-40940273D01*
X79464637Y-40705241D01*
X79385000Y-40625604D01*
X79385000Y-40074396D01*
X79464637Y-39994759D01*
X79621680Y-39759727D01*
X79729853Y-39498574D01*
X79785000Y-39221335D01*
X79785000Y-38938665D01*
X79729853Y-38661426D01*
X79621680Y-38400273D01*
X79464637Y-38165241D01*
X79385000Y-38085604D01*
X79385000Y-37534396D01*
X79464637Y-37454759D01*
X79621680Y-37219727D01*
X79729853Y-36958574D01*
X79785000Y-36681335D01*
X79785000Y-36398665D01*
X79729853Y-36121426D01*
X79621680Y-35860273D01*
X79464637Y-35625241D01*
X79385000Y-35545604D01*
X79385000Y-35392287D01*
X79394180Y-35389502D01*
X79504494Y-35330537D01*
X79601185Y-35251185D01*
X79680537Y-35154494D01*
X79739502Y-35044180D01*
X79775812Y-34924482D01*
X79788072Y-34800000D01*
X79788072Y-33622000D01*
X84582076Y-33622000D01*
X84535000Y-33858665D01*
X84535000Y-34141335D01*
X84590147Y-34418574D01*
X84698320Y-34679727D01*
X84855363Y-34914759D01*
X85055241Y-35114637D01*
X85287759Y-35270000D01*
X85055241Y-35425363D01*
X84855363Y-35625241D01*
X84698320Y-35860273D01*
X84590147Y-36121426D01*
X84535000Y-36398665D01*
X84535000Y-36681335D01*
X84590147Y-36958574D01*
X84698320Y-37219727D01*
X84855363Y-37454759D01*
X85055241Y-37654637D01*
X85287759Y-37810000D01*
X85055241Y-37965363D01*
X84855363Y-38165241D01*
X84698320Y-38400273D01*
X84590147Y-38661426D01*
X84535000Y-38938665D01*
X84535000Y-39221335D01*
X84590147Y-39498574D01*
X84698320Y-39759727D01*
X84855363Y-39994759D01*
X85055241Y-40194637D01*
X85287759Y-40350000D01*
X85055241Y-40505363D01*
X84855363Y-40705241D01*
X84698320Y-40940273D01*
X84590147Y-41201426D01*
X84535000Y-41478665D01*
X84535000Y-41761335D01*
X84590147Y-42038574D01*
X84698320Y-42299727D01*
X84855363Y-42534759D01*
X85055241Y-42734637D01*
X85287759Y-42890000D01*
X85055241Y-43045363D01*
X84855363Y-43245241D01*
X84698320Y-43480273D01*
X84590147Y-43741426D01*
X84535000Y-44018665D01*
X84535000Y-44301335D01*
X84590147Y-44578574D01*
X84698320Y-44839727D01*
X84855363Y-45074759D01*
X85055241Y-45274637D01*
X85287759Y-45430000D01*
X85055241Y-45585363D01*
X84855363Y-45785241D01*
X84698320Y-46020273D01*
X84590147Y-46281426D01*
X84535000Y-46558665D01*
X84535000Y-46841335D01*
X84590147Y-47118574D01*
X84698320Y-47379727D01*
X84855363Y-47614759D01*
X85055241Y-47814637D01*
X85287759Y-47970000D01*
X85055241Y-48125363D01*
X84855363Y-48325241D01*
X84698320Y-48560273D01*
X84590147Y-48821426D01*
X84535000Y-49098665D01*
X84535000Y-49381335D01*
X84590147Y-49658574D01*
X84698320Y-49919727D01*
X84855363Y-50154759D01*
X85055241Y-50354637D01*
X85287759Y-50510000D01*
X85055241Y-50665363D01*
X84855363Y-50865241D01*
X84698320Y-51100273D01*
X84590147Y-51361426D01*
X84535000Y-51638665D01*
X84535000Y-51921335D01*
X84590147Y-52198574D01*
X84698320Y-52459727D01*
X84855363Y-52694759D01*
X85055241Y-52894637D01*
X85290273Y-53051680D01*
X85551426Y-53159853D01*
X85828665Y-53215000D01*
X86111335Y-53215000D01*
X86388574Y-53159853D01*
X86649727Y-53051680D01*
X86884759Y-52894637D01*
X87084637Y-52694759D01*
X87241680Y-52459727D01*
X87349853Y-52198574D01*
X87405000Y-51921335D01*
X87405000Y-51638665D01*
X87349853Y-51361426D01*
X87241680Y-51100273D01*
X87084637Y-50865241D01*
X86884759Y-50665363D01*
X86652241Y-50510000D01*
X86884759Y-50354637D01*
X87084637Y-50154759D01*
X87241680Y-49919727D01*
X87349853Y-49658574D01*
X87405000Y-49381335D01*
X87405000Y-49098665D01*
X87349853Y-48821426D01*
X87241680Y-48560273D01*
X87084637Y-48325241D01*
X86884759Y-48125363D01*
X86652241Y-47970000D01*
X86884759Y-47814637D01*
X87084637Y-47614759D01*
X87241680Y-47379727D01*
X87349853Y-47118574D01*
X87405000Y-46841335D01*
X87405000Y-46618514D01*
X87585000Y-46618514D01*
X87585000Y-46881486D01*
X87636304Y-47139405D01*
X87736939Y-47382359D01*
X87883038Y-47601013D01*
X88068987Y-47786962D01*
X88287641Y-47933061D01*
X88449246Y-48000000D01*
X88287641Y-48066939D01*
X88068987Y-48213038D01*
X87883038Y-48398987D01*
X87736939Y-48617641D01*
X87636304Y-48860595D01*
X87585000Y-49118514D01*
X87585000Y-49381486D01*
X87636304Y-49639405D01*
X87736939Y-49882359D01*
X87883038Y-50101013D01*
X88068987Y-50286962D01*
X88287641Y-50433061D01*
X88449246Y-50500000D01*
X88287641Y-50566939D01*
X88068987Y-50713038D01*
X87883038Y-50898987D01*
X87736939Y-51117641D01*
X87636304Y-51360595D01*
X87585000Y-51618514D01*
X87585000Y-51881486D01*
X87636304Y-52139405D01*
X87736939Y-52382359D01*
X87883038Y-52601013D01*
X88068987Y-52786962D01*
X88287641Y-52933061D01*
X88530595Y-53033696D01*
X88788514Y-53085000D01*
X89051486Y-53085000D01*
X89309405Y-53033696D01*
X89552359Y-52933061D01*
X89771013Y-52786962D01*
X89956962Y-52601013D01*
X90103061Y-52382359D01*
X90203696Y-52139405D01*
X90255000Y-51881486D01*
X90255000Y-51618514D01*
X90203696Y-51360595D01*
X90103061Y-51117641D01*
X89956962Y-50898987D01*
X89771013Y-50713038D01*
X89552359Y-50566939D01*
X89390754Y-50500000D01*
X89552359Y-50433061D01*
X89771013Y-50286962D01*
X89956962Y-50101013D01*
X90103061Y-49882359D01*
X90203696Y-49639405D01*
X90255000Y-49381486D01*
X90255000Y-49118514D01*
X90203696Y-48860595D01*
X90103061Y-48617641D01*
X89956962Y-48398987D01*
X89771013Y-48213038D01*
X89552359Y-48066939D01*
X89390754Y-48000000D01*
X89552359Y-47933061D01*
X89771013Y-47786962D01*
X89956962Y-47601013D01*
X90103061Y-47382359D01*
X90203696Y-47139405D01*
X90255000Y-46881486D01*
X90255000Y-46618514D01*
X90203696Y-46360595D01*
X90103061Y-46117641D01*
X89956962Y-45898987D01*
X89771013Y-45713038D01*
X89552359Y-45566939D01*
X89309405Y-45466304D01*
X89051486Y-45415000D01*
X88788514Y-45415000D01*
X88530595Y-45466304D01*
X88287641Y-45566939D01*
X88068987Y-45713038D01*
X87883038Y-45898987D01*
X87736939Y-46117641D01*
X87636304Y-46360595D01*
X87585000Y-46618514D01*
X87405000Y-46618514D01*
X87405000Y-46558665D01*
X87349853Y-46281426D01*
X87241680Y-46020273D01*
X87084637Y-45785241D01*
X86884759Y-45585363D01*
X86652241Y-45430000D01*
X86884759Y-45274637D01*
X87084637Y-45074759D01*
X87241680Y-44839727D01*
X87349853Y-44578574D01*
X87405000Y-44301335D01*
X87405000Y-44018665D01*
X87349853Y-43741426D01*
X87241680Y-43480273D01*
X87084637Y-43245241D01*
X86884759Y-43045363D01*
X86652241Y-42890000D01*
X86884759Y-42734637D01*
X87084637Y-42534759D01*
X87241680Y-42299727D01*
X87349853Y-42038574D01*
X87405000Y-41761335D01*
X87405000Y-41478665D01*
X87349853Y-41201426D01*
X87241680Y-40940273D01*
X87084637Y-40705241D01*
X86884759Y-40505363D01*
X86652241Y-40350000D01*
X86884759Y-40194637D01*
X87084637Y-39994759D01*
X87241680Y-39759727D01*
X87349853Y-39498574D01*
X87405000Y-39221335D01*
X87405000Y-38938665D01*
X87349853Y-38661426D01*
X87241680Y-38400273D01*
X87084637Y-38165241D01*
X86884759Y-37965363D01*
X86652241Y-37810000D01*
X86884759Y-37654637D01*
X87084637Y-37454759D01*
X87241680Y-37219727D01*
X87349853Y-36958574D01*
X87405000Y-36681335D01*
X87405000Y-36398665D01*
X87349853Y-36121426D01*
X87241680Y-35860273D01*
X87084637Y-35625241D01*
X86884759Y-35425363D01*
X86652241Y-35270000D01*
X86884759Y-35114637D01*
X87084637Y-34914759D01*
X87241680Y-34679727D01*
X87349853Y-34418574D01*
X87405000Y-34141335D01*
X87405000Y-33858665D01*
X87357924Y-33622000D01*
X87714035Y-33622000D01*
X87665000Y-33868514D01*
X87665000Y-34131486D01*
X87716304Y-34389405D01*
X87816939Y-34632359D01*
X87963038Y-34851013D01*
X88148987Y-35036962D01*
X88367641Y-35183061D01*
X88489246Y-35233431D01*
X88287641Y-35316939D01*
X88068987Y-35463038D01*
X87883038Y-35648987D01*
X87736939Y-35867641D01*
X87636304Y-36110595D01*
X87585000Y-36368514D01*
X87585000Y-36631486D01*
X87636304Y-36889405D01*
X87736939Y-37132359D01*
X87883038Y-37351013D01*
X88068987Y-37536962D01*
X88287641Y-37683061D01*
X88449246Y-37750000D01*
X88287641Y-37816939D01*
X88068987Y-37963038D01*
X87883038Y-38148987D01*
X87736939Y-38367641D01*
X87636304Y-38610595D01*
X87585000Y-38868514D01*
X87585000Y-39131486D01*
X87636304Y-39389405D01*
X87736939Y-39632359D01*
X87883038Y-39851013D01*
X88068987Y-40036962D01*
X88287641Y-40183061D01*
X88449246Y-40250000D01*
X88287641Y-40316939D01*
X88068987Y-40463038D01*
X87883038Y-40648987D01*
X87736939Y-40867641D01*
X87636304Y-41110595D01*
X87585000Y-41368514D01*
X87585000Y-41631486D01*
X87636304Y-41889405D01*
X87736939Y-42132359D01*
X87883038Y-42351013D01*
X88068987Y-42536962D01*
X88287641Y-42683061D01*
X88449246Y-42750000D01*
X88287641Y-42816939D01*
X88068987Y-42963038D01*
X87883038Y-43148987D01*
X87736939Y-43367641D01*
X87636304Y-43610595D01*
X87585000Y-43868514D01*
X87585000Y-44131486D01*
X87636304Y-44389405D01*
X87736939Y-44632359D01*
X87883038Y-44851013D01*
X88068987Y-45036962D01*
X88287641Y-45183061D01*
X88530595Y-45283696D01*
X88788514Y-45335000D01*
X89051486Y-45335000D01*
X89309405Y-45283696D01*
X89552359Y-45183061D01*
X89771013Y-45036962D01*
X89956962Y-44851013D01*
X90103061Y-44632359D01*
X90203696Y-44389405D01*
X90255000Y-44131486D01*
X90255000Y-43868514D01*
X90203696Y-43610595D01*
X90103061Y-43367641D01*
X89956962Y-43148987D01*
X89771013Y-42963038D01*
X89552359Y-42816939D01*
X89390754Y-42750000D01*
X89552359Y-42683061D01*
X89771013Y-42536962D01*
X89956962Y-42351013D01*
X90103061Y-42132359D01*
X90203696Y-41889405D01*
X90255000Y-41631486D01*
X90255000Y-41368514D01*
X90203696Y-41110595D01*
X90103061Y-40867641D01*
X89956962Y-40648987D01*
X89771013Y-40463038D01*
X89552359Y-40316939D01*
X89390754Y-40250000D01*
X89552359Y-40183061D01*
X89771013Y-40036962D01*
X89956962Y-39851013D01*
X90103061Y-39632359D01*
X90203696Y-39389405D01*
X90255000Y-39131486D01*
X90255000Y-38868514D01*
X90203696Y-38610595D01*
X90103061Y-38367641D01*
X89956962Y-38148987D01*
X89771013Y-37963038D01*
X89552359Y-37816939D01*
X89390754Y-37750000D01*
X89552359Y-37683061D01*
X89771013Y-37536962D01*
X89956962Y-37351013D01*
X90103061Y-37132359D01*
X90203696Y-36889405D01*
X90255000Y-36631486D01*
X90255000Y-36368514D01*
X90203696Y-36110595D01*
X90103061Y-35867641D01*
X89956962Y-35648987D01*
X89771013Y-35463038D01*
X89552359Y-35316939D01*
X89430754Y-35266569D01*
X89632359Y-35183061D01*
X89851013Y-35036962D01*
X90036962Y-34851013D01*
X90183061Y-34632359D01*
X90283696Y-34389405D01*
X90335000Y-34131486D01*
X90335000Y-33868514D01*
X90285965Y-33622000D01*
X92794035Y-33622000D01*
X92745000Y-33868514D01*
X92745000Y-34131486D01*
X92796304Y-34389405D01*
X92896939Y-34632359D01*
X92965000Y-34734221D01*
X92965001Y-35647024D01*
X92963038Y-35648987D01*
X92816939Y-35867641D01*
X92716304Y-36110595D01*
X92665000Y-36368514D01*
X92665000Y-36631486D01*
X92716304Y-36889405D01*
X92816939Y-37132359D01*
X92963038Y-37351013D01*
X92965001Y-37352976D01*
X92965000Y-38147025D01*
X92963038Y-38148987D01*
X92816939Y-38367641D01*
X92716304Y-38610595D01*
X92665000Y-38868514D01*
X92665000Y-39131486D01*
X92716304Y-39389405D01*
X92816939Y-39632359D01*
X92963038Y-39851013D01*
X92965001Y-39852976D01*
X92965000Y-40647025D01*
X92963038Y-40648987D01*
X92816939Y-40867641D01*
X92716304Y-41110595D01*
X92665000Y-41368514D01*
X92665000Y-41631486D01*
X92716304Y-41889405D01*
X92816939Y-42132359D01*
X92963038Y-42351013D01*
X92965001Y-42352976D01*
X92965000Y-43147025D01*
X92963038Y-43148987D01*
X92816939Y-43367641D01*
X92716304Y-43610595D01*
X92665000Y-43868514D01*
X92665000Y-44131486D01*
X92716304Y-44389405D01*
X92816939Y-44632359D01*
X92963038Y-44851013D01*
X92965001Y-44852976D01*
X92965000Y-45897025D01*
X92963038Y-45898987D01*
X92816939Y-46117641D01*
X92716304Y-46360595D01*
X92665000Y-46618514D01*
X92665000Y-46881486D01*
X92716304Y-47139405D01*
X92816939Y-47382359D01*
X92963038Y-47601013D01*
X92965000Y-47602975D01*
X92965001Y-48397024D01*
X92963038Y-48398987D01*
X92816939Y-48617641D01*
X92716304Y-48860595D01*
X92665000Y-49118514D01*
X92665000Y-49381486D01*
X92716304Y-49639405D01*
X92816939Y-49882359D01*
X92963038Y-50101013D01*
X92965000Y-50102975D01*
X92965001Y-50897024D01*
X92963038Y-50898987D01*
X92816939Y-51117641D01*
X92716304Y-51360595D01*
X92665000Y-51618514D01*
X92665000Y-51881486D01*
X92716304Y-52139405D01*
X92816939Y-52382359D01*
X92963038Y-52601013D01*
X93148987Y-52786962D01*
X93367641Y-52933061D01*
X93610595Y-53033696D01*
X93868514Y-53085000D01*
X93871290Y-53085000D01*
X108635001Y-67848712D01*
X108635001Y-67897024D01*
X108633038Y-67898987D01*
X108486939Y-68117641D01*
X108386304Y-68360595D01*
X108335000Y-68618514D01*
X108335000Y-68881486D01*
X108386304Y-69139405D01*
X108486939Y-69382359D01*
X108633038Y-69601013D01*
X108818987Y-69786962D01*
X109037641Y-69933061D01*
X109280595Y-70033696D01*
X109538514Y-70085000D01*
X109801486Y-70085000D01*
X110059405Y-70033696D01*
X110302359Y-69933061D01*
X110521013Y-69786962D01*
X110706962Y-69601013D01*
X110853061Y-69382359D01*
X110953696Y-69139405D01*
X111005000Y-68881486D01*
X111005000Y-68618514D01*
X110953696Y-68360595D01*
X110853061Y-68117641D01*
X110706962Y-67898987D01*
X110705000Y-67897025D01*
X110705000Y-67300838D01*
X110710007Y-67250000D01*
X110690024Y-67047105D01*
X110630841Y-66852007D01*
X110534734Y-66672203D01*
X110405396Y-66514604D01*
X110247797Y-66385266D01*
X110067993Y-66289159D01*
X109974513Y-66260802D01*
X95335000Y-51621290D01*
X95335000Y-51618514D01*
X95283696Y-51360595D01*
X95183061Y-51117641D01*
X95036962Y-50898987D01*
X95035000Y-50897025D01*
X95035000Y-50102975D01*
X95036962Y-50101013D01*
X95183061Y-49882359D01*
X95283696Y-49639405D01*
X95335000Y-49381486D01*
X95335000Y-49118514D01*
X95283696Y-48860595D01*
X95183061Y-48617641D01*
X95036962Y-48398987D01*
X95035000Y-48397025D01*
X95035000Y-47602975D01*
X95036962Y-47601013D01*
X95183061Y-47382359D01*
X95283696Y-47139405D01*
X95335000Y-46881486D01*
X95335000Y-46618514D01*
X95283696Y-46360595D01*
X95183061Y-46117641D01*
X95036962Y-45898987D01*
X95035000Y-45897025D01*
X95035000Y-44852975D01*
X95036962Y-44851013D01*
X95183061Y-44632359D01*
X95283696Y-44389405D01*
X95335000Y-44131486D01*
X95335000Y-43868514D01*
X95283696Y-43610595D01*
X95183061Y-43367641D01*
X95036962Y-43148987D01*
X95035000Y-43147025D01*
X95035000Y-42352975D01*
X95036962Y-42351013D01*
X95183061Y-42132359D01*
X95283696Y-41889405D01*
X95335000Y-41631486D01*
X95335000Y-41368514D01*
X95283696Y-41110595D01*
X95183061Y-40867641D01*
X95036962Y-40648987D01*
X95035000Y-40647025D01*
X95035000Y-39852975D01*
X95036962Y-39851013D01*
X95183061Y-39632359D01*
X95283696Y-39389405D01*
X95335000Y-39131486D01*
X95335000Y-38868514D01*
X95283696Y-38610595D01*
X95183061Y-38367641D01*
X95036962Y-38148987D01*
X95035000Y-38147025D01*
X95035000Y-37352975D01*
X95036962Y-37351013D01*
X95183061Y-37132359D01*
X95283696Y-36889405D01*
X95335000Y-36631486D01*
X95335000Y-36368514D01*
X95283696Y-36110595D01*
X95183061Y-35867641D01*
X95036962Y-35648987D01*
X95035000Y-35647025D01*
X95035000Y-34932975D01*
X95116962Y-34851013D01*
X95206299Y-34717309D01*
X100542987Y-40053997D01*
X100429727Y-39978320D01*
X100168574Y-39870147D01*
X99891335Y-39815000D01*
X99608665Y-39815000D01*
X99331426Y-39870147D01*
X99070273Y-39978320D01*
X98835241Y-40135363D01*
X98635363Y-40335241D01*
X98478320Y-40570273D01*
X98370147Y-40831426D01*
X98315000Y-41108665D01*
X98315000Y-41391335D01*
X98370147Y-41668574D01*
X98478320Y-41929727D01*
X98635363Y-42164759D01*
X98835241Y-42364637D01*
X99070273Y-42521680D01*
X99331426Y-42629853D01*
X99608665Y-42685000D01*
X99721290Y-42685000D01*
X111865000Y-54828711D01*
X111865000Y-54949162D01*
X111859993Y-55000000D01*
X111879976Y-55202895D01*
X111939159Y-55397993D01*
X112035266Y-55577797D01*
X112164604Y-55735396D01*
X112322203Y-55864734D01*
X112502007Y-55960841D01*
X112697105Y-56020024D01*
X112849162Y-56035000D01*
X112900000Y-56040007D01*
X112950838Y-56035000D01*
X113107713Y-56035000D01*
X113110498Y-56044180D01*
X113169463Y-56154494D01*
X113248815Y-56251185D01*
X113345506Y-56330537D01*
X113455820Y-56389502D01*
X113575518Y-56425812D01*
X113700000Y-56438072D01*
X115300000Y-56438072D01*
X115424482Y-56425812D01*
X115544180Y-56389502D01*
X115654494Y-56330537D01*
X115751185Y-56251185D01*
X115830537Y-56154494D01*
X115889502Y-56044180D01*
X115918661Y-55948057D01*
X116085241Y-56114637D01*
X116320273Y-56271680D01*
X116581426Y-56379853D01*
X116858665Y-56435000D01*
X116971290Y-56435000D01*
X118365001Y-57828712D01*
X118365000Y-58819161D01*
X118359993Y-58870000D01*
X118379976Y-59072895D01*
X118439159Y-59267993D01*
X118500289Y-59382359D01*
X118535266Y-59447797D01*
X118664604Y-59605396D01*
X118822203Y-59734734D01*
X119002007Y-59830841D01*
X119197105Y-59890024D01*
X119400000Y-59910007D01*
X119450838Y-59905000D01*
X120005604Y-59905000D01*
X120085241Y-59984637D01*
X120320273Y-60141680D01*
X120581426Y-60249853D01*
X120858665Y-60305000D01*
X121141335Y-60305000D01*
X121418574Y-60249853D01*
X121679727Y-60141680D01*
X121914759Y-59984637D01*
X122114637Y-59784759D01*
X122271680Y-59549727D01*
X122379853Y-59288574D01*
X122435000Y-59011335D01*
X122435000Y-58728665D01*
X122379853Y-58451426D01*
X122271680Y-58190273D01*
X122114637Y-57955241D01*
X121914759Y-57755363D01*
X121679727Y-57598320D01*
X121418574Y-57490147D01*
X121141335Y-57435000D01*
X120858665Y-57435000D01*
X120581426Y-57490147D01*
X120435000Y-57550799D01*
X120435000Y-57450835D01*
X120440007Y-57400000D01*
X120435000Y-57349162D01*
X120420024Y-57197105D01*
X120360841Y-57002007D01*
X120360841Y-57002006D01*
X120264734Y-56822202D01*
X120167803Y-56704092D01*
X120135396Y-56664604D01*
X120095908Y-56632197D01*
X118435000Y-54971290D01*
X118435000Y-54858665D01*
X118379853Y-54581426D01*
X118271680Y-54320273D01*
X118114637Y-54085241D01*
X117914759Y-53885363D01*
X117679727Y-53728320D01*
X117418574Y-53620147D01*
X117141335Y-53565000D01*
X117028711Y-53565000D01*
X104832225Y-41368514D01*
X108085000Y-41368514D01*
X108085000Y-41631486D01*
X108136304Y-41889405D01*
X108236939Y-42132359D01*
X108383038Y-42351013D01*
X108568987Y-42536962D01*
X108787641Y-42683061D01*
X109030595Y-42783696D01*
X109288514Y-42835000D01*
X109551486Y-42835000D01*
X109809405Y-42783696D01*
X110052359Y-42683061D01*
X110271013Y-42536962D01*
X110272975Y-42535000D01*
X110869162Y-42535000D01*
X110920000Y-42540007D01*
X110970838Y-42535000D01*
X111122895Y-42520024D01*
X111317993Y-42460841D01*
X111497797Y-42364734D01*
X111655396Y-42235396D01*
X111784734Y-42077797D01*
X111880841Y-41897993D01*
X111940024Y-41702895D01*
X111960007Y-41500000D01*
X111955000Y-41449162D01*
X111955000Y-41368514D01*
X113165000Y-41368514D01*
X113165000Y-41631486D01*
X113216304Y-41889405D01*
X113316939Y-42132359D01*
X113463038Y-42351013D01*
X113465001Y-42352976D01*
X113465001Y-43099163D01*
X113459994Y-43150000D01*
X113479977Y-43352895D01*
X113539160Y-43547993D01*
X113635266Y-43727797D01*
X113703908Y-43811437D01*
X113764605Y-43885396D01*
X113804093Y-43917803D01*
X119823671Y-49937382D01*
X119748815Y-49998815D01*
X119669463Y-50095506D01*
X119610498Y-50205820D01*
X119574188Y-50325518D01*
X119561928Y-50450000D01*
X119561928Y-52050000D01*
X119574188Y-52174482D01*
X119610498Y-52294180D01*
X119669463Y-52404494D01*
X119748815Y-52501185D01*
X119845506Y-52580537D01*
X119955820Y-52639502D01*
X120075518Y-52675812D01*
X120200000Y-52688072D01*
X121800000Y-52688072D01*
X121924482Y-52675812D01*
X122044180Y-52639502D01*
X122154494Y-52580537D01*
X122251185Y-52501185D01*
X122330537Y-52404494D01*
X122389502Y-52294180D01*
X122391220Y-52288514D01*
X123665000Y-52288514D01*
X123665000Y-52551486D01*
X123716304Y-52809405D01*
X123816939Y-53052359D01*
X123963038Y-53271013D01*
X124148987Y-53456962D01*
X124367641Y-53603061D01*
X124610595Y-53703696D01*
X124868514Y-53755000D01*
X125131486Y-53755000D01*
X125389405Y-53703696D01*
X125632359Y-53603061D01*
X125851013Y-53456962D01*
X126036962Y-53271013D01*
X126183061Y-53052359D01*
X126283696Y-52809405D01*
X126335000Y-52551486D01*
X126335000Y-52288514D01*
X126283696Y-52030595D01*
X126183061Y-51787641D01*
X126036962Y-51568987D01*
X125851013Y-51383038D01*
X125632359Y-51236939D01*
X125389405Y-51136304D01*
X125131486Y-51085000D01*
X124868514Y-51085000D01*
X124610595Y-51136304D01*
X124367641Y-51236939D01*
X124148987Y-51383038D01*
X123963038Y-51568987D01*
X123816939Y-51787641D01*
X123716304Y-52030595D01*
X123665000Y-52288514D01*
X122391220Y-52288514D01*
X122425812Y-52174482D01*
X122438072Y-52050000D01*
X122438072Y-50450000D01*
X122425812Y-50325518D01*
X122389502Y-50205820D01*
X122330537Y-50095506D01*
X122251185Y-49998815D01*
X122154494Y-49919463D01*
X122044180Y-49860498D01*
X122035000Y-49857713D01*
X122035000Y-49700827D01*
X122040006Y-49649999D01*
X122035000Y-49599171D01*
X122035000Y-49599162D01*
X122020024Y-49447105D01*
X121960841Y-49252007D01*
X121880665Y-49102007D01*
X121864734Y-49072202D01*
X121767803Y-48954092D01*
X121735396Y-48914604D01*
X121695908Y-48882197D01*
X115535000Y-42721290D01*
X115535000Y-42352975D01*
X115536962Y-42351013D01*
X115683061Y-42132359D01*
X115783696Y-41889405D01*
X115835000Y-41631486D01*
X115835000Y-41368514D01*
X115783696Y-41110595D01*
X115683061Y-40867641D01*
X115536962Y-40648987D01*
X115351013Y-40463038D01*
X115132359Y-40316939D01*
X114889405Y-40216304D01*
X114631486Y-40165000D01*
X114368514Y-40165000D01*
X114110595Y-40216304D01*
X113867641Y-40316939D01*
X113648987Y-40463038D01*
X113463038Y-40648987D01*
X113316939Y-40867641D01*
X113216304Y-41110595D01*
X113165000Y-41368514D01*
X111955000Y-41368514D01*
X111955000Y-41008710D01*
X114528711Y-38435000D01*
X114641335Y-38435000D01*
X114918574Y-38379853D01*
X115179727Y-38271680D01*
X115414759Y-38114637D01*
X115494396Y-38035000D01*
X121071290Y-38035000D01*
X127995889Y-44959600D01*
X127956654Y-45054321D01*
X127865000Y-45515098D01*
X127865000Y-45984902D01*
X127956654Y-46445679D01*
X128136440Y-46879721D01*
X128397450Y-47270349D01*
X128729651Y-47602550D01*
X129120279Y-47863560D01*
X129554321Y-48043346D01*
X130015098Y-48135000D01*
X130484902Y-48135000D01*
X130945679Y-48043346D01*
X131379721Y-47863560D01*
X131770349Y-47602550D01*
X132102550Y-47270349D01*
X132363560Y-46879721D01*
X132543346Y-46445679D01*
X132635000Y-45984902D01*
X132635000Y-45515098D01*
X132543346Y-45054321D01*
X132363560Y-44620279D01*
X132102550Y-44229651D01*
X131770349Y-43897450D01*
X131379721Y-43636440D01*
X130945679Y-43456654D01*
X130484902Y-43365000D01*
X130015098Y-43365000D01*
X129554321Y-43456654D01*
X129459600Y-43495889D01*
X122267807Y-36304097D01*
X122235396Y-36264604D01*
X122077797Y-36135266D01*
X121897993Y-36039159D01*
X121702895Y-35979976D01*
X121550838Y-35965000D01*
X121550828Y-35965000D01*
X121500000Y-35959994D01*
X121449172Y-35965000D01*
X115494396Y-35965000D01*
X115414759Y-35885363D01*
X115212173Y-35750000D01*
X115414759Y-35614637D01*
X115614637Y-35414759D01*
X115771680Y-35179727D01*
X115879853Y-34918574D01*
X115935000Y-34641335D01*
X115935000Y-34358665D01*
X115879853Y-34081426D01*
X115771680Y-33820273D01*
X115614637Y-33585241D01*
X115414759Y-33385363D01*
X115179727Y-33228320D01*
X114918574Y-33120147D01*
X114641335Y-33065000D01*
X114358665Y-33065000D01*
X114081426Y-33120147D01*
X113820273Y-33228320D01*
X113585241Y-33385363D01*
X113385363Y-33585241D01*
X113228320Y-33820273D01*
X113120147Y-34081426D01*
X113065000Y-34358665D01*
X113065000Y-34641335D01*
X113120147Y-34918574D01*
X113228320Y-35179727D01*
X113385363Y-35414759D01*
X113585241Y-35614637D01*
X113787827Y-35750000D01*
X113585241Y-35885363D01*
X113385363Y-36085241D01*
X113228320Y-36320273D01*
X113120147Y-36581426D01*
X113065000Y-36858665D01*
X113065000Y-36971289D01*
X110224092Y-39812198D01*
X110184605Y-39844604D01*
X110152198Y-39884092D01*
X110152197Y-39884093D01*
X110055266Y-40002203D01*
X109959160Y-40182007D01*
X109933201Y-40267582D01*
X109809405Y-40216304D01*
X109551486Y-40165000D01*
X109288514Y-40165000D01*
X109030595Y-40216304D01*
X108787641Y-40316939D01*
X108568987Y-40463038D01*
X108383038Y-40648987D01*
X108236939Y-40867641D01*
X108136304Y-41110595D01*
X108085000Y-41368514D01*
X104832225Y-41368514D01*
X104017807Y-40554097D01*
X103985396Y-40514604D01*
X103827797Y-40385266D01*
X103647993Y-40289159D01*
X103452895Y-40229976D01*
X103300838Y-40215000D01*
X103300828Y-40215000D01*
X103281716Y-40213118D01*
X103270024Y-40094405D01*
X103210841Y-39899307D01*
X103136234Y-39759727D01*
X103114734Y-39719502D01*
X103017803Y-39601392D01*
X102985396Y-39561904D01*
X102945908Y-39529497D01*
X102364925Y-38948514D01*
X106665000Y-38948514D01*
X106665000Y-39211486D01*
X106716304Y-39469405D01*
X106816939Y-39712359D01*
X106963038Y-39931013D01*
X107148987Y-40116962D01*
X107367641Y-40263061D01*
X107610595Y-40363696D01*
X107868514Y-40415000D01*
X108131486Y-40415000D01*
X108389405Y-40363696D01*
X108632359Y-40263061D01*
X108851013Y-40116962D01*
X109036962Y-39931013D01*
X109183061Y-39712359D01*
X109283696Y-39469405D01*
X109335000Y-39211486D01*
X109335000Y-38948514D01*
X109283696Y-38690595D01*
X109183061Y-38447641D01*
X109036962Y-38228987D01*
X108851013Y-38043038D01*
X108632359Y-37896939D01*
X108389405Y-37796304D01*
X108131486Y-37745000D01*
X107868514Y-37745000D01*
X107610595Y-37796304D01*
X107367641Y-37896939D01*
X107148987Y-38043038D01*
X106963038Y-38228987D01*
X106816939Y-38447641D01*
X106716304Y-38690595D01*
X106665000Y-38948514D01*
X102364925Y-38948514D01*
X97284925Y-33868514D01*
X106665000Y-33868514D01*
X106665000Y-34131486D01*
X106716304Y-34389405D01*
X106816939Y-34632359D01*
X106963038Y-34851013D01*
X107148987Y-35036962D01*
X107367641Y-35183061D01*
X107610595Y-35283696D01*
X107868514Y-35335000D01*
X108131486Y-35335000D01*
X108389405Y-35283696D01*
X108632359Y-35183061D01*
X108851013Y-35036962D01*
X109036962Y-34851013D01*
X109183061Y-34632359D01*
X109283696Y-34389405D01*
X109335000Y-34131486D01*
X109335000Y-33868514D01*
X109283696Y-33610595D01*
X109183061Y-33367641D01*
X109036962Y-33148987D01*
X108851013Y-32963038D01*
X108632359Y-32816939D01*
X108389405Y-32716304D01*
X108131486Y-32665000D01*
X107868514Y-32665000D01*
X107610595Y-32716304D01*
X107367641Y-32816939D01*
X107148987Y-32963038D01*
X106963038Y-33148987D01*
X106816939Y-33367641D01*
X106716304Y-33610595D01*
X106665000Y-33868514D01*
X97284925Y-33868514D01*
X95307507Y-31891097D01*
X95275096Y-31851604D01*
X95117497Y-31722266D01*
X95001005Y-31660000D01*
X134340000Y-31660000D01*
X134340001Y-79340000D01*
X35660000Y-79340000D01*
X35660000Y-54765098D01*
X36115000Y-54765098D01*
X36115000Y-55234902D01*
X36206654Y-55695679D01*
X36386440Y-56129721D01*
X36647450Y-56520349D01*
X36979651Y-56852550D01*
X37370279Y-57113560D01*
X37804321Y-57293346D01*
X38265098Y-57385000D01*
X38734902Y-57385000D01*
X39195679Y-57293346D01*
X39629721Y-57113560D01*
X40020349Y-56852550D01*
X40352550Y-56520349D01*
X40613560Y-56129721D01*
X40793346Y-55695679D01*
X40885000Y-55234902D01*
X40885000Y-54765098D01*
X40793346Y-54304321D01*
X40613560Y-53870279D01*
X40352550Y-53479651D01*
X40020349Y-53147450D01*
X39629721Y-52886440D01*
X39195679Y-52706654D01*
X38734902Y-52615000D01*
X38265098Y-52615000D01*
X37804321Y-52706654D01*
X37370279Y-52886440D01*
X36979651Y-53147450D01*
X36647450Y-53479651D01*
X36386440Y-53870279D01*
X36206654Y-54304321D01*
X36115000Y-54765098D01*
X35660000Y-54765098D01*
X35660000Y-41515098D01*
X35865000Y-41515098D01*
X35865000Y-41984902D01*
X35956654Y-42445679D01*
X36136440Y-42879721D01*
X36397450Y-43270349D01*
X36729651Y-43602550D01*
X37120279Y-43863560D01*
X37554321Y-44043346D01*
X38015098Y-44135000D01*
X38484902Y-44135000D01*
X38945679Y-44043346D01*
X39379721Y-43863560D01*
X39770349Y-43602550D01*
X40102550Y-43270349D01*
X40363560Y-42879721D01*
X40373065Y-42856775D01*
X45965001Y-48448712D01*
X45965001Y-48625603D01*
X45885363Y-48705241D01*
X45728320Y-48940273D01*
X45620147Y-49201426D01*
X45565000Y-49478665D01*
X45565000Y-49761335D01*
X45620147Y-50038574D01*
X45728320Y-50299727D01*
X45885363Y-50534759D01*
X45965001Y-50614397D01*
X45965001Y-50791289D01*
X45896697Y-50859593D01*
X45857204Y-50892004D01*
X45727866Y-51049603D01*
X45631759Y-51229408D01*
X45572576Y-51424506D01*
X45557600Y-51576563D01*
X45557600Y-51576572D01*
X45552594Y-51627400D01*
X45557600Y-51678228D01*
X45557601Y-58821762D01*
X45552594Y-58872600D01*
X45572577Y-59075495D01*
X45631760Y-59270593D01*
X45727866Y-59450397D01*
X45809168Y-59549463D01*
X45823793Y-59567283D01*
X45748815Y-59628815D01*
X45669463Y-59725506D01*
X45610498Y-59835820D01*
X45574188Y-59955518D01*
X45561928Y-60080000D01*
X45561928Y-61680000D01*
X45574188Y-61804482D01*
X45610498Y-61924180D01*
X45669463Y-62034494D01*
X45748815Y-62131185D01*
X45845506Y-62210537D01*
X45955820Y-62269502D01*
X46075518Y-62305812D01*
X46200000Y-62318072D01*
X47800000Y-62318072D01*
X47924482Y-62305812D01*
X48044180Y-62269502D01*
X48154494Y-62210537D01*
X48251185Y-62131185D01*
X48330537Y-62034494D01*
X48389502Y-61924180D01*
X48425812Y-61804482D01*
X48438072Y-61680000D01*
X48438072Y-60080000D01*
X48425812Y-59955518D01*
X48389502Y-59835820D01*
X48330537Y-59725506D01*
X48251185Y-59628815D01*
X48154494Y-59549463D01*
X48044180Y-59490498D01*
X48035000Y-59487713D01*
X48035000Y-59330835D01*
X48040007Y-59280000D01*
X48031930Y-59197993D01*
X48020024Y-59077105D01*
X47960841Y-58882007D01*
X47960841Y-58882006D01*
X47864734Y-58702203D01*
X47862238Y-58699162D01*
X47735396Y-58544604D01*
X47695903Y-58512193D01*
X47627600Y-58443890D01*
X47627600Y-57889038D01*
X47858665Y-57935000D01*
X48141335Y-57935000D01*
X48418574Y-57879853D01*
X48679727Y-57771680D01*
X48914759Y-57614637D01*
X48994396Y-57535000D01*
X50691290Y-57535000D01*
X52718218Y-59561928D01*
X52200000Y-59561928D01*
X52075518Y-59574188D01*
X51955820Y-59610498D01*
X51845506Y-59669463D01*
X51748815Y-59748815D01*
X51669463Y-59845506D01*
X51610498Y-59955820D01*
X51607713Y-59965000D01*
X51450827Y-59965000D01*
X51399999Y-59959994D01*
X51349171Y-59965000D01*
X51349162Y-59965000D01*
X51197105Y-59979976D01*
X51002007Y-60039159D01*
X50822203Y-60135266D01*
X50664604Y-60264604D01*
X50632197Y-60304092D01*
X42971290Y-67965000D01*
X41152795Y-67965000D01*
X41113560Y-67870279D01*
X40852550Y-67479651D01*
X40520349Y-67147450D01*
X40129721Y-66886440D01*
X39695679Y-66706654D01*
X39234902Y-66615000D01*
X38765098Y-66615000D01*
X38304321Y-66706654D01*
X37870279Y-66886440D01*
X37479651Y-67147450D01*
X37147450Y-67479651D01*
X36886440Y-67870279D01*
X36706654Y-68304321D01*
X36615000Y-68765098D01*
X36615000Y-69234902D01*
X36706654Y-69695679D01*
X36886440Y-70129721D01*
X37147450Y-70520349D01*
X37479651Y-70852550D01*
X37870279Y-71113560D01*
X38304321Y-71293346D01*
X38765098Y-71385000D01*
X39234902Y-71385000D01*
X39695679Y-71293346D01*
X40129721Y-71113560D01*
X40520349Y-70852550D01*
X40852550Y-70520349D01*
X41113560Y-70129721D01*
X41152795Y-70035000D01*
X42365001Y-70035000D01*
X42365000Y-71929172D01*
X42359994Y-71980000D01*
X42365000Y-72030828D01*
X42365000Y-72030837D01*
X42379976Y-72182894D01*
X42439159Y-72377992D01*
X42535266Y-72557797D01*
X42664604Y-72715396D01*
X42704097Y-72747807D01*
X45965001Y-76008712D01*
X45965001Y-76227024D01*
X45963038Y-76228987D01*
X45816939Y-76447641D01*
X45716304Y-76690595D01*
X45665000Y-76948514D01*
X45665000Y-77211486D01*
X45716304Y-77469405D01*
X45816939Y-77712359D01*
X45963038Y-77931013D01*
X46148987Y-78116962D01*
X46367641Y-78263061D01*
X46610595Y-78363696D01*
X46868514Y-78415000D01*
X47131486Y-78415000D01*
X47389405Y-78363696D01*
X47632359Y-78263061D01*
X47851013Y-78116962D01*
X48036962Y-77931013D01*
X48183061Y-77712359D01*
X48283696Y-77469405D01*
X48335000Y-77211486D01*
X48335000Y-76948514D01*
X48283696Y-76690595D01*
X48183061Y-76447641D01*
X48036962Y-76228987D01*
X48035000Y-76227025D01*
X48035000Y-75630835D01*
X48040007Y-75580000D01*
X48035000Y-75529162D01*
X48020024Y-75377105D01*
X47960841Y-75182007D01*
X47895614Y-75059976D01*
X47864734Y-75002202D01*
X47767803Y-74884092D01*
X47735396Y-74844604D01*
X47695908Y-74812197D01*
X44752225Y-71868514D01*
X45665000Y-71868514D01*
X45665000Y-72131486D01*
X45716304Y-72389405D01*
X45816939Y-72632359D01*
X45963038Y-72851013D01*
X46148987Y-73036962D01*
X46367641Y-73183061D01*
X46610595Y-73283696D01*
X46868514Y-73335000D01*
X47131486Y-73335000D01*
X47389405Y-73283696D01*
X47632359Y-73183061D01*
X47851013Y-73036962D01*
X48036962Y-72851013D01*
X48183061Y-72632359D01*
X48283696Y-72389405D01*
X48335000Y-72131486D01*
X48335000Y-71868514D01*
X48283696Y-71610595D01*
X48183061Y-71367641D01*
X48036962Y-71148987D01*
X47851013Y-70963038D01*
X47632359Y-70816939D01*
X47389405Y-70716304D01*
X47131486Y-70665000D01*
X46868514Y-70665000D01*
X46610595Y-70716304D01*
X46367641Y-70816939D01*
X46148987Y-70963038D01*
X45963038Y-71148987D01*
X45816939Y-71367641D01*
X45716304Y-71610595D01*
X45665000Y-71868514D01*
X44752225Y-71868514D01*
X44435000Y-71551290D01*
X44435000Y-69428710D01*
X45579887Y-68283823D01*
X45565000Y-68358665D01*
X45565000Y-68641335D01*
X45620147Y-68918574D01*
X45728320Y-69179727D01*
X45885363Y-69414759D01*
X46085241Y-69614637D01*
X46320273Y-69771680D01*
X46581426Y-69879853D01*
X46858665Y-69935000D01*
X47141335Y-69935000D01*
X47418574Y-69879853D01*
X47679727Y-69771680D01*
X47914759Y-69614637D01*
X48114637Y-69414759D01*
X48271680Y-69179727D01*
X48379853Y-68918574D01*
X48435000Y-68641335D01*
X48435000Y-68478665D01*
X51565000Y-68478665D01*
X51565000Y-68761335D01*
X51620147Y-69038574D01*
X51728320Y-69299727D01*
X51885363Y-69534759D01*
X51965001Y-69614397D01*
X51965001Y-70169152D01*
X51959993Y-70220000D01*
X51979976Y-70422895D01*
X52039159Y-70617993D01*
X52135266Y-70797797D01*
X52227708Y-70910438D01*
X52148987Y-70963038D01*
X51963038Y-71148987D01*
X51816939Y-71367641D01*
X51716304Y-71610595D01*
X51665000Y-71868514D01*
X51665000Y-72131486D01*
X51716304Y-72389405D01*
X51816939Y-72632359D01*
X51963038Y-72851013D01*
X52148987Y-73036962D01*
X52367641Y-73183061D01*
X52610595Y-73283696D01*
X52868514Y-73335000D01*
X53131486Y-73335000D01*
X53270800Y-73307288D01*
X53270800Y-73845489D01*
X52304092Y-74812198D01*
X52264605Y-74844604D01*
X52232198Y-74884092D01*
X52232197Y-74884093D01*
X52135266Y-75002203D01*
X52039160Y-75182007D01*
X51979977Y-75377105D01*
X51959994Y-75580000D01*
X51965001Y-75630837D01*
X51965001Y-76227024D01*
X51963038Y-76228987D01*
X51816939Y-76447641D01*
X51716304Y-76690595D01*
X51665000Y-76948514D01*
X51665000Y-77211486D01*
X51716304Y-77469405D01*
X51816939Y-77712359D01*
X51963038Y-77931013D01*
X52148987Y-78116962D01*
X52367641Y-78263061D01*
X52610595Y-78363696D01*
X52868514Y-78415000D01*
X53131486Y-78415000D01*
X53389405Y-78363696D01*
X53632359Y-78263061D01*
X53851013Y-78116962D01*
X54036962Y-77931013D01*
X54183061Y-77712359D01*
X54283696Y-77469405D01*
X54335000Y-77211486D01*
X54335000Y-76948514D01*
X54283696Y-76690595D01*
X54183061Y-76447641D01*
X54036962Y-76228987D01*
X54035000Y-76227025D01*
X54035000Y-76008710D01*
X55001708Y-75042003D01*
X55041196Y-75009596D01*
X55127254Y-74904734D01*
X55170534Y-74851998D01*
X55232858Y-74735396D01*
X55266641Y-74672193D01*
X55325824Y-74477095D01*
X55340800Y-74325038D01*
X55340800Y-74325029D01*
X55345806Y-74274201D01*
X55340800Y-74223373D01*
X55340800Y-71435227D01*
X55345806Y-71384399D01*
X55340800Y-71333571D01*
X55340800Y-71333562D01*
X55325824Y-71181505D01*
X55266641Y-70986407D01*
X55203626Y-70868514D01*
X55170534Y-70806602D01*
X55073603Y-70688492D01*
X55041196Y-70649004D01*
X55001708Y-70616597D01*
X54035000Y-69649890D01*
X54035000Y-69614396D01*
X54114637Y-69534759D01*
X54271680Y-69299727D01*
X54379853Y-69038574D01*
X54435000Y-68761335D01*
X54435000Y-68478665D01*
X54379853Y-68201426D01*
X54271680Y-67940273D01*
X54114637Y-67705241D01*
X53914759Y-67505363D01*
X53679727Y-67348320D01*
X53418574Y-67240147D01*
X53141335Y-67185000D01*
X52858665Y-67185000D01*
X52581426Y-67240147D01*
X52320273Y-67348320D01*
X52085241Y-67505363D01*
X51885363Y-67705241D01*
X51728320Y-67940273D01*
X51620147Y-68201426D01*
X51565000Y-68478665D01*
X48435000Y-68478665D01*
X48435000Y-68358665D01*
X48379853Y-68081426D01*
X48271680Y-67820273D01*
X48114637Y-67585241D01*
X47914759Y-67385363D01*
X47679727Y-67228320D01*
X47418574Y-67120147D01*
X47141335Y-67065000D01*
X46858665Y-67065000D01*
X46783823Y-67079887D01*
X51687382Y-62176329D01*
X51748815Y-62251185D01*
X51845506Y-62330537D01*
X51955820Y-62389502D01*
X52075518Y-62425812D01*
X52200000Y-62438072D01*
X53800000Y-62438072D01*
X53924482Y-62425812D01*
X54044180Y-62389502D01*
X54154494Y-62330537D01*
X54251185Y-62251185D01*
X54330537Y-62154494D01*
X54389502Y-62044180D01*
X54425812Y-61924482D01*
X54438072Y-61800000D01*
X54438072Y-61281783D01*
X57852197Y-64695908D01*
X57884604Y-64735396D01*
X57924092Y-64767803D01*
X58042202Y-64864734D01*
X58108226Y-64900024D01*
X58222007Y-64960841D01*
X58417105Y-65020024D01*
X58569162Y-65035000D01*
X58569165Y-65035000D01*
X58620000Y-65040007D01*
X58670835Y-65035000D01*
X68067025Y-65035000D01*
X68068987Y-65036962D01*
X68287641Y-65183061D01*
X68530595Y-65283696D01*
X68788514Y-65335000D01*
X69051486Y-65335000D01*
X69309405Y-65283696D01*
X69552359Y-65183061D01*
X69771013Y-65036962D01*
X69956962Y-64851013D01*
X70103061Y-64632359D01*
X70203696Y-64389405D01*
X70255000Y-64131486D01*
X70255000Y-63868514D01*
X70203696Y-63610595D01*
X70103061Y-63367641D01*
X69956962Y-63148987D01*
X69771013Y-62963038D01*
X69552359Y-62816939D01*
X69309405Y-62716304D01*
X69051486Y-62665000D01*
X68788514Y-62665000D01*
X68530595Y-62716304D01*
X68287641Y-62816939D01*
X68068987Y-62963038D01*
X68067025Y-62965000D01*
X59048711Y-62965000D01*
X51887807Y-55804097D01*
X51855396Y-55764604D01*
X51697797Y-55635266D01*
X51517993Y-55539159D01*
X51322895Y-55479976D01*
X51170838Y-55465000D01*
X51170828Y-55465000D01*
X51120000Y-55459994D01*
X51069172Y-55465000D01*
X48994396Y-55465000D01*
X48914759Y-55385363D01*
X48712173Y-55250000D01*
X48914759Y-55114637D01*
X49114637Y-54914759D01*
X49271680Y-54679727D01*
X49379853Y-54418574D01*
X49435000Y-54141335D01*
X49435000Y-53858665D01*
X49379853Y-53581426D01*
X49271680Y-53320273D01*
X49114637Y-53085241D01*
X48914759Y-52885363D01*
X48679727Y-52728320D01*
X48418574Y-52620147D01*
X48141335Y-52565000D01*
X47858665Y-52565000D01*
X47627600Y-52610962D01*
X47627600Y-52056110D01*
X47695903Y-51987807D01*
X47735396Y-51955396D01*
X47864734Y-51797797D01*
X47869754Y-51788405D01*
X47960841Y-51617994D01*
X48010923Y-51452895D01*
X48020024Y-51422895D01*
X48035000Y-51270838D01*
X48035000Y-51270835D01*
X48040007Y-51220000D01*
X48035000Y-51169165D01*
X48035000Y-50614396D01*
X48114637Y-50534759D01*
X48271680Y-50299727D01*
X48379853Y-50038574D01*
X48435000Y-49761335D01*
X48435000Y-49478665D01*
X48379853Y-49201426D01*
X48271680Y-48940273D01*
X48114637Y-48705241D01*
X48035000Y-48625604D01*
X48035000Y-48070835D01*
X48040007Y-48020000D01*
X48034917Y-47968320D01*
X48020024Y-47817105D01*
X47960841Y-47622007D01*
X47884925Y-47479977D01*
X47864734Y-47442202D01*
X47767803Y-47324092D01*
X47735396Y-47284604D01*
X47695908Y-47252197D01*
X41643711Y-41200000D01*
X45561928Y-41200000D01*
X45561928Y-42800000D01*
X45574188Y-42924482D01*
X45610498Y-43044180D01*
X45669463Y-43154494D01*
X45748815Y-43251185D01*
X45845506Y-43330537D01*
X45955820Y-43389502D01*
X46075518Y-43425812D01*
X46200000Y-43438072D01*
X47800000Y-43438072D01*
X47924482Y-43425812D01*
X48044180Y-43389502D01*
X48154494Y-43330537D01*
X48251185Y-43251185D01*
X48330537Y-43154494D01*
X48389502Y-43044180D01*
X48425812Y-42924482D01*
X48438072Y-42800000D01*
X48438072Y-41200000D01*
X48425812Y-41075518D01*
X48389502Y-40955820D01*
X48330537Y-40845506D01*
X48251185Y-40748815D01*
X48154494Y-40669463D01*
X48044180Y-40610498D01*
X47924482Y-40574188D01*
X47800000Y-40561928D01*
X46200000Y-40561928D01*
X46075518Y-40574188D01*
X45955820Y-40610498D01*
X45845506Y-40669463D01*
X45748815Y-40748815D01*
X45669463Y-40845506D01*
X45610498Y-40955820D01*
X45574188Y-41075518D01*
X45561928Y-41200000D01*
X41643711Y-41200000D01*
X40953710Y-40510000D01*
X43015196Y-38448514D01*
X45665000Y-38448514D01*
X45665000Y-38711486D01*
X45716304Y-38969405D01*
X45816939Y-39212359D01*
X45963038Y-39431013D01*
X46148987Y-39616962D01*
X46367641Y-39763061D01*
X46610595Y-39863696D01*
X46868514Y-39915000D01*
X47131486Y-39915000D01*
X47389405Y-39863696D01*
X47632359Y-39763061D01*
X47851013Y-39616962D01*
X48036962Y-39431013D01*
X48183061Y-39212359D01*
X48283696Y-38969405D01*
X48335000Y-38711486D01*
X48335000Y-38448514D01*
X48283696Y-38190595D01*
X48183061Y-37947641D01*
X48036962Y-37728987D01*
X47851013Y-37543038D01*
X47632359Y-37396939D01*
X47389405Y-37296304D01*
X47131486Y-37245000D01*
X46868514Y-37245000D01*
X46610595Y-37296304D01*
X46367641Y-37396939D01*
X46148987Y-37543038D01*
X45963038Y-37728987D01*
X45816939Y-37947641D01*
X45716304Y-38190595D01*
X45665000Y-38448514D01*
X43015196Y-38448514D01*
X46195908Y-35267803D01*
X46235396Y-35235396D01*
X46281082Y-35179727D01*
X46364734Y-35077798D01*
X46460841Y-34897994D01*
X46499158Y-34771680D01*
X46508359Y-34741348D01*
X46610595Y-34783696D01*
X46868514Y-34835000D01*
X47131486Y-34835000D01*
X47389405Y-34783696D01*
X47632359Y-34683061D01*
X47851013Y-34536962D01*
X48036962Y-34351013D01*
X48183061Y-34132359D01*
X48283696Y-33889405D01*
X48335000Y-33631486D01*
X48335000Y-33448514D01*
X51665000Y-33448514D01*
X51665000Y-33711486D01*
X51716304Y-33969405D01*
X51816939Y-34212359D01*
X51963038Y-34431013D01*
X52148987Y-34616962D01*
X52367641Y-34763061D01*
X52610595Y-34863696D01*
X52868514Y-34915000D01*
X53131486Y-34915000D01*
X53389405Y-34863696D01*
X53632359Y-34763061D01*
X53851013Y-34616962D01*
X54036962Y-34431013D01*
X54183061Y-34212359D01*
X54283696Y-33969405D01*
X54335000Y-33711486D01*
X54335000Y-33448514D01*
X54283696Y-33190595D01*
X54183061Y-32947641D01*
X54036962Y-32728987D01*
X53851013Y-32543038D01*
X53632359Y-32396939D01*
X53389405Y-32296304D01*
X53131486Y-32245000D01*
X52868514Y-32245000D01*
X52610595Y-32296304D01*
X52367641Y-32396939D01*
X52148987Y-32543038D01*
X51963038Y-32728987D01*
X51816939Y-32947641D01*
X51716304Y-33190595D01*
X51665000Y-33448514D01*
X48335000Y-33448514D01*
X48335000Y-33368514D01*
X48283696Y-33110595D01*
X48183061Y-32867641D01*
X48036962Y-32648987D01*
X47851013Y-32463038D01*
X47632359Y-32316939D01*
X47389405Y-32216304D01*
X47131486Y-32165000D01*
X46868514Y-32165000D01*
X46610595Y-32216304D01*
X46367641Y-32316939D01*
X46148987Y-32463038D01*
X46147025Y-32465000D01*
X45550838Y-32465000D01*
X45500000Y-32459993D01*
X45449162Y-32465000D01*
X45297105Y-32479976D01*
X45102007Y-32539159D01*
X44922203Y-32635266D01*
X44764604Y-32764604D01*
X44635266Y-32922203D01*
X44539159Y-33102007D01*
X44479976Y-33297105D01*
X44459993Y-33500000D01*
X44465000Y-33550839D01*
X44465001Y-34071288D01*
X39040401Y-39495889D01*
X38945679Y-39456654D01*
X38484902Y-39365000D01*
X38015098Y-39365000D01*
X37554321Y-39456654D01*
X37120279Y-39636440D01*
X36729651Y-39897450D01*
X36397450Y-40229651D01*
X36136440Y-40620279D01*
X35956654Y-41054321D01*
X35865000Y-41515098D01*
X35660000Y-41515098D01*
X35660000Y-31660000D01*
X74451695Y-31660000D01*
X74335202Y-31722266D01*
%TA.AperFunction,Conductor*%
D19*
G36*
X74335202Y-31722266D02*
G01*
X74217092Y-31819197D01*
X74177604Y-31851604D01*
X74145197Y-31891092D01*
X73971289Y-32065000D01*
X73858665Y-32065000D01*
X73581426Y-32120147D01*
X73320273Y-32228320D01*
X73085241Y-32385363D01*
X72885363Y-32585241D01*
X72728320Y-32820273D01*
X72620147Y-33081426D01*
X72565000Y-33358665D01*
X72565000Y-33471289D01*
X57304093Y-48732197D01*
X57264605Y-48764604D01*
X57232198Y-48804092D01*
X57232197Y-48804093D01*
X57135266Y-48922203D01*
X57039160Y-49102007D01*
X56979977Y-49297105D01*
X56959994Y-49500000D01*
X56965001Y-49550838D01*
X56965000Y-52965000D01*
X56494396Y-52965000D01*
X56414759Y-52885363D01*
X56179727Y-52728320D01*
X55918574Y-52620147D01*
X55641335Y-52565000D01*
X55358665Y-52565000D01*
X55129000Y-52610684D01*
X55129000Y-52423973D01*
X55146396Y-52409696D01*
X55275734Y-52252097D01*
X55371841Y-52072293D01*
X55431024Y-51877195D01*
X55446000Y-51725138D01*
X55446000Y-51725135D01*
X55451007Y-51674300D01*
X55446000Y-51623465D01*
X55446000Y-40948027D01*
X55451006Y-40897199D01*
X55446000Y-40846371D01*
X55446000Y-40846362D01*
X55431024Y-40694305D01*
X55371841Y-40499207D01*
X55326832Y-40415000D01*
X55275734Y-40319402D01*
X55178803Y-40201292D01*
X55146396Y-40161804D01*
X55106908Y-40129397D01*
X54441607Y-39464097D01*
X54409196Y-39424604D01*
X54251597Y-39295266D01*
X54194499Y-39264746D01*
X54283696Y-39049405D01*
X54335000Y-38791486D01*
X54335000Y-38528514D01*
X54283696Y-38270595D01*
X54183061Y-38027641D01*
X54036962Y-37808987D01*
X53851013Y-37623038D01*
X53632359Y-37476939D01*
X53389405Y-37376304D01*
X53131486Y-37325000D01*
X52868514Y-37325000D01*
X52610595Y-37376304D01*
X52367641Y-37476939D01*
X52148987Y-37623038D01*
X51963038Y-37808987D01*
X51816939Y-38027641D01*
X51716304Y-38270595D01*
X51665000Y-38528514D01*
X51665000Y-38791486D01*
X51716304Y-39049405D01*
X51816939Y-39292359D01*
X51963038Y-39511013D01*
X51965001Y-39512976D01*
X51965001Y-40109153D01*
X51959993Y-40160000D01*
X51979976Y-40362895D01*
X52039159Y-40557993D01*
X52051680Y-40581419D01*
X51955820Y-40610498D01*
X51845506Y-40669463D01*
X51748815Y-40748815D01*
X51669463Y-40845506D01*
X51610498Y-40955820D01*
X51574188Y-41075518D01*
X51561928Y-41200000D01*
X51561928Y-42800000D01*
X51574188Y-42924482D01*
X51610498Y-43044180D01*
X51669463Y-43154494D01*
X51748815Y-43251185D01*
X51845506Y-43330537D01*
X51955820Y-43389502D01*
X52075518Y-43425812D01*
X52200000Y-43438072D01*
X53376001Y-43438072D01*
X53376000Y-48231678D01*
X53141335Y-48185000D01*
X52858665Y-48185000D01*
X52581426Y-48240147D01*
X52320273Y-48348320D01*
X52085241Y-48505363D01*
X51885363Y-48705241D01*
X51728320Y-48940273D01*
X51620147Y-49201426D01*
X51565000Y-49478665D01*
X51565000Y-49761335D01*
X51620147Y-50038574D01*
X51728320Y-50299727D01*
X51885363Y-50534759D01*
X52085241Y-50734637D01*
X52320273Y-50891680D01*
X52581426Y-50999853D01*
X52858665Y-51055000D01*
X53141335Y-51055000D01*
X53376000Y-51008322D01*
X53376000Y-51241628D01*
X53358605Y-51255904D01*
X53326198Y-51295392D01*
X53326197Y-51295393D01*
X53229266Y-51413503D01*
X53133160Y-51593307D01*
X53073977Y-51788405D01*
X53053994Y-51991300D01*
X53059001Y-52042138D01*
X53059000Y-55043172D01*
X53053994Y-55094000D01*
X53059000Y-55144828D01*
X53059000Y-55144837D01*
X53073976Y-55296894D01*
X53133159Y-55491992D01*
X53229266Y-55671797D01*
X53358604Y-55829396D01*
X53398097Y-55861807D01*
X54065000Y-56528710D01*
X54065000Y-56641335D01*
X54120147Y-56918574D01*
X54228320Y-57179727D01*
X54385363Y-57414759D01*
X54585241Y-57614637D01*
X54820273Y-57771680D01*
X55081426Y-57879853D01*
X55358665Y-57935000D01*
X55641335Y-57935000D01*
X55918574Y-57879853D01*
X56179727Y-57771680D01*
X56414759Y-57614637D01*
X56614637Y-57414759D01*
X56771680Y-57179727D01*
X56879853Y-56918574D01*
X56935000Y-56641335D01*
X56935000Y-56358665D01*
X56879853Y-56081426D01*
X56771680Y-55820273D01*
X56614637Y-55585241D01*
X56414759Y-55385363D01*
X56212173Y-55250000D01*
X56414759Y-55114637D01*
X56494396Y-55035000D01*
X57571290Y-55035000D01*
X59065000Y-56528711D01*
X59065000Y-56641335D01*
X59120147Y-56918574D01*
X59228320Y-57179727D01*
X59385363Y-57414759D01*
X59585241Y-57614637D01*
X59820273Y-57771680D01*
X60081426Y-57879853D01*
X60358665Y-57935000D01*
X60641335Y-57935000D01*
X60918574Y-57879853D01*
X61179727Y-57771680D01*
X61414759Y-57614637D01*
X61614637Y-57414759D01*
X61771680Y-57179727D01*
X61879853Y-56918574D01*
X61935000Y-56641335D01*
X61935000Y-56358665D01*
X61879853Y-56081426D01*
X61771680Y-55820273D01*
X61614637Y-55585241D01*
X61414759Y-55385363D01*
X61212173Y-55250000D01*
X61414759Y-55114637D01*
X61614637Y-54914759D01*
X61771680Y-54679727D01*
X61879853Y-54418574D01*
X61935000Y-54141335D01*
X61935000Y-54028710D01*
X64565000Y-51398710D01*
X64565000Y-51641335D01*
X64620147Y-51918574D01*
X64728320Y-52179727D01*
X64885363Y-52414759D01*
X65085241Y-52614637D01*
X65320273Y-52771680D01*
X65581426Y-52879853D01*
X65858665Y-52935000D01*
X66141335Y-52935000D01*
X66418574Y-52879853D01*
X66679727Y-52771680D01*
X66914759Y-52614637D01*
X67114637Y-52414759D01*
X67270000Y-52182241D01*
X67425363Y-52414759D01*
X67625241Y-52614637D01*
X67860273Y-52771680D01*
X68121426Y-52879853D01*
X68217355Y-52898935D01*
X63890897Y-57225393D01*
X63851404Y-57257804D01*
X63722066Y-57415403D01*
X63625959Y-57595208D01*
X63566776Y-57790306D01*
X63551800Y-57942363D01*
X63551800Y-57942372D01*
X63546794Y-57993200D01*
X63551800Y-58044028D01*
X63551801Y-60136862D01*
X63546794Y-60187700D01*
X63566777Y-60390595D01*
X63625960Y-60585693D01*
X63722066Y-60765497D01*
X63818997Y-60883607D01*
X63851405Y-60923096D01*
X63890893Y-60955503D01*
X64294693Y-61359303D01*
X64327104Y-61398796D01*
X64484703Y-61528134D01*
X64664507Y-61624241D01*
X64859605Y-61683424D01*
X65011662Y-61698400D01*
X65011671Y-61698400D01*
X65062499Y-61703406D01*
X65113327Y-61698400D01*
X68734690Y-61698400D01*
X71732197Y-64695908D01*
X71764604Y-64735396D01*
X71804092Y-64767803D01*
X71922202Y-64864734D01*
X71988226Y-64900024D01*
X72102007Y-64960841D01*
X72297105Y-65020024D01*
X72449162Y-65035000D01*
X72449164Y-65035000D01*
X72500000Y-65040007D01*
X72550835Y-65035000D01*
X73147025Y-65035000D01*
X73148987Y-65036962D01*
X73367641Y-65183061D01*
X73610595Y-65283696D01*
X73868514Y-65335000D01*
X74131486Y-65335000D01*
X74389405Y-65283696D01*
X74632359Y-65183061D01*
X74851013Y-65036962D01*
X75036962Y-64851013D01*
X75183061Y-64632359D01*
X75283696Y-64389405D01*
X75335000Y-64131486D01*
X75335000Y-63868514D01*
X75283696Y-63610595D01*
X75183061Y-63367641D01*
X75036962Y-63148987D01*
X74851013Y-62963038D01*
X74632359Y-62816939D01*
X74389405Y-62716304D01*
X74131486Y-62665000D01*
X73868514Y-62665000D01*
X73610595Y-62716304D01*
X73367641Y-62816939D01*
X73148987Y-62963038D01*
X73147025Y-62965000D01*
X72928711Y-62965000D01*
X70265011Y-60301301D01*
X70400273Y-60391680D01*
X70661426Y-60499853D01*
X70938665Y-60555000D01*
X71221335Y-60555000D01*
X71498574Y-60499853D01*
X71759727Y-60391680D01*
X71994759Y-60234637D01*
X72194637Y-60034759D01*
X72350000Y-59802241D01*
X72505363Y-60034759D01*
X72705241Y-60234637D01*
X72940273Y-60391680D01*
X73201426Y-60499853D01*
X73478665Y-60555000D01*
X73761335Y-60555000D01*
X74038574Y-60499853D01*
X74299727Y-60391680D01*
X74534759Y-60234637D01*
X74734637Y-60034759D01*
X74891680Y-59799727D01*
X74999853Y-59538574D01*
X75055000Y-59261335D01*
X75055000Y-58978665D01*
X74999853Y-58701426D01*
X74939201Y-58555000D01*
X74986862Y-58555000D01*
X75037700Y-58560007D01*
X75088538Y-58555000D01*
X75491290Y-58555000D01*
X76432197Y-59495908D01*
X76464604Y-59535396D01*
X76504092Y-59567803D01*
X76622202Y-59664734D01*
X76715793Y-59714759D01*
X76802007Y-59760841D01*
X76997105Y-59820024D01*
X77149162Y-59835000D01*
X77149171Y-59835000D01*
X77199999Y-59840006D01*
X77250827Y-59835000D01*
X77407713Y-59835000D01*
X77410498Y-59844180D01*
X77469463Y-59954494D01*
X77548815Y-60051185D01*
X77645506Y-60130537D01*
X77755820Y-60189502D01*
X77765000Y-60192287D01*
X77765000Y-60345604D01*
X77685363Y-60425241D01*
X77528320Y-60660273D01*
X77420147Y-60921426D01*
X77365000Y-61198665D01*
X77365000Y-61481335D01*
X77420147Y-61758574D01*
X77528320Y-62019727D01*
X77685363Y-62254759D01*
X77765001Y-62334397D01*
X77765000Y-62885604D01*
X77685363Y-62965241D01*
X77528320Y-63200273D01*
X77420147Y-63461426D01*
X77365000Y-63738665D01*
X77365000Y-64021335D01*
X77420147Y-64298574D01*
X77528320Y-64559727D01*
X77685363Y-64794759D01*
X77765001Y-64874397D01*
X77765000Y-65425604D01*
X77685363Y-65505241D01*
X77528320Y-65740273D01*
X77420147Y-66001426D01*
X77365000Y-66278665D01*
X77365000Y-66561335D01*
X77420147Y-66838574D01*
X77528320Y-67099727D01*
X77685363Y-67334759D01*
X77765001Y-67414397D01*
X77765000Y-67965604D01*
X77685363Y-68045241D01*
X77528320Y-68280273D01*
X77420147Y-68541426D01*
X77365000Y-68818665D01*
X77365000Y-69101335D01*
X77420147Y-69378574D01*
X77528320Y-69639727D01*
X77685363Y-69874759D01*
X77765001Y-69954397D01*
X77765000Y-70505604D01*
X77685363Y-70585241D01*
X77528320Y-70820273D01*
X77420147Y-71081426D01*
X77365000Y-71358665D01*
X77365000Y-71641335D01*
X77420147Y-71918574D01*
X77528320Y-72179727D01*
X77685363Y-72414759D01*
X77765001Y-72494397D01*
X77765000Y-73045604D01*
X77685363Y-73125241D01*
X77528320Y-73360273D01*
X77420147Y-73621426D01*
X77365000Y-73898665D01*
X77365000Y-74181335D01*
X77420147Y-74458574D01*
X77528320Y-74719727D01*
X77685363Y-74954759D01*
X77765001Y-75034397D01*
X77765000Y-75585604D01*
X77685363Y-75665241D01*
X77528320Y-75900273D01*
X77420147Y-76161426D01*
X77365000Y-76438665D01*
X77365000Y-76721335D01*
X77420147Y-76998574D01*
X77528320Y-77259727D01*
X77685363Y-77494759D01*
X77885241Y-77694637D01*
X78120273Y-77851680D01*
X78381426Y-77959853D01*
X78658665Y-78015000D01*
X78941335Y-78015000D01*
X79218574Y-77959853D01*
X79479727Y-77851680D01*
X79714759Y-77694637D01*
X79914637Y-77494759D01*
X80071680Y-77259727D01*
X80179853Y-76998574D01*
X80235000Y-76721335D01*
X80235000Y-76438665D01*
X80179853Y-76161426D01*
X80071680Y-75900273D01*
X79914637Y-75665241D01*
X79835000Y-75585604D01*
X79835000Y-75034396D01*
X79914637Y-74954759D01*
X80071680Y-74719727D01*
X80179853Y-74458574D01*
X80235000Y-74181335D01*
X80235000Y-73898665D01*
X80179853Y-73621426D01*
X80071680Y-73360273D01*
X79914637Y-73125241D01*
X79835000Y-73045604D01*
X79835000Y-72494396D01*
X79914637Y-72414759D01*
X80071680Y-72179727D01*
X80179853Y-71918574D01*
X80235000Y-71641335D01*
X80235000Y-71358665D01*
X80179853Y-71081426D01*
X80071680Y-70820273D01*
X79914637Y-70585241D01*
X79835000Y-70505604D01*
X79835000Y-69954396D01*
X79914637Y-69874759D01*
X80071680Y-69639727D01*
X80179853Y-69378574D01*
X80235000Y-69101335D01*
X80235000Y-68818665D01*
X80179853Y-68541426D01*
X80071680Y-68280273D01*
X79914637Y-68045241D01*
X79835000Y-67965604D01*
X79835000Y-67414396D01*
X79914637Y-67334759D01*
X80071680Y-67099727D01*
X80179853Y-66838574D01*
X80235000Y-66561335D01*
X80235000Y-66278665D01*
X80179853Y-66001426D01*
X80071680Y-65740273D01*
X79914637Y-65505241D01*
X79835000Y-65425604D01*
X79835000Y-64874396D01*
X79914637Y-64794759D01*
X80071680Y-64559727D01*
X80179853Y-64298574D01*
X80235000Y-64021335D01*
X80235000Y-63738665D01*
X80179853Y-63461426D01*
X80071680Y-63200273D01*
X79914637Y-62965241D01*
X79835000Y-62885604D01*
X79835000Y-62334396D01*
X79914637Y-62254759D01*
X80071680Y-62019727D01*
X80179853Y-61758574D01*
X80235000Y-61481335D01*
X80235000Y-61198665D01*
X80179853Y-60921426D01*
X80071680Y-60660273D01*
X79914637Y-60425241D01*
X79835000Y-60345604D01*
X79835000Y-60192287D01*
X79844180Y-60189502D01*
X79954494Y-60130537D01*
X80051185Y-60051185D01*
X80130537Y-59954494D01*
X80189502Y-59844180D01*
X80225812Y-59724482D01*
X80238072Y-59600000D01*
X80238072Y-58658665D01*
X84985000Y-58658665D01*
X84985000Y-58941335D01*
X85040147Y-59218574D01*
X85148320Y-59479727D01*
X85305363Y-59714759D01*
X85505241Y-59914637D01*
X85737759Y-60070000D01*
X85505241Y-60225363D01*
X85305363Y-60425241D01*
X85148320Y-60660273D01*
X85040147Y-60921426D01*
X84985000Y-61198665D01*
X84985000Y-61481335D01*
X85040147Y-61758574D01*
X85148320Y-62019727D01*
X85305363Y-62254759D01*
X85505241Y-62454637D01*
X85737759Y-62610000D01*
X85505241Y-62765363D01*
X85305363Y-62965241D01*
X85148320Y-63200273D01*
X85040147Y-63461426D01*
X84985000Y-63738665D01*
X84985000Y-64021335D01*
X85040147Y-64298574D01*
X85148320Y-64559727D01*
X85305363Y-64794759D01*
X85505241Y-64994637D01*
X85737759Y-65150000D01*
X85505241Y-65305363D01*
X85305363Y-65505241D01*
X85148320Y-65740273D01*
X85040147Y-66001426D01*
X84985000Y-66278665D01*
X84985000Y-66561335D01*
X85040147Y-66838574D01*
X85148320Y-67099727D01*
X85305363Y-67334759D01*
X85505241Y-67534637D01*
X85737759Y-67690000D01*
X85505241Y-67845363D01*
X85305363Y-68045241D01*
X85148320Y-68280273D01*
X85040147Y-68541426D01*
X84985000Y-68818665D01*
X84985000Y-69101335D01*
X85040147Y-69378574D01*
X85148320Y-69639727D01*
X85305363Y-69874759D01*
X85505241Y-70074637D01*
X85737759Y-70230000D01*
X85505241Y-70385363D01*
X85305363Y-70585241D01*
X85148320Y-70820273D01*
X85040147Y-71081426D01*
X84985000Y-71358665D01*
X84985000Y-71641335D01*
X85040147Y-71918574D01*
X85148320Y-72179727D01*
X85305363Y-72414759D01*
X85505241Y-72614637D01*
X85737759Y-72770000D01*
X85505241Y-72925363D01*
X85305363Y-73125241D01*
X85148320Y-73360273D01*
X85040147Y-73621426D01*
X84985000Y-73898665D01*
X84985000Y-74181335D01*
X85040147Y-74458574D01*
X85148320Y-74719727D01*
X85305363Y-74954759D01*
X85505241Y-75154637D01*
X85737759Y-75310000D01*
X85505241Y-75465363D01*
X85305363Y-75665241D01*
X85148320Y-75900273D01*
X85040147Y-76161426D01*
X84985000Y-76438665D01*
X84985000Y-76721335D01*
X85040147Y-76998574D01*
X85148320Y-77259727D01*
X85305363Y-77494759D01*
X85505241Y-77694637D01*
X85740273Y-77851680D01*
X86001426Y-77959853D01*
X86278665Y-78015000D01*
X86561335Y-78015000D01*
X86838574Y-77959853D01*
X87099727Y-77851680D01*
X87334759Y-77694637D01*
X87534637Y-77494759D01*
X87691680Y-77259727D01*
X87799853Y-76998574D01*
X87855000Y-76721335D01*
X87855000Y-76438665D01*
X87799853Y-76161426D01*
X87691680Y-75900273D01*
X87534637Y-75665241D01*
X87334759Y-75465363D01*
X87102241Y-75310000D01*
X87334759Y-75154637D01*
X87534637Y-74954759D01*
X87691680Y-74719727D01*
X87799853Y-74458574D01*
X87855000Y-74181335D01*
X87855000Y-73898665D01*
X87799853Y-73621426D01*
X87691680Y-73360273D01*
X87534637Y-73125241D01*
X87334759Y-72925363D01*
X87102241Y-72770000D01*
X87334759Y-72614637D01*
X87534637Y-72414759D01*
X87691680Y-72179727D01*
X87799853Y-71918574D01*
X87855000Y-71641335D01*
X87855000Y-71358665D01*
X87799853Y-71081426D01*
X87691680Y-70820273D01*
X87534637Y-70585241D01*
X87334759Y-70385363D01*
X87102241Y-70230000D01*
X87334759Y-70074637D01*
X87534637Y-69874759D01*
X87691680Y-69639727D01*
X87799853Y-69378574D01*
X87855000Y-69101335D01*
X87855000Y-68868514D01*
X87915000Y-68868514D01*
X87915000Y-69131486D01*
X87966304Y-69389405D01*
X88066939Y-69632359D01*
X88213038Y-69851013D01*
X88398987Y-70036962D01*
X88617641Y-70183061D01*
X88779246Y-70250000D01*
X88617641Y-70316939D01*
X88398987Y-70463038D01*
X88213038Y-70648987D01*
X88066939Y-70867641D01*
X87966304Y-71110595D01*
X87915000Y-71368514D01*
X87915000Y-71631486D01*
X87966304Y-71889405D01*
X88066939Y-72132359D01*
X88213038Y-72351013D01*
X88398987Y-72536962D01*
X88617641Y-72683061D01*
X88779246Y-72750000D01*
X88617641Y-72816939D01*
X88398987Y-72963038D01*
X88213038Y-73148987D01*
X88066939Y-73367641D01*
X87966304Y-73610595D01*
X87915000Y-73868514D01*
X87915000Y-74131486D01*
X87966304Y-74389405D01*
X88066939Y-74632359D01*
X88213038Y-74851013D01*
X88398987Y-75036962D01*
X88617641Y-75183061D01*
X88779246Y-75250000D01*
X88617641Y-75316939D01*
X88398987Y-75463038D01*
X88213038Y-75648987D01*
X88066939Y-75867641D01*
X87966304Y-76110595D01*
X87915000Y-76368514D01*
X87915000Y-76631486D01*
X87966304Y-76889405D01*
X88066939Y-77132359D01*
X88213038Y-77351013D01*
X88398987Y-77536962D01*
X88617641Y-77683061D01*
X88860595Y-77783696D01*
X89118514Y-77835000D01*
X89381486Y-77835000D01*
X89639405Y-77783696D01*
X89882359Y-77683061D01*
X90101013Y-77536962D01*
X90286962Y-77351013D01*
X90433061Y-77132359D01*
X90533696Y-76889405D01*
X90585000Y-76631486D01*
X90585000Y-76368514D01*
X90533696Y-76110595D01*
X90433061Y-75867641D01*
X90286962Y-75648987D01*
X90101013Y-75463038D01*
X89882359Y-75316939D01*
X89720754Y-75250000D01*
X89882359Y-75183061D01*
X90101013Y-75036962D01*
X90286962Y-74851013D01*
X90433061Y-74632359D01*
X90533696Y-74389405D01*
X90585000Y-74131486D01*
X90585000Y-73868514D01*
X90533696Y-73610595D01*
X90433061Y-73367641D01*
X90286962Y-73148987D01*
X90101013Y-72963038D01*
X89882359Y-72816939D01*
X89720754Y-72750000D01*
X89882359Y-72683061D01*
X90101013Y-72536962D01*
X90286962Y-72351013D01*
X90433061Y-72132359D01*
X90533696Y-71889405D01*
X90585000Y-71631486D01*
X90585000Y-71368514D01*
X90533696Y-71110595D01*
X90433061Y-70867641D01*
X90286962Y-70648987D01*
X90101013Y-70463038D01*
X89882359Y-70316939D01*
X89720754Y-70250000D01*
X89882359Y-70183061D01*
X90101013Y-70036962D01*
X90286962Y-69851013D01*
X90433061Y-69632359D01*
X90533696Y-69389405D01*
X90585000Y-69131486D01*
X90585000Y-68868514D01*
X90533696Y-68610595D01*
X90433061Y-68367641D01*
X90286962Y-68148987D01*
X90101013Y-67963038D01*
X89882359Y-67816939D01*
X89639405Y-67716304D01*
X89381486Y-67665000D01*
X89118514Y-67665000D01*
X88860595Y-67716304D01*
X88617641Y-67816939D01*
X88398987Y-67963038D01*
X88213038Y-68148987D01*
X88066939Y-68367641D01*
X87966304Y-68610595D01*
X87915000Y-68868514D01*
X87855000Y-68868514D01*
X87855000Y-68818665D01*
X87799853Y-68541426D01*
X87691680Y-68280273D01*
X87534637Y-68045241D01*
X87334759Y-67845363D01*
X87102241Y-67690000D01*
X87334759Y-67534637D01*
X87534637Y-67334759D01*
X87691680Y-67099727D01*
X87799853Y-66838574D01*
X87855000Y-66561335D01*
X87855000Y-66278665D01*
X87799853Y-66001426D01*
X87691680Y-65740273D01*
X87534637Y-65505241D01*
X87334759Y-65305363D01*
X87102241Y-65150000D01*
X87334759Y-64994637D01*
X87534637Y-64794759D01*
X87691680Y-64559727D01*
X87799853Y-64298574D01*
X87855000Y-64021335D01*
X87855000Y-63982031D01*
X87886304Y-64139405D01*
X87986939Y-64382359D01*
X88133038Y-64601013D01*
X88318987Y-64786962D01*
X88537641Y-64933061D01*
X88739246Y-65016569D01*
X88617641Y-65066939D01*
X88398987Y-65213038D01*
X88213038Y-65398987D01*
X88066939Y-65617641D01*
X87966304Y-65860595D01*
X87915000Y-66118514D01*
X87915000Y-66381486D01*
X87966304Y-66639405D01*
X88066939Y-66882359D01*
X88213038Y-67101013D01*
X88398987Y-67286962D01*
X88617641Y-67433061D01*
X88860595Y-67533696D01*
X89118514Y-67585000D01*
X89381486Y-67585000D01*
X89639405Y-67533696D01*
X89882359Y-67433061D01*
X90101013Y-67286962D01*
X90286962Y-67101013D01*
X90433061Y-66882359D01*
X90533696Y-66639405D01*
X90585000Y-66381486D01*
X90585000Y-66118514D01*
X90533696Y-65860595D01*
X90433061Y-65617641D01*
X90286962Y-65398987D01*
X90101013Y-65213038D01*
X89882359Y-65066939D01*
X89680754Y-64983431D01*
X89802359Y-64933061D01*
X90021013Y-64786962D01*
X90206962Y-64601013D01*
X90353061Y-64382359D01*
X90453696Y-64139405D01*
X90505000Y-63881486D01*
X90505000Y-63618514D01*
X90453696Y-63360595D01*
X90353061Y-63117641D01*
X90206962Y-62898987D01*
X90021013Y-62713038D01*
X89802359Y-62566939D01*
X89640754Y-62500000D01*
X89802359Y-62433061D01*
X90021013Y-62286962D01*
X90206962Y-62101013D01*
X90353061Y-61882359D01*
X90453696Y-61639405D01*
X90505000Y-61381486D01*
X90505000Y-61118514D01*
X90453696Y-60860595D01*
X90353061Y-60617641D01*
X90206962Y-60398987D01*
X90021013Y-60213038D01*
X89802359Y-60066939D01*
X89640754Y-60000000D01*
X89802359Y-59933061D01*
X90021013Y-59786962D01*
X90206962Y-59601013D01*
X90353061Y-59382359D01*
X90453696Y-59139405D01*
X90505000Y-58881486D01*
X90505000Y-58618514D01*
X92915000Y-58618514D01*
X92915000Y-58881486D01*
X92966304Y-59139405D01*
X93066939Y-59382359D01*
X93213038Y-59601013D01*
X93215000Y-59602975D01*
X93215001Y-60397024D01*
X93213038Y-60398987D01*
X93066939Y-60617641D01*
X92966304Y-60860595D01*
X92915000Y-61118514D01*
X92915000Y-61381486D01*
X92966304Y-61639405D01*
X93066939Y-61882359D01*
X93213038Y-62101013D01*
X93215001Y-62102976D01*
X93215000Y-62897025D01*
X93213038Y-62898987D01*
X93066939Y-63117641D01*
X92966304Y-63360595D01*
X92915000Y-63618514D01*
X92915000Y-63881486D01*
X92966304Y-64139405D01*
X93066939Y-64382359D01*
X93213038Y-64601013D01*
X93215001Y-64602976D01*
X93215000Y-65515779D01*
X93146939Y-65617641D01*
X93046304Y-65860595D01*
X92995000Y-66118514D01*
X92995000Y-66381486D01*
X93046304Y-66639405D01*
X93146939Y-66882359D01*
X93293038Y-67101013D01*
X93295001Y-67102976D01*
X93295000Y-68147025D01*
X93293038Y-68148987D01*
X93146939Y-68367641D01*
X93046304Y-68610595D01*
X92995000Y-68868514D01*
X92995000Y-69131486D01*
X93046304Y-69389405D01*
X93146939Y-69632359D01*
X93293038Y-69851013D01*
X93295001Y-69852976D01*
X93295000Y-70647025D01*
X93293038Y-70648987D01*
X93146939Y-70867641D01*
X93046304Y-71110595D01*
X92995000Y-71368514D01*
X92995000Y-71631486D01*
X93046304Y-71889405D01*
X93146939Y-72132359D01*
X93293038Y-72351013D01*
X93295001Y-72352976D01*
X93295000Y-73147025D01*
X93293038Y-73148987D01*
X93146939Y-73367641D01*
X93046304Y-73610595D01*
X92995000Y-73868514D01*
X92995000Y-74131486D01*
X93046304Y-74389405D01*
X93146939Y-74632359D01*
X93293038Y-74851013D01*
X93295001Y-74852976D01*
X93295000Y-75647025D01*
X93293038Y-75648987D01*
X93146939Y-75867641D01*
X93046304Y-76110595D01*
X92995000Y-76368514D01*
X92995000Y-76631486D01*
X93046304Y-76889405D01*
X93146939Y-77132359D01*
X93293038Y-77351013D01*
X93478987Y-77536962D01*
X93697641Y-77683061D01*
X93940595Y-77783696D01*
X94198514Y-77835000D01*
X94461486Y-77835000D01*
X94719405Y-77783696D01*
X94962359Y-77683061D01*
X95181013Y-77536962D01*
X95366962Y-77351013D01*
X95513061Y-77132359D01*
X95613696Y-76889405D01*
X95665000Y-76631486D01*
X95665000Y-76368514D01*
X95613696Y-76110595D01*
X95513061Y-75867641D01*
X95366962Y-75648987D01*
X95365000Y-75647025D01*
X95365000Y-74852975D01*
X95366962Y-74851013D01*
X95513061Y-74632359D01*
X95613696Y-74389405D01*
X95665000Y-74131486D01*
X95665000Y-73868514D01*
X95613696Y-73610595D01*
X95513061Y-73367641D01*
X95366962Y-73148987D01*
X95365000Y-73147025D01*
X95365000Y-72352975D01*
X95366962Y-72351013D01*
X95513061Y-72132359D01*
X95613696Y-71889405D01*
X95665000Y-71631486D01*
X95665000Y-71368514D01*
X95613696Y-71110595D01*
X95513061Y-70867641D01*
X95366962Y-70648987D01*
X95365000Y-70647025D01*
X95365000Y-69852975D01*
X95366962Y-69851013D01*
X95513061Y-69632359D01*
X95613696Y-69389405D01*
X95619810Y-69358665D01*
X98315000Y-69358665D01*
X98315000Y-69641335D01*
X98370147Y-69918574D01*
X98478320Y-70179727D01*
X98635363Y-70414759D01*
X98835241Y-70614637D01*
X99070273Y-70771680D01*
X99331426Y-70879853D01*
X99608665Y-70935000D01*
X99721290Y-70935000D01*
X104215001Y-75428712D01*
X104215000Y-76029161D01*
X104209993Y-76080000D01*
X104229976Y-76282895D01*
X104289159Y-76477993D01*
X104354385Y-76600023D01*
X104385266Y-76657797D01*
X104514604Y-76815396D01*
X104672203Y-76944734D01*
X104852007Y-77040841D01*
X105047105Y-77100024D01*
X105250000Y-77120007D01*
X105300838Y-77115000D01*
X105897025Y-77115000D01*
X105898987Y-77116962D01*
X106117641Y-77263061D01*
X106360595Y-77363696D01*
X106618514Y-77415000D01*
X106881486Y-77415000D01*
X107139405Y-77363696D01*
X107382359Y-77263061D01*
X107601013Y-77116962D01*
X107786962Y-76931013D01*
X107933061Y-76712359D01*
X108033696Y-76469405D01*
X108085000Y-76211486D01*
X108085000Y-75948514D01*
X108033696Y-75690595D01*
X107933061Y-75447641D01*
X107786962Y-75228987D01*
X107601013Y-75043038D01*
X107382359Y-74896939D01*
X107139405Y-74796304D01*
X106881486Y-74745000D01*
X106618514Y-74745000D01*
X106360595Y-74796304D01*
X106273498Y-74832381D01*
X106270024Y-74797105D01*
X106210841Y-74602007D01*
X106210841Y-74602006D01*
X106114734Y-74422202D01*
X106017803Y-74304092D01*
X105985396Y-74264604D01*
X105945908Y-74232197D01*
X104072376Y-72358665D01*
X113315000Y-72358665D01*
X113315000Y-72641335D01*
X113370147Y-72918574D01*
X113478320Y-73179727D01*
X113635363Y-73414759D01*
X113835241Y-73614637D01*
X114037827Y-73750000D01*
X113835241Y-73885363D01*
X113635363Y-74085241D01*
X113478320Y-74320273D01*
X113370147Y-74581426D01*
X113315000Y-74858665D01*
X113315000Y-75141335D01*
X113370147Y-75418574D01*
X113478320Y-75679727D01*
X113635363Y-75914759D01*
X113835241Y-76114637D01*
X114070273Y-76271680D01*
X114331426Y-76379853D01*
X114608665Y-76435000D01*
X114891335Y-76435000D01*
X115168574Y-76379853D01*
X115429727Y-76271680D01*
X115664759Y-76114637D01*
X115864637Y-75914759D01*
X116021680Y-75679727D01*
X116129853Y-75418574D01*
X116185000Y-75141335D01*
X116185000Y-75028710D01*
X125695908Y-65517803D01*
X125735396Y-65485396D01*
X125803676Y-65402197D01*
X125864734Y-65327798D01*
X125958870Y-65151680D01*
X125960841Y-65147993D01*
X126020024Y-64952895D01*
X126035000Y-64800838D01*
X126035000Y-64800829D01*
X126040006Y-64750001D01*
X126035000Y-64699173D01*
X126035000Y-63515098D01*
X127865000Y-63515098D01*
X127865000Y-63984902D01*
X127956654Y-64445679D01*
X128136440Y-64879721D01*
X128397450Y-65270349D01*
X128729651Y-65602550D01*
X129120279Y-65863560D01*
X129554321Y-66043346D01*
X130015098Y-66135000D01*
X130484902Y-66135000D01*
X130945679Y-66043346D01*
X131379721Y-65863560D01*
X131770349Y-65602550D01*
X132102550Y-65270349D01*
X132363560Y-64879721D01*
X132543346Y-64445679D01*
X132635000Y-63984902D01*
X132635000Y-63515098D01*
X132543346Y-63054321D01*
X132363560Y-62620279D01*
X132102550Y-62229651D01*
X131770349Y-61897450D01*
X131379721Y-61636440D01*
X130945679Y-61456654D01*
X130484902Y-61365000D01*
X130015098Y-61365000D01*
X129554321Y-61456654D01*
X129120279Y-61636440D01*
X128729651Y-61897450D01*
X128397450Y-62229651D01*
X128136440Y-62620279D01*
X127956654Y-63054321D01*
X127865000Y-63515098D01*
X126035000Y-63515098D01*
X126035000Y-58535000D01*
X127449172Y-58535000D01*
X127500000Y-58540006D01*
X127550828Y-58535000D01*
X127550838Y-58535000D01*
X127702895Y-58520024D01*
X127897993Y-58460841D01*
X128077797Y-58364734D01*
X128235396Y-58235396D01*
X128267807Y-58195903D01*
X129459599Y-57004111D01*
X129554321Y-57043346D01*
X130015098Y-57135000D01*
X130484902Y-57135000D01*
X130945679Y-57043346D01*
X131379721Y-56863560D01*
X131770349Y-56602550D01*
X132102550Y-56270349D01*
X132363560Y-55879721D01*
X132543346Y-55445679D01*
X132635000Y-54984902D01*
X132635000Y-54515098D01*
X132543346Y-54054321D01*
X132363560Y-53620279D01*
X132102550Y-53229651D01*
X131770349Y-52897450D01*
X131379721Y-52636440D01*
X130945679Y-52456654D01*
X130484902Y-52365000D01*
X130015098Y-52365000D01*
X129554321Y-52456654D01*
X129120279Y-52636440D01*
X128729651Y-52897450D01*
X128397450Y-53229651D01*
X128136440Y-53620279D01*
X127956654Y-54054321D01*
X127865000Y-54515098D01*
X127865000Y-54984902D01*
X127956654Y-55445679D01*
X127995889Y-55540401D01*
X127071290Y-56465000D01*
X125852975Y-56465000D01*
X125851013Y-56463038D01*
X125632359Y-56316939D01*
X125389405Y-56216304D01*
X125131486Y-56165000D01*
X124868514Y-56165000D01*
X124610595Y-56216304D01*
X124367641Y-56316939D01*
X124148987Y-56463038D01*
X123963038Y-56648987D01*
X123816939Y-56867641D01*
X123716304Y-57110595D01*
X123665000Y-57368514D01*
X123665000Y-57631486D01*
X123716304Y-57889405D01*
X123816939Y-58132359D01*
X123963038Y-58351013D01*
X123965000Y-58352975D01*
X123965001Y-64321288D01*
X116142298Y-72143992D01*
X116129853Y-72081426D01*
X116021680Y-71820273D01*
X115864637Y-71585241D01*
X115785000Y-71505604D01*
X115785000Y-69602975D01*
X115786962Y-69601013D01*
X115933061Y-69382359D01*
X116033696Y-69139405D01*
X116085000Y-68881486D01*
X116085000Y-68618514D01*
X116033696Y-68360595D01*
X115933061Y-68117641D01*
X115786962Y-67898987D01*
X115601013Y-67713038D01*
X115382359Y-67566939D01*
X115139405Y-67466304D01*
X114881486Y-67415000D01*
X114618514Y-67415000D01*
X114360595Y-67466304D01*
X114117641Y-67566939D01*
X113898987Y-67713038D01*
X113713038Y-67898987D01*
X113566939Y-68117641D01*
X113466304Y-68360595D01*
X113415000Y-68618514D01*
X113415000Y-68881486D01*
X113466304Y-69139405D01*
X113566939Y-69382359D01*
X113713038Y-69601013D01*
X113715000Y-69602975D01*
X113715001Y-71505603D01*
X113635363Y-71585241D01*
X113478320Y-71820273D01*
X113370147Y-72081426D01*
X113315000Y-72358665D01*
X104072376Y-72358665D01*
X102606009Y-70892298D01*
X102668574Y-70879853D01*
X102695948Y-70868514D01*
X105415000Y-70868514D01*
X105415000Y-71131486D01*
X105466304Y-71389405D01*
X105566939Y-71632359D01*
X105713038Y-71851013D01*
X105898987Y-72036962D01*
X106117641Y-72183061D01*
X106360595Y-72283696D01*
X106618514Y-72335000D01*
X106881486Y-72335000D01*
X107139405Y-72283696D01*
X107382359Y-72183061D01*
X107601013Y-72036962D01*
X107786962Y-71851013D01*
X107933061Y-71632359D01*
X108033696Y-71389405D01*
X108085000Y-71131486D01*
X108085000Y-70868514D01*
X108033696Y-70610595D01*
X107933061Y-70367641D01*
X107786962Y-70148987D01*
X107601013Y-69963038D01*
X107382359Y-69816939D01*
X107139405Y-69716304D01*
X106881486Y-69665000D01*
X106618514Y-69665000D01*
X106360595Y-69716304D01*
X106117641Y-69816939D01*
X105898987Y-69963038D01*
X105713038Y-70148987D01*
X105566939Y-70367641D01*
X105466304Y-70610595D01*
X105415000Y-70868514D01*
X102695948Y-70868514D01*
X102929727Y-70771680D01*
X103164759Y-70614637D01*
X103364637Y-70414759D01*
X103521680Y-70179727D01*
X103629853Y-69918574D01*
X103685000Y-69641335D01*
X103685000Y-69358665D01*
X103629853Y-69081426D01*
X103521680Y-68820273D01*
X103364637Y-68585241D01*
X103164759Y-68385363D01*
X102929727Y-68228320D01*
X102668574Y-68120147D01*
X102391335Y-68065000D01*
X102108665Y-68065000D01*
X101831426Y-68120147D01*
X101570273Y-68228320D01*
X101335241Y-68385363D01*
X101135363Y-68585241D01*
X101000000Y-68787827D01*
X100864637Y-68585241D01*
X100664759Y-68385363D01*
X100429727Y-68228320D01*
X100168574Y-68120147D01*
X99891335Y-68065000D01*
X99608665Y-68065000D01*
X99331426Y-68120147D01*
X99070273Y-68228320D01*
X98835241Y-68385363D01*
X98635363Y-68585241D01*
X98478320Y-68820273D01*
X98370147Y-69081426D01*
X98315000Y-69358665D01*
X95619810Y-69358665D01*
X95665000Y-69131486D01*
X95665000Y-68868514D01*
X95613696Y-68610595D01*
X95513061Y-68367641D01*
X95366962Y-68148987D01*
X95365000Y-68147025D01*
X95365000Y-67102975D01*
X95366962Y-67101013D01*
X95513061Y-66882359D01*
X95613696Y-66639405D01*
X95665000Y-66381486D01*
X95665000Y-66118514D01*
X95613696Y-65860595D01*
X95513061Y-65617641D01*
X95366962Y-65398987D01*
X95285000Y-65317025D01*
X95285000Y-64602975D01*
X95286962Y-64601013D01*
X95433061Y-64382359D01*
X95533696Y-64139405D01*
X95585000Y-63881486D01*
X95585000Y-63618514D01*
X95533696Y-63360595D01*
X95433061Y-63117641D01*
X95286962Y-62898987D01*
X95285000Y-62897025D01*
X95285000Y-62102975D01*
X95286962Y-62101013D01*
X95433061Y-61882359D01*
X95533696Y-61639405D01*
X95585000Y-61381486D01*
X95585000Y-61118514D01*
X95533696Y-60860595D01*
X95433061Y-60617641D01*
X95286962Y-60398987D01*
X95285000Y-60397025D01*
X95285000Y-59602975D01*
X95286962Y-59601013D01*
X95433061Y-59382359D01*
X95533696Y-59139405D01*
X95585000Y-58881486D01*
X95585000Y-58618514D01*
X95533696Y-58360595D01*
X95433061Y-58117641D01*
X95286962Y-57898987D01*
X95101013Y-57713038D01*
X94882359Y-57566939D01*
X94639405Y-57466304D01*
X94381486Y-57415000D01*
X94118514Y-57415000D01*
X93860595Y-57466304D01*
X93617641Y-57566939D01*
X93398987Y-57713038D01*
X93213038Y-57898987D01*
X93066939Y-58117641D01*
X92966304Y-58360595D01*
X92915000Y-58618514D01*
X90505000Y-58618514D01*
X90453696Y-58360595D01*
X90353061Y-58117641D01*
X90206962Y-57898987D01*
X90021013Y-57713038D01*
X89802359Y-57566939D01*
X89559405Y-57466304D01*
X89301486Y-57415000D01*
X89038514Y-57415000D01*
X88780595Y-57466304D01*
X88537641Y-57566939D01*
X88318987Y-57713038D01*
X88133038Y-57898987D01*
X87986939Y-58117641D01*
X87886304Y-58360595D01*
X87841007Y-58588317D01*
X87799853Y-58381426D01*
X87691680Y-58120273D01*
X87534637Y-57885241D01*
X87334759Y-57685363D01*
X87099727Y-57528320D01*
X86838574Y-57420147D01*
X86561335Y-57365000D01*
X86278665Y-57365000D01*
X86001426Y-57420147D01*
X85740273Y-57528320D01*
X85505241Y-57685363D01*
X85305363Y-57885241D01*
X85148320Y-58120273D01*
X85040147Y-58381426D01*
X84985000Y-58658665D01*
X80238072Y-58658665D01*
X80238072Y-58000000D01*
X80225812Y-57875518D01*
X80189502Y-57755820D01*
X80130537Y-57645506D01*
X80051185Y-57548815D01*
X79954494Y-57469463D01*
X79844180Y-57410498D01*
X79724482Y-57374188D01*
X79600000Y-57361928D01*
X78000000Y-57361928D01*
X77875518Y-57374188D01*
X77755820Y-57410498D01*
X77645506Y-57469463D01*
X77548815Y-57548815D01*
X77487382Y-57623671D01*
X76687807Y-56824097D01*
X76655396Y-56784604D01*
X76497797Y-56655266D01*
X76317993Y-56559159D01*
X76122895Y-56499976D01*
X76072700Y-56495032D01*
X76072700Y-49588527D01*
X76077706Y-49537699D01*
X76072700Y-49486871D01*
X76072700Y-49486862D01*
X76057724Y-49334805D01*
X75998541Y-49139707D01*
X75913625Y-48980840D01*
X75902434Y-48959902D01*
X75805503Y-48841792D01*
X75773096Y-48802304D01*
X75733608Y-48769897D01*
X75035000Y-48071290D01*
X75035000Y-47852975D01*
X75036962Y-47851013D01*
X75183061Y-47632359D01*
X75283696Y-47389405D01*
X75335000Y-47131486D01*
X75335000Y-46868514D01*
X75283696Y-46610595D01*
X75183061Y-46367641D01*
X75036962Y-46148987D01*
X74851013Y-45963038D01*
X74632359Y-45816939D01*
X74389405Y-45716304D01*
X74131486Y-45665000D01*
X73868514Y-45665000D01*
X73610595Y-45716304D01*
X73435466Y-45788845D01*
X74695908Y-44528403D01*
X74735396Y-44495996D01*
X74822873Y-44389405D01*
X74864734Y-44338398D01*
X74922860Y-44229651D01*
X74960841Y-44158593D01*
X75020024Y-43963495D01*
X75035000Y-43811438D01*
X75035000Y-43811429D01*
X75040006Y-43760601D01*
X75035000Y-43709773D01*
X75035000Y-39494396D01*
X75114637Y-39414759D01*
X75271680Y-39179727D01*
X75379853Y-38918574D01*
X75435000Y-38641335D01*
X75435000Y-38358665D01*
X75379853Y-38081426D01*
X75271680Y-37820273D01*
X75114637Y-37585241D01*
X74914759Y-37385363D01*
X74679727Y-37228320D01*
X74418574Y-37120147D01*
X74141335Y-37065000D01*
X73858665Y-37065000D01*
X73581426Y-37120147D01*
X73320273Y-37228320D01*
X73085241Y-37385363D01*
X72885363Y-37585241D01*
X72728320Y-37820273D01*
X72620147Y-38081426D01*
X72565000Y-38358665D01*
X72565000Y-38641335D01*
X72620147Y-38918574D01*
X72728320Y-39179727D01*
X72885363Y-39414759D01*
X72965001Y-39494397D01*
X72965000Y-43331889D01*
X70033442Y-46263448D01*
X69956962Y-46148987D01*
X69771013Y-45963038D01*
X69552359Y-45816939D01*
X69309405Y-45716304D01*
X69051486Y-45665000D01*
X68788514Y-45665000D01*
X68530595Y-45716304D01*
X68287641Y-45816939D01*
X68068987Y-45963038D01*
X68067025Y-45965000D01*
X67550835Y-45965000D01*
X67500000Y-45959993D01*
X67449164Y-45965000D01*
X67449162Y-45965000D01*
X67297105Y-45979976D01*
X67102007Y-46039159D01*
X67018309Y-46083896D01*
X66922202Y-46135266D01*
X66804092Y-46232197D01*
X66764604Y-46264604D01*
X66732197Y-46304092D01*
X60471290Y-52565000D01*
X60358665Y-52565000D01*
X60081426Y-52620147D01*
X59820273Y-52728320D01*
X59585241Y-52885363D01*
X59385363Y-53085241D01*
X59228320Y-53320273D01*
X59120147Y-53581426D01*
X59107702Y-53643992D01*
X59035000Y-53571290D01*
X59035000Y-49928710D01*
X74028711Y-34935000D01*
X74141335Y-34935000D01*
X74418574Y-34879853D01*
X74679727Y-34771680D01*
X74914759Y-34614637D01*
X75114637Y-34414759D01*
X75271680Y-34179727D01*
X75379853Y-33918574D01*
X75435000Y-33641335D01*
X75435000Y-33622000D01*
X76911928Y-33622000D01*
X76911928Y-34800000D01*
X76924188Y-34924482D01*
X76960498Y-35044180D01*
X77019463Y-35154494D01*
X77098815Y-35251185D01*
X77195506Y-35330537D01*
X77305820Y-35389502D01*
X77315000Y-35392287D01*
X77315000Y-35545604D01*
X77235363Y-35625241D01*
X77078320Y-35860273D01*
X76970147Y-36121426D01*
X76915000Y-36398665D01*
X76915000Y-36681335D01*
X76970147Y-36958574D01*
X77078320Y-37219727D01*
X77235363Y-37454759D01*
X77315001Y-37534397D01*
X77315000Y-38085604D01*
X77235363Y-38165241D01*
X77078320Y-38400273D01*
X76970147Y-38661426D01*
X76915000Y-38938665D01*
X76915000Y-39221335D01*
X76970147Y-39498574D01*
X77078320Y-39759727D01*
X77235363Y-39994759D01*
X77315001Y-40074397D01*
X77315000Y-40625604D01*
X77235363Y-40705241D01*
X77078320Y-40940273D01*
X76970147Y-41201426D01*
X76915000Y-41478665D01*
X76915000Y-41761335D01*
X76970147Y-42038574D01*
X77078320Y-42299727D01*
X77235363Y-42534759D01*
X77315001Y-42614397D01*
X77315000Y-43165604D01*
X77235363Y-43245241D01*
X77078320Y-43480273D01*
X76970147Y-43741426D01*
X76915000Y-44018665D01*
X76915000Y-44301335D01*
X76970147Y-44578574D01*
X77078320Y-44839727D01*
X77235363Y-45074759D01*
X77315001Y-45154397D01*
X77315000Y-45705604D01*
X77235363Y-45785241D01*
X77078320Y-46020273D01*
X76970147Y-46281426D01*
X76915000Y-46558665D01*
X76915000Y-46841335D01*
X76970147Y-47118574D01*
X77078320Y-47379727D01*
X77235363Y-47614759D01*
X77315001Y-47694397D01*
X77315000Y-48245604D01*
X77235363Y-48325241D01*
X77078320Y-48560273D01*
X76970147Y-48821426D01*
X76915000Y-49098665D01*
X76915000Y-49381335D01*
X76970147Y-49658574D01*
X77078320Y-49919727D01*
X77235363Y-50154759D01*
X77315001Y-50234397D01*
X77315000Y-50785604D01*
X77235363Y-50865241D01*
X77078320Y-51100273D01*
X76970147Y-51361426D01*
X76915000Y-51638665D01*
X76915000Y-51921335D01*
X76970147Y-52198574D01*
X77078320Y-52459727D01*
X77235363Y-52694759D01*
X77435241Y-52894637D01*
X77670273Y-53051680D01*
X77931426Y-53159853D01*
X78208665Y-53215000D01*
X78491335Y-53215000D01*
X78768574Y-53159853D01*
X79029727Y-53051680D01*
X79264759Y-52894637D01*
X79464637Y-52694759D01*
X79621680Y-52459727D01*
X79729853Y-52198574D01*
X79785000Y-51921335D01*
X79785000Y-51638665D01*
X79729853Y-51361426D01*
X79621680Y-51100273D01*
X79464637Y-50865241D01*
X79385000Y-50785604D01*
X79385000Y-50234396D01*
X79464637Y-50154759D01*
X79621680Y-49919727D01*
X79729853Y-49658574D01*
X79785000Y-49381335D01*
X79785000Y-49098665D01*
X79729853Y-48821426D01*
X79621680Y-48560273D01*
X79464637Y-48325241D01*
X79385000Y-48245604D01*
X79385000Y-47694396D01*
X79464637Y-47614759D01*
X79621680Y-47379727D01*
X79729853Y-47118574D01*
X79785000Y-46841335D01*
X79785000Y-46558665D01*
X79729853Y-46281426D01*
X79621680Y-46020273D01*
X79464637Y-45785241D01*
X79385000Y-45705604D01*
X79385000Y-45154396D01*
X79464637Y-45074759D01*
X79621680Y-44839727D01*
X79729853Y-44578574D01*
X79785000Y-44301335D01*
X79785000Y-44018665D01*
X79729853Y-43741426D01*
X79621680Y-43480273D01*
X79464637Y-43245241D01*
X79385000Y-43165604D01*
X79385000Y-42614396D01*
X79464637Y-42534759D01*
X79621680Y-42299727D01*
X79729853Y-42038574D01*
X79785000Y-41761335D01*
X79785000Y-41478665D01*
X79729853Y-41201426D01*
X79621680Y-40940273D01*
X79464637Y-40705241D01*
X79385000Y-40625604D01*
X79385000Y-40074396D01*
X79464637Y-39994759D01*
X79621680Y-39759727D01*
X79729853Y-39498574D01*
X79785000Y-39221335D01*
X79785000Y-38938665D01*
X79729853Y-38661426D01*
X79621680Y-38400273D01*
X79464637Y-38165241D01*
X79385000Y-38085604D01*
X79385000Y-37534396D01*
X79464637Y-37454759D01*
X79621680Y-37219727D01*
X79729853Y-36958574D01*
X79785000Y-36681335D01*
X79785000Y-36398665D01*
X79729853Y-36121426D01*
X79621680Y-35860273D01*
X79464637Y-35625241D01*
X79385000Y-35545604D01*
X79385000Y-35392287D01*
X79394180Y-35389502D01*
X79504494Y-35330537D01*
X79601185Y-35251185D01*
X79680537Y-35154494D01*
X79739502Y-35044180D01*
X79775812Y-34924482D01*
X79788072Y-34800000D01*
X79788072Y-33622000D01*
X84582076Y-33622000D01*
X84535000Y-33858665D01*
X84535000Y-34141335D01*
X84590147Y-34418574D01*
X84698320Y-34679727D01*
X84855363Y-34914759D01*
X85055241Y-35114637D01*
X85287759Y-35270000D01*
X85055241Y-35425363D01*
X84855363Y-35625241D01*
X84698320Y-35860273D01*
X84590147Y-36121426D01*
X84535000Y-36398665D01*
X84535000Y-36681335D01*
X84590147Y-36958574D01*
X84698320Y-37219727D01*
X84855363Y-37454759D01*
X85055241Y-37654637D01*
X85287759Y-37810000D01*
X85055241Y-37965363D01*
X84855363Y-38165241D01*
X84698320Y-38400273D01*
X84590147Y-38661426D01*
X84535000Y-38938665D01*
X84535000Y-39221335D01*
X84590147Y-39498574D01*
X84698320Y-39759727D01*
X84855363Y-39994759D01*
X85055241Y-40194637D01*
X85287759Y-40350000D01*
X85055241Y-40505363D01*
X84855363Y-40705241D01*
X84698320Y-40940273D01*
X84590147Y-41201426D01*
X84535000Y-41478665D01*
X84535000Y-41761335D01*
X84590147Y-42038574D01*
X84698320Y-42299727D01*
X84855363Y-42534759D01*
X85055241Y-42734637D01*
X85287759Y-42890000D01*
X85055241Y-43045363D01*
X84855363Y-43245241D01*
X84698320Y-43480273D01*
X84590147Y-43741426D01*
X84535000Y-44018665D01*
X84535000Y-44301335D01*
X84590147Y-44578574D01*
X84698320Y-44839727D01*
X84855363Y-45074759D01*
X85055241Y-45274637D01*
X85287759Y-45430000D01*
X85055241Y-45585363D01*
X84855363Y-45785241D01*
X84698320Y-46020273D01*
X84590147Y-46281426D01*
X84535000Y-46558665D01*
X84535000Y-46841335D01*
X84590147Y-47118574D01*
X84698320Y-47379727D01*
X84855363Y-47614759D01*
X85055241Y-47814637D01*
X85287759Y-47970000D01*
X85055241Y-48125363D01*
X84855363Y-48325241D01*
X84698320Y-48560273D01*
X84590147Y-48821426D01*
X84535000Y-49098665D01*
X84535000Y-49381335D01*
X84590147Y-49658574D01*
X84698320Y-49919727D01*
X84855363Y-50154759D01*
X85055241Y-50354637D01*
X85287759Y-50510000D01*
X85055241Y-50665363D01*
X84855363Y-50865241D01*
X84698320Y-51100273D01*
X84590147Y-51361426D01*
X84535000Y-51638665D01*
X84535000Y-51921335D01*
X84590147Y-52198574D01*
X84698320Y-52459727D01*
X84855363Y-52694759D01*
X85055241Y-52894637D01*
X85290273Y-53051680D01*
X85551426Y-53159853D01*
X85828665Y-53215000D01*
X86111335Y-53215000D01*
X86388574Y-53159853D01*
X86649727Y-53051680D01*
X86884759Y-52894637D01*
X87084637Y-52694759D01*
X87241680Y-52459727D01*
X87349853Y-52198574D01*
X87405000Y-51921335D01*
X87405000Y-51638665D01*
X87349853Y-51361426D01*
X87241680Y-51100273D01*
X87084637Y-50865241D01*
X86884759Y-50665363D01*
X86652241Y-50510000D01*
X86884759Y-50354637D01*
X87084637Y-50154759D01*
X87241680Y-49919727D01*
X87349853Y-49658574D01*
X87405000Y-49381335D01*
X87405000Y-49098665D01*
X87349853Y-48821426D01*
X87241680Y-48560273D01*
X87084637Y-48325241D01*
X86884759Y-48125363D01*
X86652241Y-47970000D01*
X86884759Y-47814637D01*
X87084637Y-47614759D01*
X87241680Y-47379727D01*
X87349853Y-47118574D01*
X87405000Y-46841335D01*
X87405000Y-46618514D01*
X87585000Y-46618514D01*
X87585000Y-46881486D01*
X87636304Y-47139405D01*
X87736939Y-47382359D01*
X87883038Y-47601013D01*
X88068987Y-47786962D01*
X88287641Y-47933061D01*
X88449246Y-48000000D01*
X88287641Y-48066939D01*
X88068987Y-48213038D01*
X87883038Y-48398987D01*
X87736939Y-48617641D01*
X87636304Y-48860595D01*
X87585000Y-49118514D01*
X87585000Y-49381486D01*
X87636304Y-49639405D01*
X87736939Y-49882359D01*
X87883038Y-50101013D01*
X88068987Y-50286962D01*
X88287641Y-50433061D01*
X88449246Y-50500000D01*
X88287641Y-50566939D01*
X88068987Y-50713038D01*
X87883038Y-50898987D01*
X87736939Y-51117641D01*
X87636304Y-51360595D01*
X87585000Y-51618514D01*
X87585000Y-51881486D01*
X87636304Y-52139405D01*
X87736939Y-52382359D01*
X87883038Y-52601013D01*
X88068987Y-52786962D01*
X88287641Y-52933061D01*
X88530595Y-53033696D01*
X88788514Y-53085000D01*
X89051486Y-53085000D01*
X89309405Y-53033696D01*
X89552359Y-52933061D01*
X89771013Y-52786962D01*
X89956962Y-52601013D01*
X90103061Y-52382359D01*
X90203696Y-52139405D01*
X90255000Y-51881486D01*
X90255000Y-51618514D01*
X90203696Y-51360595D01*
X90103061Y-51117641D01*
X89956962Y-50898987D01*
X89771013Y-50713038D01*
X89552359Y-50566939D01*
X89390754Y-50500000D01*
X89552359Y-50433061D01*
X89771013Y-50286962D01*
X89956962Y-50101013D01*
X90103061Y-49882359D01*
X90203696Y-49639405D01*
X90255000Y-49381486D01*
X90255000Y-49118514D01*
X90203696Y-48860595D01*
X90103061Y-48617641D01*
X89956962Y-48398987D01*
X89771013Y-48213038D01*
X89552359Y-48066939D01*
X89390754Y-48000000D01*
X89552359Y-47933061D01*
X89771013Y-47786962D01*
X89956962Y-47601013D01*
X90103061Y-47382359D01*
X90203696Y-47139405D01*
X90255000Y-46881486D01*
X90255000Y-46618514D01*
X90203696Y-46360595D01*
X90103061Y-46117641D01*
X89956962Y-45898987D01*
X89771013Y-45713038D01*
X89552359Y-45566939D01*
X89309405Y-45466304D01*
X89051486Y-45415000D01*
X88788514Y-45415000D01*
X88530595Y-45466304D01*
X88287641Y-45566939D01*
X88068987Y-45713038D01*
X87883038Y-45898987D01*
X87736939Y-46117641D01*
X87636304Y-46360595D01*
X87585000Y-46618514D01*
X87405000Y-46618514D01*
X87405000Y-46558665D01*
X87349853Y-46281426D01*
X87241680Y-46020273D01*
X87084637Y-45785241D01*
X86884759Y-45585363D01*
X86652241Y-45430000D01*
X86884759Y-45274637D01*
X87084637Y-45074759D01*
X87241680Y-44839727D01*
X87349853Y-44578574D01*
X87405000Y-44301335D01*
X87405000Y-44018665D01*
X87349853Y-43741426D01*
X87241680Y-43480273D01*
X87084637Y-43245241D01*
X86884759Y-43045363D01*
X86652241Y-42890000D01*
X86884759Y-42734637D01*
X87084637Y-42534759D01*
X87241680Y-42299727D01*
X87349853Y-42038574D01*
X87405000Y-41761335D01*
X87405000Y-41478665D01*
X87349853Y-41201426D01*
X87241680Y-40940273D01*
X87084637Y-40705241D01*
X86884759Y-40505363D01*
X86652241Y-40350000D01*
X86884759Y-40194637D01*
X87084637Y-39994759D01*
X87241680Y-39759727D01*
X87349853Y-39498574D01*
X87405000Y-39221335D01*
X87405000Y-38938665D01*
X87349853Y-38661426D01*
X87241680Y-38400273D01*
X87084637Y-38165241D01*
X86884759Y-37965363D01*
X86652241Y-37810000D01*
X86884759Y-37654637D01*
X87084637Y-37454759D01*
X87241680Y-37219727D01*
X87349853Y-36958574D01*
X87405000Y-36681335D01*
X87405000Y-36398665D01*
X87349853Y-36121426D01*
X87241680Y-35860273D01*
X87084637Y-35625241D01*
X86884759Y-35425363D01*
X86652241Y-35270000D01*
X86884759Y-35114637D01*
X87084637Y-34914759D01*
X87241680Y-34679727D01*
X87349853Y-34418574D01*
X87405000Y-34141335D01*
X87405000Y-33858665D01*
X87357924Y-33622000D01*
X87714035Y-33622000D01*
X87665000Y-33868514D01*
X87665000Y-34131486D01*
X87716304Y-34389405D01*
X87816939Y-34632359D01*
X87963038Y-34851013D01*
X88148987Y-35036962D01*
X88367641Y-35183061D01*
X88489246Y-35233431D01*
X88287641Y-35316939D01*
X88068987Y-35463038D01*
X87883038Y-35648987D01*
X87736939Y-35867641D01*
X87636304Y-36110595D01*
X87585000Y-36368514D01*
X87585000Y-36631486D01*
X87636304Y-36889405D01*
X87736939Y-37132359D01*
X87883038Y-37351013D01*
X88068987Y-37536962D01*
X88287641Y-37683061D01*
X88449246Y-37750000D01*
X88287641Y-37816939D01*
X88068987Y-37963038D01*
X87883038Y-38148987D01*
X87736939Y-38367641D01*
X87636304Y-38610595D01*
X87585000Y-38868514D01*
X87585000Y-39131486D01*
X87636304Y-39389405D01*
X87736939Y-39632359D01*
X87883038Y-39851013D01*
X88068987Y-40036962D01*
X88287641Y-40183061D01*
X88449246Y-40250000D01*
X88287641Y-40316939D01*
X88068987Y-40463038D01*
X87883038Y-40648987D01*
X87736939Y-40867641D01*
X87636304Y-41110595D01*
X87585000Y-41368514D01*
X87585000Y-41631486D01*
X87636304Y-41889405D01*
X87736939Y-42132359D01*
X87883038Y-42351013D01*
X88068987Y-42536962D01*
X88287641Y-42683061D01*
X88449246Y-42750000D01*
X88287641Y-42816939D01*
X88068987Y-42963038D01*
X87883038Y-43148987D01*
X87736939Y-43367641D01*
X87636304Y-43610595D01*
X87585000Y-43868514D01*
X87585000Y-44131486D01*
X87636304Y-44389405D01*
X87736939Y-44632359D01*
X87883038Y-44851013D01*
X88068987Y-45036962D01*
X88287641Y-45183061D01*
X88530595Y-45283696D01*
X88788514Y-45335000D01*
X89051486Y-45335000D01*
X89309405Y-45283696D01*
X89552359Y-45183061D01*
X89771013Y-45036962D01*
X89956962Y-44851013D01*
X90103061Y-44632359D01*
X90203696Y-44389405D01*
X90255000Y-44131486D01*
X90255000Y-43868514D01*
X90203696Y-43610595D01*
X90103061Y-43367641D01*
X89956962Y-43148987D01*
X89771013Y-42963038D01*
X89552359Y-42816939D01*
X89390754Y-42750000D01*
X89552359Y-42683061D01*
X89771013Y-42536962D01*
X89956962Y-42351013D01*
X90103061Y-42132359D01*
X90203696Y-41889405D01*
X90255000Y-41631486D01*
X90255000Y-41368514D01*
X90203696Y-41110595D01*
X90103061Y-40867641D01*
X89956962Y-40648987D01*
X89771013Y-40463038D01*
X89552359Y-40316939D01*
X89390754Y-40250000D01*
X89552359Y-40183061D01*
X89771013Y-40036962D01*
X89956962Y-39851013D01*
X90103061Y-39632359D01*
X90203696Y-39389405D01*
X90255000Y-39131486D01*
X90255000Y-38868514D01*
X90203696Y-38610595D01*
X90103061Y-38367641D01*
X89956962Y-38148987D01*
X89771013Y-37963038D01*
X89552359Y-37816939D01*
X89390754Y-37750000D01*
X89552359Y-37683061D01*
X89771013Y-37536962D01*
X89956962Y-37351013D01*
X90103061Y-37132359D01*
X90203696Y-36889405D01*
X90255000Y-36631486D01*
X90255000Y-36368514D01*
X90203696Y-36110595D01*
X90103061Y-35867641D01*
X89956962Y-35648987D01*
X89771013Y-35463038D01*
X89552359Y-35316939D01*
X89430754Y-35266569D01*
X89632359Y-35183061D01*
X89851013Y-35036962D01*
X90036962Y-34851013D01*
X90183061Y-34632359D01*
X90283696Y-34389405D01*
X90335000Y-34131486D01*
X90335000Y-33868514D01*
X90285965Y-33622000D01*
X92794035Y-33622000D01*
X92745000Y-33868514D01*
X92745000Y-34131486D01*
X92796304Y-34389405D01*
X92896939Y-34632359D01*
X92965000Y-34734221D01*
X92965001Y-35647024D01*
X92963038Y-35648987D01*
X92816939Y-35867641D01*
X92716304Y-36110595D01*
X92665000Y-36368514D01*
X92665000Y-36631486D01*
X92716304Y-36889405D01*
X92816939Y-37132359D01*
X92963038Y-37351013D01*
X92965001Y-37352976D01*
X92965000Y-38147025D01*
X92963038Y-38148987D01*
X92816939Y-38367641D01*
X92716304Y-38610595D01*
X92665000Y-38868514D01*
X92665000Y-39131486D01*
X92716304Y-39389405D01*
X92816939Y-39632359D01*
X92963038Y-39851013D01*
X92965001Y-39852976D01*
X92965000Y-40647025D01*
X92963038Y-40648987D01*
X92816939Y-40867641D01*
X92716304Y-41110595D01*
X92665000Y-41368514D01*
X92665000Y-41631486D01*
X92716304Y-41889405D01*
X92816939Y-42132359D01*
X92963038Y-42351013D01*
X92965001Y-42352976D01*
X92965000Y-43147025D01*
X92963038Y-43148987D01*
X92816939Y-43367641D01*
X92716304Y-43610595D01*
X92665000Y-43868514D01*
X92665000Y-44131486D01*
X92716304Y-44389405D01*
X92816939Y-44632359D01*
X92963038Y-44851013D01*
X92965001Y-44852976D01*
X92965000Y-45897025D01*
X92963038Y-45898987D01*
X92816939Y-46117641D01*
X92716304Y-46360595D01*
X92665000Y-46618514D01*
X92665000Y-46881486D01*
X92716304Y-47139405D01*
X92816939Y-47382359D01*
X92963038Y-47601013D01*
X92965000Y-47602975D01*
X92965001Y-48397024D01*
X92963038Y-48398987D01*
X92816939Y-48617641D01*
X92716304Y-48860595D01*
X92665000Y-49118514D01*
X92665000Y-49381486D01*
X92716304Y-49639405D01*
X92816939Y-49882359D01*
X92963038Y-50101013D01*
X92965000Y-50102975D01*
X92965001Y-50897024D01*
X92963038Y-50898987D01*
X92816939Y-51117641D01*
X92716304Y-51360595D01*
X92665000Y-51618514D01*
X92665000Y-51881486D01*
X92716304Y-52139405D01*
X92816939Y-52382359D01*
X92963038Y-52601013D01*
X93148987Y-52786962D01*
X93367641Y-52933061D01*
X93610595Y-53033696D01*
X93868514Y-53085000D01*
X93871290Y-53085000D01*
X108635001Y-67848712D01*
X108635001Y-67897024D01*
X108633038Y-67898987D01*
X108486939Y-68117641D01*
X108386304Y-68360595D01*
X108335000Y-68618514D01*
X108335000Y-68881486D01*
X108386304Y-69139405D01*
X108486939Y-69382359D01*
X108633038Y-69601013D01*
X108818987Y-69786962D01*
X109037641Y-69933061D01*
X109280595Y-70033696D01*
X109538514Y-70085000D01*
X109801486Y-70085000D01*
X110059405Y-70033696D01*
X110302359Y-69933061D01*
X110521013Y-69786962D01*
X110706962Y-69601013D01*
X110853061Y-69382359D01*
X110953696Y-69139405D01*
X111005000Y-68881486D01*
X111005000Y-68618514D01*
X110953696Y-68360595D01*
X110853061Y-68117641D01*
X110706962Y-67898987D01*
X110705000Y-67897025D01*
X110705000Y-67300838D01*
X110710007Y-67250000D01*
X110690024Y-67047105D01*
X110630841Y-66852007D01*
X110534734Y-66672203D01*
X110405396Y-66514604D01*
X110247797Y-66385266D01*
X110067993Y-66289159D01*
X109974513Y-66260802D01*
X95335000Y-51621290D01*
X95335000Y-51618514D01*
X95283696Y-51360595D01*
X95183061Y-51117641D01*
X95036962Y-50898987D01*
X95035000Y-50897025D01*
X95035000Y-50102975D01*
X95036962Y-50101013D01*
X95183061Y-49882359D01*
X95283696Y-49639405D01*
X95335000Y-49381486D01*
X95335000Y-49118514D01*
X95283696Y-48860595D01*
X95183061Y-48617641D01*
X95036962Y-48398987D01*
X95035000Y-48397025D01*
X95035000Y-47602975D01*
X95036962Y-47601013D01*
X95183061Y-47382359D01*
X95283696Y-47139405D01*
X95335000Y-46881486D01*
X95335000Y-46618514D01*
X95283696Y-46360595D01*
X95183061Y-46117641D01*
X95036962Y-45898987D01*
X95035000Y-45897025D01*
X95035000Y-44852975D01*
X95036962Y-44851013D01*
X95183061Y-44632359D01*
X95283696Y-44389405D01*
X95335000Y-44131486D01*
X95335000Y-43868514D01*
X95283696Y-43610595D01*
X95183061Y-43367641D01*
X95036962Y-43148987D01*
X95035000Y-43147025D01*
X95035000Y-42352975D01*
X95036962Y-42351013D01*
X95183061Y-42132359D01*
X95283696Y-41889405D01*
X95335000Y-41631486D01*
X95335000Y-41368514D01*
X95283696Y-41110595D01*
X95183061Y-40867641D01*
X95036962Y-40648987D01*
X95035000Y-40647025D01*
X95035000Y-39852975D01*
X95036962Y-39851013D01*
X95183061Y-39632359D01*
X95283696Y-39389405D01*
X95335000Y-39131486D01*
X95335000Y-38868514D01*
X95283696Y-38610595D01*
X95183061Y-38367641D01*
X95036962Y-38148987D01*
X95035000Y-38147025D01*
X95035000Y-37352975D01*
X95036962Y-37351013D01*
X95183061Y-37132359D01*
X95283696Y-36889405D01*
X95335000Y-36631486D01*
X95335000Y-36368514D01*
X95283696Y-36110595D01*
X95183061Y-35867641D01*
X95036962Y-35648987D01*
X95035000Y-35647025D01*
X95035000Y-34932975D01*
X95116962Y-34851013D01*
X95206299Y-34717309D01*
X100542987Y-40053997D01*
X100429727Y-39978320D01*
X100168574Y-39870147D01*
X99891335Y-39815000D01*
X99608665Y-39815000D01*
X99331426Y-39870147D01*
X99070273Y-39978320D01*
X98835241Y-40135363D01*
X98635363Y-40335241D01*
X98478320Y-40570273D01*
X98370147Y-40831426D01*
X98315000Y-41108665D01*
X98315000Y-41391335D01*
X98370147Y-41668574D01*
X98478320Y-41929727D01*
X98635363Y-42164759D01*
X98835241Y-42364637D01*
X99070273Y-42521680D01*
X99331426Y-42629853D01*
X99608665Y-42685000D01*
X99721290Y-42685000D01*
X111865000Y-54828711D01*
X111865000Y-54949162D01*
X111859993Y-55000000D01*
X111879976Y-55202895D01*
X111939159Y-55397993D01*
X112035266Y-55577797D01*
X112164604Y-55735396D01*
X112322203Y-55864734D01*
X112502007Y-55960841D01*
X112697105Y-56020024D01*
X112849162Y-56035000D01*
X112900000Y-56040007D01*
X112950838Y-56035000D01*
X113107713Y-56035000D01*
X113110498Y-56044180D01*
X113169463Y-56154494D01*
X113248815Y-56251185D01*
X113345506Y-56330537D01*
X113455820Y-56389502D01*
X113575518Y-56425812D01*
X113700000Y-56438072D01*
X115300000Y-56438072D01*
X115424482Y-56425812D01*
X115544180Y-56389502D01*
X115654494Y-56330537D01*
X115751185Y-56251185D01*
X115830537Y-56154494D01*
X115889502Y-56044180D01*
X115918661Y-55948057D01*
X116085241Y-56114637D01*
X116320273Y-56271680D01*
X116581426Y-56379853D01*
X116858665Y-56435000D01*
X116971290Y-56435000D01*
X118365001Y-57828712D01*
X118365000Y-58819161D01*
X118359993Y-58870000D01*
X118379976Y-59072895D01*
X118439159Y-59267993D01*
X118500289Y-59382359D01*
X118535266Y-59447797D01*
X118664604Y-59605396D01*
X118822203Y-59734734D01*
X119002007Y-59830841D01*
X119197105Y-59890024D01*
X119400000Y-59910007D01*
X119450838Y-59905000D01*
X120005604Y-59905000D01*
X120085241Y-59984637D01*
X120320273Y-60141680D01*
X120581426Y-60249853D01*
X120858665Y-60305000D01*
X121141335Y-60305000D01*
X121418574Y-60249853D01*
X121679727Y-60141680D01*
X121914759Y-59984637D01*
X122114637Y-59784759D01*
X122271680Y-59549727D01*
X122379853Y-59288574D01*
X122435000Y-59011335D01*
X122435000Y-58728665D01*
X122379853Y-58451426D01*
X122271680Y-58190273D01*
X122114637Y-57955241D01*
X121914759Y-57755363D01*
X121679727Y-57598320D01*
X121418574Y-57490147D01*
X121141335Y-57435000D01*
X120858665Y-57435000D01*
X120581426Y-57490147D01*
X120435000Y-57550799D01*
X120435000Y-57450835D01*
X120440007Y-57400000D01*
X120435000Y-57349162D01*
X120420024Y-57197105D01*
X120360841Y-57002007D01*
X120360841Y-57002006D01*
X120264734Y-56822202D01*
X120167803Y-56704092D01*
X120135396Y-56664604D01*
X120095908Y-56632197D01*
X118435000Y-54971290D01*
X118435000Y-54858665D01*
X118379853Y-54581426D01*
X118271680Y-54320273D01*
X118114637Y-54085241D01*
X117914759Y-53885363D01*
X117679727Y-53728320D01*
X117418574Y-53620147D01*
X117141335Y-53565000D01*
X117028711Y-53565000D01*
X104832225Y-41368514D01*
X108085000Y-41368514D01*
X108085000Y-41631486D01*
X108136304Y-41889405D01*
X108236939Y-42132359D01*
X108383038Y-42351013D01*
X108568987Y-42536962D01*
X108787641Y-42683061D01*
X109030595Y-42783696D01*
X109288514Y-42835000D01*
X109551486Y-42835000D01*
X109809405Y-42783696D01*
X110052359Y-42683061D01*
X110271013Y-42536962D01*
X110272975Y-42535000D01*
X110869162Y-42535000D01*
X110920000Y-42540007D01*
X110970838Y-42535000D01*
X111122895Y-42520024D01*
X111317993Y-42460841D01*
X111497797Y-42364734D01*
X111655396Y-42235396D01*
X111784734Y-42077797D01*
X111880841Y-41897993D01*
X111940024Y-41702895D01*
X111960007Y-41500000D01*
X111955000Y-41449162D01*
X111955000Y-41368514D01*
X113165000Y-41368514D01*
X113165000Y-41631486D01*
X113216304Y-41889405D01*
X113316939Y-42132359D01*
X113463038Y-42351013D01*
X113465001Y-42352976D01*
X113465001Y-43099163D01*
X113459994Y-43150000D01*
X113479977Y-43352895D01*
X113539160Y-43547993D01*
X113635266Y-43727797D01*
X113703908Y-43811437D01*
X113764605Y-43885396D01*
X113804093Y-43917803D01*
X119823671Y-49937382D01*
X119748815Y-49998815D01*
X119669463Y-50095506D01*
X119610498Y-50205820D01*
X119574188Y-50325518D01*
X119561928Y-50450000D01*
X119561928Y-52050000D01*
X119574188Y-52174482D01*
X119610498Y-52294180D01*
X119669463Y-52404494D01*
X119748815Y-52501185D01*
X119845506Y-52580537D01*
X119955820Y-52639502D01*
X120075518Y-52675812D01*
X120200000Y-52688072D01*
X121800000Y-52688072D01*
X121924482Y-52675812D01*
X122044180Y-52639502D01*
X122154494Y-52580537D01*
X122251185Y-52501185D01*
X122330537Y-52404494D01*
X122389502Y-52294180D01*
X122391220Y-52288514D01*
X123665000Y-52288514D01*
X123665000Y-52551486D01*
X123716304Y-52809405D01*
X123816939Y-53052359D01*
X123963038Y-53271013D01*
X124148987Y-53456962D01*
X124367641Y-53603061D01*
X124610595Y-53703696D01*
X124868514Y-53755000D01*
X125131486Y-53755000D01*
X125389405Y-53703696D01*
X125632359Y-53603061D01*
X125851013Y-53456962D01*
X126036962Y-53271013D01*
X126183061Y-53052359D01*
X126283696Y-52809405D01*
X126335000Y-52551486D01*
X126335000Y-52288514D01*
X126283696Y-52030595D01*
X126183061Y-51787641D01*
X126036962Y-51568987D01*
X125851013Y-51383038D01*
X125632359Y-51236939D01*
X125389405Y-51136304D01*
X125131486Y-51085000D01*
X124868514Y-51085000D01*
X124610595Y-51136304D01*
X124367641Y-51236939D01*
X124148987Y-51383038D01*
X123963038Y-51568987D01*
X123816939Y-51787641D01*
X123716304Y-52030595D01*
X123665000Y-52288514D01*
X122391220Y-52288514D01*
X122425812Y-52174482D01*
X122438072Y-52050000D01*
X122438072Y-50450000D01*
X122425812Y-50325518D01*
X122389502Y-50205820D01*
X122330537Y-50095506D01*
X122251185Y-49998815D01*
X122154494Y-49919463D01*
X122044180Y-49860498D01*
X122035000Y-49857713D01*
X122035000Y-49700827D01*
X122040006Y-49649999D01*
X122035000Y-49599171D01*
X122035000Y-49599162D01*
X122020024Y-49447105D01*
X121960841Y-49252007D01*
X121880665Y-49102007D01*
X121864734Y-49072202D01*
X121767803Y-48954092D01*
X121735396Y-48914604D01*
X121695908Y-48882197D01*
X115535000Y-42721290D01*
X115535000Y-42352975D01*
X115536962Y-42351013D01*
X115683061Y-42132359D01*
X115783696Y-41889405D01*
X115835000Y-41631486D01*
X115835000Y-41368514D01*
X115783696Y-41110595D01*
X115683061Y-40867641D01*
X115536962Y-40648987D01*
X115351013Y-40463038D01*
X115132359Y-40316939D01*
X114889405Y-40216304D01*
X114631486Y-40165000D01*
X114368514Y-40165000D01*
X114110595Y-40216304D01*
X113867641Y-40316939D01*
X113648987Y-40463038D01*
X113463038Y-40648987D01*
X113316939Y-40867641D01*
X113216304Y-41110595D01*
X113165000Y-41368514D01*
X111955000Y-41368514D01*
X111955000Y-41008710D01*
X114528711Y-38435000D01*
X114641335Y-38435000D01*
X114918574Y-38379853D01*
X115179727Y-38271680D01*
X115414759Y-38114637D01*
X115494396Y-38035000D01*
X121071290Y-38035000D01*
X127995889Y-44959600D01*
X127956654Y-45054321D01*
X127865000Y-45515098D01*
X127865000Y-45984902D01*
X127956654Y-46445679D01*
X128136440Y-46879721D01*
X128397450Y-47270349D01*
X128729651Y-47602550D01*
X129120279Y-47863560D01*
X129554321Y-48043346D01*
X130015098Y-48135000D01*
X130484902Y-48135000D01*
X130945679Y-48043346D01*
X131379721Y-47863560D01*
X131770349Y-47602550D01*
X132102550Y-47270349D01*
X132363560Y-46879721D01*
X132543346Y-46445679D01*
X132635000Y-45984902D01*
X132635000Y-45515098D01*
X132543346Y-45054321D01*
X132363560Y-44620279D01*
X132102550Y-44229651D01*
X131770349Y-43897450D01*
X131379721Y-43636440D01*
X130945679Y-43456654D01*
X130484902Y-43365000D01*
X130015098Y-43365000D01*
X129554321Y-43456654D01*
X129459600Y-43495889D01*
X122267807Y-36304097D01*
X122235396Y-36264604D01*
X122077797Y-36135266D01*
X121897993Y-36039159D01*
X121702895Y-35979976D01*
X121550838Y-35965000D01*
X121550828Y-35965000D01*
X121500000Y-35959994D01*
X121449172Y-35965000D01*
X115494396Y-35965000D01*
X115414759Y-35885363D01*
X115212173Y-35750000D01*
X115414759Y-35614637D01*
X115614637Y-35414759D01*
X115771680Y-35179727D01*
X115879853Y-34918574D01*
X115935000Y-34641335D01*
X115935000Y-34358665D01*
X115879853Y-34081426D01*
X115771680Y-33820273D01*
X115614637Y-33585241D01*
X115414759Y-33385363D01*
X115179727Y-33228320D01*
X114918574Y-33120147D01*
X114641335Y-33065000D01*
X114358665Y-33065000D01*
X114081426Y-33120147D01*
X113820273Y-33228320D01*
X113585241Y-33385363D01*
X113385363Y-33585241D01*
X113228320Y-33820273D01*
X113120147Y-34081426D01*
X113065000Y-34358665D01*
X113065000Y-34641335D01*
X113120147Y-34918574D01*
X113228320Y-35179727D01*
X113385363Y-35414759D01*
X113585241Y-35614637D01*
X113787827Y-35750000D01*
X113585241Y-35885363D01*
X113385363Y-36085241D01*
X113228320Y-36320273D01*
X113120147Y-36581426D01*
X113065000Y-36858665D01*
X113065000Y-36971289D01*
X110224092Y-39812198D01*
X110184605Y-39844604D01*
X110152198Y-39884092D01*
X110152197Y-39884093D01*
X110055266Y-40002203D01*
X109959160Y-40182007D01*
X109933201Y-40267582D01*
X109809405Y-40216304D01*
X109551486Y-40165000D01*
X109288514Y-40165000D01*
X109030595Y-40216304D01*
X108787641Y-40316939D01*
X108568987Y-40463038D01*
X108383038Y-40648987D01*
X108236939Y-40867641D01*
X108136304Y-41110595D01*
X108085000Y-41368514D01*
X104832225Y-41368514D01*
X104017807Y-40554097D01*
X103985396Y-40514604D01*
X103827797Y-40385266D01*
X103647993Y-40289159D01*
X103452895Y-40229976D01*
X103300838Y-40215000D01*
X103300828Y-40215000D01*
X103281716Y-40213118D01*
X103270024Y-40094405D01*
X103210841Y-39899307D01*
X103136234Y-39759727D01*
X103114734Y-39719502D01*
X103017803Y-39601392D01*
X102985396Y-39561904D01*
X102945908Y-39529497D01*
X102364925Y-38948514D01*
X106665000Y-38948514D01*
X106665000Y-39211486D01*
X106716304Y-39469405D01*
X106816939Y-39712359D01*
X106963038Y-39931013D01*
X107148987Y-40116962D01*
X107367641Y-40263061D01*
X107610595Y-40363696D01*
X107868514Y-40415000D01*
X108131486Y-40415000D01*
X108389405Y-40363696D01*
X108632359Y-40263061D01*
X108851013Y-40116962D01*
X109036962Y-39931013D01*
X109183061Y-39712359D01*
X109283696Y-39469405D01*
X109335000Y-39211486D01*
X109335000Y-38948514D01*
X109283696Y-38690595D01*
X109183061Y-38447641D01*
X109036962Y-38228987D01*
X108851013Y-38043038D01*
X108632359Y-37896939D01*
X108389405Y-37796304D01*
X108131486Y-37745000D01*
X107868514Y-37745000D01*
X107610595Y-37796304D01*
X107367641Y-37896939D01*
X107148987Y-38043038D01*
X106963038Y-38228987D01*
X106816939Y-38447641D01*
X106716304Y-38690595D01*
X106665000Y-38948514D01*
X102364925Y-38948514D01*
X97284925Y-33868514D01*
X106665000Y-33868514D01*
X106665000Y-34131486D01*
X106716304Y-34389405D01*
X106816939Y-34632359D01*
X106963038Y-34851013D01*
X107148987Y-35036962D01*
X107367641Y-35183061D01*
X107610595Y-35283696D01*
X107868514Y-35335000D01*
X108131486Y-35335000D01*
X108389405Y-35283696D01*
X108632359Y-35183061D01*
X108851013Y-35036962D01*
X109036962Y-34851013D01*
X109183061Y-34632359D01*
X109283696Y-34389405D01*
X109335000Y-34131486D01*
X109335000Y-33868514D01*
X109283696Y-33610595D01*
X109183061Y-33367641D01*
X109036962Y-33148987D01*
X108851013Y-32963038D01*
X108632359Y-32816939D01*
X108389405Y-32716304D01*
X108131486Y-32665000D01*
X107868514Y-32665000D01*
X107610595Y-32716304D01*
X107367641Y-32816939D01*
X107148987Y-32963038D01*
X106963038Y-33148987D01*
X106816939Y-33367641D01*
X106716304Y-33610595D01*
X106665000Y-33868514D01*
X97284925Y-33868514D01*
X95307507Y-31891097D01*
X95275096Y-31851604D01*
X95117497Y-31722266D01*
X95001005Y-31660000D01*
X134340000Y-31660000D01*
X134340001Y-79340000D01*
X35660000Y-79340000D01*
X35660000Y-54765098D01*
X36115000Y-54765098D01*
X36115000Y-55234902D01*
X36206654Y-55695679D01*
X36386440Y-56129721D01*
X36647450Y-56520349D01*
X36979651Y-56852550D01*
X37370279Y-57113560D01*
X37804321Y-57293346D01*
X38265098Y-57385000D01*
X38734902Y-57385000D01*
X39195679Y-57293346D01*
X39629721Y-57113560D01*
X40020349Y-56852550D01*
X40352550Y-56520349D01*
X40613560Y-56129721D01*
X40793346Y-55695679D01*
X40885000Y-55234902D01*
X40885000Y-54765098D01*
X40793346Y-54304321D01*
X40613560Y-53870279D01*
X40352550Y-53479651D01*
X40020349Y-53147450D01*
X39629721Y-52886440D01*
X39195679Y-52706654D01*
X38734902Y-52615000D01*
X38265098Y-52615000D01*
X37804321Y-52706654D01*
X37370279Y-52886440D01*
X36979651Y-53147450D01*
X36647450Y-53479651D01*
X36386440Y-53870279D01*
X36206654Y-54304321D01*
X36115000Y-54765098D01*
X35660000Y-54765098D01*
X35660000Y-41515098D01*
X35865000Y-41515098D01*
X35865000Y-41984902D01*
X35956654Y-42445679D01*
X36136440Y-42879721D01*
X36397450Y-43270349D01*
X36729651Y-43602550D01*
X37120279Y-43863560D01*
X37554321Y-44043346D01*
X38015098Y-44135000D01*
X38484902Y-44135000D01*
X38945679Y-44043346D01*
X39379721Y-43863560D01*
X39770349Y-43602550D01*
X40102550Y-43270349D01*
X40363560Y-42879721D01*
X40373065Y-42856775D01*
X45965001Y-48448712D01*
X45965001Y-48625603D01*
X45885363Y-48705241D01*
X45728320Y-48940273D01*
X45620147Y-49201426D01*
X45565000Y-49478665D01*
X45565000Y-49761335D01*
X45620147Y-50038574D01*
X45728320Y-50299727D01*
X45885363Y-50534759D01*
X45965001Y-50614397D01*
X45965001Y-50791289D01*
X45896697Y-50859593D01*
X45857204Y-50892004D01*
X45727866Y-51049603D01*
X45631759Y-51229408D01*
X45572576Y-51424506D01*
X45557600Y-51576563D01*
X45557600Y-51576572D01*
X45552594Y-51627400D01*
X45557600Y-51678228D01*
X45557601Y-58821762D01*
X45552594Y-58872600D01*
X45572577Y-59075495D01*
X45631760Y-59270593D01*
X45727866Y-59450397D01*
X45809168Y-59549463D01*
X45823793Y-59567283D01*
X45748815Y-59628815D01*
X45669463Y-59725506D01*
X45610498Y-59835820D01*
X45574188Y-59955518D01*
X45561928Y-60080000D01*
X45561928Y-61680000D01*
X45574188Y-61804482D01*
X45610498Y-61924180D01*
X45669463Y-62034494D01*
X45748815Y-62131185D01*
X45845506Y-62210537D01*
X45955820Y-62269502D01*
X46075518Y-62305812D01*
X46200000Y-62318072D01*
X47800000Y-62318072D01*
X47924482Y-62305812D01*
X48044180Y-62269502D01*
X48154494Y-62210537D01*
X48251185Y-62131185D01*
X48330537Y-62034494D01*
X48389502Y-61924180D01*
X48425812Y-61804482D01*
X48438072Y-61680000D01*
X48438072Y-60080000D01*
X48425812Y-59955518D01*
X48389502Y-59835820D01*
X48330537Y-59725506D01*
X48251185Y-59628815D01*
X48154494Y-59549463D01*
X48044180Y-59490498D01*
X48035000Y-59487713D01*
X48035000Y-59330835D01*
X48040007Y-59280000D01*
X48031930Y-59197993D01*
X48020024Y-59077105D01*
X47960841Y-58882007D01*
X47960841Y-58882006D01*
X47864734Y-58702203D01*
X47862238Y-58699162D01*
X47735396Y-58544604D01*
X47695903Y-58512193D01*
X47627600Y-58443890D01*
X47627600Y-57889038D01*
X47858665Y-57935000D01*
X48141335Y-57935000D01*
X48418574Y-57879853D01*
X48679727Y-57771680D01*
X48914759Y-57614637D01*
X48994396Y-57535000D01*
X50691290Y-57535000D01*
X52718218Y-59561928D01*
X52200000Y-59561928D01*
X52075518Y-59574188D01*
X51955820Y-59610498D01*
X51845506Y-59669463D01*
X51748815Y-59748815D01*
X51669463Y-59845506D01*
X51610498Y-59955820D01*
X51607713Y-59965000D01*
X51450827Y-59965000D01*
X51399999Y-59959994D01*
X51349171Y-59965000D01*
X51349162Y-59965000D01*
X51197105Y-59979976D01*
X51002007Y-60039159D01*
X50822203Y-60135266D01*
X50664604Y-60264604D01*
X50632197Y-60304092D01*
X42971290Y-67965000D01*
X41152795Y-67965000D01*
X41113560Y-67870279D01*
X40852550Y-67479651D01*
X40520349Y-67147450D01*
X40129721Y-66886440D01*
X39695679Y-66706654D01*
X39234902Y-66615000D01*
X38765098Y-66615000D01*
X38304321Y-66706654D01*
X37870279Y-66886440D01*
X37479651Y-67147450D01*
X37147450Y-67479651D01*
X36886440Y-67870279D01*
X36706654Y-68304321D01*
X36615000Y-68765098D01*
X36615000Y-69234902D01*
X36706654Y-69695679D01*
X36886440Y-70129721D01*
X37147450Y-70520349D01*
X37479651Y-70852550D01*
X37870279Y-71113560D01*
X38304321Y-71293346D01*
X38765098Y-71385000D01*
X39234902Y-71385000D01*
X39695679Y-71293346D01*
X40129721Y-71113560D01*
X40520349Y-70852550D01*
X40852550Y-70520349D01*
X41113560Y-70129721D01*
X41152795Y-70035000D01*
X42365001Y-70035000D01*
X42365000Y-71929172D01*
X42359994Y-71980000D01*
X42365000Y-72030828D01*
X42365000Y-72030837D01*
X42379976Y-72182894D01*
X42439159Y-72377992D01*
X42535266Y-72557797D01*
X42664604Y-72715396D01*
X42704097Y-72747807D01*
X45965001Y-76008712D01*
X45965001Y-76227024D01*
X45963038Y-76228987D01*
X45816939Y-76447641D01*
X45716304Y-76690595D01*
X45665000Y-76948514D01*
X45665000Y-77211486D01*
X45716304Y-77469405D01*
X45816939Y-77712359D01*
X45963038Y-77931013D01*
X46148987Y-78116962D01*
X46367641Y-78263061D01*
X46610595Y-78363696D01*
X46868514Y-78415000D01*
X47131486Y-78415000D01*
X47389405Y-78363696D01*
X47632359Y-78263061D01*
X47851013Y-78116962D01*
X48036962Y-77931013D01*
X48183061Y-77712359D01*
X48283696Y-77469405D01*
X48335000Y-77211486D01*
X48335000Y-76948514D01*
X48283696Y-76690595D01*
X48183061Y-76447641D01*
X48036962Y-76228987D01*
X48035000Y-76227025D01*
X48035000Y-75630835D01*
X48040007Y-75580000D01*
X48035000Y-75529162D01*
X48020024Y-75377105D01*
X47960841Y-75182007D01*
X47895614Y-75059976D01*
X47864734Y-75002202D01*
X47767803Y-74884092D01*
X47735396Y-74844604D01*
X47695908Y-74812197D01*
X44752225Y-71868514D01*
X45665000Y-71868514D01*
X45665000Y-72131486D01*
X45716304Y-72389405D01*
X45816939Y-72632359D01*
X45963038Y-72851013D01*
X46148987Y-73036962D01*
X46367641Y-73183061D01*
X46610595Y-73283696D01*
X46868514Y-73335000D01*
X47131486Y-73335000D01*
X47389405Y-73283696D01*
X47632359Y-73183061D01*
X47851013Y-73036962D01*
X48036962Y-72851013D01*
X48183061Y-72632359D01*
X48283696Y-72389405D01*
X48335000Y-72131486D01*
X48335000Y-71868514D01*
X48283696Y-71610595D01*
X48183061Y-71367641D01*
X48036962Y-71148987D01*
X47851013Y-70963038D01*
X47632359Y-70816939D01*
X47389405Y-70716304D01*
X47131486Y-70665000D01*
X46868514Y-70665000D01*
X46610595Y-70716304D01*
X46367641Y-70816939D01*
X46148987Y-70963038D01*
X45963038Y-71148987D01*
X45816939Y-71367641D01*
X45716304Y-71610595D01*
X45665000Y-71868514D01*
X44752225Y-71868514D01*
X44435000Y-71551290D01*
X44435000Y-69428710D01*
X45579887Y-68283823D01*
X45565000Y-68358665D01*
X45565000Y-68641335D01*
X45620147Y-68918574D01*
X45728320Y-69179727D01*
X45885363Y-69414759D01*
X46085241Y-69614637D01*
X46320273Y-69771680D01*
X46581426Y-69879853D01*
X46858665Y-69935000D01*
X47141335Y-69935000D01*
X47418574Y-69879853D01*
X47679727Y-69771680D01*
X47914759Y-69614637D01*
X48114637Y-69414759D01*
X48271680Y-69179727D01*
X48379853Y-68918574D01*
X48435000Y-68641335D01*
X48435000Y-68478665D01*
X51565000Y-68478665D01*
X51565000Y-68761335D01*
X51620147Y-69038574D01*
X51728320Y-69299727D01*
X51885363Y-69534759D01*
X51965001Y-69614397D01*
X51965001Y-70169152D01*
X51959993Y-70220000D01*
X51979976Y-70422895D01*
X52039159Y-70617993D01*
X52135266Y-70797797D01*
X52227708Y-70910438D01*
X52148987Y-70963038D01*
X51963038Y-71148987D01*
X51816939Y-71367641D01*
X51716304Y-71610595D01*
X51665000Y-71868514D01*
X51665000Y-72131486D01*
X51716304Y-72389405D01*
X51816939Y-72632359D01*
X51963038Y-72851013D01*
X52148987Y-73036962D01*
X52367641Y-73183061D01*
X52610595Y-73283696D01*
X52868514Y-73335000D01*
X53131486Y-73335000D01*
X53270800Y-73307288D01*
X53270800Y-73845489D01*
X52304092Y-74812198D01*
X52264605Y-74844604D01*
X52232198Y-74884092D01*
X52232197Y-74884093D01*
X52135266Y-75002203D01*
X52039160Y-75182007D01*
X51979977Y-75377105D01*
X51959994Y-75580000D01*
X51965001Y-75630837D01*
X51965001Y-76227024D01*
X51963038Y-76228987D01*
X51816939Y-76447641D01*
X51716304Y-76690595D01*
X51665000Y-76948514D01*
X51665000Y-77211486D01*
X51716304Y-77469405D01*
X51816939Y-77712359D01*
X51963038Y-77931013D01*
X52148987Y-78116962D01*
X52367641Y-78263061D01*
X52610595Y-78363696D01*
X52868514Y-78415000D01*
X53131486Y-78415000D01*
X53389405Y-78363696D01*
X53632359Y-78263061D01*
X53851013Y-78116962D01*
X54036962Y-77931013D01*
X54183061Y-77712359D01*
X54283696Y-77469405D01*
X54335000Y-77211486D01*
X54335000Y-76948514D01*
X54283696Y-76690595D01*
X54183061Y-76447641D01*
X54036962Y-76228987D01*
X54035000Y-76227025D01*
X54035000Y-76008710D01*
X55001708Y-75042003D01*
X55041196Y-75009596D01*
X55127254Y-74904734D01*
X55170534Y-74851998D01*
X55232858Y-74735396D01*
X55266641Y-74672193D01*
X55325824Y-74477095D01*
X55340800Y-74325038D01*
X55340800Y-74325029D01*
X55345806Y-74274201D01*
X55340800Y-74223373D01*
X55340800Y-71435227D01*
X55345806Y-71384399D01*
X55340800Y-71333571D01*
X55340800Y-71333562D01*
X55325824Y-71181505D01*
X55266641Y-70986407D01*
X55203626Y-70868514D01*
X55170534Y-70806602D01*
X55073603Y-70688492D01*
X55041196Y-70649004D01*
X55001708Y-70616597D01*
X54035000Y-69649890D01*
X54035000Y-69614396D01*
X54114637Y-69534759D01*
X54271680Y-69299727D01*
X54379853Y-69038574D01*
X54435000Y-68761335D01*
X54435000Y-68478665D01*
X54379853Y-68201426D01*
X54271680Y-67940273D01*
X54114637Y-67705241D01*
X53914759Y-67505363D01*
X53679727Y-67348320D01*
X53418574Y-67240147D01*
X53141335Y-67185000D01*
X52858665Y-67185000D01*
X52581426Y-67240147D01*
X52320273Y-67348320D01*
X52085241Y-67505363D01*
X51885363Y-67705241D01*
X51728320Y-67940273D01*
X51620147Y-68201426D01*
X51565000Y-68478665D01*
X48435000Y-68478665D01*
X48435000Y-68358665D01*
X48379853Y-68081426D01*
X48271680Y-67820273D01*
X48114637Y-67585241D01*
X47914759Y-67385363D01*
X47679727Y-67228320D01*
X47418574Y-67120147D01*
X47141335Y-67065000D01*
X46858665Y-67065000D01*
X46783823Y-67079887D01*
X51687382Y-62176329D01*
X51748815Y-62251185D01*
X51845506Y-62330537D01*
X51955820Y-62389502D01*
X52075518Y-62425812D01*
X52200000Y-62438072D01*
X53800000Y-62438072D01*
X53924482Y-62425812D01*
X54044180Y-62389502D01*
X54154494Y-62330537D01*
X54251185Y-62251185D01*
X54330537Y-62154494D01*
X54389502Y-62044180D01*
X54425812Y-61924482D01*
X54438072Y-61800000D01*
X54438072Y-61281783D01*
X57852197Y-64695908D01*
X57884604Y-64735396D01*
X57924092Y-64767803D01*
X58042202Y-64864734D01*
X58108226Y-64900024D01*
X58222007Y-64960841D01*
X58417105Y-65020024D01*
X58569162Y-65035000D01*
X58569165Y-65035000D01*
X58620000Y-65040007D01*
X58670835Y-65035000D01*
X68067025Y-65035000D01*
X68068987Y-65036962D01*
X68287641Y-65183061D01*
X68530595Y-65283696D01*
X68788514Y-65335000D01*
X69051486Y-65335000D01*
X69309405Y-65283696D01*
X69552359Y-65183061D01*
X69771013Y-65036962D01*
X69956962Y-64851013D01*
X70103061Y-64632359D01*
X70203696Y-64389405D01*
X70255000Y-64131486D01*
X70255000Y-63868514D01*
X70203696Y-63610595D01*
X70103061Y-63367641D01*
X69956962Y-63148987D01*
X69771013Y-62963038D01*
X69552359Y-62816939D01*
X69309405Y-62716304D01*
X69051486Y-62665000D01*
X68788514Y-62665000D01*
X68530595Y-62716304D01*
X68287641Y-62816939D01*
X68068987Y-62963038D01*
X68067025Y-62965000D01*
X59048711Y-62965000D01*
X51887807Y-55804097D01*
X51855396Y-55764604D01*
X51697797Y-55635266D01*
X51517993Y-55539159D01*
X51322895Y-55479976D01*
X51170838Y-55465000D01*
X51170828Y-55465000D01*
X51120000Y-55459994D01*
X51069172Y-55465000D01*
X48994396Y-55465000D01*
X48914759Y-55385363D01*
X48712173Y-55250000D01*
X48914759Y-55114637D01*
X49114637Y-54914759D01*
X49271680Y-54679727D01*
X49379853Y-54418574D01*
X49435000Y-54141335D01*
X49435000Y-53858665D01*
X49379853Y-53581426D01*
X49271680Y-53320273D01*
X49114637Y-53085241D01*
X48914759Y-52885363D01*
X48679727Y-52728320D01*
X48418574Y-52620147D01*
X48141335Y-52565000D01*
X47858665Y-52565000D01*
X47627600Y-52610962D01*
X47627600Y-52056110D01*
X47695903Y-51987807D01*
X47735396Y-51955396D01*
X47864734Y-51797797D01*
X47869754Y-51788405D01*
X47960841Y-51617994D01*
X48010923Y-51452895D01*
X48020024Y-51422895D01*
X48035000Y-51270838D01*
X48035000Y-51270835D01*
X48040007Y-51220000D01*
X48035000Y-51169165D01*
X48035000Y-50614396D01*
X48114637Y-50534759D01*
X48271680Y-50299727D01*
X48379853Y-50038574D01*
X48435000Y-49761335D01*
X48435000Y-49478665D01*
X48379853Y-49201426D01*
X48271680Y-48940273D01*
X48114637Y-48705241D01*
X48035000Y-48625604D01*
X48035000Y-48070835D01*
X48040007Y-48020000D01*
X48034917Y-47968320D01*
X48020024Y-47817105D01*
X47960841Y-47622007D01*
X47884925Y-47479977D01*
X47864734Y-47442202D01*
X47767803Y-47324092D01*
X47735396Y-47284604D01*
X47695908Y-47252197D01*
X41643711Y-41200000D01*
X45561928Y-41200000D01*
X45561928Y-42800000D01*
X45574188Y-42924482D01*
X45610498Y-43044180D01*
X45669463Y-43154494D01*
X45748815Y-43251185D01*
X45845506Y-43330537D01*
X45955820Y-43389502D01*
X46075518Y-43425812D01*
X46200000Y-43438072D01*
X47800000Y-43438072D01*
X47924482Y-43425812D01*
X48044180Y-43389502D01*
X48154494Y-43330537D01*
X48251185Y-43251185D01*
X48330537Y-43154494D01*
X48389502Y-43044180D01*
X48425812Y-42924482D01*
X48438072Y-42800000D01*
X48438072Y-41200000D01*
X48425812Y-41075518D01*
X48389502Y-40955820D01*
X48330537Y-40845506D01*
X48251185Y-40748815D01*
X48154494Y-40669463D01*
X48044180Y-40610498D01*
X47924482Y-40574188D01*
X47800000Y-40561928D01*
X46200000Y-40561928D01*
X46075518Y-40574188D01*
X45955820Y-40610498D01*
X45845506Y-40669463D01*
X45748815Y-40748815D01*
X45669463Y-40845506D01*
X45610498Y-40955820D01*
X45574188Y-41075518D01*
X45561928Y-41200000D01*
X41643711Y-41200000D01*
X40953710Y-40510000D01*
X43015196Y-38448514D01*
X45665000Y-38448514D01*
X45665000Y-38711486D01*
X45716304Y-38969405D01*
X45816939Y-39212359D01*
X45963038Y-39431013D01*
X46148987Y-39616962D01*
X46367641Y-39763061D01*
X46610595Y-39863696D01*
X46868514Y-39915000D01*
X47131486Y-39915000D01*
X47389405Y-39863696D01*
X47632359Y-39763061D01*
X47851013Y-39616962D01*
X48036962Y-39431013D01*
X48183061Y-39212359D01*
X48283696Y-38969405D01*
X48335000Y-38711486D01*
X48335000Y-38448514D01*
X48283696Y-38190595D01*
X48183061Y-37947641D01*
X48036962Y-37728987D01*
X47851013Y-37543038D01*
X47632359Y-37396939D01*
X47389405Y-37296304D01*
X47131486Y-37245000D01*
X46868514Y-37245000D01*
X46610595Y-37296304D01*
X46367641Y-37396939D01*
X46148987Y-37543038D01*
X45963038Y-37728987D01*
X45816939Y-37947641D01*
X45716304Y-38190595D01*
X45665000Y-38448514D01*
X43015196Y-38448514D01*
X46195908Y-35267803D01*
X46235396Y-35235396D01*
X46281082Y-35179727D01*
X46364734Y-35077798D01*
X46460841Y-34897994D01*
X46499158Y-34771680D01*
X46508359Y-34741348D01*
X46610595Y-34783696D01*
X46868514Y-34835000D01*
X47131486Y-34835000D01*
X47389405Y-34783696D01*
X47632359Y-34683061D01*
X47851013Y-34536962D01*
X48036962Y-34351013D01*
X48183061Y-34132359D01*
X48283696Y-33889405D01*
X48335000Y-33631486D01*
X48335000Y-33448514D01*
X51665000Y-33448514D01*
X51665000Y-33711486D01*
X51716304Y-33969405D01*
X51816939Y-34212359D01*
X51963038Y-34431013D01*
X52148987Y-34616962D01*
X52367641Y-34763061D01*
X52610595Y-34863696D01*
X52868514Y-34915000D01*
X53131486Y-34915000D01*
X53389405Y-34863696D01*
X53632359Y-34763061D01*
X53851013Y-34616962D01*
X54036962Y-34431013D01*
X54183061Y-34212359D01*
X54283696Y-33969405D01*
X54335000Y-33711486D01*
X54335000Y-33448514D01*
X54283696Y-33190595D01*
X54183061Y-32947641D01*
X54036962Y-32728987D01*
X53851013Y-32543038D01*
X53632359Y-32396939D01*
X53389405Y-32296304D01*
X53131486Y-32245000D01*
X52868514Y-32245000D01*
X52610595Y-32296304D01*
X52367641Y-32396939D01*
X52148987Y-32543038D01*
X51963038Y-32728987D01*
X51816939Y-32947641D01*
X51716304Y-33190595D01*
X51665000Y-33448514D01*
X48335000Y-33448514D01*
X48335000Y-33368514D01*
X48283696Y-33110595D01*
X48183061Y-32867641D01*
X48036962Y-32648987D01*
X47851013Y-32463038D01*
X47632359Y-32316939D01*
X47389405Y-32216304D01*
X47131486Y-32165000D01*
X46868514Y-32165000D01*
X46610595Y-32216304D01*
X46367641Y-32316939D01*
X46148987Y-32463038D01*
X46147025Y-32465000D01*
X45550838Y-32465000D01*
X45500000Y-32459993D01*
X45449162Y-32465000D01*
X45297105Y-32479976D01*
X45102007Y-32539159D01*
X44922203Y-32635266D01*
X44764604Y-32764604D01*
X44635266Y-32922203D01*
X44539159Y-33102007D01*
X44479976Y-33297105D01*
X44459993Y-33500000D01*
X44465000Y-33550839D01*
X44465001Y-34071288D01*
X39040401Y-39495889D01*
X38945679Y-39456654D01*
X38484902Y-39365000D01*
X38015098Y-39365000D01*
X37554321Y-39456654D01*
X37120279Y-39636440D01*
X36729651Y-39897450D01*
X36397450Y-40229651D01*
X36136440Y-40620279D01*
X35956654Y-41054321D01*
X35865000Y-41515098D01*
X35660000Y-41515098D01*
X35660000Y-31660000D01*
X74451695Y-31660000D01*
X74335202Y-31722266D01*
G37*
%TD.AperFunction*%
D18*
X72505363Y-52414759D02*
X72705241Y-52614637D01*
X72940273Y-52771680D01*
X73201426Y-52879853D01*
X73478665Y-52935000D01*
X73761335Y-52935000D01*
X74002701Y-52886989D01*
X74002700Y-56485000D01*
X68590838Y-56485000D01*
X68540000Y-56479993D01*
X68489162Y-56485000D01*
X68337105Y-56499976D01*
X68142007Y-56559159D01*
X67962203Y-56655266D01*
X67804604Y-56784604D01*
X67675266Y-56942203D01*
X67579159Y-57122007D01*
X67519976Y-57317105D01*
X67499993Y-57520000D01*
X67505001Y-57570848D01*
X67505001Y-58125603D01*
X67426643Y-58203961D01*
X67425812Y-58195518D01*
X67389502Y-58075820D01*
X67330537Y-57965506D01*
X67251185Y-57868815D01*
X67154494Y-57789463D01*
X67044180Y-57730498D01*
X66924482Y-57694188D01*
X66800000Y-57681928D01*
X66361782Y-57681928D01*
X71108711Y-52935000D01*
X71221335Y-52935000D01*
X71498574Y-52879853D01*
X71759727Y-52771680D01*
X71994759Y-52614637D01*
X72194637Y-52414759D01*
X72350000Y-52182241D01*
X72505363Y-52414759D01*
%TA.AperFunction,Conductor*%
D19*
G36*
X72505363Y-52414759D02*
G01*
X72705241Y-52614637D01*
X72940273Y-52771680D01*
X73201426Y-52879853D01*
X73478665Y-52935000D01*
X73761335Y-52935000D01*
X74002701Y-52886989D01*
X74002700Y-56485000D01*
X68590838Y-56485000D01*
X68540000Y-56479993D01*
X68489162Y-56485000D01*
X68337105Y-56499976D01*
X68142007Y-56559159D01*
X67962203Y-56655266D01*
X67804604Y-56784604D01*
X67675266Y-56942203D01*
X67579159Y-57122007D01*
X67519976Y-57317105D01*
X67499993Y-57520000D01*
X67505001Y-57570848D01*
X67505001Y-58125603D01*
X67426643Y-58203961D01*
X67425812Y-58195518D01*
X67389502Y-58075820D01*
X67330537Y-57965506D01*
X67251185Y-57868815D01*
X67154494Y-57789463D01*
X67044180Y-57730498D01*
X66924482Y-57694188D01*
X66800000Y-57681928D01*
X66361782Y-57681928D01*
X71108711Y-52935000D01*
X71221335Y-52935000D01*
X71498574Y-52879853D01*
X71759727Y-52771680D01*
X71994759Y-52614637D01*
X72194637Y-52414759D01*
X72350000Y-52182241D01*
X72505363Y-52414759D01*
G37*
%TD.AperFunction*%
D18*
X114098217Y-53561928D02*
X113700000Y-53561928D01*
X113575518Y-53574188D01*
X113546655Y-53582944D01*
X102606008Y-42642298D01*
X102668574Y-42629853D01*
X102929727Y-42521680D01*
X103006603Y-42470313D01*
X114098217Y-53561928D01*
%TA.AperFunction,Conductor*%
D19*
G36*
X114098217Y-53561928D02*
G01*
X113700000Y-53561928D01*
X113575518Y-53574188D01*
X113546655Y-53582944D01*
X102606008Y-42642298D01*
X102668574Y-42629853D01*
X102929727Y-42521680D01*
X103006603Y-42470313D01*
X114098217Y-53561928D01*
G37*
%TD.AperFunction*%
D18*
X72716304Y-46610595D02*
X72665000Y-46868514D01*
X72665000Y-47131486D01*
X72716304Y-47389405D01*
X72816939Y-47632359D01*
X72963038Y-47851013D01*
X72965001Y-47852976D01*
X72965001Y-48449163D01*
X72959994Y-48500000D01*
X72979977Y-48702895D01*
X73039160Y-48897993D01*
X73135266Y-49077797D01*
X73232197Y-49195907D01*
X73264605Y-49235396D01*
X73304092Y-49267802D01*
X74002701Y-49966412D01*
X74002701Y-50113011D01*
X73761335Y-50065000D01*
X73478665Y-50065000D01*
X73201426Y-50120147D01*
X72940273Y-50228320D01*
X72705241Y-50385363D01*
X72505363Y-50585241D01*
X72350000Y-50817759D01*
X72194637Y-50585241D01*
X71994759Y-50385363D01*
X71759727Y-50228320D01*
X71498574Y-50120147D01*
X71221335Y-50065000D01*
X70938665Y-50065000D01*
X70661426Y-50120147D01*
X70400273Y-50228320D01*
X70165241Y-50385363D01*
X69965363Y-50585241D01*
X69810000Y-50817759D01*
X69654637Y-50585241D01*
X69454759Y-50385363D01*
X69219727Y-50228320D01*
X69061521Y-50162789D01*
X72788845Y-46435466D01*
X72716304Y-46610595D01*
%TA.AperFunction,Conductor*%
D19*
G36*
X72716304Y-46610595D02*
G01*
X72665000Y-46868514D01*
X72665000Y-47131486D01*
X72716304Y-47389405D01*
X72816939Y-47632359D01*
X72963038Y-47851013D01*
X72965001Y-47852976D01*
X72965001Y-48449163D01*
X72959994Y-48500000D01*
X72979977Y-48702895D01*
X73039160Y-48897993D01*
X73135266Y-49077797D01*
X73232197Y-49195907D01*
X73264605Y-49235396D01*
X73304092Y-49267802D01*
X74002701Y-49966412D01*
X74002701Y-50113011D01*
X73761335Y-50065000D01*
X73478665Y-50065000D01*
X73201426Y-50120147D01*
X72940273Y-50228320D01*
X72705241Y-50385363D01*
X72505363Y-50585241D01*
X72350000Y-50817759D01*
X72194637Y-50585241D01*
X71994759Y-50385363D01*
X71759727Y-50228320D01*
X71498574Y-50120147D01*
X71221335Y-50065000D01*
X70938665Y-50065000D01*
X70661426Y-50120147D01*
X70400273Y-50228320D01*
X70165241Y-50385363D01*
X69965363Y-50585241D01*
X69810000Y-50817759D01*
X69654637Y-50585241D01*
X69454759Y-50385363D01*
X69219727Y-50228320D01*
X69061521Y-50162789D01*
X72788845Y-46435466D01*
X72716304Y-46610595D01*
G37*
%TD.AperFunction*%
%TD*%
M02*
