%TF.GenerationSoftware,KiCad,Pcbnew,7.0.1-3b83917a11~172~ubuntu22.04.1*%
%TF.CreationDate,2023-03-30T15:08:55+02:00*%
%TF.ProjectId,tht-dip,7468742d-6469-4702-9e6b-696361645f70,rev?*%
%TF.SameCoordinates,Original*%
%TF.FileFunction,Drillmap*%
%TF.FilePolarity,Positive*%
%FSLAX45Y45*%
G04 Gerber Fmt 4.5, Leading zero omitted, Abs format (unit mm)*
G04 Created by KiCad (PCBNEW 7.0.1-3b83917a11~172~ubuntu22.04.1) date 2023-03-30 15:08:55*
%MOMM*%
%LPD*%
G01*
G04 APERTURE LIST*
%ADD10C,0.050000*%
%ADD11C,0.200000*%
G04 APERTURE END LIST*
D10*
X3500000Y-8000000D02*
X3500000Y-3100000D01*
X3500000Y-3100000D02*
X13500000Y-3100000D01*
X13500000Y-8000000D02*
X3500000Y-8000000D01*
X13500000Y-3100000D02*
X13500000Y-8000000D01*
D11*
X3745119Y-8315024D02*
X3745119Y-8115024D01*
X3745119Y-8115024D02*
X3792738Y-8115024D01*
X3792738Y-8115024D02*
X3821309Y-8124548D01*
X3821309Y-8124548D02*
X3840357Y-8143595D01*
X3840357Y-8143595D02*
X3849881Y-8162643D01*
X3849881Y-8162643D02*
X3859405Y-8200738D01*
X3859405Y-8200738D02*
X3859405Y-8229309D01*
X3859405Y-8229309D02*
X3849881Y-8267405D01*
X3849881Y-8267405D02*
X3840357Y-8286452D01*
X3840357Y-8286452D02*
X3821309Y-8305500D01*
X3821309Y-8305500D02*
X3792738Y-8315024D01*
X3792738Y-8315024D02*
X3745119Y-8315024D01*
X3945119Y-8315024D02*
X3945119Y-8181690D01*
X3945119Y-8219786D02*
X3954643Y-8200738D01*
X3954643Y-8200738D02*
X3964167Y-8191214D01*
X3964167Y-8191214D02*
X3983214Y-8181690D01*
X3983214Y-8181690D02*
X4002262Y-8181690D01*
X4068928Y-8315024D02*
X4068928Y-8181690D01*
X4068928Y-8115024D02*
X4059405Y-8124548D01*
X4059405Y-8124548D02*
X4068928Y-8134071D01*
X4068928Y-8134071D02*
X4078452Y-8124548D01*
X4078452Y-8124548D02*
X4068928Y-8115024D01*
X4068928Y-8115024D02*
X4068928Y-8134071D01*
X4192738Y-8315024D02*
X4173690Y-8305500D01*
X4173690Y-8305500D02*
X4164167Y-8286452D01*
X4164167Y-8286452D02*
X4164167Y-8115024D01*
X4297500Y-8315024D02*
X4278452Y-8305500D01*
X4278452Y-8305500D02*
X4268929Y-8286452D01*
X4268929Y-8286452D02*
X4268929Y-8115024D01*
X4526071Y-8315024D02*
X4526071Y-8115024D01*
X4526071Y-8115024D02*
X4592738Y-8257881D01*
X4592738Y-8257881D02*
X4659405Y-8115024D01*
X4659405Y-8115024D02*
X4659405Y-8315024D01*
X4840357Y-8315024D02*
X4840357Y-8210262D01*
X4840357Y-8210262D02*
X4830833Y-8191214D01*
X4830833Y-8191214D02*
X4811786Y-8181690D01*
X4811786Y-8181690D02*
X4773690Y-8181690D01*
X4773690Y-8181690D02*
X4754643Y-8191214D01*
X4840357Y-8305500D02*
X4821310Y-8315024D01*
X4821310Y-8315024D02*
X4773690Y-8315024D01*
X4773690Y-8315024D02*
X4754643Y-8305500D01*
X4754643Y-8305500D02*
X4745119Y-8286452D01*
X4745119Y-8286452D02*
X4745119Y-8267405D01*
X4745119Y-8267405D02*
X4754643Y-8248357D01*
X4754643Y-8248357D02*
X4773690Y-8238833D01*
X4773690Y-8238833D02*
X4821310Y-8238833D01*
X4821310Y-8238833D02*
X4840357Y-8229309D01*
X4935595Y-8181690D02*
X4935595Y-8381690D01*
X4935595Y-8191214D02*
X4954643Y-8181690D01*
X4954643Y-8181690D02*
X4992738Y-8181690D01*
X4992738Y-8181690D02*
X5011786Y-8191214D01*
X5011786Y-8191214D02*
X5021310Y-8200738D01*
X5021310Y-8200738D02*
X5030833Y-8219786D01*
X5030833Y-8219786D02*
X5030833Y-8276928D01*
X5030833Y-8276928D02*
X5021310Y-8295976D01*
X5021310Y-8295976D02*
X5011786Y-8305500D01*
X5011786Y-8305500D02*
X4992738Y-8315024D01*
X4992738Y-8315024D02*
X4954643Y-8315024D01*
X4954643Y-8315024D02*
X4935595Y-8305500D01*
X5116548Y-8295976D02*
X5126071Y-8305500D01*
X5126071Y-8305500D02*
X5116548Y-8315024D01*
X5116548Y-8315024D02*
X5107024Y-8305500D01*
X5107024Y-8305500D02*
X5116548Y-8295976D01*
X5116548Y-8295976D02*
X5116548Y-8315024D01*
X5116548Y-8191214D02*
X5126071Y-8200738D01*
X5126071Y-8200738D02*
X5116548Y-8210262D01*
X5116548Y-8210262D02*
X5107024Y-8200738D01*
X5107024Y-8200738D02*
X5116548Y-8191214D01*
X5116548Y-8191214D02*
X5116548Y-8210262D01*
M02*
