%TF.GenerationSoftware,KiCad,Pcbnew,5.1.10*%
%TF.CreationDate,2021-07-04T23:49:32+02:00*%
%TF.ProjectId,tht-dip,7468742d-6469-4702-9e6b-696361645f70,rev?*%
%TF.SameCoordinates,Original*%
%TF.FileFunction,Legend,Top*%
%TF.FilePolarity,Positive*%
%FSLAX46Y46*%
G04 Gerber Fmt 4.6, Leading zero omitted, Abs format (unit mm)*
G04 Created by KiCad (PCBNEW 5.1.10) date 2021-07-04 23:49:32*
%MOMM*%
%LPD*%
G01*
G04 APERTURE LIST*
%ADD10C,0.150000*%
%ADD11C,0.120000*%
%ADD12C,0.010000*%
G04 APERTURE END LIST*
D10*
X132678571Y-67535714D02*
X133678571Y-67535714D01*
X132107142Y-67892857D02*
X133178571Y-68250000D01*
X133178571Y-67321428D01*
X132821428Y-66535714D02*
X132750000Y-66678571D01*
X132678571Y-66750000D01*
X132535714Y-66821428D01*
X132464285Y-66821428D01*
X132321428Y-66750000D01*
X132250000Y-66678571D01*
X132178571Y-66535714D01*
X132178571Y-66250000D01*
X132250000Y-66107142D01*
X132321428Y-66035714D01*
X132464285Y-65964285D01*
X132535714Y-65964285D01*
X132678571Y-66035714D01*
X132750000Y-66107142D01*
X132821428Y-66250000D01*
X132821428Y-66535714D01*
X132892857Y-66678571D01*
X132964285Y-66750000D01*
X133107142Y-66821428D01*
X133392857Y-66821428D01*
X133535714Y-66750000D01*
X133607142Y-66678571D01*
X133678571Y-66535714D01*
X133678571Y-66250000D01*
X133607142Y-66107142D01*
X133535714Y-66035714D01*
X133392857Y-65964285D01*
X133107142Y-65964285D01*
X132964285Y-66035714D01*
X132892857Y-66107142D01*
X132821428Y-66250000D01*
X132678571Y-64321428D02*
X133678571Y-63964285D01*
X132678571Y-63607142D01*
X133678571Y-62821428D02*
X133607142Y-62964285D01*
X133535714Y-63035714D01*
X133392857Y-63107142D01*
X132964285Y-63107142D01*
X132821428Y-63035714D01*
X132750000Y-62964285D01*
X132678571Y-62821428D01*
X132678571Y-62607142D01*
X132750000Y-62464285D01*
X132821428Y-62392857D01*
X132964285Y-62321428D01*
X133392857Y-62321428D01*
X133535714Y-62392857D01*
X133607142Y-62464285D01*
X133678571Y-62607142D01*
X133678571Y-62821428D01*
X133678571Y-61464285D02*
X133607142Y-61607142D01*
X133464285Y-61678571D01*
X132178571Y-61678571D01*
X132678571Y-61107142D02*
X132678571Y-60535714D01*
X132178571Y-60892857D02*
X133464285Y-60892857D01*
X133607142Y-60821428D01*
X133678571Y-60678571D01*
X133678571Y-60535714D01*
X132678571Y-58892857D02*
X134178571Y-58892857D01*
X132750000Y-58892857D02*
X132678571Y-58750000D01*
X132678571Y-58464285D01*
X132750000Y-58321428D01*
X132821428Y-58250000D01*
X132964285Y-58178571D01*
X133392857Y-58178571D01*
X133535714Y-58250000D01*
X133607142Y-58321428D01*
X133678571Y-58464285D01*
X133678571Y-58750000D01*
X133607142Y-58892857D01*
X133678571Y-57535714D02*
X132178571Y-57535714D01*
X133678571Y-56892857D02*
X132892857Y-56892857D01*
X132750000Y-56964285D01*
X132678571Y-57107142D01*
X132678571Y-57321428D01*
X132750000Y-57464285D01*
X132821428Y-57535714D01*
X133678571Y-55535714D02*
X132892857Y-55535714D01*
X132750000Y-55607142D01*
X132678571Y-55750000D01*
X132678571Y-56035714D01*
X132750000Y-56178571D01*
X133607142Y-55535714D02*
X133678571Y-55678571D01*
X133678571Y-56035714D01*
X133607142Y-56178571D01*
X133464285Y-56250000D01*
X133321428Y-56250000D01*
X133178571Y-56178571D01*
X133107142Y-56035714D01*
X133107142Y-55678571D01*
X133035714Y-55535714D01*
X132678571Y-54821428D02*
X133678571Y-54821428D01*
X132821428Y-54821428D02*
X132750000Y-54750000D01*
X132678571Y-54607142D01*
X132678571Y-54392857D01*
X132750000Y-54250000D01*
X132892857Y-54178571D01*
X133678571Y-54178571D01*
X132678571Y-53678571D02*
X132678571Y-53107142D01*
X132178571Y-53464285D02*
X133464285Y-53464285D01*
X133607142Y-53392857D01*
X133678571Y-53250000D01*
X133678571Y-53107142D01*
X133678571Y-52392857D02*
X133607142Y-52535714D01*
X133535714Y-52607142D01*
X133392857Y-52678571D01*
X132964285Y-52678571D01*
X132821428Y-52607142D01*
X132750000Y-52535714D01*
X132678571Y-52392857D01*
X132678571Y-52178571D01*
X132750000Y-52035714D01*
X132821428Y-51964285D01*
X132964285Y-51892857D01*
X133392857Y-51892857D01*
X133535714Y-51964285D01*
X133607142Y-52035714D01*
X133678571Y-52178571D01*
X133678571Y-52392857D01*
X133678571Y-51250000D02*
X132678571Y-51250000D01*
X132821428Y-51250000D02*
X132750000Y-51178571D01*
X132678571Y-51035714D01*
X132678571Y-50821428D01*
X132750000Y-50678571D01*
X132892857Y-50607142D01*
X133678571Y-50607142D01*
X132892857Y-50607142D02*
X132750000Y-50535714D01*
X132678571Y-50392857D01*
X132678571Y-50178571D01*
X132750000Y-50035714D01*
X132892857Y-49964285D01*
X133678571Y-49964285D01*
X132678571Y-48107142D02*
X134178571Y-48107142D01*
X132750000Y-48107142D02*
X132678571Y-47964285D01*
X132678571Y-47678571D01*
X132750000Y-47535714D01*
X132821428Y-47464285D01*
X132964285Y-47392857D01*
X133392857Y-47392857D01*
X133535714Y-47464285D01*
X133607142Y-47535714D01*
X133678571Y-47678571D01*
X133678571Y-47964285D01*
X133607142Y-48107142D01*
X133678571Y-46535714D02*
X133607142Y-46678571D01*
X133535714Y-46750000D01*
X133392857Y-46821428D01*
X132964285Y-46821428D01*
X132821428Y-46750000D01*
X132750000Y-46678571D01*
X132678571Y-46535714D01*
X132678571Y-46321428D01*
X132750000Y-46178571D01*
X132821428Y-46107142D01*
X132964285Y-46035714D01*
X133392857Y-46035714D01*
X133535714Y-46107142D01*
X133607142Y-46178571D01*
X133678571Y-46321428D01*
X133678571Y-46535714D01*
X132678571Y-45535714D02*
X133678571Y-45250000D01*
X132964285Y-44964285D01*
X133678571Y-44678571D01*
X132678571Y-44392857D01*
X133607142Y-43250000D02*
X133678571Y-43392857D01*
X133678571Y-43678571D01*
X133607142Y-43821428D01*
X133464285Y-43892857D01*
X132892857Y-43892857D01*
X132750000Y-43821428D01*
X132678571Y-43678571D01*
X132678571Y-43392857D01*
X132750000Y-43250000D01*
X132892857Y-43178571D01*
X133035714Y-43178571D01*
X133178571Y-43892857D01*
X133678571Y-42535714D02*
X132678571Y-42535714D01*
X132964285Y-42535714D02*
X132821428Y-42464285D01*
X132750000Y-42392857D01*
X132678571Y-42250000D01*
X132678571Y-42107142D01*
X126428571Y-45095238D02*
X126523809Y-45000000D01*
X126714285Y-44904761D01*
X127190476Y-44904761D01*
X127380952Y-45000000D01*
X127476190Y-45095238D01*
X127571428Y-45285714D01*
X127571428Y-45476190D01*
X127476190Y-45761904D01*
X126333333Y-46904761D01*
X127571428Y-46904761D01*
X126583333Y-53904761D02*
X127821428Y-53904761D01*
X127154761Y-54666666D01*
X127440476Y-54666666D01*
X127630952Y-54761904D01*
X127726190Y-54857142D01*
X127821428Y-55047619D01*
X127821428Y-55523809D01*
X127726190Y-55714285D01*
X127630952Y-55809523D01*
X127440476Y-55904761D01*
X126869047Y-55904761D01*
X126678571Y-55809523D01*
X126583333Y-55714285D01*
X127571428Y-64654761D02*
X126428571Y-64654761D01*
X127000000Y-64654761D02*
X127000000Y-62654761D01*
X126809523Y-62940476D01*
X126619047Y-63130952D01*
X126428571Y-63226190D01*
X59678571Y-69678571D02*
X58821428Y-69678571D01*
X59250000Y-69678571D02*
X59250000Y-68178571D01*
X59107142Y-68392857D01*
X58964285Y-68535714D01*
X58821428Y-68607142D01*
X60178571Y-34678571D02*
X59321428Y-34678571D01*
X59750000Y-34678571D02*
X59750000Y-33178571D01*
X59607142Y-33392857D01*
X59464285Y-33535714D01*
X59321428Y-33607142D01*
X77178571Y-34678571D02*
X76321428Y-34678571D01*
X76750000Y-34678571D02*
X76750000Y-33178571D01*
X76607142Y-33392857D01*
X76464285Y-33535714D01*
X76321428Y-33607142D01*
X77428571Y-59428571D02*
X76571428Y-59428571D01*
X77000000Y-59428571D02*
X77000000Y-57928571D01*
X76857142Y-58142857D01*
X76714285Y-58285714D01*
X76571428Y-58357142D01*
D11*
X38750000Y-60500000D02*
X38750000Y-58500000D01*
X40750000Y-60500000D02*
X37000000Y-60500000D01*
X37000000Y-61250000D02*
X40750000Y-61250000D01*
X37000000Y-62500000D02*
X37000000Y-61250000D01*
X40750000Y-62500000D02*
X37000000Y-62500000D01*
X38750000Y-65750000D02*
X38750000Y-63250000D01*
X40750000Y-63250000D02*
X37000000Y-63250000D01*
X40750000Y-61250000D02*
X40750000Y-62500000D01*
X38500000Y-64250000D02*
X37000000Y-64250000D01*
X37750000Y-65000000D02*
X37750000Y-63500000D01*
X37250000Y-45750000D02*
X37250000Y-47250000D01*
X36500000Y-46500000D02*
X38000000Y-46500000D01*
X38500000Y-50250000D02*
X38500000Y-52250000D01*
X36500000Y-50250000D02*
X40250000Y-50250000D01*
X36500000Y-49500000D02*
X36500000Y-48250000D01*
X40250000Y-49500000D02*
X36500000Y-49500000D01*
X40250000Y-48250000D02*
X40250000Y-49500000D01*
X36500000Y-48250000D02*
X40250000Y-48250000D01*
X36500000Y-47500000D02*
X40250000Y-47500000D01*
X38500000Y-47500000D02*
X36500000Y-47500000D01*
X38500000Y-45000000D02*
X38500000Y-47500000D01*
D10*
X97642857Y-47979761D02*
X97785714Y-48027380D01*
X98023809Y-48027380D01*
X98119047Y-47979761D01*
X98166666Y-47932142D01*
X98214285Y-47836904D01*
X98214285Y-47741666D01*
X98166666Y-47646428D01*
X98119047Y-47598809D01*
X98023809Y-47551190D01*
X97833333Y-47503571D01*
X97738095Y-47455952D01*
X97690476Y-47408333D01*
X97642857Y-47313095D01*
X97642857Y-47217857D01*
X97690476Y-47122619D01*
X97738095Y-47075000D01*
X97833333Y-47027380D01*
X98071428Y-47027380D01*
X98214285Y-47075000D01*
X98547619Y-47027380D02*
X98785714Y-48027380D01*
X98976190Y-47313095D01*
X99166666Y-48027380D01*
X99404761Y-47027380D01*
X100309523Y-48027380D02*
X99738095Y-48027380D01*
X100023809Y-48027380D02*
X100023809Y-47027380D01*
X99928571Y-47170238D01*
X99833333Y-47265476D01*
X99738095Y-47313095D01*
X101928571Y-48027380D02*
X101928571Y-47503571D01*
X101880952Y-47408333D01*
X101785714Y-47360714D01*
X101595238Y-47360714D01*
X101500000Y-47408333D01*
X101928571Y-47979761D02*
X101833333Y-48027380D01*
X101595238Y-48027380D01*
X101500000Y-47979761D01*
X101452380Y-47884523D01*
X101452380Y-47789285D01*
X101500000Y-47694047D01*
X101595238Y-47646428D01*
X101833333Y-47646428D01*
X101928571Y-47598809D01*
X102404761Y-47360714D02*
X102404761Y-48027380D01*
X102404761Y-47455952D02*
X102452380Y-47408333D01*
X102547619Y-47360714D01*
X102690476Y-47360714D01*
X102785714Y-47408333D01*
X102833333Y-47503571D01*
X102833333Y-48027380D01*
X103738095Y-48027380D02*
X103738095Y-47027380D01*
X103738095Y-47979761D02*
X103642857Y-48027380D01*
X103452380Y-48027380D01*
X103357142Y-47979761D01*
X103309523Y-47932142D01*
X103261904Y-47836904D01*
X103261904Y-47551190D01*
X103309523Y-47455952D01*
X103357142Y-47408333D01*
X103452380Y-47360714D01*
X103642857Y-47360714D01*
X103738095Y-47408333D01*
X104928571Y-47979761D02*
X105071428Y-48027380D01*
X105309523Y-48027380D01*
X105404761Y-47979761D01*
X105452380Y-47932142D01*
X105500000Y-47836904D01*
X105500000Y-47741666D01*
X105452380Y-47646428D01*
X105404761Y-47598809D01*
X105309523Y-47551190D01*
X105119047Y-47503571D01*
X105023809Y-47455952D01*
X104976190Y-47408333D01*
X104928571Y-47313095D01*
X104928571Y-47217857D01*
X104976190Y-47122619D01*
X105023809Y-47075000D01*
X105119047Y-47027380D01*
X105357142Y-47027380D01*
X105500000Y-47075000D01*
X105833333Y-47027380D02*
X106071428Y-48027380D01*
X106261904Y-47313095D01*
X106452380Y-48027380D01*
X106690476Y-47027380D01*
X107023809Y-47122619D02*
X107071428Y-47075000D01*
X107166666Y-47027380D01*
X107404761Y-47027380D01*
X107500000Y-47075000D01*
X107547619Y-47122619D01*
X107595238Y-47217857D01*
X107595238Y-47313095D01*
X107547619Y-47455952D01*
X106976190Y-48027380D01*
X107595238Y-48027380D01*
X108738095Y-47979761D02*
X108833333Y-48027380D01*
X109023809Y-48027380D01*
X109119047Y-47979761D01*
X109166666Y-47884523D01*
X109166666Y-47836904D01*
X109119047Y-47741666D01*
X109023809Y-47694047D01*
X108880952Y-47694047D01*
X108785714Y-47646428D01*
X108738095Y-47551190D01*
X108738095Y-47503571D01*
X108785714Y-47408333D01*
X108880952Y-47360714D01*
X109023809Y-47360714D01*
X109119047Y-47408333D01*
X109500000Y-47360714D02*
X109690476Y-48027380D01*
X109880952Y-47551190D01*
X110071428Y-48027380D01*
X110261904Y-47360714D01*
X110642857Y-48027380D02*
X110642857Y-47360714D01*
X110642857Y-47027380D02*
X110595238Y-47075000D01*
X110642857Y-47122619D01*
X110690476Y-47075000D01*
X110642857Y-47027380D01*
X110642857Y-47122619D01*
X110976190Y-47360714D02*
X111357142Y-47360714D01*
X111119047Y-47027380D02*
X111119047Y-47884523D01*
X111166666Y-47979761D01*
X111261904Y-48027380D01*
X111357142Y-48027380D01*
X112119047Y-47979761D02*
X112023809Y-48027380D01*
X111833333Y-48027380D01*
X111738095Y-47979761D01*
X111690476Y-47932142D01*
X111642857Y-47836904D01*
X111642857Y-47551190D01*
X111690476Y-47455952D01*
X111738095Y-47408333D01*
X111833333Y-47360714D01*
X112023809Y-47360714D01*
X112119047Y-47408333D01*
X112547619Y-48027380D02*
X112547619Y-47027380D01*
X112976190Y-48027380D02*
X112976190Y-47503571D01*
X112928571Y-47408333D01*
X112833333Y-47360714D01*
X112690476Y-47360714D01*
X112595238Y-47408333D01*
X112547619Y-47455952D01*
X114166666Y-47979761D02*
X114261904Y-48027380D01*
X114452380Y-48027380D01*
X114547619Y-47979761D01*
X114595238Y-47884523D01*
X114595238Y-47836904D01*
X114547619Y-47741666D01*
X114452380Y-47694047D01*
X114309523Y-47694047D01*
X114214285Y-47646428D01*
X114166666Y-47551190D01*
X114166666Y-47503571D01*
X114214285Y-47408333D01*
X114309523Y-47360714D01*
X114452380Y-47360714D01*
X114547619Y-47408333D01*
X115404761Y-47979761D02*
X115309523Y-48027380D01*
X115119047Y-48027380D01*
X115023809Y-47979761D01*
X114976190Y-47884523D01*
X114976190Y-47503571D01*
X115023809Y-47408333D01*
X115119047Y-47360714D01*
X115309523Y-47360714D01*
X115404761Y-47408333D01*
X115452380Y-47503571D01*
X115452380Y-47598809D01*
X114976190Y-47694047D01*
X115738095Y-47360714D02*
X116119047Y-47360714D01*
X115880952Y-47027380D02*
X115880952Y-47884523D01*
X115928571Y-47979761D01*
X116023809Y-48027380D01*
X116119047Y-48027380D01*
X116309523Y-47360714D02*
X116690476Y-47360714D01*
X116452380Y-47027380D02*
X116452380Y-47884523D01*
X116500000Y-47979761D01*
X116595238Y-48027380D01*
X116690476Y-48027380D01*
X117023809Y-48027380D02*
X117023809Y-47360714D01*
X117023809Y-47027380D02*
X116976190Y-47075000D01*
X117023809Y-47122619D01*
X117071428Y-47075000D01*
X117023809Y-47027380D01*
X117023809Y-47122619D01*
X117500000Y-47360714D02*
X117500000Y-48027380D01*
X117500000Y-47455952D02*
X117547619Y-47408333D01*
X117642857Y-47360714D01*
X117785714Y-47360714D01*
X117880952Y-47408333D01*
X117928571Y-47503571D01*
X117928571Y-48027380D01*
X118833333Y-47360714D02*
X118833333Y-48170238D01*
X118785714Y-48265476D01*
X118738095Y-48313095D01*
X118642857Y-48360714D01*
X118500000Y-48360714D01*
X118404761Y-48313095D01*
X118833333Y-47979761D02*
X118738095Y-48027380D01*
X118547619Y-48027380D01*
X118452380Y-47979761D01*
X118404761Y-47932142D01*
X118357142Y-47836904D01*
X118357142Y-47551190D01*
X118404761Y-47455952D01*
X118452380Y-47408333D01*
X118547619Y-47360714D01*
X118738095Y-47360714D01*
X118833333Y-47408333D01*
X119357142Y-47979761D02*
X119357142Y-48027380D01*
X119309523Y-48122619D01*
X119261904Y-48170238D01*
X102595238Y-48725000D02*
X102500000Y-48677380D01*
X102357142Y-48677380D01*
X102214285Y-48725000D01*
X102119047Y-48820238D01*
X102071428Y-48915476D01*
X102023809Y-49105952D01*
X102023809Y-49248809D01*
X102071428Y-49439285D01*
X102119047Y-49534523D01*
X102214285Y-49629761D01*
X102357142Y-49677380D01*
X102452380Y-49677380D01*
X102595238Y-49629761D01*
X102642857Y-49582142D01*
X102642857Y-49248809D01*
X102452380Y-49248809D01*
X103500000Y-49677380D02*
X103500000Y-49153571D01*
X103452380Y-49058333D01*
X103357142Y-49010714D01*
X103166666Y-49010714D01*
X103071428Y-49058333D01*
X103500000Y-49629761D02*
X103404761Y-49677380D01*
X103166666Y-49677380D01*
X103071428Y-49629761D01*
X103023809Y-49534523D01*
X103023809Y-49439285D01*
X103071428Y-49344047D01*
X103166666Y-49296428D01*
X103404761Y-49296428D01*
X103500000Y-49248809D01*
X103976190Y-49677380D02*
X103976190Y-49010714D01*
X103976190Y-48677380D02*
X103928571Y-48725000D01*
X103976190Y-48772619D01*
X104023809Y-48725000D01*
X103976190Y-48677380D01*
X103976190Y-48772619D01*
X104452380Y-49010714D02*
X104452380Y-49677380D01*
X104452380Y-49105952D02*
X104500000Y-49058333D01*
X104595238Y-49010714D01*
X104738095Y-49010714D01*
X104833333Y-49058333D01*
X104880952Y-49153571D01*
X104880952Y-49677380D01*
X106023809Y-49010714D02*
X106261904Y-49677380D01*
X106500000Y-49010714D01*
X107309523Y-49677380D02*
X107309523Y-49153571D01*
X107261904Y-49058333D01*
X107166666Y-49010714D01*
X106976190Y-49010714D01*
X106880952Y-49058333D01*
X107309523Y-49629761D02*
X107214285Y-49677380D01*
X106976190Y-49677380D01*
X106880952Y-49629761D01*
X106833333Y-49534523D01*
X106833333Y-49439285D01*
X106880952Y-49344047D01*
X106976190Y-49296428D01*
X107214285Y-49296428D01*
X107309523Y-49248809D01*
X107928571Y-49677380D02*
X107833333Y-49629761D01*
X107785714Y-49534523D01*
X107785714Y-48677380D01*
X108738095Y-49010714D02*
X108738095Y-49677380D01*
X108309523Y-49010714D02*
X108309523Y-49534523D01*
X108357142Y-49629761D01*
X108452380Y-49677380D01*
X108595238Y-49677380D01*
X108690476Y-49629761D01*
X108738095Y-49582142D01*
X109595238Y-49629761D02*
X109500000Y-49677380D01*
X109309523Y-49677380D01*
X109214285Y-49629761D01*
X109166666Y-49534523D01*
X109166666Y-49153571D01*
X109214285Y-49058333D01*
X109309523Y-49010714D01*
X109500000Y-49010714D01*
X109595238Y-49058333D01*
X109642857Y-49153571D01*
X109642857Y-49248809D01*
X109166666Y-49344047D01*
X110023809Y-49629761D02*
X110119047Y-49677380D01*
X110309523Y-49677380D01*
X110404761Y-49629761D01*
X110452380Y-49534523D01*
X110452380Y-49486904D01*
X110404761Y-49391666D01*
X110309523Y-49344047D01*
X110166666Y-49344047D01*
X110071428Y-49296428D01*
X110023809Y-49201190D01*
X110023809Y-49153571D01*
X110071428Y-49058333D01*
X110166666Y-49010714D01*
X110309523Y-49010714D01*
X110404761Y-49058333D01*
X111642857Y-49677380D02*
X111642857Y-49010714D01*
X111642857Y-48677380D02*
X111595238Y-48725000D01*
X111642857Y-48772619D01*
X111690476Y-48725000D01*
X111642857Y-48677380D01*
X111642857Y-48772619D01*
X112119047Y-49010714D02*
X112119047Y-49677380D01*
X112119047Y-49105952D02*
X112166666Y-49058333D01*
X112261904Y-49010714D01*
X112404761Y-49010714D01*
X112500000Y-49058333D01*
X112547619Y-49153571D01*
X112547619Y-49677380D01*
X114214285Y-49677380D02*
X114214285Y-48677380D01*
X114214285Y-49629761D02*
X114119047Y-49677380D01*
X113928571Y-49677380D01*
X113833333Y-49629761D01*
X113785714Y-49582142D01*
X113738095Y-49486904D01*
X113738095Y-49201190D01*
X113785714Y-49105952D01*
X113833333Y-49058333D01*
X113928571Y-49010714D01*
X114119047Y-49010714D01*
X114214285Y-49058333D01*
X115023809Y-49153571D02*
X115166666Y-49201190D01*
X115214285Y-49248809D01*
X115261904Y-49344047D01*
X115261904Y-49486904D01*
X115214285Y-49582142D01*
X115166666Y-49629761D01*
X115071428Y-49677380D01*
X114690476Y-49677380D01*
X114690476Y-48677380D01*
X115023809Y-48677380D01*
X115119047Y-48725000D01*
X115166666Y-48772619D01*
X115214285Y-48867857D01*
X115214285Y-48963095D01*
X115166666Y-49058333D01*
X115119047Y-49105952D01*
X115023809Y-49153571D01*
X114690476Y-49153571D01*
X115690476Y-49582142D02*
X115738095Y-49629761D01*
X115690476Y-49677380D01*
X115642857Y-49629761D01*
X115690476Y-49582142D01*
X115690476Y-49677380D01*
X115690476Y-49058333D02*
X115738095Y-49105952D01*
X115690476Y-49153571D01*
X115642857Y-49105952D01*
X115690476Y-49058333D01*
X115690476Y-49153571D01*
X107214285Y-51327380D02*
X106642857Y-51327380D01*
X106928571Y-51327380D02*
X106928571Y-50327380D01*
X106833333Y-50470238D01*
X106738095Y-50565476D01*
X106642857Y-50613095D01*
X107642857Y-50803571D02*
X108404761Y-50803571D01*
X108404761Y-51089285D02*
X107642857Y-51089285D01*
X108833333Y-50422619D02*
X108880952Y-50375000D01*
X108976190Y-50327380D01*
X109214285Y-50327380D01*
X109309523Y-50375000D01*
X109357142Y-50422619D01*
X109404761Y-50517857D01*
X109404761Y-50613095D01*
X109357142Y-50755952D01*
X108785714Y-51327380D01*
X109404761Y-51327380D01*
X110261904Y-50327380D02*
X110071428Y-50327380D01*
X109976190Y-50375000D01*
X109928571Y-50422619D01*
X109833333Y-50565476D01*
X109785714Y-50755952D01*
X109785714Y-51136904D01*
X109833333Y-51232142D01*
X109880952Y-51279761D01*
X109976190Y-51327380D01*
X110166666Y-51327380D01*
X110261904Y-51279761D01*
X110309523Y-51232142D01*
X110357142Y-51136904D01*
X110357142Y-50898809D01*
X110309523Y-50803571D01*
X110261904Y-50755952D01*
X110166666Y-50708333D01*
X109976190Y-50708333D01*
X109880952Y-50755952D01*
X109833333Y-50803571D01*
X109785714Y-50898809D01*
X106642857Y-52072619D02*
X106690476Y-52025000D01*
X106785714Y-51977380D01*
X107023809Y-51977380D01*
X107119047Y-52025000D01*
X107166666Y-52072619D01*
X107214285Y-52167857D01*
X107214285Y-52263095D01*
X107166666Y-52405952D01*
X106595238Y-52977380D01*
X107214285Y-52977380D01*
X107642857Y-52453571D02*
X108404761Y-52453571D01*
X108404761Y-52739285D02*
X107642857Y-52739285D01*
X108833333Y-52072619D02*
X108880952Y-52025000D01*
X108976190Y-51977380D01*
X109214285Y-51977380D01*
X109309523Y-52025000D01*
X109357142Y-52072619D01*
X109404761Y-52167857D01*
X109404761Y-52263095D01*
X109357142Y-52405952D01*
X108785714Y-52977380D01*
X109404761Y-52977380D01*
X109880952Y-52977380D02*
X110071428Y-52977380D01*
X110166666Y-52929761D01*
X110214285Y-52882142D01*
X110309523Y-52739285D01*
X110357142Y-52548809D01*
X110357142Y-52167857D01*
X110309523Y-52072619D01*
X110261904Y-52025000D01*
X110166666Y-51977380D01*
X109976190Y-51977380D01*
X109880952Y-52025000D01*
X109833333Y-52072619D01*
X109785714Y-52167857D01*
X109785714Y-52405952D01*
X109833333Y-52501190D01*
X109880952Y-52548809D01*
X109976190Y-52596428D01*
X110166666Y-52596428D01*
X110261904Y-52548809D01*
X110309523Y-52501190D01*
X110357142Y-52405952D01*
X106595238Y-53627380D02*
X107214285Y-53627380D01*
X106880952Y-54008333D01*
X107023809Y-54008333D01*
X107119047Y-54055952D01*
X107166666Y-54103571D01*
X107214285Y-54198809D01*
X107214285Y-54436904D01*
X107166666Y-54532142D01*
X107119047Y-54579761D01*
X107023809Y-54627380D01*
X106738095Y-54627380D01*
X106642857Y-54579761D01*
X106595238Y-54532142D01*
X107642857Y-54103571D02*
X108404761Y-54103571D01*
X108404761Y-54389285D02*
X107642857Y-54389285D01*
X108785714Y-53627380D02*
X109404761Y-53627380D01*
X109071428Y-54008333D01*
X109214285Y-54008333D01*
X109309523Y-54055952D01*
X109357142Y-54103571D01*
X109404761Y-54198809D01*
X109404761Y-54436904D01*
X109357142Y-54532142D01*
X109309523Y-54579761D01*
X109214285Y-54627380D01*
X108928571Y-54627380D01*
X108833333Y-54579761D01*
X108785714Y-54532142D01*
X109785714Y-53722619D02*
X109833333Y-53675000D01*
X109928571Y-53627380D01*
X110166666Y-53627380D01*
X110261904Y-53675000D01*
X110309523Y-53722619D01*
X110357142Y-53817857D01*
X110357142Y-53913095D01*
X110309523Y-54055952D01*
X109738095Y-54627380D01*
X110357142Y-54627380D01*
X107119047Y-55610714D02*
X107119047Y-56277380D01*
X106880952Y-55229761D02*
X106642857Y-55944047D01*
X107261904Y-55944047D01*
X107642857Y-55753571D02*
X108404761Y-55753571D01*
X108404761Y-56039285D02*
X107642857Y-56039285D01*
X108785714Y-55277380D02*
X109404761Y-55277380D01*
X109071428Y-55658333D01*
X109214285Y-55658333D01*
X109309523Y-55705952D01*
X109357142Y-55753571D01*
X109404761Y-55848809D01*
X109404761Y-56086904D01*
X109357142Y-56182142D01*
X109309523Y-56229761D01*
X109214285Y-56277380D01*
X108928571Y-56277380D01*
X108833333Y-56229761D01*
X108785714Y-56182142D01*
X110261904Y-55610714D02*
X110261904Y-56277380D01*
X110023809Y-55229761D02*
X109785714Y-55944047D01*
X110404761Y-55944047D01*
X107166666Y-56927380D02*
X106690476Y-56927380D01*
X106642857Y-57403571D01*
X106690476Y-57355952D01*
X106785714Y-57308333D01*
X107023809Y-57308333D01*
X107119047Y-57355952D01*
X107166666Y-57403571D01*
X107214285Y-57498809D01*
X107214285Y-57736904D01*
X107166666Y-57832142D01*
X107119047Y-57879761D01*
X107023809Y-57927380D01*
X106785714Y-57927380D01*
X106690476Y-57879761D01*
X106642857Y-57832142D01*
X107642857Y-57403571D02*
X108404761Y-57403571D01*
X108404761Y-57689285D02*
X107642857Y-57689285D01*
X108785714Y-56927380D02*
X109404761Y-56927380D01*
X109071428Y-57308333D01*
X109214285Y-57308333D01*
X109309523Y-57355952D01*
X109357142Y-57403571D01*
X109404761Y-57498809D01*
X109404761Y-57736904D01*
X109357142Y-57832142D01*
X109309523Y-57879761D01*
X109214285Y-57927380D01*
X108928571Y-57927380D01*
X108833333Y-57879761D01*
X108785714Y-57832142D01*
X110309523Y-56927380D02*
X109833333Y-56927380D01*
X109785714Y-57403571D01*
X109833333Y-57355952D01*
X109928571Y-57308333D01*
X110166666Y-57308333D01*
X110261904Y-57355952D01*
X110309523Y-57403571D01*
X110357142Y-57498809D01*
X110357142Y-57736904D01*
X110309523Y-57832142D01*
X110261904Y-57879761D01*
X110166666Y-57927380D01*
X109928571Y-57927380D01*
X109833333Y-57879761D01*
X109785714Y-57832142D01*
X107119047Y-58577380D02*
X106928571Y-58577380D01*
X106833333Y-58625000D01*
X106785714Y-58672619D01*
X106690476Y-58815476D01*
X106642857Y-59005952D01*
X106642857Y-59386904D01*
X106690476Y-59482142D01*
X106738095Y-59529761D01*
X106833333Y-59577380D01*
X107023809Y-59577380D01*
X107119047Y-59529761D01*
X107166666Y-59482142D01*
X107214285Y-59386904D01*
X107214285Y-59148809D01*
X107166666Y-59053571D01*
X107119047Y-59005952D01*
X107023809Y-58958333D01*
X106833333Y-58958333D01*
X106738095Y-59005952D01*
X106690476Y-59053571D01*
X106642857Y-59148809D01*
X107642857Y-59053571D02*
X108404761Y-59053571D01*
X108404761Y-59339285D02*
X107642857Y-59339285D01*
X108785714Y-58577380D02*
X109404761Y-58577380D01*
X109071428Y-58958333D01*
X109214285Y-58958333D01*
X109309523Y-59005952D01*
X109357142Y-59053571D01*
X109404761Y-59148809D01*
X109404761Y-59386904D01*
X109357142Y-59482142D01*
X109309523Y-59529761D01*
X109214285Y-59577380D01*
X108928571Y-59577380D01*
X108833333Y-59529761D01*
X108785714Y-59482142D01*
X109738095Y-58577380D02*
X110404761Y-58577380D01*
X109976190Y-59577380D01*
X106595238Y-60227380D02*
X107261904Y-60227380D01*
X106833333Y-61227380D01*
X107642857Y-60703571D02*
X108404761Y-60703571D01*
X108404761Y-60989285D02*
X107642857Y-60989285D01*
X108785714Y-60227380D02*
X109404761Y-60227380D01*
X109071428Y-60608333D01*
X109214285Y-60608333D01*
X109309523Y-60655952D01*
X109357142Y-60703571D01*
X109404761Y-60798809D01*
X109404761Y-61036904D01*
X109357142Y-61132142D01*
X109309523Y-61179761D01*
X109214285Y-61227380D01*
X108928571Y-61227380D01*
X108833333Y-61179761D01*
X108785714Y-61132142D01*
X109976190Y-60655952D02*
X109880952Y-60608333D01*
X109833333Y-60560714D01*
X109785714Y-60465476D01*
X109785714Y-60417857D01*
X109833333Y-60322619D01*
X109880952Y-60275000D01*
X109976190Y-60227380D01*
X110166666Y-60227380D01*
X110261904Y-60275000D01*
X110309523Y-60322619D01*
X110357142Y-60417857D01*
X110357142Y-60465476D01*
X110309523Y-60560714D01*
X110261904Y-60608333D01*
X110166666Y-60655952D01*
X109976190Y-60655952D01*
X109880952Y-60703571D01*
X109833333Y-60751190D01*
X109785714Y-60846428D01*
X109785714Y-61036904D01*
X109833333Y-61132142D01*
X109880952Y-61179761D01*
X109976190Y-61227380D01*
X110166666Y-61227380D01*
X110261904Y-61179761D01*
X110309523Y-61132142D01*
X110357142Y-61036904D01*
X110357142Y-60846428D01*
X110309523Y-60751190D01*
X110261904Y-60703571D01*
X110166666Y-60655952D01*
X97190476Y-62353571D02*
X97333333Y-62401190D01*
X97380952Y-62448809D01*
X97428571Y-62544047D01*
X97428571Y-62686904D01*
X97380952Y-62782142D01*
X97333333Y-62829761D01*
X97238095Y-62877380D01*
X96857142Y-62877380D01*
X96857142Y-61877380D01*
X97190476Y-61877380D01*
X97285714Y-61925000D01*
X97333333Y-61972619D01*
X97380952Y-62067857D01*
X97380952Y-62163095D01*
X97333333Y-62258333D01*
X97285714Y-62305952D01*
X97190476Y-62353571D01*
X96857142Y-62353571D01*
X98000000Y-62877380D02*
X97904761Y-62829761D01*
X97857142Y-62782142D01*
X97809523Y-62686904D01*
X97809523Y-62401190D01*
X97857142Y-62305952D01*
X97904761Y-62258333D01*
X98000000Y-62210714D01*
X98142857Y-62210714D01*
X98238095Y-62258333D01*
X98285714Y-62305952D01*
X98333333Y-62401190D01*
X98333333Y-62686904D01*
X98285714Y-62782142D01*
X98238095Y-62829761D01*
X98142857Y-62877380D01*
X98000000Y-62877380D01*
X98619047Y-62210714D02*
X99000000Y-62210714D01*
X98761904Y-61877380D02*
X98761904Y-62734523D01*
X98809523Y-62829761D01*
X98904761Y-62877380D01*
X99000000Y-62877380D01*
X99333333Y-62877380D02*
X99333333Y-61877380D01*
X99761904Y-62877380D02*
X99761904Y-62353571D01*
X99714285Y-62258333D01*
X99619047Y-62210714D01*
X99476190Y-62210714D01*
X99380952Y-62258333D01*
X99333333Y-62305952D01*
X101000000Y-62877380D02*
X101000000Y-62210714D01*
X101000000Y-62305952D02*
X101047619Y-62258333D01*
X101142857Y-62210714D01*
X101285714Y-62210714D01*
X101380952Y-62258333D01*
X101428571Y-62353571D01*
X101428571Y-62877380D01*
X101428571Y-62353571D02*
X101476190Y-62258333D01*
X101571428Y-62210714D01*
X101714285Y-62210714D01*
X101809523Y-62258333D01*
X101857142Y-62353571D01*
X101857142Y-62877380D01*
X102761904Y-62210714D02*
X102761904Y-62877380D01*
X102333333Y-62210714D02*
X102333333Y-62734523D01*
X102380952Y-62829761D01*
X102476190Y-62877380D01*
X102619047Y-62877380D01*
X102714285Y-62829761D01*
X102761904Y-62782142D01*
X103190476Y-62829761D02*
X103285714Y-62877380D01*
X103476190Y-62877380D01*
X103571428Y-62829761D01*
X103619047Y-62734523D01*
X103619047Y-62686904D01*
X103571428Y-62591666D01*
X103476190Y-62544047D01*
X103333333Y-62544047D01*
X103238095Y-62496428D01*
X103190476Y-62401190D01*
X103190476Y-62353571D01*
X103238095Y-62258333D01*
X103333333Y-62210714D01*
X103476190Y-62210714D01*
X103571428Y-62258333D01*
X103904761Y-62210714D02*
X104285714Y-62210714D01*
X104047619Y-61877380D02*
X104047619Y-62734523D01*
X104095238Y-62829761D01*
X104190476Y-62877380D01*
X104285714Y-62877380D01*
X105380952Y-62877380D02*
X105380952Y-61877380D01*
X105380952Y-62258333D02*
X105476190Y-62210714D01*
X105666666Y-62210714D01*
X105761904Y-62258333D01*
X105809523Y-62305952D01*
X105857142Y-62401190D01*
X105857142Y-62686904D01*
X105809523Y-62782142D01*
X105761904Y-62829761D01*
X105666666Y-62877380D01*
X105476190Y-62877380D01*
X105380952Y-62829761D01*
X106666666Y-62829761D02*
X106571428Y-62877380D01*
X106380952Y-62877380D01*
X106285714Y-62829761D01*
X106238095Y-62734523D01*
X106238095Y-62353571D01*
X106285714Y-62258333D01*
X106380952Y-62210714D01*
X106571428Y-62210714D01*
X106666666Y-62258333D01*
X106714285Y-62353571D01*
X106714285Y-62448809D01*
X106238095Y-62544047D01*
X107857142Y-62829761D02*
X107952380Y-62877380D01*
X108142857Y-62877380D01*
X108238095Y-62829761D01*
X108285714Y-62734523D01*
X108285714Y-62686904D01*
X108238095Y-62591666D01*
X108142857Y-62544047D01*
X107999999Y-62544047D01*
X107904761Y-62496428D01*
X107857142Y-62401190D01*
X107857142Y-62353571D01*
X107904761Y-62258333D01*
X107999999Y-62210714D01*
X108142857Y-62210714D01*
X108238095Y-62258333D01*
X109095238Y-62829761D02*
X108999999Y-62877380D01*
X108809523Y-62877380D01*
X108714285Y-62829761D01*
X108666666Y-62734523D01*
X108666666Y-62353571D01*
X108714285Y-62258333D01*
X108809523Y-62210714D01*
X108999999Y-62210714D01*
X109095238Y-62258333D01*
X109142857Y-62353571D01*
X109142857Y-62448809D01*
X108666666Y-62544047D01*
X109428571Y-62210714D02*
X109809523Y-62210714D01*
X109571428Y-61877380D02*
X109571428Y-62734523D01*
X109619047Y-62829761D01*
X109714285Y-62877380D01*
X109809523Y-62877380D01*
X110761904Y-62210714D02*
X111142857Y-62210714D01*
X110904761Y-61877380D02*
X110904761Y-62734523D01*
X110952380Y-62829761D01*
X111047619Y-62877380D01*
X111142857Y-62877380D01*
X111619047Y-62877380D02*
X111523809Y-62829761D01*
X111476190Y-62782142D01*
X111428571Y-62686904D01*
X111428571Y-62401190D01*
X111476190Y-62305952D01*
X111523809Y-62258333D01*
X111619047Y-62210714D01*
X111761904Y-62210714D01*
X111857142Y-62258333D01*
X111904761Y-62305952D01*
X111952380Y-62401190D01*
X111952380Y-62686904D01*
X111904761Y-62782142D01*
X111857142Y-62829761D01*
X111761904Y-62877380D01*
X111619047Y-62877380D01*
X112999999Y-62210714D02*
X113380952Y-62210714D01*
X113142857Y-61877380D02*
X113142857Y-62734523D01*
X113190476Y-62829761D01*
X113285714Y-62877380D01*
X113380952Y-62877380D01*
X113714285Y-62877380D02*
X113714285Y-61877380D01*
X114142857Y-62877380D02*
X114142857Y-62353571D01*
X114095238Y-62258333D01*
X113999999Y-62210714D01*
X113857142Y-62210714D01*
X113761904Y-62258333D01*
X113714285Y-62305952D01*
X114999999Y-62829761D02*
X114904761Y-62877380D01*
X114714285Y-62877380D01*
X114619047Y-62829761D01*
X114571428Y-62734523D01*
X114571428Y-62353571D01*
X114619047Y-62258333D01*
X114714285Y-62210714D01*
X114904761Y-62210714D01*
X114999999Y-62258333D01*
X115047619Y-62353571D01*
X115047619Y-62448809D01*
X114571428Y-62544047D01*
X116190476Y-62829761D02*
X116285714Y-62877380D01*
X116476190Y-62877380D01*
X116571428Y-62829761D01*
X116619047Y-62734523D01*
X116619047Y-62686904D01*
X116571428Y-62591666D01*
X116476190Y-62544047D01*
X116333333Y-62544047D01*
X116238095Y-62496428D01*
X116190476Y-62401190D01*
X116190476Y-62353571D01*
X116238095Y-62258333D01*
X116333333Y-62210714D01*
X116476190Y-62210714D01*
X116571428Y-62258333D01*
X117476190Y-62877380D02*
X117476190Y-62353571D01*
X117428571Y-62258333D01*
X117333333Y-62210714D01*
X117142857Y-62210714D01*
X117047619Y-62258333D01*
X117476190Y-62829761D02*
X117380952Y-62877380D01*
X117142857Y-62877380D01*
X117047619Y-62829761D01*
X116999999Y-62734523D01*
X116999999Y-62639285D01*
X117047619Y-62544047D01*
X117142857Y-62496428D01*
X117380952Y-62496428D01*
X117476190Y-62448809D01*
X117952380Y-62877380D02*
X117952380Y-62210714D01*
X117952380Y-62305952D02*
X117999999Y-62258333D01*
X118095238Y-62210714D01*
X118238095Y-62210714D01*
X118333333Y-62258333D01*
X118380952Y-62353571D01*
X118380952Y-62877380D01*
X118380952Y-62353571D02*
X118428571Y-62258333D01*
X118523809Y-62210714D01*
X118666666Y-62210714D01*
X118761904Y-62258333D01*
X118809523Y-62353571D01*
X118809523Y-62877380D01*
X119666666Y-62829761D02*
X119571428Y-62877380D01*
X119380952Y-62877380D01*
X119285714Y-62829761D01*
X119238095Y-62734523D01*
X119238095Y-62353571D01*
X119285714Y-62258333D01*
X119380952Y-62210714D01*
X119571428Y-62210714D01*
X119666666Y-62258333D01*
X119714285Y-62353571D01*
X119714285Y-62448809D01*
X119238095Y-62544047D01*
X120142857Y-62782142D02*
X120190476Y-62829761D01*
X120142857Y-62877380D01*
X120095238Y-62829761D01*
X120142857Y-62782142D01*
X120142857Y-62877380D01*
D12*
%TO.C,REF\u002A\u002A*%
G36*
X117921900Y-73361903D02*
G01*
X118033450Y-73417522D01*
X118131908Y-73519931D01*
X118159023Y-73557864D01*
X118188562Y-73607500D01*
X118207728Y-73661412D01*
X118218693Y-73733364D01*
X118223629Y-73837122D01*
X118224713Y-73974101D01*
X118219818Y-74161815D01*
X118202804Y-74302758D01*
X118170177Y-74407908D01*
X118118442Y-74488243D01*
X118044104Y-74554741D01*
X118038642Y-74558678D01*
X117965380Y-74598953D01*
X117877160Y-74618880D01*
X117764962Y-74623793D01*
X117582567Y-74623793D01*
X117582491Y-74800857D01*
X117580793Y-74899470D01*
X117570450Y-74957314D01*
X117543422Y-74992006D01*
X117491668Y-75021164D01*
X117479239Y-75027121D01*
X117421077Y-75055039D01*
X117376044Y-75072672D01*
X117342559Y-75074194D01*
X117319038Y-75053781D01*
X117303900Y-75005607D01*
X117295563Y-74923846D01*
X117292444Y-74802672D01*
X117292960Y-74636260D01*
X117295529Y-74418785D01*
X117296332Y-74353736D01*
X117299222Y-74129502D01*
X117301812Y-73982821D01*
X117582414Y-73982821D01*
X117583991Y-74107326D01*
X117591000Y-74188787D01*
X117606858Y-74242515D01*
X117634981Y-74283823D01*
X117654075Y-74303971D01*
X117732135Y-74362921D01*
X117801247Y-74367720D01*
X117872560Y-74319038D01*
X117874368Y-74317241D01*
X117903383Y-74279618D01*
X117921033Y-74228484D01*
X117929936Y-74149738D01*
X117932709Y-74029276D01*
X117932759Y-74002588D01*
X117926058Y-73836583D01*
X117904248Y-73721505D01*
X117864765Y-73651254D01*
X117805044Y-73619729D01*
X117770528Y-73616552D01*
X117688611Y-73631460D01*
X117632421Y-73680548D01*
X117598598Y-73770362D01*
X117583780Y-73907445D01*
X117582414Y-73982821D01*
X117301812Y-73982821D01*
X117302287Y-73955952D01*
X117306247Y-73825382D01*
X117311826Y-73730087D01*
X117319746Y-73662364D01*
X117330731Y-73614507D01*
X117345501Y-73578813D01*
X117364782Y-73547578D01*
X117373049Y-73535824D01*
X117482712Y-73424797D01*
X117621365Y-73361847D01*
X117781754Y-73344297D01*
X117921900Y-73361903D01*
G37*
X117921900Y-73361903D02*
X118033450Y-73417522D01*
X118131908Y-73519931D01*
X118159023Y-73557864D01*
X118188562Y-73607500D01*
X118207728Y-73661412D01*
X118218693Y-73733364D01*
X118223629Y-73837122D01*
X118224713Y-73974101D01*
X118219818Y-74161815D01*
X118202804Y-74302758D01*
X118170177Y-74407908D01*
X118118442Y-74488243D01*
X118044104Y-74554741D01*
X118038642Y-74558678D01*
X117965380Y-74598953D01*
X117877160Y-74618880D01*
X117764962Y-74623793D01*
X117582567Y-74623793D01*
X117582491Y-74800857D01*
X117580793Y-74899470D01*
X117570450Y-74957314D01*
X117543422Y-74992006D01*
X117491668Y-75021164D01*
X117479239Y-75027121D01*
X117421077Y-75055039D01*
X117376044Y-75072672D01*
X117342559Y-75074194D01*
X117319038Y-75053781D01*
X117303900Y-75005607D01*
X117295563Y-74923846D01*
X117292444Y-74802672D01*
X117292960Y-74636260D01*
X117295529Y-74418785D01*
X117296332Y-74353736D01*
X117299222Y-74129502D01*
X117301812Y-73982821D01*
X117582414Y-73982821D01*
X117583991Y-74107326D01*
X117591000Y-74188787D01*
X117606858Y-74242515D01*
X117634981Y-74283823D01*
X117654075Y-74303971D01*
X117732135Y-74362921D01*
X117801247Y-74367720D01*
X117872560Y-74319038D01*
X117874368Y-74317241D01*
X117903383Y-74279618D01*
X117921033Y-74228484D01*
X117929936Y-74149738D01*
X117932709Y-74029276D01*
X117932759Y-74002588D01*
X117926058Y-73836583D01*
X117904248Y-73721505D01*
X117864765Y-73651254D01*
X117805044Y-73619729D01*
X117770528Y-73616552D01*
X117688611Y-73631460D01*
X117632421Y-73680548D01*
X117598598Y-73770362D01*
X117583780Y-73907445D01*
X117582414Y-73982821D01*
X117301812Y-73982821D01*
X117302287Y-73955952D01*
X117306247Y-73825382D01*
X117311826Y-73730087D01*
X117319746Y-73662364D01*
X117330731Y-73614507D01*
X117345501Y-73578813D01*
X117364782Y-73547578D01*
X117373049Y-73535824D01*
X117482712Y-73424797D01*
X117621365Y-73361847D01*
X117781754Y-73344297D01*
X117921900Y-73361903D01*
G36*
X120167429Y-73377719D02*
G01*
X120261123Y-73431914D01*
X120326264Y-73485707D01*
X120373907Y-73542066D01*
X120406728Y-73610987D01*
X120427406Y-73702468D01*
X120438620Y-73826506D01*
X120443049Y-73993098D01*
X120443563Y-74112851D01*
X120443563Y-74553659D01*
X120319483Y-74609283D01*
X120195402Y-74664907D01*
X120180805Y-74182095D01*
X120174773Y-74001779D01*
X120168445Y-73870901D01*
X120160606Y-73780511D01*
X120150037Y-73721664D01*
X120135523Y-73685413D01*
X120115848Y-73662810D01*
X120109535Y-73657917D01*
X120013888Y-73619706D01*
X119917207Y-73634827D01*
X119859655Y-73674943D01*
X119836245Y-73703370D01*
X119820039Y-73740672D01*
X119809741Y-73797223D01*
X119804049Y-73883394D01*
X119801664Y-74009558D01*
X119801264Y-74141042D01*
X119801186Y-74305999D01*
X119798361Y-74422761D01*
X119788907Y-74501510D01*
X119768940Y-74552431D01*
X119734576Y-74585706D01*
X119681932Y-74611520D01*
X119611617Y-74638344D01*
X119534820Y-74667542D01*
X119543962Y-74149346D01*
X119547643Y-73962539D01*
X119551950Y-73824490D01*
X119558123Y-73725568D01*
X119567402Y-73656145D01*
X119581027Y-73606590D01*
X119600239Y-73567273D01*
X119623402Y-73532584D01*
X119735152Y-73421770D01*
X119871513Y-73357689D01*
X120019825Y-73342339D01*
X120167429Y-73377719D01*
G37*
X120167429Y-73377719D02*
X120261123Y-73431914D01*
X120326264Y-73485707D01*
X120373907Y-73542066D01*
X120406728Y-73610987D01*
X120427406Y-73702468D01*
X120438620Y-73826506D01*
X120443049Y-73993098D01*
X120443563Y-74112851D01*
X120443563Y-74553659D01*
X120319483Y-74609283D01*
X120195402Y-74664907D01*
X120180805Y-74182095D01*
X120174773Y-74001779D01*
X120168445Y-73870901D01*
X120160606Y-73780511D01*
X120150037Y-73721664D01*
X120135523Y-73685413D01*
X120115848Y-73662810D01*
X120109535Y-73657917D01*
X120013888Y-73619706D01*
X119917207Y-73634827D01*
X119859655Y-73674943D01*
X119836245Y-73703370D01*
X119820039Y-73740672D01*
X119809741Y-73797223D01*
X119804049Y-73883394D01*
X119801664Y-74009558D01*
X119801264Y-74141042D01*
X119801186Y-74305999D01*
X119798361Y-74422761D01*
X119788907Y-74501510D01*
X119768940Y-74552431D01*
X119734576Y-74585706D01*
X119681932Y-74611520D01*
X119611617Y-74638344D01*
X119534820Y-74667542D01*
X119543962Y-74149346D01*
X119547643Y-73962539D01*
X119551950Y-73824490D01*
X119558123Y-73725568D01*
X119567402Y-73656145D01*
X119581027Y-73606590D01*
X119600239Y-73567273D01*
X119623402Y-73532584D01*
X119735152Y-73421770D01*
X119871513Y-73357689D01*
X120019825Y-73342339D01*
X120167429Y-73377719D01*
G36*
X116798221Y-73366015D02*
G01*
X116935061Y-73437968D01*
X117036051Y-73553766D01*
X117071925Y-73628213D01*
X117099839Y-73739992D01*
X117114129Y-73881227D01*
X117115484Y-74035371D01*
X117104595Y-74185879D01*
X117082153Y-74316205D01*
X117048850Y-74409803D01*
X117038615Y-74425922D01*
X116917382Y-74546249D01*
X116773387Y-74618317D01*
X116617139Y-74639408D01*
X116459148Y-74606802D01*
X116415180Y-74587253D01*
X116329556Y-74527012D01*
X116254408Y-74447135D01*
X116247306Y-74437004D01*
X116218439Y-74388181D01*
X116199357Y-74335990D01*
X116188084Y-74267285D01*
X116182645Y-74168918D01*
X116181062Y-74027744D01*
X116181035Y-73996092D01*
X116181107Y-73986019D01*
X116472989Y-73986019D01*
X116474687Y-74119256D01*
X116481372Y-74207674D01*
X116495425Y-74264785D01*
X116519229Y-74304102D01*
X116531379Y-74317241D01*
X116601236Y-74367172D01*
X116669059Y-74364895D01*
X116737635Y-74321584D01*
X116778535Y-74275346D01*
X116802758Y-74207857D01*
X116816361Y-74101433D01*
X116817294Y-74089020D01*
X116819616Y-73896147D01*
X116795350Y-73752900D01*
X116744824Y-73660160D01*
X116668368Y-73618807D01*
X116641076Y-73616552D01*
X116569411Y-73627893D01*
X116520390Y-73667184D01*
X116490418Y-73742326D01*
X116475899Y-73861222D01*
X116472989Y-73986019D01*
X116181107Y-73986019D01*
X116182122Y-73845659D01*
X116186688Y-73740549D01*
X116196688Y-73667714D01*
X116214079Y-73614108D01*
X116240816Y-73566681D01*
X116246724Y-73557864D01*
X116346032Y-73439007D01*
X116454242Y-73370008D01*
X116585981Y-73342619D01*
X116630717Y-73341281D01*
X116798221Y-73366015D01*
G37*
X116798221Y-73366015D02*
X116935061Y-73437968D01*
X117036051Y-73553766D01*
X117071925Y-73628213D01*
X117099839Y-73739992D01*
X117114129Y-73881227D01*
X117115484Y-74035371D01*
X117104595Y-74185879D01*
X117082153Y-74316205D01*
X117048850Y-74409803D01*
X117038615Y-74425922D01*
X116917382Y-74546249D01*
X116773387Y-74618317D01*
X116617139Y-74639408D01*
X116459148Y-74606802D01*
X116415180Y-74587253D01*
X116329556Y-74527012D01*
X116254408Y-74447135D01*
X116247306Y-74437004D01*
X116218439Y-74388181D01*
X116199357Y-74335990D01*
X116188084Y-74267285D01*
X116182645Y-74168918D01*
X116181062Y-74027744D01*
X116181035Y-73996092D01*
X116181107Y-73986019D01*
X116472989Y-73986019D01*
X116474687Y-74119256D01*
X116481372Y-74207674D01*
X116495425Y-74264785D01*
X116519229Y-74304102D01*
X116531379Y-74317241D01*
X116601236Y-74367172D01*
X116669059Y-74364895D01*
X116737635Y-74321584D01*
X116778535Y-74275346D01*
X116802758Y-74207857D01*
X116816361Y-74101433D01*
X116817294Y-74089020D01*
X116819616Y-73896147D01*
X116795350Y-73752900D01*
X116744824Y-73660160D01*
X116668368Y-73618807D01*
X116641076Y-73616552D01*
X116569411Y-73627893D01*
X116520390Y-73667184D01*
X116490418Y-73742326D01*
X116475899Y-73861222D01*
X116472989Y-73986019D01*
X116181107Y-73986019D01*
X116182122Y-73845659D01*
X116186688Y-73740549D01*
X116196688Y-73667714D01*
X116214079Y-73614108D01*
X116240816Y-73566681D01*
X116246724Y-73557864D01*
X116346032Y-73439007D01*
X116454242Y-73370008D01*
X116585981Y-73342619D01*
X116630717Y-73341281D01*
X116798221Y-73366015D01*
G36*
X119065552Y-73384676D02*
G01*
X119180658Y-73462111D01*
X119269611Y-73573949D01*
X119322749Y-73716265D01*
X119333497Y-73821015D01*
X119332276Y-73864726D01*
X119322056Y-73898194D01*
X119293961Y-73928179D01*
X119239116Y-73961440D01*
X119148645Y-74004738D01*
X119013672Y-74064833D01*
X119012989Y-74065134D01*
X118888751Y-74122037D01*
X118786873Y-74172565D01*
X118717767Y-74211280D01*
X118691846Y-74232740D01*
X118691839Y-74232913D01*
X118714685Y-74279644D01*
X118768109Y-74331154D01*
X118829442Y-74368261D01*
X118860515Y-74375632D01*
X118945289Y-74350138D01*
X119018293Y-74286291D01*
X119053913Y-74216094D01*
X119088180Y-74164343D01*
X119155303Y-74105409D01*
X119234208Y-74054496D01*
X119303821Y-74026809D01*
X119318377Y-74025287D01*
X119334763Y-74050321D01*
X119335750Y-74114311D01*
X119323708Y-74200593D01*
X119301007Y-74292501D01*
X119270014Y-74373369D01*
X119268448Y-74376509D01*
X119175181Y-74506734D01*
X119054304Y-74595311D01*
X118917027Y-74638786D01*
X118774560Y-74633706D01*
X118638112Y-74576616D01*
X118632045Y-74572602D01*
X118524710Y-74475326D01*
X118454132Y-74348409D01*
X118415074Y-74181526D01*
X118409832Y-74134639D01*
X118400548Y-73913329D01*
X118411678Y-73810124D01*
X118691839Y-73810124D01*
X118695479Y-73874503D01*
X118715389Y-73893291D01*
X118765026Y-73879235D01*
X118843267Y-73846009D01*
X118930726Y-73804359D01*
X118932899Y-73803256D01*
X119007030Y-73764265D01*
X119036781Y-73738244D01*
X119029445Y-73710965D01*
X118998553Y-73675121D01*
X118919960Y-73623251D01*
X118835323Y-73619439D01*
X118759403Y-73657189D01*
X118706965Y-73730001D01*
X118691839Y-73810124D01*
X118411678Y-73810124D01*
X118419644Y-73736261D01*
X118468634Y-73595829D01*
X118536836Y-73497447D01*
X118659935Y-73398030D01*
X118795528Y-73348711D01*
X118933955Y-73345568D01*
X119065552Y-73384676D01*
G37*
X119065552Y-73384676D02*
X119180658Y-73462111D01*
X119269611Y-73573949D01*
X119322749Y-73716265D01*
X119333497Y-73821015D01*
X119332276Y-73864726D01*
X119322056Y-73898194D01*
X119293961Y-73928179D01*
X119239116Y-73961440D01*
X119148645Y-74004738D01*
X119013672Y-74064833D01*
X119012989Y-74065134D01*
X118888751Y-74122037D01*
X118786873Y-74172565D01*
X118717767Y-74211280D01*
X118691846Y-74232740D01*
X118691839Y-74232913D01*
X118714685Y-74279644D01*
X118768109Y-74331154D01*
X118829442Y-74368261D01*
X118860515Y-74375632D01*
X118945289Y-74350138D01*
X119018293Y-74286291D01*
X119053913Y-74216094D01*
X119088180Y-74164343D01*
X119155303Y-74105409D01*
X119234208Y-74054496D01*
X119303821Y-74026809D01*
X119318377Y-74025287D01*
X119334763Y-74050321D01*
X119335750Y-74114311D01*
X119323708Y-74200593D01*
X119301007Y-74292501D01*
X119270014Y-74373369D01*
X119268448Y-74376509D01*
X119175181Y-74506734D01*
X119054304Y-74595311D01*
X118917027Y-74638786D01*
X118774560Y-74633706D01*
X118638112Y-74576616D01*
X118632045Y-74572602D01*
X118524710Y-74475326D01*
X118454132Y-74348409D01*
X118415074Y-74181526D01*
X118409832Y-74134639D01*
X118400548Y-73913329D01*
X118411678Y-73810124D01*
X118691839Y-73810124D01*
X118695479Y-73874503D01*
X118715389Y-73893291D01*
X118765026Y-73879235D01*
X118843267Y-73846009D01*
X118930726Y-73804359D01*
X118932899Y-73803256D01*
X119007030Y-73764265D01*
X119036781Y-73738244D01*
X119029445Y-73710965D01*
X118998553Y-73675121D01*
X118919960Y-73623251D01*
X118835323Y-73619439D01*
X118759403Y-73657189D01*
X118706965Y-73730001D01*
X118691839Y-73810124D01*
X118411678Y-73810124D01*
X118419644Y-73736261D01*
X118468634Y-73595829D01*
X118536836Y-73497447D01*
X118659935Y-73398030D01*
X118795528Y-73348711D01*
X118933955Y-73345568D01*
X119065552Y-73384676D01*
G36*
X121494598Y-73223857D02*
G01*
X121503154Y-73343188D01*
X121512981Y-73413506D01*
X121526599Y-73444179D01*
X121546527Y-73444571D01*
X121552989Y-73440910D01*
X121638940Y-73414398D01*
X121750745Y-73415946D01*
X121864414Y-73443199D01*
X121935510Y-73478455D01*
X122008405Y-73534778D01*
X122061693Y-73598519D01*
X122098275Y-73679510D01*
X122121050Y-73787586D01*
X122132919Y-73932580D01*
X122136782Y-74124326D01*
X122136851Y-74161109D01*
X122136897Y-74574288D01*
X122044954Y-74606339D01*
X121979652Y-74628144D01*
X121943824Y-74638297D01*
X121942770Y-74638391D01*
X121939242Y-74610860D01*
X121936239Y-74534923D01*
X121933990Y-74420565D01*
X121932724Y-74277769D01*
X121932529Y-74190951D01*
X121932123Y-74019773D01*
X121930032Y-73897088D01*
X121924947Y-73813000D01*
X121915560Y-73757614D01*
X121900561Y-73721032D01*
X121878642Y-73693359D01*
X121864957Y-73680032D01*
X121770949Y-73626328D01*
X121668364Y-73622307D01*
X121575290Y-73667725D01*
X121558078Y-73684123D01*
X121532832Y-73714957D01*
X121515320Y-73751531D01*
X121504142Y-73804415D01*
X121497896Y-73884177D01*
X121495182Y-74001385D01*
X121494598Y-74162991D01*
X121494598Y-74574288D01*
X121402655Y-74606339D01*
X121337353Y-74628144D01*
X121301525Y-74638297D01*
X121300471Y-74638391D01*
X121297775Y-74610448D01*
X121295345Y-74531630D01*
X121293278Y-74409453D01*
X121291671Y-74251432D01*
X121290623Y-74065083D01*
X121290231Y-73857920D01*
X121290230Y-73848706D01*
X121290230Y-73059020D01*
X121385115Y-73018997D01*
X121480000Y-72978973D01*
X121494598Y-73223857D01*
G37*
X121494598Y-73223857D02*
X121503154Y-73343188D01*
X121512981Y-73413506D01*
X121526599Y-73444179D01*
X121546527Y-73444571D01*
X121552989Y-73440910D01*
X121638940Y-73414398D01*
X121750745Y-73415946D01*
X121864414Y-73443199D01*
X121935510Y-73478455D01*
X122008405Y-73534778D01*
X122061693Y-73598519D01*
X122098275Y-73679510D01*
X122121050Y-73787586D01*
X122132919Y-73932580D01*
X122136782Y-74124326D01*
X122136851Y-74161109D01*
X122136897Y-74574288D01*
X122044954Y-74606339D01*
X121979652Y-74628144D01*
X121943824Y-74638297D01*
X121942770Y-74638391D01*
X121939242Y-74610860D01*
X121936239Y-74534923D01*
X121933990Y-74420565D01*
X121932724Y-74277769D01*
X121932529Y-74190951D01*
X121932123Y-74019773D01*
X121930032Y-73897088D01*
X121924947Y-73813000D01*
X121915560Y-73757614D01*
X121900561Y-73721032D01*
X121878642Y-73693359D01*
X121864957Y-73680032D01*
X121770949Y-73626328D01*
X121668364Y-73622307D01*
X121575290Y-73667725D01*
X121558078Y-73684123D01*
X121532832Y-73714957D01*
X121515320Y-73751531D01*
X121504142Y-73804415D01*
X121497896Y-73884177D01*
X121495182Y-74001385D01*
X121494598Y-74162991D01*
X121494598Y-74574288D01*
X121402655Y-74606339D01*
X121337353Y-74628144D01*
X121301525Y-74638297D01*
X121300471Y-74638391D01*
X121297775Y-74610448D01*
X121295345Y-74531630D01*
X121293278Y-74409453D01*
X121291671Y-74251432D01*
X121290623Y-74065083D01*
X121290231Y-73857920D01*
X121290230Y-73848706D01*
X121290230Y-73059020D01*
X121385115Y-73018997D01*
X121480000Y-72978973D01*
X121494598Y-73223857D01*
G36*
X122829944Y-73424360D02*
G01*
X122944343Y-73466842D01*
X122945652Y-73467658D01*
X123016403Y-73519730D01*
X123068636Y-73580584D01*
X123105371Y-73659887D01*
X123129634Y-73767309D01*
X123144445Y-73912517D01*
X123152829Y-74105179D01*
X123153564Y-74132628D01*
X123164120Y-74546521D01*
X123075291Y-74592456D01*
X123011018Y-74623498D01*
X122972210Y-74638206D01*
X122970415Y-74638391D01*
X122963700Y-74611250D01*
X122958365Y-74538041D01*
X122955083Y-74431081D01*
X122954368Y-74344469D01*
X122954351Y-74204162D01*
X122947937Y-74116051D01*
X122925580Y-74074025D01*
X122877732Y-74071975D01*
X122794849Y-74103790D01*
X122669713Y-74162272D01*
X122577697Y-74210845D01*
X122530371Y-74252986D01*
X122516458Y-74298916D01*
X122516437Y-74301189D01*
X122539395Y-74380311D01*
X122607370Y-74423055D01*
X122711398Y-74429246D01*
X122786330Y-74428172D01*
X122825839Y-74449753D01*
X122850478Y-74501591D01*
X122864659Y-74567632D01*
X122844223Y-74605104D01*
X122836528Y-74610467D01*
X122764083Y-74632006D01*
X122662633Y-74635055D01*
X122558157Y-74620778D01*
X122484125Y-74594688D01*
X122381772Y-74507785D01*
X122323591Y-74386816D01*
X122312069Y-74292308D01*
X122320862Y-74207062D01*
X122352680Y-74137476D01*
X122415684Y-74075672D01*
X122518031Y-74013772D01*
X122667882Y-73943897D01*
X122677012Y-73939948D01*
X122811997Y-73877588D01*
X122895294Y-73826446D01*
X122930997Y-73780488D01*
X122923203Y-73733683D01*
X122876007Y-73679998D01*
X122861894Y-73667644D01*
X122767359Y-73619741D01*
X122669406Y-73621758D01*
X122584097Y-73668724D01*
X122527496Y-73755669D01*
X122522237Y-73772734D01*
X122471023Y-73855504D01*
X122406037Y-73895372D01*
X122312069Y-73934882D01*
X122312069Y-73832658D01*
X122340653Y-73684072D01*
X122425495Y-73547784D01*
X122469645Y-73502191D01*
X122570005Y-73443674D01*
X122697635Y-73417184D01*
X122829944Y-73424360D01*
G37*
X122829944Y-73424360D02*
X122944343Y-73466842D01*
X122945652Y-73467658D01*
X123016403Y-73519730D01*
X123068636Y-73580584D01*
X123105371Y-73659887D01*
X123129634Y-73767309D01*
X123144445Y-73912517D01*
X123152829Y-74105179D01*
X123153564Y-74132628D01*
X123164120Y-74546521D01*
X123075291Y-74592456D01*
X123011018Y-74623498D01*
X122972210Y-74638206D01*
X122970415Y-74638391D01*
X122963700Y-74611250D01*
X122958365Y-74538041D01*
X122955083Y-74431081D01*
X122954368Y-74344469D01*
X122954351Y-74204162D01*
X122947937Y-74116051D01*
X122925580Y-74074025D01*
X122877732Y-74071975D01*
X122794849Y-74103790D01*
X122669713Y-74162272D01*
X122577697Y-74210845D01*
X122530371Y-74252986D01*
X122516458Y-74298916D01*
X122516437Y-74301189D01*
X122539395Y-74380311D01*
X122607370Y-74423055D01*
X122711398Y-74429246D01*
X122786330Y-74428172D01*
X122825839Y-74449753D01*
X122850478Y-74501591D01*
X122864659Y-74567632D01*
X122844223Y-74605104D01*
X122836528Y-74610467D01*
X122764083Y-74632006D01*
X122662633Y-74635055D01*
X122558157Y-74620778D01*
X122484125Y-74594688D01*
X122381772Y-74507785D01*
X122323591Y-74386816D01*
X122312069Y-74292308D01*
X122320862Y-74207062D01*
X122352680Y-74137476D01*
X122415684Y-74075672D01*
X122518031Y-74013772D01*
X122667882Y-73943897D01*
X122677012Y-73939948D01*
X122811997Y-73877588D01*
X122895294Y-73826446D01*
X122930997Y-73780488D01*
X122923203Y-73733683D01*
X122876007Y-73679998D01*
X122861894Y-73667644D01*
X122767359Y-73619741D01*
X122669406Y-73621758D01*
X122584097Y-73668724D01*
X122527496Y-73755669D01*
X122522237Y-73772734D01*
X122471023Y-73855504D01*
X122406037Y-73895372D01*
X122312069Y-73934882D01*
X122312069Y-73832658D01*
X122340653Y-73684072D01*
X122425495Y-73547784D01*
X122469645Y-73502191D01*
X122570005Y-73443674D01*
X122697635Y-73417184D01*
X122829944Y-73424360D01*
G36*
X123815943Y-73421920D02*
G01*
X123948565Y-73470859D01*
X124056010Y-73557419D01*
X124098032Y-73618352D01*
X124143843Y-73730161D01*
X124142891Y-73811006D01*
X124094808Y-73865378D01*
X124077017Y-73874624D01*
X124000204Y-73903450D01*
X123960976Y-73896065D01*
X123947689Y-73847658D01*
X123947012Y-73820920D01*
X123922686Y-73722548D01*
X123859281Y-73653734D01*
X123771154Y-73620498D01*
X123672663Y-73628861D01*
X123592602Y-73672296D01*
X123565561Y-73697072D01*
X123546394Y-73727129D01*
X123533446Y-73772565D01*
X123525064Y-73843476D01*
X123519593Y-73949960D01*
X123515378Y-74102112D01*
X123514287Y-74150287D01*
X123510307Y-74315095D01*
X123505781Y-74431088D01*
X123498995Y-74507833D01*
X123488231Y-74554893D01*
X123471773Y-74581835D01*
X123447906Y-74598223D01*
X123432626Y-74605463D01*
X123367733Y-74630220D01*
X123329534Y-74638391D01*
X123316912Y-74611103D01*
X123309208Y-74528603D01*
X123306380Y-74389941D01*
X123308386Y-74194162D01*
X123309011Y-74163965D01*
X123313421Y-73985349D01*
X123318635Y-73854923D01*
X123326055Y-73762492D01*
X123337082Y-73697858D01*
X123353117Y-73650825D01*
X123375561Y-73611196D01*
X123387302Y-73594215D01*
X123454619Y-73519080D01*
X123529910Y-73460638D01*
X123539128Y-73455536D01*
X123674133Y-73415260D01*
X123815943Y-73421920D01*
G37*
X123815943Y-73421920D02*
X123948565Y-73470859D01*
X124056010Y-73557419D01*
X124098032Y-73618352D01*
X124143843Y-73730161D01*
X124142891Y-73811006D01*
X124094808Y-73865378D01*
X124077017Y-73874624D01*
X124000204Y-73903450D01*
X123960976Y-73896065D01*
X123947689Y-73847658D01*
X123947012Y-73820920D01*
X123922686Y-73722548D01*
X123859281Y-73653734D01*
X123771154Y-73620498D01*
X123672663Y-73628861D01*
X123592602Y-73672296D01*
X123565561Y-73697072D01*
X123546394Y-73727129D01*
X123533446Y-73772565D01*
X123525064Y-73843476D01*
X123519593Y-73949960D01*
X123515378Y-74102112D01*
X123514287Y-74150287D01*
X123510307Y-74315095D01*
X123505781Y-74431088D01*
X123498995Y-74507833D01*
X123488231Y-74554893D01*
X123471773Y-74581835D01*
X123447906Y-74598223D01*
X123432626Y-74605463D01*
X123367733Y-74630220D01*
X123329534Y-74638391D01*
X123316912Y-74611103D01*
X123309208Y-74528603D01*
X123306380Y-74389941D01*
X123308386Y-74194162D01*
X123309011Y-74163965D01*
X123313421Y-73985349D01*
X123318635Y-73854923D01*
X123326055Y-73762492D01*
X123337082Y-73697858D01*
X123353117Y-73650825D01*
X123375561Y-73611196D01*
X123387302Y-73594215D01*
X123454619Y-73519080D01*
X123529910Y-73460638D01*
X123539128Y-73455536D01*
X123674133Y-73415260D01*
X123815943Y-73421920D01*
G36*
X125143914Y-73654455D02*
G01*
X125143543Y-73872661D01*
X125142108Y-74040519D01*
X125139002Y-74166070D01*
X125133622Y-74257355D01*
X125125362Y-74322415D01*
X125113616Y-74369291D01*
X125097781Y-74406024D01*
X125085790Y-74426991D01*
X124986490Y-74540694D01*
X124860588Y-74611965D01*
X124721291Y-74637538D01*
X124581805Y-74614150D01*
X124498743Y-74572119D01*
X124411545Y-74499411D01*
X124352117Y-74410612D01*
X124316261Y-74294320D01*
X124299781Y-74139135D01*
X124297447Y-74025287D01*
X124297761Y-74017106D01*
X124501724Y-74017106D01*
X124502970Y-74147657D01*
X124508678Y-74234080D01*
X124521804Y-74290618D01*
X124545306Y-74331514D01*
X124573386Y-74362362D01*
X124667688Y-74421905D01*
X124768940Y-74426992D01*
X124864636Y-74377279D01*
X124872084Y-74370543D01*
X124903874Y-74335502D01*
X124923808Y-74293811D01*
X124934600Y-74231762D01*
X124938965Y-74135644D01*
X124939655Y-74029379D01*
X124938159Y-73895880D01*
X124931964Y-73806822D01*
X124918514Y-73748293D01*
X124895251Y-73706382D01*
X124876175Y-73684123D01*
X124787563Y-73627985D01*
X124685508Y-73621235D01*
X124588095Y-73664114D01*
X124569296Y-73680032D01*
X124537293Y-73715382D01*
X124517318Y-73757502D01*
X124506593Y-73820251D01*
X124502339Y-73917487D01*
X124501724Y-74017106D01*
X124297761Y-74017106D01*
X124304504Y-73841947D01*
X124328472Y-73704195D01*
X124373548Y-73600632D01*
X124443928Y-73519856D01*
X124498743Y-73478455D01*
X124598376Y-73433728D01*
X124713855Y-73412967D01*
X124821199Y-73418525D01*
X124881264Y-73440943D01*
X124904835Y-73447323D01*
X124920477Y-73423535D01*
X124931395Y-73359788D01*
X124939655Y-73262687D01*
X124948699Y-73154541D01*
X124961261Y-73089475D01*
X124984119Y-73052268D01*
X125024051Y-73027699D01*
X125049138Y-73016819D01*
X125144023Y-72977072D01*
X125143914Y-73654455D01*
G37*
X125143914Y-73654455D02*
X125143543Y-73872661D01*
X125142108Y-74040519D01*
X125139002Y-74166070D01*
X125133622Y-74257355D01*
X125125362Y-74322415D01*
X125113616Y-74369291D01*
X125097781Y-74406024D01*
X125085790Y-74426991D01*
X124986490Y-74540694D01*
X124860588Y-74611965D01*
X124721291Y-74637538D01*
X124581805Y-74614150D01*
X124498743Y-74572119D01*
X124411545Y-74499411D01*
X124352117Y-74410612D01*
X124316261Y-74294320D01*
X124299781Y-74139135D01*
X124297447Y-74025287D01*
X124297761Y-74017106D01*
X124501724Y-74017106D01*
X124502970Y-74147657D01*
X124508678Y-74234080D01*
X124521804Y-74290618D01*
X124545306Y-74331514D01*
X124573386Y-74362362D01*
X124667688Y-74421905D01*
X124768940Y-74426992D01*
X124864636Y-74377279D01*
X124872084Y-74370543D01*
X124903874Y-74335502D01*
X124923808Y-74293811D01*
X124934600Y-74231762D01*
X124938965Y-74135644D01*
X124939655Y-74029379D01*
X124938159Y-73895880D01*
X124931964Y-73806822D01*
X124918514Y-73748293D01*
X124895251Y-73706382D01*
X124876175Y-73684123D01*
X124787563Y-73627985D01*
X124685508Y-73621235D01*
X124588095Y-73664114D01*
X124569296Y-73680032D01*
X124537293Y-73715382D01*
X124517318Y-73757502D01*
X124506593Y-73820251D01*
X124502339Y-73917487D01*
X124501724Y-74017106D01*
X124297761Y-74017106D01*
X124304504Y-73841947D01*
X124328472Y-73704195D01*
X124373548Y-73600632D01*
X124443928Y-73519856D01*
X124498743Y-73478455D01*
X124598376Y-73433728D01*
X124713855Y-73412967D01*
X124821199Y-73418525D01*
X124881264Y-73440943D01*
X124904835Y-73447323D01*
X124920477Y-73423535D01*
X124931395Y-73359788D01*
X124939655Y-73262687D01*
X124948699Y-73154541D01*
X124961261Y-73089475D01*
X124984119Y-73052268D01*
X125024051Y-73027699D01*
X125049138Y-73016819D01*
X125144023Y-72977072D01*
X125143914Y-73654455D01*
G36*
X126330124Y-73439840D02*
G01*
X126334579Y-73516653D01*
X126338071Y-73633391D01*
X126340315Y-73780821D01*
X126341035Y-73935455D01*
X126341035Y-74458727D01*
X126248645Y-74551117D01*
X126184978Y-74608047D01*
X126129089Y-74631107D01*
X126052702Y-74629647D01*
X126022380Y-74625934D01*
X125927610Y-74615126D01*
X125849222Y-74608933D01*
X125830115Y-74608361D01*
X125765699Y-74612102D01*
X125673571Y-74621494D01*
X125637850Y-74625934D01*
X125550114Y-74632801D01*
X125491153Y-74617885D01*
X125432690Y-74571835D01*
X125411585Y-74551117D01*
X125319195Y-74458727D01*
X125319195Y-73479947D01*
X125393558Y-73446066D01*
X125457590Y-73420970D01*
X125495052Y-73412184D01*
X125504657Y-73439950D01*
X125513635Y-73517530D01*
X125521386Y-73636348D01*
X125527314Y-73787828D01*
X125530173Y-73915805D01*
X125538161Y-74419425D01*
X125607848Y-74429278D01*
X125671229Y-74422389D01*
X125702286Y-74400083D01*
X125710967Y-74358379D01*
X125718378Y-74269544D01*
X125723931Y-74144834D01*
X125727036Y-73995507D01*
X125727484Y-73918661D01*
X125727931Y-73476287D01*
X125819874Y-73444235D01*
X125884949Y-73422443D01*
X125920347Y-73412281D01*
X125921368Y-73412184D01*
X125924920Y-73439809D01*
X125928823Y-73516411D01*
X125932751Y-73632579D01*
X125936376Y-73778904D01*
X125938908Y-73915805D01*
X125946897Y-74419425D01*
X126122069Y-74419425D01*
X126130107Y-73959965D01*
X126138146Y-73500505D01*
X126223543Y-73456344D01*
X126286593Y-73426019D01*
X126323910Y-73412258D01*
X126324987Y-73412184D01*
X126330124Y-73439840D01*
G37*
X126330124Y-73439840D02*
X126334579Y-73516653D01*
X126338071Y-73633391D01*
X126340315Y-73780821D01*
X126341035Y-73935455D01*
X126341035Y-74458727D01*
X126248645Y-74551117D01*
X126184978Y-74608047D01*
X126129089Y-74631107D01*
X126052702Y-74629647D01*
X126022380Y-74625934D01*
X125927610Y-74615126D01*
X125849222Y-74608933D01*
X125830115Y-74608361D01*
X125765699Y-74612102D01*
X125673571Y-74621494D01*
X125637850Y-74625934D01*
X125550114Y-74632801D01*
X125491153Y-74617885D01*
X125432690Y-74571835D01*
X125411585Y-74551117D01*
X125319195Y-74458727D01*
X125319195Y-73479947D01*
X125393558Y-73446066D01*
X125457590Y-73420970D01*
X125495052Y-73412184D01*
X125504657Y-73439950D01*
X125513635Y-73517530D01*
X125521386Y-73636348D01*
X125527314Y-73787828D01*
X125530173Y-73915805D01*
X125538161Y-74419425D01*
X125607848Y-74429278D01*
X125671229Y-74422389D01*
X125702286Y-74400083D01*
X125710967Y-74358379D01*
X125718378Y-74269544D01*
X125723931Y-74144834D01*
X125727036Y-73995507D01*
X125727484Y-73918661D01*
X125727931Y-73476287D01*
X125819874Y-73444235D01*
X125884949Y-73422443D01*
X125920347Y-73412281D01*
X125921368Y-73412184D01*
X125924920Y-73439809D01*
X125928823Y-73516411D01*
X125932751Y-73632579D01*
X125936376Y-73778904D01*
X125938908Y-73915805D01*
X125946897Y-74419425D01*
X126122069Y-74419425D01*
X126130107Y-73959965D01*
X126138146Y-73500505D01*
X126223543Y-73456344D01*
X126286593Y-73426019D01*
X126323910Y-73412258D01*
X126324987Y-73412184D01*
X126330124Y-73439840D01*
G36*
X127064406Y-73435156D02*
G01*
X127148469Y-73473393D01*
X127214450Y-73519726D01*
X127262794Y-73571532D01*
X127296172Y-73638363D01*
X127317253Y-73729769D01*
X127328707Y-73855301D01*
X127333203Y-74024508D01*
X127333678Y-74135933D01*
X127333678Y-74570627D01*
X127259316Y-74604509D01*
X127200746Y-74629272D01*
X127171730Y-74638391D01*
X127166179Y-74611257D01*
X127161775Y-74538094D01*
X127159078Y-74431263D01*
X127158506Y-74346437D01*
X127156046Y-74223887D01*
X127149412Y-74126668D01*
X127139726Y-74067134D01*
X127132032Y-74054483D01*
X127080311Y-74067402D01*
X126999117Y-74100539D01*
X126905102Y-74145461D01*
X126814917Y-74193735D01*
X126745215Y-74236928D01*
X126712648Y-74266608D01*
X126712519Y-74266929D01*
X126715320Y-74321857D01*
X126740439Y-74374292D01*
X126784541Y-74416881D01*
X126848909Y-74431126D01*
X126903921Y-74429466D01*
X126981835Y-74428245D01*
X127022732Y-74446498D01*
X127047295Y-74494726D01*
X127050392Y-74503820D01*
X127061040Y-74572598D01*
X127032565Y-74614360D01*
X126958344Y-74634263D01*
X126878168Y-74637944D01*
X126733890Y-74610658D01*
X126659203Y-74571690D01*
X126566963Y-74480148D01*
X126518043Y-74367782D01*
X126513654Y-74249051D01*
X126555001Y-74138411D01*
X126617197Y-74069080D01*
X126679294Y-74030265D01*
X126776895Y-73981125D01*
X126890632Y-73931292D01*
X126909590Y-73923677D01*
X127034521Y-73868545D01*
X127106539Y-73819954D01*
X127129700Y-73771647D01*
X127108064Y-73717370D01*
X127070920Y-73674943D01*
X126983127Y-73622702D01*
X126886530Y-73618784D01*
X126797944Y-73659041D01*
X126734186Y-73739326D01*
X126725817Y-73760040D01*
X126677096Y-73836225D01*
X126605965Y-73892785D01*
X126516207Y-73939201D01*
X126516207Y-73807584D01*
X126521490Y-73727168D01*
X126544142Y-73663786D01*
X126594367Y-73596163D01*
X126642582Y-73544076D01*
X126717554Y-73470322D01*
X126775806Y-73430702D01*
X126838372Y-73414810D01*
X126909193Y-73412184D01*
X127064406Y-73435156D01*
G37*
X127064406Y-73435156D02*
X127148469Y-73473393D01*
X127214450Y-73519726D01*
X127262794Y-73571532D01*
X127296172Y-73638363D01*
X127317253Y-73729769D01*
X127328707Y-73855301D01*
X127333203Y-74024508D01*
X127333678Y-74135933D01*
X127333678Y-74570627D01*
X127259316Y-74604509D01*
X127200746Y-74629272D01*
X127171730Y-74638391D01*
X127166179Y-74611257D01*
X127161775Y-74538094D01*
X127159078Y-74431263D01*
X127158506Y-74346437D01*
X127156046Y-74223887D01*
X127149412Y-74126668D01*
X127139726Y-74067134D01*
X127132032Y-74054483D01*
X127080311Y-74067402D01*
X126999117Y-74100539D01*
X126905102Y-74145461D01*
X126814917Y-74193735D01*
X126745215Y-74236928D01*
X126712648Y-74266608D01*
X126712519Y-74266929D01*
X126715320Y-74321857D01*
X126740439Y-74374292D01*
X126784541Y-74416881D01*
X126848909Y-74431126D01*
X126903921Y-74429466D01*
X126981835Y-74428245D01*
X127022732Y-74446498D01*
X127047295Y-74494726D01*
X127050392Y-74503820D01*
X127061040Y-74572598D01*
X127032565Y-74614360D01*
X126958344Y-74634263D01*
X126878168Y-74637944D01*
X126733890Y-74610658D01*
X126659203Y-74571690D01*
X126566963Y-74480148D01*
X126518043Y-74367782D01*
X126513654Y-74249051D01*
X126555001Y-74138411D01*
X126617197Y-74069080D01*
X126679294Y-74030265D01*
X126776895Y-73981125D01*
X126890632Y-73931292D01*
X126909590Y-73923677D01*
X127034521Y-73868545D01*
X127106539Y-73819954D01*
X127129700Y-73771647D01*
X127108064Y-73717370D01*
X127070920Y-73674943D01*
X126983127Y-73622702D01*
X126886530Y-73618784D01*
X126797944Y-73659041D01*
X126734186Y-73739326D01*
X126725817Y-73760040D01*
X126677096Y-73836225D01*
X126605965Y-73892785D01*
X126516207Y-73939201D01*
X126516207Y-73807584D01*
X126521490Y-73727168D01*
X126544142Y-73663786D01*
X126594367Y-73596163D01*
X126642582Y-73544076D01*
X126717554Y-73470322D01*
X126775806Y-73430702D01*
X126838372Y-73414810D01*
X126909193Y-73412184D01*
X127064406Y-73435156D01*
G36*
X128085690Y-73440018D02*
G01*
X128120585Y-73455269D01*
X128203877Y-73521235D01*
X128275103Y-73616618D01*
X128319153Y-73718406D01*
X128326322Y-73768587D01*
X128302285Y-73838647D01*
X128249561Y-73875717D01*
X128193031Y-73898164D01*
X128167146Y-73902300D01*
X128154542Y-73872283D01*
X128129654Y-73806961D01*
X128118735Y-73777445D01*
X128057508Y-73675348D01*
X127968861Y-73624423D01*
X127855193Y-73625989D01*
X127846774Y-73627994D01*
X127786088Y-73656767D01*
X127741474Y-73712859D01*
X127711002Y-73803163D01*
X127692744Y-73934571D01*
X127684771Y-74113974D01*
X127684023Y-74209433D01*
X127683652Y-74359913D01*
X127681223Y-74462495D01*
X127674760Y-74527672D01*
X127662288Y-74565938D01*
X127641833Y-74587785D01*
X127611419Y-74603707D01*
X127609661Y-74604509D01*
X127551091Y-74629272D01*
X127522075Y-74638391D01*
X127517616Y-74610822D01*
X127513799Y-74534620D01*
X127510899Y-74419541D01*
X127509191Y-74275341D01*
X127508851Y-74169814D01*
X127510588Y-73965613D01*
X127517382Y-73810697D01*
X127531607Y-73696024D01*
X127555638Y-73612551D01*
X127591848Y-73551236D01*
X127642612Y-73503034D01*
X127692739Y-73469393D01*
X127813275Y-73424619D01*
X127953557Y-73414521D01*
X128085690Y-73440018D01*
G37*
X128085690Y-73440018D02*
X128120585Y-73455269D01*
X128203877Y-73521235D01*
X128275103Y-73616618D01*
X128319153Y-73718406D01*
X128326322Y-73768587D01*
X128302285Y-73838647D01*
X128249561Y-73875717D01*
X128193031Y-73898164D01*
X128167146Y-73902300D01*
X128154542Y-73872283D01*
X128129654Y-73806961D01*
X128118735Y-73777445D01*
X128057508Y-73675348D01*
X127968861Y-73624423D01*
X127855193Y-73625989D01*
X127846774Y-73627994D01*
X127786088Y-73656767D01*
X127741474Y-73712859D01*
X127711002Y-73803163D01*
X127692744Y-73934571D01*
X127684771Y-74113974D01*
X127684023Y-74209433D01*
X127683652Y-74359913D01*
X127681223Y-74462495D01*
X127674760Y-74527672D01*
X127662288Y-74565938D01*
X127641833Y-74587785D01*
X127611419Y-74603707D01*
X127609661Y-74604509D01*
X127551091Y-74629272D01*
X127522075Y-74638391D01*
X127517616Y-74610822D01*
X127513799Y-74534620D01*
X127510899Y-74419541D01*
X127509191Y-74275341D01*
X127508851Y-74169814D01*
X127510588Y-73965613D01*
X127517382Y-73810697D01*
X127531607Y-73696024D01*
X127555638Y-73612551D01*
X127591848Y-73551236D01*
X127642612Y-73503034D01*
X127692739Y-73469393D01*
X127813275Y-73424619D01*
X127953557Y-73414521D01*
X128085690Y-73440018D01*
G36*
X129093439Y-73456540D02*
G01*
X129208950Y-73532034D01*
X129264664Y-73599617D01*
X129308804Y-73722255D01*
X129312309Y-73819298D01*
X129304368Y-73949056D01*
X129005115Y-74080039D01*
X128859611Y-74146958D01*
X128764537Y-74200790D01*
X128715101Y-74247416D01*
X128706511Y-74292720D01*
X128733972Y-74342582D01*
X128764253Y-74375632D01*
X128852363Y-74428633D01*
X128948196Y-74432347D01*
X129036212Y-74391041D01*
X129100869Y-74308983D01*
X129112433Y-74280008D01*
X129167825Y-74189509D01*
X129231553Y-74150940D01*
X129318966Y-74117946D01*
X129318966Y-74243034D01*
X129311238Y-74328156D01*
X129280966Y-74399938D01*
X129217518Y-74482356D01*
X129208088Y-74493066D01*
X129137513Y-74566391D01*
X129076847Y-74605742D01*
X129000950Y-74623845D01*
X128938030Y-74629774D01*
X128825487Y-74631251D01*
X128745370Y-74612535D01*
X128695390Y-74584747D01*
X128616838Y-74523641D01*
X128562463Y-74457554D01*
X128528052Y-74374441D01*
X128509388Y-74262254D01*
X128502256Y-74108946D01*
X128501687Y-74031136D01*
X128503622Y-73937853D01*
X128679899Y-73937853D01*
X128681944Y-73987896D01*
X128687039Y-73996092D01*
X128720666Y-73984958D01*
X128793030Y-73955493D01*
X128889747Y-73913601D01*
X128909973Y-73904597D01*
X129032203Y-73842442D01*
X129099547Y-73787815D01*
X129114348Y-73736649D01*
X129078947Y-73684876D01*
X129049711Y-73662000D01*
X128944216Y-73616250D01*
X128845476Y-73623808D01*
X128762812Y-73679651D01*
X128705548Y-73778753D01*
X128687188Y-73857414D01*
X128679899Y-73937853D01*
X128503622Y-73937853D01*
X128505459Y-73849351D01*
X128519359Y-73714853D01*
X128546894Y-73616916D01*
X128591572Y-73544811D01*
X128656901Y-73487813D01*
X128685383Y-73469393D01*
X128814763Y-73421422D01*
X128956412Y-73418403D01*
X129093439Y-73456540D01*
G37*
X129093439Y-73456540D02*
X129208950Y-73532034D01*
X129264664Y-73599617D01*
X129308804Y-73722255D01*
X129312309Y-73819298D01*
X129304368Y-73949056D01*
X129005115Y-74080039D01*
X128859611Y-74146958D01*
X128764537Y-74200790D01*
X128715101Y-74247416D01*
X128706511Y-74292720D01*
X128733972Y-74342582D01*
X128764253Y-74375632D01*
X128852363Y-74428633D01*
X128948196Y-74432347D01*
X129036212Y-74391041D01*
X129100869Y-74308983D01*
X129112433Y-74280008D01*
X129167825Y-74189509D01*
X129231553Y-74150940D01*
X129318966Y-74117946D01*
X129318966Y-74243034D01*
X129311238Y-74328156D01*
X129280966Y-74399938D01*
X129217518Y-74482356D01*
X129208088Y-74493066D01*
X129137513Y-74566391D01*
X129076847Y-74605742D01*
X129000950Y-74623845D01*
X128938030Y-74629774D01*
X128825487Y-74631251D01*
X128745370Y-74612535D01*
X128695390Y-74584747D01*
X128616838Y-74523641D01*
X128562463Y-74457554D01*
X128528052Y-74374441D01*
X128509388Y-74262254D01*
X128502256Y-74108946D01*
X128501687Y-74031136D01*
X128503622Y-73937853D01*
X128679899Y-73937853D01*
X128681944Y-73987896D01*
X128687039Y-73996092D01*
X128720666Y-73984958D01*
X128793030Y-73955493D01*
X128889747Y-73913601D01*
X128909973Y-73904597D01*
X129032203Y-73842442D01*
X129099547Y-73787815D01*
X129114348Y-73736649D01*
X129078947Y-73684876D01*
X129049711Y-73662000D01*
X128944216Y-73616250D01*
X128845476Y-73623808D01*
X128762812Y-73679651D01*
X128705548Y-73778753D01*
X128687188Y-73857414D01*
X128679899Y-73937853D01*
X128503622Y-73937853D01*
X128505459Y-73849351D01*
X128519359Y-73714853D01*
X128546894Y-73616916D01*
X128591572Y-73544811D01*
X128656901Y-73487813D01*
X128685383Y-73469393D01*
X128814763Y-73421422D01*
X128956412Y-73418403D01*
X129093439Y-73456540D01*
G36*
X122959014Y-63952998D02*
G01*
X123117006Y-63953863D01*
X123231347Y-63956205D01*
X123309407Y-63960762D01*
X123358554Y-63968270D01*
X123386159Y-63979466D01*
X123399592Y-63995088D01*
X123406221Y-64015873D01*
X123406865Y-64018563D01*
X123416935Y-64067113D01*
X123435575Y-64162905D01*
X123460845Y-64295743D01*
X123490807Y-64455431D01*
X123523522Y-64631774D01*
X123524664Y-64637967D01*
X123557433Y-64810782D01*
X123588093Y-64963469D01*
X123614664Y-65086871D01*
X123635167Y-65171831D01*
X123647626Y-65209190D01*
X123648220Y-65209852D01*
X123684919Y-65228095D01*
X123760586Y-65258497D01*
X123858878Y-65294493D01*
X123859425Y-65294685D01*
X123983233Y-65341222D01*
X124129196Y-65400504D01*
X124266781Y-65460109D01*
X124273293Y-65463056D01*
X124497390Y-65564765D01*
X124993619Y-65225897D01*
X125145846Y-65122592D01*
X125283741Y-65030237D01*
X125399315Y-64954084D01*
X125484579Y-64899385D01*
X125531544Y-64871393D01*
X125536004Y-64869317D01*
X125570134Y-64878560D01*
X125633881Y-64923156D01*
X125729731Y-65005209D01*
X125860169Y-65126821D01*
X125993328Y-65256205D01*
X126121694Y-65383702D01*
X126236581Y-65500046D01*
X126331073Y-65598052D01*
X126398253Y-65670536D01*
X126431206Y-65710313D01*
X126432432Y-65712361D01*
X126436074Y-65739656D01*
X126422350Y-65784234D01*
X126387869Y-65852112D01*
X126329239Y-65949311D01*
X126243070Y-66081851D01*
X126128200Y-66252476D01*
X126026254Y-66402655D01*
X125935123Y-66537350D01*
X125860073Y-66648740D01*
X125806369Y-66729005D01*
X125779280Y-66770325D01*
X125777574Y-66773130D01*
X125780882Y-66812721D01*
X125805953Y-66889669D01*
X125847798Y-66989432D01*
X125862712Y-67021291D01*
X125927786Y-67163226D01*
X125997212Y-67324273D01*
X126053609Y-67463621D01*
X126094247Y-67567044D01*
X126126526Y-67645642D01*
X126145178Y-67686720D01*
X126147497Y-67689885D01*
X126181803Y-67695128D01*
X126262669Y-67709494D01*
X126379343Y-67730937D01*
X126521075Y-67757413D01*
X126677110Y-67786877D01*
X126836698Y-67817283D01*
X126989085Y-67846588D01*
X127123521Y-67872745D01*
X127229252Y-67893710D01*
X127295526Y-67907439D01*
X127311782Y-67911320D01*
X127328573Y-67920900D01*
X127341249Y-67942536D01*
X127350378Y-67983531D01*
X127356531Y-68051189D01*
X127360280Y-68152812D01*
X127362192Y-68295703D01*
X127362840Y-68487165D01*
X127362874Y-68565645D01*
X127362874Y-69203906D01*
X127209598Y-69234160D01*
X127124322Y-69250564D01*
X126997070Y-69274509D01*
X126843315Y-69303107D01*
X126678534Y-69333467D01*
X126632989Y-69341806D01*
X126480932Y-69371370D01*
X126348468Y-69400442D01*
X126246714Y-69426329D01*
X126186788Y-69446337D01*
X126176805Y-69452301D01*
X126152293Y-69494534D01*
X126117148Y-69576370D01*
X126078173Y-69681683D01*
X126070442Y-69704368D01*
X126019360Y-69845018D01*
X125955954Y-70003714D01*
X125893904Y-70146225D01*
X125893598Y-70146886D01*
X125790267Y-70370440D01*
X126469961Y-71370232D01*
X126033621Y-71807300D01*
X125901649Y-71937381D01*
X125781279Y-72052048D01*
X125679273Y-72145181D01*
X125602391Y-72210658D01*
X125557393Y-72242357D01*
X125550938Y-72244368D01*
X125513040Y-72228529D01*
X125435708Y-72184496D01*
X125327389Y-72117490D01*
X125196532Y-72032734D01*
X125055052Y-71937816D01*
X124911461Y-71840998D01*
X124783435Y-71756751D01*
X124679105Y-71690258D01*
X124606600Y-71646702D01*
X124574158Y-71631264D01*
X124534576Y-71644328D01*
X124459519Y-71678750D01*
X124364468Y-71727380D01*
X124354392Y-71732785D01*
X124226391Y-71796980D01*
X124138618Y-71828463D01*
X124084028Y-71828798D01*
X124055575Y-71799548D01*
X124055410Y-71799138D01*
X124041188Y-71764498D01*
X124007269Y-71682269D01*
X123956284Y-71558814D01*
X123890862Y-71400498D01*
X123813634Y-71213686D01*
X123727229Y-71004742D01*
X123643551Y-70802446D01*
X123551588Y-70579200D01*
X123467150Y-70372392D01*
X123392769Y-70188362D01*
X123330974Y-70033451D01*
X123284297Y-69913996D01*
X123255268Y-69836339D01*
X123246322Y-69807356D01*
X123268756Y-69774110D01*
X123327439Y-69721123D01*
X123405689Y-69662704D01*
X123628534Y-69477952D01*
X123802718Y-69266182D01*
X123926154Y-69031856D01*
X123996754Y-68779434D01*
X124012431Y-68513377D01*
X124001036Y-68390575D01*
X123938950Y-68135793D01*
X123832023Y-67910801D01*
X123686889Y-67717817D01*
X123510178Y-67559061D01*
X123308522Y-67436750D01*
X123088554Y-67353105D01*
X122856906Y-67310344D01*
X122620209Y-67310687D01*
X122385095Y-67356352D01*
X122158196Y-67449559D01*
X121946144Y-67592527D01*
X121857636Y-67673383D01*
X121687889Y-67881007D01*
X121569699Y-68107895D01*
X121502278Y-68347433D01*
X121484840Y-68593007D01*
X121516598Y-68838003D01*
X121596765Y-69075808D01*
X121724555Y-69299807D01*
X121899180Y-69503387D01*
X122094312Y-69662704D01*
X122175591Y-69723602D01*
X122233009Y-69776015D01*
X122253678Y-69807406D01*
X122242856Y-69841639D01*
X122212077Y-69923419D01*
X122163874Y-70046407D01*
X122100778Y-70204263D01*
X122025322Y-70390649D01*
X121940038Y-70599226D01*
X121856219Y-70802496D01*
X121763745Y-71025933D01*
X121678089Y-71232984D01*
X121601882Y-71417286D01*
X121537753Y-71572475D01*
X121488332Y-71692188D01*
X121456248Y-71770061D01*
X121444359Y-71799138D01*
X121416274Y-71828677D01*
X121361949Y-71828591D01*
X121274395Y-71797326D01*
X121146619Y-71733329D01*
X121145608Y-71732785D01*
X121049402Y-71683121D01*
X120971631Y-71646945D01*
X120927777Y-71631408D01*
X120925842Y-71631264D01*
X120892829Y-71647024D01*
X120819946Y-71690850D01*
X120715322Y-71757557D01*
X120587090Y-71841964D01*
X120444948Y-71937816D01*
X120300233Y-72034867D01*
X120169804Y-72119270D01*
X120062110Y-72185801D01*
X119985598Y-72229238D01*
X119949062Y-72244368D01*
X119915418Y-72224482D01*
X119847776Y-72168903D01*
X119752893Y-72083754D01*
X119637530Y-71975153D01*
X119508445Y-71849221D01*
X119466229Y-71807149D01*
X119029739Y-71369931D01*
X119361977Y-70882340D01*
X119462946Y-70732605D01*
X119551562Y-70598220D01*
X119622854Y-70486969D01*
X119671850Y-70406639D01*
X119693578Y-70365014D01*
X119694215Y-70362053D01*
X119682760Y-70322818D01*
X119651949Y-70243895D01*
X119607116Y-70138509D01*
X119575647Y-70067954D01*
X119516808Y-69932876D01*
X119461396Y-69796409D01*
X119418436Y-69681103D01*
X119406766Y-69645977D01*
X119373611Y-69552174D01*
X119341201Y-69479694D01*
X119323399Y-69452301D01*
X119284114Y-69435536D01*
X119198374Y-69411770D01*
X119077303Y-69383697D01*
X118932027Y-69354009D01*
X118867012Y-69341806D01*
X118701913Y-69311468D01*
X118543552Y-69282093D01*
X118407404Y-69256569D01*
X118308943Y-69237785D01*
X118290402Y-69234160D01*
X118137127Y-69203906D01*
X118137127Y-68565645D01*
X118137471Y-68355770D01*
X118138884Y-68196980D01*
X118141936Y-68081973D01*
X118147197Y-68003446D01*
X118155237Y-67954096D01*
X118166627Y-67926619D01*
X118181937Y-67913713D01*
X118188218Y-67911320D01*
X118226104Y-67902833D01*
X118309805Y-67885900D01*
X118428567Y-67862566D01*
X118571639Y-67834875D01*
X118728268Y-67804873D01*
X118887703Y-67774604D01*
X119039191Y-67746115D01*
X119171981Y-67721449D01*
X119275319Y-67702651D01*
X119338455Y-67691767D01*
X119352503Y-67689885D01*
X119365230Y-67664704D01*
X119393400Y-67597622D01*
X119431748Y-67501333D01*
X119446391Y-67463621D01*
X119505452Y-67317921D01*
X119575000Y-67156951D01*
X119637288Y-67021291D01*
X119683121Y-66917561D01*
X119713613Y-66832326D01*
X119723792Y-66780126D01*
X119722169Y-66773130D01*
X119700657Y-66740102D01*
X119651535Y-66666643D01*
X119580077Y-66560577D01*
X119491555Y-66429726D01*
X119391241Y-66281912D01*
X119371406Y-66252734D01*
X119255012Y-66079863D01*
X119169452Y-65948226D01*
X119111316Y-65851761D01*
X119077192Y-65784408D01*
X119063669Y-65740106D01*
X119067336Y-65712794D01*
X119067430Y-65712620D01*
X119096293Y-65676746D01*
X119160133Y-65607391D01*
X119252031Y-65511745D01*
X119365067Y-65396999D01*
X119492321Y-65270341D01*
X119506672Y-65256205D01*
X119667043Y-65100903D01*
X119790805Y-64986870D01*
X119880445Y-64912002D01*
X119938448Y-64874196D01*
X119963996Y-64869317D01*
X120001282Y-64890603D01*
X120078657Y-64939773D01*
X120188133Y-65011575D01*
X120321720Y-65100755D01*
X120471430Y-65202063D01*
X120506382Y-65225897D01*
X121002610Y-65564765D01*
X121226707Y-65463056D01*
X121362989Y-65403783D01*
X121509276Y-65344170D01*
X121635035Y-65296640D01*
X121640575Y-65294685D01*
X121738943Y-65258677D01*
X121814771Y-65228229D01*
X121851718Y-65209905D01*
X121851780Y-65209852D01*
X121863504Y-65176729D01*
X121883432Y-65095267D01*
X121909587Y-64974625D01*
X121939990Y-64823959D01*
X121972663Y-64652428D01*
X121975336Y-64637967D01*
X122008110Y-64461235D01*
X122038198Y-64300810D01*
X122063661Y-64166888D01*
X122082559Y-64069663D01*
X122092953Y-64019332D01*
X122093135Y-64018563D01*
X122099461Y-63997153D01*
X122111761Y-63980988D01*
X122137406Y-63969331D01*
X122183765Y-63961445D01*
X122258208Y-63956593D01*
X122368105Y-63954039D01*
X122520825Y-63953045D01*
X122723738Y-63952874D01*
X122750000Y-63952874D01*
X122959014Y-63952998D01*
G37*
X122959014Y-63952998D02*
X123117006Y-63953863D01*
X123231347Y-63956205D01*
X123309407Y-63960762D01*
X123358554Y-63968270D01*
X123386159Y-63979466D01*
X123399592Y-63995088D01*
X123406221Y-64015873D01*
X123406865Y-64018563D01*
X123416935Y-64067113D01*
X123435575Y-64162905D01*
X123460845Y-64295743D01*
X123490807Y-64455431D01*
X123523522Y-64631774D01*
X123524664Y-64637967D01*
X123557433Y-64810782D01*
X123588093Y-64963469D01*
X123614664Y-65086871D01*
X123635167Y-65171831D01*
X123647626Y-65209190D01*
X123648220Y-65209852D01*
X123684919Y-65228095D01*
X123760586Y-65258497D01*
X123858878Y-65294493D01*
X123859425Y-65294685D01*
X123983233Y-65341222D01*
X124129196Y-65400504D01*
X124266781Y-65460109D01*
X124273293Y-65463056D01*
X124497390Y-65564765D01*
X124993619Y-65225897D01*
X125145846Y-65122592D01*
X125283741Y-65030237D01*
X125399315Y-64954084D01*
X125484579Y-64899385D01*
X125531544Y-64871393D01*
X125536004Y-64869317D01*
X125570134Y-64878560D01*
X125633881Y-64923156D01*
X125729731Y-65005209D01*
X125860169Y-65126821D01*
X125993328Y-65256205D01*
X126121694Y-65383702D01*
X126236581Y-65500046D01*
X126331073Y-65598052D01*
X126398253Y-65670536D01*
X126431206Y-65710313D01*
X126432432Y-65712361D01*
X126436074Y-65739656D01*
X126422350Y-65784234D01*
X126387869Y-65852112D01*
X126329239Y-65949311D01*
X126243070Y-66081851D01*
X126128200Y-66252476D01*
X126026254Y-66402655D01*
X125935123Y-66537350D01*
X125860073Y-66648740D01*
X125806369Y-66729005D01*
X125779280Y-66770325D01*
X125777574Y-66773130D01*
X125780882Y-66812721D01*
X125805953Y-66889669D01*
X125847798Y-66989432D01*
X125862712Y-67021291D01*
X125927786Y-67163226D01*
X125997212Y-67324273D01*
X126053609Y-67463621D01*
X126094247Y-67567044D01*
X126126526Y-67645642D01*
X126145178Y-67686720D01*
X126147497Y-67689885D01*
X126181803Y-67695128D01*
X126262669Y-67709494D01*
X126379343Y-67730937D01*
X126521075Y-67757413D01*
X126677110Y-67786877D01*
X126836698Y-67817283D01*
X126989085Y-67846588D01*
X127123521Y-67872745D01*
X127229252Y-67893710D01*
X127295526Y-67907439D01*
X127311782Y-67911320D01*
X127328573Y-67920900D01*
X127341249Y-67942536D01*
X127350378Y-67983531D01*
X127356531Y-68051189D01*
X127360280Y-68152812D01*
X127362192Y-68295703D01*
X127362840Y-68487165D01*
X127362874Y-68565645D01*
X127362874Y-69203906D01*
X127209598Y-69234160D01*
X127124322Y-69250564D01*
X126997070Y-69274509D01*
X126843315Y-69303107D01*
X126678534Y-69333467D01*
X126632989Y-69341806D01*
X126480932Y-69371370D01*
X126348468Y-69400442D01*
X126246714Y-69426329D01*
X126186788Y-69446337D01*
X126176805Y-69452301D01*
X126152293Y-69494534D01*
X126117148Y-69576370D01*
X126078173Y-69681683D01*
X126070442Y-69704368D01*
X126019360Y-69845018D01*
X125955954Y-70003714D01*
X125893904Y-70146225D01*
X125893598Y-70146886D01*
X125790267Y-70370440D01*
X126469961Y-71370232D01*
X126033621Y-71807300D01*
X125901649Y-71937381D01*
X125781279Y-72052048D01*
X125679273Y-72145181D01*
X125602391Y-72210658D01*
X125557393Y-72242357D01*
X125550938Y-72244368D01*
X125513040Y-72228529D01*
X125435708Y-72184496D01*
X125327389Y-72117490D01*
X125196532Y-72032734D01*
X125055052Y-71937816D01*
X124911461Y-71840998D01*
X124783435Y-71756751D01*
X124679105Y-71690258D01*
X124606600Y-71646702D01*
X124574158Y-71631264D01*
X124534576Y-71644328D01*
X124459519Y-71678750D01*
X124364468Y-71727380D01*
X124354392Y-71732785D01*
X124226391Y-71796980D01*
X124138618Y-71828463D01*
X124084028Y-71828798D01*
X124055575Y-71799548D01*
X124055410Y-71799138D01*
X124041188Y-71764498D01*
X124007269Y-71682269D01*
X123956284Y-71558814D01*
X123890862Y-71400498D01*
X123813634Y-71213686D01*
X123727229Y-71004742D01*
X123643551Y-70802446D01*
X123551588Y-70579200D01*
X123467150Y-70372392D01*
X123392769Y-70188362D01*
X123330974Y-70033451D01*
X123284297Y-69913996D01*
X123255268Y-69836339D01*
X123246322Y-69807356D01*
X123268756Y-69774110D01*
X123327439Y-69721123D01*
X123405689Y-69662704D01*
X123628534Y-69477952D01*
X123802718Y-69266182D01*
X123926154Y-69031856D01*
X123996754Y-68779434D01*
X124012431Y-68513377D01*
X124001036Y-68390575D01*
X123938950Y-68135793D01*
X123832023Y-67910801D01*
X123686889Y-67717817D01*
X123510178Y-67559061D01*
X123308522Y-67436750D01*
X123088554Y-67353105D01*
X122856906Y-67310344D01*
X122620209Y-67310687D01*
X122385095Y-67356352D01*
X122158196Y-67449559D01*
X121946144Y-67592527D01*
X121857636Y-67673383D01*
X121687889Y-67881007D01*
X121569699Y-68107895D01*
X121502278Y-68347433D01*
X121484840Y-68593007D01*
X121516598Y-68838003D01*
X121596765Y-69075808D01*
X121724555Y-69299807D01*
X121899180Y-69503387D01*
X122094312Y-69662704D01*
X122175591Y-69723602D01*
X122233009Y-69776015D01*
X122253678Y-69807406D01*
X122242856Y-69841639D01*
X122212077Y-69923419D01*
X122163874Y-70046407D01*
X122100778Y-70204263D01*
X122025322Y-70390649D01*
X121940038Y-70599226D01*
X121856219Y-70802496D01*
X121763745Y-71025933D01*
X121678089Y-71232984D01*
X121601882Y-71417286D01*
X121537753Y-71572475D01*
X121488332Y-71692188D01*
X121456248Y-71770061D01*
X121444359Y-71799138D01*
X121416274Y-71828677D01*
X121361949Y-71828591D01*
X121274395Y-71797326D01*
X121146619Y-71733329D01*
X121145608Y-71732785D01*
X121049402Y-71683121D01*
X120971631Y-71646945D01*
X120927777Y-71631408D01*
X120925842Y-71631264D01*
X120892829Y-71647024D01*
X120819946Y-71690850D01*
X120715322Y-71757557D01*
X120587090Y-71841964D01*
X120444948Y-71937816D01*
X120300233Y-72034867D01*
X120169804Y-72119270D01*
X120062110Y-72185801D01*
X119985598Y-72229238D01*
X119949062Y-72244368D01*
X119915418Y-72224482D01*
X119847776Y-72168903D01*
X119752893Y-72083754D01*
X119637530Y-71975153D01*
X119508445Y-71849221D01*
X119466229Y-71807149D01*
X119029739Y-71369931D01*
X119361977Y-70882340D01*
X119462946Y-70732605D01*
X119551562Y-70598220D01*
X119622854Y-70486969D01*
X119671850Y-70406639D01*
X119693578Y-70365014D01*
X119694215Y-70362053D01*
X119682760Y-70322818D01*
X119651949Y-70243895D01*
X119607116Y-70138509D01*
X119575647Y-70067954D01*
X119516808Y-69932876D01*
X119461396Y-69796409D01*
X119418436Y-69681103D01*
X119406766Y-69645977D01*
X119373611Y-69552174D01*
X119341201Y-69479694D01*
X119323399Y-69452301D01*
X119284114Y-69435536D01*
X119198374Y-69411770D01*
X119077303Y-69383697D01*
X118932027Y-69354009D01*
X118867012Y-69341806D01*
X118701913Y-69311468D01*
X118543552Y-69282093D01*
X118407404Y-69256569D01*
X118308943Y-69237785D01*
X118290402Y-69234160D01*
X118137127Y-69203906D01*
X118137127Y-68565645D01*
X118137471Y-68355770D01*
X118138884Y-68196980D01*
X118141936Y-68081973D01*
X118147197Y-68003446D01*
X118155237Y-67954096D01*
X118166627Y-67926619D01*
X118181937Y-67913713D01*
X118188218Y-67911320D01*
X118226104Y-67902833D01*
X118309805Y-67885900D01*
X118428567Y-67862566D01*
X118571639Y-67834875D01*
X118728268Y-67804873D01*
X118887703Y-67774604D01*
X119039191Y-67746115D01*
X119171981Y-67721449D01*
X119275319Y-67702651D01*
X119338455Y-67691767D01*
X119352503Y-67689885D01*
X119365230Y-67664704D01*
X119393400Y-67597622D01*
X119431748Y-67501333D01*
X119446391Y-67463621D01*
X119505452Y-67317921D01*
X119575000Y-67156951D01*
X119637288Y-67021291D01*
X119683121Y-66917561D01*
X119713613Y-66832326D01*
X119723792Y-66780126D01*
X119722169Y-66773130D01*
X119700657Y-66740102D01*
X119651535Y-66666643D01*
X119580077Y-66560577D01*
X119491555Y-66429726D01*
X119391241Y-66281912D01*
X119371406Y-66252734D01*
X119255012Y-66079863D01*
X119169452Y-65948226D01*
X119111316Y-65851761D01*
X119077192Y-65784408D01*
X119063669Y-65740106D01*
X119067336Y-65712794D01*
X119067430Y-65712620D01*
X119096293Y-65676746D01*
X119160133Y-65607391D01*
X119252031Y-65511745D01*
X119365067Y-65396999D01*
X119492321Y-65270341D01*
X119506672Y-65256205D01*
X119667043Y-65100903D01*
X119790805Y-64986870D01*
X119880445Y-64912002D01*
X119938448Y-64874196D01*
X119963996Y-64869317D01*
X120001282Y-64890603D01*
X120078657Y-64939773D01*
X120188133Y-65011575D01*
X120321720Y-65100755D01*
X120471430Y-65202063D01*
X120506382Y-65225897D01*
X121002610Y-65564765D01*
X121226707Y-65463056D01*
X121362989Y-65403783D01*
X121509276Y-65344170D01*
X121635035Y-65296640D01*
X121640575Y-65294685D01*
X121738943Y-65258677D01*
X121814771Y-65228229D01*
X121851718Y-65209905D01*
X121851780Y-65209852D01*
X121863504Y-65176729D01*
X121883432Y-65095267D01*
X121909587Y-64974625D01*
X121939990Y-64823959D01*
X121972663Y-64652428D01*
X121975336Y-64637967D01*
X122008110Y-64461235D01*
X122038198Y-64300810D01*
X122063661Y-64166888D01*
X122082559Y-64069663D01*
X122092953Y-64019332D01*
X122093135Y-64018563D01*
X122099461Y-63997153D01*
X122111761Y-63980988D01*
X122137406Y-63969331D01*
X122183765Y-63961445D01*
X122258208Y-63956593D01*
X122368105Y-63954039D01*
X122520825Y-63953045D01*
X122723738Y-63952874D01*
X122750000Y-63952874D01*
X122959014Y-63952998D01*
D11*
%TO.C,C2*%
X98380000Y-68130000D02*
X103620000Y-68130000D01*
X98380000Y-70870000D02*
X103620000Y-70870000D01*
X98380000Y-68130000D02*
X98380000Y-70870000D01*
X103620000Y-68130000D02*
X103620000Y-70870000D01*
%TO.C,C3*%
X74870000Y-77870000D02*
X72130000Y-77870000D01*
X74870000Y-72630000D02*
X72130000Y-72630000D01*
X72130000Y-72630000D02*
X72130000Y-77870000D01*
X74870000Y-72630000D02*
X74870000Y-77870000D01*
%TO.C,C4*%
X113130000Y-33130000D02*
X115870000Y-33130000D01*
X113130000Y-38370000D02*
X115870000Y-38370000D01*
X115870000Y-38370000D02*
X115870000Y-33130000D01*
X113130000Y-38370000D02*
X113130000Y-33130000D01*
%TO.C,C5*%
X113380000Y-76370000D02*
X113380000Y-71130000D01*
X116120000Y-76370000D02*
X116120000Y-71130000D01*
X113380000Y-76370000D02*
X116120000Y-76370000D01*
X113380000Y-71130000D02*
X116120000Y-71130000D01*
%TO.C,C6*%
X62630000Y-56630000D02*
X67870000Y-56630000D01*
X62630000Y-59370000D02*
X67870000Y-59370000D01*
X62630000Y-56630000D02*
X62630000Y-59370000D01*
X67870000Y-56630000D02*
X67870000Y-59370000D01*
%TO.C,C7*%
X67870000Y-50630000D02*
X67870000Y-53370000D01*
X62630000Y-50630000D02*
X62630000Y-53370000D01*
X62630000Y-53370000D02*
X67870000Y-53370000D01*
X62630000Y-50630000D02*
X67870000Y-50630000D01*
%TO.C,C8*%
X72870000Y-52630000D02*
X72870000Y-57870000D01*
X70130000Y-52630000D02*
X70130000Y-57870000D01*
X72870000Y-52630000D02*
X70130000Y-52630000D01*
X72870000Y-57870000D02*
X70130000Y-57870000D01*
%TO.C,D1*%
X122120000Y-53540000D02*
X119880000Y-53540000D01*
X122120000Y-53780000D02*
X119880000Y-53780000D01*
X122120000Y-53660000D02*
X119880000Y-53660000D01*
X121000000Y-57830000D02*
X121000000Y-57180000D01*
X121000000Y-52290000D02*
X121000000Y-52940000D01*
X122120000Y-57180000D02*
X122120000Y-52940000D01*
X119880000Y-57180000D02*
X122120000Y-57180000D01*
X119880000Y-52940000D02*
X119880000Y-57180000D01*
X122120000Y-52940000D02*
X119880000Y-52940000D01*
%TO.C,D2*%
X48120000Y-43690000D02*
X45880000Y-43690000D01*
X45880000Y-43690000D02*
X45880000Y-47930000D01*
X45880000Y-47930000D02*
X48120000Y-47930000D01*
X48120000Y-47930000D02*
X48120000Y-43690000D01*
X47000000Y-43040000D02*
X47000000Y-43690000D01*
X47000000Y-48580000D02*
X47000000Y-47930000D01*
X48120000Y-44410000D02*
X45880000Y-44410000D01*
X48120000Y-44530000D02*
X45880000Y-44530000D01*
X48120000Y-44290000D02*
X45880000Y-44290000D01*
%TO.C,D3*%
X48120000Y-63170000D02*
X45880000Y-63170000D01*
X48120000Y-63410000D02*
X45880000Y-63410000D01*
X48120000Y-63290000D02*
X45880000Y-63290000D01*
X47000000Y-67460000D02*
X47000000Y-66810000D01*
X47000000Y-61920000D02*
X47000000Y-62570000D01*
X48120000Y-66810000D02*
X48120000Y-62570000D01*
X45880000Y-66810000D02*
X48120000Y-66810000D01*
X45880000Y-62570000D02*
X45880000Y-66810000D01*
X48120000Y-62570000D02*
X45880000Y-62570000D01*
%TO.C,D4*%
X54120000Y-43690000D02*
X51880000Y-43690000D01*
X51880000Y-43690000D02*
X51880000Y-47930000D01*
X51880000Y-47930000D02*
X54120000Y-47930000D01*
X54120000Y-47930000D02*
X54120000Y-43690000D01*
X53000000Y-43040000D02*
X53000000Y-43690000D01*
X53000000Y-48580000D02*
X53000000Y-47930000D01*
X54120000Y-44410000D02*
X51880000Y-44410000D01*
X54120000Y-44530000D02*
X51880000Y-44530000D01*
X54120000Y-44290000D02*
X51880000Y-44290000D01*
%TO.C,D5*%
X54120000Y-62690000D02*
X51880000Y-62690000D01*
X51880000Y-62690000D02*
X51880000Y-66930000D01*
X51880000Y-66930000D02*
X54120000Y-66930000D01*
X54120000Y-66930000D02*
X54120000Y-62690000D01*
X53000000Y-62040000D02*
X53000000Y-62690000D01*
X53000000Y-67580000D02*
X53000000Y-66930000D01*
X54120000Y-63410000D02*
X51880000Y-63410000D01*
X54120000Y-63530000D02*
X51880000Y-63530000D01*
X54120000Y-63290000D02*
X51880000Y-63290000D01*
%TO.C,R1*%
X105830000Y-71620000D02*
X105830000Y-75460000D01*
X107670000Y-71620000D02*
X107670000Y-75460000D01*
%TO.C,R2*%
X53920000Y-34200000D02*
X53920000Y-38040000D01*
X52080000Y-34200000D02*
X52080000Y-38040000D01*
%TO.C,R3*%
X46080000Y-37960000D02*
X46080000Y-34120000D01*
X47920000Y-37960000D02*
X47920000Y-34120000D01*
%TO.C,R4*%
X47920000Y-72620000D02*
X47920000Y-76460000D01*
X46080000Y-72620000D02*
X46080000Y-76460000D01*
%TO.C,R5*%
X113880000Y-42420000D02*
X110040000Y-42420000D01*
X113880000Y-40580000D02*
X110040000Y-40580000D01*
%TO.C,R6*%
X124080000Y-53040000D02*
X124080000Y-56880000D01*
X125920000Y-53040000D02*
X125920000Y-56880000D01*
%TO.C,R7*%
X108920000Y-38460000D02*
X108920000Y-34620000D01*
X107080000Y-38460000D02*
X107080000Y-34620000D01*
%TO.C,R8*%
X114130000Y-67830000D02*
X110290000Y-67830000D01*
X114130000Y-69670000D02*
X110290000Y-69670000D01*
%TO.C,R9*%
X63620000Y-48420000D02*
X67460000Y-48420000D01*
X63620000Y-46580000D02*
X67460000Y-46580000D01*
%TO.C,R10*%
X53920000Y-72620000D02*
X53920000Y-76460000D01*
X52080000Y-72620000D02*
X52080000Y-76460000D01*
%TO.C,R11*%
X63620000Y-62580000D02*
X67460000Y-62580000D01*
X63620000Y-64420000D02*
X67460000Y-64420000D01*
%TO.C,R12*%
X93630000Y-57830000D02*
X89790000Y-57830000D01*
X93630000Y-59670000D02*
X89790000Y-59670000D01*
%TO.C,R13*%
X93630000Y-62170000D02*
X89790000Y-62170000D01*
X93630000Y-60330000D02*
X89790000Y-60330000D01*
%TO.C,R14*%
X93710000Y-62830000D02*
X89870000Y-62830000D01*
X93710000Y-64670000D02*
X89870000Y-64670000D01*
%TO.C,R15*%
X93710000Y-67420000D02*
X89870000Y-67420000D01*
X93710000Y-65580000D02*
X89870000Y-65580000D01*
%TO.C,R16*%
X93710000Y-68080000D02*
X89870000Y-68080000D01*
X93710000Y-69920000D02*
X89870000Y-69920000D01*
%TO.C,R17*%
X93710000Y-72420000D02*
X89870000Y-72420000D01*
X93710000Y-70580000D02*
X89870000Y-70580000D01*
%TO.C,R18*%
X93710000Y-73080000D02*
X89870000Y-73080000D01*
X93710000Y-74920000D02*
X89870000Y-74920000D01*
%TO.C,R20*%
X93630000Y-33080000D02*
X89790000Y-33080000D01*
X93630000Y-34920000D02*
X89790000Y-34920000D01*
%TO.C,R21*%
X93630000Y-37420000D02*
X89790000Y-37420000D01*
X93630000Y-35580000D02*
X89790000Y-35580000D01*
%TO.C,R22*%
X93630000Y-38080000D02*
X89790000Y-38080000D01*
X93630000Y-39920000D02*
X89790000Y-39920000D01*
%TO.C,R23*%
X93630000Y-42420000D02*
X89790000Y-42420000D01*
X93630000Y-40580000D02*
X89790000Y-40580000D01*
%TO.C,R24*%
X93630000Y-43330000D02*
X89790000Y-43330000D01*
X93630000Y-45170000D02*
X89790000Y-45170000D01*
%TO.C,R25*%
X93630000Y-47670000D02*
X89790000Y-47670000D01*
X93630000Y-45830000D02*
X89790000Y-45830000D01*
%TO.C,R26*%
X93630000Y-48330000D02*
X89790000Y-48330000D01*
X93630000Y-50170000D02*
X89790000Y-50170000D01*
%TO.C,SW1*%
X81610000Y-57470000D02*
X79960000Y-57470000D01*
X79960000Y-57470000D02*
X79960000Y-77910000D01*
X79960000Y-77910000D02*
X85260000Y-77910000D01*
X85260000Y-77910000D02*
X85260000Y-57470000D01*
X85260000Y-57470000D02*
X83610000Y-57470000D01*
X83610000Y-57470000D02*
G75*
G02*
X81610000Y-57470000I-1000000J0D01*
G01*
%TO.C,SW2*%
X81410000Y-32670000D02*
X79760000Y-32670000D01*
X79760000Y-32670000D02*
X79760000Y-53110000D01*
X79760000Y-53110000D02*
X85060000Y-53110000D01*
X85060000Y-53110000D02*
X85060000Y-32670000D01*
X85060000Y-32670000D02*
X83410000Y-32670000D01*
X83410000Y-32670000D02*
G75*
G02*
X81410000Y-32670000I-1000000J0D01*
G01*
%TO.C,U1*%
X70450000Y-67610000D02*
X60170000Y-67610000D01*
X70450000Y-78010000D02*
X70450000Y-67610000D01*
X60170000Y-78010000D02*
X70450000Y-78010000D01*
X60170000Y-67610000D02*
X60170000Y-78010000D01*
X67960000Y-67670000D02*
X66310000Y-67670000D01*
X67960000Y-77950000D02*
X67960000Y-67670000D01*
X62660000Y-77950000D02*
X67960000Y-77950000D01*
X62660000Y-67670000D02*
X62660000Y-77950000D01*
X64310000Y-67670000D02*
X62660000Y-67670000D01*
X66310000Y-67670000D02*
G75*
G02*
X64310000Y-67670000I-1000000J0D01*
G01*
%TO.C,U2*%
X64810000Y-32670000D02*
X63160000Y-32670000D01*
X63160000Y-32670000D02*
X63160000Y-42950000D01*
X63160000Y-42950000D02*
X68460000Y-42950000D01*
X68460000Y-42950000D02*
X68460000Y-32670000D01*
X68460000Y-32670000D02*
X66810000Y-32670000D01*
X60670000Y-32610000D02*
X60670000Y-43010000D01*
X60670000Y-43010000D02*
X70950000Y-43010000D01*
X70950000Y-43010000D02*
X70950000Y-32610000D01*
X70950000Y-32610000D02*
X60670000Y-32610000D01*
X66810000Y-32670000D02*
G75*
G02*
X64810000Y-32670000I-1000000J0D01*
G01*
%TO.C,C1*%
X72630000Y-38620000D02*
X72630000Y-33380000D01*
X75370000Y-38620000D02*
X75370000Y-33380000D01*
X72630000Y-38620000D02*
X72945000Y-38620000D01*
X75055000Y-38620000D02*
X75370000Y-38620000D01*
X72630000Y-33380000D02*
X72945000Y-33380000D01*
X75055000Y-33380000D02*
X75370000Y-33380000D01*
%TO.C,C9*%
X103620000Y-42620000D02*
X98380000Y-42620000D01*
X103620000Y-39880000D02*
X98380000Y-39880000D01*
X103620000Y-42620000D02*
X103620000Y-39880000D01*
X98380000Y-42620000D02*
X98380000Y-39880000D01*
%TO.C,C2*%
D10*
X100833333Y-67357142D02*
X100785714Y-67404761D01*
X100642857Y-67452380D01*
X100547619Y-67452380D01*
X100404761Y-67404761D01*
X100309523Y-67309523D01*
X100261904Y-67214285D01*
X100214285Y-67023809D01*
X100214285Y-66880952D01*
X100261904Y-66690476D01*
X100309523Y-66595238D01*
X100404761Y-66500000D01*
X100547619Y-66452380D01*
X100642857Y-66452380D01*
X100785714Y-66500000D01*
X100833333Y-66547619D01*
X101214285Y-66547619D02*
X101261904Y-66500000D01*
X101357142Y-66452380D01*
X101595238Y-66452380D01*
X101690476Y-66500000D01*
X101738095Y-66547619D01*
X101785714Y-66642857D01*
X101785714Y-66738095D01*
X101738095Y-66880952D01*
X101166666Y-67452380D01*
X101785714Y-67452380D01*
%TO.C,C3*%
X76357142Y-75416666D02*
X76404761Y-75464285D01*
X76452380Y-75607142D01*
X76452380Y-75702380D01*
X76404761Y-75845238D01*
X76309523Y-75940476D01*
X76214285Y-75988095D01*
X76023809Y-76035714D01*
X75880952Y-76035714D01*
X75690476Y-75988095D01*
X75595238Y-75940476D01*
X75500000Y-75845238D01*
X75452380Y-75702380D01*
X75452380Y-75607142D01*
X75500000Y-75464285D01*
X75547619Y-75416666D01*
X75452380Y-75083333D02*
X75452380Y-74464285D01*
X75833333Y-74797619D01*
X75833333Y-74654761D01*
X75880952Y-74559523D01*
X75928571Y-74511904D01*
X76023809Y-74464285D01*
X76261904Y-74464285D01*
X76357142Y-74511904D01*
X76404761Y-74559523D01*
X76452380Y-74654761D01*
X76452380Y-74940476D01*
X76404761Y-75035714D01*
X76357142Y-75083333D01*
%TO.C,C4*%
X112357142Y-35916666D02*
X112404761Y-35964285D01*
X112452380Y-36107142D01*
X112452380Y-36202380D01*
X112404761Y-36345238D01*
X112309523Y-36440476D01*
X112214285Y-36488095D01*
X112023809Y-36535714D01*
X111880952Y-36535714D01*
X111690476Y-36488095D01*
X111595238Y-36440476D01*
X111500000Y-36345238D01*
X111452380Y-36202380D01*
X111452380Y-36107142D01*
X111500000Y-35964285D01*
X111547619Y-35916666D01*
X111785714Y-35059523D02*
X112452380Y-35059523D01*
X111404761Y-35297619D02*
X112119047Y-35535714D01*
X112119047Y-34916666D01*
%TO.C,C5*%
X112607142Y-73916666D02*
X112654761Y-73964285D01*
X112702380Y-74107142D01*
X112702380Y-74202380D01*
X112654761Y-74345238D01*
X112559523Y-74440476D01*
X112464285Y-74488095D01*
X112273809Y-74535714D01*
X112130952Y-74535714D01*
X111940476Y-74488095D01*
X111845238Y-74440476D01*
X111750000Y-74345238D01*
X111702380Y-74202380D01*
X111702380Y-74107142D01*
X111750000Y-73964285D01*
X111797619Y-73916666D01*
X111702380Y-73011904D02*
X111702380Y-73488095D01*
X112178571Y-73535714D01*
X112130952Y-73488095D01*
X112083333Y-73392857D01*
X112083333Y-73154761D01*
X112130952Y-73059523D01*
X112178571Y-73011904D01*
X112273809Y-72964285D01*
X112511904Y-72964285D01*
X112607142Y-73011904D01*
X112654761Y-73059523D01*
X112702380Y-73154761D01*
X112702380Y-73392857D01*
X112654761Y-73488095D01*
X112607142Y-73535714D01*
%TO.C,C6*%
X65083333Y-55857142D02*
X65035714Y-55904761D01*
X64892857Y-55952380D01*
X64797619Y-55952380D01*
X64654761Y-55904761D01*
X64559523Y-55809523D01*
X64511904Y-55714285D01*
X64464285Y-55523809D01*
X64464285Y-55380952D01*
X64511904Y-55190476D01*
X64559523Y-55095238D01*
X64654761Y-55000000D01*
X64797619Y-54952380D01*
X64892857Y-54952380D01*
X65035714Y-55000000D01*
X65083333Y-55047619D01*
X65940476Y-54952380D02*
X65750000Y-54952380D01*
X65654761Y-55000000D01*
X65607142Y-55047619D01*
X65511904Y-55190476D01*
X65464285Y-55380952D01*
X65464285Y-55761904D01*
X65511904Y-55857142D01*
X65559523Y-55904761D01*
X65654761Y-55952380D01*
X65845238Y-55952380D01*
X65940476Y-55904761D01*
X65988095Y-55857142D01*
X66035714Y-55761904D01*
X66035714Y-55523809D01*
X65988095Y-55428571D01*
X65940476Y-55380952D01*
X65845238Y-55333333D01*
X65654761Y-55333333D01*
X65559523Y-55380952D01*
X65511904Y-55428571D01*
X65464285Y-55523809D01*
%TO.C,C7*%
X65083333Y-49857142D02*
X65035714Y-49904761D01*
X64892857Y-49952380D01*
X64797619Y-49952380D01*
X64654761Y-49904761D01*
X64559523Y-49809523D01*
X64511904Y-49714285D01*
X64464285Y-49523809D01*
X64464285Y-49380952D01*
X64511904Y-49190476D01*
X64559523Y-49095238D01*
X64654761Y-49000000D01*
X64797619Y-48952380D01*
X64892857Y-48952380D01*
X65035714Y-49000000D01*
X65083333Y-49047619D01*
X65416666Y-48952380D02*
X66083333Y-48952380D01*
X65654761Y-49952380D01*
%TO.C,C8*%
X74357142Y-55416666D02*
X74404761Y-55464285D01*
X74452380Y-55607142D01*
X74452380Y-55702380D01*
X74404761Y-55845238D01*
X74309523Y-55940476D01*
X74214285Y-55988095D01*
X74023809Y-56035714D01*
X73880952Y-56035714D01*
X73690476Y-55988095D01*
X73595238Y-55940476D01*
X73500000Y-55845238D01*
X73452380Y-55702380D01*
X73452380Y-55607142D01*
X73500000Y-55464285D01*
X73547619Y-55416666D01*
X73880952Y-54845238D02*
X73833333Y-54940476D01*
X73785714Y-54988095D01*
X73690476Y-55035714D01*
X73642857Y-55035714D01*
X73547619Y-54988095D01*
X73500000Y-54940476D01*
X73452380Y-54845238D01*
X73452380Y-54654761D01*
X73500000Y-54559523D01*
X73547619Y-54511904D01*
X73642857Y-54464285D01*
X73690476Y-54464285D01*
X73785714Y-54511904D01*
X73833333Y-54559523D01*
X73880952Y-54654761D01*
X73880952Y-54845238D01*
X73928571Y-54940476D01*
X73976190Y-54988095D01*
X74071428Y-55035714D01*
X74261904Y-55035714D01*
X74357142Y-54988095D01*
X74404761Y-54940476D01*
X74452380Y-54845238D01*
X74452380Y-54654761D01*
X74404761Y-54559523D01*
X74357142Y-54511904D01*
X74261904Y-54464285D01*
X74071428Y-54464285D01*
X73976190Y-54511904D01*
X73928571Y-54559523D01*
X73880952Y-54654761D01*
%TO.C,D1*%
X121452380Y-55988095D02*
X120452380Y-55988095D01*
X120452380Y-55750000D01*
X120500000Y-55607142D01*
X120595238Y-55511904D01*
X120690476Y-55464285D01*
X120880952Y-55416666D01*
X121023809Y-55416666D01*
X121214285Y-55464285D01*
X121309523Y-55511904D01*
X121404761Y-55607142D01*
X121452380Y-55750000D01*
X121452380Y-55988095D01*
X121452380Y-54464285D02*
X121452380Y-55035714D01*
X121452380Y-54750000D02*
X120452380Y-54750000D01*
X120595238Y-54845238D01*
X120690476Y-54940476D01*
X120738095Y-55035714D01*
X123252380Y-51511904D02*
X122252380Y-51511904D01*
X123252380Y-50940476D02*
X122680952Y-51369047D01*
X122252380Y-50940476D02*
X122823809Y-51511904D01*
%TO.C,D2*%
X47452380Y-46738095D02*
X46452380Y-46738095D01*
X46452380Y-46500000D01*
X46500000Y-46357142D01*
X46595238Y-46261904D01*
X46690476Y-46214285D01*
X46880952Y-46166666D01*
X47023809Y-46166666D01*
X47214285Y-46214285D01*
X47309523Y-46261904D01*
X47404761Y-46357142D01*
X47452380Y-46500000D01*
X47452380Y-46738095D01*
X46547619Y-45785714D02*
X46500000Y-45738095D01*
X46452380Y-45642857D01*
X46452380Y-45404761D01*
X46500000Y-45309523D01*
X46547619Y-45261904D01*
X46642857Y-45214285D01*
X46738095Y-45214285D01*
X46880952Y-45261904D01*
X47452380Y-45833333D01*
X47452380Y-45214285D01*
X49252380Y-42261904D02*
X48252380Y-42261904D01*
X49252380Y-41690476D02*
X48680952Y-42119047D01*
X48252380Y-41690476D02*
X48823809Y-42261904D01*
%TO.C,D3*%
X47452380Y-65738095D02*
X46452380Y-65738095D01*
X46452380Y-65500000D01*
X46500000Y-65357142D01*
X46595238Y-65261904D01*
X46690476Y-65214285D01*
X46880952Y-65166666D01*
X47023809Y-65166666D01*
X47214285Y-65214285D01*
X47309523Y-65261904D01*
X47404761Y-65357142D01*
X47452380Y-65500000D01*
X47452380Y-65738095D01*
X46452380Y-64833333D02*
X46452380Y-64214285D01*
X46833333Y-64547619D01*
X46833333Y-64404761D01*
X46880952Y-64309523D01*
X46928571Y-64261904D01*
X47023809Y-64214285D01*
X47261904Y-64214285D01*
X47357142Y-64261904D01*
X47404761Y-64309523D01*
X47452380Y-64404761D01*
X47452380Y-64690476D01*
X47404761Y-64785714D01*
X47357142Y-64833333D01*
X49252380Y-61141904D02*
X48252380Y-61141904D01*
X49252380Y-60570476D02*
X48680952Y-60999047D01*
X48252380Y-60570476D02*
X48823809Y-61141904D01*
%TO.C,D4*%
X53452380Y-46738095D02*
X52452380Y-46738095D01*
X52452380Y-46500000D01*
X52500000Y-46357142D01*
X52595238Y-46261904D01*
X52690476Y-46214285D01*
X52880952Y-46166666D01*
X53023809Y-46166666D01*
X53214285Y-46214285D01*
X53309523Y-46261904D01*
X53404761Y-46357142D01*
X53452380Y-46500000D01*
X53452380Y-46738095D01*
X52785714Y-45309523D02*
X53452380Y-45309523D01*
X52404761Y-45547619D02*
X53119047Y-45785714D01*
X53119047Y-45166666D01*
X55252380Y-42261904D02*
X54252380Y-42261904D01*
X55252380Y-41690476D02*
X54680952Y-42119047D01*
X54252380Y-41690476D02*
X54823809Y-42261904D01*
%TO.C,D5*%
X53452380Y-65738095D02*
X52452380Y-65738095D01*
X52452380Y-65500000D01*
X52500000Y-65357142D01*
X52595238Y-65261904D01*
X52690476Y-65214285D01*
X52880952Y-65166666D01*
X53023809Y-65166666D01*
X53214285Y-65214285D01*
X53309523Y-65261904D01*
X53404761Y-65357142D01*
X53452380Y-65500000D01*
X53452380Y-65738095D01*
X52452380Y-64261904D02*
X52452380Y-64738095D01*
X52928571Y-64785714D01*
X52880952Y-64738095D01*
X52833333Y-64642857D01*
X52833333Y-64404761D01*
X52880952Y-64309523D01*
X52928571Y-64261904D01*
X53023809Y-64214285D01*
X53261904Y-64214285D01*
X53357142Y-64261904D01*
X53404761Y-64309523D01*
X53452380Y-64404761D01*
X53452380Y-64642857D01*
X53404761Y-64738095D01*
X53357142Y-64785714D01*
X55252380Y-61261904D02*
X54252380Y-61261904D01*
X55252380Y-60690476D02*
X54680952Y-61119047D01*
X54252380Y-60690476D02*
X54823809Y-61261904D01*
%TO.C,R1*%
X107202380Y-73666666D02*
X106726190Y-74000000D01*
X107202380Y-74238095D02*
X106202380Y-74238095D01*
X106202380Y-73857142D01*
X106250000Y-73761904D01*
X106297619Y-73714285D01*
X106392857Y-73666666D01*
X106535714Y-73666666D01*
X106630952Y-73714285D01*
X106678571Y-73761904D01*
X106726190Y-73857142D01*
X106726190Y-74238095D01*
X107202380Y-72714285D02*
X107202380Y-73285714D01*
X107202380Y-73000000D02*
X106202380Y-73000000D01*
X106345238Y-73095238D01*
X106440476Y-73190476D01*
X106488095Y-73285714D01*
%TO.C,R2*%
X53452380Y-36286666D02*
X52976190Y-36620000D01*
X53452380Y-36858095D02*
X52452380Y-36858095D01*
X52452380Y-36477142D01*
X52500000Y-36381904D01*
X52547619Y-36334285D01*
X52642857Y-36286666D01*
X52785714Y-36286666D01*
X52880952Y-36334285D01*
X52928571Y-36381904D01*
X52976190Y-36477142D01*
X52976190Y-36858095D01*
X52547619Y-35905714D02*
X52500000Y-35858095D01*
X52452380Y-35762857D01*
X52452380Y-35524761D01*
X52500000Y-35429523D01*
X52547619Y-35381904D01*
X52642857Y-35334285D01*
X52738095Y-35334285D01*
X52880952Y-35381904D01*
X53452380Y-35953333D01*
X53452380Y-35334285D01*
%TO.C,R3*%
X47452380Y-36206666D02*
X46976190Y-36540000D01*
X47452380Y-36778095D02*
X46452380Y-36778095D01*
X46452380Y-36397142D01*
X46500000Y-36301904D01*
X46547619Y-36254285D01*
X46642857Y-36206666D01*
X46785714Y-36206666D01*
X46880952Y-36254285D01*
X46928571Y-36301904D01*
X46976190Y-36397142D01*
X46976190Y-36778095D01*
X46452380Y-35873333D02*
X46452380Y-35254285D01*
X46833333Y-35587619D01*
X46833333Y-35444761D01*
X46880952Y-35349523D01*
X46928571Y-35301904D01*
X47023809Y-35254285D01*
X47261904Y-35254285D01*
X47357142Y-35301904D01*
X47404761Y-35349523D01*
X47452380Y-35444761D01*
X47452380Y-35730476D01*
X47404761Y-35825714D01*
X47357142Y-35873333D01*
%TO.C,R4*%
X47452380Y-74666666D02*
X46976190Y-75000000D01*
X47452380Y-75238095D02*
X46452380Y-75238095D01*
X46452380Y-74857142D01*
X46500000Y-74761904D01*
X46547619Y-74714285D01*
X46642857Y-74666666D01*
X46785714Y-74666666D01*
X46880952Y-74714285D01*
X46928571Y-74761904D01*
X46976190Y-74857142D01*
X46976190Y-75238095D01*
X46785714Y-73809523D02*
X47452380Y-73809523D01*
X46404761Y-74047619D02*
X47119047Y-74285714D01*
X47119047Y-73666666D01*
%TO.C,R5*%
X111793333Y-41952380D02*
X111460000Y-41476190D01*
X111221904Y-41952380D02*
X111221904Y-40952380D01*
X111602857Y-40952380D01*
X111698095Y-41000000D01*
X111745714Y-41047619D01*
X111793333Y-41142857D01*
X111793333Y-41285714D01*
X111745714Y-41380952D01*
X111698095Y-41428571D01*
X111602857Y-41476190D01*
X111221904Y-41476190D01*
X112698095Y-40952380D02*
X112221904Y-40952380D01*
X112174285Y-41428571D01*
X112221904Y-41380952D01*
X112317142Y-41333333D01*
X112555238Y-41333333D01*
X112650476Y-41380952D01*
X112698095Y-41428571D01*
X112745714Y-41523809D01*
X112745714Y-41761904D01*
X112698095Y-41857142D01*
X112650476Y-41904761D01*
X112555238Y-41952380D01*
X112317142Y-41952380D01*
X112221904Y-41904761D01*
X112174285Y-41857142D01*
%TO.C,R6*%
X125452380Y-55126666D02*
X124976190Y-55460000D01*
X125452380Y-55698095D02*
X124452380Y-55698095D01*
X124452380Y-55317142D01*
X124500000Y-55221904D01*
X124547619Y-55174285D01*
X124642857Y-55126666D01*
X124785714Y-55126666D01*
X124880952Y-55174285D01*
X124928571Y-55221904D01*
X124976190Y-55317142D01*
X124976190Y-55698095D01*
X124452380Y-54269523D02*
X124452380Y-54460000D01*
X124500000Y-54555238D01*
X124547619Y-54602857D01*
X124690476Y-54698095D01*
X124880952Y-54745714D01*
X125261904Y-54745714D01*
X125357142Y-54698095D01*
X125404761Y-54650476D01*
X125452380Y-54555238D01*
X125452380Y-54364761D01*
X125404761Y-54269523D01*
X125357142Y-54221904D01*
X125261904Y-54174285D01*
X125023809Y-54174285D01*
X124928571Y-54221904D01*
X124880952Y-54269523D01*
X124833333Y-54364761D01*
X124833333Y-54555238D01*
X124880952Y-54650476D01*
X124928571Y-54698095D01*
X125023809Y-54745714D01*
%TO.C,R7*%
X108452380Y-36666666D02*
X107976190Y-37000000D01*
X108452380Y-37238095D02*
X107452380Y-37238095D01*
X107452380Y-36857142D01*
X107500000Y-36761904D01*
X107547619Y-36714285D01*
X107642857Y-36666666D01*
X107785714Y-36666666D01*
X107880952Y-36714285D01*
X107928571Y-36761904D01*
X107976190Y-36857142D01*
X107976190Y-37238095D01*
X107452380Y-36333333D02*
X107452380Y-35666666D01*
X108452380Y-36095238D01*
%TO.C,R8*%
X112083333Y-69202380D02*
X111750000Y-68726190D01*
X111511904Y-69202380D02*
X111511904Y-68202380D01*
X111892857Y-68202380D01*
X111988095Y-68250000D01*
X112035714Y-68297619D01*
X112083333Y-68392857D01*
X112083333Y-68535714D01*
X112035714Y-68630952D01*
X111988095Y-68678571D01*
X111892857Y-68726190D01*
X111511904Y-68726190D01*
X112654761Y-68630952D02*
X112559523Y-68583333D01*
X112511904Y-68535714D01*
X112464285Y-68440476D01*
X112464285Y-68392857D01*
X112511904Y-68297619D01*
X112559523Y-68250000D01*
X112654761Y-68202380D01*
X112845238Y-68202380D01*
X112940476Y-68250000D01*
X112988095Y-68297619D01*
X113035714Y-68392857D01*
X113035714Y-68440476D01*
X112988095Y-68535714D01*
X112940476Y-68583333D01*
X112845238Y-68630952D01*
X112654761Y-68630952D01*
X112559523Y-68678571D01*
X112511904Y-68726190D01*
X112464285Y-68821428D01*
X112464285Y-69011904D01*
X112511904Y-69107142D01*
X112559523Y-69154761D01*
X112654761Y-69202380D01*
X112845238Y-69202380D01*
X112940476Y-69154761D01*
X112988095Y-69107142D01*
X113035714Y-69011904D01*
X113035714Y-68821428D01*
X112988095Y-68726190D01*
X112940476Y-68678571D01*
X112845238Y-68630952D01*
%TO.C,R9*%
X65083333Y-47952380D02*
X64750000Y-47476190D01*
X64511904Y-47952380D02*
X64511904Y-46952380D01*
X64892857Y-46952380D01*
X64988095Y-47000000D01*
X65035714Y-47047619D01*
X65083333Y-47142857D01*
X65083333Y-47285714D01*
X65035714Y-47380952D01*
X64988095Y-47428571D01*
X64892857Y-47476190D01*
X64511904Y-47476190D01*
X65559523Y-47952380D02*
X65750000Y-47952380D01*
X65845238Y-47904761D01*
X65892857Y-47857142D01*
X65988095Y-47714285D01*
X66035714Y-47523809D01*
X66035714Y-47142857D01*
X65988095Y-47047619D01*
X65940476Y-47000000D01*
X65845238Y-46952380D01*
X65654761Y-46952380D01*
X65559523Y-47000000D01*
X65511904Y-47047619D01*
X65464285Y-47142857D01*
X65464285Y-47380952D01*
X65511904Y-47476190D01*
X65559523Y-47523809D01*
X65654761Y-47571428D01*
X65845238Y-47571428D01*
X65940476Y-47523809D01*
X65988095Y-47476190D01*
X66035714Y-47380952D01*
%TO.C,R10*%
X53452380Y-75182857D02*
X52976190Y-75516190D01*
X53452380Y-75754285D02*
X52452380Y-75754285D01*
X52452380Y-75373333D01*
X52500000Y-75278095D01*
X52547619Y-75230476D01*
X52642857Y-75182857D01*
X52785714Y-75182857D01*
X52880952Y-75230476D01*
X52928571Y-75278095D01*
X52976190Y-75373333D01*
X52976190Y-75754285D01*
X53452380Y-74230476D02*
X53452380Y-74801904D01*
X53452380Y-74516190D02*
X52452380Y-74516190D01*
X52595238Y-74611428D01*
X52690476Y-74706666D01*
X52738095Y-74801904D01*
X52452380Y-73611428D02*
X52452380Y-73516190D01*
X52500000Y-73420952D01*
X52547619Y-73373333D01*
X52642857Y-73325714D01*
X52833333Y-73278095D01*
X53071428Y-73278095D01*
X53261904Y-73325714D01*
X53357142Y-73373333D01*
X53404761Y-73420952D01*
X53452380Y-73516190D01*
X53452380Y-73611428D01*
X53404761Y-73706666D01*
X53357142Y-73754285D01*
X53261904Y-73801904D01*
X53071428Y-73849523D01*
X52833333Y-73849523D01*
X52642857Y-73801904D01*
X52547619Y-73754285D01*
X52500000Y-73706666D01*
X52452380Y-73611428D01*
%TO.C,R11*%
X64857142Y-63952380D02*
X64523809Y-63476190D01*
X64285714Y-63952380D02*
X64285714Y-62952380D01*
X64666666Y-62952380D01*
X64761904Y-63000000D01*
X64809523Y-63047619D01*
X64857142Y-63142857D01*
X64857142Y-63285714D01*
X64809523Y-63380952D01*
X64761904Y-63428571D01*
X64666666Y-63476190D01*
X64285714Y-63476190D01*
X65809523Y-63952380D02*
X65238095Y-63952380D01*
X65523809Y-63952380D02*
X65523809Y-62952380D01*
X65428571Y-63095238D01*
X65333333Y-63190476D01*
X65238095Y-63238095D01*
X66761904Y-63952380D02*
X66190476Y-63952380D01*
X66476190Y-63952380D02*
X66476190Y-62952380D01*
X66380952Y-63095238D01*
X66285714Y-63190476D01*
X66190476Y-63238095D01*
%TO.C,R12*%
X91067142Y-59202380D02*
X90733809Y-58726190D01*
X90495714Y-59202380D02*
X90495714Y-58202380D01*
X90876666Y-58202380D01*
X90971904Y-58250000D01*
X91019523Y-58297619D01*
X91067142Y-58392857D01*
X91067142Y-58535714D01*
X91019523Y-58630952D01*
X90971904Y-58678571D01*
X90876666Y-58726190D01*
X90495714Y-58726190D01*
X92019523Y-59202380D02*
X91448095Y-59202380D01*
X91733809Y-59202380D02*
X91733809Y-58202380D01*
X91638571Y-58345238D01*
X91543333Y-58440476D01*
X91448095Y-58488095D01*
X92400476Y-58297619D02*
X92448095Y-58250000D01*
X92543333Y-58202380D01*
X92781428Y-58202380D01*
X92876666Y-58250000D01*
X92924285Y-58297619D01*
X92971904Y-58392857D01*
X92971904Y-58488095D01*
X92924285Y-58630952D01*
X92352857Y-59202380D01*
X92971904Y-59202380D01*
%TO.C,R13*%
X91107142Y-61702380D02*
X90773809Y-61226190D01*
X90535714Y-61702380D02*
X90535714Y-60702380D01*
X90916666Y-60702380D01*
X91011904Y-60750000D01*
X91059523Y-60797619D01*
X91107142Y-60892857D01*
X91107142Y-61035714D01*
X91059523Y-61130952D01*
X91011904Y-61178571D01*
X90916666Y-61226190D01*
X90535714Y-61226190D01*
X92059523Y-61702380D02*
X91488095Y-61702380D01*
X91773809Y-61702380D02*
X91773809Y-60702380D01*
X91678571Y-60845238D01*
X91583333Y-60940476D01*
X91488095Y-60988095D01*
X92392857Y-60702380D02*
X93011904Y-60702380D01*
X92678571Y-61083333D01*
X92821428Y-61083333D01*
X92916666Y-61130952D01*
X92964285Y-61178571D01*
X93011904Y-61273809D01*
X93011904Y-61511904D01*
X92964285Y-61607142D01*
X92916666Y-61654761D01*
X92821428Y-61702380D01*
X92535714Y-61702380D01*
X92440476Y-61654761D01*
X92392857Y-61607142D01*
%TO.C,R14*%
X91147142Y-64202380D02*
X90813809Y-63726190D01*
X90575714Y-64202380D02*
X90575714Y-63202380D01*
X90956666Y-63202380D01*
X91051904Y-63250000D01*
X91099523Y-63297619D01*
X91147142Y-63392857D01*
X91147142Y-63535714D01*
X91099523Y-63630952D01*
X91051904Y-63678571D01*
X90956666Y-63726190D01*
X90575714Y-63726190D01*
X92099523Y-64202380D02*
X91528095Y-64202380D01*
X91813809Y-64202380D02*
X91813809Y-63202380D01*
X91718571Y-63345238D01*
X91623333Y-63440476D01*
X91528095Y-63488095D01*
X92956666Y-63535714D02*
X92956666Y-64202380D01*
X92718571Y-63154761D02*
X92480476Y-63869047D01*
X93099523Y-63869047D01*
%TO.C,R15*%
X91187142Y-66952380D02*
X90853809Y-66476190D01*
X90615714Y-66952380D02*
X90615714Y-65952380D01*
X90996666Y-65952380D01*
X91091904Y-66000000D01*
X91139523Y-66047619D01*
X91187142Y-66142857D01*
X91187142Y-66285714D01*
X91139523Y-66380952D01*
X91091904Y-66428571D01*
X90996666Y-66476190D01*
X90615714Y-66476190D01*
X92139523Y-66952380D02*
X91568095Y-66952380D01*
X91853809Y-66952380D02*
X91853809Y-65952380D01*
X91758571Y-66095238D01*
X91663333Y-66190476D01*
X91568095Y-66238095D01*
X93044285Y-65952380D02*
X92568095Y-65952380D01*
X92520476Y-66428571D01*
X92568095Y-66380952D01*
X92663333Y-66333333D01*
X92901428Y-66333333D01*
X92996666Y-66380952D01*
X93044285Y-66428571D01*
X93091904Y-66523809D01*
X93091904Y-66761904D01*
X93044285Y-66857142D01*
X92996666Y-66904761D01*
X92901428Y-66952380D01*
X92663333Y-66952380D01*
X92568095Y-66904761D01*
X92520476Y-66857142D01*
%TO.C,R16*%
X91187142Y-69452380D02*
X90853809Y-68976190D01*
X90615714Y-69452380D02*
X90615714Y-68452380D01*
X90996666Y-68452380D01*
X91091904Y-68500000D01*
X91139523Y-68547619D01*
X91187142Y-68642857D01*
X91187142Y-68785714D01*
X91139523Y-68880952D01*
X91091904Y-68928571D01*
X90996666Y-68976190D01*
X90615714Y-68976190D01*
X92139523Y-69452380D02*
X91568095Y-69452380D01*
X91853809Y-69452380D02*
X91853809Y-68452380D01*
X91758571Y-68595238D01*
X91663333Y-68690476D01*
X91568095Y-68738095D01*
X92996666Y-68452380D02*
X92806190Y-68452380D01*
X92710952Y-68500000D01*
X92663333Y-68547619D01*
X92568095Y-68690476D01*
X92520476Y-68880952D01*
X92520476Y-69261904D01*
X92568095Y-69357142D01*
X92615714Y-69404761D01*
X92710952Y-69452380D01*
X92901428Y-69452380D01*
X92996666Y-69404761D01*
X93044285Y-69357142D01*
X93091904Y-69261904D01*
X93091904Y-69023809D01*
X93044285Y-68928571D01*
X92996666Y-68880952D01*
X92901428Y-68833333D01*
X92710952Y-68833333D01*
X92615714Y-68880952D01*
X92568095Y-68928571D01*
X92520476Y-69023809D01*
%TO.C,R17*%
X91147142Y-71952380D02*
X90813809Y-71476190D01*
X90575714Y-71952380D02*
X90575714Y-70952380D01*
X90956666Y-70952380D01*
X91051904Y-71000000D01*
X91099523Y-71047619D01*
X91147142Y-71142857D01*
X91147142Y-71285714D01*
X91099523Y-71380952D01*
X91051904Y-71428571D01*
X90956666Y-71476190D01*
X90575714Y-71476190D01*
X92099523Y-71952380D02*
X91528095Y-71952380D01*
X91813809Y-71952380D02*
X91813809Y-70952380D01*
X91718571Y-71095238D01*
X91623333Y-71190476D01*
X91528095Y-71238095D01*
X92432857Y-70952380D02*
X93099523Y-70952380D01*
X92670952Y-71952380D01*
%TO.C,R18*%
X91187142Y-74452380D02*
X90853809Y-73976190D01*
X90615714Y-74452380D02*
X90615714Y-73452380D01*
X90996666Y-73452380D01*
X91091904Y-73500000D01*
X91139523Y-73547619D01*
X91187142Y-73642857D01*
X91187142Y-73785714D01*
X91139523Y-73880952D01*
X91091904Y-73928571D01*
X90996666Y-73976190D01*
X90615714Y-73976190D01*
X92139523Y-74452380D02*
X91568095Y-74452380D01*
X91853809Y-74452380D02*
X91853809Y-73452380D01*
X91758571Y-73595238D01*
X91663333Y-73690476D01*
X91568095Y-73738095D01*
X92710952Y-73880952D02*
X92615714Y-73833333D01*
X92568095Y-73785714D01*
X92520476Y-73690476D01*
X92520476Y-73642857D01*
X92568095Y-73547619D01*
X92615714Y-73500000D01*
X92710952Y-73452380D01*
X92901428Y-73452380D01*
X92996666Y-73500000D01*
X93044285Y-73547619D01*
X93091904Y-73642857D01*
X93091904Y-73690476D01*
X93044285Y-73785714D01*
X92996666Y-73833333D01*
X92901428Y-73880952D01*
X92710952Y-73880952D01*
X92615714Y-73928571D01*
X92568095Y-73976190D01*
X92520476Y-74071428D01*
X92520476Y-74261904D01*
X92568095Y-74357142D01*
X92615714Y-74404761D01*
X92710952Y-74452380D01*
X92901428Y-74452380D01*
X92996666Y-74404761D01*
X93044285Y-74357142D01*
X93091904Y-74261904D01*
X93091904Y-74071428D01*
X93044285Y-73976190D01*
X92996666Y-73928571D01*
X92901428Y-73880952D01*
%TO.C,R20*%
X91107142Y-34452380D02*
X90773809Y-33976190D01*
X90535714Y-34452380D02*
X90535714Y-33452380D01*
X90916666Y-33452380D01*
X91011904Y-33500000D01*
X91059523Y-33547619D01*
X91107142Y-33642857D01*
X91107142Y-33785714D01*
X91059523Y-33880952D01*
X91011904Y-33928571D01*
X90916666Y-33976190D01*
X90535714Y-33976190D01*
X91488095Y-33547619D02*
X91535714Y-33500000D01*
X91630952Y-33452380D01*
X91869047Y-33452380D01*
X91964285Y-33500000D01*
X92011904Y-33547619D01*
X92059523Y-33642857D01*
X92059523Y-33738095D01*
X92011904Y-33880952D01*
X91440476Y-34452380D01*
X92059523Y-34452380D01*
X92678571Y-33452380D02*
X92773809Y-33452380D01*
X92869047Y-33500000D01*
X92916666Y-33547619D01*
X92964285Y-33642857D01*
X93011904Y-33833333D01*
X93011904Y-34071428D01*
X92964285Y-34261904D01*
X92916666Y-34357142D01*
X92869047Y-34404761D01*
X92773809Y-34452380D01*
X92678571Y-34452380D01*
X92583333Y-34404761D01*
X92535714Y-34357142D01*
X92488095Y-34261904D01*
X92440476Y-34071428D01*
X92440476Y-33833333D01*
X92488095Y-33642857D01*
X92535714Y-33547619D01*
X92583333Y-33500000D01*
X92678571Y-33452380D01*
%TO.C,R21*%
X91107142Y-36952380D02*
X90773809Y-36476190D01*
X90535714Y-36952380D02*
X90535714Y-35952380D01*
X90916666Y-35952380D01*
X91011904Y-36000000D01*
X91059523Y-36047619D01*
X91107142Y-36142857D01*
X91107142Y-36285714D01*
X91059523Y-36380952D01*
X91011904Y-36428571D01*
X90916666Y-36476190D01*
X90535714Y-36476190D01*
X91488095Y-36047619D02*
X91535714Y-36000000D01*
X91630952Y-35952380D01*
X91869047Y-35952380D01*
X91964285Y-36000000D01*
X92011904Y-36047619D01*
X92059523Y-36142857D01*
X92059523Y-36238095D01*
X92011904Y-36380952D01*
X91440476Y-36952380D01*
X92059523Y-36952380D01*
X93011904Y-36952380D02*
X92440476Y-36952380D01*
X92726190Y-36952380D02*
X92726190Y-35952380D01*
X92630952Y-36095238D01*
X92535714Y-36190476D01*
X92440476Y-36238095D01*
%TO.C,R22*%
X91067142Y-39452380D02*
X90733809Y-38976190D01*
X90495714Y-39452380D02*
X90495714Y-38452380D01*
X90876666Y-38452380D01*
X90971904Y-38500000D01*
X91019523Y-38547619D01*
X91067142Y-38642857D01*
X91067142Y-38785714D01*
X91019523Y-38880952D01*
X90971904Y-38928571D01*
X90876666Y-38976190D01*
X90495714Y-38976190D01*
X91448095Y-38547619D02*
X91495714Y-38500000D01*
X91590952Y-38452380D01*
X91829047Y-38452380D01*
X91924285Y-38500000D01*
X91971904Y-38547619D01*
X92019523Y-38642857D01*
X92019523Y-38738095D01*
X91971904Y-38880952D01*
X91400476Y-39452380D01*
X92019523Y-39452380D01*
X92400476Y-38547619D02*
X92448095Y-38500000D01*
X92543333Y-38452380D01*
X92781428Y-38452380D01*
X92876666Y-38500000D01*
X92924285Y-38547619D01*
X92971904Y-38642857D01*
X92971904Y-38738095D01*
X92924285Y-38880952D01*
X92352857Y-39452380D01*
X92971904Y-39452380D01*
%TO.C,R23*%
X91107142Y-41952380D02*
X90773809Y-41476190D01*
X90535714Y-41952380D02*
X90535714Y-40952380D01*
X90916666Y-40952380D01*
X91011904Y-41000000D01*
X91059523Y-41047619D01*
X91107142Y-41142857D01*
X91107142Y-41285714D01*
X91059523Y-41380952D01*
X91011904Y-41428571D01*
X90916666Y-41476190D01*
X90535714Y-41476190D01*
X91488095Y-41047619D02*
X91535714Y-41000000D01*
X91630952Y-40952380D01*
X91869047Y-40952380D01*
X91964285Y-41000000D01*
X92011904Y-41047619D01*
X92059523Y-41142857D01*
X92059523Y-41238095D01*
X92011904Y-41380952D01*
X91440476Y-41952380D01*
X92059523Y-41952380D01*
X92392857Y-40952380D02*
X93011904Y-40952380D01*
X92678571Y-41333333D01*
X92821428Y-41333333D01*
X92916666Y-41380952D01*
X92964285Y-41428571D01*
X93011904Y-41523809D01*
X93011904Y-41761904D01*
X92964285Y-41857142D01*
X92916666Y-41904761D01*
X92821428Y-41952380D01*
X92535714Y-41952380D01*
X92440476Y-41904761D01*
X92392857Y-41857142D01*
%TO.C,R24*%
X91107142Y-44702380D02*
X90773809Y-44226190D01*
X90535714Y-44702380D02*
X90535714Y-43702380D01*
X90916666Y-43702380D01*
X91011904Y-43750000D01*
X91059523Y-43797619D01*
X91107142Y-43892857D01*
X91107142Y-44035714D01*
X91059523Y-44130952D01*
X91011904Y-44178571D01*
X90916666Y-44226190D01*
X90535714Y-44226190D01*
X91488095Y-43797619D02*
X91535714Y-43750000D01*
X91630952Y-43702380D01*
X91869047Y-43702380D01*
X91964285Y-43750000D01*
X92011904Y-43797619D01*
X92059523Y-43892857D01*
X92059523Y-43988095D01*
X92011904Y-44130952D01*
X91440476Y-44702380D01*
X92059523Y-44702380D01*
X92916666Y-44035714D02*
X92916666Y-44702380D01*
X92678571Y-43654761D02*
X92440476Y-44369047D01*
X93059523Y-44369047D01*
%TO.C,R25*%
X91107142Y-47202380D02*
X90773809Y-46726190D01*
X90535714Y-47202380D02*
X90535714Y-46202380D01*
X90916666Y-46202380D01*
X91011904Y-46250000D01*
X91059523Y-46297619D01*
X91107142Y-46392857D01*
X91107142Y-46535714D01*
X91059523Y-46630952D01*
X91011904Y-46678571D01*
X90916666Y-46726190D01*
X90535714Y-46726190D01*
X91488095Y-46297619D02*
X91535714Y-46250000D01*
X91630952Y-46202380D01*
X91869047Y-46202380D01*
X91964285Y-46250000D01*
X92011904Y-46297619D01*
X92059523Y-46392857D01*
X92059523Y-46488095D01*
X92011904Y-46630952D01*
X91440476Y-47202380D01*
X92059523Y-47202380D01*
X92964285Y-46202380D02*
X92488095Y-46202380D01*
X92440476Y-46678571D01*
X92488095Y-46630952D01*
X92583333Y-46583333D01*
X92821428Y-46583333D01*
X92916666Y-46630952D01*
X92964285Y-46678571D01*
X93011904Y-46773809D01*
X93011904Y-47011904D01*
X92964285Y-47107142D01*
X92916666Y-47154761D01*
X92821428Y-47202380D01*
X92583333Y-47202380D01*
X92488095Y-47154761D01*
X92440476Y-47107142D01*
%TO.C,R26*%
X91107142Y-49702380D02*
X90773809Y-49226190D01*
X90535714Y-49702380D02*
X90535714Y-48702380D01*
X90916666Y-48702380D01*
X91011904Y-48750000D01*
X91059523Y-48797619D01*
X91107142Y-48892857D01*
X91107142Y-49035714D01*
X91059523Y-49130952D01*
X91011904Y-49178571D01*
X90916666Y-49226190D01*
X90535714Y-49226190D01*
X91488095Y-48797619D02*
X91535714Y-48750000D01*
X91630952Y-48702380D01*
X91869047Y-48702380D01*
X91964285Y-48750000D01*
X92011904Y-48797619D01*
X92059523Y-48892857D01*
X92059523Y-48988095D01*
X92011904Y-49130952D01*
X91440476Y-49702380D01*
X92059523Y-49702380D01*
X92916666Y-48702380D02*
X92726190Y-48702380D01*
X92630952Y-48750000D01*
X92583333Y-48797619D01*
X92488095Y-48940476D01*
X92440476Y-49130952D01*
X92440476Y-49511904D01*
X92488095Y-49607142D01*
X92535714Y-49654761D01*
X92630952Y-49702380D01*
X92821428Y-49702380D01*
X92916666Y-49654761D01*
X92964285Y-49607142D01*
X93011904Y-49511904D01*
X93011904Y-49273809D01*
X92964285Y-49178571D01*
X92916666Y-49130952D01*
X92821428Y-49083333D01*
X92630952Y-49083333D01*
X92535714Y-49130952D01*
X92488095Y-49178571D01*
X92440476Y-49273809D01*
%TO.C,SW1*%
X81276666Y-56874761D02*
X81419523Y-56922380D01*
X81657619Y-56922380D01*
X81752857Y-56874761D01*
X81800476Y-56827142D01*
X81848095Y-56731904D01*
X81848095Y-56636666D01*
X81800476Y-56541428D01*
X81752857Y-56493809D01*
X81657619Y-56446190D01*
X81467142Y-56398571D01*
X81371904Y-56350952D01*
X81324285Y-56303333D01*
X81276666Y-56208095D01*
X81276666Y-56112857D01*
X81324285Y-56017619D01*
X81371904Y-55970000D01*
X81467142Y-55922380D01*
X81705238Y-55922380D01*
X81848095Y-55970000D01*
X82181428Y-55922380D02*
X82419523Y-56922380D01*
X82610000Y-56208095D01*
X82800476Y-56922380D01*
X83038571Y-55922380D01*
X83943333Y-56922380D02*
X83371904Y-56922380D01*
X83657619Y-56922380D02*
X83657619Y-55922380D01*
X83562380Y-56065238D01*
X83467142Y-56160476D01*
X83371904Y-56208095D01*
%TO.C,SW2*%
X81076666Y-32074761D02*
X81219523Y-32122380D01*
X81457619Y-32122380D01*
X81552857Y-32074761D01*
X81600476Y-32027142D01*
X81648095Y-31931904D01*
X81648095Y-31836666D01*
X81600476Y-31741428D01*
X81552857Y-31693809D01*
X81457619Y-31646190D01*
X81267142Y-31598571D01*
X81171904Y-31550952D01*
X81124285Y-31503333D01*
X81076666Y-31408095D01*
X81076666Y-31312857D01*
X81124285Y-31217619D01*
X81171904Y-31170000D01*
X81267142Y-31122380D01*
X81505238Y-31122380D01*
X81648095Y-31170000D01*
X81981428Y-31122380D02*
X82219523Y-32122380D01*
X82410000Y-31408095D01*
X82600476Y-32122380D01*
X82838571Y-31122380D01*
X83171904Y-31217619D02*
X83219523Y-31170000D01*
X83314761Y-31122380D01*
X83552857Y-31122380D01*
X83648095Y-31170000D01*
X83695714Y-31217619D01*
X83743333Y-31312857D01*
X83743333Y-31408095D01*
X83695714Y-31550952D01*
X83124285Y-32122380D01*
X83743333Y-32122380D01*
%TO.C,U1*%
X64548095Y-66122380D02*
X64548095Y-66931904D01*
X64595714Y-67027142D01*
X64643333Y-67074761D01*
X64738571Y-67122380D01*
X64929047Y-67122380D01*
X65024285Y-67074761D01*
X65071904Y-67027142D01*
X65119523Y-66931904D01*
X65119523Y-66122380D01*
X66119523Y-67122380D02*
X65548095Y-67122380D01*
X65833809Y-67122380D02*
X65833809Y-66122380D01*
X65738571Y-66265238D01*
X65643333Y-66360476D01*
X65548095Y-66408095D01*
%TO.C,U2*%
X65048095Y-31122380D02*
X65048095Y-31931904D01*
X65095714Y-32027142D01*
X65143333Y-32074761D01*
X65238571Y-32122380D01*
X65429047Y-32122380D01*
X65524285Y-32074761D01*
X65571904Y-32027142D01*
X65619523Y-31931904D01*
X65619523Y-31122380D01*
X66048095Y-31217619D02*
X66095714Y-31170000D01*
X66190952Y-31122380D01*
X66429047Y-31122380D01*
X66524285Y-31170000D01*
X66571904Y-31217619D01*
X66619523Y-31312857D01*
X66619523Y-31408095D01*
X66571904Y-31550952D01*
X66000476Y-32122380D01*
X66619523Y-32122380D01*
%TO.C,C1*%
X74357142Y-36166666D02*
X74404761Y-36214285D01*
X74452380Y-36357142D01*
X74452380Y-36452380D01*
X74404761Y-36595238D01*
X74309523Y-36690476D01*
X74214285Y-36738095D01*
X74023809Y-36785714D01*
X73880952Y-36785714D01*
X73690476Y-36738095D01*
X73595238Y-36690476D01*
X73500000Y-36595238D01*
X73452380Y-36452380D01*
X73452380Y-36357142D01*
X73500000Y-36214285D01*
X73547619Y-36166666D01*
X74452380Y-35214285D02*
X74452380Y-35785714D01*
X74452380Y-35500000D02*
X73452380Y-35500000D01*
X73595238Y-35595238D01*
X73690476Y-35690476D01*
X73738095Y-35785714D01*
%TO.C,C9*%
X100583333Y-39107142D02*
X100535714Y-39154761D01*
X100392857Y-39202380D01*
X100297619Y-39202380D01*
X100154761Y-39154761D01*
X100059523Y-39059523D01*
X100011904Y-38964285D01*
X99964285Y-38773809D01*
X99964285Y-38630952D01*
X100011904Y-38440476D01*
X100059523Y-38345238D01*
X100154761Y-38250000D01*
X100297619Y-38202380D01*
X100392857Y-38202380D01*
X100535714Y-38250000D01*
X100583333Y-38297619D01*
X101059523Y-39202380D02*
X101250000Y-39202380D01*
X101345238Y-39154761D01*
X101392857Y-39107142D01*
X101488095Y-38964285D01*
X101535714Y-38773809D01*
X101535714Y-38392857D01*
X101488095Y-38297619D01*
X101440476Y-38250000D01*
X101345238Y-38202380D01*
X101154761Y-38202380D01*
X101059523Y-38250000D01*
X101011904Y-38297619D01*
X100964285Y-38392857D01*
X100964285Y-38630952D01*
X101011904Y-38726190D01*
X101059523Y-38773809D01*
X101154761Y-38821428D01*
X101345238Y-38821428D01*
X101440476Y-38773809D01*
X101488095Y-38726190D01*
X101535714Y-38630952D01*
%TD*%
M02*
