%TF.GenerationSoftware,KiCad,Pcbnew,7.0.0-da2b9df05c~171~ubuntu22.04.1*%
%TF.CreationDate,2023-03-13T14:35:53+01:00*%
%TF.ProjectId,tht-dip,7468742d-6469-4702-9e6b-696361645f70,rev?*%
%TF.SameCoordinates,Original*%
%TF.FileFunction,Copper,L2,Bot*%
%TF.FilePolarity,Positive*%
%FSLAX46Y46*%
G04 Gerber Fmt 4.6, Leading zero omitted, Abs format (unit mm)*
G04 Created by KiCad (PCBNEW 7.0.0-da2b9df05c~171~ubuntu22.04.1) date 2023-03-13 14:35:53*
%MOMM*%
%LPD*%
G01*
G04 APERTURE LIST*
%TA.AperFunction,ComponentPad*%
%ADD10R,1.600000X1.600000*%
%TD*%
%TA.AperFunction,ComponentPad*%
%ADD11C,1.600000*%
%TD*%
%TA.AperFunction,ComponentPad*%
%ADD12C,1.500000*%
%TD*%
%TA.AperFunction,ComponentPad*%
%ADD13O,1.600000X1.600000*%
%TD*%
%TA.AperFunction,ComponentPad*%
%ADD14C,3.500000*%
%TD*%
%TA.AperFunction,ComponentPad*%
%ADD15C,1.400000*%
%TD*%
%TA.AperFunction,ComponentPad*%
%ADD16O,1.400000X1.400000*%
%TD*%
%TA.AperFunction,ViaPad*%
%ADD17C,0.800000*%
%TD*%
%TA.AperFunction,Conductor*%
%ADD18C,0.800000*%
%TD*%
G04 APERTURE END LIST*
D10*
%TO.P,C4,1*%
%TO.N,VCC*%
X99499999Y-62999999D03*
D11*
%TO.P,C4,2*%
%TO.N,V-*%
X102000000Y-63000000D03*
%TD*%
D12*
%TO.P,RV1,1,1*%
%TO.N,ResIN*%
X88660000Y-56500000D03*
%TO.P,RV1,2,2*%
%TO.N,ResOUT*%
X87000000Y-56500000D03*
%TO.P,RV1,3,3*%
%TO.N,unconnected-(RV1-Pad3)*%
X85340000Y-56500000D03*
%TO.P,RV1,4,4*%
%TO.N,ResIN1*%
X88660000Y-54000000D03*
%TO.P,RV1,5,5*%
%TO.N,ResOUT2*%
X87000000Y-54000000D03*
%TO.P,RV1,6,6*%
%TO.N,unconnected-(RV1-Pad6)*%
X85340000Y-54000000D03*
%TD*%
D11*
%TO.P,C3,1*%
%TO.N,VCC*%
X99500000Y-73500000D03*
%TO.P,C3,2*%
%TO.N,V-*%
X102000000Y-73500000D03*
%TD*%
%TO.P,C5,1*%
%TO.N,/2*%
X114500000Y-37000000D03*
%TO.P,C5,2*%
%TO.N,Net-(C5-Pad2)*%
X114500000Y-34500000D03*
%TD*%
%TO.P,C6,1*%
%TO.N,/3*%
X114750000Y-75000000D03*
%TO.P,C6,2*%
%TO.N,Net-(C6-Pad2)*%
X114750000Y-72500000D03*
%TD*%
D10*
%TO.P,C7,1*%
%TO.N,V-*%
X60499999Y-47999999D03*
D11*
%TO.P,C7,2*%
%TO.N,Net-(C7-Pad2)*%
X60500000Y-46000000D03*
%TD*%
%TO.P,C8,1*%
%TO.N,Net-(C8-Pad1)*%
X55500000Y-56500000D03*
%TO.P,C8,2*%
%TO.N,V-*%
X55500000Y-54000000D03*
%TD*%
D10*
%TO.P,C9,1*%
%TO.N,V-*%
X60499999Y-62499999D03*
D11*
%TO.P,C9,2*%
%TO.N,Net-(C9-Pad2)*%
X60500000Y-64500000D03*
%TD*%
D10*
%TO.P,D1,1,K*%
%TO.N,Net-(D1-K)*%
X120999999Y-51249999D03*
D13*
%TO.P,D1,2,A*%
%TO.N,V-*%
X120999999Y-58869999D03*
%TD*%
D10*
%TO.P,D2,1,K*%
%TO.N,VCC*%
X46999999Y-41999999D03*
D13*
%TO.P,D2,2,A*%
%TO.N,ind*%
X46999999Y-49619999D03*
%TD*%
D10*
%TO.P,D3,1,K*%
%TO.N,ind*%
X46999999Y-60879999D03*
D13*
%TO.P,D3,2,A*%
%TO.N,V-*%
X46999999Y-68499999D03*
%TD*%
D10*
%TO.P,D4,1,K*%
%TO.N,VCC*%
X52999999Y-41999999D03*
D13*
%TO.P,D4,2,A*%
%TO.N,Net-(D4-A)*%
X52999999Y-49619999D03*
%TD*%
D10*
%TO.P,D5,1,K*%
%TO.N,Net-(D4-A)*%
X52999999Y-60999999D03*
D13*
%TO.P,D5,2,A*%
%TO.N,V-*%
X52999999Y-68619999D03*
%TD*%
D14*
%TO.P,J1,1,Pin_1*%
%TO.N,/2*%
X130250000Y-45750000D03*
%TD*%
%TO.P,J2,1,Pin_1*%
%TO.N,/3*%
X130250000Y-54750000D03*
%TD*%
%TO.P,J3,1,Pin_1*%
%TO.N,ind*%
X38250000Y-41750000D03*
%TD*%
%TO.P,J4,1,Pin_1*%
%TO.N,Net-(D4-A)*%
X39000000Y-69000000D03*
%TD*%
%TO.P,J5,1,Pin_1*%
%TO.N,V-*%
X130250000Y-63750000D03*
%TD*%
%TO.P,J6,1,Pin_1*%
%TO.N,V-*%
X38500000Y-55000000D03*
%TD*%
%TO.P,J7,1,Pin_1*%
%TO.N,Earth*%
X39000000Y-35000000D03*
%TD*%
%TO.P,J8,1,Pin_1*%
%TO.N,Earth*%
X39000000Y-76000000D03*
%TD*%
%TO.P,J9,1,Pin_1*%
%TO.N,Earth*%
X131000000Y-35000000D03*
%TD*%
%TO.P,J10,1,Pin_1*%
%TO.N,Earth*%
X131000000Y-76000000D03*
%TD*%
D15*
%TO.P,R1,1*%
%TO.N,Net-(D1-K)*%
X106750000Y-71000000D03*
D16*
%TO.P,R1,2*%
%TO.N,VCC*%
X106749999Y-76079999D03*
%TD*%
D15*
%TO.P,R2,1*%
%TO.N,VCC*%
X53000000Y-33580000D03*
D16*
%TO.P,R2,2*%
%TO.N,Net-(C8-Pad1)*%
X52999999Y-38659999D03*
%TD*%
D15*
%TO.P,R3,1*%
%TO.N,Net-(C8-Pad1)*%
X47000000Y-38580000D03*
D16*
%TO.P,R3,2*%
%TO.N,ind*%
X46999999Y-33499999D03*
%TD*%
D15*
%TO.P,R4,1*%
%TO.N,Net-(C8-Pad1)*%
X47000000Y-72000000D03*
D16*
%TO.P,R4,2*%
%TO.N,Net-(D4-A)*%
X46999999Y-77079999D03*
%TD*%
D15*
%TO.P,R5,1*%
%TO.N,Net-(D1-K)*%
X114500000Y-41500000D03*
D16*
%TO.P,R5,2*%
%TO.N,/2*%
X109419999Y-41499999D03*
%TD*%
D15*
%TO.P,R6,1*%
%TO.N,Net-(D1-K)*%
X125000000Y-52420000D03*
D16*
%TO.P,R6,2*%
%TO.N,/3*%
X124999999Y-57499999D03*
%TD*%
D15*
%TO.P,R7,1*%
%TO.N,Net-(C5-Pad2)*%
X108000000Y-39080000D03*
D16*
%TO.P,R7,2*%
%TO.N,ResOUT*%
X107999999Y-33999999D03*
%TD*%
D15*
%TO.P,R8,1*%
%TO.N,Net-(C6-Pad2)*%
X114750000Y-68750000D03*
D16*
%TO.P,R8,2*%
%TO.N,ResOUT2*%
X109669999Y-68749999D03*
%TD*%
D15*
%TO.P,R9,1*%
%TO.N,Net-(C7-Pad2)*%
X68920000Y-47000000D03*
D16*
%TO.P,R9,2*%
%TO.N,ResIN*%
X73999999Y-46999999D03*
%TD*%
D15*
%TO.P,R10,1*%
%TO.N,Net-(C8-Pad1)*%
X53000000Y-72000000D03*
D16*
%TO.P,R10,2*%
%TO.N,V-*%
X52999999Y-77079999D03*
%TD*%
D15*
%TO.P,R11,1*%
%TO.N,Net-(C9-Pad2)*%
X68920000Y-64000000D03*
D16*
%TO.P,R11,2*%
%TO.N,ResIN1*%
X73999999Y-63999999D03*
%TD*%
D11*
%TO.P,C2,1*%
%TO.N,VCC*%
X74000000Y-38500000D03*
%TO.P,C2,2*%
%TO.N,V-*%
X74000000Y-33500000D03*
%TD*%
D10*
%TO.P,C1,1*%
%TO.N,V-*%
X99999999Y-44999999D03*
D11*
%TO.P,C1,2*%
%TO.N,VCC*%
X102000000Y-45000000D03*
%TD*%
D10*
%TO.P,U1,1*%
%TO.N,ResOUT*%
X65999999Y-59119999D03*
D13*
%TO.P,U1,2,-*%
%TO.N,ResIN*%
X68539999Y-59119999D03*
%TO.P,U1,3,+*%
%TO.N,Net-(D4-A)*%
X71079999Y-59119999D03*
%TO.P,U1,4,V-*%
%TO.N,V-*%
X73619999Y-59119999D03*
%TO.P,U1,5,+*%
%TO.N,ind*%
X73619999Y-51499999D03*
%TO.P,U1,6,-*%
%TO.N,ResIN1*%
X71079999Y-51499999D03*
%TO.P,U1,7*%
%TO.N,ResOUT2*%
X68539999Y-51499999D03*
%TO.P,U1,8,V+*%
%TO.N,VCC*%
X65999999Y-51499999D03*
%TD*%
D17*
%TO.N,Earth*%
X73000000Y-62000000D03*
X55500000Y-46000000D03*
X57500000Y-50000000D03*
X57000000Y-63500000D03*
X57500000Y-59000000D03*
X63500000Y-49500000D03*
X67500000Y-49000000D03*
X71500000Y-55500000D03*
X78500000Y-61000000D03*
X79000000Y-54000000D03*
X81000000Y-36500000D03*
X80500000Y-43000000D03*
%TD*%
D18*
%TO.N,ResOUT2*%
X109670000Y-68750000D02*
X106420000Y-65500000D01*
X106420000Y-65500000D02*
X99494200Y-65500000D01*
X90023700Y-53439700D02*
X89225400Y-52641400D01*
X99494200Y-65500000D02*
X90023700Y-56029500D01*
X90023700Y-56029500D02*
X90023700Y-53439700D01*
X88044400Y-52641400D02*
X87000000Y-53685800D01*
X89225400Y-52641400D02*
X88044400Y-52641400D01*
X87000000Y-53685800D02*
X87000000Y-54000000D01*
%TO.N,ResOUT*%
X87000000Y-56751000D02*
X88099000Y-57850000D01*
X110201300Y-70066800D02*
X111010900Y-69257200D01*
X111010900Y-38510900D02*
X108000000Y-35500000D01*
X88099000Y-57850000D02*
X90350000Y-57850000D01*
X90350000Y-57850000D02*
X99300700Y-66800700D01*
X108000000Y-35500000D02*
X108000000Y-34000000D01*
X99300700Y-66800700D02*
X105467100Y-66800700D01*
X105467100Y-66800700D02*
X108733200Y-70066800D01*
X108733200Y-70066800D02*
X110201300Y-70066800D01*
X111010900Y-69257200D02*
X111010900Y-38510900D01*
%TO.N,VCC*%
X66000000Y-51500000D02*
X61200000Y-51500000D01*
X61200000Y-51500000D02*
X58500000Y-48800000D01*
X58500000Y-48800000D02*
X58500000Y-43500000D01*
X58500000Y-43500000D02*
X57000000Y-42000000D01*
X57000000Y-42000000D02*
X53000000Y-42000000D01*
%TO.N,ResIN1*%
X75060700Y-61439300D02*
X74000000Y-62500000D01*
X75060700Y-57080700D02*
X75060700Y-61439300D01*
X71080000Y-53100000D02*
X75060700Y-57080700D01*
X71080000Y-51500000D02*
X71080000Y-53100000D01*
X74000000Y-64000000D02*
X74000000Y-62500000D01*
%TO.N,ResOUT2*%
X87000000Y-53679400D02*
X87000000Y-54000000D01*
X83387300Y-50066700D02*
X87000000Y-53679400D01*
X69973300Y-50066700D02*
X83387300Y-50066700D01*
X68540000Y-51500000D02*
X69973300Y-50066700D01*
%TO.N,ResOUT*%
X78421000Y-65330000D02*
X87000000Y-56751000D01*
X72210000Y-65330000D02*
X78421000Y-65330000D01*
X66000000Y-59120000D02*
X72210000Y-65330000D01*
X87000000Y-56500000D02*
X87000000Y-56751000D01*
%TO.N,Net-(D4-A)*%
X45580000Y-75580000D02*
X39000000Y-69000000D01*
X47000000Y-75580000D02*
X45580000Y-75580000D01*
X47000000Y-77080000D02*
X47000000Y-76330000D01*
X47000000Y-76330000D02*
X47000000Y-75580000D01*
X50060000Y-65540000D02*
X53000000Y-62600000D01*
X50060000Y-73270000D02*
X50060000Y-65540000D01*
X47000000Y-76330000D02*
X50060000Y-73270000D01*
X53000000Y-61000000D02*
X53000000Y-62600000D01*
X53000000Y-49620000D02*
X54600000Y-49620000D01*
X54885600Y-49620000D02*
X54600000Y-49620000D01*
X57865200Y-52599600D02*
X54885600Y-49620000D01*
X64559600Y-52599600D02*
X57865200Y-52599600D01*
X71080000Y-59120000D02*
X64559600Y-52599600D01*
%TO.N,ind*%
X47000000Y-33500000D02*
X45500000Y-33500000D01*
X47000000Y-49620000D02*
X47000000Y-48020000D01*
X39490000Y-40510000D02*
X47000000Y-48020000D01*
X45500000Y-34500000D02*
X39490000Y-40510000D01*
X45500000Y-33500000D02*
X45500000Y-34500000D01*
X39490000Y-40510000D02*
X38250000Y-41750000D01*
X47000000Y-60880000D02*
X47000000Y-49620000D01*
%TO.N,Net-(D1-K)*%
X121000000Y-48000000D02*
X121000000Y-51250000D01*
X114500000Y-41500000D02*
X121000000Y-48000000D01*
X112376700Y-61473300D02*
X121000000Y-52850000D01*
X112376700Y-69374200D02*
X112376700Y-61473300D01*
X110660000Y-71090900D02*
X112376700Y-69374200D01*
X106840900Y-71090900D02*
X110660000Y-71090900D01*
X106750000Y-71000000D02*
X106840900Y-71090900D01*
X121000000Y-51250000D02*
X121000000Y-52850000D01*
%TO.N,Net-(C8-Pad1)*%
X55500000Y-69500000D02*
X55500000Y-56500000D01*
X53000000Y-72000000D02*
X55500000Y-69500000D01*
X51579200Y-52579200D02*
X55500000Y-56500000D01*
X51579200Y-40909800D02*
X51579200Y-52579200D01*
X52329000Y-40160000D02*
X51579200Y-40909800D01*
X53000000Y-40160000D02*
X52329000Y-40160000D01*
X53000000Y-38660000D02*
X53000000Y-40160000D01*
%TO.N,Net-(C6-Pad2)*%
X114750000Y-68750000D02*
X114750000Y-72500000D01*
%TO.N,/3*%
X127500000Y-57500000D02*
X130250000Y-54750000D01*
X125000000Y-57500000D02*
X127500000Y-57500000D01*
X117698700Y-72051300D02*
X114750000Y-75000000D01*
X117698700Y-60182700D02*
X117698700Y-72051300D01*
X120448400Y-57433000D02*
X117698700Y-60182700D01*
X123433000Y-57433000D02*
X120448400Y-57433000D01*
X123500000Y-57500000D02*
X123433000Y-57433000D01*
X125000000Y-57500000D02*
X123500000Y-57500000D01*
%TO.N,/2*%
X121500000Y-37000000D02*
X114500000Y-37000000D01*
X130250000Y-45750000D02*
X121500000Y-37000000D01*
%TO.N,VCC*%
X66000000Y-46500000D02*
X66000000Y-51500000D01*
X74000000Y-38500000D02*
X66000000Y-46500000D01*
X54342500Y-40657500D02*
X53000000Y-42000000D01*
X54342500Y-34922500D02*
X54342500Y-40657500D01*
X53000000Y-33580000D02*
X54342500Y-34922500D01*
X102080000Y-76080000D02*
X99500000Y-73500000D01*
X106750000Y-76080000D02*
X102080000Y-76080000D01*
X102000000Y-58900000D02*
X99500000Y-61400000D01*
X102000000Y-45000000D02*
X102000000Y-58900000D01*
X99500000Y-63000000D02*
X99500000Y-61400000D01*
%TO.N,V-*%
X127480000Y-63750000D02*
X122600000Y-58870000D01*
X130250000Y-63750000D02*
X127480000Y-63750000D01*
X121000000Y-58870000D02*
X122600000Y-58870000D01*
X53000000Y-77080000D02*
X53000000Y-76330000D01*
X87900000Y-34500000D02*
X74000000Y-34500000D01*
X98400000Y-45000000D02*
X87900000Y-34500000D01*
X74000000Y-33500000D02*
X74000000Y-34500000D01*
X74000000Y-34500000D02*
X60500000Y-48000000D01*
X100000000Y-45000000D02*
X98400000Y-45000000D01*
X60500000Y-59000000D02*
X55500000Y-54000000D01*
X60500000Y-62500000D02*
X60500000Y-59000000D01*
X38500000Y-58400000D02*
X38500000Y-55000000D01*
X47000000Y-66900000D02*
X38500000Y-58400000D01*
X47000000Y-68500000D02*
X47000000Y-66900000D01*
X53000000Y-68620000D02*
X53000000Y-70220000D01*
X56723200Y-66276800D02*
X60500000Y-62500000D01*
X56723200Y-70137800D02*
X56723200Y-66276800D01*
X52989900Y-73871100D02*
X56723200Y-70137800D01*
X53000000Y-73881300D02*
X52989900Y-73871100D01*
X53000000Y-76330000D02*
X53000000Y-73881300D01*
X52866600Y-70220000D02*
X53000000Y-70220000D01*
X51666600Y-71420000D02*
X52866600Y-70220000D01*
X51666600Y-72547900D02*
X51666600Y-71420000D01*
X52989900Y-73871100D02*
X51666600Y-72547900D01*
%TD*%
%TA.AperFunction,Conductor*%
%TO.N,Earth*%
G36*
X56979502Y-56764315D02*
G01*
X59554595Y-59339408D01*
X59581909Y-59380285D01*
X59591500Y-59428503D01*
X59591500Y-61110266D01*
X59581327Y-61159866D01*
X59552450Y-61201456D01*
X59509533Y-61228322D01*
X59462236Y-61245962D01*
X59462230Y-61245965D01*
X59453796Y-61249111D01*
X59446588Y-61254506D01*
X59446582Y-61254510D01*
X59343950Y-61331340D01*
X59343946Y-61331343D01*
X59336739Y-61336739D01*
X59331343Y-61343946D01*
X59331340Y-61343950D01*
X59254510Y-61446582D01*
X59254506Y-61446588D01*
X59249111Y-61453796D01*
X59245965Y-61462230D01*
X59245962Y-61462236D01*
X59200763Y-61583419D01*
X59200761Y-61583423D01*
X59198011Y-61590799D01*
X59197169Y-61598625D01*
X59197168Y-61598632D01*
X59191860Y-61648011D01*
X59191500Y-61651362D01*
X59191500Y-61654731D01*
X59191500Y-62471497D01*
X59181909Y-62519715D01*
X59154595Y-62560592D01*
X56623595Y-65091592D01*
X56573436Y-65122330D01*
X56514789Y-65126946D01*
X56460439Y-65104433D01*
X56422233Y-65059700D01*
X56408500Y-65002497D01*
X56408500Y-57494188D01*
X56418091Y-57445970D01*
X56445405Y-57405093D01*
X56445404Y-57405093D01*
X56506198Y-57344300D01*
X56637523Y-57156749D01*
X56734284Y-56949243D01*
X56768701Y-56820796D01*
X56801311Y-56764315D01*
X56857796Y-56731703D01*
X56923018Y-56731703D01*
X56979502Y-56764315D01*
G37*
%TD.AperFunction*%
%TA.AperFunction,Conductor*%
G36*
X83007015Y-50984791D02*
G01*
X83047892Y-51012105D01*
X84740546Y-52704759D01*
X84770764Y-52753352D01*
X84776373Y-52810300D01*
X84756217Y-52863855D01*
X84714452Y-52902972D01*
X84713324Y-52903622D01*
X84708347Y-52905944D01*
X84703851Y-52909092D01*
X84703846Y-52909095D01*
X84532473Y-53029092D01*
X84532470Y-53029094D01*
X84527962Y-53032251D01*
X84524070Y-53036142D01*
X84524064Y-53036148D01*
X84376148Y-53184064D01*
X84376142Y-53184070D01*
X84372251Y-53187962D01*
X84369094Y-53192470D01*
X84369092Y-53192473D01*
X84249100Y-53363838D01*
X84249094Y-53363848D01*
X84245944Y-53368347D01*
X84243620Y-53373329D01*
X84243618Y-53373334D01*
X84155204Y-53562938D01*
X84155200Y-53562947D01*
X84152880Y-53567924D01*
X84151459Y-53573225D01*
X84151456Y-53573235D01*
X84097307Y-53775319D01*
X84097305Y-53775328D01*
X84095885Y-53780629D01*
X84095406Y-53786094D01*
X84095405Y-53786105D01*
X84086854Y-53883855D01*
X84076693Y-54000000D01*
X84077172Y-54005475D01*
X84095405Y-54213894D01*
X84095406Y-54213903D01*
X84095885Y-54219371D01*
X84097305Y-54224673D01*
X84097307Y-54224680D01*
X84151456Y-54426764D01*
X84151458Y-54426770D01*
X84152880Y-54432076D01*
X84155202Y-54437055D01*
X84155204Y-54437061D01*
X84165288Y-54458686D01*
X84245944Y-54631654D01*
X84249097Y-54636157D01*
X84249100Y-54636162D01*
X84297003Y-54704574D01*
X84372251Y-54812038D01*
X84527962Y-54967749D01*
X84708346Y-55094056D01*
X84754174Y-55115425D01*
X84797877Y-55135805D01*
X84850895Y-55182300D01*
X84870628Y-55250000D01*
X84850895Y-55317700D01*
X84797878Y-55364195D01*
X84713334Y-55403618D01*
X84713329Y-55403620D01*
X84708347Y-55405944D01*
X84703848Y-55409094D01*
X84703838Y-55409100D01*
X84532473Y-55529092D01*
X84532470Y-55529094D01*
X84527962Y-55532251D01*
X84524070Y-55536142D01*
X84524064Y-55536148D01*
X84376148Y-55684064D01*
X84376142Y-55684070D01*
X84372251Y-55687962D01*
X84369094Y-55692470D01*
X84369092Y-55692473D01*
X84249100Y-55863838D01*
X84249094Y-55863848D01*
X84245944Y-55868347D01*
X84243620Y-55873329D01*
X84243618Y-55873334D01*
X84155204Y-56062938D01*
X84155200Y-56062947D01*
X84152880Y-56067924D01*
X84151459Y-56073225D01*
X84151456Y-56073235D01*
X84097307Y-56275319D01*
X84097305Y-56275328D01*
X84095885Y-56280629D01*
X84095406Y-56286094D01*
X84095405Y-56286105D01*
X84082280Y-56436135D01*
X84076693Y-56500000D01*
X84077172Y-56505475D01*
X84095405Y-56713894D01*
X84095406Y-56713903D01*
X84095885Y-56719371D01*
X84097305Y-56724673D01*
X84097307Y-56724680D01*
X84151456Y-56926764D01*
X84151458Y-56926770D01*
X84152880Y-56932076D01*
X84155202Y-56937055D01*
X84155204Y-56937061D01*
X84241404Y-57121918D01*
X84245944Y-57131654D01*
X84249097Y-57136157D01*
X84249100Y-57136162D01*
X84322223Y-57240591D01*
X84372251Y-57312038D01*
X84527962Y-57467749D01*
X84532479Y-57470911D01*
X84532478Y-57470911D01*
X84681673Y-57575379D01*
X84718522Y-57615592D01*
X84734924Y-57667610D01*
X84727804Y-57721686D01*
X84698498Y-57767687D01*
X78081592Y-64384595D01*
X78040715Y-64411909D01*
X77992497Y-64421500D01*
X75302397Y-64421500D01*
X75246669Y-64408506D01*
X75202435Y-64372204D01*
X75178818Y-64320081D01*
X75180690Y-64262889D01*
X75185352Y-64245489D01*
X75194686Y-64210655D01*
X75213116Y-64000000D01*
X75194686Y-63789345D01*
X75139956Y-63585090D01*
X75050589Y-63393442D01*
X74973078Y-63282744D01*
X74931287Y-63223060D01*
X74914332Y-63188679D01*
X74908500Y-63150790D01*
X74908500Y-62928504D01*
X74918091Y-62880286D01*
X74945404Y-62839409D01*
X75119313Y-62665500D01*
X75645542Y-62139269D01*
X75660569Y-62126436D01*
X75671953Y-62118166D01*
X75717726Y-62067328D01*
X75722231Y-62062580D01*
X75736772Y-62048041D01*
X75749708Y-62032065D01*
X75753966Y-62027079D01*
X75799740Y-61976244D01*
X75806775Y-61964057D01*
X75817971Y-61947767D01*
X75826829Y-61936830D01*
X75857897Y-61875851D01*
X75861020Y-61870101D01*
X75895227Y-61810856D01*
X75899576Y-61797467D01*
X75907142Y-61779203D01*
X75913529Y-61766670D01*
X75931229Y-61700608D01*
X75933104Y-61694282D01*
X75952200Y-61635513D01*
X75952200Y-61635511D01*
X75954242Y-61629228D01*
X75955711Y-61615239D01*
X75959317Y-61595788D01*
X75961247Y-61588585D01*
X75961246Y-61588585D01*
X75962957Y-61582204D01*
X75966536Y-61513897D01*
X75967053Y-61507335D01*
X75968856Y-61490185D01*
X75968856Y-61490180D01*
X75969200Y-61486910D01*
X75969200Y-61466375D01*
X75969373Y-61459781D01*
X75970346Y-61441218D01*
X75972952Y-61391491D01*
X75970750Y-61377593D01*
X75969200Y-61357884D01*
X75969200Y-57162117D01*
X75970751Y-57142405D01*
X75972952Y-57128510D01*
X75969372Y-57060219D01*
X75969200Y-57053626D01*
X75969200Y-57036380D01*
X75969200Y-57033090D01*
X75967125Y-57013346D01*
X75967053Y-57012662D01*
X75966536Y-57006103D01*
X75962957Y-56937797D01*
X75959315Y-56924209D01*
X75955713Y-56904773D01*
X75954242Y-56890772D01*
X75933105Y-56825721D01*
X75931231Y-56819394D01*
X75930677Y-56817326D01*
X75913530Y-56753330D01*
X75907140Y-56740789D01*
X75899573Y-56722522D01*
X75895227Y-56709144D01*
X75861026Y-56649907D01*
X75857895Y-56644141D01*
X75826829Y-56583170D01*
X75817972Y-56572232D01*
X75806774Y-56555939D01*
X75803041Y-56549474D01*
X75799740Y-56543756D01*
X75791302Y-56534385D01*
X75765272Y-56505475D01*
X75753964Y-56492916D01*
X75749699Y-56487922D01*
X75736772Y-56471959D01*
X75722256Y-56457443D01*
X75717715Y-56452658D01*
X75676372Y-56406742D01*
X75671953Y-56401834D01*
X75660565Y-56393560D01*
X75645532Y-56380719D01*
X72025405Y-52760592D01*
X71998091Y-52719715D01*
X71988500Y-52671497D01*
X71988500Y-52494188D01*
X71998091Y-52445970D01*
X72025405Y-52405093D01*
X72032711Y-52397787D01*
X72086198Y-52344300D01*
X72217523Y-52156749D01*
X72235804Y-52117543D01*
X72282300Y-52064525D01*
X72350000Y-52044792D01*
X72417700Y-52064525D01*
X72464195Y-52117543D01*
X72480149Y-52151758D01*
X72480151Y-52151761D01*
X72482477Y-52156749D01*
X72485630Y-52161252D01*
X72485633Y-52161257D01*
X72562123Y-52270496D01*
X72613802Y-52344300D01*
X72775700Y-52506198D01*
X72893533Y-52588706D01*
X72953442Y-52630655D01*
X72963251Y-52637523D01*
X73170757Y-52734284D01*
X73391913Y-52793543D01*
X73620000Y-52813498D01*
X73848087Y-52793543D01*
X74069243Y-52734284D01*
X74276749Y-52637523D01*
X74464300Y-52506198D01*
X74626198Y-52344300D01*
X74757523Y-52156749D01*
X74854284Y-51949243D01*
X74913543Y-51728087D01*
X74933498Y-51500000D01*
X74913543Y-51271913D01*
X74876537Y-51133809D01*
X74874666Y-51076619D01*
X74898282Y-51024496D01*
X74942516Y-50988194D01*
X74998245Y-50975200D01*
X82958797Y-50975200D01*
X83007015Y-50984791D01*
G37*
%TD.AperFunction*%
%TA.AperFunction,Conductor*%
G36*
X72417700Y-59684525D02*
G01*
X72464195Y-59737543D01*
X72480149Y-59771758D01*
X72480152Y-59771764D01*
X72482477Y-59776749D01*
X72485630Y-59781252D01*
X72485633Y-59781257D01*
X72537500Y-59855330D01*
X72613802Y-59964300D01*
X72775700Y-60126198D01*
X72843136Y-60173417D01*
X72944516Y-60244405D01*
X72963251Y-60257523D01*
X73170757Y-60354284D01*
X73391913Y-60413543D01*
X73620000Y-60433498D01*
X73848087Y-60413543D01*
X73954700Y-60384975D01*
X73993589Y-60374556D01*
X74050781Y-60372684D01*
X74102904Y-60396301D01*
X74139206Y-60440535D01*
X74152200Y-60496263D01*
X74152200Y-61010796D01*
X74142609Y-61059014D01*
X74115295Y-61099892D01*
X73415160Y-61800025D01*
X73400135Y-61812859D01*
X73394089Y-61817252D01*
X73394085Y-61817254D01*
X73388747Y-61821134D01*
X73384335Y-61826033D01*
X73384326Y-61826042D01*
X73342992Y-61871949D01*
X73338456Y-61876730D01*
X73326259Y-61888927D01*
X73326251Y-61888935D01*
X73323928Y-61891259D01*
X73321863Y-61893807D01*
X73321851Y-61893822D01*
X73311001Y-61907219D01*
X73306728Y-61912221D01*
X73265377Y-61958149D01*
X73265372Y-61958155D01*
X73260960Y-61963056D01*
X73257667Y-61968758D01*
X73257656Y-61968774D01*
X73253920Y-61975246D01*
X73242733Y-61991524D01*
X73238025Y-61997337D01*
X73238016Y-61997350D01*
X73233871Y-62002470D01*
X73230877Y-62008345D01*
X73230875Y-62008349D01*
X73202815Y-62063420D01*
X73199668Y-62069216D01*
X73165473Y-62128444D01*
X73163433Y-62134719D01*
X73163429Y-62134730D01*
X73161117Y-62141845D01*
X73153562Y-62160084D01*
X73150170Y-62166741D01*
X73150166Y-62166751D01*
X73147171Y-62172630D01*
X73145462Y-62179005D01*
X73145462Y-62179007D01*
X73129472Y-62238678D01*
X73127600Y-62244996D01*
X73108496Y-62303795D01*
X73108493Y-62303807D01*
X73106458Y-62310072D01*
X73105769Y-62316620D01*
X73105767Y-62316633D01*
X73104984Y-62324084D01*
X73101385Y-62343503D01*
X73099452Y-62350716D01*
X73099451Y-62350721D01*
X73097743Y-62357097D01*
X73097397Y-62363693D01*
X73097397Y-62363695D01*
X73094162Y-62425399D01*
X73093645Y-62431964D01*
X73091500Y-62452390D01*
X73091500Y-62455683D01*
X73091500Y-62472926D01*
X73091327Y-62479520D01*
X73088247Y-62538295D01*
X73087748Y-62547810D01*
X73089949Y-62561705D01*
X73091500Y-62581417D01*
X73091500Y-63150790D01*
X73085668Y-63188679D01*
X73068713Y-63223060D01*
X72952565Y-63388936D01*
X72952559Y-63388945D01*
X72949411Y-63393442D01*
X72947092Y-63398414D01*
X72947088Y-63398422D01*
X72862367Y-63580107D01*
X72862364Y-63580112D01*
X72860044Y-63585090D01*
X72858622Y-63590394D01*
X72858621Y-63590399D01*
X72840843Y-63656749D01*
X72805314Y-63789345D01*
X72804835Y-63794818D01*
X72804834Y-63794825D01*
X72794828Y-63909201D01*
X72786884Y-64000000D01*
X72787363Y-64005475D01*
X72801639Y-64168659D01*
X72805314Y-64210655D01*
X72806738Y-64215969D01*
X72819310Y-64262889D01*
X72821182Y-64320081D01*
X72797565Y-64372204D01*
X72753331Y-64408506D01*
X72697603Y-64421500D01*
X72638503Y-64421500D01*
X72590285Y-64411909D01*
X72549408Y-64384595D01*
X68772768Y-60607955D01*
X68740156Y-60551471D01*
X68740156Y-60486249D01*
X68772768Y-60429764D01*
X68829249Y-60397154D01*
X68989243Y-60354284D01*
X69196749Y-60257523D01*
X69384300Y-60126198D01*
X69546198Y-59964300D01*
X69677523Y-59776749D01*
X69695804Y-59737543D01*
X69742300Y-59684525D01*
X69810000Y-59664792D01*
X69877700Y-59684525D01*
X69924195Y-59737543D01*
X69940149Y-59771758D01*
X69940152Y-59771764D01*
X69942477Y-59776749D01*
X69945630Y-59781252D01*
X69945633Y-59781257D01*
X69997500Y-59855330D01*
X70073802Y-59964300D01*
X70235700Y-60126198D01*
X70303136Y-60173417D01*
X70404516Y-60244405D01*
X70423251Y-60257523D01*
X70630757Y-60354284D01*
X70851913Y-60413543D01*
X71080000Y-60433498D01*
X71308087Y-60413543D01*
X71529243Y-60354284D01*
X71736749Y-60257523D01*
X71924300Y-60126198D01*
X72086198Y-59964300D01*
X72217523Y-59776749D01*
X72235804Y-59737543D01*
X72282300Y-59684525D01*
X72350000Y-59664792D01*
X72417700Y-59684525D01*
G37*
%TD.AperFunction*%
%TA.AperFunction,Conductor*%
G36*
X87519715Y-35418091D02*
G01*
X87560592Y-35445405D01*
X97700019Y-45584832D01*
X97712860Y-45599865D01*
X97721134Y-45611253D01*
X97726042Y-45615672D01*
X97771958Y-45657015D01*
X97776742Y-45661555D01*
X97791259Y-45676072D01*
X97807233Y-45689007D01*
X97812222Y-45693269D01*
X97858144Y-45734618D01*
X97858148Y-45734621D01*
X97863056Y-45739040D01*
X97875236Y-45746072D01*
X97891525Y-45757267D01*
X97902469Y-45766129D01*
X97908354Y-45769127D01*
X97908355Y-45769128D01*
X97963414Y-45797181D01*
X97969215Y-45800330D01*
X98028444Y-45834527D01*
X98041827Y-45838875D01*
X98060089Y-45846439D01*
X98072630Y-45852829D01*
X98099557Y-45860044D01*
X98138688Y-45870529D01*
X98145005Y-45872400D01*
X98210072Y-45893542D01*
X98224061Y-45895012D01*
X98243508Y-45898615D01*
X98257096Y-45902257D01*
X98325404Y-45905836D01*
X98331963Y-45906352D01*
X98352390Y-45908500D01*
X98372925Y-45908500D01*
X98379518Y-45908672D01*
X98447809Y-45912252D01*
X98461706Y-45910050D01*
X98481416Y-45908500D01*
X98610266Y-45908500D01*
X98659866Y-45918673D01*
X98701456Y-45947550D01*
X98728322Y-45990467D01*
X98745962Y-46037763D01*
X98745964Y-46037766D01*
X98749111Y-46046204D01*
X98754508Y-46053414D01*
X98754510Y-46053417D01*
X98806393Y-46122724D01*
X98836739Y-46163261D01*
X98857773Y-46179007D01*
X98945923Y-46244996D01*
X98953796Y-46250889D01*
X99090799Y-46301989D01*
X99151362Y-46308500D01*
X100845269Y-46308500D01*
X100848638Y-46308500D01*
X100909201Y-46301989D01*
X100921466Y-46297414D01*
X100981203Y-46290452D01*
X101037361Y-46311971D01*
X101077148Y-46357068D01*
X101091500Y-46415470D01*
X101091500Y-58471497D01*
X101081909Y-58519715D01*
X101054595Y-58560592D01*
X98915163Y-60700022D01*
X98900137Y-60712858D01*
X98888747Y-60721134D01*
X98884335Y-60726033D01*
X98884326Y-60726042D01*
X98842992Y-60771949D01*
X98838456Y-60776730D01*
X98826259Y-60788927D01*
X98826251Y-60788935D01*
X98823928Y-60791259D01*
X98821863Y-60793807D01*
X98821851Y-60793822D01*
X98811001Y-60807219D01*
X98806728Y-60812221D01*
X98765377Y-60858149D01*
X98765372Y-60858155D01*
X98760960Y-60863056D01*
X98757667Y-60868758D01*
X98757656Y-60868774D01*
X98753920Y-60875246D01*
X98742733Y-60891524D01*
X98738025Y-60897337D01*
X98738016Y-60897350D01*
X98733871Y-60902470D01*
X98730877Y-60908345D01*
X98730875Y-60908349D01*
X98702815Y-60963420D01*
X98699668Y-60969216D01*
X98665473Y-61028444D01*
X98663433Y-61034719D01*
X98663429Y-61034730D01*
X98661117Y-61041845D01*
X98653562Y-61060084D01*
X98650170Y-61066741D01*
X98650166Y-61066751D01*
X98647171Y-61072630D01*
X98645462Y-61079005D01*
X98645462Y-61079007D01*
X98629472Y-61138678D01*
X98627600Y-61144996D01*
X98608496Y-61203795D01*
X98608493Y-61203807D01*
X98606458Y-61210072D01*
X98605769Y-61216620D01*
X98605767Y-61216633D01*
X98604984Y-61224084D01*
X98601385Y-61243503D01*
X98599452Y-61250716D01*
X98599451Y-61250721D01*
X98597743Y-61257097D01*
X98597397Y-61263693D01*
X98597397Y-61263695D01*
X98594162Y-61325399D01*
X98593646Y-61331964D01*
X98592387Y-61343950D01*
X98591500Y-61352390D01*
X98591500Y-61355683D01*
X98591500Y-61372926D01*
X98591327Y-61379519D01*
X98587748Y-61447810D01*
X98588780Y-61454324D01*
X98589949Y-61461705D01*
X98591500Y-61481417D01*
X98591500Y-61610266D01*
X98581327Y-61659866D01*
X98552450Y-61701456D01*
X98509533Y-61728322D01*
X98462236Y-61745962D01*
X98462230Y-61745965D01*
X98453796Y-61749111D01*
X98446588Y-61754506D01*
X98446582Y-61754510D01*
X98343950Y-61831340D01*
X98343946Y-61831343D01*
X98336739Y-61836739D01*
X98331343Y-61843946D01*
X98331340Y-61843950D01*
X98254510Y-61946582D01*
X98254506Y-61946588D01*
X98249111Y-61953796D01*
X98245965Y-61962230D01*
X98245962Y-61962236D01*
X98200763Y-62083419D01*
X98200761Y-62083423D01*
X98198011Y-62090799D01*
X98197169Y-62098625D01*
X98197168Y-62098632D01*
X98191860Y-62148011D01*
X98191500Y-62151362D01*
X98191500Y-62154731D01*
X98191500Y-62608297D01*
X98177767Y-62665500D01*
X98139561Y-62710233D01*
X98085211Y-62732746D01*
X98026564Y-62728130D01*
X97976405Y-62697392D01*
X90969105Y-55690092D01*
X90941791Y-55649215D01*
X90932200Y-55600997D01*
X90932200Y-53521117D01*
X90933751Y-53501407D01*
X90934256Y-53498217D01*
X90935952Y-53487510D01*
X90932372Y-53419219D01*
X90932200Y-53412626D01*
X90932200Y-53395380D01*
X90932200Y-53392090D01*
X90930229Y-53373334D01*
X90930053Y-53371662D01*
X90929536Y-53365103D01*
X90925957Y-53296797D01*
X90922315Y-53283209D01*
X90918713Y-53263773D01*
X90917242Y-53249772D01*
X90896105Y-53184721D01*
X90894231Y-53178394D01*
X90887106Y-53151802D01*
X90876530Y-53112330D01*
X90870140Y-53099789D01*
X90862573Y-53081522D01*
X90858227Y-53068144D01*
X90824026Y-53008907D01*
X90820895Y-53003141D01*
X90789829Y-52942170D01*
X90781626Y-52932040D01*
X90780972Y-52931232D01*
X90769774Y-52914939D01*
X90768339Y-52912454D01*
X90762740Y-52902756D01*
X90716964Y-52851916D01*
X90712699Y-52846922D01*
X90699772Y-52830959D01*
X90685256Y-52816443D01*
X90680715Y-52811658D01*
X90666324Y-52795675D01*
X90634953Y-52760834D01*
X90629428Y-52756820D01*
X90623565Y-52752560D01*
X90608532Y-52739719D01*
X89925377Y-52056564D01*
X89912535Y-52041529D01*
X89904266Y-52030147D01*
X89853422Y-51984367D01*
X89848655Y-51979842D01*
X89836479Y-51967666D01*
X89834141Y-51965328D01*
X89818177Y-51952400D01*
X89813176Y-51948129D01*
X89767250Y-51906777D01*
X89767248Y-51906775D01*
X89762344Y-51902360D01*
X89750148Y-51895318D01*
X89733868Y-51884128D01*
X89728060Y-51879425D01*
X89722930Y-51875271D01*
X89661985Y-51844218D01*
X89656206Y-51841081D01*
X89596956Y-51806873D01*
X89590681Y-51804834D01*
X89590679Y-51804833D01*
X89583563Y-51802521D01*
X89565311Y-51794960D01*
X89558654Y-51791568D01*
X89558646Y-51791565D01*
X89552770Y-51788571D01*
X89546396Y-51786863D01*
X89546391Y-51786861D01*
X89486705Y-51770868D01*
X89480399Y-51769000D01*
X89415328Y-51747858D01*
X89408766Y-51747168D01*
X89408751Y-51747165D01*
X89401325Y-51746385D01*
X89381891Y-51742783D01*
X89374688Y-51740853D01*
X89374680Y-51740851D01*
X89368303Y-51739143D01*
X89361707Y-51738797D01*
X89361706Y-51738797D01*
X89299999Y-51735562D01*
X89293440Y-51735046D01*
X89279466Y-51733578D01*
X89276275Y-51733243D01*
X89276274Y-51733242D01*
X89273010Y-51732900D01*
X89269717Y-51732900D01*
X89252474Y-51732900D01*
X89245880Y-51732727D01*
X89184181Y-51729493D01*
X89184176Y-51729493D01*
X89177590Y-51729148D01*
X89163692Y-51731349D01*
X89143983Y-51732900D01*
X88125817Y-51732900D01*
X88106107Y-51731349D01*
X88098727Y-51730180D01*
X88098725Y-51730179D01*
X88092210Y-51729148D01*
X88085622Y-51729493D01*
X88085618Y-51729493D01*
X88023920Y-51732727D01*
X88017326Y-51732900D01*
X87996790Y-51732900D01*
X87993529Y-51733242D01*
X87993521Y-51733243D01*
X87976364Y-51735046D01*
X87969799Y-51735562D01*
X87908095Y-51738797D01*
X87908093Y-51738797D01*
X87901497Y-51739143D01*
X87895121Y-51740851D01*
X87895116Y-51740852D01*
X87887903Y-51742785D01*
X87868484Y-51746384D01*
X87861043Y-51747166D01*
X87861031Y-51747168D01*
X87854472Y-51747858D01*
X87848198Y-51749896D01*
X87848191Y-51749898D01*
X87789428Y-51768991D01*
X87783107Y-51770863D01*
X87723412Y-51786859D01*
X87723403Y-51786862D01*
X87717030Y-51788570D01*
X87711149Y-51791566D01*
X87711142Y-51791569D01*
X87704483Y-51794962D01*
X87686231Y-51802523D01*
X87679120Y-51804833D01*
X87679114Y-51804835D01*
X87672844Y-51806873D01*
X87667129Y-51810171D01*
X87667123Y-51810175D01*
X87613620Y-51841063D01*
X87607831Y-51844207D01*
X87552753Y-51872272D01*
X87552743Y-51872278D01*
X87546870Y-51875271D01*
X87541744Y-51879421D01*
X87541734Y-51879428D01*
X87535924Y-51884133D01*
X87519646Y-51895320D01*
X87513174Y-51899056D01*
X87513158Y-51899067D01*
X87507456Y-51902360D01*
X87502555Y-51906772D01*
X87502549Y-51906777D01*
X87456621Y-51948128D01*
X87451619Y-51952401D01*
X87438222Y-51963251D01*
X87438207Y-51963263D01*
X87435659Y-51965328D01*
X87433335Y-51967651D01*
X87433327Y-51967659D01*
X87421130Y-51979856D01*
X87416349Y-51984392D01*
X87370442Y-52025726D01*
X87370433Y-52025735D01*
X87365534Y-52030147D01*
X87361654Y-52035485D01*
X87361652Y-52035489D01*
X87357259Y-52041535D01*
X87344425Y-52056560D01*
X87092295Y-52308691D01*
X87035810Y-52341303D01*
X86970588Y-52341303D01*
X86914104Y-52308691D01*
X84087277Y-49481864D01*
X84074435Y-49466829D01*
X84066166Y-49455447D01*
X84015322Y-49409667D01*
X84010555Y-49405142D01*
X83998379Y-49392966D01*
X83998378Y-49392965D01*
X83996041Y-49390628D01*
X83980077Y-49377700D01*
X83975076Y-49373429D01*
X83929150Y-49332077D01*
X83929148Y-49332075D01*
X83924244Y-49327660D01*
X83912048Y-49320618D01*
X83895768Y-49309428D01*
X83894582Y-49308468D01*
X83884830Y-49300571D01*
X83823885Y-49269518D01*
X83818106Y-49266381D01*
X83758856Y-49232173D01*
X83752581Y-49230134D01*
X83752579Y-49230133D01*
X83745463Y-49227821D01*
X83727211Y-49220260D01*
X83720554Y-49216868D01*
X83720546Y-49216865D01*
X83714670Y-49213871D01*
X83708296Y-49212163D01*
X83708291Y-49212161D01*
X83648605Y-49196168D01*
X83642299Y-49194300D01*
X83577228Y-49173158D01*
X83570666Y-49172468D01*
X83570651Y-49172465D01*
X83563225Y-49171685D01*
X83543791Y-49168083D01*
X83536588Y-49166153D01*
X83536580Y-49166151D01*
X83530203Y-49164443D01*
X83523607Y-49164097D01*
X83523606Y-49164097D01*
X83461899Y-49160862D01*
X83455340Y-49160346D01*
X83434910Y-49158200D01*
X83431617Y-49158200D01*
X83414374Y-49158200D01*
X83407780Y-49158027D01*
X83346081Y-49154793D01*
X83346076Y-49154793D01*
X83339490Y-49154448D01*
X83325592Y-49156649D01*
X83305883Y-49158200D01*
X70054716Y-49158200D01*
X70035006Y-49156649D01*
X70021109Y-49154448D01*
X70014521Y-49154793D01*
X70014517Y-49154793D01*
X69952819Y-49158027D01*
X69946225Y-49158200D01*
X69925690Y-49158200D01*
X69922428Y-49158542D01*
X69922422Y-49158543D01*
X69905265Y-49160346D01*
X69898700Y-49160862D01*
X69836994Y-49164097D01*
X69836992Y-49164097D01*
X69830396Y-49164443D01*
X69824020Y-49166151D01*
X69824015Y-49166152D01*
X69816799Y-49168086D01*
X69797374Y-49171686D01*
X69789935Y-49172468D01*
X69789934Y-49172468D01*
X69783372Y-49173158D01*
X69777102Y-49175194D01*
X69777093Y-49175197D01*
X69718317Y-49194295D01*
X69711995Y-49196168D01*
X69652311Y-49212161D01*
X69652309Y-49212161D01*
X69645930Y-49213871D01*
X69640051Y-49216866D01*
X69640041Y-49216870D01*
X69633384Y-49220262D01*
X69615145Y-49227817D01*
X69608030Y-49230129D01*
X69608019Y-49230133D01*
X69601744Y-49232173D01*
X69596027Y-49235473D01*
X69596024Y-49235475D01*
X69542516Y-49266368D01*
X69536720Y-49269515D01*
X69481649Y-49297575D01*
X69481645Y-49297577D01*
X69475770Y-49300571D01*
X69470650Y-49304716D01*
X69470637Y-49304725D01*
X69464824Y-49309433D01*
X69448546Y-49320620D01*
X69442074Y-49324356D01*
X69442058Y-49324367D01*
X69436356Y-49327660D01*
X69431455Y-49332072D01*
X69431449Y-49332077D01*
X69385521Y-49373428D01*
X69380519Y-49377701D01*
X69367122Y-49388551D01*
X69367107Y-49388563D01*
X69364559Y-49390628D01*
X69362235Y-49392951D01*
X69362227Y-49392959D01*
X69350030Y-49405156D01*
X69345249Y-49409692D01*
X69299342Y-49451026D01*
X69299333Y-49451035D01*
X69294434Y-49455447D01*
X69290554Y-49460786D01*
X69290554Y-49460787D01*
X69286158Y-49466837D01*
X69273322Y-49481863D01*
X68603863Y-50151322D01*
X68568018Y-50176422D01*
X68525750Y-50187747D01*
X68317404Y-50205975D01*
X68317385Y-50205978D01*
X68311913Y-50206457D01*
X68306599Y-50207880D01*
X68306598Y-50207881D01*
X68096067Y-50264293D01*
X68096065Y-50264293D01*
X68090757Y-50265716D01*
X68085779Y-50268036D01*
X68085774Y-50268039D01*
X67888238Y-50360151D01*
X67888233Y-50360153D01*
X67883251Y-50362477D01*
X67878752Y-50365627D01*
X67878742Y-50365633D01*
X67700211Y-50490643D01*
X67700208Y-50490645D01*
X67695700Y-50493802D01*
X67691808Y-50497693D01*
X67691802Y-50497699D01*
X67537699Y-50651802D01*
X67537693Y-50651808D01*
X67533802Y-50655700D01*
X67530645Y-50660208D01*
X67530643Y-50660211D01*
X67405633Y-50838742D01*
X67405627Y-50838752D01*
X67402477Y-50843251D01*
X67400153Y-50848233D01*
X67400151Y-50848238D01*
X67384195Y-50882457D01*
X67337700Y-50935474D01*
X67270000Y-50955207D01*
X67202300Y-50935474D01*
X67155805Y-50882457D01*
X67153734Y-50878016D01*
X67137523Y-50843251D01*
X67124659Y-50824880D01*
X67075285Y-50754366D01*
X67006198Y-50655700D01*
X66945405Y-50594907D01*
X66918091Y-50554030D01*
X66908500Y-50505812D01*
X66908500Y-47000000D01*
X67706884Y-47000000D01*
X67707363Y-47005475D01*
X67718339Y-47130937D01*
X67725314Y-47210655D01*
X67726738Y-47215969D01*
X67777980Y-47407209D01*
X67780044Y-47414910D01*
X67782366Y-47419890D01*
X67782367Y-47419892D01*
X67859991Y-47586358D01*
X67869411Y-47606558D01*
X67872563Y-47611059D01*
X67872565Y-47611063D01*
X67987539Y-47775264D01*
X67987543Y-47775268D01*
X67990699Y-47779776D01*
X68140224Y-47929301D01*
X68144732Y-47932457D01*
X68144735Y-47932460D01*
X68260253Y-48013346D01*
X68313442Y-48050589D01*
X68505090Y-48139956D01*
X68709345Y-48194686D01*
X68920000Y-48213116D01*
X69130655Y-48194686D01*
X69334910Y-48139956D01*
X69526558Y-48050589D01*
X69699776Y-47929301D01*
X69849301Y-47779776D01*
X69970589Y-47606558D01*
X70059956Y-47414910D01*
X70114686Y-47210655D01*
X70133116Y-47000000D01*
X72786884Y-47000000D01*
X72787363Y-47005475D01*
X72798339Y-47130937D01*
X72805314Y-47210655D01*
X72806738Y-47215969D01*
X72857980Y-47407209D01*
X72860044Y-47414910D01*
X72862366Y-47419890D01*
X72862367Y-47419892D01*
X72939991Y-47586358D01*
X72949411Y-47606558D01*
X72952563Y-47611059D01*
X72952565Y-47611063D01*
X73067539Y-47775264D01*
X73067543Y-47775268D01*
X73070699Y-47779776D01*
X73220224Y-47929301D01*
X73224732Y-47932457D01*
X73224735Y-47932460D01*
X73340253Y-48013346D01*
X73393442Y-48050589D01*
X73585090Y-48139956D01*
X73789345Y-48194686D01*
X74000000Y-48213116D01*
X74210655Y-48194686D01*
X74414910Y-48139956D01*
X74606558Y-48050589D01*
X74779776Y-47929301D01*
X74929301Y-47779776D01*
X75050589Y-47606558D01*
X75139956Y-47414910D01*
X75194686Y-47210655D01*
X75213116Y-47000000D01*
X75194686Y-46789345D01*
X75139956Y-46585090D01*
X75050589Y-46393442D01*
X75020672Y-46350716D01*
X74932460Y-46224735D01*
X74932457Y-46224732D01*
X74929301Y-46220224D01*
X74779776Y-46070699D01*
X74775268Y-46067543D01*
X74775264Y-46067539D01*
X74611063Y-45952565D01*
X74611059Y-45952563D01*
X74606558Y-45949411D01*
X74601579Y-45947089D01*
X74601577Y-45947088D01*
X74419892Y-45862367D01*
X74419890Y-45862366D01*
X74414910Y-45860044D01*
X74409601Y-45858621D01*
X74409600Y-45858621D01*
X74269696Y-45821134D01*
X74210655Y-45805314D01*
X74205179Y-45804834D01*
X74205174Y-45804834D01*
X74005475Y-45787363D01*
X74000000Y-45786884D01*
X73994525Y-45787363D01*
X73794825Y-45804834D01*
X73794818Y-45804835D01*
X73789345Y-45805314D01*
X73784031Y-45806737D01*
X73784030Y-45806738D01*
X73590399Y-45858621D01*
X73590394Y-45858622D01*
X73585090Y-45860044D01*
X73580112Y-45862364D01*
X73580107Y-45862367D01*
X73398422Y-45947088D01*
X73398414Y-45947092D01*
X73393442Y-45949411D01*
X73388945Y-45952559D01*
X73388936Y-45952565D01*
X73224735Y-46067539D01*
X73224725Y-46067547D01*
X73220224Y-46070699D01*
X73216334Y-46074588D01*
X73216328Y-46074594D01*
X73074594Y-46216328D01*
X73074588Y-46216334D01*
X73070699Y-46220224D01*
X73067547Y-46224725D01*
X73067539Y-46224735D01*
X72952565Y-46388936D01*
X72952559Y-46388945D01*
X72949411Y-46393442D01*
X72947092Y-46398414D01*
X72947088Y-46398422D01*
X72862367Y-46580107D01*
X72862364Y-46580112D01*
X72860044Y-46585090D01*
X72858622Y-46590394D01*
X72858621Y-46590399D01*
X72812588Y-46762198D01*
X72805314Y-46789345D01*
X72804835Y-46794818D01*
X72804834Y-46794825D01*
X72797236Y-46881673D01*
X72786884Y-47000000D01*
X70133116Y-47000000D01*
X70114686Y-46789345D01*
X70059956Y-46585090D01*
X69970589Y-46393442D01*
X69940672Y-46350716D01*
X69852460Y-46224735D01*
X69852457Y-46224732D01*
X69849301Y-46220224D01*
X69699776Y-46070699D01*
X69695268Y-46067543D01*
X69695264Y-46067539D01*
X69531063Y-45952565D01*
X69531059Y-45952563D01*
X69526558Y-45949411D01*
X69521579Y-45947089D01*
X69521577Y-45947088D01*
X69339892Y-45862367D01*
X69339890Y-45862366D01*
X69334910Y-45860044D01*
X69329601Y-45858621D01*
X69329600Y-45858621D01*
X69189696Y-45821134D01*
X69130655Y-45805314D01*
X69125179Y-45804834D01*
X69125174Y-45804834D01*
X68925475Y-45787363D01*
X68920000Y-45786884D01*
X68914525Y-45787363D01*
X68714825Y-45804834D01*
X68714818Y-45804835D01*
X68709345Y-45805314D01*
X68704031Y-45806737D01*
X68704030Y-45806738D01*
X68510399Y-45858621D01*
X68510394Y-45858622D01*
X68505090Y-45860044D01*
X68500112Y-45862364D01*
X68500107Y-45862367D01*
X68318422Y-45947088D01*
X68318414Y-45947092D01*
X68313442Y-45949411D01*
X68308945Y-45952559D01*
X68308936Y-45952565D01*
X68144735Y-46067539D01*
X68144725Y-46067547D01*
X68140224Y-46070699D01*
X68136334Y-46074588D01*
X68136328Y-46074594D01*
X67994594Y-46216328D01*
X67994588Y-46216334D01*
X67990699Y-46220224D01*
X67987547Y-46224725D01*
X67987539Y-46224735D01*
X67872565Y-46388936D01*
X67872559Y-46388945D01*
X67869411Y-46393442D01*
X67867092Y-46398414D01*
X67867088Y-46398422D01*
X67782367Y-46580107D01*
X67782364Y-46580112D01*
X67780044Y-46585090D01*
X67778622Y-46590394D01*
X67778621Y-46590399D01*
X67732588Y-46762198D01*
X67725314Y-46789345D01*
X67724835Y-46794818D01*
X67724834Y-46794825D01*
X67717236Y-46881673D01*
X67706884Y-47000000D01*
X66908500Y-47000000D01*
X66908500Y-46928503D01*
X66918091Y-46880285D01*
X66945405Y-46839408D01*
X70437475Y-43347338D01*
X73936138Y-39848674D01*
X73971980Y-39823577D01*
X74014246Y-39812251D01*
X74228087Y-39793543D01*
X74449243Y-39734284D01*
X74656749Y-39637523D01*
X74844300Y-39506198D01*
X75006198Y-39344300D01*
X75137523Y-39156749D01*
X75234284Y-38949243D01*
X75293543Y-38728087D01*
X75313498Y-38500000D01*
X75293543Y-38271913D01*
X75234284Y-38050757D01*
X75137523Y-37843251D01*
X75133105Y-37836942D01*
X75056500Y-37727539D01*
X75006198Y-37655700D01*
X74844300Y-37493802D01*
X74734159Y-37416680D01*
X74661257Y-37365633D01*
X74661252Y-37365630D01*
X74656749Y-37362477D01*
X74449243Y-37265716D01*
X74228087Y-37206457D01*
X74222611Y-37205977D01*
X74222606Y-37205977D01*
X74005475Y-37186981D01*
X74000000Y-37186502D01*
X73994525Y-37186981D01*
X73777393Y-37205977D01*
X73777386Y-37205978D01*
X73771913Y-37206457D01*
X73766599Y-37207880D01*
X73766598Y-37207881D01*
X73556067Y-37264293D01*
X73556065Y-37264293D01*
X73550757Y-37265716D01*
X73545779Y-37268036D01*
X73545774Y-37268039D01*
X73348238Y-37360151D01*
X73348233Y-37360153D01*
X73343251Y-37362477D01*
X73338752Y-37365627D01*
X73338742Y-37365633D01*
X73160211Y-37490643D01*
X73160208Y-37490645D01*
X73155700Y-37493802D01*
X73151808Y-37497693D01*
X73151802Y-37497699D01*
X72997699Y-37651802D01*
X72997693Y-37651808D01*
X72993802Y-37655700D01*
X72990645Y-37660208D01*
X72990643Y-37660211D01*
X72865633Y-37838742D01*
X72865627Y-37838752D01*
X72862477Y-37843251D01*
X72860153Y-37848233D01*
X72860151Y-37848238D01*
X72768039Y-38045774D01*
X72768036Y-38045779D01*
X72765716Y-38050757D01*
X72764293Y-38056065D01*
X72764293Y-38056067D01*
X72735867Y-38162154D01*
X72706457Y-38271913D01*
X72705978Y-38277385D01*
X72705975Y-38277404D01*
X72687747Y-38485749D01*
X72676422Y-38528017D01*
X72651322Y-38563862D01*
X65415163Y-45800022D01*
X65400137Y-45812858D01*
X65388747Y-45821134D01*
X65384335Y-45826033D01*
X65384326Y-45826042D01*
X65342992Y-45871949D01*
X65338456Y-45876730D01*
X65326259Y-45888927D01*
X65326251Y-45888935D01*
X65323928Y-45891259D01*
X65321863Y-45893807D01*
X65321851Y-45893822D01*
X65311001Y-45907219D01*
X65306728Y-45912221D01*
X65265377Y-45958149D01*
X65265372Y-45958155D01*
X65260960Y-45963056D01*
X65257667Y-45968758D01*
X65257656Y-45968774D01*
X65253920Y-45975246D01*
X65242733Y-45991524D01*
X65238025Y-45997337D01*
X65238016Y-45997350D01*
X65233871Y-46002470D01*
X65230877Y-46008345D01*
X65230875Y-46008349D01*
X65202815Y-46063420D01*
X65199668Y-46069216D01*
X65165473Y-46128444D01*
X65163433Y-46134719D01*
X65163429Y-46134730D01*
X65161117Y-46141845D01*
X65153562Y-46160084D01*
X65150170Y-46166741D01*
X65150166Y-46166751D01*
X65147171Y-46172630D01*
X65145462Y-46179005D01*
X65145462Y-46179007D01*
X65129472Y-46238678D01*
X65127600Y-46244996D01*
X65108496Y-46303795D01*
X65108493Y-46303807D01*
X65106458Y-46310072D01*
X65105769Y-46316620D01*
X65105767Y-46316633D01*
X65104984Y-46324084D01*
X65101385Y-46343503D01*
X65099452Y-46350716D01*
X65099451Y-46350721D01*
X65097743Y-46357097D01*
X65097397Y-46363693D01*
X65097397Y-46363695D01*
X65094162Y-46425399D01*
X65093645Y-46431964D01*
X65091500Y-46452390D01*
X65091500Y-46455683D01*
X65091500Y-46472926D01*
X65091327Y-46479519D01*
X65087748Y-46547810D01*
X65088780Y-46554324D01*
X65089949Y-46561705D01*
X65091500Y-46581417D01*
X65091500Y-50465500D01*
X65074619Y-50528500D01*
X65028500Y-50574619D01*
X64965500Y-50591500D01*
X61628503Y-50591500D01*
X61580285Y-50581909D01*
X61539408Y-50554595D01*
X60508408Y-49523595D01*
X60477670Y-49473436D01*
X60473054Y-49414789D01*
X60495567Y-49360439D01*
X60540300Y-49322233D01*
X60597503Y-49308500D01*
X61345269Y-49308500D01*
X61348638Y-49308500D01*
X61409201Y-49301989D01*
X61546204Y-49250889D01*
X61663261Y-49163261D01*
X61750889Y-49046204D01*
X61801989Y-48909201D01*
X61808500Y-48848638D01*
X61808500Y-48028503D01*
X61818091Y-47980285D01*
X61845405Y-47939408D01*
X74339408Y-35445405D01*
X74380285Y-35418091D01*
X74428503Y-35408500D01*
X87471497Y-35408500D01*
X87519715Y-35418091D01*
G37*
%TD.AperFunction*%
%TA.AperFunction,Conductor*%
G36*
X69877700Y-52064525D02*
G01*
X69924195Y-52117543D01*
X69940149Y-52151758D01*
X69940151Y-52151761D01*
X69942477Y-52156749D01*
X69945630Y-52161252D01*
X69945633Y-52161257D01*
X70022123Y-52270496D01*
X70073802Y-52344300D01*
X70077699Y-52348197D01*
X70134595Y-52405093D01*
X70161909Y-52445970D01*
X70171500Y-52494188D01*
X70171500Y-53018583D01*
X70169949Y-53038292D01*
X70167748Y-53052190D01*
X70168093Y-53058776D01*
X70168093Y-53058781D01*
X70171327Y-53120480D01*
X70171500Y-53127074D01*
X70171500Y-53147610D01*
X70171842Y-53150874D01*
X70171843Y-53150875D01*
X70173646Y-53168033D01*
X70174162Y-53174599D01*
X70177397Y-53236306D01*
X70177743Y-53242903D01*
X70179451Y-53249280D01*
X70179453Y-53249288D01*
X70181383Y-53256491D01*
X70184985Y-53275925D01*
X70185765Y-53283351D01*
X70185768Y-53283366D01*
X70186458Y-53289928D01*
X70207600Y-53354999D01*
X70209468Y-53361305D01*
X70225461Y-53420991D01*
X70225463Y-53420996D01*
X70227171Y-53427370D01*
X70230165Y-53433246D01*
X70230168Y-53433254D01*
X70233560Y-53439911D01*
X70241120Y-53458162D01*
X70245473Y-53471556D01*
X70279681Y-53530806D01*
X70282818Y-53536585D01*
X70313871Y-53597530D01*
X70318025Y-53602660D01*
X70322728Y-53608468D01*
X70333918Y-53624748D01*
X70340960Y-53636944D01*
X70345375Y-53641848D01*
X70345377Y-53641850D01*
X70386729Y-53687776D01*
X70391000Y-53692777D01*
X70403928Y-53708741D01*
X70406266Y-53711079D01*
X70418442Y-53723255D01*
X70422967Y-53728022D01*
X70468747Y-53778866D01*
X70480132Y-53787137D01*
X70495164Y-53799977D01*
X74115295Y-57420108D01*
X74142609Y-57460985D01*
X74152200Y-57509203D01*
X74152200Y-57743737D01*
X74139206Y-57799465D01*
X74102904Y-57843699D01*
X74050781Y-57867316D01*
X73993589Y-57865444D01*
X73853401Y-57827881D01*
X73853402Y-57827881D01*
X73848087Y-57826457D01*
X73842611Y-57825977D01*
X73842606Y-57825977D01*
X73625475Y-57806981D01*
X73620000Y-57806502D01*
X73614525Y-57806981D01*
X73397393Y-57825977D01*
X73397386Y-57825978D01*
X73391913Y-57826457D01*
X73386599Y-57827880D01*
X73386598Y-57827881D01*
X73176067Y-57884293D01*
X73176065Y-57884293D01*
X73170757Y-57885716D01*
X73165779Y-57888036D01*
X73165774Y-57888039D01*
X72968238Y-57980151D01*
X72968233Y-57980153D01*
X72963251Y-57982477D01*
X72958752Y-57985627D01*
X72958742Y-57985633D01*
X72780211Y-58110643D01*
X72780208Y-58110645D01*
X72775700Y-58113802D01*
X72771808Y-58117693D01*
X72771802Y-58117699D01*
X72617699Y-58271802D01*
X72617693Y-58271808D01*
X72613802Y-58275700D01*
X72610645Y-58280208D01*
X72610643Y-58280211D01*
X72485633Y-58458742D01*
X72485627Y-58458752D01*
X72482477Y-58463251D01*
X72480153Y-58468233D01*
X72480151Y-58468238D01*
X72464195Y-58502457D01*
X72417700Y-58555474D01*
X72350000Y-58575207D01*
X72282300Y-58555474D01*
X72235805Y-58502457D01*
X72233418Y-58497338D01*
X72217523Y-58463251D01*
X72086198Y-58275700D01*
X71924300Y-58113802D01*
X71848308Y-58060592D01*
X71741257Y-57985633D01*
X71741252Y-57985630D01*
X71736749Y-57982477D01*
X71713202Y-57971497D01*
X71534225Y-57888039D01*
X71534223Y-57888038D01*
X71529243Y-57885716D01*
X71308087Y-57826457D01*
X71302611Y-57825977D01*
X71302606Y-57825977D01*
X71094248Y-57807748D01*
X71051980Y-57796422D01*
X71016135Y-57771322D01*
X66232768Y-52987955D01*
X66200156Y-52931471D01*
X66200156Y-52866249D01*
X66232768Y-52809764D01*
X66289249Y-52777154D01*
X66449243Y-52734284D01*
X66656749Y-52637523D01*
X66844300Y-52506198D01*
X67006198Y-52344300D01*
X67137523Y-52156749D01*
X67155804Y-52117543D01*
X67202300Y-52064525D01*
X67270000Y-52044792D01*
X67337700Y-52064525D01*
X67384195Y-52117543D01*
X67400149Y-52151758D01*
X67400151Y-52151761D01*
X67402477Y-52156749D01*
X67405630Y-52161252D01*
X67405633Y-52161257D01*
X67482123Y-52270496D01*
X67533802Y-52344300D01*
X67695700Y-52506198D01*
X67813533Y-52588706D01*
X67873442Y-52630655D01*
X67883251Y-52637523D01*
X68090757Y-52734284D01*
X68311913Y-52793543D01*
X68540000Y-52813498D01*
X68768087Y-52793543D01*
X68989243Y-52734284D01*
X69196749Y-52637523D01*
X69384300Y-52506198D01*
X69546198Y-52344300D01*
X69677523Y-52156749D01*
X69695804Y-52117543D01*
X69742300Y-52064525D01*
X69810000Y-52044792D01*
X69877700Y-52064525D01*
G37*
%TD.AperFunction*%
%TA.AperFunction,Conductor*%
G36*
X56619715Y-42918091D02*
G01*
X56660592Y-42945405D01*
X57554595Y-43839408D01*
X57581909Y-43880285D01*
X57591500Y-43928503D01*
X57591500Y-48718583D01*
X57589949Y-48738292D01*
X57587748Y-48752190D01*
X57588093Y-48758776D01*
X57588093Y-48758781D01*
X57591327Y-48820480D01*
X57591500Y-48827074D01*
X57591500Y-48847610D01*
X57593088Y-48862728D01*
X57593646Y-48868033D01*
X57594162Y-48874599D01*
X57597397Y-48936306D01*
X57597743Y-48942903D01*
X57599451Y-48949280D01*
X57599453Y-48949288D01*
X57601383Y-48956491D01*
X57604985Y-48975925D01*
X57605765Y-48983351D01*
X57605768Y-48983366D01*
X57606458Y-48989928D01*
X57627600Y-49054999D01*
X57629468Y-49061305D01*
X57645461Y-49120991D01*
X57645463Y-49120996D01*
X57647171Y-49127370D01*
X57650165Y-49133246D01*
X57650168Y-49133254D01*
X57653560Y-49139911D01*
X57661121Y-49158163D01*
X57663161Y-49164443D01*
X57665473Y-49171556D01*
X57699681Y-49230806D01*
X57702818Y-49236585D01*
X57733871Y-49297530D01*
X57738025Y-49302660D01*
X57742728Y-49308468D01*
X57753918Y-49324748D01*
X57760960Y-49336944D01*
X57795792Y-49375630D01*
X57806729Y-49387776D01*
X57811000Y-49392777D01*
X57823928Y-49408741D01*
X57826266Y-49411079D01*
X57838442Y-49423255D01*
X57842967Y-49428022D01*
X57888747Y-49478866D01*
X57900132Y-49487137D01*
X57915164Y-49499977D01*
X59891192Y-51476005D01*
X59921930Y-51526164D01*
X59926546Y-51584811D01*
X59904033Y-51639161D01*
X59859300Y-51677367D01*
X59802097Y-51691100D01*
X58293703Y-51691100D01*
X58245485Y-51681509D01*
X58204608Y-51654195D01*
X55585577Y-49035164D01*
X55572735Y-49020129D01*
X55564466Y-49008747D01*
X55513622Y-48962967D01*
X55508855Y-48958442D01*
X55496679Y-48946266D01*
X55496678Y-48946265D01*
X55494341Y-48943928D01*
X55478377Y-48931000D01*
X55473376Y-48926729D01*
X55462104Y-48916580D01*
X55422544Y-48880960D01*
X55410348Y-48873918D01*
X55394068Y-48862728D01*
X55388260Y-48858025D01*
X55383130Y-48853871D01*
X55372859Y-48848638D01*
X55322186Y-48822819D01*
X55316406Y-48819681D01*
X55257156Y-48785473D01*
X55250881Y-48783434D01*
X55250879Y-48783433D01*
X55243763Y-48781121D01*
X55225511Y-48773560D01*
X55218854Y-48770168D01*
X55218846Y-48770165D01*
X55212970Y-48767171D01*
X55206596Y-48765463D01*
X55206591Y-48765461D01*
X55146905Y-48749468D01*
X55140599Y-48747600D01*
X55075528Y-48726458D01*
X55068966Y-48725768D01*
X55068951Y-48725765D01*
X55061525Y-48724985D01*
X55042091Y-48721383D01*
X55034888Y-48719453D01*
X55034880Y-48719451D01*
X55028503Y-48717743D01*
X55021907Y-48717397D01*
X55021906Y-48717397D01*
X54960199Y-48714162D01*
X54953640Y-48713646D01*
X54933210Y-48711500D01*
X54929917Y-48711500D01*
X54912674Y-48711500D01*
X54906080Y-48711327D01*
X54844381Y-48708093D01*
X54844376Y-48708093D01*
X54837790Y-48707748D01*
X54823892Y-48709949D01*
X54804183Y-48711500D01*
X54647610Y-48711500D01*
X53994188Y-48711500D01*
X53945970Y-48701909D01*
X53905093Y-48674595D01*
X53848197Y-48617699D01*
X53844300Y-48613802D01*
X53770496Y-48562123D01*
X53661257Y-48485633D01*
X53661252Y-48485630D01*
X53656749Y-48482477D01*
X53541001Y-48428503D01*
X53454225Y-48388039D01*
X53454223Y-48388038D01*
X53449243Y-48385716D01*
X53228087Y-48326457D01*
X53222611Y-48325977D01*
X53222606Y-48325977D01*
X53005475Y-48306981D01*
X53000000Y-48306502D01*
X52994525Y-48306981D01*
X52777393Y-48325977D01*
X52777386Y-48325978D01*
X52771913Y-48326457D01*
X52766599Y-48327880D01*
X52766598Y-48327881D01*
X52646311Y-48360112D01*
X52589119Y-48361984D01*
X52536996Y-48338368D01*
X52500694Y-48294133D01*
X52487700Y-48238405D01*
X52487700Y-43434500D01*
X52504581Y-43371500D01*
X52550700Y-43325381D01*
X52613700Y-43308500D01*
X53845269Y-43308500D01*
X53848638Y-43308500D01*
X53909201Y-43301989D01*
X54046204Y-43250889D01*
X54163261Y-43163261D01*
X54250889Y-43046204D01*
X54271678Y-42990466D01*
X54298544Y-42947550D01*
X54340134Y-42918673D01*
X54389734Y-42908500D01*
X56571497Y-42908500D01*
X56619715Y-42918091D01*
G37*
%TD.AperFunction*%
%TA.AperFunction,Conductor*%
G36*
X134911500Y-31042381D02*
G01*
X134957619Y-31088500D01*
X134974500Y-31151500D01*
X134974500Y-79848500D01*
X134957619Y-79911500D01*
X134911500Y-79957619D01*
X134848500Y-79974500D01*
X35151500Y-79974500D01*
X35088500Y-79957619D01*
X35042381Y-79911500D01*
X35025500Y-79848500D01*
X35025500Y-69000000D01*
X36736654Y-69000000D01*
X36736924Y-69004119D01*
X36754792Y-69276749D01*
X36756017Y-69295426D01*
X36756819Y-69299458D01*
X36756820Y-69299465D01*
X36809832Y-69565970D01*
X36813776Y-69585797D01*
X36815102Y-69589706D01*
X36815104Y-69589710D01*
X36893761Y-69821426D01*
X36908941Y-69866145D01*
X36910760Y-69869834D01*
X36910764Y-69869843D01*
X37022580Y-70096582D01*
X37039885Y-70131673D01*
X37204367Y-70377838D01*
X37399573Y-70600427D01*
X37622162Y-70795633D01*
X37868327Y-70960115D01*
X38133855Y-71091059D01*
X38414203Y-71186224D01*
X38704574Y-71243983D01*
X39000000Y-71263346D01*
X39295426Y-71243983D01*
X39585797Y-71186224D01*
X39747233Y-71131423D01*
X39816346Y-71128029D01*
X39876829Y-71161642D01*
X44880019Y-76164832D01*
X44892860Y-76179865D01*
X44901134Y-76191253D01*
X44906042Y-76195672D01*
X44951958Y-76237015D01*
X44956742Y-76241555D01*
X44971259Y-76256072D01*
X44987222Y-76268999D01*
X44992216Y-76273264D01*
X45043056Y-76319040D01*
X45055239Y-76326074D01*
X45071532Y-76337272D01*
X45082470Y-76346129D01*
X45143409Y-76377178D01*
X45149210Y-76380327D01*
X45208444Y-76414527D01*
X45221827Y-76418875D01*
X45240089Y-76426439D01*
X45252630Y-76432829D01*
X45318688Y-76450529D01*
X45325005Y-76452400D01*
X45390072Y-76473542D01*
X45404061Y-76475012D01*
X45423508Y-76478615D01*
X45437096Y-76482257D01*
X45505404Y-76485836D01*
X45511963Y-76486352D01*
X45532390Y-76488500D01*
X45552925Y-76488500D01*
X45559518Y-76488672D01*
X45627809Y-76492252D01*
X45641706Y-76490050D01*
X45661416Y-76488500D01*
X45744881Y-76488500D01*
X45803062Y-76502737D01*
X45848094Y-76542230D01*
X45869803Y-76598055D01*
X45863282Y-76657596D01*
X45862369Y-76660102D01*
X45860044Y-76665090D01*
X45858620Y-76670402D01*
X45858620Y-76670404D01*
X45832205Y-76768988D01*
X45805314Y-76869345D01*
X45804835Y-76874818D01*
X45804834Y-76874825D01*
X45792793Y-77012460D01*
X45786884Y-77080000D01*
X45787363Y-77085475D01*
X45803958Y-77275165D01*
X45805314Y-77290655D01*
X45860044Y-77494910D01*
X45949411Y-77686558D01*
X45952563Y-77691059D01*
X45952565Y-77691063D01*
X46067539Y-77855264D01*
X46067543Y-77855268D01*
X46070699Y-77859776D01*
X46220224Y-78009301D01*
X46224732Y-78012457D01*
X46224735Y-78012460D01*
X46388936Y-78127434D01*
X46393442Y-78130589D01*
X46585090Y-78219956D01*
X46789345Y-78274686D01*
X47000000Y-78293116D01*
X47210655Y-78274686D01*
X47414910Y-78219956D01*
X47606558Y-78130589D01*
X47779776Y-78009301D01*
X47929301Y-77859776D01*
X48050589Y-77686558D01*
X48139956Y-77494910D01*
X48194686Y-77290655D01*
X48213116Y-77080000D01*
X48194686Y-76869345D01*
X48139956Y-76665090D01*
X48116743Y-76615310D01*
X48104992Y-76565727D01*
X48113841Y-76515542D01*
X48141842Y-76472969D01*
X50644839Y-73969972D01*
X50659867Y-73957137D01*
X50671253Y-73948866D01*
X50717026Y-73898028D01*
X50721531Y-73893280D01*
X50736072Y-73878741D01*
X50749008Y-73862765D01*
X50753266Y-73857779D01*
X50799040Y-73806944D01*
X50806075Y-73794757D01*
X50817271Y-73778467D01*
X50826129Y-73767530D01*
X50857203Y-73706543D01*
X50860315Y-73700811D01*
X50894527Y-73641556D01*
X50898872Y-73628183D01*
X50906441Y-73609908D01*
X50912830Y-73597370D01*
X50930531Y-73531302D01*
X50932403Y-73524986D01*
X50951501Y-73466211D01*
X50951502Y-73466205D01*
X50953542Y-73459928D01*
X50955012Y-73445937D01*
X50958617Y-73426487D01*
X50960547Y-73419284D01*
X50960546Y-73419284D01*
X50962257Y-73412903D01*
X50962424Y-73409713D01*
X50990510Y-73348788D01*
X51047384Y-73310784D01*
X51115733Y-73308096D01*
X51175414Y-73341516D01*
X51727197Y-73893258D01*
X52054592Y-74220628D01*
X52081908Y-74261507D01*
X52091500Y-74309727D01*
X52091500Y-76230790D01*
X52085668Y-76268679D01*
X52068713Y-76303060D01*
X51952565Y-76468936D01*
X51952559Y-76468945D01*
X51949411Y-76473442D01*
X51947092Y-76478414D01*
X51947088Y-76478422D01*
X51862367Y-76660107D01*
X51862364Y-76660112D01*
X51860044Y-76665090D01*
X51858622Y-76670394D01*
X51858621Y-76670399D01*
X51809087Y-76855264D01*
X51805314Y-76869345D01*
X51804835Y-76874818D01*
X51804834Y-76874825D01*
X51792793Y-77012460D01*
X51786884Y-77080000D01*
X51787363Y-77085475D01*
X51803958Y-77275165D01*
X51805314Y-77290655D01*
X51860044Y-77494910D01*
X51949411Y-77686558D01*
X51952563Y-77691059D01*
X51952565Y-77691063D01*
X52067539Y-77855264D01*
X52067543Y-77855268D01*
X52070699Y-77859776D01*
X52220224Y-78009301D01*
X52224732Y-78012457D01*
X52224735Y-78012460D01*
X52388936Y-78127434D01*
X52393442Y-78130589D01*
X52585090Y-78219956D01*
X52789345Y-78274686D01*
X53000000Y-78293116D01*
X53210655Y-78274686D01*
X53414910Y-78219956D01*
X53606558Y-78130589D01*
X53779776Y-78009301D01*
X53929301Y-77859776D01*
X54050589Y-77686558D01*
X54139956Y-77494910D01*
X54194686Y-77290655D01*
X54213116Y-77080000D01*
X54194686Y-76869345D01*
X54139956Y-76665090D01*
X54050589Y-76473442D01*
X54047434Y-76468936D01*
X53931287Y-76303060D01*
X53914332Y-76268679D01*
X53908500Y-76230790D01*
X53908500Y-74289503D01*
X53918091Y-74241285D01*
X53945405Y-74200408D01*
X54645813Y-73500000D01*
X98186502Y-73500000D01*
X98186981Y-73505475D01*
X98199386Y-73647273D01*
X98206457Y-73728087D01*
X98265716Y-73949243D01*
X98362477Y-74156749D01*
X98365630Y-74161252D01*
X98365633Y-74161257D01*
X98418889Y-74237313D01*
X98493802Y-74344300D01*
X98655700Y-74506198D01*
X98843251Y-74637523D01*
X99050757Y-74734284D01*
X99271913Y-74793543D01*
X99485751Y-74812251D01*
X99528019Y-74823577D01*
X99563864Y-74848677D01*
X101380019Y-76664832D01*
X101392860Y-76679865D01*
X101401134Y-76691253D01*
X101406042Y-76695672D01*
X101451958Y-76737015D01*
X101456743Y-76741556D01*
X101471259Y-76756072D01*
X101487222Y-76768999D01*
X101492216Y-76773264D01*
X101543056Y-76819040D01*
X101555239Y-76826074D01*
X101571532Y-76837272D01*
X101582470Y-76846129D01*
X101638791Y-76874825D01*
X101643409Y-76877178D01*
X101649210Y-76880327D01*
X101708444Y-76914527D01*
X101721827Y-76918875D01*
X101740089Y-76926439D01*
X101752630Y-76932829D01*
X101818701Y-76950532D01*
X101825019Y-76952405D01*
X101890072Y-76973542D01*
X101904073Y-76975013D01*
X101923509Y-76978615D01*
X101937097Y-76982257D01*
X102005403Y-76985836D01*
X102011962Y-76986353D01*
X102018634Y-76987054D01*
X102032390Y-76988500D01*
X102052926Y-76988500D01*
X102059519Y-76988672D01*
X102127810Y-76992252D01*
X102141707Y-76990050D01*
X102161417Y-76988500D01*
X105900790Y-76988500D01*
X105938679Y-76994332D01*
X105973060Y-77011287D01*
X106063374Y-77074525D01*
X106143442Y-77130589D01*
X106335090Y-77219956D01*
X106539345Y-77274686D01*
X106750000Y-77293116D01*
X106960655Y-77274686D01*
X107164910Y-77219956D01*
X107356558Y-77130589D01*
X107529776Y-77009301D01*
X107679301Y-76859776D01*
X107800589Y-76686558D01*
X107889956Y-76494910D01*
X107944686Y-76290655D01*
X107963116Y-76080000D01*
X107944686Y-75869345D01*
X107889956Y-75665090D01*
X107800589Y-75473442D01*
X107679301Y-75300224D01*
X107529776Y-75150699D01*
X107525268Y-75147543D01*
X107525264Y-75147539D01*
X107361063Y-75032565D01*
X107361059Y-75032563D01*
X107356558Y-75029411D01*
X107351579Y-75027089D01*
X107351577Y-75027088D01*
X107293487Y-75000000D01*
X113436502Y-75000000D01*
X113436981Y-75005475D01*
X113449512Y-75148713D01*
X113456457Y-75228087D01*
X113515716Y-75449243D01*
X113612477Y-75656749D01*
X113615630Y-75661252D01*
X113615633Y-75661257D01*
X113692123Y-75770496D01*
X113743802Y-75844300D01*
X113905700Y-76006198D01*
X114093251Y-76137523D01*
X114300757Y-76234284D01*
X114521913Y-76293543D01*
X114750000Y-76313498D01*
X114978087Y-76293543D01*
X115199243Y-76234284D01*
X115406749Y-76137523D01*
X115594300Y-76006198D01*
X115756198Y-75844300D01*
X115887523Y-75656749D01*
X115984284Y-75449243D01*
X116043543Y-75228087D01*
X116062251Y-75014245D01*
X116073577Y-74971979D01*
X116098674Y-74936137D01*
X118283539Y-72751272D01*
X118298567Y-72738437D01*
X118309953Y-72730166D01*
X118355726Y-72679328D01*
X118360231Y-72674580D01*
X118374772Y-72660041D01*
X118387708Y-72644065D01*
X118391966Y-72639079D01*
X118437740Y-72588244D01*
X118444775Y-72576057D01*
X118455971Y-72559767D01*
X118464829Y-72548830D01*
X118495903Y-72487843D01*
X118499015Y-72482111D01*
X118533227Y-72422856D01*
X118537534Y-72409600D01*
X118537572Y-72409483D01*
X118545141Y-72391208D01*
X118551530Y-72378670D01*
X118569231Y-72312602D01*
X118571103Y-72306286D01*
X118590201Y-72247511D01*
X118590202Y-72247505D01*
X118592242Y-72241228D01*
X118593712Y-72227237D01*
X118597317Y-72207787D01*
X118599247Y-72200584D01*
X118599246Y-72200584D01*
X118600957Y-72194203D01*
X118604536Y-72125892D01*
X118605053Y-72119334D01*
X118606856Y-72102185D01*
X118606856Y-72102180D01*
X118607200Y-72098910D01*
X118607200Y-72078374D01*
X118607373Y-72071780D01*
X118610952Y-72003490D01*
X118608750Y-71989592D01*
X118607200Y-71969883D01*
X118607200Y-60611203D01*
X118616791Y-60562985D01*
X118644102Y-60522110D01*
X119665091Y-59501120D01*
X119713679Y-59470906D01*
X119770624Y-59465296D01*
X119824179Y-59485450D01*
X119862094Y-59525927D01*
X119862477Y-59526749D01*
X119865624Y-59531244D01*
X119865628Y-59531250D01*
X119919595Y-59608322D01*
X119993802Y-59714300D01*
X120155700Y-59876198D01*
X120266521Y-59953796D01*
X120331554Y-59999333D01*
X120343251Y-60007523D01*
X120550757Y-60104284D01*
X120771913Y-60163543D01*
X121000000Y-60183498D01*
X121228087Y-60163543D01*
X121449243Y-60104284D01*
X121656749Y-60007523D01*
X121844300Y-59876198D01*
X121905093Y-59815404D01*
X121945970Y-59788091D01*
X121994188Y-59778500D01*
X122171497Y-59778500D01*
X122219715Y-59788091D01*
X122260592Y-59815405D01*
X126780019Y-64334832D01*
X126792860Y-64349865D01*
X126801134Y-64361253D01*
X126827058Y-64384595D01*
X126851958Y-64407015D01*
X126856742Y-64411555D01*
X126871259Y-64426072D01*
X126887222Y-64438999D01*
X126892216Y-64443264D01*
X126943056Y-64489040D01*
X126952556Y-64494525D01*
X126955239Y-64496074D01*
X126971532Y-64507272D01*
X126982470Y-64516129D01*
X127040220Y-64545553D01*
X127043409Y-64547178D01*
X127049210Y-64550327D01*
X127108444Y-64584527D01*
X127121827Y-64588875D01*
X127140089Y-64596439D01*
X127152630Y-64602829D01*
X127216128Y-64619843D01*
X127218688Y-64620529D01*
X127225005Y-64622400D01*
X127290072Y-64643542D01*
X127304061Y-64645012D01*
X127323508Y-64648615D01*
X127337096Y-64652257D01*
X127405404Y-64655836D01*
X127411963Y-64656352D01*
X127432390Y-64658500D01*
X127452925Y-64658500D01*
X127459518Y-64658672D01*
X127527809Y-64662252D01*
X127541706Y-64660050D01*
X127561416Y-64658500D01*
X128101476Y-64658500D01*
X128168012Y-64677500D01*
X128214481Y-64728770D01*
X128289885Y-64881673D01*
X128454367Y-65127838D01*
X128649573Y-65350427D01*
X128872162Y-65545633D01*
X129118327Y-65710115D01*
X129237725Y-65768995D01*
X129326995Y-65813019D01*
X129383855Y-65841059D01*
X129664203Y-65936224D01*
X129954574Y-65993983D01*
X130250000Y-66013346D01*
X130545426Y-65993983D01*
X130835797Y-65936224D01*
X131116145Y-65841059D01*
X131381673Y-65710115D01*
X131627838Y-65545633D01*
X131850427Y-65350427D01*
X132045633Y-65127838D01*
X132210115Y-64881673D01*
X132341059Y-64616145D01*
X132436224Y-64335797D01*
X132493983Y-64045426D01*
X132513346Y-63750000D01*
X132493983Y-63454574D01*
X132436224Y-63164203D01*
X132341059Y-62883855D01*
X132329943Y-62861315D01*
X132222933Y-62644320D01*
X132210115Y-62618327D01*
X132045633Y-62372162D01*
X131850427Y-62149573D01*
X131627838Y-61954367D01*
X131381673Y-61789885D01*
X131377973Y-61788060D01*
X131377969Y-61788058D01*
X131119843Y-61660764D01*
X131119834Y-61660760D01*
X131116145Y-61658941D01*
X131072263Y-61644045D01*
X130839710Y-61565104D01*
X130839706Y-61565102D01*
X130835797Y-61563776D01*
X130831752Y-61562971D01*
X130831747Y-61562970D01*
X130549465Y-61506820D01*
X130549458Y-61506819D01*
X130545426Y-61506017D01*
X130541319Y-61505747D01*
X130541313Y-61505747D01*
X130254119Y-61486924D01*
X130250000Y-61486654D01*
X130245881Y-61486924D01*
X129958686Y-61505747D01*
X129958678Y-61505747D01*
X129954574Y-61506017D01*
X129950543Y-61506818D01*
X129950534Y-61506820D01*
X129668252Y-61562970D01*
X129668243Y-61562972D01*
X129664203Y-61563776D01*
X129660297Y-61565101D01*
X129660289Y-61565104D01*
X129387760Y-61657615D01*
X129387754Y-61657617D01*
X129383855Y-61658941D01*
X129380170Y-61660757D01*
X129380156Y-61660764D01*
X129122030Y-61788058D01*
X129122019Y-61788064D01*
X129118327Y-61789885D01*
X129114898Y-61792175D01*
X129114893Y-61792179D01*
X128875593Y-61952074D01*
X128875588Y-61952077D01*
X128872162Y-61954367D01*
X128869067Y-61957080D01*
X128869062Y-61957085D01*
X128652661Y-62146864D01*
X128652653Y-62146871D01*
X128649573Y-62149573D01*
X128646871Y-62152653D01*
X128646864Y-62152661D01*
X128457085Y-62369062D01*
X128457080Y-62369067D01*
X128454367Y-62372162D01*
X128452077Y-62375588D01*
X128452074Y-62375593D01*
X128292179Y-62614893D01*
X128292175Y-62614898D01*
X128289885Y-62618327D01*
X128288063Y-62622020D01*
X128288061Y-62622025D01*
X128214482Y-62771229D01*
X128168012Y-62822500D01*
X128101476Y-62841500D01*
X127908503Y-62841500D01*
X127860285Y-62831909D01*
X127819408Y-62804595D01*
X123638408Y-58623595D01*
X123607670Y-58573436D01*
X123603054Y-58514789D01*
X123625567Y-58460439D01*
X123670300Y-58422233D01*
X123727503Y-58408500D01*
X124150790Y-58408500D01*
X124188679Y-58414332D01*
X124223060Y-58431287D01*
X124376874Y-58538988D01*
X124393442Y-58550589D01*
X124585090Y-58639956D01*
X124789345Y-58694686D01*
X125000000Y-58713116D01*
X125210655Y-58694686D01*
X125414910Y-58639956D01*
X125606558Y-58550589D01*
X125748965Y-58450875D01*
X125776940Y-58431287D01*
X125811321Y-58414332D01*
X125849210Y-58408500D01*
X127418583Y-58408500D01*
X127438292Y-58410050D01*
X127452190Y-58412252D01*
X127520480Y-58408672D01*
X127527074Y-58408500D01*
X127544320Y-58408500D01*
X127547610Y-58408500D01*
X127550880Y-58408156D01*
X127550885Y-58408156D01*
X127559892Y-58407209D01*
X127568042Y-58406352D01*
X127574592Y-58405836D01*
X127642903Y-58402257D01*
X127650038Y-58400344D01*
X127656487Y-58398617D01*
X127675938Y-58395012D01*
X127689928Y-58393542D01*
X127755014Y-58372393D01*
X127761299Y-58370532D01*
X127827370Y-58352829D01*
X127839903Y-58346442D01*
X127858167Y-58338876D01*
X127871556Y-58334527D01*
X127930801Y-58300320D01*
X127936551Y-58297197D01*
X127997530Y-58266129D01*
X128008467Y-58257271D01*
X128024757Y-58246075D01*
X128036944Y-58239040D01*
X128087779Y-58193266D01*
X128092765Y-58189008D01*
X128108741Y-58176072D01*
X128123280Y-58161531D01*
X128128028Y-58157026D01*
X128178866Y-58111253D01*
X128187137Y-58099867D01*
X128199972Y-58084839D01*
X129373172Y-56911639D01*
X129433654Y-56878027D01*
X129502762Y-56881422D01*
X129664203Y-56936224D01*
X129954574Y-56993983D01*
X130250000Y-57013346D01*
X130545426Y-56993983D01*
X130835797Y-56936224D01*
X131116145Y-56841059D01*
X131381673Y-56710115D01*
X131627838Y-56545633D01*
X131850427Y-56350427D01*
X132045633Y-56127838D01*
X132210115Y-55881673D01*
X132341059Y-55616145D01*
X132436224Y-55335797D01*
X132493983Y-55045426D01*
X132513346Y-54750000D01*
X132493983Y-54454574D01*
X132436224Y-54164203D01*
X132341059Y-53883855D01*
X132333401Y-53868327D01*
X132211941Y-53622030D01*
X132210115Y-53618327D01*
X132045633Y-53372162D01*
X131850427Y-53149573D01*
X131627838Y-52954367D01*
X131381673Y-52789885D01*
X131377973Y-52788060D01*
X131377969Y-52788058D01*
X131119843Y-52660764D01*
X131119834Y-52660760D01*
X131116145Y-52658941D01*
X131091305Y-52650509D01*
X130839710Y-52565104D01*
X130839706Y-52565102D01*
X130835797Y-52563776D01*
X130831752Y-52562971D01*
X130831747Y-52562970D01*
X130549465Y-52506820D01*
X130549458Y-52506819D01*
X130545426Y-52506017D01*
X130541319Y-52505747D01*
X130541313Y-52505747D01*
X130254119Y-52486924D01*
X130250000Y-52486654D01*
X130245881Y-52486924D01*
X129958686Y-52505747D01*
X129958678Y-52505747D01*
X129954574Y-52506017D01*
X129950543Y-52506818D01*
X129950534Y-52506820D01*
X129668252Y-52562970D01*
X129668243Y-52562972D01*
X129664203Y-52563776D01*
X129660297Y-52565101D01*
X129660289Y-52565104D01*
X129387760Y-52657615D01*
X129387754Y-52657617D01*
X129383855Y-52658941D01*
X129380170Y-52660757D01*
X129380156Y-52660764D01*
X129122030Y-52788058D01*
X129122019Y-52788064D01*
X129118327Y-52789885D01*
X129114898Y-52792175D01*
X129114893Y-52792179D01*
X128875593Y-52952074D01*
X128875588Y-52952077D01*
X128872162Y-52954367D01*
X128869067Y-52957080D01*
X128869062Y-52957085D01*
X128652661Y-53146864D01*
X128652653Y-53146871D01*
X128649573Y-53149573D01*
X128646871Y-53152653D01*
X128646864Y-53152661D01*
X128457085Y-53369062D01*
X128457080Y-53369067D01*
X128454367Y-53372162D01*
X128452077Y-53375588D01*
X128452074Y-53375593D01*
X128292179Y-53614893D01*
X128292175Y-53614898D01*
X128289885Y-53618327D01*
X128288064Y-53622019D01*
X128288058Y-53622030D01*
X128160764Y-53880156D01*
X128160757Y-53880170D01*
X128158941Y-53883855D01*
X128157617Y-53887754D01*
X128157615Y-53887760D01*
X128065104Y-54160289D01*
X128065101Y-54160297D01*
X128063776Y-54164203D01*
X128062972Y-54168243D01*
X128062970Y-54168252D01*
X128006820Y-54450534D01*
X128006818Y-54450543D01*
X128006017Y-54454574D01*
X128005747Y-54458678D01*
X128005747Y-54458686D01*
X127994411Y-54631654D01*
X127986654Y-54750000D01*
X127986924Y-54754119D01*
X128003309Y-55004119D01*
X128006017Y-55045426D01*
X128006819Y-55049458D01*
X128006820Y-55049465D01*
X128056549Y-55299465D01*
X128063776Y-55335797D01*
X128065103Y-55339706D01*
X128065104Y-55339710D01*
X128118575Y-55497232D01*
X128121970Y-55566345D01*
X128088357Y-55626828D01*
X127160589Y-56554597D01*
X127119715Y-56581909D01*
X127071497Y-56591500D01*
X125849210Y-56591500D01*
X125811321Y-56585668D01*
X125776940Y-56568713D01*
X125611063Y-56452565D01*
X125611059Y-56452563D01*
X125606558Y-56449411D01*
X125601579Y-56447089D01*
X125601577Y-56447088D01*
X125419892Y-56362367D01*
X125419890Y-56362366D01*
X125414910Y-56360044D01*
X125409601Y-56358621D01*
X125409600Y-56358621D01*
X125215969Y-56306738D01*
X125215970Y-56306738D01*
X125210655Y-56305314D01*
X125205179Y-56304834D01*
X125205174Y-56304834D01*
X125005475Y-56287363D01*
X125000000Y-56286884D01*
X124994525Y-56287363D01*
X124794825Y-56304834D01*
X124794818Y-56304835D01*
X124789345Y-56305314D01*
X124784031Y-56306737D01*
X124784030Y-56306738D01*
X124590399Y-56358621D01*
X124590394Y-56358622D01*
X124585090Y-56360044D01*
X124580112Y-56362364D01*
X124580107Y-56362367D01*
X124398422Y-56447088D01*
X124398414Y-56447092D01*
X124393442Y-56449411D01*
X124388945Y-56452559D01*
X124388936Y-56452565D01*
X124223060Y-56568713D01*
X124188679Y-56585668D01*
X124150790Y-56591500D01*
X123811310Y-56591500D01*
X123766193Y-56583137D01*
X123760370Y-56580171D01*
X123753996Y-56578463D01*
X123753991Y-56578461D01*
X123694305Y-56562468D01*
X123687999Y-56560600D01*
X123622928Y-56539458D01*
X123616366Y-56538768D01*
X123616351Y-56538765D01*
X123608925Y-56537985D01*
X123589491Y-56534383D01*
X123582288Y-56532453D01*
X123582280Y-56532451D01*
X123575903Y-56530743D01*
X123569307Y-56530397D01*
X123569306Y-56530397D01*
X123507599Y-56527162D01*
X123501040Y-56526646D01*
X123480610Y-56524500D01*
X123477317Y-56524500D01*
X123460074Y-56524500D01*
X123453480Y-56524327D01*
X123391781Y-56521093D01*
X123391776Y-56521093D01*
X123385190Y-56520748D01*
X123371292Y-56522949D01*
X123351583Y-56524500D01*
X120529817Y-56524500D01*
X120510107Y-56522949D01*
X120496210Y-56520748D01*
X120489622Y-56521093D01*
X120489618Y-56521093D01*
X120427920Y-56524327D01*
X120421326Y-56524500D01*
X120400790Y-56524500D01*
X120397529Y-56524842D01*
X120397521Y-56524843D01*
X120380364Y-56526646D01*
X120373799Y-56527162D01*
X120312095Y-56530397D01*
X120312093Y-56530397D01*
X120305497Y-56530743D01*
X120299121Y-56532451D01*
X120299116Y-56532452D01*
X120291903Y-56534385D01*
X120272484Y-56537984D01*
X120265033Y-56538767D01*
X120265020Y-56538769D01*
X120258472Y-56539458D01*
X120252207Y-56541493D01*
X120252195Y-56541496D01*
X120193396Y-56560600D01*
X120187078Y-56562472D01*
X120127407Y-56578462D01*
X120127405Y-56578462D01*
X120121030Y-56580171D01*
X120115151Y-56583166D01*
X120115141Y-56583170D01*
X120108484Y-56586562D01*
X120090245Y-56594117D01*
X120083130Y-56596429D01*
X120083119Y-56596433D01*
X120076844Y-56598473D01*
X120071127Y-56601773D01*
X120071124Y-56601775D01*
X120017616Y-56632668D01*
X120011820Y-56635815D01*
X119956749Y-56663875D01*
X119956745Y-56663877D01*
X119950870Y-56666871D01*
X119945750Y-56671016D01*
X119945737Y-56671025D01*
X119939924Y-56675733D01*
X119923646Y-56686920D01*
X119917174Y-56690656D01*
X119917158Y-56690667D01*
X119911456Y-56693960D01*
X119906555Y-56698372D01*
X119906549Y-56698377D01*
X119860621Y-56739728D01*
X119855619Y-56744001D01*
X119842222Y-56754851D01*
X119842207Y-56754863D01*
X119839659Y-56756928D01*
X119837335Y-56759251D01*
X119837327Y-56759259D01*
X119825130Y-56771456D01*
X119820349Y-56775992D01*
X119774442Y-56817326D01*
X119774433Y-56817335D01*
X119769534Y-56821747D01*
X119765654Y-56827086D01*
X119765654Y-56827087D01*
X119761258Y-56833137D01*
X119748422Y-56848163D01*
X117113863Y-59482722D01*
X117098837Y-59495558D01*
X117087447Y-59503834D01*
X117083035Y-59508733D01*
X117083026Y-59508742D01*
X117041692Y-59554649D01*
X117037156Y-59559430D01*
X117024959Y-59571627D01*
X117024951Y-59571635D01*
X117022628Y-59573959D01*
X117020563Y-59576507D01*
X117020551Y-59576522D01*
X117009701Y-59589919D01*
X117005428Y-59594921D01*
X116964077Y-59640849D01*
X116964072Y-59640855D01*
X116959660Y-59645756D01*
X116956367Y-59651458D01*
X116956356Y-59651474D01*
X116952620Y-59657946D01*
X116941433Y-59674224D01*
X116936725Y-59680037D01*
X116936716Y-59680050D01*
X116932571Y-59685170D01*
X116929577Y-59691045D01*
X116929575Y-59691049D01*
X116901515Y-59746120D01*
X116898368Y-59751916D01*
X116877483Y-59788091D01*
X116864173Y-59811144D01*
X116862133Y-59817419D01*
X116862129Y-59817430D01*
X116859817Y-59824545D01*
X116852262Y-59842784D01*
X116848870Y-59849441D01*
X116848866Y-59849451D01*
X116845871Y-59855330D01*
X116844162Y-59861705D01*
X116844162Y-59861707D01*
X116828172Y-59921378D01*
X116826300Y-59927696D01*
X116807196Y-59986495D01*
X116807193Y-59986507D01*
X116805158Y-59992772D01*
X116804469Y-59999320D01*
X116804467Y-59999333D01*
X116803684Y-60006784D01*
X116800085Y-60026203D01*
X116798152Y-60033416D01*
X116798151Y-60033421D01*
X116796443Y-60039797D01*
X116796097Y-60046393D01*
X116796097Y-60046395D01*
X116792862Y-60108099D01*
X116792345Y-60114664D01*
X116790200Y-60135090D01*
X116790200Y-60138383D01*
X116790200Y-60155626D01*
X116790027Y-60162219D01*
X116786448Y-60230510D01*
X116787480Y-60237024D01*
X116788649Y-60244405D01*
X116790200Y-60264117D01*
X116790200Y-71622796D01*
X116780609Y-71671014D01*
X116753295Y-71711892D01*
X116229502Y-72235684D01*
X116173018Y-72268295D01*
X116107796Y-72268295D01*
X116051312Y-72235683D01*
X116018700Y-72179199D01*
X116004423Y-72125917D01*
X115984284Y-72050757D01*
X115887523Y-71843251D01*
X115756198Y-71655700D01*
X115695404Y-71594906D01*
X115668091Y-71554030D01*
X115658500Y-71505812D01*
X115658500Y-69599210D01*
X115664332Y-69561321D01*
X115681287Y-69526940D01*
X115722419Y-69468197D01*
X115800589Y-69356558D01*
X115889956Y-69164910D01*
X115944686Y-68960655D01*
X115963116Y-68750000D01*
X115944686Y-68539345D01*
X115889956Y-68335090D01*
X115800589Y-68143442D01*
X115797434Y-68138936D01*
X115682460Y-67974735D01*
X115682457Y-67974732D01*
X115679301Y-67970224D01*
X115529776Y-67820699D01*
X115525268Y-67817543D01*
X115525264Y-67817539D01*
X115361063Y-67702565D01*
X115361059Y-67702563D01*
X115356558Y-67699411D01*
X115351579Y-67697089D01*
X115351577Y-67697088D01*
X115169892Y-67612367D01*
X115169890Y-67612366D01*
X115164910Y-67610044D01*
X115159601Y-67608621D01*
X115159600Y-67608621D01*
X115014814Y-67569826D01*
X114960655Y-67555314D01*
X114955179Y-67554834D01*
X114955174Y-67554834D01*
X114755475Y-67537363D01*
X114750000Y-67536884D01*
X114744525Y-67537363D01*
X114544825Y-67554834D01*
X114544818Y-67554835D01*
X114539345Y-67555314D01*
X114534031Y-67556737D01*
X114534030Y-67556738D01*
X114340399Y-67608621D01*
X114340394Y-67608622D01*
X114335090Y-67610044D01*
X114330112Y-67612364D01*
X114330107Y-67612367D01*
X114148422Y-67697088D01*
X114148414Y-67697092D01*
X114143442Y-67699411D01*
X114138945Y-67702559D01*
X114138936Y-67702565D01*
X113974735Y-67817539D01*
X113974725Y-67817547D01*
X113970224Y-67820699D01*
X113966334Y-67824588D01*
X113966328Y-67824594D01*
X113824594Y-67966328D01*
X113824588Y-67966334D01*
X113820699Y-67970224D01*
X113817547Y-67974725D01*
X113817539Y-67974735D01*
X113702565Y-68138936D01*
X113702559Y-68138945D01*
X113699411Y-68143442D01*
X113697092Y-68148414D01*
X113697088Y-68148422D01*
X113612367Y-68330107D01*
X113612364Y-68330112D01*
X113610044Y-68335090D01*
X113608622Y-68340394D01*
X113608621Y-68340399D01*
X113567323Y-68494525D01*
X113555314Y-68539345D01*
X113554835Y-68544818D01*
X113554834Y-68544825D01*
X113539281Y-68722606D01*
X113536884Y-68750000D01*
X113537363Y-68755475D01*
X113554315Y-68949243D01*
X113555314Y-68960655D01*
X113610044Y-69164910D01*
X113612366Y-69169890D01*
X113612367Y-69169892D01*
X113689498Y-69335301D01*
X113699411Y-69356558D01*
X113702563Y-69361059D01*
X113702565Y-69361063D01*
X113818713Y-69526940D01*
X113835668Y-69561321D01*
X113841500Y-69599210D01*
X113841500Y-71505812D01*
X113831909Y-71554030D01*
X113804595Y-71594907D01*
X113747699Y-71651802D01*
X113747693Y-71651808D01*
X113743802Y-71655700D01*
X113740645Y-71660208D01*
X113740643Y-71660211D01*
X113615633Y-71838742D01*
X113615627Y-71838752D01*
X113612477Y-71843251D01*
X113610153Y-71848233D01*
X113610151Y-71848238D01*
X113518039Y-72045774D01*
X113518036Y-72045779D01*
X113515716Y-72050757D01*
X113514293Y-72056065D01*
X113514293Y-72056067D01*
X113458499Y-72264293D01*
X113456457Y-72271913D01*
X113455978Y-72277386D01*
X113455977Y-72277393D01*
X113443251Y-72422856D01*
X113436502Y-72500000D01*
X113436981Y-72505475D01*
X113451773Y-72674558D01*
X113456457Y-72728087D01*
X113515716Y-72949243D01*
X113518038Y-72954223D01*
X113518039Y-72954225D01*
X113590402Y-73109409D01*
X113612477Y-73156749D01*
X113615630Y-73161252D01*
X113615633Y-73161257D01*
X113671381Y-73240872D01*
X113743802Y-73344300D01*
X113905700Y-73506198D01*
X114093251Y-73637523D01*
X114098233Y-73639846D01*
X114100027Y-73640882D01*
X114146145Y-73687001D01*
X114163025Y-73750000D01*
X114146145Y-73812999D01*
X114100027Y-73859118D01*
X114098231Y-73860154D01*
X114093251Y-73862477D01*
X114088749Y-73865628D01*
X114088746Y-73865631D01*
X113910211Y-73990643D01*
X113910208Y-73990645D01*
X113905700Y-73993802D01*
X113901808Y-73997693D01*
X113901802Y-73997699D01*
X113747699Y-74151802D01*
X113747693Y-74151808D01*
X113743802Y-74155700D01*
X113740645Y-74160208D01*
X113740643Y-74160211D01*
X113615633Y-74338742D01*
X113615627Y-74338752D01*
X113612477Y-74343251D01*
X113610153Y-74348233D01*
X113610151Y-74348238D01*
X113518039Y-74545774D01*
X113518036Y-74545779D01*
X113515716Y-74550757D01*
X113514293Y-74556065D01*
X113514293Y-74556067D01*
X113467162Y-74731960D01*
X113456457Y-74771913D01*
X113455978Y-74777386D01*
X113455977Y-74777393D01*
X113438810Y-74973622D01*
X113436502Y-75000000D01*
X107293487Y-75000000D01*
X107169892Y-74942367D01*
X107169890Y-74942366D01*
X107164910Y-74940044D01*
X107159601Y-74938621D01*
X107159600Y-74938621D01*
X106965969Y-74886738D01*
X106965970Y-74886738D01*
X106960655Y-74885314D01*
X106955179Y-74884834D01*
X106955174Y-74884834D01*
X106755475Y-74867363D01*
X106750000Y-74866884D01*
X106744525Y-74867363D01*
X106544825Y-74884834D01*
X106544818Y-74884835D01*
X106539345Y-74885314D01*
X106534031Y-74886737D01*
X106534030Y-74886738D01*
X106340399Y-74938621D01*
X106340394Y-74938622D01*
X106335090Y-74940044D01*
X106330112Y-74942364D01*
X106330107Y-74942367D01*
X106148422Y-75027088D01*
X106148414Y-75027092D01*
X106143442Y-75029411D01*
X106138945Y-75032559D01*
X106138936Y-75032565D01*
X105973060Y-75148713D01*
X105938679Y-75165668D01*
X105900790Y-75171500D01*
X102508503Y-75171500D01*
X102460285Y-75161909D01*
X102419408Y-75134595D01*
X102264315Y-74979502D01*
X102231703Y-74923018D01*
X102231703Y-74857796D01*
X102264315Y-74801311D01*
X102320796Y-74768701D01*
X102449243Y-74734284D01*
X102656749Y-74637523D01*
X102844300Y-74506198D01*
X103006198Y-74344300D01*
X103137523Y-74156749D01*
X103234284Y-73949243D01*
X103293543Y-73728087D01*
X103313498Y-73500000D01*
X103293543Y-73271913D01*
X103234284Y-73050757D01*
X103137523Y-72843251D01*
X103006198Y-72655700D01*
X102844300Y-72493802D01*
X102738746Y-72419892D01*
X102661257Y-72365633D01*
X102661252Y-72365630D01*
X102656749Y-72362477D01*
X102549819Y-72312615D01*
X102454225Y-72268039D01*
X102454223Y-72268038D01*
X102449243Y-72265716D01*
X102228087Y-72206457D01*
X102222611Y-72205977D01*
X102222606Y-72205977D01*
X102005475Y-72186981D01*
X102000000Y-72186502D01*
X101994525Y-72186981D01*
X101777393Y-72205977D01*
X101777386Y-72205978D01*
X101771913Y-72206457D01*
X101766599Y-72207880D01*
X101766598Y-72207881D01*
X101556067Y-72264293D01*
X101556065Y-72264293D01*
X101550757Y-72265716D01*
X101545779Y-72268036D01*
X101545774Y-72268039D01*
X101348238Y-72360151D01*
X101348233Y-72360153D01*
X101343251Y-72362477D01*
X101338752Y-72365627D01*
X101338742Y-72365633D01*
X101160211Y-72490643D01*
X101160208Y-72490645D01*
X101155700Y-72493802D01*
X101151808Y-72497693D01*
X101151802Y-72497699D01*
X100997699Y-72651802D01*
X100997693Y-72651808D01*
X100993802Y-72655700D01*
X100990645Y-72660208D01*
X100990643Y-72660211D01*
X100906923Y-72779776D01*
X100862477Y-72843251D01*
X100860154Y-72848231D01*
X100859118Y-72850027D01*
X100812999Y-72896145D01*
X100750000Y-72913025D01*
X100687001Y-72896145D01*
X100640882Y-72850027D01*
X100639846Y-72848233D01*
X100637523Y-72843251D01*
X100506198Y-72655700D01*
X100344300Y-72493802D01*
X100238746Y-72419892D01*
X100161257Y-72365633D01*
X100161252Y-72365630D01*
X100156749Y-72362477D01*
X100049819Y-72312615D01*
X99954225Y-72268039D01*
X99954223Y-72268038D01*
X99949243Y-72265716D01*
X99728087Y-72206457D01*
X99722611Y-72205977D01*
X99722606Y-72205977D01*
X99505475Y-72186981D01*
X99500000Y-72186502D01*
X99494525Y-72186981D01*
X99277393Y-72205977D01*
X99277386Y-72205978D01*
X99271913Y-72206457D01*
X99266599Y-72207880D01*
X99266598Y-72207881D01*
X99056067Y-72264293D01*
X99056065Y-72264293D01*
X99050757Y-72265716D01*
X99045779Y-72268036D01*
X99045774Y-72268039D01*
X98848238Y-72360151D01*
X98848233Y-72360153D01*
X98843251Y-72362477D01*
X98838752Y-72365627D01*
X98838742Y-72365633D01*
X98660211Y-72490643D01*
X98660208Y-72490645D01*
X98655700Y-72493802D01*
X98651808Y-72497693D01*
X98651802Y-72497699D01*
X98497699Y-72651802D01*
X98497693Y-72651808D01*
X98493802Y-72655700D01*
X98490645Y-72660208D01*
X98490643Y-72660211D01*
X98365633Y-72838742D01*
X98365631Y-72838746D01*
X98362477Y-72843251D01*
X98360153Y-72848233D01*
X98360151Y-72848238D01*
X98268039Y-73045774D01*
X98268036Y-73045779D01*
X98265716Y-73050757D01*
X98206457Y-73271913D01*
X98205978Y-73277386D01*
X98205977Y-73277393D01*
X98192095Y-73436069D01*
X98186502Y-73500000D01*
X54645813Y-73500000D01*
X54734906Y-73410907D01*
X57308042Y-70837769D01*
X57323071Y-70824934D01*
X57334453Y-70816666D01*
X57380217Y-70765838D01*
X57384722Y-70761090D01*
X57399272Y-70746542D01*
X57412222Y-70730548D01*
X57416468Y-70725577D01*
X57462240Y-70674744D01*
X57469277Y-70662554D01*
X57480470Y-70646269D01*
X57489329Y-70635331D01*
X57520400Y-70574346D01*
X57523523Y-70568596D01*
X57557727Y-70509356D01*
X57562076Y-70495967D01*
X57569642Y-70477703D01*
X57576029Y-70465170D01*
X57593729Y-70399108D01*
X57595604Y-70392782D01*
X57614700Y-70334013D01*
X57614700Y-70334011D01*
X57616742Y-70327728D01*
X57618211Y-70313739D01*
X57621817Y-70294288D01*
X57623747Y-70287085D01*
X57623746Y-70287085D01*
X57625457Y-70280704D01*
X57629036Y-70212397D01*
X57629553Y-70205835D01*
X57631356Y-70188685D01*
X57631356Y-70188680D01*
X57631700Y-70185410D01*
X57631700Y-70164875D01*
X57631873Y-70158281D01*
X57635452Y-70089991D01*
X57633250Y-70076093D01*
X57631700Y-70056384D01*
X57631700Y-66705303D01*
X57641291Y-66657085D01*
X57668605Y-66616208D01*
X58405405Y-65879408D01*
X59160915Y-65123896D01*
X59209508Y-65093679D01*
X59266456Y-65088070D01*
X59320011Y-65108226D01*
X59359129Y-65149991D01*
X59360151Y-65151761D01*
X59362477Y-65156749D01*
X59365630Y-65161252D01*
X59365633Y-65161257D01*
X59442123Y-65270496D01*
X59493802Y-65344300D01*
X59655700Y-65506198D01*
X59843251Y-65637523D01*
X60050757Y-65734284D01*
X60271913Y-65793543D01*
X60500000Y-65813498D01*
X60728087Y-65793543D01*
X60949243Y-65734284D01*
X61156749Y-65637523D01*
X61344300Y-65506198D01*
X61506198Y-65344300D01*
X61637523Y-65156749D01*
X61734284Y-64949243D01*
X61793543Y-64728087D01*
X61813498Y-64500000D01*
X61793543Y-64271913D01*
X61734284Y-64050757D01*
X61637523Y-63843251D01*
X61633699Y-63837790D01*
X61633490Y-63837226D01*
X61631617Y-63833981D01*
X61632171Y-63833660D01*
X61611513Y-63777813D01*
X61621629Y-63714667D01*
X61651614Y-63676975D01*
X61649674Y-63675035D01*
X61656048Y-63668660D01*
X61663261Y-63663261D01*
X61750889Y-63546204D01*
X61801989Y-63409201D01*
X61808500Y-63348638D01*
X61808500Y-61651362D01*
X61801989Y-61590799D01*
X61750889Y-61453796D01*
X61741473Y-61441218D01*
X61668659Y-61343950D01*
X61663261Y-61336739D01*
X61648113Y-61325399D01*
X61553417Y-61254510D01*
X61553414Y-61254508D01*
X61546204Y-61249111D01*
X61537766Y-61245964D01*
X61537763Y-61245962D01*
X61490467Y-61228322D01*
X61447550Y-61201456D01*
X61418673Y-61159866D01*
X61408500Y-61110266D01*
X61408500Y-59081417D01*
X61410051Y-59061705D01*
X61412252Y-59047810D01*
X61408672Y-58979519D01*
X61408500Y-58972926D01*
X61408500Y-58955680D01*
X61408500Y-58952390D01*
X61406353Y-58931962D01*
X61405836Y-58925403D01*
X61402257Y-58857097D01*
X61398615Y-58843509D01*
X61395013Y-58824073D01*
X61393542Y-58810072D01*
X61372402Y-58745011D01*
X61370531Y-58738694D01*
X61367497Y-58727370D01*
X61352830Y-58672630D01*
X61346440Y-58660089D01*
X61338873Y-58641822D01*
X61334527Y-58628444D01*
X61300326Y-58569207D01*
X61297195Y-58563441D01*
X61266129Y-58502470D01*
X61257272Y-58491532D01*
X61246074Y-58475239D01*
X61239040Y-58463056D01*
X61193264Y-58412216D01*
X61188999Y-58407222D01*
X61176072Y-58391259D01*
X61161555Y-58376742D01*
X61157015Y-58371958D01*
X61115672Y-58326042D01*
X61111253Y-58321134D01*
X61099865Y-58312860D01*
X61084832Y-58300019D01*
X56848677Y-54063864D01*
X56823577Y-54028019D01*
X56812251Y-53985750D01*
X56803678Y-53887760D01*
X56793543Y-53771913D01*
X56734284Y-53550757D01*
X56637523Y-53343251D01*
X56634294Y-53338640D01*
X56597838Y-53286575D01*
X56506198Y-53155700D01*
X56344300Y-52993802D01*
X56237631Y-52919111D01*
X56161257Y-52865633D01*
X56161252Y-52865630D01*
X56156749Y-52862477D01*
X56134118Y-52851924D01*
X55954225Y-52768039D01*
X55954223Y-52768038D01*
X55949243Y-52765716D01*
X55728087Y-52706457D01*
X55722611Y-52705977D01*
X55722606Y-52705977D01*
X55505475Y-52686981D01*
X55500000Y-52686502D01*
X55494525Y-52686981D01*
X55277393Y-52705977D01*
X55277386Y-52705978D01*
X55271913Y-52706457D01*
X55266599Y-52707880D01*
X55266598Y-52707881D01*
X55056067Y-52764293D01*
X55056065Y-52764293D01*
X55050757Y-52765716D01*
X55045779Y-52768036D01*
X55045774Y-52768039D01*
X54848238Y-52860151D01*
X54848233Y-52860153D01*
X54843251Y-52862477D01*
X54838752Y-52865627D01*
X54838742Y-52865633D01*
X54660211Y-52990643D01*
X54660208Y-52990645D01*
X54655700Y-52993802D01*
X54651808Y-52997693D01*
X54651802Y-52997699D01*
X54497699Y-53151802D01*
X54497693Y-53151808D01*
X54493802Y-53155700D01*
X54490645Y-53160208D01*
X54490643Y-53160211D01*
X54365633Y-53338742D01*
X54365627Y-53338752D01*
X54362477Y-53343251D01*
X54360153Y-53348233D01*
X54360151Y-53348238D01*
X54268039Y-53545774D01*
X54268036Y-53545779D01*
X54265716Y-53550757D01*
X54264294Y-53556060D01*
X54264290Y-53556074D01*
X54231298Y-53679201D01*
X54198687Y-53735685D01*
X54142203Y-53768296D01*
X54076981Y-53768296D01*
X54020497Y-53735684D01*
X52524605Y-52239792D01*
X52497291Y-52198915D01*
X52487700Y-52150697D01*
X52487700Y-51001595D01*
X52500694Y-50945867D01*
X52536996Y-50901632D01*
X52589119Y-50878016D01*
X52646311Y-50879888D01*
X52655899Y-50882457D01*
X52771913Y-50913543D01*
X53000000Y-50933498D01*
X53228087Y-50913543D01*
X53449243Y-50854284D01*
X53656749Y-50757523D01*
X53844300Y-50626198D01*
X53905093Y-50565405D01*
X53945970Y-50538091D01*
X53994188Y-50528500D01*
X54457097Y-50528500D01*
X54505315Y-50538091D01*
X54546192Y-50565405D01*
X57165219Y-53184432D01*
X57178060Y-53199465D01*
X57181929Y-53204791D01*
X57186334Y-53210853D01*
X57221929Y-53242903D01*
X57237158Y-53256615D01*
X57241942Y-53261155D01*
X57256459Y-53275672D01*
X57272422Y-53288599D01*
X57277416Y-53292864D01*
X57328256Y-53338640D01*
X57339973Y-53345405D01*
X57340439Y-53345674D01*
X57356732Y-53356872D01*
X57367670Y-53365729D01*
X57428641Y-53396795D01*
X57434407Y-53399926D01*
X57493644Y-53434127D01*
X57507022Y-53438473D01*
X57525289Y-53446040D01*
X57537830Y-53452430D01*
X57593828Y-53467434D01*
X57603894Y-53470131D01*
X57610221Y-53472005D01*
X57675272Y-53493142D01*
X57689273Y-53494613D01*
X57708709Y-53498215D01*
X57722297Y-53501857D01*
X57790603Y-53505436D01*
X57797162Y-53505953D01*
X57803834Y-53506654D01*
X57817590Y-53508100D01*
X57838126Y-53508100D01*
X57844719Y-53508272D01*
X57913010Y-53511852D01*
X57926907Y-53509650D01*
X57946617Y-53508100D01*
X64131097Y-53508100D01*
X64179315Y-53517691D01*
X64220192Y-53545005D01*
X68307231Y-57632044D01*
X68339843Y-57688528D01*
X68339843Y-57753750D01*
X68307232Y-57810234D01*
X68250748Y-57842846D01*
X68164479Y-57865962D01*
X68090757Y-57885716D01*
X68085779Y-57888036D01*
X68085774Y-57888039D01*
X67888238Y-57980151D01*
X67888233Y-57980153D01*
X67883251Y-57982477D01*
X67878752Y-57985627D01*
X67878742Y-57985633D01*
X67700211Y-58110643D01*
X67700208Y-58110645D01*
X67695700Y-58113802D01*
X67691808Y-58117693D01*
X67691802Y-58117699D01*
X67537699Y-58271802D01*
X67537693Y-58271808D01*
X67533802Y-58275700D01*
X67530644Y-58280209D01*
X67527108Y-58284424D01*
X67526176Y-58283642D01*
X67485912Y-58318775D01*
X67427065Y-58332724D01*
X67368498Y-58317646D01*
X67323702Y-58277015D01*
X67305179Y-58226178D01*
X67304644Y-58226305D01*
X67303571Y-58221766D01*
X67302999Y-58220195D01*
X67301989Y-58210799D01*
X67250889Y-58073796D01*
X67210404Y-58019715D01*
X67168659Y-57963950D01*
X67163261Y-57956739D01*
X67068386Y-57885716D01*
X67053417Y-57874510D01*
X67053414Y-57874508D01*
X67046204Y-57869111D01*
X67037766Y-57865964D01*
X67037763Y-57865962D01*
X66916580Y-57820763D01*
X66916578Y-57820762D01*
X66909201Y-57818011D01*
X66901373Y-57817169D01*
X66901367Y-57817168D01*
X66851988Y-57811860D01*
X66851985Y-57811859D01*
X66848638Y-57811500D01*
X65151362Y-57811500D01*
X65148015Y-57811859D01*
X65148011Y-57811860D01*
X65098632Y-57817168D01*
X65098625Y-57817169D01*
X65090799Y-57818011D01*
X65083423Y-57820761D01*
X65083419Y-57820763D01*
X64962236Y-57865962D01*
X64962230Y-57865965D01*
X64953796Y-57869111D01*
X64946588Y-57874506D01*
X64946582Y-57874510D01*
X64843950Y-57951340D01*
X64843946Y-57951343D01*
X64836739Y-57956739D01*
X64831343Y-57963946D01*
X64831340Y-57963950D01*
X64754510Y-58066582D01*
X64754506Y-58066588D01*
X64749111Y-58073796D01*
X64745965Y-58082230D01*
X64745962Y-58082236D01*
X64700763Y-58203419D01*
X64700761Y-58203423D01*
X64698011Y-58210799D01*
X64697169Y-58218625D01*
X64697168Y-58218632D01*
X64691860Y-58268011D01*
X64691500Y-58271362D01*
X64691500Y-59968638D01*
X64691859Y-59971985D01*
X64691860Y-59971988D01*
X64697168Y-60021367D01*
X64697169Y-60021373D01*
X64698011Y-60029201D01*
X64700762Y-60036578D01*
X64700763Y-60036580D01*
X64745962Y-60157763D01*
X64745964Y-60157766D01*
X64749111Y-60166204D01*
X64754508Y-60173414D01*
X64754510Y-60173417D01*
X64819212Y-60259848D01*
X64836739Y-60283261D01*
X64843950Y-60288659D01*
X64914666Y-60341597D01*
X64953796Y-60370889D01*
X64962235Y-60374036D01*
X64962236Y-60374037D01*
X64965556Y-60375275D01*
X65090799Y-60421989D01*
X65151362Y-60428500D01*
X65971497Y-60428500D01*
X66019715Y-60438091D01*
X66060592Y-60465405D01*
X68344228Y-62749041D01*
X68374445Y-62797632D01*
X68380056Y-62854577D01*
X68359903Y-62908131D01*
X68318207Y-62947188D01*
X68313442Y-62949411D01*
X68308941Y-62952562D01*
X68308935Y-62952566D01*
X68144735Y-63067539D01*
X68144725Y-63067547D01*
X68140224Y-63070699D01*
X68136334Y-63074588D01*
X68136328Y-63074594D01*
X67994594Y-63216328D01*
X67994588Y-63216334D01*
X67990699Y-63220224D01*
X67987547Y-63224725D01*
X67987539Y-63224735D01*
X67872565Y-63388936D01*
X67872559Y-63388945D01*
X67869411Y-63393442D01*
X67867092Y-63398414D01*
X67867088Y-63398422D01*
X67782367Y-63580107D01*
X67782364Y-63580112D01*
X67780044Y-63585090D01*
X67778622Y-63590394D01*
X67778621Y-63590399D01*
X67760843Y-63656749D01*
X67725314Y-63789345D01*
X67724835Y-63794818D01*
X67724834Y-63794825D01*
X67714828Y-63909201D01*
X67706884Y-64000000D01*
X67707363Y-64005475D01*
X67721639Y-64168659D01*
X67725314Y-64210655D01*
X67726738Y-64215969D01*
X67778519Y-64409221D01*
X67780044Y-64414910D01*
X67782366Y-64419890D01*
X67782367Y-64419892D01*
X67866275Y-64599834D01*
X67869411Y-64606558D01*
X67872563Y-64611059D01*
X67872565Y-64611063D01*
X67987539Y-64775264D01*
X67987543Y-64775268D01*
X67990699Y-64779776D01*
X68140224Y-64929301D01*
X68144732Y-64932457D01*
X68144735Y-64932460D01*
X68275220Y-65023826D01*
X68313442Y-65050589D01*
X68505090Y-65139956D01*
X68709345Y-65194686D01*
X68920000Y-65213116D01*
X69130655Y-65194686D01*
X69334910Y-65139956D01*
X69526558Y-65050589D01*
X69699776Y-64929301D01*
X69849301Y-64779776D01*
X69970589Y-64606558D01*
X69972809Y-64601796D01*
X70011861Y-64560101D01*
X70065417Y-64539944D01*
X70122364Y-64545553D01*
X70170958Y-64575771D01*
X71510019Y-65914832D01*
X71522860Y-65929865D01*
X71526514Y-65934895D01*
X71531134Y-65941253D01*
X71536040Y-65945670D01*
X71536042Y-65945672D01*
X71581958Y-65987015D01*
X71586740Y-65991553D01*
X71601259Y-66006072D01*
X71617222Y-66018999D01*
X71622216Y-66023264D01*
X71673056Y-66069040D01*
X71685232Y-66076070D01*
X71685239Y-66076074D01*
X71701532Y-66087272D01*
X71712470Y-66096129D01*
X71773409Y-66127178D01*
X71779210Y-66130327D01*
X71838444Y-66164527D01*
X71851827Y-66168875D01*
X71870089Y-66176439D01*
X71882630Y-66182829D01*
X71948688Y-66200529D01*
X71955005Y-66202400D01*
X72020072Y-66223542D01*
X72034061Y-66225012D01*
X72053508Y-66228615D01*
X72067096Y-66232257D01*
X72135404Y-66235836D01*
X72141963Y-66236352D01*
X72162390Y-66238500D01*
X72182925Y-66238500D01*
X72189518Y-66238672D01*
X72257809Y-66242252D01*
X72271706Y-66240050D01*
X72291416Y-66238500D01*
X78339583Y-66238500D01*
X78359292Y-66240050D01*
X78373190Y-66242252D01*
X78441480Y-66238672D01*
X78448074Y-66238500D01*
X78465320Y-66238500D01*
X78468610Y-66238500D01*
X78471880Y-66238156D01*
X78471885Y-66238156D01*
X78480459Y-66237254D01*
X78489042Y-66236352D01*
X78495592Y-66235836D01*
X78563903Y-66232257D01*
X78571038Y-66230344D01*
X78577487Y-66228617D01*
X78596938Y-66225012D01*
X78610928Y-66223542D01*
X78676014Y-66202393D01*
X78682299Y-66200532D01*
X78748370Y-66182829D01*
X78760903Y-66176442D01*
X78779167Y-66168876D01*
X78792556Y-66164527D01*
X78851801Y-66130320D01*
X78857551Y-66127197D01*
X78918530Y-66096129D01*
X78929467Y-66087271D01*
X78945757Y-66076075D01*
X78957944Y-66069040D01*
X79008779Y-66023266D01*
X79013765Y-66019008D01*
X79029741Y-66006072D01*
X79044280Y-65991531D01*
X79049028Y-65987026D01*
X79099866Y-65941253D01*
X79108137Y-65929867D01*
X79120972Y-65914839D01*
X86910908Y-58124904D01*
X86967388Y-58092295D01*
X87032610Y-58092295D01*
X87089094Y-58124907D01*
X87399019Y-58434832D01*
X87411860Y-58449865D01*
X87420134Y-58461253D01*
X87431511Y-58471497D01*
X87470958Y-58507015D01*
X87475742Y-58511555D01*
X87490259Y-58526072D01*
X87506222Y-58538999D01*
X87511216Y-58543264D01*
X87519351Y-58550589D01*
X87555737Y-58583351D01*
X87562056Y-58589040D01*
X87574239Y-58596074D01*
X87590532Y-58607272D01*
X87601470Y-58616129D01*
X87662441Y-58647195D01*
X87668207Y-58650326D01*
X87727444Y-58684527D01*
X87740822Y-58688873D01*
X87759089Y-58696440D01*
X87771630Y-58702830D01*
X87810020Y-58713116D01*
X87837694Y-58720531D01*
X87844021Y-58722405D01*
X87909072Y-58743542D01*
X87923073Y-58745013D01*
X87942509Y-58748615D01*
X87956097Y-58752257D01*
X88024403Y-58755836D01*
X88030962Y-58756353D01*
X88037634Y-58757054D01*
X88051390Y-58758500D01*
X88071926Y-58758500D01*
X88078519Y-58758672D01*
X88146810Y-58762252D01*
X88160707Y-58760050D01*
X88180417Y-58758500D01*
X89921497Y-58758500D01*
X89969715Y-58768091D01*
X90010592Y-58795405D01*
X98600719Y-67385532D01*
X98613560Y-67400565D01*
X98621834Y-67411953D01*
X98626742Y-67416372D01*
X98672658Y-67457715D01*
X98677442Y-67462255D01*
X98691959Y-67476772D01*
X98707922Y-67489699D01*
X98712916Y-67493964D01*
X98763756Y-67539740D01*
X98775939Y-67546774D01*
X98792232Y-67557972D01*
X98803170Y-67566829D01*
X98858278Y-67594907D01*
X98864109Y-67597878D01*
X98869909Y-67601027D01*
X98898785Y-67617699D01*
X98929144Y-67635227D01*
X98942527Y-67639575D01*
X98960789Y-67647139D01*
X98973330Y-67653529D01*
X98998268Y-67660211D01*
X99039388Y-67671229D01*
X99045705Y-67673100D01*
X99110772Y-67694242D01*
X99124761Y-67695712D01*
X99144208Y-67699315D01*
X99157796Y-67702957D01*
X99226104Y-67706536D01*
X99232663Y-67707052D01*
X99253090Y-67709200D01*
X99273625Y-67709200D01*
X99280218Y-67709372D01*
X99348509Y-67712952D01*
X99362406Y-67710750D01*
X99382116Y-67709200D01*
X105038597Y-67709200D01*
X105086815Y-67718791D01*
X105127692Y-67746105D01*
X106963804Y-69582217D01*
X106995203Y-69634473D01*
X106998394Y-69695354D01*
X106972630Y-69750606D01*
X106923942Y-69787295D01*
X106863728Y-69796833D01*
X106755476Y-69787363D01*
X106755475Y-69787363D01*
X106750000Y-69786884D01*
X106744525Y-69787363D01*
X106544825Y-69804834D01*
X106544818Y-69804835D01*
X106539345Y-69805314D01*
X106534031Y-69806737D01*
X106534030Y-69806738D01*
X106340399Y-69858621D01*
X106340394Y-69858622D01*
X106335090Y-69860044D01*
X106330112Y-69862364D01*
X106330107Y-69862367D01*
X106148422Y-69947088D01*
X106148414Y-69947092D01*
X106143442Y-69949411D01*
X106138945Y-69952559D01*
X106138936Y-69952565D01*
X105974735Y-70067539D01*
X105974725Y-70067547D01*
X105970224Y-70070699D01*
X105966334Y-70074588D01*
X105966328Y-70074594D01*
X105824594Y-70216328D01*
X105824588Y-70216334D01*
X105820699Y-70220224D01*
X105817547Y-70224725D01*
X105817539Y-70224735D01*
X105702565Y-70388936D01*
X105702559Y-70388945D01*
X105699411Y-70393442D01*
X105697092Y-70398414D01*
X105697088Y-70398422D01*
X105612367Y-70580107D01*
X105612364Y-70580112D01*
X105610044Y-70585090D01*
X105608622Y-70590394D01*
X105608621Y-70590399D01*
X105561606Y-70765862D01*
X105555314Y-70789345D01*
X105554835Y-70794818D01*
X105554834Y-70794825D01*
X105548925Y-70862367D01*
X105536884Y-71000000D01*
X105537363Y-71005475D01*
X105553176Y-71186224D01*
X105555314Y-71210655D01*
X105556738Y-71215969D01*
X105604291Y-71393442D01*
X105610044Y-71414910D01*
X105612366Y-71419890D01*
X105612367Y-71419892D01*
X105687076Y-71580107D01*
X105699411Y-71606558D01*
X105702563Y-71611059D01*
X105702565Y-71611063D01*
X105817539Y-71775264D01*
X105817543Y-71775268D01*
X105820699Y-71779776D01*
X105970224Y-71929301D01*
X105974732Y-71932457D01*
X105974735Y-71932460D01*
X106076177Y-72003490D01*
X106143442Y-72050589D01*
X106335090Y-72139956D01*
X106539345Y-72194686D01*
X106750000Y-72213116D01*
X106960655Y-72194686D01*
X107164910Y-72139956D01*
X107356558Y-72050589D01*
X107397124Y-72022184D01*
X107431503Y-72005232D01*
X107469391Y-71999400D01*
X110578583Y-71999400D01*
X110598292Y-72000950D01*
X110612190Y-72003152D01*
X110680480Y-71999572D01*
X110687074Y-71999400D01*
X110704320Y-71999400D01*
X110707610Y-71999400D01*
X110710880Y-71999056D01*
X110710885Y-71999056D01*
X110719459Y-71998154D01*
X110728042Y-71997252D01*
X110734592Y-71996736D01*
X110802903Y-71993157D01*
X110816203Y-71989593D01*
X110816487Y-71989517D01*
X110835938Y-71985912D01*
X110849928Y-71984442D01*
X110915014Y-71963293D01*
X110921299Y-71961432D01*
X110987370Y-71943729D01*
X110999903Y-71937342D01*
X111018167Y-71929776D01*
X111031556Y-71925427D01*
X111090801Y-71891220D01*
X111096551Y-71888097D01*
X111157530Y-71857029D01*
X111168467Y-71848171D01*
X111184757Y-71836975D01*
X111196944Y-71829940D01*
X111247779Y-71784166D01*
X111252765Y-71779908D01*
X111268741Y-71766972D01*
X111283280Y-71752431D01*
X111288028Y-71747926D01*
X111338866Y-71702153D01*
X111347137Y-71690767D01*
X111359972Y-71675739D01*
X112961539Y-70074172D01*
X112976567Y-70061337D01*
X112987953Y-70053066D01*
X113033726Y-70002228D01*
X113038231Y-69997480D01*
X113052772Y-69982941D01*
X113065703Y-69966972D01*
X113069976Y-69961968D01*
X113115740Y-69911144D01*
X113122769Y-69898966D01*
X113133974Y-69882665D01*
X113142829Y-69871731D01*
X113173900Y-69810746D01*
X113177023Y-69804996D01*
X113211227Y-69745756D01*
X113215576Y-69732367D01*
X113223142Y-69714103D01*
X113229529Y-69701570D01*
X113247229Y-69635508D01*
X113249104Y-69629182D01*
X113268200Y-69570413D01*
X113268200Y-69570411D01*
X113270242Y-69564128D01*
X113271711Y-69550139D01*
X113275317Y-69530688D01*
X113277247Y-69523485D01*
X113277246Y-69523485D01*
X113278957Y-69517104D01*
X113282536Y-69448797D01*
X113283053Y-69442235D01*
X113284856Y-69425085D01*
X113284856Y-69425080D01*
X113285200Y-69421810D01*
X113285200Y-69401275D01*
X113285373Y-69394681D01*
X113286720Y-69368976D01*
X113288952Y-69326391D01*
X113286750Y-69312493D01*
X113285200Y-69292784D01*
X113285200Y-61901803D01*
X113294791Y-61853585D01*
X113322105Y-61812708D01*
X115385760Y-59749053D01*
X121584839Y-53549972D01*
X121599867Y-53537137D01*
X121611253Y-53528866D01*
X121657026Y-53478028D01*
X121661531Y-53473280D01*
X121676072Y-53458741D01*
X121689008Y-53442765D01*
X121693266Y-53437779D01*
X121739040Y-53386944D01*
X121746075Y-53374757D01*
X121757271Y-53358467D01*
X121766129Y-53347530D01*
X121797203Y-53286543D01*
X121800315Y-53280811D01*
X121834527Y-53221556D01*
X121838872Y-53208183D01*
X121846441Y-53189908D01*
X121852830Y-53177370D01*
X121870531Y-53111302D01*
X121872403Y-53104986D01*
X121891501Y-53046211D01*
X121891502Y-53046205D01*
X121893542Y-53039928D01*
X121895012Y-53025937D01*
X121898617Y-53006487D01*
X121900547Y-52999284D01*
X121900546Y-52999284D01*
X121902257Y-52992903D01*
X121905836Y-52924592D01*
X121906353Y-52918034D01*
X121906679Y-52914939D01*
X121907624Y-52905944D01*
X121908156Y-52900885D01*
X121908156Y-52900880D01*
X121908500Y-52897610D01*
X121908500Y-52877074D01*
X121908673Y-52870480D01*
X121909645Y-52851924D01*
X121912252Y-52802190D01*
X121910050Y-52788292D01*
X121908500Y-52768583D01*
X121908500Y-52639734D01*
X121918673Y-52590134D01*
X121947550Y-52548544D01*
X121990467Y-52521678D01*
X122023503Y-52509356D01*
X122046204Y-52500889D01*
X122154259Y-52420000D01*
X123786884Y-52420000D01*
X123787363Y-52425475D01*
X123804689Y-52623517D01*
X123805314Y-52630655D01*
X123812538Y-52657615D01*
X123853813Y-52811658D01*
X123860044Y-52834910D01*
X123862366Y-52839890D01*
X123862367Y-52839892D01*
X123940051Y-53006487D01*
X123949411Y-53026558D01*
X123952563Y-53031059D01*
X123952565Y-53031063D01*
X124067539Y-53195264D01*
X124067543Y-53195268D01*
X124070699Y-53199776D01*
X124220224Y-53349301D01*
X124224732Y-53352457D01*
X124224735Y-53352460D01*
X124367508Y-53452430D01*
X124393442Y-53470589D01*
X124585090Y-53559956D01*
X124789345Y-53614686D01*
X125000000Y-53633116D01*
X125210655Y-53614686D01*
X125414910Y-53559956D01*
X125606558Y-53470589D01*
X125779776Y-53349301D01*
X125929301Y-53199776D01*
X126050589Y-53026558D01*
X126139956Y-52834910D01*
X126194686Y-52630655D01*
X126213116Y-52420000D01*
X126194686Y-52209345D01*
X126139956Y-52005090D01*
X126050589Y-51813442D01*
X126044561Y-51804833D01*
X125932460Y-51644735D01*
X125932457Y-51644732D01*
X125929301Y-51640224D01*
X125779776Y-51490699D01*
X125775268Y-51487543D01*
X125775264Y-51487539D01*
X125611063Y-51372565D01*
X125611059Y-51372563D01*
X125606558Y-51369411D01*
X125601579Y-51367089D01*
X125601577Y-51367088D01*
X125419892Y-51282367D01*
X125419890Y-51282366D01*
X125414910Y-51280044D01*
X125409601Y-51278621D01*
X125409600Y-51278621D01*
X125215969Y-51226738D01*
X125215970Y-51226738D01*
X125210655Y-51225314D01*
X125205179Y-51224834D01*
X125205174Y-51224834D01*
X125005475Y-51207363D01*
X125000000Y-51206884D01*
X124994525Y-51207363D01*
X124794825Y-51224834D01*
X124794818Y-51224835D01*
X124789345Y-51225314D01*
X124784031Y-51226737D01*
X124784030Y-51226738D01*
X124590399Y-51278621D01*
X124590394Y-51278622D01*
X124585090Y-51280044D01*
X124580112Y-51282364D01*
X124580107Y-51282367D01*
X124398422Y-51367088D01*
X124398414Y-51367092D01*
X124393442Y-51369411D01*
X124388945Y-51372559D01*
X124388936Y-51372565D01*
X124224735Y-51487539D01*
X124224725Y-51487547D01*
X124220224Y-51490699D01*
X124216334Y-51494588D01*
X124216328Y-51494594D01*
X124074594Y-51636328D01*
X124074588Y-51636334D01*
X124070699Y-51640224D01*
X124067547Y-51644725D01*
X124067539Y-51644735D01*
X123952565Y-51808936D01*
X123952559Y-51808945D01*
X123949411Y-51813442D01*
X123947092Y-51818414D01*
X123947088Y-51818422D01*
X123862367Y-52000107D01*
X123862364Y-52000112D01*
X123860044Y-52005090D01*
X123858622Y-52010394D01*
X123858621Y-52010399D01*
X123819407Y-52156749D01*
X123805314Y-52209345D01*
X123804835Y-52214818D01*
X123804834Y-52214825D01*
X123793769Y-52341303D01*
X123786884Y-52420000D01*
X122154259Y-52420000D01*
X122163261Y-52413261D01*
X122250889Y-52296204D01*
X122301989Y-52159201D01*
X122308500Y-52098638D01*
X122308500Y-50401362D01*
X122301989Y-50340799D01*
X122250889Y-50203796D01*
X122211607Y-50151322D01*
X122168659Y-50093950D01*
X122163261Y-50086739D01*
X122156049Y-50081340D01*
X122053417Y-50004510D01*
X122053414Y-50004508D01*
X122046204Y-49999111D01*
X122037766Y-49995964D01*
X122037763Y-49995962D01*
X121990467Y-49978322D01*
X121947550Y-49951456D01*
X121918673Y-49909866D01*
X121908500Y-49860266D01*
X121908500Y-48081417D01*
X121910051Y-48061705D01*
X121910128Y-48061218D01*
X121912252Y-48047810D01*
X121908673Y-47979519D01*
X121908500Y-47972925D01*
X121908500Y-47955680D01*
X121908500Y-47952390D01*
X121906352Y-47931963D01*
X121905836Y-47925404D01*
X121902257Y-47857096D01*
X121898615Y-47843508D01*
X121895012Y-47824061D01*
X121894232Y-47816642D01*
X121893542Y-47810072D01*
X121872400Y-47745005D01*
X121870529Y-47738688D01*
X121858188Y-47692630D01*
X121852829Y-47672630D01*
X121846439Y-47660089D01*
X121838875Y-47641827D01*
X121834527Y-47628444D01*
X121800327Y-47569209D01*
X121797178Y-47563409D01*
X121766129Y-47502470D01*
X121757272Y-47491532D01*
X121746074Y-47475239D01*
X121742341Y-47468774D01*
X121739040Y-47463056D01*
X121693264Y-47412216D01*
X121688999Y-47407222D01*
X121676072Y-47391259D01*
X121661555Y-47376742D01*
X121657015Y-47371958D01*
X121615672Y-47326042D01*
X121611253Y-47321134D01*
X121599865Y-47312860D01*
X121584832Y-47300019D01*
X115738670Y-41453857D01*
X115713570Y-41418011D01*
X115702244Y-41375742D01*
X115699378Y-41342983D01*
X115694686Y-41289345D01*
X115639956Y-41085090D01*
X115550589Y-40893442D01*
X115547434Y-40888936D01*
X115432460Y-40724735D01*
X115432457Y-40724732D01*
X115429301Y-40720224D01*
X115279776Y-40570699D01*
X115275268Y-40567543D01*
X115275264Y-40567539D01*
X115111063Y-40452565D01*
X115111059Y-40452563D01*
X115106558Y-40449411D01*
X115101579Y-40447089D01*
X115101577Y-40447088D01*
X114919892Y-40362367D01*
X114919890Y-40362366D01*
X114914910Y-40360044D01*
X114909601Y-40358621D01*
X114909600Y-40358621D01*
X114763889Y-40319578D01*
X114710655Y-40305314D01*
X114705179Y-40304834D01*
X114705174Y-40304834D01*
X114505475Y-40287363D01*
X114500000Y-40286884D01*
X114494525Y-40287363D01*
X114294825Y-40304834D01*
X114294818Y-40304835D01*
X114289345Y-40305314D01*
X114284031Y-40306737D01*
X114284030Y-40306738D01*
X114090399Y-40358621D01*
X114090394Y-40358622D01*
X114085090Y-40360044D01*
X114080112Y-40362364D01*
X114080107Y-40362367D01*
X113898422Y-40447088D01*
X113898414Y-40447092D01*
X113893442Y-40449411D01*
X113888945Y-40452559D01*
X113888936Y-40452565D01*
X113724735Y-40567539D01*
X113724725Y-40567547D01*
X113720224Y-40570699D01*
X113716334Y-40574588D01*
X113716328Y-40574594D01*
X113574594Y-40716328D01*
X113574588Y-40716334D01*
X113570699Y-40720224D01*
X113567547Y-40724725D01*
X113567539Y-40724735D01*
X113452565Y-40888936D01*
X113452559Y-40888945D01*
X113449411Y-40893442D01*
X113447092Y-40898414D01*
X113447088Y-40898422D01*
X113362367Y-41080107D01*
X113362364Y-41080112D01*
X113360044Y-41085090D01*
X113358622Y-41090394D01*
X113358621Y-41090399D01*
X113320981Y-41230874D01*
X113305314Y-41289345D01*
X113304835Y-41294818D01*
X113304834Y-41294825D01*
X113287363Y-41494525D01*
X113286884Y-41500000D01*
X113305314Y-41710655D01*
X113360044Y-41914910D01*
X113362366Y-41919890D01*
X113362367Y-41919892D01*
X113420904Y-42045426D01*
X113449411Y-42106558D01*
X113452563Y-42111059D01*
X113452565Y-42111063D01*
X113567539Y-42275264D01*
X113567543Y-42275268D01*
X113570699Y-42279776D01*
X113720224Y-42429301D01*
X113724732Y-42432457D01*
X113724735Y-42432460D01*
X113817600Y-42497484D01*
X113893442Y-42550589D01*
X114085090Y-42639956D01*
X114289345Y-42694686D01*
X114375743Y-42702244D01*
X114418011Y-42713570D01*
X114453857Y-42738670D01*
X120054595Y-48339408D01*
X120081909Y-48380285D01*
X120091500Y-48428503D01*
X120091500Y-49860266D01*
X120081327Y-49909866D01*
X120052450Y-49951456D01*
X120009533Y-49978322D01*
X119962236Y-49995962D01*
X119962230Y-49995965D01*
X119953796Y-49999111D01*
X119946588Y-50004506D01*
X119946582Y-50004510D01*
X119843950Y-50081340D01*
X119843946Y-50081343D01*
X119836739Y-50086739D01*
X119831343Y-50093946D01*
X119831340Y-50093950D01*
X119754510Y-50196582D01*
X119754506Y-50196588D01*
X119749111Y-50203796D01*
X119745965Y-50212230D01*
X119745962Y-50212236D01*
X119700763Y-50333419D01*
X119700761Y-50333423D01*
X119698011Y-50340799D01*
X119697169Y-50348625D01*
X119697168Y-50348632D01*
X119691860Y-50398011D01*
X119691500Y-50401362D01*
X119691500Y-52098638D01*
X119691859Y-52101985D01*
X119691860Y-52101988D01*
X119697168Y-52151367D01*
X119697169Y-52151373D01*
X119698011Y-52159201D01*
X119700762Y-52166578D01*
X119700763Y-52166580D01*
X119745962Y-52287763D01*
X119745964Y-52287766D01*
X119749111Y-52296204D01*
X119754508Y-52303414D01*
X119754510Y-52303417D01*
X119825155Y-52397787D01*
X119836739Y-52413261D01*
X119900583Y-52461054D01*
X119943129Y-52517890D01*
X119948193Y-52588706D01*
X119914168Y-52651017D01*
X112134495Y-60430692D01*
X112084336Y-60461430D01*
X112025689Y-60466046D01*
X111971339Y-60443533D01*
X111933133Y-60398800D01*
X111919400Y-60341597D01*
X111919400Y-38592317D01*
X111920951Y-38572607D01*
X111923152Y-38558710D01*
X111919572Y-38490419D01*
X111919400Y-38483826D01*
X111919400Y-38466580D01*
X111919400Y-38463290D01*
X111917253Y-38442862D01*
X111916736Y-38436303D01*
X111913157Y-38367997D01*
X111909515Y-38354409D01*
X111905913Y-38334973D01*
X111904442Y-38320972D01*
X111883305Y-38255921D01*
X111881431Y-38249594D01*
X111865439Y-38189910D01*
X111863730Y-38183530D01*
X111857340Y-38170989D01*
X111849773Y-38152722D01*
X111845427Y-38139344D01*
X111811226Y-38080107D01*
X111808095Y-38074341D01*
X111777029Y-38013370D01*
X111768172Y-38002432D01*
X111756974Y-37986139D01*
X111753241Y-37979674D01*
X111749940Y-37973956D01*
X111704164Y-37923116D01*
X111699899Y-37918122D01*
X111686972Y-37902159D01*
X111672456Y-37887643D01*
X111667915Y-37882858D01*
X111626572Y-37836942D01*
X111622153Y-37832034D01*
X111610765Y-37823760D01*
X111595732Y-37810919D01*
X110784813Y-37000000D01*
X113186502Y-37000000D01*
X113186981Y-37005475D01*
X113204564Y-37206457D01*
X113206457Y-37228087D01*
X113265716Y-37449243D01*
X113362477Y-37656749D01*
X113365630Y-37661252D01*
X113365633Y-37661257D01*
X113412045Y-37727539D01*
X113493802Y-37844300D01*
X113655700Y-38006198D01*
X113843251Y-38137523D01*
X114050757Y-38234284D01*
X114271913Y-38293543D01*
X114500000Y-38313498D01*
X114728087Y-38293543D01*
X114949243Y-38234284D01*
X115156749Y-38137523D01*
X115344300Y-38006198D01*
X115405093Y-37945404D01*
X115445970Y-37918091D01*
X115494188Y-37908500D01*
X121071497Y-37908500D01*
X121119715Y-37918091D01*
X121160592Y-37945405D01*
X128088357Y-44873170D01*
X128121970Y-44933653D01*
X128118576Y-45002764D01*
X128063776Y-45164203D01*
X128062972Y-45168243D01*
X128062970Y-45168252D01*
X128006820Y-45450534D01*
X128006818Y-45450543D01*
X128006017Y-45454574D01*
X128005747Y-45458678D01*
X128005747Y-45458686D01*
X127996494Y-45599865D01*
X127986654Y-45750000D01*
X127986924Y-45754119D01*
X128005514Y-46037763D01*
X128006017Y-46045426D01*
X128006819Y-46049458D01*
X128006820Y-46049465D01*
X128059964Y-46316633D01*
X128063776Y-46335797D01*
X128065102Y-46339706D01*
X128065104Y-46339710D01*
X128112563Y-46479520D01*
X128158941Y-46616145D01*
X128160760Y-46619834D01*
X128160764Y-46619843D01*
X128288058Y-46877969D01*
X128289885Y-46881673D01*
X128454367Y-47127838D01*
X128649573Y-47350427D01*
X128872162Y-47545633D01*
X129118327Y-47710115D01*
X129122031Y-47711941D01*
X129122030Y-47711941D01*
X129361575Y-47830072D01*
X129383855Y-47841059D01*
X129664203Y-47936224D01*
X129954574Y-47993983D01*
X130250000Y-48013346D01*
X130545426Y-47993983D01*
X130835797Y-47936224D01*
X131116145Y-47841059D01*
X131381673Y-47710115D01*
X131627838Y-47545633D01*
X131850427Y-47350427D01*
X132045633Y-47127838D01*
X132210115Y-46881673D01*
X132341059Y-46616145D01*
X132436224Y-46335797D01*
X132493983Y-46045426D01*
X132513346Y-45750000D01*
X132493983Y-45454574D01*
X132436224Y-45164203D01*
X132341059Y-44883855D01*
X132329369Y-44860151D01*
X132211941Y-44622030D01*
X132210115Y-44618327D01*
X132045633Y-44372162D01*
X131850427Y-44149573D01*
X131627838Y-43954367D01*
X131381673Y-43789885D01*
X131377973Y-43788060D01*
X131377969Y-43788058D01*
X131119843Y-43660764D01*
X131119834Y-43660760D01*
X131116145Y-43658941D01*
X131007232Y-43621970D01*
X130839710Y-43565104D01*
X130839706Y-43565102D01*
X130835797Y-43563776D01*
X130831752Y-43562971D01*
X130831747Y-43562970D01*
X130549465Y-43506820D01*
X130549458Y-43506819D01*
X130545426Y-43506017D01*
X130541319Y-43505747D01*
X130541313Y-43505747D01*
X130254119Y-43486924D01*
X130250000Y-43486654D01*
X130245881Y-43486924D01*
X129958686Y-43505747D01*
X129958678Y-43505747D01*
X129954574Y-43506017D01*
X129950543Y-43506818D01*
X129950534Y-43506820D01*
X129668252Y-43562970D01*
X129668243Y-43562972D01*
X129664203Y-43563776D01*
X129502764Y-43618576D01*
X129433653Y-43621970D01*
X129373170Y-43588357D01*
X122199977Y-36415164D01*
X122187135Y-36400129D01*
X122178866Y-36388747D01*
X122128022Y-36342967D01*
X122123255Y-36338442D01*
X122111079Y-36326266D01*
X122111078Y-36326265D01*
X122108741Y-36323928D01*
X122092777Y-36311000D01*
X122087776Y-36306729D01*
X122041850Y-36265377D01*
X122041848Y-36265375D01*
X122036944Y-36260960D01*
X122024748Y-36253918D01*
X122008468Y-36242728D01*
X122002660Y-36238025D01*
X121997530Y-36233871D01*
X121936585Y-36202818D01*
X121930806Y-36199681D01*
X121871556Y-36165473D01*
X121865281Y-36163434D01*
X121865279Y-36163433D01*
X121858163Y-36161121D01*
X121839911Y-36153560D01*
X121833254Y-36150168D01*
X121833246Y-36150165D01*
X121827370Y-36147171D01*
X121820996Y-36145463D01*
X121820991Y-36145461D01*
X121761305Y-36129468D01*
X121754999Y-36127600D01*
X121689928Y-36106458D01*
X121683366Y-36105768D01*
X121683351Y-36105765D01*
X121675925Y-36104985D01*
X121656491Y-36101383D01*
X121649288Y-36099453D01*
X121649280Y-36099451D01*
X121642903Y-36097743D01*
X121636307Y-36097397D01*
X121636306Y-36097397D01*
X121574599Y-36094162D01*
X121568040Y-36093646D01*
X121547610Y-36091500D01*
X121544317Y-36091500D01*
X121527074Y-36091500D01*
X121520480Y-36091327D01*
X121458781Y-36088093D01*
X121458776Y-36088093D01*
X121452190Y-36087748D01*
X121438292Y-36089949D01*
X121418583Y-36091500D01*
X115494188Y-36091500D01*
X115445970Y-36081909D01*
X115405093Y-36054595D01*
X115348197Y-35997699D01*
X115344300Y-35993802D01*
X115254306Y-35930787D01*
X115161257Y-35865633D01*
X115161252Y-35865630D01*
X115156749Y-35862477D01*
X115151761Y-35860151D01*
X115149975Y-35859120D01*
X115103855Y-35813000D01*
X115086974Y-35750000D01*
X115103855Y-35687000D01*
X115149975Y-35640880D01*
X115151759Y-35639849D01*
X115156749Y-35637523D01*
X115344300Y-35506198D01*
X115506198Y-35344300D01*
X115637523Y-35156749D01*
X115734284Y-34949243D01*
X115793543Y-34728087D01*
X115813498Y-34500000D01*
X115793543Y-34271913D01*
X115734284Y-34050757D01*
X115637523Y-33843251D01*
X115506198Y-33655700D01*
X115344300Y-33493802D01*
X115270496Y-33442123D01*
X115161257Y-33365633D01*
X115161252Y-33365630D01*
X115156749Y-33362477D01*
X115146470Y-33357684D01*
X114954225Y-33268039D01*
X114954223Y-33268038D01*
X114949243Y-33265716D01*
X114728087Y-33206457D01*
X114722611Y-33205977D01*
X114722606Y-33205977D01*
X114505475Y-33186981D01*
X114500000Y-33186502D01*
X114494525Y-33186981D01*
X114277393Y-33205977D01*
X114277386Y-33205978D01*
X114271913Y-33206457D01*
X114266599Y-33207880D01*
X114266598Y-33207881D01*
X114056067Y-33264293D01*
X114056065Y-33264293D01*
X114050757Y-33265716D01*
X114045779Y-33268036D01*
X114045774Y-33268039D01*
X113848238Y-33360151D01*
X113848233Y-33360153D01*
X113843251Y-33362477D01*
X113838752Y-33365627D01*
X113838742Y-33365633D01*
X113660211Y-33490643D01*
X113660208Y-33490645D01*
X113655700Y-33493802D01*
X113651808Y-33497693D01*
X113651802Y-33497699D01*
X113497699Y-33651802D01*
X113497693Y-33651808D01*
X113493802Y-33655700D01*
X113490645Y-33660208D01*
X113490643Y-33660211D01*
X113365633Y-33838742D01*
X113365627Y-33838752D01*
X113362477Y-33843251D01*
X113360153Y-33848233D01*
X113360151Y-33848238D01*
X113268039Y-34045774D01*
X113268036Y-34045779D01*
X113265716Y-34050757D01*
X113264293Y-34056065D01*
X113264293Y-34056067D01*
X113229328Y-34186558D01*
X113206457Y-34271913D01*
X113205978Y-34277386D01*
X113205977Y-34277393D01*
X113193066Y-34424970D01*
X113186502Y-34500000D01*
X113186981Y-34505475D01*
X113205745Y-34719956D01*
X113206457Y-34728087D01*
X113265716Y-34949243D01*
X113268038Y-34954223D01*
X113268039Y-34954225D01*
X113322724Y-35071497D01*
X113362477Y-35156749D01*
X113365630Y-35161252D01*
X113365633Y-35161257D01*
X113380679Y-35182744D01*
X113493802Y-35344300D01*
X113655700Y-35506198D01*
X113843251Y-35637523D01*
X113848233Y-35639846D01*
X113850027Y-35640882D01*
X113896145Y-35687001D01*
X113913025Y-35750000D01*
X113896145Y-35812999D01*
X113850027Y-35859118D01*
X113848231Y-35860154D01*
X113843251Y-35862477D01*
X113838749Y-35865628D01*
X113838746Y-35865631D01*
X113660211Y-35990643D01*
X113660208Y-35990645D01*
X113655700Y-35993802D01*
X113651808Y-35997693D01*
X113651802Y-35997699D01*
X113497699Y-36151802D01*
X113497693Y-36151808D01*
X113493802Y-36155700D01*
X113490645Y-36160208D01*
X113490643Y-36160211D01*
X113365633Y-36338742D01*
X113365627Y-36338752D01*
X113362477Y-36343251D01*
X113360153Y-36348233D01*
X113360151Y-36348238D01*
X113268039Y-36545774D01*
X113268036Y-36545779D01*
X113265716Y-36550757D01*
X113206457Y-36771913D01*
X113205978Y-36777386D01*
X113205977Y-36777393D01*
X113186988Y-36994443D01*
X113186502Y-37000000D01*
X110784813Y-37000000D01*
X108945405Y-35160592D01*
X108918091Y-35119715D01*
X108908500Y-35071497D01*
X108908500Y-34849210D01*
X108914332Y-34811321D01*
X108931287Y-34776940D01*
X108969332Y-34722606D01*
X109050589Y-34606558D01*
X109139956Y-34414910D01*
X109194686Y-34210655D01*
X109213116Y-34000000D01*
X109194686Y-33789345D01*
X109139956Y-33585090D01*
X109050589Y-33393442D01*
X109028907Y-33362477D01*
X108932460Y-33224735D01*
X108932457Y-33224732D01*
X108929301Y-33220224D01*
X108779776Y-33070699D01*
X108775268Y-33067543D01*
X108775264Y-33067539D01*
X108611063Y-32952565D01*
X108611059Y-32952563D01*
X108606558Y-32949411D01*
X108601579Y-32947089D01*
X108601577Y-32947088D01*
X108419892Y-32862367D01*
X108419890Y-32862366D01*
X108414910Y-32860044D01*
X108409601Y-32858621D01*
X108409600Y-32858621D01*
X108215969Y-32806738D01*
X108215970Y-32806738D01*
X108210655Y-32805314D01*
X108205179Y-32804834D01*
X108205174Y-32804834D01*
X108005475Y-32787363D01*
X108000000Y-32786884D01*
X107994525Y-32787363D01*
X107794825Y-32804834D01*
X107794818Y-32804835D01*
X107789345Y-32805314D01*
X107784031Y-32806737D01*
X107784030Y-32806738D01*
X107590399Y-32858621D01*
X107590394Y-32858622D01*
X107585090Y-32860044D01*
X107580112Y-32862364D01*
X107580107Y-32862367D01*
X107398422Y-32947088D01*
X107398414Y-32947092D01*
X107393442Y-32949411D01*
X107388945Y-32952559D01*
X107388936Y-32952565D01*
X107224735Y-33067539D01*
X107224725Y-33067547D01*
X107220224Y-33070699D01*
X107216334Y-33074588D01*
X107216328Y-33074594D01*
X107074594Y-33216328D01*
X107074588Y-33216334D01*
X107070699Y-33220224D01*
X107067547Y-33224725D01*
X107067539Y-33224735D01*
X106952565Y-33388936D01*
X106952559Y-33388945D01*
X106949411Y-33393442D01*
X106947092Y-33398414D01*
X106947088Y-33398422D01*
X106862367Y-33580107D01*
X106862364Y-33580112D01*
X106860044Y-33585090D01*
X106858622Y-33590394D01*
X106858621Y-33590399D01*
X106821728Y-33728087D01*
X106805314Y-33789345D01*
X106804835Y-33794818D01*
X106804834Y-33794825D01*
X106791789Y-33943932D01*
X106786884Y-34000000D01*
X106787363Y-34005475D01*
X106803599Y-34191063D01*
X106805314Y-34210655D01*
X106806738Y-34215969D01*
X106852178Y-34385556D01*
X106860044Y-34414910D01*
X106862366Y-34419890D01*
X106862367Y-34419892D01*
X106941338Y-34589247D01*
X106949411Y-34606558D01*
X106952563Y-34611059D01*
X106952565Y-34611063D01*
X107068713Y-34776940D01*
X107085668Y-34811321D01*
X107091500Y-34849210D01*
X107091500Y-35418583D01*
X107089949Y-35438292D01*
X107087748Y-35452190D01*
X107088093Y-35458776D01*
X107088093Y-35458781D01*
X107091327Y-35520480D01*
X107091500Y-35527074D01*
X107091500Y-35547610D01*
X107091842Y-35550874D01*
X107091843Y-35550875D01*
X107093646Y-35568033D01*
X107094162Y-35574599D01*
X107097397Y-35636306D01*
X107097743Y-35642903D01*
X107099451Y-35649280D01*
X107099453Y-35649288D01*
X107101383Y-35656491D01*
X107104985Y-35675925D01*
X107105765Y-35683351D01*
X107105768Y-35683366D01*
X107106458Y-35689928D01*
X107127600Y-35754999D01*
X107129468Y-35761305D01*
X107145461Y-35820991D01*
X107145463Y-35820996D01*
X107147171Y-35827370D01*
X107150165Y-35833246D01*
X107150168Y-35833254D01*
X107153560Y-35839911D01*
X107161120Y-35858162D01*
X107165473Y-35871556D01*
X107199681Y-35930806D01*
X107202818Y-35936585D01*
X107233871Y-35997530D01*
X107238025Y-36002660D01*
X107242728Y-36008468D01*
X107253918Y-36024748D01*
X107260960Y-36036944D01*
X107306703Y-36087748D01*
X107306729Y-36087776D01*
X107311000Y-36092777D01*
X107323928Y-36108741D01*
X107326266Y-36111079D01*
X107338442Y-36123255D01*
X107342967Y-36128022D01*
X107388747Y-36178866D01*
X107400132Y-36187137D01*
X107415164Y-36199977D01*
X110065495Y-38850308D01*
X110092809Y-38891185D01*
X110102400Y-38939403D01*
X110102400Y-40286996D01*
X110086868Y-40347601D01*
X110044100Y-40393263D01*
X109984641Y-40412726D01*
X109923150Y-40401191D01*
X109839892Y-40362367D01*
X109839890Y-40362366D01*
X109834910Y-40360044D01*
X109829601Y-40358621D01*
X109829600Y-40358621D01*
X109683889Y-40319578D01*
X109630655Y-40305314D01*
X109625179Y-40304834D01*
X109625174Y-40304834D01*
X109425475Y-40287363D01*
X109420000Y-40286884D01*
X109414525Y-40287363D01*
X109214825Y-40304834D01*
X109214818Y-40304835D01*
X109209345Y-40305314D01*
X109204031Y-40306737D01*
X109204030Y-40306738D01*
X109010399Y-40358621D01*
X109010394Y-40358622D01*
X109005090Y-40360044D01*
X109000112Y-40362364D01*
X109000107Y-40362367D01*
X108818422Y-40447088D01*
X108818414Y-40447092D01*
X108813442Y-40449411D01*
X108808945Y-40452559D01*
X108808936Y-40452565D01*
X108644735Y-40567539D01*
X108644725Y-40567547D01*
X108640224Y-40570699D01*
X108636334Y-40574588D01*
X108636328Y-40574594D01*
X108494594Y-40716328D01*
X108494588Y-40716334D01*
X108490699Y-40720224D01*
X108487547Y-40724725D01*
X108487539Y-40724735D01*
X108372565Y-40888936D01*
X108372559Y-40888945D01*
X108369411Y-40893442D01*
X108367092Y-40898414D01*
X108367088Y-40898422D01*
X108282367Y-41080107D01*
X108282364Y-41080112D01*
X108280044Y-41085090D01*
X108278622Y-41090394D01*
X108278621Y-41090399D01*
X108240981Y-41230874D01*
X108225314Y-41289345D01*
X108224835Y-41294818D01*
X108224834Y-41294825D01*
X108207363Y-41494525D01*
X108206884Y-41500000D01*
X108225314Y-41710655D01*
X108280044Y-41914910D01*
X108282366Y-41919890D01*
X108282367Y-41919892D01*
X108340904Y-42045426D01*
X108369411Y-42106558D01*
X108372563Y-42111059D01*
X108372565Y-42111063D01*
X108487539Y-42275264D01*
X108487543Y-42275268D01*
X108490699Y-42279776D01*
X108640224Y-42429301D01*
X108644732Y-42432457D01*
X108644735Y-42432460D01*
X108737600Y-42497484D01*
X108813442Y-42550589D01*
X109005090Y-42639956D01*
X109209345Y-42694686D01*
X109420000Y-42713116D01*
X109630655Y-42694686D01*
X109834910Y-42639956D01*
X109923149Y-42598809D01*
X109984641Y-42587274D01*
X110044100Y-42606737D01*
X110086868Y-42652399D01*
X110102400Y-42713004D01*
X110102400Y-67450524D01*
X110089406Y-67506252D01*
X110053104Y-67550487D01*
X110000981Y-67574103D01*
X109943790Y-67572231D01*
X109890575Y-67557972D01*
X109885966Y-67556737D01*
X109885965Y-67556736D01*
X109880655Y-67555314D01*
X109875179Y-67554834D01*
X109875163Y-67554832D01*
X109794253Y-67547753D01*
X109751986Y-67536428D01*
X109716141Y-67511328D01*
X107119977Y-64915164D01*
X107107135Y-64900129D01*
X107098866Y-64888747D01*
X107048022Y-64842967D01*
X107043255Y-64838442D01*
X107031079Y-64826266D01*
X107031079Y-64826265D01*
X107028741Y-64823928D01*
X107012777Y-64811000D01*
X107007776Y-64806729D01*
X106961850Y-64765377D01*
X106961848Y-64765375D01*
X106956944Y-64760960D01*
X106944748Y-64753918D01*
X106928468Y-64742728D01*
X106922660Y-64738025D01*
X106917530Y-64733871D01*
X106856585Y-64702818D01*
X106850806Y-64699681D01*
X106791556Y-64665473D01*
X106785281Y-64663434D01*
X106785279Y-64663433D01*
X106778163Y-64661121D01*
X106759911Y-64653560D01*
X106753254Y-64650168D01*
X106753246Y-64650165D01*
X106747370Y-64647171D01*
X106740996Y-64645463D01*
X106740991Y-64645461D01*
X106681305Y-64629468D01*
X106674999Y-64627600D01*
X106609928Y-64606458D01*
X106603366Y-64605768D01*
X106603351Y-64605765D01*
X106595925Y-64604985D01*
X106576491Y-64601383D01*
X106569288Y-64599453D01*
X106569280Y-64599451D01*
X106562903Y-64597743D01*
X106556307Y-64597397D01*
X106556306Y-64597397D01*
X106494599Y-64594162D01*
X106488040Y-64593646D01*
X106467610Y-64591500D01*
X106464317Y-64591500D01*
X106447074Y-64591500D01*
X106440480Y-64591327D01*
X106378781Y-64588093D01*
X106378776Y-64588093D01*
X106372190Y-64587748D01*
X106358292Y-64589949D01*
X106338583Y-64591500D01*
X99922703Y-64591500D01*
X99874485Y-64581909D01*
X99833608Y-64554595D01*
X99802608Y-64523595D01*
X99771870Y-64473436D01*
X99767254Y-64414789D01*
X99789767Y-64360439D01*
X99834500Y-64322233D01*
X99891703Y-64308500D01*
X100345269Y-64308500D01*
X100348638Y-64308500D01*
X100409201Y-64301989D01*
X100546204Y-64250889D01*
X100663261Y-64163261D01*
X100750889Y-64046204D01*
X100801989Y-63909201D01*
X100804064Y-63909975D01*
X100829837Y-63862514D01*
X100886481Y-63828387D01*
X100952607Y-63827646D01*
X101010000Y-63860498D01*
X101155700Y-64006198D01*
X101343251Y-64137523D01*
X101550757Y-64234284D01*
X101771913Y-64293543D01*
X102000000Y-64313498D01*
X102228087Y-64293543D01*
X102449243Y-64234284D01*
X102656749Y-64137523D01*
X102844300Y-64006198D01*
X103006198Y-63844300D01*
X103137523Y-63656749D01*
X103234284Y-63449243D01*
X103293543Y-63228087D01*
X103313498Y-63000000D01*
X103293543Y-62771913D01*
X103234284Y-62550757D01*
X103137523Y-62343251D01*
X103130996Y-62333930D01*
X103087407Y-62271678D01*
X103006198Y-62155700D01*
X102844300Y-61993802D01*
X102747760Y-61926204D01*
X102661257Y-61865633D01*
X102661252Y-61865630D01*
X102656749Y-61862477D01*
X102619846Y-61845269D01*
X102454225Y-61768039D01*
X102454223Y-61768038D01*
X102449243Y-61765716D01*
X102228087Y-61706457D01*
X102222611Y-61705977D01*
X102222606Y-61705977D01*
X102005475Y-61686981D01*
X102000000Y-61686502D01*
X101994525Y-61686981D01*
X101777393Y-61705977D01*
X101777386Y-61705978D01*
X101771913Y-61706457D01*
X101766599Y-61707880D01*
X101766598Y-61707881D01*
X101556067Y-61764293D01*
X101556065Y-61764293D01*
X101550757Y-61765716D01*
X101545779Y-61768036D01*
X101545774Y-61768039D01*
X101348238Y-61860151D01*
X101348233Y-61860153D01*
X101343251Y-61862477D01*
X101338752Y-61865627D01*
X101338742Y-61865633D01*
X101160211Y-61990643D01*
X101160208Y-61990645D01*
X101155700Y-61993802D01*
X101151808Y-61997693D01*
X101151808Y-61997694D01*
X101010000Y-62139502D01*
X100952609Y-62172352D01*
X100886484Y-62171613D01*
X100829841Y-62137489D01*
X100804063Y-62090025D01*
X100801989Y-62090799D01*
X100754037Y-61962236D01*
X100754036Y-61962235D01*
X100750889Y-61953796D01*
X100738188Y-61936830D01*
X100672898Y-61849613D01*
X100663261Y-61836739D01*
X100599413Y-61788943D01*
X100564337Y-61748463D01*
X100549245Y-61697066D01*
X100556868Y-61644045D01*
X100585827Y-61598984D01*
X102584839Y-59599972D01*
X102599867Y-59587137D01*
X102611253Y-59578866D01*
X102657026Y-59528028D01*
X102661531Y-59523280D01*
X102676072Y-59508741D01*
X102689008Y-59492765D01*
X102693266Y-59487779D01*
X102739040Y-59436944D01*
X102746075Y-59424757D01*
X102757271Y-59408467D01*
X102766129Y-59397530D01*
X102797203Y-59336543D01*
X102800315Y-59330811D01*
X102834527Y-59271556D01*
X102838872Y-59258183D01*
X102846441Y-59239908D01*
X102852830Y-59227370D01*
X102870531Y-59161302D01*
X102872403Y-59154986D01*
X102891501Y-59096211D01*
X102891502Y-59096205D01*
X102893542Y-59089928D01*
X102895012Y-59075937D01*
X102898617Y-59056487D01*
X102900547Y-59049284D01*
X102900546Y-59049284D01*
X102902257Y-59042903D01*
X102905836Y-58974592D01*
X102906353Y-58968034D01*
X102908156Y-58950885D01*
X102908156Y-58950880D01*
X102908500Y-58947610D01*
X102908500Y-58927074D01*
X102908673Y-58920480D01*
X102908899Y-58916173D01*
X102912252Y-58852190D01*
X102910050Y-58838292D01*
X102908500Y-58818583D01*
X102908500Y-45994188D01*
X102918091Y-45945970D01*
X102945405Y-45905093D01*
X102973768Y-45876730D01*
X103006198Y-45844300D01*
X103137523Y-45656749D01*
X103234284Y-45449243D01*
X103293543Y-45228087D01*
X103313498Y-45000000D01*
X103293543Y-44771913D01*
X103234284Y-44550757D01*
X103137523Y-44343251D01*
X103006198Y-44155700D01*
X102844300Y-43993802D01*
X102730573Y-43914169D01*
X102661257Y-43865633D01*
X102661252Y-43865630D01*
X102656749Y-43862477D01*
X102606906Y-43839235D01*
X102454225Y-43768039D01*
X102454223Y-43768038D01*
X102449243Y-43765716D01*
X102228087Y-43706457D01*
X102222611Y-43705977D01*
X102222606Y-43705977D01*
X102005475Y-43686981D01*
X102000000Y-43686502D01*
X101994525Y-43686981D01*
X101777393Y-43705977D01*
X101777386Y-43705978D01*
X101771913Y-43706457D01*
X101766599Y-43707880D01*
X101766598Y-43707881D01*
X101556067Y-43764293D01*
X101556065Y-43764293D01*
X101550757Y-43765716D01*
X101545779Y-43768036D01*
X101545774Y-43768039D01*
X101348235Y-43860152D01*
X101348226Y-43860156D01*
X101343251Y-43862477D01*
X101338748Y-43865629D01*
X101338741Y-43865634D01*
X101337783Y-43866305D01*
X101337215Y-43866514D01*
X101333980Y-43868383D01*
X101333660Y-43867829D01*
X101277820Y-43888485D01*
X101214691Y-43878380D01*
X101176970Y-43848388D01*
X101175034Y-43850325D01*
X101168659Y-43843950D01*
X101163261Y-43836739D01*
X101100672Y-43789885D01*
X101053417Y-43754510D01*
X101053414Y-43754508D01*
X101046204Y-43749111D01*
X101037766Y-43745964D01*
X101037763Y-43745962D01*
X100916580Y-43700763D01*
X100916578Y-43700762D01*
X100909201Y-43698011D01*
X100901373Y-43697169D01*
X100901367Y-43697168D01*
X100851988Y-43691860D01*
X100851985Y-43691859D01*
X100848638Y-43691500D01*
X99151362Y-43691500D01*
X99148015Y-43691859D01*
X99148011Y-43691860D01*
X99098632Y-43697168D01*
X99098625Y-43697169D01*
X99090799Y-43698011D01*
X99083423Y-43700761D01*
X99083419Y-43700763D01*
X98962236Y-43745962D01*
X98962230Y-43745965D01*
X98953796Y-43749111D01*
X98946588Y-43754506D01*
X98946582Y-43754510D01*
X98843950Y-43831340D01*
X98843946Y-43831343D01*
X98836739Y-43836739D01*
X98831343Y-43843946D01*
X98831339Y-43843951D01*
X98788944Y-43900584D01*
X98732109Y-43943130D01*
X98661293Y-43948194D01*
X98598982Y-43914169D01*
X93764813Y-39080000D01*
X106786884Y-39080000D01*
X106787363Y-39085475D01*
X106803205Y-39266558D01*
X106805314Y-39290655D01*
X106816846Y-39333694D01*
X106853637Y-39471001D01*
X106860044Y-39494910D01*
X106862366Y-39499890D01*
X106862367Y-39499892D01*
X106935914Y-39657615D01*
X106949411Y-39686558D01*
X106952563Y-39691059D01*
X106952565Y-39691063D01*
X107067539Y-39855264D01*
X107067543Y-39855268D01*
X107070699Y-39859776D01*
X107220224Y-40009301D01*
X107224732Y-40012457D01*
X107224735Y-40012460D01*
X107388936Y-40127434D01*
X107393442Y-40130589D01*
X107585090Y-40219956D01*
X107789345Y-40274686D01*
X108000000Y-40293116D01*
X108210655Y-40274686D01*
X108414910Y-40219956D01*
X108606558Y-40130589D01*
X108779776Y-40009301D01*
X108929301Y-39859776D01*
X109050589Y-39686558D01*
X109139956Y-39494910D01*
X109194686Y-39290655D01*
X109213116Y-39080000D01*
X109194686Y-38869345D01*
X109139956Y-38665090D01*
X109050589Y-38473442D01*
X108981537Y-38374825D01*
X108932460Y-38304735D01*
X108932457Y-38304732D01*
X108929301Y-38300224D01*
X108779776Y-38150699D01*
X108775268Y-38147543D01*
X108775264Y-38147539D01*
X108611063Y-38032565D01*
X108611059Y-38032563D01*
X108606558Y-38029411D01*
X108601579Y-38027089D01*
X108601577Y-38027088D01*
X108419892Y-37942367D01*
X108419890Y-37942366D01*
X108414910Y-37940044D01*
X108409601Y-37938621D01*
X108409600Y-37938621D01*
X108215969Y-37886738D01*
X108215970Y-37886738D01*
X108210655Y-37885314D01*
X108205179Y-37884834D01*
X108205174Y-37884834D01*
X108005475Y-37867363D01*
X108000000Y-37866884D01*
X107994525Y-37867363D01*
X107794825Y-37884834D01*
X107794818Y-37884835D01*
X107789345Y-37885314D01*
X107784031Y-37886737D01*
X107784030Y-37886738D01*
X107590399Y-37938621D01*
X107590394Y-37938622D01*
X107585090Y-37940044D01*
X107580112Y-37942364D01*
X107580107Y-37942367D01*
X107398422Y-38027088D01*
X107398414Y-38027092D01*
X107393442Y-38029411D01*
X107388945Y-38032559D01*
X107388936Y-38032565D01*
X107224735Y-38147539D01*
X107224725Y-38147547D01*
X107220224Y-38150699D01*
X107216334Y-38154588D01*
X107216328Y-38154594D01*
X107074594Y-38296328D01*
X107074588Y-38296334D01*
X107070699Y-38300224D01*
X107067547Y-38304725D01*
X107067539Y-38304735D01*
X106952565Y-38468936D01*
X106952559Y-38468945D01*
X106949411Y-38473442D01*
X106947092Y-38478414D01*
X106947088Y-38478422D01*
X106862367Y-38660107D01*
X106862364Y-38660112D01*
X106860044Y-38665090D01*
X106858622Y-38670394D01*
X106858621Y-38670399D01*
X106826399Y-38790655D01*
X106805314Y-38869345D01*
X106804835Y-38874818D01*
X106804834Y-38874825D01*
X106787794Y-39069600D01*
X106786884Y-39080000D01*
X93764813Y-39080000D01*
X88599977Y-33915164D01*
X88587135Y-33900129D01*
X88578866Y-33888747D01*
X88528022Y-33842967D01*
X88523255Y-33838442D01*
X88511079Y-33826266D01*
X88508741Y-33823928D01*
X88492777Y-33811000D01*
X88487776Y-33806729D01*
X88474555Y-33794825D01*
X88436944Y-33760960D01*
X88424748Y-33753918D01*
X88408468Y-33742728D01*
X88402660Y-33738025D01*
X88397530Y-33733871D01*
X88336585Y-33702818D01*
X88330806Y-33699681D01*
X88271556Y-33665473D01*
X88265281Y-33663434D01*
X88265279Y-33663433D01*
X88258163Y-33661121D01*
X88239911Y-33653560D01*
X88233254Y-33650168D01*
X88233246Y-33650165D01*
X88227370Y-33647171D01*
X88220996Y-33645463D01*
X88220991Y-33645461D01*
X88161305Y-33629468D01*
X88154999Y-33627600D01*
X88089928Y-33606458D01*
X88083366Y-33605768D01*
X88083351Y-33605765D01*
X88075925Y-33604985D01*
X88056491Y-33601383D01*
X88049288Y-33599453D01*
X88049280Y-33599451D01*
X88042903Y-33597743D01*
X88036307Y-33597397D01*
X88036306Y-33597397D01*
X87974599Y-33594162D01*
X87968040Y-33593646D01*
X87947610Y-33591500D01*
X87944317Y-33591500D01*
X87927074Y-33591500D01*
X87920480Y-33591327D01*
X87858781Y-33588093D01*
X87858776Y-33588093D01*
X87852190Y-33587748D01*
X87838292Y-33589949D01*
X87818583Y-33591500D01*
X75436961Y-33591500D01*
X75377161Y-33576405D01*
X75331689Y-33534738D01*
X75311440Y-33476481D01*
X75309626Y-33455742D01*
X75293543Y-33271913D01*
X75234284Y-33050757D01*
X75137523Y-32843251D01*
X75122036Y-32821134D01*
X75063142Y-32737024D01*
X75006198Y-32655700D01*
X74844300Y-32493802D01*
X74765494Y-32438621D01*
X74661257Y-32365633D01*
X74661252Y-32365630D01*
X74656749Y-32362477D01*
X74651761Y-32360151D01*
X74454225Y-32268039D01*
X74454223Y-32268038D01*
X74449243Y-32265716D01*
X74228087Y-32206457D01*
X74222611Y-32205977D01*
X74222606Y-32205977D01*
X74005475Y-32186981D01*
X74000000Y-32186502D01*
X73994525Y-32186981D01*
X73777393Y-32205977D01*
X73777386Y-32205978D01*
X73771913Y-32206457D01*
X73766599Y-32207880D01*
X73766598Y-32207881D01*
X73556067Y-32264293D01*
X73556065Y-32264293D01*
X73550757Y-32265716D01*
X73545779Y-32268036D01*
X73545774Y-32268039D01*
X73348238Y-32360151D01*
X73348233Y-32360153D01*
X73343251Y-32362477D01*
X73338752Y-32365627D01*
X73338742Y-32365633D01*
X73160211Y-32490643D01*
X73160208Y-32490645D01*
X73155700Y-32493802D01*
X73151808Y-32497693D01*
X73151802Y-32497699D01*
X72997699Y-32651802D01*
X72997693Y-32651808D01*
X72993802Y-32655700D01*
X72990645Y-32660208D01*
X72990643Y-32660211D01*
X72865633Y-32838742D01*
X72865627Y-32838752D01*
X72862477Y-32843251D01*
X72860153Y-32848233D01*
X72860151Y-32848238D01*
X72768039Y-33045774D01*
X72768036Y-33045779D01*
X72765716Y-33050757D01*
X72764293Y-33056065D01*
X72764293Y-33056067D01*
X72708117Y-33265716D01*
X72706457Y-33271913D01*
X72705978Y-33277386D01*
X72705977Y-33277393D01*
X72695421Y-33398056D01*
X72686502Y-33500000D01*
X72686981Y-33505475D01*
X72705396Y-33715969D01*
X72706457Y-33728087D01*
X72765716Y-33949243D01*
X72768038Y-33954223D01*
X72768039Y-33954225D01*
X72822724Y-34071497D01*
X72862477Y-34156749D01*
X72865630Y-34161252D01*
X72865633Y-34161257D01*
X72882538Y-34185399D01*
X72903995Y-34239408D01*
X72898930Y-34297303D01*
X72868420Y-34346765D01*
X61839083Y-45376102D01*
X61790488Y-45406321D01*
X61733538Y-45411929D01*
X61679982Y-45391769D01*
X61640865Y-45350001D01*
X61639853Y-45348248D01*
X61637523Y-45343251D01*
X61506198Y-45155700D01*
X61344300Y-44993802D01*
X61187280Y-44883855D01*
X61161257Y-44865633D01*
X61161252Y-44865630D01*
X61156749Y-44862477D01*
X60949243Y-44765716D01*
X60728087Y-44706457D01*
X60722611Y-44705977D01*
X60722606Y-44705977D01*
X60505475Y-44686981D01*
X60500000Y-44686502D01*
X60494525Y-44686981D01*
X60277393Y-44705977D01*
X60277386Y-44705978D01*
X60271913Y-44706457D01*
X60266599Y-44707880D01*
X60266598Y-44707881D01*
X60056067Y-44764293D01*
X60056065Y-44764293D01*
X60050757Y-44765716D01*
X60045779Y-44768036D01*
X60045774Y-44768039D01*
X59848238Y-44860151D01*
X59848233Y-44860153D01*
X59843251Y-44862477D01*
X59838752Y-44865627D01*
X59838742Y-44865633D01*
X59660211Y-44990643D01*
X59660208Y-44990645D01*
X59655700Y-44993802D01*
X59651808Y-44997693D01*
X59651802Y-44997699D01*
X59623595Y-45025907D01*
X59573436Y-45056645D01*
X59514789Y-45061261D01*
X59460439Y-45038748D01*
X59422233Y-44994015D01*
X59408500Y-44936812D01*
X59408500Y-43581416D01*
X59410051Y-43561704D01*
X59412252Y-43547809D01*
X59408672Y-43479518D01*
X59408500Y-43472925D01*
X59408500Y-43455680D01*
X59408500Y-43452390D01*
X59406352Y-43431963D01*
X59405836Y-43425404D01*
X59402257Y-43357096D01*
X59398615Y-43343508D01*
X59395012Y-43324061D01*
X59394232Y-43316642D01*
X59393542Y-43310072D01*
X59372400Y-43245005D01*
X59370529Y-43238688D01*
X59354537Y-43179005D01*
X59352829Y-43172630D01*
X59346439Y-43160089D01*
X59338875Y-43141827D01*
X59334527Y-43128444D01*
X59300327Y-43069209D01*
X59297178Y-43063409D01*
X59284111Y-43037763D01*
X59266129Y-43002470D01*
X59257272Y-42991532D01*
X59246074Y-42975239D01*
X59242341Y-42968774D01*
X59239040Y-42963056D01*
X59193264Y-42912216D01*
X59188999Y-42907222D01*
X59176072Y-42891259D01*
X59161555Y-42876742D01*
X59157015Y-42871958D01*
X59115672Y-42826042D01*
X59111253Y-42821134D01*
X59099865Y-42812860D01*
X59084832Y-42800019D01*
X57699977Y-41415164D01*
X57687135Y-41400129D01*
X57678866Y-41388747D01*
X57628022Y-41342967D01*
X57623255Y-41338442D01*
X57611079Y-41326266D01*
X57608741Y-41323928D01*
X57592777Y-41311000D01*
X57587776Y-41306729D01*
X57574555Y-41294825D01*
X57536944Y-41260960D01*
X57524748Y-41253918D01*
X57508468Y-41242728D01*
X57502660Y-41238025D01*
X57497530Y-41233871D01*
X57436585Y-41202818D01*
X57430806Y-41199681D01*
X57371556Y-41165473D01*
X57365281Y-41163434D01*
X57365279Y-41163433D01*
X57358163Y-41161121D01*
X57339911Y-41153560D01*
X57333254Y-41150168D01*
X57333246Y-41150165D01*
X57327370Y-41147171D01*
X57320996Y-41145463D01*
X57320991Y-41145461D01*
X57261305Y-41129468D01*
X57254999Y-41127600D01*
X57189928Y-41106458D01*
X57183366Y-41105768D01*
X57183351Y-41105765D01*
X57175925Y-41104985D01*
X57156491Y-41101383D01*
X57149288Y-41099453D01*
X57149280Y-41099451D01*
X57142903Y-41097743D01*
X57136307Y-41097397D01*
X57136306Y-41097397D01*
X57074599Y-41094162D01*
X57068040Y-41093646D01*
X57047610Y-41091500D01*
X57044317Y-41091500D01*
X57027074Y-41091500D01*
X57020480Y-41091327D01*
X56958781Y-41088093D01*
X56958776Y-41088093D01*
X56952190Y-41087748D01*
X56938292Y-41089949D01*
X56918583Y-41091500D01*
X55330964Y-41091500D01*
X55275237Y-41078507D01*
X55231003Y-41042206D01*
X55207386Y-40990085D01*
X55209256Y-40932894D01*
X55213032Y-40918798D01*
X55214903Y-40912486D01*
X55234001Y-40853711D01*
X55234002Y-40853705D01*
X55236042Y-40847428D01*
X55237512Y-40833437D01*
X55241117Y-40813987D01*
X55243047Y-40806784D01*
X55243046Y-40806784D01*
X55244757Y-40800403D01*
X55248336Y-40732092D01*
X55248853Y-40725534D01*
X55250656Y-40708385D01*
X55250656Y-40708380D01*
X55251000Y-40705110D01*
X55251000Y-40684574D01*
X55251173Y-40677980D01*
X55252388Y-40654796D01*
X55254752Y-40609690D01*
X55252550Y-40595792D01*
X55251000Y-40576083D01*
X55251000Y-35003917D01*
X55252551Y-34984207D01*
X55254752Y-34970310D01*
X55251172Y-34902019D01*
X55251000Y-34895426D01*
X55251000Y-34878180D01*
X55251000Y-34874890D01*
X55248853Y-34854462D01*
X55248336Y-34847903D01*
X55244757Y-34779597D01*
X55241115Y-34766009D01*
X55237513Y-34746573D01*
X55236042Y-34732572D01*
X55214905Y-34667521D01*
X55213031Y-34661194D01*
X55208130Y-34642903D01*
X55195330Y-34595130D01*
X55188940Y-34582589D01*
X55181373Y-34564322D01*
X55177027Y-34550944D01*
X55142826Y-34491707D01*
X55139695Y-34485941D01*
X55108629Y-34424970D01*
X55099772Y-34414032D01*
X55088574Y-34397739D01*
X55084841Y-34391274D01*
X55081540Y-34385556D01*
X55035764Y-34334716D01*
X55031499Y-34329722D01*
X55018572Y-34313759D01*
X55004056Y-34299243D01*
X54999515Y-34294458D01*
X54958172Y-34248542D01*
X54953753Y-34243634D01*
X54947936Y-34239408D01*
X54942365Y-34235360D01*
X54927332Y-34222519D01*
X54238670Y-33533857D01*
X54213570Y-33498011D01*
X54202244Y-33455742D01*
X54198340Y-33411118D01*
X54194686Y-33369345D01*
X54139956Y-33165090D01*
X54050589Y-32973442D01*
X54035971Y-32952565D01*
X53932460Y-32804735D01*
X53932457Y-32804732D01*
X53929301Y-32800224D01*
X53779776Y-32650699D01*
X53775268Y-32647543D01*
X53775264Y-32647539D01*
X53611063Y-32532565D01*
X53611059Y-32532563D01*
X53606558Y-32529411D01*
X53601579Y-32527089D01*
X53601577Y-32527088D01*
X53419892Y-32442367D01*
X53419890Y-32442366D01*
X53414910Y-32440044D01*
X53409601Y-32438621D01*
X53409600Y-32438621D01*
X53215969Y-32386738D01*
X53215970Y-32386738D01*
X53210655Y-32385314D01*
X53205179Y-32384834D01*
X53205174Y-32384834D01*
X53005475Y-32367363D01*
X53000000Y-32366884D01*
X52994525Y-32367363D01*
X52794825Y-32384834D01*
X52794818Y-32384835D01*
X52789345Y-32385314D01*
X52784031Y-32386737D01*
X52784030Y-32386738D01*
X52590399Y-32438621D01*
X52590394Y-32438622D01*
X52585090Y-32440044D01*
X52580112Y-32442364D01*
X52580107Y-32442367D01*
X52398422Y-32527088D01*
X52398414Y-32527092D01*
X52393442Y-32529411D01*
X52388945Y-32532559D01*
X52388936Y-32532565D01*
X52224735Y-32647539D01*
X52224725Y-32647547D01*
X52220224Y-32650699D01*
X52216334Y-32654588D01*
X52216328Y-32654594D01*
X52074594Y-32796328D01*
X52074588Y-32796334D01*
X52070699Y-32800224D01*
X52067547Y-32804725D01*
X52067539Y-32804735D01*
X51952565Y-32968936D01*
X51952559Y-32968945D01*
X51949411Y-32973442D01*
X51947092Y-32978414D01*
X51947088Y-32978422D01*
X51862367Y-33160107D01*
X51862364Y-33160112D01*
X51860044Y-33165090D01*
X51858622Y-33170394D01*
X51858621Y-33170399D01*
X51807154Y-33362477D01*
X51805314Y-33369345D01*
X51804835Y-33374818D01*
X51804834Y-33374825D01*
X51794702Y-33490643D01*
X51786884Y-33580000D01*
X51787363Y-33585475D01*
X51802100Y-33753925D01*
X51805314Y-33790655D01*
X51818199Y-33838742D01*
X51847807Y-33949243D01*
X51860044Y-33994910D01*
X51862366Y-33999890D01*
X51862367Y-33999892D01*
X51920093Y-34123687D01*
X51949411Y-34186558D01*
X51952563Y-34191059D01*
X51952565Y-34191063D01*
X52067539Y-34355264D01*
X52067543Y-34355268D01*
X52070699Y-34359776D01*
X52220224Y-34509301D01*
X52224732Y-34512457D01*
X52224735Y-34512460D01*
X52352008Y-34601577D01*
X52393442Y-34630589D01*
X52585090Y-34719956D01*
X52789345Y-34774686D01*
X52875743Y-34782244D01*
X52918011Y-34793570D01*
X52953857Y-34818670D01*
X53397095Y-35261908D01*
X53424409Y-35302785D01*
X53434000Y-35351003D01*
X53434000Y-37360952D01*
X53421006Y-37416680D01*
X53384704Y-37460914D01*
X53332582Y-37484531D01*
X53275390Y-37482659D01*
X53215973Y-37466738D01*
X53215962Y-37466736D01*
X53210655Y-37465314D01*
X53205179Y-37464834D01*
X53205174Y-37464834D01*
X53005475Y-37447363D01*
X53000000Y-37446884D01*
X52994525Y-37447363D01*
X52794825Y-37464834D01*
X52794818Y-37464835D01*
X52789345Y-37465314D01*
X52784031Y-37466737D01*
X52784030Y-37466738D01*
X52590399Y-37518621D01*
X52590394Y-37518622D01*
X52585090Y-37520044D01*
X52580112Y-37522364D01*
X52580107Y-37522367D01*
X52398422Y-37607088D01*
X52398414Y-37607092D01*
X52393442Y-37609411D01*
X52388945Y-37612559D01*
X52388936Y-37612565D01*
X52224735Y-37727539D01*
X52224725Y-37727547D01*
X52220224Y-37730699D01*
X52216334Y-37734588D01*
X52216328Y-37734594D01*
X52074594Y-37876328D01*
X52074588Y-37876334D01*
X52070699Y-37880224D01*
X52067547Y-37884725D01*
X52067539Y-37884735D01*
X51952565Y-38048936D01*
X51952559Y-38048945D01*
X51949411Y-38053442D01*
X51947092Y-38058414D01*
X51947088Y-38058422D01*
X51862367Y-38240107D01*
X51862364Y-38240112D01*
X51860044Y-38245090D01*
X51858622Y-38250394D01*
X51858621Y-38250399D01*
X51808814Y-38436281D01*
X51805314Y-38449345D01*
X51804835Y-38454818D01*
X51804834Y-38454825D01*
X51787363Y-38654525D01*
X51786884Y-38660000D01*
X51787363Y-38665475D01*
X51803533Y-38850308D01*
X51805314Y-38870655D01*
X51860044Y-39074910D01*
X51862366Y-39079890D01*
X51862367Y-39079892D01*
X51923315Y-39210595D01*
X51934760Y-39273365D01*
X51913987Y-39333694D01*
X51866324Y-39376111D01*
X51837353Y-39390872D01*
X51837342Y-39390878D01*
X51831470Y-39393871D01*
X51826350Y-39398016D01*
X51826337Y-39398025D01*
X51820524Y-39402733D01*
X51804246Y-39413920D01*
X51797774Y-39417656D01*
X51797758Y-39417667D01*
X51792056Y-39420960D01*
X51787155Y-39425372D01*
X51787149Y-39425377D01*
X51741221Y-39466728D01*
X51736219Y-39471001D01*
X51722822Y-39481851D01*
X51722807Y-39481863D01*
X51720259Y-39483928D01*
X51717935Y-39486251D01*
X51717927Y-39486259D01*
X51705730Y-39498456D01*
X51700949Y-39502992D01*
X51655042Y-39544326D01*
X51655033Y-39544335D01*
X51650134Y-39548747D01*
X51646254Y-39554086D01*
X51646254Y-39554087D01*
X51641858Y-39560137D01*
X51629022Y-39575163D01*
X50994363Y-40209822D01*
X50979337Y-40222658D01*
X50967947Y-40230934D01*
X50963535Y-40235833D01*
X50963526Y-40235842D01*
X50922192Y-40281749D01*
X50917656Y-40286530D01*
X50905459Y-40298727D01*
X50905451Y-40298735D01*
X50903128Y-40301059D01*
X50901063Y-40303607D01*
X50901051Y-40303622D01*
X50890201Y-40317019D01*
X50885928Y-40322021D01*
X50844577Y-40367949D01*
X50844572Y-40367955D01*
X50840160Y-40372856D01*
X50836867Y-40378558D01*
X50836856Y-40378574D01*
X50833120Y-40385046D01*
X50821933Y-40401324D01*
X50817225Y-40407137D01*
X50817216Y-40407150D01*
X50813071Y-40412270D01*
X50810077Y-40418145D01*
X50810075Y-40418149D01*
X50782015Y-40473220D01*
X50778868Y-40479016D01*
X50760980Y-40510000D01*
X50744673Y-40538244D01*
X50742633Y-40544519D01*
X50742629Y-40544530D01*
X50740317Y-40551645D01*
X50732762Y-40569884D01*
X50729370Y-40576541D01*
X50729366Y-40576551D01*
X50726371Y-40582430D01*
X50724662Y-40588805D01*
X50724662Y-40588807D01*
X50708672Y-40648478D01*
X50706800Y-40654796D01*
X50687696Y-40713595D01*
X50687693Y-40713607D01*
X50685658Y-40719872D01*
X50684969Y-40726420D01*
X50684967Y-40726433D01*
X50684184Y-40733884D01*
X50680585Y-40753303D01*
X50678652Y-40760516D01*
X50678651Y-40760521D01*
X50676943Y-40766897D01*
X50676597Y-40773493D01*
X50676597Y-40773495D01*
X50673362Y-40835199D01*
X50672845Y-40841764D01*
X50670700Y-40862190D01*
X50670700Y-40865483D01*
X50670700Y-40882726D01*
X50670527Y-40889319D01*
X50666948Y-40957610D01*
X50667980Y-40964124D01*
X50669149Y-40971505D01*
X50670700Y-40991217D01*
X50670700Y-52497783D01*
X50669149Y-52517492D01*
X50666948Y-52531390D01*
X50667293Y-52537976D01*
X50667293Y-52537981D01*
X50670527Y-52599680D01*
X50670700Y-52606274D01*
X50670700Y-52626810D01*
X50671042Y-52630074D01*
X50671043Y-52630075D01*
X50672846Y-52647233D01*
X50673362Y-52653799D01*
X50676123Y-52706457D01*
X50676943Y-52722103D01*
X50678651Y-52728480D01*
X50678653Y-52728488D01*
X50680583Y-52735691D01*
X50684185Y-52755125D01*
X50684965Y-52762551D01*
X50684968Y-52762566D01*
X50685658Y-52769128D01*
X50706800Y-52834199D01*
X50708668Y-52840505D01*
X50724661Y-52900191D01*
X50724663Y-52900196D01*
X50726371Y-52906570D01*
X50729365Y-52912446D01*
X50729368Y-52912454D01*
X50732760Y-52919111D01*
X50740320Y-52937362D01*
X50744673Y-52950756D01*
X50778881Y-53010006D01*
X50782018Y-53015785D01*
X50813071Y-53076730D01*
X50817225Y-53081860D01*
X50821928Y-53087668D01*
X50833118Y-53103948D01*
X50840160Y-53116144D01*
X50879837Y-53160211D01*
X50885929Y-53166976D01*
X50890200Y-53171977D01*
X50903128Y-53187941D01*
X50905465Y-53190278D01*
X50905466Y-53190279D01*
X50917642Y-53202455D01*
X50922167Y-53207222D01*
X50967947Y-53258066D01*
X50979332Y-53266337D01*
X50994364Y-53279177D01*
X54151322Y-56436135D01*
X54176422Y-56471980D01*
X54187748Y-56514248D01*
X54205977Y-56722606D01*
X54206457Y-56728087D01*
X54265716Y-56949243D01*
X54268038Y-56954223D01*
X54268039Y-56954225D01*
X54352877Y-57136162D01*
X54362477Y-57156749D01*
X54365630Y-57161252D01*
X54365633Y-57161257D01*
X54442123Y-57270496D01*
X54493802Y-57344300D01*
X54497698Y-57348196D01*
X54497699Y-57348197D01*
X54554595Y-57405093D01*
X54581909Y-57445970D01*
X54591500Y-57494188D01*
X54591500Y-69071497D01*
X54581909Y-69119715D01*
X54554597Y-69160589D01*
X54453627Y-69261560D01*
X54379886Y-69335301D01*
X54319135Y-69368976D01*
X54249769Y-69365340D01*
X54192870Y-69325499D01*
X54165730Y-69261560D01*
X54176595Y-69192956D01*
X54234284Y-69069243D01*
X54293543Y-68848087D01*
X54313498Y-68620000D01*
X54293543Y-68391913D01*
X54234284Y-68170757D01*
X54137523Y-67963251D01*
X54006198Y-67775700D01*
X53844300Y-67613802D01*
X53749973Y-67547753D01*
X53661257Y-67485633D01*
X53661252Y-67485630D01*
X53656749Y-67482477D01*
X53608377Y-67459921D01*
X53454225Y-67388039D01*
X53454223Y-67388038D01*
X53449243Y-67385716D01*
X53228087Y-67326457D01*
X53222611Y-67325977D01*
X53222606Y-67325977D01*
X53005475Y-67306981D01*
X53000000Y-67306502D01*
X52994525Y-67306981D01*
X52777393Y-67325977D01*
X52777386Y-67325978D01*
X52771913Y-67326457D01*
X52766599Y-67327880D01*
X52766598Y-67327881D01*
X52556067Y-67384293D01*
X52556065Y-67384293D01*
X52550757Y-67385716D01*
X52545779Y-67388036D01*
X52545774Y-67388039D01*
X52348238Y-67480151D01*
X52348233Y-67480153D01*
X52343251Y-67482477D01*
X52338752Y-67485627D01*
X52338742Y-67485633D01*
X52160211Y-67610643D01*
X52160208Y-67610645D01*
X52155700Y-67613802D01*
X52151808Y-67617693D01*
X52151802Y-67617699D01*
X51997699Y-67771802D01*
X51997693Y-67771808D01*
X51993802Y-67775700D01*
X51990645Y-67780208D01*
X51990643Y-67780211D01*
X51865633Y-67958742D01*
X51865627Y-67958752D01*
X51862477Y-67963251D01*
X51860153Y-67968233D01*
X51860151Y-67968238D01*
X51768039Y-68165774D01*
X51768036Y-68165779D01*
X51765716Y-68170757D01*
X51706457Y-68391913D01*
X51705978Y-68397386D01*
X51705977Y-68397393D01*
X51694023Y-68534030D01*
X51686502Y-68620000D01*
X51686981Y-68625475D01*
X51698354Y-68755475D01*
X51706457Y-68848087D01*
X51765716Y-69069243D01*
X51768038Y-69074223D01*
X51768039Y-69074225D01*
X51810326Y-69164910D01*
X51862477Y-69276749D01*
X51865630Y-69281252D01*
X51865633Y-69281257D01*
X51914872Y-69351577D01*
X51993802Y-69464300D01*
X51997698Y-69468196D01*
X51997699Y-69468197D01*
X52054595Y-69525093D01*
X52081909Y-69565970D01*
X52091500Y-69614188D01*
X52091500Y-69658097D01*
X52081909Y-69706315D01*
X52054597Y-69747189D01*
X51183592Y-70618193D01*
X51133436Y-70648929D01*
X51074789Y-70653545D01*
X51020439Y-70631032D01*
X50982233Y-70586299D01*
X50968500Y-70529096D01*
X50968500Y-65968503D01*
X50978091Y-65920285D01*
X51005405Y-65879408D01*
X51606135Y-65278678D01*
X53584839Y-63299972D01*
X53599867Y-63287137D01*
X53611253Y-63278866D01*
X53657026Y-63228028D01*
X53661531Y-63223280D01*
X53676072Y-63208741D01*
X53689008Y-63192765D01*
X53693266Y-63187779D01*
X53739040Y-63136944D01*
X53746075Y-63124757D01*
X53757271Y-63108467D01*
X53766129Y-63097530D01*
X53797203Y-63036543D01*
X53800315Y-63030811D01*
X53834527Y-62971556D01*
X53838872Y-62958183D01*
X53846441Y-62939908D01*
X53852830Y-62927370D01*
X53870531Y-62861302D01*
X53872403Y-62854986D01*
X53891501Y-62796211D01*
X53891502Y-62796205D01*
X53893542Y-62789928D01*
X53895012Y-62775937D01*
X53898617Y-62756487D01*
X53900547Y-62749284D01*
X53900546Y-62749284D01*
X53902257Y-62742903D01*
X53905836Y-62674592D01*
X53906353Y-62668034D01*
X53906620Y-62665500D01*
X53908500Y-62647610D01*
X53908500Y-62627074D01*
X53908673Y-62620480D01*
X53911753Y-62561705D01*
X53912252Y-62552190D01*
X53910050Y-62538292D01*
X53908500Y-62518583D01*
X53908500Y-62389734D01*
X53918673Y-62340134D01*
X53947550Y-62298544D01*
X53990467Y-62271678D01*
X54000623Y-62267890D01*
X54046204Y-62250889D01*
X54163261Y-62163261D01*
X54250889Y-62046204D01*
X54301989Y-61909201D01*
X54308500Y-61848638D01*
X54308500Y-60151362D01*
X54301989Y-60090799D01*
X54250889Y-59953796D01*
X54163261Y-59836739D01*
X54146972Y-59824545D01*
X54053417Y-59754510D01*
X54053414Y-59754508D01*
X54046204Y-59749111D01*
X54037766Y-59745964D01*
X54037763Y-59745962D01*
X53916580Y-59700763D01*
X53916578Y-59700762D01*
X53909201Y-59698011D01*
X53901373Y-59697169D01*
X53901367Y-59697168D01*
X53851988Y-59691860D01*
X53851985Y-59691859D01*
X53848638Y-59691500D01*
X52151362Y-59691500D01*
X52148015Y-59691859D01*
X52148011Y-59691860D01*
X52098632Y-59697168D01*
X52098625Y-59697169D01*
X52090799Y-59698011D01*
X52083423Y-59700761D01*
X52083419Y-59700763D01*
X51962236Y-59745962D01*
X51962230Y-59745965D01*
X51953796Y-59749111D01*
X51946588Y-59754506D01*
X51946582Y-59754510D01*
X51843950Y-59831340D01*
X51843946Y-59831343D01*
X51836739Y-59836739D01*
X51831343Y-59843946D01*
X51831340Y-59843950D01*
X51754510Y-59946582D01*
X51754506Y-59946588D01*
X51749111Y-59953796D01*
X51745965Y-59962230D01*
X51745962Y-59962236D01*
X51700763Y-60083419D01*
X51700761Y-60083423D01*
X51698011Y-60090799D01*
X51697169Y-60098625D01*
X51697168Y-60098632D01*
X51693249Y-60135090D01*
X51691500Y-60151362D01*
X51691500Y-61848638D01*
X51691859Y-61851985D01*
X51691860Y-61851988D01*
X51697168Y-61901367D01*
X51697169Y-61901373D01*
X51698011Y-61909201D01*
X51700762Y-61916578D01*
X51700763Y-61916580D01*
X51745962Y-62037763D01*
X51745964Y-62037766D01*
X51749111Y-62046204D01*
X51754508Y-62053414D01*
X51754510Y-62053417D01*
X51831079Y-62155700D01*
X51836739Y-62163261D01*
X51900583Y-62211054D01*
X51943129Y-62267890D01*
X51948193Y-62338706D01*
X51914168Y-62401017D01*
X49475163Y-64840022D01*
X49460137Y-64852858D01*
X49448747Y-64861134D01*
X49444335Y-64866033D01*
X49444326Y-64866042D01*
X49402992Y-64911949D01*
X49398456Y-64916730D01*
X49386259Y-64928927D01*
X49386251Y-64928935D01*
X49383928Y-64931259D01*
X49381863Y-64933807D01*
X49381851Y-64933822D01*
X49371001Y-64947219D01*
X49366728Y-64952221D01*
X49325377Y-64998149D01*
X49325372Y-64998155D01*
X49320960Y-65003056D01*
X49317667Y-65008758D01*
X49317656Y-65008774D01*
X49313920Y-65015246D01*
X49302733Y-65031524D01*
X49298025Y-65037337D01*
X49298016Y-65037350D01*
X49293871Y-65042470D01*
X49290877Y-65048345D01*
X49290875Y-65048349D01*
X49262815Y-65103420D01*
X49259668Y-65109216D01*
X49236127Y-65149991D01*
X49225473Y-65168444D01*
X49223433Y-65174719D01*
X49223429Y-65174730D01*
X49221117Y-65181845D01*
X49213562Y-65200084D01*
X49210170Y-65206741D01*
X49210166Y-65206751D01*
X49207171Y-65212630D01*
X49205462Y-65219005D01*
X49205462Y-65219007D01*
X49189472Y-65278678D01*
X49187600Y-65284996D01*
X49168496Y-65343795D01*
X49168493Y-65343807D01*
X49166458Y-65350072D01*
X49165769Y-65356620D01*
X49165767Y-65356633D01*
X49164984Y-65364084D01*
X49161385Y-65383503D01*
X49159452Y-65390716D01*
X49159451Y-65390721D01*
X49157743Y-65397097D01*
X49157397Y-65403693D01*
X49157397Y-65403695D01*
X49154162Y-65465399D01*
X49153645Y-65471964D01*
X49151500Y-65492390D01*
X49151500Y-65495683D01*
X49151500Y-65512926D01*
X49151327Y-65519519D01*
X49147748Y-65587810D01*
X49148780Y-65594324D01*
X49149949Y-65601705D01*
X49151500Y-65621417D01*
X49151500Y-72841497D01*
X49141909Y-72889715D01*
X49114597Y-72930589D01*
X47807873Y-74237313D01*
X47373293Y-74671893D01*
X47319984Y-74703608D01*
X47258000Y-74706043D01*
X47241920Y-74702625D01*
X47229183Y-74699212D01*
X47196212Y-74688499D01*
X47196204Y-74688497D01*
X47189928Y-74686458D01*
X47183364Y-74685768D01*
X47183355Y-74685766D01*
X47148874Y-74682141D01*
X47135856Y-74680079D01*
X47101952Y-74672873D01*
X47101941Y-74672871D01*
X47095487Y-74671500D01*
X47088882Y-74671500D01*
X46008503Y-74671500D01*
X45960285Y-74661909D01*
X45919408Y-74634595D01*
X43284813Y-72000000D01*
X45786884Y-72000000D01*
X45787363Y-72005475D01*
X45804432Y-72200584D01*
X45805314Y-72210655D01*
X45811747Y-72234662D01*
X45858620Y-72409598D01*
X45860044Y-72414910D01*
X45862366Y-72419890D01*
X45862367Y-72419892D01*
X45938206Y-72582530D01*
X45949411Y-72606558D01*
X45952563Y-72611059D01*
X45952565Y-72611063D01*
X46067539Y-72775264D01*
X46067543Y-72775268D01*
X46070699Y-72779776D01*
X46220224Y-72929301D01*
X46224732Y-72932457D01*
X46224735Y-72932460D01*
X46241119Y-72943932D01*
X46393442Y-73050589D01*
X46585090Y-73139956D01*
X46789345Y-73194686D01*
X47000000Y-73213116D01*
X47210655Y-73194686D01*
X47414910Y-73139956D01*
X47606558Y-73050589D01*
X47779776Y-72929301D01*
X47929301Y-72779776D01*
X48050589Y-72606558D01*
X48139956Y-72414910D01*
X48194686Y-72210655D01*
X48213116Y-72000000D01*
X48194686Y-71789345D01*
X48139956Y-71585090D01*
X48050589Y-71393442D01*
X48047434Y-71388936D01*
X47932460Y-71224735D01*
X47932457Y-71224732D01*
X47929301Y-71220224D01*
X47779776Y-71070699D01*
X47775268Y-71067543D01*
X47775264Y-71067539D01*
X47611063Y-70952565D01*
X47611059Y-70952563D01*
X47606558Y-70949411D01*
X47601579Y-70947089D01*
X47601577Y-70947088D01*
X47419892Y-70862367D01*
X47419890Y-70862366D01*
X47414910Y-70860044D01*
X47409601Y-70858621D01*
X47409600Y-70858621D01*
X47215969Y-70806738D01*
X47215970Y-70806738D01*
X47210655Y-70805314D01*
X47205179Y-70804834D01*
X47205174Y-70804834D01*
X47005475Y-70787363D01*
X47000000Y-70786884D01*
X46994525Y-70787363D01*
X46794825Y-70804834D01*
X46794818Y-70804835D01*
X46789345Y-70805314D01*
X46784031Y-70806737D01*
X46784030Y-70806738D01*
X46590399Y-70858621D01*
X46590394Y-70858622D01*
X46585090Y-70860044D01*
X46580112Y-70862364D01*
X46580107Y-70862367D01*
X46398422Y-70947088D01*
X46398414Y-70947092D01*
X46393442Y-70949411D01*
X46388945Y-70952559D01*
X46388936Y-70952565D01*
X46224735Y-71067539D01*
X46224725Y-71067547D01*
X46220224Y-71070699D01*
X46216334Y-71074588D01*
X46216328Y-71074594D01*
X46074594Y-71216328D01*
X46074588Y-71216334D01*
X46070699Y-71220224D01*
X46067547Y-71224725D01*
X46067539Y-71224735D01*
X45952565Y-71388936D01*
X45952559Y-71388945D01*
X45949411Y-71393442D01*
X45947092Y-71398414D01*
X45947088Y-71398422D01*
X45862367Y-71580107D01*
X45862364Y-71580112D01*
X45860044Y-71585090D01*
X45858622Y-71590394D01*
X45858621Y-71590399D01*
X45826067Y-71711892D01*
X45805314Y-71789345D01*
X45804835Y-71794818D01*
X45804834Y-71794825D01*
X45787363Y-71994525D01*
X45786884Y-72000000D01*
X43284813Y-72000000D01*
X41161642Y-69876829D01*
X41128029Y-69816346D01*
X41131424Y-69747233D01*
X41136465Y-69732382D01*
X41186224Y-69585797D01*
X41243983Y-69295426D01*
X41263346Y-69000000D01*
X41243983Y-68704574D01*
X41186224Y-68414203D01*
X41091059Y-68133855D01*
X40960115Y-67868327D01*
X40795633Y-67622162D01*
X40600427Y-67399573D01*
X40377838Y-67204367D01*
X40131673Y-67039885D01*
X40127973Y-67038060D01*
X40127969Y-67038058D01*
X39869843Y-66910764D01*
X39869834Y-66910760D01*
X39866145Y-66908941D01*
X39862239Y-66907615D01*
X39589710Y-66815104D01*
X39589706Y-66815102D01*
X39585797Y-66813776D01*
X39581752Y-66812971D01*
X39581747Y-66812970D01*
X39299465Y-66756820D01*
X39299458Y-66756819D01*
X39295426Y-66756017D01*
X39291319Y-66755747D01*
X39291313Y-66755747D01*
X39004119Y-66736924D01*
X39000000Y-66736654D01*
X38995881Y-66736924D01*
X38708686Y-66755747D01*
X38708678Y-66755747D01*
X38704574Y-66756017D01*
X38700543Y-66756818D01*
X38700534Y-66756820D01*
X38418252Y-66812970D01*
X38418243Y-66812972D01*
X38414203Y-66813776D01*
X38410297Y-66815101D01*
X38410289Y-66815104D01*
X38137760Y-66907615D01*
X38137754Y-66907617D01*
X38133855Y-66908941D01*
X38130170Y-66910757D01*
X38130156Y-66910764D01*
X37872030Y-67038058D01*
X37872019Y-67038064D01*
X37868327Y-67039885D01*
X37864898Y-67042175D01*
X37864893Y-67042179D01*
X37625593Y-67202074D01*
X37625588Y-67202077D01*
X37622162Y-67204367D01*
X37619067Y-67207080D01*
X37619062Y-67207085D01*
X37402661Y-67396864D01*
X37402653Y-67396871D01*
X37399573Y-67399573D01*
X37396871Y-67402653D01*
X37396864Y-67402661D01*
X37207085Y-67619062D01*
X37207080Y-67619067D01*
X37204367Y-67622162D01*
X37202077Y-67625588D01*
X37202074Y-67625593D01*
X37042179Y-67864893D01*
X37042175Y-67864898D01*
X37039885Y-67868327D01*
X37038064Y-67872019D01*
X37038058Y-67872030D01*
X36910764Y-68130156D01*
X36910757Y-68130170D01*
X36908941Y-68133855D01*
X36907617Y-68137754D01*
X36907615Y-68137760D01*
X36815104Y-68410289D01*
X36815101Y-68410297D01*
X36813776Y-68414203D01*
X36812972Y-68418243D01*
X36812970Y-68418252D01*
X36756820Y-68700534D01*
X36756818Y-68700543D01*
X36756017Y-68704574D01*
X36755747Y-68708678D01*
X36755747Y-68708686D01*
X36746970Y-68842606D01*
X36736654Y-69000000D01*
X35025500Y-69000000D01*
X35025500Y-55000000D01*
X36236654Y-55000000D01*
X36236924Y-55004119D01*
X36253039Y-55250000D01*
X36256017Y-55295426D01*
X36256819Y-55299458D01*
X36256820Y-55299465D01*
X36310917Y-55571426D01*
X36313776Y-55585797D01*
X36315102Y-55589706D01*
X36315104Y-55589710D01*
X36325333Y-55619843D01*
X36408941Y-55866145D01*
X36410760Y-55869834D01*
X36410764Y-55869843D01*
X36538058Y-56127969D01*
X36539885Y-56131673D01*
X36704367Y-56377838D01*
X36899573Y-56600427D01*
X37122162Y-56795633D01*
X37368327Y-56960115D01*
X37521229Y-57035518D01*
X37572500Y-57081988D01*
X37591500Y-57148524D01*
X37591500Y-58318583D01*
X37589949Y-58338292D01*
X37587748Y-58352190D01*
X37588093Y-58358776D01*
X37588093Y-58358781D01*
X37591327Y-58420480D01*
X37591500Y-58427074D01*
X37591500Y-58447610D01*
X37592933Y-58461253D01*
X37593646Y-58468033D01*
X37594162Y-58474599D01*
X37596969Y-58528146D01*
X37597743Y-58542903D01*
X37599451Y-58549280D01*
X37599453Y-58549288D01*
X37601383Y-58556491D01*
X37604985Y-58575925D01*
X37605765Y-58583351D01*
X37605768Y-58583366D01*
X37606458Y-58589928D01*
X37627600Y-58654999D01*
X37629468Y-58661305D01*
X37645461Y-58720991D01*
X37645463Y-58720996D01*
X37647171Y-58727370D01*
X37650165Y-58733246D01*
X37650168Y-58733254D01*
X37653560Y-58739911D01*
X37661118Y-58758155D01*
X37665473Y-58771556D01*
X37699681Y-58830806D01*
X37702818Y-58836585D01*
X37733871Y-58897530D01*
X37738025Y-58902660D01*
X37742728Y-58908468D01*
X37753918Y-58924748D01*
X37760960Y-58936944D01*
X37765375Y-58941848D01*
X37765377Y-58941850D01*
X37771913Y-58949109D01*
X37794880Y-58974617D01*
X37806729Y-58987776D01*
X37811000Y-58992777D01*
X37823928Y-59008741D01*
X37826266Y-59011079D01*
X37838442Y-59023255D01*
X37842967Y-59028022D01*
X37888747Y-59078866D01*
X37900132Y-59087137D01*
X37915164Y-59099977D01*
X46054595Y-67239408D01*
X46081909Y-67280285D01*
X46091500Y-67328503D01*
X46091500Y-67505812D01*
X46081909Y-67554030D01*
X46054595Y-67594907D01*
X45997699Y-67651802D01*
X45997693Y-67651808D01*
X45993802Y-67655700D01*
X45990645Y-67660208D01*
X45990643Y-67660211D01*
X45865633Y-67838742D01*
X45865627Y-67838752D01*
X45862477Y-67843251D01*
X45860153Y-67848233D01*
X45860151Y-67848238D01*
X45768039Y-68045774D01*
X45768036Y-68045779D01*
X45765716Y-68050757D01*
X45764293Y-68056065D01*
X45764293Y-68056067D01*
X45734897Y-68165774D01*
X45706457Y-68271913D01*
X45705978Y-68277386D01*
X45705977Y-68277393D01*
X45694008Y-68414203D01*
X45686502Y-68500000D01*
X45686981Y-68505475D01*
X45704759Y-68708686D01*
X45706457Y-68728087D01*
X45765716Y-68949243D01*
X45768038Y-68954223D01*
X45768039Y-68954225D01*
X45822724Y-69071497D01*
X45862477Y-69156749D01*
X45865630Y-69161252D01*
X45865633Y-69161257D01*
X45935867Y-69261560D01*
X45993802Y-69344300D01*
X46155700Y-69506198D01*
X46343251Y-69637523D01*
X46550757Y-69734284D01*
X46771913Y-69793543D01*
X47000000Y-69813498D01*
X47228087Y-69793543D01*
X47449243Y-69734284D01*
X47656749Y-69637523D01*
X47844300Y-69506198D01*
X48006198Y-69344300D01*
X48137523Y-69156749D01*
X48234284Y-68949243D01*
X48293543Y-68728087D01*
X48313498Y-68500000D01*
X48293543Y-68271913D01*
X48234284Y-68050757D01*
X48137523Y-67843251D01*
X48006198Y-67655700D01*
X47945405Y-67594907D01*
X47918091Y-67554030D01*
X47908500Y-67505812D01*
X47908500Y-66981416D01*
X47910051Y-66961704D01*
X47912252Y-66947809D01*
X47908672Y-66879518D01*
X47908500Y-66872925D01*
X47908500Y-66855680D01*
X47908500Y-66852390D01*
X47906352Y-66831963D01*
X47905836Y-66825404D01*
X47902257Y-66757096D01*
X47898615Y-66743508D01*
X47895012Y-66724061D01*
X47894232Y-66716642D01*
X47893542Y-66710072D01*
X47872400Y-66645005D01*
X47870529Y-66638688D01*
X47854537Y-66579005D01*
X47852829Y-66572630D01*
X47846439Y-66560089D01*
X47838875Y-66541827D01*
X47834527Y-66528444D01*
X47800327Y-66469209D01*
X47797178Y-66463409D01*
X47766129Y-66402470D01*
X47757272Y-66391532D01*
X47746074Y-66375239D01*
X47742341Y-66368774D01*
X47739040Y-66363056D01*
X47693264Y-66312216D01*
X47688999Y-66307222D01*
X47676072Y-66291259D01*
X47661556Y-66276743D01*
X47657015Y-66271958D01*
X47629956Y-66241906D01*
X47611253Y-66221134D01*
X47599865Y-66212860D01*
X47584832Y-66200019D01*
X39445405Y-58060592D01*
X39418091Y-58019715D01*
X39408500Y-57971497D01*
X39408500Y-57148524D01*
X39427500Y-57081988D01*
X39478771Y-57035518D01*
X39631673Y-56960115D01*
X39877838Y-56795633D01*
X40100427Y-56600427D01*
X40295633Y-56377838D01*
X40460115Y-56131673D01*
X40591059Y-55866145D01*
X40686224Y-55585797D01*
X40743983Y-55295426D01*
X40763346Y-55000000D01*
X40743983Y-54704574D01*
X40686224Y-54414203D01*
X40591059Y-54133855D01*
X40460115Y-53868327D01*
X40295633Y-53622162D01*
X40100427Y-53399573D01*
X40091619Y-53391849D01*
X40041891Y-53348238D01*
X39877838Y-53204367D01*
X39631673Y-53039885D01*
X39627973Y-53038060D01*
X39627969Y-53038058D01*
X39369843Y-52910764D01*
X39369834Y-52910760D01*
X39366145Y-52908941D01*
X39362239Y-52907615D01*
X39089710Y-52815104D01*
X39089706Y-52815102D01*
X39085797Y-52813776D01*
X39081752Y-52812971D01*
X39081747Y-52812970D01*
X38799465Y-52756820D01*
X38799458Y-52756819D01*
X38795426Y-52756017D01*
X38791319Y-52755747D01*
X38791313Y-52755747D01*
X38504119Y-52736924D01*
X38500000Y-52736654D01*
X38495881Y-52736924D01*
X38208686Y-52755747D01*
X38208678Y-52755747D01*
X38204574Y-52756017D01*
X38200543Y-52756818D01*
X38200534Y-52756820D01*
X37918252Y-52812970D01*
X37918243Y-52812972D01*
X37914203Y-52813776D01*
X37910297Y-52815101D01*
X37910289Y-52815104D01*
X37637760Y-52907615D01*
X37637754Y-52907617D01*
X37633855Y-52908941D01*
X37630170Y-52910757D01*
X37630156Y-52910764D01*
X37372030Y-53038058D01*
X37372019Y-53038064D01*
X37368327Y-53039885D01*
X37364898Y-53042175D01*
X37364893Y-53042179D01*
X37125593Y-53202074D01*
X37125588Y-53202077D01*
X37122162Y-53204367D01*
X37119067Y-53207080D01*
X37119062Y-53207085D01*
X36902661Y-53396864D01*
X36902653Y-53396871D01*
X36899573Y-53399573D01*
X36896871Y-53402653D01*
X36896864Y-53402661D01*
X36707085Y-53619062D01*
X36707080Y-53619067D01*
X36704367Y-53622162D01*
X36702077Y-53625588D01*
X36702074Y-53625593D01*
X36542179Y-53864893D01*
X36542175Y-53864898D01*
X36539885Y-53868327D01*
X36538064Y-53872019D01*
X36538058Y-53872030D01*
X36410764Y-54130156D01*
X36410757Y-54130170D01*
X36408941Y-54133855D01*
X36407617Y-54137754D01*
X36407615Y-54137760D01*
X36315104Y-54410289D01*
X36315101Y-54410297D01*
X36313776Y-54414203D01*
X36312972Y-54418243D01*
X36312970Y-54418252D01*
X36256820Y-54700534D01*
X36256818Y-54700543D01*
X36256017Y-54704574D01*
X36255747Y-54708678D01*
X36255747Y-54708686D01*
X36248718Y-54815935D01*
X36236654Y-55000000D01*
X35025500Y-55000000D01*
X35025500Y-41750000D01*
X35986654Y-41750000D01*
X35986924Y-41754119D01*
X35997462Y-41914910D01*
X36006017Y-42045426D01*
X36006819Y-42049458D01*
X36006820Y-42049465D01*
X36053407Y-42283671D01*
X36063776Y-42335797D01*
X36065102Y-42339706D01*
X36065104Y-42339710D01*
X36118661Y-42497484D01*
X36158941Y-42616145D01*
X36160760Y-42619834D01*
X36160764Y-42619843D01*
X36288058Y-42877969D01*
X36289885Y-42881673D01*
X36454367Y-43127838D01*
X36649573Y-43350427D01*
X36872162Y-43545633D01*
X37118327Y-43710115D01*
X37383855Y-43841059D01*
X37664203Y-43936224D01*
X37954574Y-43993983D01*
X38250000Y-44013346D01*
X38545426Y-43993983D01*
X38835797Y-43936224D01*
X39116145Y-43841059D01*
X39381673Y-43710115D01*
X39627838Y-43545633D01*
X39850427Y-43350427D01*
X40045633Y-43127838D01*
X40210115Y-42881673D01*
X40253473Y-42793750D01*
X40291418Y-42748277D01*
X40345951Y-42725163D01*
X40405020Y-42729520D01*
X40455572Y-42760385D01*
X46054595Y-48359408D01*
X46081909Y-48400285D01*
X46091500Y-48448503D01*
X46091500Y-48625812D01*
X46081909Y-48674030D01*
X46054595Y-48714907D01*
X45997699Y-48771802D01*
X45997693Y-48771808D01*
X45993802Y-48775700D01*
X45990645Y-48780208D01*
X45990643Y-48780211D01*
X45865633Y-48958742D01*
X45865627Y-48958752D01*
X45862477Y-48963251D01*
X45860153Y-48968233D01*
X45860151Y-48968238D01*
X45768039Y-49165774D01*
X45768036Y-49165779D01*
X45765716Y-49170757D01*
X45764293Y-49176065D01*
X45764293Y-49176067D01*
X45722717Y-49331230D01*
X45706457Y-49391913D01*
X45705978Y-49397386D01*
X45705977Y-49397393D01*
X45694936Y-49523595D01*
X45686502Y-49620000D01*
X45706457Y-49848087D01*
X45765716Y-50069243D01*
X45768038Y-50074223D01*
X45768039Y-50074225D01*
X45832394Y-50212236D01*
X45862477Y-50276749D01*
X45865630Y-50281252D01*
X45865633Y-50281257D01*
X45924714Y-50365633D01*
X45993802Y-50464300D01*
X45997698Y-50468196D01*
X45997699Y-50468197D01*
X46054595Y-50525093D01*
X46081909Y-50565970D01*
X46091500Y-50614188D01*
X46091500Y-59490266D01*
X46081327Y-59539866D01*
X46052450Y-59581456D01*
X46009533Y-59608322D01*
X45962236Y-59625962D01*
X45962230Y-59625965D01*
X45953796Y-59629111D01*
X45946588Y-59634506D01*
X45946582Y-59634510D01*
X45843950Y-59711340D01*
X45843946Y-59711343D01*
X45836739Y-59716739D01*
X45831343Y-59723946D01*
X45831340Y-59723950D01*
X45754510Y-59826582D01*
X45754506Y-59826588D01*
X45749111Y-59833796D01*
X45745965Y-59842230D01*
X45745962Y-59842236D01*
X45700763Y-59963419D01*
X45700761Y-59963423D01*
X45698011Y-59970799D01*
X45697169Y-59978625D01*
X45697168Y-59978632D01*
X45691860Y-60028011D01*
X45691500Y-60031362D01*
X45691500Y-61728638D01*
X45691859Y-61731985D01*
X45691860Y-61731988D01*
X45697168Y-61781367D01*
X45697169Y-61781373D01*
X45698011Y-61789201D01*
X45700762Y-61796578D01*
X45700763Y-61796580D01*
X45745962Y-61917763D01*
X45745964Y-61917766D01*
X45749111Y-61926204D01*
X45754508Y-61933414D01*
X45754510Y-61933417D01*
X45806203Y-62002470D01*
X45836739Y-62043261D01*
X45843950Y-62048659D01*
X45942888Y-62122724D01*
X45953796Y-62130889D01*
X46090799Y-62181989D01*
X46151362Y-62188500D01*
X47845269Y-62188500D01*
X47848638Y-62188500D01*
X47909201Y-62181989D01*
X48046204Y-62130889D01*
X48163261Y-62043261D01*
X48250889Y-61926204D01*
X48301989Y-61789201D01*
X48308500Y-61728638D01*
X48308500Y-60031362D01*
X48301989Y-59970799D01*
X48250889Y-59833796D01*
X48163261Y-59716739D01*
X48141920Y-59700763D01*
X48053417Y-59634510D01*
X48053414Y-59634508D01*
X48046204Y-59629111D01*
X48037766Y-59625964D01*
X48037763Y-59625962D01*
X47990467Y-59608322D01*
X47947550Y-59581456D01*
X47918673Y-59539866D01*
X47908500Y-59490266D01*
X47908500Y-50614188D01*
X47918091Y-50565970D01*
X47945405Y-50525093D01*
X47972799Y-50497699D01*
X48006198Y-50464300D01*
X48137523Y-50276749D01*
X48234284Y-50069243D01*
X48293543Y-49848087D01*
X48313498Y-49620000D01*
X48293543Y-49391913D01*
X48234284Y-49170757D01*
X48137523Y-48963251D01*
X48006198Y-48775700D01*
X47945405Y-48714907D01*
X47918091Y-48674030D01*
X47908500Y-48625812D01*
X47908500Y-48101417D01*
X47910051Y-48081705D01*
X47910097Y-48081417D01*
X47912252Y-48067810D01*
X47908672Y-47999519D01*
X47908500Y-47992926D01*
X47908500Y-47975680D01*
X47908500Y-47972390D01*
X47906353Y-47951962D01*
X47905836Y-47945403D01*
X47902257Y-47877097D01*
X47898615Y-47863509D01*
X47895013Y-47844073D01*
X47893542Y-47830072D01*
X47872405Y-47765021D01*
X47870531Y-47758694D01*
X47866866Y-47745015D01*
X47852830Y-47692630D01*
X47846440Y-47680089D01*
X47838873Y-47661822D01*
X47834527Y-47648444D01*
X47800326Y-47589207D01*
X47797195Y-47583441D01*
X47766129Y-47522470D01*
X47757272Y-47511532D01*
X47746074Y-47495239D01*
X47742341Y-47488774D01*
X47739040Y-47483056D01*
X47693264Y-47432216D01*
X47688999Y-47427222D01*
X47676072Y-47411259D01*
X47661556Y-47396743D01*
X47657015Y-47391958D01*
X47615672Y-47346042D01*
X47611253Y-47341134D01*
X47599865Y-47332860D01*
X47584832Y-47320019D01*
X43113451Y-42848638D01*
X45691500Y-42848638D01*
X45691859Y-42851985D01*
X45691860Y-42851988D01*
X45697168Y-42901367D01*
X45697169Y-42901373D01*
X45698011Y-42909201D01*
X45700762Y-42916578D01*
X45700763Y-42916580D01*
X45745962Y-43037763D01*
X45745964Y-43037766D01*
X45749111Y-43046204D01*
X45754508Y-43053414D01*
X45754510Y-43053417D01*
X45827754Y-43151259D01*
X45836739Y-43163261D01*
X45867098Y-43185988D01*
X45941754Y-43241875D01*
X45953796Y-43250889D01*
X46090799Y-43301989D01*
X46151362Y-43308500D01*
X47845269Y-43308500D01*
X47848638Y-43308500D01*
X47909201Y-43301989D01*
X48046204Y-43250889D01*
X48163261Y-43163261D01*
X48250889Y-43046204D01*
X48301989Y-42909201D01*
X48308500Y-42848638D01*
X48308500Y-41151362D01*
X48301989Y-41090799D01*
X48250889Y-40953796D01*
X48209436Y-40898422D01*
X48168659Y-40843950D01*
X48163261Y-40836739D01*
X48114722Y-40800403D01*
X48053417Y-40754510D01*
X48053414Y-40754508D01*
X48046204Y-40749111D01*
X48037766Y-40745964D01*
X48037763Y-40745962D01*
X47916580Y-40700763D01*
X47916578Y-40700762D01*
X47909201Y-40698011D01*
X47901373Y-40697169D01*
X47901367Y-40697168D01*
X47851988Y-40691860D01*
X47851985Y-40691859D01*
X47848638Y-40691500D01*
X46151362Y-40691500D01*
X46148015Y-40691859D01*
X46148011Y-40691860D01*
X46098632Y-40697168D01*
X46098625Y-40697169D01*
X46090799Y-40698011D01*
X46083423Y-40700761D01*
X46083419Y-40700763D01*
X45962236Y-40745962D01*
X45962230Y-40745965D01*
X45953796Y-40749111D01*
X45946588Y-40754506D01*
X45946582Y-40754510D01*
X45843950Y-40831340D01*
X45843946Y-40831343D01*
X45836739Y-40836739D01*
X45831343Y-40843946D01*
X45831340Y-40843950D01*
X45754510Y-40946582D01*
X45754506Y-40946588D01*
X45749111Y-40953796D01*
X45745965Y-40962230D01*
X45745962Y-40962236D01*
X45700763Y-41083419D01*
X45700761Y-41083423D01*
X45698011Y-41090799D01*
X45697169Y-41098625D01*
X45697168Y-41098632D01*
X45691860Y-41148011D01*
X45691500Y-41151362D01*
X45691500Y-42848638D01*
X43113451Y-42848638D01*
X40863907Y-40599094D01*
X40831295Y-40542610D01*
X40831295Y-40477388D01*
X40863904Y-40420908D01*
X42704812Y-38580000D01*
X45786884Y-38580000D01*
X45805314Y-38790655D01*
X45806738Y-38795969D01*
X45847807Y-38949243D01*
X45860044Y-38994910D01*
X45862366Y-38999890D01*
X45862367Y-38999892D01*
X45897348Y-39074910D01*
X45949411Y-39186558D01*
X45952563Y-39191059D01*
X45952565Y-39191063D01*
X46067539Y-39355264D01*
X46067543Y-39355268D01*
X46070699Y-39359776D01*
X46220224Y-39509301D01*
X46224732Y-39512457D01*
X46224735Y-39512460D01*
X46299919Y-39565104D01*
X46393442Y-39630589D01*
X46585090Y-39719956D01*
X46789345Y-39774686D01*
X47000000Y-39793116D01*
X47210655Y-39774686D01*
X47414910Y-39719956D01*
X47606558Y-39630589D01*
X47779776Y-39509301D01*
X47929301Y-39359776D01*
X48050589Y-39186558D01*
X48139956Y-38994910D01*
X48194686Y-38790655D01*
X48213116Y-38580000D01*
X48194686Y-38369345D01*
X48139956Y-38165090D01*
X48050589Y-37973442D01*
X48047434Y-37968936D01*
X47932460Y-37804735D01*
X47932457Y-37804732D01*
X47929301Y-37800224D01*
X47779776Y-37650699D01*
X47775268Y-37647543D01*
X47775264Y-37647539D01*
X47611063Y-37532565D01*
X47611059Y-37532563D01*
X47606558Y-37529411D01*
X47601579Y-37527089D01*
X47601577Y-37527088D01*
X47419892Y-37442367D01*
X47419890Y-37442366D01*
X47414910Y-37440044D01*
X47409601Y-37438621D01*
X47409600Y-37438621D01*
X47215969Y-37386738D01*
X47215970Y-37386738D01*
X47210655Y-37385314D01*
X47205179Y-37384834D01*
X47205174Y-37384834D01*
X47005475Y-37367363D01*
X47000000Y-37366884D01*
X46994525Y-37367363D01*
X46794825Y-37384834D01*
X46794818Y-37384835D01*
X46789345Y-37385314D01*
X46784031Y-37386737D01*
X46784030Y-37386738D01*
X46590399Y-37438621D01*
X46590394Y-37438622D01*
X46585090Y-37440044D01*
X46580112Y-37442364D01*
X46580107Y-37442367D01*
X46398422Y-37527088D01*
X46398414Y-37527092D01*
X46393442Y-37529411D01*
X46388945Y-37532559D01*
X46388936Y-37532565D01*
X46224735Y-37647539D01*
X46224725Y-37647547D01*
X46220224Y-37650699D01*
X46216334Y-37654588D01*
X46216328Y-37654594D01*
X46074594Y-37796328D01*
X46074588Y-37796334D01*
X46070699Y-37800224D01*
X46067547Y-37804725D01*
X46067539Y-37804735D01*
X45952565Y-37968936D01*
X45952559Y-37968945D01*
X45949411Y-37973442D01*
X45947092Y-37978414D01*
X45947088Y-37978422D01*
X45862367Y-38160107D01*
X45862364Y-38160112D01*
X45860044Y-38165090D01*
X45858622Y-38170394D01*
X45858621Y-38170399D01*
X45816517Y-38327533D01*
X45805314Y-38369345D01*
X45804835Y-38374818D01*
X45804834Y-38374825D01*
X45791432Y-38528017D01*
X45786884Y-38580000D01*
X42704812Y-38580000D01*
X46084839Y-35199972D01*
X46099867Y-35187137D01*
X46111253Y-35178866D01*
X46157026Y-35128028D01*
X46161531Y-35123280D01*
X46176072Y-35108741D01*
X46189008Y-35092765D01*
X46193266Y-35087779D01*
X46239040Y-35036944D01*
X46246075Y-35024757D01*
X46257271Y-35008467D01*
X46266129Y-34997530D01*
X46297203Y-34936543D01*
X46300315Y-34930811D01*
X46334527Y-34871556D01*
X46338872Y-34858183D01*
X46346441Y-34839908D01*
X46352830Y-34827370D01*
X46370531Y-34761302D01*
X46372402Y-34754987D01*
X46375140Y-34746561D01*
X46388837Y-34704407D01*
X46428241Y-34646354D01*
X46492587Y-34618377D01*
X46561920Y-34629152D01*
X46569982Y-34632911D01*
X46585090Y-34639956D01*
X46789345Y-34694686D01*
X47000000Y-34713116D01*
X47210655Y-34694686D01*
X47414910Y-34639956D01*
X47606558Y-34550589D01*
X47779776Y-34429301D01*
X47929301Y-34279776D01*
X48050589Y-34106558D01*
X48139956Y-33914910D01*
X48194686Y-33710655D01*
X48213116Y-33500000D01*
X48194686Y-33289345D01*
X48139956Y-33085090D01*
X48050589Y-32893442D01*
X48026207Y-32858621D01*
X47932460Y-32724735D01*
X47932457Y-32724732D01*
X47929301Y-32720224D01*
X47779776Y-32570699D01*
X47775268Y-32567543D01*
X47775264Y-32567539D01*
X47611063Y-32452565D01*
X47611059Y-32452563D01*
X47606558Y-32449411D01*
X47601579Y-32447089D01*
X47601577Y-32447088D01*
X47419892Y-32362367D01*
X47419890Y-32362366D01*
X47414910Y-32360044D01*
X47409601Y-32358621D01*
X47409600Y-32358621D01*
X47215969Y-32306738D01*
X47215970Y-32306738D01*
X47210655Y-32305314D01*
X47205179Y-32304834D01*
X47205174Y-32304834D01*
X47005475Y-32287363D01*
X47000000Y-32286884D01*
X46994525Y-32287363D01*
X46794825Y-32304834D01*
X46794818Y-32304835D01*
X46789345Y-32305314D01*
X46784031Y-32306737D01*
X46784030Y-32306738D01*
X46590399Y-32358621D01*
X46590394Y-32358622D01*
X46585090Y-32360044D01*
X46580112Y-32362364D01*
X46580107Y-32362367D01*
X46398422Y-32447088D01*
X46398414Y-32447092D01*
X46393442Y-32449411D01*
X46388945Y-32452559D01*
X46388936Y-32452565D01*
X46223060Y-32568713D01*
X46188679Y-32585668D01*
X46150790Y-32591500D01*
X45595487Y-32591500D01*
X45404513Y-32591500D01*
X45398059Y-32592871D01*
X45398056Y-32592872D01*
X45364143Y-32600080D01*
X45351125Y-32602141D01*
X45316646Y-32605766D01*
X45316637Y-32605767D01*
X45310072Y-32606458D01*
X45303798Y-32608496D01*
X45303786Y-32608499D01*
X45270817Y-32619212D01*
X45258080Y-32622625D01*
X45224168Y-32629833D01*
X45224161Y-32629834D01*
X45217712Y-32631206D01*
X45211690Y-32633887D01*
X45211678Y-32633891D01*
X45180004Y-32647993D01*
X45167699Y-32652717D01*
X45134726Y-32663431D01*
X45134719Y-32663433D01*
X45128444Y-32665473D01*
X45122724Y-32668775D01*
X45122718Y-32668778D01*
X45092705Y-32686105D01*
X45080961Y-32692089D01*
X45049285Y-32706193D01*
X45049276Y-32706197D01*
X45043248Y-32708882D01*
X45037913Y-32712757D01*
X45037904Y-32712763D01*
X45009849Y-32733145D01*
X44998799Y-32740321D01*
X44968773Y-32757658D01*
X44968765Y-32757663D01*
X44963056Y-32760960D01*
X44958155Y-32765372D01*
X44958149Y-32765377D01*
X44932383Y-32788576D01*
X44922143Y-32796869D01*
X44894083Y-32817257D01*
X44888747Y-32821134D01*
X44884337Y-32826031D01*
X44884330Y-32826038D01*
X44861129Y-32851806D01*
X44851806Y-32861129D01*
X44826038Y-32884330D01*
X44826031Y-32884337D01*
X44821134Y-32888747D01*
X44817257Y-32894082D01*
X44817257Y-32894083D01*
X44796869Y-32922143D01*
X44788576Y-32932383D01*
X44765377Y-32958149D01*
X44765372Y-32958155D01*
X44760960Y-32963056D01*
X44757663Y-32968765D01*
X44757658Y-32968773D01*
X44740321Y-32998799D01*
X44733145Y-33009849D01*
X44712763Y-33037904D01*
X44712757Y-33037913D01*
X44708882Y-33043248D01*
X44706197Y-33049276D01*
X44706193Y-33049285D01*
X44692089Y-33080961D01*
X44686105Y-33092705D01*
X44668778Y-33122718D01*
X44668775Y-33122724D01*
X44665473Y-33128444D01*
X44663433Y-33134719D01*
X44663431Y-33134726D01*
X44652717Y-33167699D01*
X44647993Y-33180004D01*
X44633891Y-33211678D01*
X44633887Y-33211690D01*
X44631206Y-33217712D01*
X44629834Y-33224161D01*
X44629833Y-33224168D01*
X44622625Y-33258080D01*
X44619212Y-33270817D01*
X44608499Y-33303786D01*
X44608496Y-33303798D01*
X44606458Y-33310072D01*
X44605767Y-33316637D01*
X44605766Y-33316646D01*
X44602141Y-33351125D01*
X44600080Y-33364143D01*
X44594811Y-33388936D01*
X44591500Y-33404513D01*
X44591500Y-33411118D01*
X44591500Y-34071497D01*
X44581909Y-34119715D01*
X44554595Y-34160592D01*
X39126828Y-39588357D01*
X39066345Y-39621970D01*
X38997232Y-39618575D01*
X38839710Y-39565104D01*
X38839706Y-39565103D01*
X38835797Y-39563776D01*
X38831752Y-39562971D01*
X38831747Y-39562970D01*
X38549465Y-39506820D01*
X38549458Y-39506819D01*
X38545426Y-39506017D01*
X38541319Y-39505747D01*
X38541313Y-39505747D01*
X38254119Y-39486924D01*
X38250000Y-39486654D01*
X38245881Y-39486924D01*
X37958686Y-39505747D01*
X37958678Y-39505747D01*
X37954574Y-39506017D01*
X37950543Y-39506818D01*
X37950534Y-39506820D01*
X37668252Y-39562970D01*
X37668243Y-39562972D01*
X37664203Y-39563776D01*
X37660297Y-39565101D01*
X37660289Y-39565104D01*
X37387760Y-39657615D01*
X37387754Y-39657617D01*
X37383855Y-39658941D01*
X37380170Y-39660757D01*
X37380156Y-39660764D01*
X37122030Y-39788058D01*
X37122019Y-39788064D01*
X37118327Y-39789885D01*
X37114898Y-39792175D01*
X37114893Y-39792179D01*
X36875593Y-39952074D01*
X36875588Y-39952077D01*
X36872162Y-39954367D01*
X36869067Y-39957080D01*
X36869062Y-39957085D01*
X36652661Y-40146864D01*
X36652653Y-40146871D01*
X36649573Y-40149573D01*
X36646871Y-40152653D01*
X36646864Y-40152661D01*
X36457085Y-40369062D01*
X36457080Y-40369067D01*
X36454367Y-40372162D01*
X36452077Y-40375588D01*
X36452074Y-40375593D01*
X36292179Y-40614893D01*
X36292175Y-40614898D01*
X36289885Y-40618327D01*
X36288064Y-40622019D01*
X36288058Y-40622030D01*
X36160764Y-40880156D01*
X36160757Y-40880170D01*
X36158941Y-40883855D01*
X36157617Y-40887754D01*
X36157615Y-40887760D01*
X36065104Y-41160289D01*
X36065101Y-41160297D01*
X36063776Y-41164203D01*
X36062972Y-41168243D01*
X36062970Y-41168252D01*
X36006820Y-41450534D01*
X36006818Y-41450543D01*
X36006017Y-41454574D01*
X36005747Y-41458678D01*
X36005747Y-41458686D01*
X35989592Y-41705174D01*
X35986654Y-41750000D01*
X35025500Y-41750000D01*
X35025500Y-31151500D01*
X35042381Y-31088500D01*
X35088500Y-31042381D01*
X35151500Y-31025500D01*
X134848500Y-31025500D01*
X134911500Y-31042381D01*
G37*
%TD.AperFunction*%
%TD*%
M02*
