%TF.GenerationSoftware,KiCad,Pcbnew,7.0.0-da2b9df05c~171~ubuntu22.04.1*%
%TF.CreationDate,2023-03-13T14:35:53+01:00*%
%TF.ProjectId,tht-dip,7468742d-6469-4702-9e6b-696361645f70,rev?*%
%TF.SameCoordinates,Original*%
%TF.FileFunction,Legend,Top*%
%TF.FilePolarity,Positive*%
%FSLAX46Y46*%
G04 Gerber Fmt 4.6, Leading zero omitted, Abs format (unit mm)*
G04 Created by KiCad (PCBNEW 7.0.0-da2b9df05c~171~ubuntu22.04.1) date 2023-03-13 14:35:53*
%MOMM*%
%LPD*%
G01*
G04 APERTURE LIST*
%ADD10C,0.120000*%
%ADD11C,0.150000*%
G04 APERTURE END LIST*
D10*
X36500000Y-49500000D02*
X36500000Y-48250000D01*
X37750000Y-65000000D02*
X37750000Y-63500000D01*
X38500000Y-64250000D02*
X37000000Y-64250000D01*
X40750000Y-61250000D02*
X40750000Y-62500000D01*
X40750000Y-63250000D02*
X37000000Y-63250000D01*
X38750000Y-65750000D02*
X38750000Y-63250000D01*
X40750000Y-62500000D02*
X37000000Y-62500000D01*
X37000000Y-62500000D02*
X37000000Y-61250000D01*
X37000000Y-61250000D02*
X40750000Y-61250000D01*
X40750000Y-60500000D02*
X37000000Y-60500000D01*
X38750000Y-60500000D02*
X38750000Y-58500000D01*
X38500000Y-45000000D02*
X38500000Y-47500000D01*
X40250000Y-49500000D02*
X36500000Y-49500000D01*
X38500000Y-47500000D02*
X36500000Y-47500000D01*
X36500000Y-46500000D02*
X38000000Y-46500000D01*
X36500000Y-48250000D02*
X40250000Y-48250000D01*
X40250000Y-48250000D02*
X40250000Y-49500000D01*
X36500000Y-50250000D02*
X40250000Y-50250000D01*
X37250000Y-45750000D02*
X37250000Y-47250000D01*
X36500000Y-47500000D02*
X40250000Y-47500000D01*
X38500000Y-50250000D02*
X38500000Y-52250000D01*
D11*
X77428572Y-59301071D02*
X76571429Y-59301071D01*
X77000000Y-59301071D02*
X77000000Y-57801071D01*
X77000000Y-57801071D02*
X76857143Y-58015357D01*
X76857143Y-58015357D02*
X76714286Y-58158214D01*
X76714286Y-58158214D02*
X76571429Y-58229642D01*
X77178572Y-34551071D02*
X76321429Y-34551071D01*
X76750000Y-34551071D02*
X76750000Y-33051071D01*
X76750000Y-33051071D02*
X76607143Y-33265357D01*
X76607143Y-33265357D02*
X76464286Y-33408214D01*
X76464286Y-33408214D02*
X76321429Y-33479642D01*
X126583333Y-53734761D02*
X127821428Y-53734761D01*
X127821428Y-53734761D02*
X127154761Y-54496666D01*
X127154761Y-54496666D02*
X127440476Y-54496666D01*
X127440476Y-54496666D02*
X127630952Y-54591904D01*
X127630952Y-54591904D02*
X127726190Y-54687142D01*
X127726190Y-54687142D02*
X127821428Y-54877619D01*
X127821428Y-54877619D02*
X127821428Y-55353809D01*
X127821428Y-55353809D02*
X127726190Y-55544285D01*
X127726190Y-55544285D02*
X127630952Y-55639523D01*
X127630952Y-55639523D02*
X127440476Y-55734761D01*
X127440476Y-55734761D02*
X126869047Y-55734761D01*
X126869047Y-55734761D02*
X126678571Y-55639523D01*
X126678571Y-55639523D02*
X126583333Y-55544285D01*
X126428571Y-44925238D02*
X126523809Y-44830000D01*
X126523809Y-44830000D02*
X126714285Y-44734761D01*
X126714285Y-44734761D02*
X127190476Y-44734761D01*
X127190476Y-44734761D02*
X127380952Y-44830000D01*
X127380952Y-44830000D02*
X127476190Y-44925238D01*
X127476190Y-44925238D02*
X127571428Y-45115714D01*
X127571428Y-45115714D02*
X127571428Y-45306190D01*
X127571428Y-45306190D02*
X127476190Y-45591904D01*
X127476190Y-45591904D02*
X126333333Y-46734761D01*
X126333333Y-46734761D02*
X127571428Y-46734761D01*
X42071428Y-55734761D02*
X40928571Y-55734761D01*
X41499999Y-55734761D02*
X41499999Y-53734761D01*
X41499999Y-53734761D02*
X41309523Y-54020476D01*
X41309523Y-54020476D02*
X41119047Y-54210952D01*
X41119047Y-54210952D02*
X40928571Y-54306190D01*
X40928571Y-40675238D02*
X41023809Y-40580000D01*
X41023809Y-40580000D02*
X41214285Y-40484761D01*
X41214285Y-40484761D02*
X41690476Y-40484761D01*
X41690476Y-40484761D02*
X41880952Y-40580000D01*
X41880952Y-40580000D02*
X41976190Y-40675238D01*
X41976190Y-40675238D02*
X42071428Y-40865714D01*
X42071428Y-40865714D02*
X42071428Y-41056190D01*
X42071428Y-41056190D02*
X41976190Y-41341904D01*
X41976190Y-41341904D02*
X40833333Y-42484761D01*
X40833333Y-42484761D02*
X42071428Y-42484761D01*
X41583333Y-67984761D02*
X42821428Y-67984761D01*
X42821428Y-67984761D02*
X42154761Y-68746666D01*
X42154761Y-68746666D02*
X42440476Y-68746666D01*
X42440476Y-68746666D02*
X42630952Y-68841904D01*
X42630952Y-68841904D02*
X42726190Y-68937142D01*
X42726190Y-68937142D02*
X42821428Y-69127619D01*
X42821428Y-69127619D02*
X42821428Y-69603809D01*
X42821428Y-69603809D02*
X42726190Y-69794285D01*
X42726190Y-69794285D02*
X42630952Y-69889523D01*
X42630952Y-69889523D02*
X42440476Y-69984761D01*
X42440476Y-69984761D02*
X41869047Y-69984761D01*
X41869047Y-69984761D02*
X41678571Y-69889523D01*
X41678571Y-69889523D02*
X41583333Y-69794285D01*
X132551071Y-67171428D02*
X133551071Y-67171428D01*
X131979642Y-67528570D02*
X133051071Y-67885713D01*
X133051071Y-67885713D02*
X133051071Y-66957142D01*
X132693928Y-66171428D02*
X132622500Y-66314285D01*
X132622500Y-66314285D02*
X132551071Y-66385714D01*
X132551071Y-66385714D02*
X132408214Y-66457142D01*
X132408214Y-66457142D02*
X132336785Y-66457142D01*
X132336785Y-66457142D02*
X132193928Y-66385714D01*
X132193928Y-66385714D02*
X132122500Y-66314285D01*
X132122500Y-66314285D02*
X132051071Y-66171428D01*
X132051071Y-66171428D02*
X132051071Y-65885714D01*
X132051071Y-65885714D02*
X132122500Y-65742857D01*
X132122500Y-65742857D02*
X132193928Y-65671428D01*
X132193928Y-65671428D02*
X132336785Y-65599999D01*
X132336785Y-65599999D02*
X132408214Y-65599999D01*
X132408214Y-65599999D02*
X132551071Y-65671428D01*
X132551071Y-65671428D02*
X132622500Y-65742857D01*
X132622500Y-65742857D02*
X132693928Y-65885714D01*
X132693928Y-65885714D02*
X132693928Y-66171428D01*
X132693928Y-66171428D02*
X132765357Y-66314285D01*
X132765357Y-66314285D02*
X132836785Y-66385714D01*
X132836785Y-66385714D02*
X132979642Y-66457142D01*
X132979642Y-66457142D02*
X133265357Y-66457142D01*
X133265357Y-66457142D02*
X133408214Y-66385714D01*
X133408214Y-66385714D02*
X133479642Y-66314285D01*
X133479642Y-66314285D02*
X133551071Y-66171428D01*
X133551071Y-66171428D02*
X133551071Y-65885714D01*
X133551071Y-65885714D02*
X133479642Y-65742857D01*
X133479642Y-65742857D02*
X133408214Y-65671428D01*
X133408214Y-65671428D02*
X133265357Y-65599999D01*
X133265357Y-65599999D02*
X132979642Y-65599999D01*
X132979642Y-65599999D02*
X132836785Y-65671428D01*
X132836785Y-65671428D02*
X132765357Y-65742857D01*
X132765357Y-65742857D02*
X132693928Y-65885714D01*
X132551071Y-64200000D02*
X133551071Y-63842857D01*
X133551071Y-63842857D02*
X132551071Y-63485714D01*
X133551071Y-62700000D02*
X133479642Y-62842857D01*
X133479642Y-62842857D02*
X133408214Y-62914286D01*
X133408214Y-62914286D02*
X133265357Y-62985714D01*
X133265357Y-62985714D02*
X132836785Y-62985714D01*
X132836785Y-62985714D02*
X132693928Y-62914286D01*
X132693928Y-62914286D02*
X132622500Y-62842857D01*
X132622500Y-62842857D02*
X132551071Y-62700000D01*
X132551071Y-62700000D02*
X132551071Y-62485714D01*
X132551071Y-62485714D02*
X132622500Y-62342857D01*
X132622500Y-62342857D02*
X132693928Y-62271429D01*
X132693928Y-62271429D02*
X132836785Y-62200000D01*
X132836785Y-62200000D02*
X133265357Y-62200000D01*
X133265357Y-62200000D02*
X133408214Y-62271429D01*
X133408214Y-62271429D02*
X133479642Y-62342857D01*
X133479642Y-62342857D02*
X133551071Y-62485714D01*
X133551071Y-62485714D02*
X133551071Y-62700000D01*
X133551071Y-61342857D02*
X133479642Y-61485714D01*
X133479642Y-61485714D02*
X133336785Y-61557143D01*
X133336785Y-61557143D02*
X132051071Y-61557143D01*
X132551071Y-60985714D02*
X132551071Y-60414286D01*
X132051071Y-60771429D02*
X133336785Y-60771429D01*
X133336785Y-60771429D02*
X133479642Y-60700000D01*
X133479642Y-60700000D02*
X133551071Y-60557143D01*
X133551071Y-60557143D02*
X133551071Y-60414286D01*
X132551071Y-59014286D02*
X134051071Y-59014286D01*
X132622500Y-59014286D02*
X132551071Y-58871429D01*
X132551071Y-58871429D02*
X132551071Y-58585714D01*
X132551071Y-58585714D02*
X132622500Y-58442857D01*
X132622500Y-58442857D02*
X132693928Y-58371429D01*
X132693928Y-58371429D02*
X132836785Y-58300000D01*
X132836785Y-58300000D02*
X133265357Y-58300000D01*
X133265357Y-58300000D02*
X133408214Y-58371429D01*
X133408214Y-58371429D02*
X133479642Y-58442857D01*
X133479642Y-58442857D02*
X133551071Y-58585714D01*
X133551071Y-58585714D02*
X133551071Y-58871429D01*
X133551071Y-58871429D02*
X133479642Y-59014286D01*
X133551071Y-57657143D02*
X132051071Y-57657143D01*
X133551071Y-57014286D02*
X132765357Y-57014286D01*
X132765357Y-57014286D02*
X132622500Y-57085714D01*
X132622500Y-57085714D02*
X132551071Y-57228571D01*
X132551071Y-57228571D02*
X132551071Y-57442857D01*
X132551071Y-57442857D02*
X132622500Y-57585714D01*
X132622500Y-57585714D02*
X132693928Y-57657143D01*
X133551071Y-55657143D02*
X132765357Y-55657143D01*
X132765357Y-55657143D02*
X132622500Y-55728571D01*
X132622500Y-55728571D02*
X132551071Y-55871428D01*
X132551071Y-55871428D02*
X132551071Y-56157143D01*
X132551071Y-56157143D02*
X132622500Y-56300000D01*
X133479642Y-55657143D02*
X133551071Y-55800000D01*
X133551071Y-55800000D02*
X133551071Y-56157143D01*
X133551071Y-56157143D02*
X133479642Y-56300000D01*
X133479642Y-56300000D02*
X133336785Y-56371428D01*
X133336785Y-56371428D02*
X133193928Y-56371428D01*
X133193928Y-56371428D02*
X133051071Y-56300000D01*
X133051071Y-56300000D02*
X132979642Y-56157143D01*
X132979642Y-56157143D02*
X132979642Y-55800000D01*
X132979642Y-55800000D02*
X132908214Y-55657143D01*
X132551071Y-54942857D02*
X133551071Y-54942857D01*
X132693928Y-54942857D02*
X132622500Y-54871428D01*
X132622500Y-54871428D02*
X132551071Y-54728571D01*
X132551071Y-54728571D02*
X132551071Y-54514285D01*
X132551071Y-54514285D02*
X132622500Y-54371428D01*
X132622500Y-54371428D02*
X132765357Y-54300000D01*
X132765357Y-54300000D02*
X133551071Y-54300000D01*
X132551071Y-53799999D02*
X132551071Y-53228571D01*
X132051071Y-53585714D02*
X133336785Y-53585714D01*
X133336785Y-53585714D02*
X133479642Y-53514285D01*
X133479642Y-53514285D02*
X133551071Y-53371428D01*
X133551071Y-53371428D02*
X133551071Y-53228571D01*
X133551071Y-52514285D02*
X133479642Y-52657142D01*
X133479642Y-52657142D02*
X133408214Y-52728571D01*
X133408214Y-52728571D02*
X133265357Y-52799999D01*
X133265357Y-52799999D02*
X132836785Y-52799999D01*
X132836785Y-52799999D02*
X132693928Y-52728571D01*
X132693928Y-52728571D02*
X132622500Y-52657142D01*
X132622500Y-52657142D02*
X132551071Y-52514285D01*
X132551071Y-52514285D02*
X132551071Y-52299999D01*
X132551071Y-52299999D02*
X132622500Y-52157142D01*
X132622500Y-52157142D02*
X132693928Y-52085714D01*
X132693928Y-52085714D02*
X132836785Y-52014285D01*
X132836785Y-52014285D02*
X133265357Y-52014285D01*
X133265357Y-52014285D02*
X133408214Y-52085714D01*
X133408214Y-52085714D02*
X133479642Y-52157142D01*
X133479642Y-52157142D02*
X133551071Y-52299999D01*
X133551071Y-52299999D02*
X133551071Y-52514285D01*
X133551071Y-51371428D02*
X132551071Y-51371428D01*
X132693928Y-51371428D02*
X132622500Y-51299999D01*
X132622500Y-51299999D02*
X132551071Y-51157142D01*
X132551071Y-51157142D02*
X132551071Y-50942856D01*
X132551071Y-50942856D02*
X132622500Y-50799999D01*
X132622500Y-50799999D02*
X132765357Y-50728571D01*
X132765357Y-50728571D02*
X133551071Y-50728571D01*
X132765357Y-50728571D02*
X132622500Y-50657142D01*
X132622500Y-50657142D02*
X132551071Y-50514285D01*
X132551071Y-50514285D02*
X132551071Y-50299999D01*
X132551071Y-50299999D02*
X132622500Y-50157142D01*
X132622500Y-50157142D02*
X132765357Y-50085713D01*
X132765357Y-50085713D02*
X133551071Y-50085713D01*
X132551071Y-48471428D02*
X134051071Y-48471428D01*
X132622500Y-48471428D02*
X132551071Y-48328571D01*
X132551071Y-48328571D02*
X132551071Y-48042856D01*
X132551071Y-48042856D02*
X132622500Y-47899999D01*
X132622500Y-47899999D02*
X132693928Y-47828571D01*
X132693928Y-47828571D02*
X132836785Y-47757142D01*
X132836785Y-47757142D02*
X133265357Y-47757142D01*
X133265357Y-47757142D02*
X133408214Y-47828571D01*
X133408214Y-47828571D02*
X133479642Y-47899999D01*
X133479642Y-47899999D02*
X133551071Y-48042856D01*
X133551071Y-48042856D02*
X133551071Y-48328571D01*
X133551071Y-48328571D02*
X133479642Y-48471428D01*
X133551071Y-46899999D02*
X133479642Y-47042856D01*
X133479642Y-47042856D02*
X133408214Y-47114285D01*
X133408214Y-47114285D02*
X133265357Y-47185713D01*
X133265357Y-47185713D02*
X132836785Y-47185713D01*
X132836785Y-47185713D02*
X132693928Y-47114285D01*
X132693928Y-47114285D02*
X132622500Y-47042856D01*
X132622500Y-47042856D02*
X132551071Y-46899999D01*
X132551071Y-46899999D02*
X132551071Y-46685713D01*
X132551071Y-46685713D02*
X132622500Y-46542856D01*
X132622500Y-46542856D02*
X132693928Y-46471428D01*
X132693928Y-46471428D02*
X132836785Y-46399999D01*
X132836785Y-46399999D02*
X133265357Y-46399999D01*
X133265357Y-46399999D02*
X133408214Y-46471428D01*
X133408214Y-46471428D02*
X133479642Y-46542856D01*
X133479642Y-46542856D02*
X133551071Y-46685713D01*
X133551071Y-46685713D02*
X133551071Y-46899999D01*
X132551071Y-45899999D02*
X133551071Y-45614285D01*
X133551071Y-45614285D02*
X132836785Y-45328570D01*
X132836785Y-45328570D02*
X133551071Y-45042856D01*
X133551071Y-45042856D02*
X132551071Y-44757142D01*
X133479642Y-43614284D02*
X133551071Y-43757141D01*
X133551071Y-43757141D02*
X133551071Y-44042856D01*
X133551071Y-44042856D02*
X133479642Y-44185713D01*
X133479642Y-44185713D02*
X133336785Y-44257141D01*
X133336785Y-44257141D02*
X132765357Y-44257141D01*
X132765357Y-44257141D02*
X132622500Y-44185713D01*
X132622500Y-44185713D02*
X132551071Y-44042856D01*
X132551071Y-44042856D02*
X132551071Y-43757141D01*
X132551071Y-43757141D02*
X132622500Y-43614284D01*
X132622500Y-43614284D02*
X132765357Y-43542856D01*
X132765357Y-43542856D02*
X132908214Y-43542856D01*
X132908214Y-43542856D02*
X133051071Y-44257141D01*
X133551071Y-42899999D02*
X132551071Y-42899999D01*
X132836785Y-42899999D02*
X132693928Y-42828570D01*
X132693928Y-42828570D02*
X132622500Y-42757142D01*
X132622500Y-42757142D02*
X132551071Y-42614284D01*
X132551071Y-42614284D02*
X132551071Y-42471427D01*
X127571428Y-64484761D02*
X126428571Y-64484761D01*
X126999999Y-64484761D02*
X126999999Y-62484761D01*
X126999999Y-62484761D02*
X126809523Y-62770476D01*
X126809523Y-62770476D02*
X126619047Y-62960952D01*
X126619047Y-62960952D02*
X126428571Y-63056190D01*
%TO.C,C4*%
X100583333Y-58872142D02*
X100535714Y-58919761D01*
X100535714Y-58919761D02*
X100392857Y-58967380D01*
X100392857Y-58967380D02*
X100297619Y-58967380D01*
X100297619Y-58967380D02*
X100154762Y-58919761D01*
X100154762Y-58919761D02*
X100059524Y-58824523D01*
X100059524Y-58824523D02*
X100011905Y-58729285D01*
X100011905Y-58729285D02*
X99964286Y-58538809D01*
X99964286Y-58538809D02*
X99964286Y-58395952D01*
X99964286Y-58395952D02*
X100011905Y-58205476D01*
X100011905Y-58205476D02*
X100059524Y-58110238D01*
X100059524Y-58110238D02*
X100154762Y-58015000D01*
X100154762Y-58015000D02*
X100297619Y-57967380D01*
X100297619Y-57967380D02*
X100392857Y-57967380D01*
X100392857Y-57967380D02*
X100535714Y-58015000D01*
X100535714Y-58015000D02*
X100583333Y-58062619D01*
X101440476Y-58300714D02*
X101440476Y-58967380D01*
X101202381Y-57919761D02*
X100964286Y-58634047D01*
X100964286Y-58634047D02*
X101583333Y-58634047D01*
%TO.C,RV1*%
X84367380Y-55095238D02*
X83891190Y-55428571D01*
X84367380Y-55666666D02*
X83367380Y-55666666D01*
X83367380Y-55666666D02*
X83367380Y-55285714D01*
X83367380Y-55285714D02*
X83415000Y-55190476D01*
X83415000Y-55190476D02*
X83462619Y-55142857D01*
X83462619Y-55142857D02*
X83557857Y-55095238D01*
X83557857Y-55095238D02*
X83700714Y-55095238D01*
X83700714Y-55095238D02*
X83795952Y-55142857D01*
X83795952Y-55142857D02*
X83843571Y-55190476D01*
X83843571Y-55190476D02*
X83891190Y-55285714D01*
X83891190Y-55285714D02*
X83891190Y-55666666D01*
X83367380Y-54809523D02*
X84367380Y-54476190D01*
X84367380Y-54476190D02*
X83367380Y-54142857D01*
X84367380Y-53285714D02*
X84367380Y-53857142D01*
X84367380Y-53571428D02*
X83367380Y-53571428D01*
X83367380Y-53571428D02*
X83510238Y-53666666D01*
X83510238Y-53666666D02*
X83605476Y-53761904D01*
X83605476Y-53761904D02*
X83653095Y-53857142D01*
%TO.C,C3*%
X100583333Y-71272142D02*
X100535714Y-71319761D01*
X100535714Y-71319761D02*
X100392857Y-71367380D01*
X100392857Y-71367380D02*
X100297619Y-71367380D01*
X100297619Y-71367380D02*
X100154762Y-71319761D01*
X100154762Y-71319761D02*
X100059524Y-71224523D01*
X100059524Y-71224523D02*
X100011905Y-71129285D01*
X100011905Y-71129285D02*
X99964286Y-70938809D01*
X99964286Y-70938809D02*
X99964286Y-70795952D01*
X99964286Y-70795952D02*
X100011905Y-70605476D01*
X100011905Y-70605476D02*
X100059524Y-70510238D01*
X100059524Y-70510238D02*
X100154762Y-70415000D01*
X100154762Y-70415000D02*
X100297619Y-70367380D01*
X100297619Y-70367380D02*
X100392857Y-70367380D01*
X100392857Y-70367380D02*
X100535714Y-70415000D01*
X100535714Y-70415000D02*
X100583333Y-70462619D01*
X100916667Y-70367380D02*
X101535714Y-70367380D01*
X101535714Y-70367380D02*
X101202381Y-70748333D01*
X101202381Y-70748333D02*
X101345238Y-70748333D01*
X101345238Y-70748333D02*
X101440476Y-70795952D01*
X101440476Y-70795952D02*
X101488095Y-70843571D01*
X101488095Y-70843571D02*
X101535714Y-70938809D01*
X101535714Y-70938809D02*
X101535714Y-71176904D01*
X101535714Y-71176904D02*
X101488095Y-71272142D01*
X101488095Y-71272142D02*
X101440476Y-71319761D01*
X101440476Y-71319761D02*
X101345238Y-71367380D01*
X101345238Y-71367380D02*
X101059524Y-71367380D01*
X101059524Y-71367380D02*
X100964286Y-71319761D01*
X100964286Y-71319761D02*
X100916667Y-71272142D01*
%TO.C,C5*%
X112272142Y-35916666D02*
X112319761Y-35964285D01*
X112319761Y-35964285D02*
X112367380Y-36107142D01*
X112367380Y-36107142D02*
X112367380Y-36202380D01*
X112367380Y-36202380D02*
X112319761Y-36345237D01*
X112319761Y-36345237D02*
X112224523Y-36440475D01*
X112224523Y-36440475D02*
X112129285Y-36488094D01*
X112129285Y-36488094D02*
X111938809Y-36535713D01*
X111938809Y-36535713D02*
X111795952Y-36535713D01*
X111795952Y-36535713D02*
X111605476Y-36488094D01*
X111605476Y-36488094D02*
X111510238Y-36440475D01*
X111510238Y-36440475D02*
X111415000Y-36345237D01*
X111415000Y-36345237D02*
X111367380Y-36202380D01*
X111367380Y-36202380D02*
X111367380Y-36107142D01*
X111367380Y-36107142D02*
X111415000Y-35964285D01*
X111415000Y-35964285D02*
X111462619Y-35916666D01*
X111367380Y-35011904D02*
X111367380Y-35488094D01*
X111367380Y-35488094D02*
X111843571Y-35535713D01*
X111843571Y-35535713D02*
X111795952Y-35488094D01*
X111795952Y-35488094D02*
X111748333Y-35392856D01*
X111748333Y-35392856D02*
X111748333Y-35154761D01*
X111748333Y-35154761D02*
X111795952Y-35059523D01*
X111795952Y-35059523D02*
X111843571Y-35011904D01*
X111843571Y-35011904D02*
X111938809Y-34964285D01*
X111938809Y-34964285D02*
X112176904Y-34964285D01*
X112176904Y-34964285D02*
X112272142Y-35011904D01*
X112272142Y-35011904D02*
X112319761Y-35059523D01*
X112319761Y-35059523D02*
X112367380Y-35154761D01*
X112367380Y-35154761D02*
X112367380Y-35392856D01*
X112367380Y-35392856D02*
X112319761Y-35488094D01*
X112319761Y-35488094D02*
X112272142Y-35535713D01*
%TO.C,C6*%
X112522142Y-73916666D02*
X112569761Y-73964285D01*
X112569761Y-73964285D02*
X112617380Y-74107142D01*
X112617380Y-74107142D02*
X112617380Y-74202380D01*
X112617380Y-74202380D02*
X112569761Y-74345237D01*
X112569761Y-74345237D02*
X112474523Y-74440475D01*
X112474523Y-74440475D02*
X112379285Y-74488094D01*
X112379285Y-74488094D02*
X112188809Y-74535713D01*
X112188809Y-74535713D02*
X112045952Y-74535713D01*
X112045952Y-74535713D02*
X111855476Y-74488094D01*
X111855476Y-74488094D02*
X111760238Y-74440475D01*
X111760238Y-74440475D02*
X111665000Y-74345237D01*
X111665000Y-74345237D02*
X111617380Y-74202380D01*
X111617380Y-74202380D02*
X111617380Y-74107142D01*
X111617380Y-74107142D02*
X111665000Y-73964285D01*
X111665000Y-73964285D02*
X111712619Y-73916666D01*
X111617380Y-73059523D02*
X111617380Y-73249999D01*
X111617380Y-73249999D02*
X111665000Y-73345237D01*
X111665000Y-73345237D02*
X111712619Y-73392856D01*
X111712619Y-73392856D02*
X111855476Y-73488094D01*
X111855476Y-73488094D02*
X112045952Y-73535713D01*
X112045952Y-73535713D02*
X112426904Y-73535713D01*
X112426904Y-73535713D02*
X112522142Y-73488094D01*
X112522142Y-73488094D02*
X112569761Y-73440475D01*
X112569761Y-73440475D02*
X112617380Y-73345237D01*
X112617380Y-73345237D02*
X112617380Y-73154761D01*
X112617380Y-73154761D02*
X112569761Y-73059523D01*
X112569761Y-73059523D02*
X112522142Y-73011904D01*
X112522142Y-73011904D02*
X112426904Y-72964285D01*
X112426904Y-72964285D02*
X112188809Y-72964285D01*
X112188809Y-72964285D02*
X112093571Y-73011904D01*
X112093571Y-73011904D02*
X112045952Y-73059523D01*
X112045952Y-73059523D02*
X111998333Y-73154761D01*
X111998333Y-73154761D02*
X111998333Y-73345237D01*
X111998333Y-73345237D02*
X112045952Y-73440475D01*
X112045952Y-73440475D02*
X112093571Y-73488094D01*
X112093571Y-73488094D02*
X112188809Y-73535713D01*
%TO.C,C7*%
X57022142Y-47166666D02*
X57069761Y-47214285D01*
X57069761Y-47214285D02*
X57117380Y-47357142D01*
X57117380Y-47357142D02*
X57117380Y-47452380D01*
X57117380Y-47452380D02*
X57069761Y-47595237D01*
X57069761Y-47595237D02*
X56974523Y-47690475D01*
X56974523Y-47690475D02*
X56879285Y-47738094D01*
X56879285Y-47738094D02*
X56688809Y-47785713D01*
X56688809Y-47785713D02*
X56545952Y-47785713D01*
X56545952Y-47785713D02*
X56355476Y-47738094D01*
X56355476Y-47738094D02*
X56260238Y-47690475D01*
X56260238Y-47690475D02*
X56165000Y-47595237D01*
X56165000Y-47595237D02*
X56117380Y-47452380D01*
X56117380Y-47452380D02*
X56117380Y-47357142D01*
X56117380Y-47357142D02*
X56165000Y-47214285D01*
X56165000Y-47214285D02*
X56212619Y-47166666D01*
X56117380Y-46833332D02*
X56117380Y-46166666D01*
X56117380Y-46166666D02*
X57117380Y-46595237D01*
%TO.C,C8*%
X53272142Y-55416666D02*
X53319761Y-55464285D01*
X53319761Y-55464285D02*
X53367380Y-55607142D01*
X53367380Y-55607142D02*
X53367380Y-55702380D01*
X53367380Y-55702380D02*
X53319761Y-55845237D01*
X53319761Y-55845237D02*
X53224523Y-55940475D01*
X53224523Y-55940475D02*
X53129285Y-55988094D01*
X53129285Y-55988094D02*
X52938809Y-56035713D01*
X52938809Y-56035713D02*
X52795952Y-56035713D01*
X52795952Y-56035713D02*
X52605476Y-55988094D01*
X52605476Y-55988094D02*
X52510238Y-55940475D01*
X52510238Y-55940475D02*
X52415000Y-55845237D01*
X52415000Y-55845237D02*
X52367380Y-55702380D01*
X52367380Y-55702380D02*
X52367380Y-55607142D01*
X52367380Y-55607142D02*
X52415000Y-55464285D01*
X52415000Y-55464285D02*
X52462619Y-55416666D01*
X52795952Y-54845237D02*
X52748333Y-54940475D01*
X52748333Y-54940475D02*
X52700714Y-54988094D01*
X52700714Y-54988094D02*
X52605476Y-55035713D01*
X52605476Y-55035713D02*
X52557857Y-55035713D01*
X52557857Y-55035713D02*
X52462619Y-54988094D01*
X52462619Y-54988094D02*
X52415000Y-54940475D01*
X52415000Y-54940475D02*
X52367380Y-54845237D01*
X52367380Y-54845237D02*
X52367380Y-54654761D01*
X52367380Y-54654761D02*
X52415000Y-54559523D01*
X52415000Y-54559523D02*
X52462619Y-54511904D01*
X52462619Y-54511904D02*
X52557857Y-54464285D01*
X52557857Y-54464285D02*
X52605476Y-54464285D01*
X52605476Y-54464285D02*
X52700714Y-54511904D01*
X52700714Y-54511904D02*
X52748333Y-54559523D01*
X52748333Y-54559523D02*
X52795952Y-54654761D01*
X52795952Y-54654761D02*
X52795952Y-54845237D01*
X52795952Y-54845237D02*
X52843571Y-54940475D01*
X52843571Y-54940475D02*
X52891190Y-54988094D01*
X52891190Y-54988094D02*
X52986428Y-55035713D01*
X52986428Y-55035713D02*
X53176904Y-55035713D01*
X53176904Y-55035713D02*
X53272142Y-54988094D01*
X53272142Y-54988094D02*
X53319761Y-54940475D01*
X53319761Y-54940475D02*
X53367380Y-54845237D01*
X53367380Y-54845237D02*
X53367380Y-54654761D01*
X53367380Y-54654761D02*
X53319761Y-54559523D01*
X53319761Y-54559523D02*
X53272142Y-54511904D01*
X53272142Y-54511904D02*
X53176904Y-54464285D01*
X53176904Y-54464285D02*
X52986428Y-54464285D01*
X52986428Y-54464285D02*
X52891190Y-54511904D01*
X52891190Y-54511904D02*
X52843571Y-54559523D01*
X52843571Y-54559523D02*
X52795952Y-54654761D01*
%TO.C,C9*%
X64522142Y-63666666D02*
X64569761Y-63714285D01*
X64569761Y-63714285D02*
X64617380Y-63857142D01*
X64617380Y-63857142D02*
X64617380Y-63952380D01*
X64617380Y-63952380D02*
X64569761Y-64095237D01*
X64569761Y-64095237D02*
X64474523Y-64190475D01*
X64474523Y-64190475D02*
X64379285Y-64238094D01*
X64379285Y-64238094D02*
X64188809Y-64285713D01*
X64188809Y-64285713D02*
X64045952Y-64285713D01*
X64045952Y-64285713D02*
X63855476Y-64238094D01*
X63855476Y-64238094D02*
X63760238Y-64190475D01*
X63760238Y-64190475D02*
X63665000Y-64095237D01*
X63665000Y-64095237D02*
X63617380Y-63952380D01*
X63617380Y-63952380D02*
X63617380Y-63857142D01*
X63617380Y-63857142D02*
X63665000Y-63714285D01*
X63665000Y-63714285D02*
X63712619Y-63666666D01*
X64617380Y-63190475D02*
X64617380Y-62999999D01*
X64617380Y-62999999D02*
X64569761Y-62904761D01*
X64569761Y-62904761D02*
X64522142Y-62857142D01*
X64522142Y-62857142D02*
X64379285Y-62761904D01*
X64379285Y-62761904D02*
X64188809Y-62714285D01*
X64188809Y-62714285D02*
X63807857Y-62714285D01*
X63807857Y-62714285D02*
X63712619Y-62761904D01*
X63712619Y-62761904D02*
X63665000Y-62809523D01*
X63665000Y-62809523D02*
X63617380Y-62904761D01*
X63617380Y-62904761D02*
X63617380Y-63095237D01*
X63617380Y-63095237D02*
X63665000Y-63190475D01*
X63665000Y-63190475D02*
X63712619Y-63238094D01*
X63712619Y-63238094D02*
X63807857Y-63285713D01*
X63807857Y-63285713D02*
X64045952Y-63285713D01*
X64045952Y-63285713D02*
X64141190Y-63238094D01*
X64141190Y-63238094D02*
X64188809Y-63190475D01*
X64188809Y-63190475D02*
X64236428Y-63095237D01*
X64236428Y-63095237D02*
X64236428Y-62904761D01*
X64236428Y-62904761D02*
X64188809Y-62809523D01*
X64188809Y-62809523D02*
X64141190Y-62761904D01*
X64141190Y-62761904D02*
X64045952Y-62714285D01*
%TO.C,D1*%
X121367380Y-55988094D02*
X120367380Y-55988094D01*
X120367380Y-55988094D02*
X120367380Y-55749999D01*
X120367380Y-55749999D02*
X120415000Y-55607142D01*
X120415000Y-55607142D02*
X120510238Y-55511904D01*
X120510238Y-55511904D02*
X120605476Y-55464285D01*
X120605476Y-55464285D02*
X120795952Y-55416666D01*
X120795952Y-55416666D02*
X120938809Y-55416666D01*
X120938809Y-55416666D02*
X121129285Y-55464285D01*
X121129285Y-55464285D02*
X121224523Y-55511904D01*
X121224523Y-55511904D02*
X121319761Y-55607142D01*
X121319761Y-55607142D02*
X121367380Y-55749999D01*
X121367380Y-55749999D02*
X121367380Y-55988094D01*
X121367380Y-54464285D02*
X121367380Y-55035713D01*
X121367380Y-54749999D02*
X120367380Y-54749999D01*
X120367380Y-54749999D02*
X120510238Y-54845237D01*
X120510238Y-54845237D02*
X120605476Y-54940475D01*
X120605476Y-54940475D02*
X120653095Y-55035713D01*
X123167380Y-51511904D02*
X122167380Y-51511904D01*
X123167380Y-50940476D02*
X122595952Y-51369047D01*
X122167380Y-50940476D02*
X122738809Y-51511904D01*
%TO.C,D2*%
X47367380Y-46738094D02*
X46367380Y-46738094D01*
X46367380Y-46738094D02*
X46367380Y-46499999D01*
X46367380Y-46499999D02*
X46415000Y-46357142D01*
X46415000Y-46357142D02*
X46510238Y-46261904D01*
X46510238Y-46261904D02*
X46605476Y-46214285D01*
X46605476Y-46214285D02*
X46795952Y-46166666D01*
X46795952Y-46166666D02*
X46938809Y-46166666D01*
X46938809Y-46166666D02*
X47129285Y-46214285D01*
X47129285Y-46214285D02*
X47224523Y-46261904D01*
X47224523Y-46261904D02*
X47319761Y-46357142D01*
X47319761Y-46357142D02*
X47367380Y-46499999D01*
X47367380Y-46499999D02*
X47367380Y-46738094D01*
X46462619Y-45785713D02*
X46415000Y-45738094D01*
X46415000Y-45738094D02*
X46367380Y-45642856D01*
X46367380Y-45642856D02*
X46367380Y-45404761D01*
X46367380Y-45404761D02*
X46415000Y-45309523D01*
X46415000Y-45309523D02*
X46462619Y-45261904D01*
X46462619Y-45261904D02*
X46557857Y-45214285D01*
X46557857Y-45214285D02*
X46653095Y-45214285D01*
X46653095Y-45214285D02*
X46795952Y-45261904D01*
X46795952Y-45261904D02*
X47367380Y-45833332D01*
X47367380Y-45833332D02*
X47367380Y-45214285D01*
X49167380Y-42261904D02*
X48167380Y-42261904D01*
X49167380Y-41690476D02*
X48595952Y-42119047D01*
X48167380Y-41690476D02*
X48738809Y-42261904D01*
%TO.C,D3*%
X47367380Y-65738094D02*
X46367380Y-65738094D01*
X46367380Y-65738094D02*
X46367380Y-65499999D01*
X46367380Y-65499999D02*
X46415000Y-65357142D01*
X46415000Y-65357142D02*
X46510238Y-65261904D01*
X46510238Y-65261904D02*
X46605476Y-65214285D01*
X46605476Y-65214285D02*
X46795952Y-65166666D01*
X46795952Y-65166666D02*
X46938809Y-65166666D01*
X46938809Y-65166666D02*
X47129285Y-65214285D01*
X47129285Y-65214285D02*
X47224523Y-65261904D01*
X47224523Y-65261904D02*
X47319761Y-65357142D01*
X47319761Y-65357142D02*
X47367380Y-65499999D01*
X47367380Y-65499999D02*
X47367380Y-65738094D01*
X46367380Y-64833332D02*
X46367380Y-64214285D01*
X46367380Y-64214285D02*
X46748333Y-64547618D01*
X46748333Y-64547618D02*
X46748333Y-64404761D01*
X46748333Y-64404761D02*
X46795952Y-64309523D01*
X46795952Y-64309523D02*
X46843571Y-64261904D01*
X46843571Y-64261904D02*
X46938809Y-64214285D01*
X46938809Y-64214285D02*
X47176904Y-64214285D01*
X47176904Y-64214285D02*
X47272142Y-64261904D01*
X47272142Y-64261904D02*
X47319761Y-64309523D01*
X47319761Y-64309523D02*
X47367380Y-64404761D01*
X47367380Y-64404761D02*
X47367380Y-64690475D01*
X47367380Y-64690475D02*
X47319761Y-64785713D01*
X47319761Y-64785713D02*
X47272142Y-64833332D01*
X49167380Y-61141904D02*
X48167380Y-61141904D01*
X49167380Y-60570476D02*
X48595952Y-60999047D01*
X48167380Y-60570476D02*
X48738809Y-61141904D01*
%TO.C,D4*%
X53367380Y-46738094D02*
X52367380Y-46738094D01*
X52367380Y-46738094D02*
X52367380Y-46499999D01*
X52367380Y-46499999D02*
X52415000Y-46357142D01*
X52415000Y-46357142D02*
X52510238Y-46261904D01*
X52510238Y-46261904D02*
X52605476Y-46214285D01*
X52605476Y-46214285D02*
X52795952Y-46166666D01*
X52795952Y-46166666D02*
X52938809Y-46166666D01*
X52938809Y-46166666D02*
X53129285Y-46214285D01*
X53129285Y-46214285D02*
X53224523Y-46261904D01*
X53224523Y-46261904D02*
X53319761Y-46357142D01*
X53319761Y-46357142D02*
X53367380Y-46499999D01*
X53367380Y-46499999D02*
X53367380Y-46738094D01*
X52700714Y-45309523D02*
X53367380Y-45309523D01*
X52319761Y-45547618D02*
X53034047Y-45785713D01*
X53034047Y-45785713D02*
X53034047Y-45166666D01*
X55167380Y-42261904D02*
X54167380Y-42261904D01*
X55167380Y-41690476D02*
X54595952Y-42119047D01*
X54167380Y-41690476D02*
X54738809Y-42261904D01*
%TO.C,D5*%
X53367380Y-65738094D02*
X52367380Y-65738094D01*
X52367380Y-65738094D02*
X52367380Y-65499999D01*
X52367380Y-65499999D02*
X52415000Y-65357142D01*
X52415000Y-65357142D02*
X52510238Y-65261904D01*
X52510238Y-65261904D02*
X52605476Y-65214285D01*
X52605476Y-65214285D02*
X52795952Y-65166666D01*
X52795952Y-65166666D02*
X52938809Y-65166666D01*
X52938809Y-65166666D02*
X53129285Y-65214285D01*
X53129285Y-65214285D02*
X53224523Y-65261904D01*
X53224523Y-65261904D02*
X53319761Y-65357142D01*
X53319761Y-65357142D02*
X53367380Y-65499999D01*
X53367380Y-65499999D02*
X53367380Y-65738094D01*
X52367380Y-64261904D02*
X52367380Y-64738094D01*
X52367380Y-64738094D02*
X52843571Y-64785713D01*
X52843571Y-64785713D02*
X52795952Y-64738094D01*
X52795952Y-64738094D02*
X52748333Y-64642856D01*
X52748333Y-64642856D02*
X52748333Y-64404761D01*
X52748333Y-64404761D02*
X52795952Y-64309523D01*
X52795952Y-64309523D02*
X52843571Y-64261904D01*
X52843571Y-64261904D02*
X52938809Y-64214285D01*
X52938809Y-64214285D02*
X53176904Y-64214285D01*
X53176904Y-64214285D02*
X53272142Y-64261904D01*
X53272142Y-64261904D02*
X53319761Y-64309523D01*
X53319761Y-64309523D02*
X53367380Y-64404761D01*
X53367380Y-64404761D02*
X53367380Y-64642856D01*
X53367380Y-64642856D02*
X53319761Y-64738094D01*
X53319761Y-64738094D02*
X53272142Y-64785713D01*
X55167380Y-61261904D02*
X54167380Y-61261904D01*
X55167380Y-60690476D02*
X54595952Y-61119047D01*
X54167380Y-60690476D02*
X54738809Y-61261904D01*
%TO.C,R1*%
X107117380Y-73666666D02*
X106641190Y-73999999D01*
X107117380Y-74238094D02*
X106117380Y-74238094D01*
X106117380Y-74238094D02*
X106117380Y-73857142D01*
X106117380Y-73857142D02*
X106165000Y-73761904D01*
X106165000Y-73761904D02*
X106212619Y-73714285D01*
X106212619Y-73714285D02*
X106307857Y-73666666D01*
X106307857Y-73666666D02*
X106450714Y-73666666D01*
X106450714Y-73666666D02*
X106545952Y-73714285D01*
X106545952Y-73714285D02*
X106593571Y-73761904D01*
X106593571Y-73761904D02*
X106641190Y-73857142D01*
X106641190Y-73857142D02*
X106641190Y-74238094D01*
X107117380Y-72714285D02*
X107117380Y-73285713D01*
X107117380Y-72999999D02*
X106117380Y-72999999D01*
X106117380Y-72999999D02*
X106260238Y-73095237D01*
X106260238Y-73095237D02*
X106355476Y-73190475D01*
X106355476Y-73190475D02*
X106403095Y-73285713D01*
%TO.C,R2*%
X53367380Y-36286666D02*
X52891190Y-36619999D01*
X53367380Y-36858094D02*
X52367380Y-36858094D01*
X52367380Y-36858094D02*
X52367380Y-36477142D01*
X52367380Y-36477142D02*
X52415000Y-36381904D01*
X52415000Y-36381904D02*
X52462619Y-36334285D01*
X52462619Y-36334285D02*
X52557857Y-36286666D01*
X52557857Y-36286666D02*
X52700714Y-36286666D01*
X52700714Y-36286666D02*
X52795952Y-36334285D01*
X52795952Y-36334285D02*
X52843571Y-36381904D01*
X52843571Y-36381904D02*
X52891190Y-36477142D01*
X52891190Y-36477142D02*
X52891190Y-36858094D01*
X52462619Y-35905713D02*
X52415000Y-35858094D01*
X52415000Y-35858094D02*
X52367380Y-35762856D01*
X52367380Y-35762856D02*
X52367380Y-35524761D01*
X52367380Y-35524761D02*
X52415000Y-35429523D01*
X52415000Y-35429523D02*
X52462619Y-35381904D01*
X52462619Y-35381904D02*
X52557857Y-35334285D01*
X52557857Y-35334285D02*
X52653095Y-35334285D01*
X52653095Y-35334285D02*
X52795952Y-35381904D01*
X52795952Y-35381904D02*
X53367380Y-35953332D01*
X53367380Y-35953332D02*
X53367380Y-35334285D01*
%TO.C,R3*%
X47367380Y-36206666D02*
X46891190Y-36539999D01*
X47367380Y-36778094D02*
X46367380Y-36778094D01*
X46367380Y-36778094D02*
X46367380Y-36397142D01*
X46367380Y-36397142D02*
X46415000Y-36301904D01*
X46415000Y-36301904D02*
X46462619Y-36254285D01*
X46462619Y-36254285D02*
X46557857Y-36206666D01*
X46557857Y-36206666D02*
X46700714Y-36206666D01*
X46700714Y-36206666D02*
X46795952Y-36254285D01*
X46795952Y-36254285D02*
X46843571Y-36301904D01*
X46843571Y-36301904D02*
X46891190Y-36397142D01*
X46891190Y-36397142D02*
X46891190Y-36778094D01*
X46367380Y-35873332D02*
X46367380Y-35254285D01*
X46367380Y-35254285D02*
X46748333Y-35587618D01*
X46748333Y-35587618D02*
X46748333Y-35444761D01*
X46748333Y-35444761D02*
X46795952Y-35349523D01*
X46795952Y-35349523D02*
X46843571Y-35301904D01*
X46843571Y-35301904D02*
X46938809Y-35254285D01*
X46938809Y-35254285D02*
X47176904Y-35254285D01*
X47176904Y-35254285D02*
X47272142Y-35301904D01*
X47272142Y-35301904D02*
X47319761Y-35349523D01*
X47319761Y-35349523D02*
X47367380Y-35444761D01*
X47367380Y-35444761D02*
X47367380Y-35730475D01*
X47367380Y-35730475D02*
X47319761Y-35825713D01*
X47319761Y-35825713D02*
X47272142Y-35873332D01*
%TO.C,R4*%
X47367380Y-74666666D02*
X46891190Y-74999999D01*
X47367380Y-75238094D02*
X46367380Y-75238094D01*
X46367380Y-75238094D02*
X46367380Y-74857142D01*
X46367380Y-74857142D02*
X46415000Y-74761904D01*
X46415000Y-74761904D02*
X46462619Y-74714285D01*
X46462619Y-74714285D02*
X46557857Y-74666666D01*
X46557857Y-74666666D02*
X46700714Y-74666666D01*
X46700714Y-74666666D02*
X46795952Y-74714285D01*
X46795952Y-74714285D02*
X46843571Y-74761904D01*
X46843571Y-74761904D02*
X46891190Y-74857142D01*
X46891190Y-74857142D02*
X46891190Y-75238094D01*
X46700714Y-73809523D02*
X47367380Y-73809523D01*
X46319761Y-74047618D02*
X47034047Y-74285713D01*
X47034047Y-74285713D02*
X47034047Y-73666666D01*
%TO.C,R5*%
X111793333Y-41867380D02*
X111460000Y-41391190D01*
X111221905Y-41867380D02*
X111221905Y-40867380D01*
X111221905Y-40867380D02*
X111602857Y-40867380D01*
X111602857Y-40867380D02*
X111698095Y-40915000D01*
X111698095Y-40915000D02*
X111745714Y-40962619D01*
X111745714Y-40962619D02*
X111793333Y-41057857D01*
X111793333Y-41057857D02*
X111793333Y-41200714D01*
X111793333Y-41200714D02*
X111745714Y-41295952D01*
X111745714Y-41295952D02*
X111698095Y-41343571D01*
X111698095Y-41343571D02*
X111602857Y-41391190D01*
X111602857Y-41391190D02*
X111221905Y-41391190D01*
X112698095Y-40867380D02*
X112221905Y-40867380D01*
X112221905Y-40867380D02*
X112174286Y-41343571D01*
X112174286Y-41343571D02*
X112221905Y-41295952D01*
X112221905Y-41295952D02*
X112317143Y-41248333D01*
X112317143Y-41248333D02*
X112555238Y-41248333D01*
X112555238Y-41248333D02*
X112650476Y-41295952D01*
X112650476Y-41295952D02*
X112698095Y-41343571D01*
X112698095Y-41343571D02*
X112745714Y-41438809D01*
X112745714Y-41438809D02*
X112745714Y-41676904D01*
X112745714Y-41676904D02*
X112698095Y-41772142D01*
X112698095Y-41772142D02*
X112650476Y-41819761D01*
X112650476Y-41819761D02*
X112555238Y-41867380D01*
X112555238Y-41867380D02*
X112317143Y-41867380D01*
X112317143Y-41867380D02*
X112221905Y-41819761D01*
X112221905Y-41819761D02*
X112174286Y-41772142D01*
%TO.C,R6*%
X125367380Y-55126666D02*
X124891190Y-55459999D01*
X125367380Y-55698094D02*
X124367380Y-55698094D01*
X124367380Y-55698094D02*
X124367380Y-55317142D01*
X124367380Y-55317142D02*
X124415000Y-55221904D01*
X124415000Y-55221904D02*
X124462619Y-55174285D01*
X124462619Y-55174285D02*
X124557857Y-55126666D01*
X124557857Y-55126666D02*
X124700714Y-55126666D01*
X124700714Y-55126666D02*
X124795952Y-55174285D01*
X124795952Y-55174285D02*
X124843571Y-55221904D01*
X124843571Y-55221904D02*
X124891190Y-55317142D01*
X124891190Y-55317142D02*
X124891190Y-55698094D01*
X124367380Y-54269523D02*
X124367380Y-54459999D01*
X124367380Y-54459999D02*
X124415000Y-54555237D01*
X124415000Y-54555237D02*
X124462619Y-54602856D01*
X124462619Y-54602856D02*
X124605476Y-54698094D01*
X124605476Y-54698094D02*
X124795952Y-54745713D01*
X124795952Y-54745713D02*
X125176904Y-54745713D01*
X125176904Y-54745713D02*
X125272142Y-54698094D01*
X125272142Y-54698094D02*
X125319761Y-54650475D01*
X125319761Y-54650475D02*
X125367380Y-54555237D01*
X125367380Y-54555237D02*
X125367380Y-54364761D01*
X125367380Y-54364761D02*
X125319761Y-54269523D01*
X125319761Y-54269523D02*
X125272142Y-54221904D01*
X125272142Y-54221904D02*
X125176904Y-54174285D01*
X125176904Y-54174285D02*
X124938809Y-54174285D01*
X124938809Y-54174285D02*
X124843571Y-54221904D01*
X124843571Y-54221904D02*
X124795952Y-54269523D01*
X124795952Y-54269523D02*
X124748333Y-54364761D01*
X124748333Y-54364761D02*
X124748333Y-54555237D01*
X124748333Y-54555237D02*
X124795952Y-54650475D01*
X124795952Y-54650475D02*
X124843571Y-54698094D01*
X124843571Y-54698094D02*
X124938809Y-54745713D01*
%TO.C,R7*%
X108367380Y-36666666D02*
X107891190Y-36999999D01*
X108367380Y-37238094D02*
X107367380Y-37238094D01*
X107367380Y-37238094D02*
X107367380Y-36857142D01*
X107367380Y-36857142D02*
X107415000Y-36761904D01*
X107415000Y-36761904D02*
X107462619Y-36714285D01*
X107462619Y-36714285D02*
X107557857Y-36666666D01*
X107557857Y-36666666D02*
X107700714Y-36666666D01*
X107700714Y-36666666D02*
X107795952Y-36714285D01*
X107795952Y-36714285D02*
X107843571Y-36761904D01*
X107843571Y-36761904D02*
X107891190Y-36857142D01*
X107891190Y-36857142D02*
X107891190Y-37238094D01*
X107367380Y-36333332D02*
X107367380Y-35666666D01*
X107367380Y-35666666D02*
X108367380Y-36095237D01*
%TO.C,R8*%
X112083333Y-69117380D02*
X111750000Y-68641190D01*
X111511905Y-69117380D02*
X111511905Y-68117380D01*
X111511905Y-68117380D02*
X111892857Y-68117380D01*
X111892857Y-68117380D02*
X111988095Y-68165000D01*
X111988095Y-68165000D02*
X112035714Y-68212619D01*
X112035714Y-68212619D02*
X112083333Y-68307857D01*
X112083333Y-68307857D02*
X112083333Y-68450714D01*
X112083333Y-68450714D02*
X112035714Y-68545952D01*
X112035714Y-68545952D02*
X111988095Y-68593571D01*
X111988095Y-68593571D02*
X111892857Y-68641190D01*
X111892857Y-68641190D02*
X111511905Y-68641190D01*
X112654762Y-68545952D02*
X112559524Y-68498333D01*
X112559524Y-68498333D02*
X112511905Y-68450714D01*
X112511905Y-68450714D02*
X112464286Y-68355476D01*
X112464286Y-68355476D02*
X112464286Y-68307857D01*
X112464286Y-68307857D02*
X112511905Y-68212619D01*
X112511905Y-68212619D02*
X112559524Y-68165000D01*
X112559524Y-68165000D02*
X112654762Y-68117380D01*
X112654762Y-68117380D02*
X112845238Y-68117380D01*
X112845238Y-68117380D02*
X112940476Y-68165000D01*
X112940476Y-68165000D02*
X112988095Y-68212619D01*
X112988095Y-68212619D02*
X113035714Y-68307857D01*
X113035714Y-68307857D02*
X113035714Y-68355476D01*
X113035714Y-68355476D02*
X112988095Y-68450714D01*
X112988095Y-68450714D02*
X112940476Y-68498333D01*
X112940476Y-68498333D02*
X112845238Y-68545952D01*
X112845238Y-68545952D02*
X112654762Y-68545952D01*
X112654762Y-68545952D02*
X112559524Y-68593571D01*
X112559524Y-68593571D02*
X112511905Y-68641190D01*
X112511905Y-68641190D02*
X112464286Y-68736428D01*
X112464286Y-68736428D02*
X112464286Y-68926904D01*
X112464286Y-68926904D02*
X112511905Y-69022142D01*
X112511905Y-69022142D02*
X112559524Y-69069761D01*
X112559524Y-69069761D02*
X112654762Y-69117380D01*
X112654762Y-69117380D02*
X112845238Y-69117380D01*
X112845238Y-69117380D02*
X112940476Y-69069761D01*
X112940476Y-69069761D02*
X112988095Y-69022142D01*
X112988095Y-69022142D02*
X113035714Y-68926904D01*
X113035714Y-68926904D02*
X113035714Y-68736428D01*
X113035714Y-68736428D02*
X112988095Y-68641190D01*
X112988095Y-68641190D02*
X112940476Y-68593571D01*
X112940476Y-68593571D02*
X112845238Y-68545952D01*
%TO.C,R9*%
X71003333Y-47367380D02*
X70670000Y-46891190D01*
X70431905Y-47367380D02*
X70431905Y-46367380D01*
X70431905Y-46367380D02*
X70812857Y-46367380D01*
X70812857Y-46367380D02*
X70908095Y-46415000D01*
X70908095Y-46415000D02*
X70955714Y-46462619D01*
X70955714Y-46462619D02*
X71003333Y-46557857D01*
X71003333Y-46557857D02*
X71003333Y-46700714D01*
X71003333Y-46700714D02*
X70955714Y-46795952D01*
X70955714Y-46795952D02*
X70908095Y-46843571D01*
X70908095Y-46843571D02*
X70812857Y-46891190D01*
X70812857Y-46891190D02*
X70431905Y-46891190D01*
X71479524Y-47367380D02*
X71670000Y-47367380D01*
X71670000Y-47367380D02*
X71765238Y-47319761D01*
X71765238Y-47319761D02*
X71812857Y-47272142D01*
X71812857Y-47272142D02*
X71908095Y-47129285D01*
X71908095Y-47129285D02*
X71955714Y-46938809D01*
X71955714Y-46938809D02*
X71955714Y-46557857D01*
X71955714Y-46557857D02*
X71908095Y-46462619D01*
X71908095Y-46462619D02*
X71860476Y-46415000D01*
X71860476Y-46415000D02*
X71765238Y-46367380D01*
X71765238Y-46367380D02*
X71574762Y-46367380D01*
X71574762Y-46367380D02*
X71479524Y-46415000D01*
X71479524Y-46415000D02*
X71431905Y-46462619D01*
X71431905Y-46462619D02*
X71384286Y-46557857D01*
X71384286Y-46557857D02*
X71384286Y-46795952D01*
X71384286Y-46795952D02*
X71431905Y-46891190D01*
X71431905Y-46891190D02*
X71479524Y-46938809D01*
X71479524Y-46938809D02*
X71574762Y-46986428D01*
X71574762Y-46986428D02*
X71765238Y-46986428D01*
X71765238Y-46986428D02*
X71860476Y-46938809D01*
X71860476Y-46938809D02*
X71908095Y-46891190D01*
X71908095Y-46891190D02*
X71955714Y-46795952D01*
%TO.C,R10*%
X53367380Y-75182857D02*
X52891190Y-75516190D01*
X53367380Y-75754285D02*
X52367380Y-75754285D01*
X52367380Y-75754285D02*
X52367380Y-75373333D01*
X52367380Y-75373333D02*
X52415000Y-75278095D01*
X52415000Y-75278095D02*
X52462619Y-75230476D01*
X52462619Y-75230476D02*
X52557857Y-75182857D01*
X52557857Y-75182857D02*
X52700714Y-75182857D01*
X52700714Y-75182857D02*
X52795952Y-75230476D01*
X52795952Y-75230476D02*
X52843571Y-75278095D01*
X52843571Y-75278095D02*
X52891190Y-75373333D01*
X52891190Y-75373333D02*
X52891190Y-75754285D01*
X53367380Y-74230476D02*
X53367380Y-74801904D01*
X53367380Y-74516190D02*
X52367380Y-74516190D01*
X52367380Y-74516190D02*
X52510238Y-74611428D01*
X52510238Y-74611428D02*
X52605476Y-74706666D01*
X52605476Y-74706666D02*
X52653095Y-74801904D01*
X52367380Y-73611428D02*
X52367380Y-73516190D01*
X52367380Y-73516190D02*
X52415000Y-73420952D01*
X52415000Y-73420952D02*
X52462619Y-73373333D01*
X52462619Y-73373333D02*
X52557857Y-73325714D01*
X52557857Y-73325714D02*
X52748333Y-73278095D01*
X52748333Y-73278095D02*
X52986428Y-73278095D01*
X52986428Y-73278095D02*
X53176904Y-73325714D01*
X53176904Y-73325714D02*
X53272142Y-73373333D01*
X53272142Y-73373333D02*
X53319761Y-73420952D01*
X53319761Y-73420952D02*
X53367380Y-73516190D01*
X53367380Y-73516190D02*
X53367380Y-73611428D01*
X53367380Y-73611428D02*
X53319761Y-73706666D01*
X53319761Y-73706666D02*
X53272142Y-73754285D01*
X53272142Y-73754285D02*
X53176904Y-73801904D01*
X53176904Y-73801904D02*
X52986428Y-73849523D01*
X52986428Y-73849523D02*
X52748333Y-73849523D01*
X52748333Y-73849523D02*
X52557857Y-73801904D01*
X52557857Y-73801904D02*
X52462619Y-73754285D01*
X52462619Y-73754285D02*
X52415000Y-73706666D01*
X52415000Y-73706666D02*
X52367380Y-73611428D01*
%TO.C,R11*%
X70777142Y-64367380D02*
X70443809Y-63891190D01*
X70205714Y-64367380D02*
X70205714Y-63367380D01*
X70205714Y-63367380D02*
X70586666Y-63367380D01*
X70586666Y-63367380D02*
X70681904Y-63415000D01*
X70681904Y-63415000D02*
X70729523Y-63462619D01*
X70729523Y-63462619D02*
X70777142Y-63557857D01*
X70777142Y-63557857D02*
X70777142Y-63700714D01*
X70777142Y-63700714D02*
X70729523Y-63795952D01*
X70729523Y-63795952D02*
X70681904Y-63843571D01*
X70681904Y-63843571D02*
X70586666Y-63891190D01*
X70586666Y-63891190D02*
X70205714Y-63891190D01*
X71729523Y-64367380D02*
X71158095Y-64367380D01*
X71443809Y-64367380D02*
X71443809Y-63367380D01*
X71443809Y-63367380D02*
X71348571Y-63510238D01*
X71348571Y-63510238D02*
X71253333Y-63605476D01*
X71253333Y-63605476D02*
X71158095Y-63653095D01*
X72681904Y-64367380D02*
X72110476Y-64367380D01*
X72396190Y-64367380D02*
X72396190Y-63367380D01*
X72396190Y-63367380D02*
X72300952Y-63510238D01*
X72300952Y-63510238D02*
X72205714Y-63605476D01*
X72205714Y-63605476D02*
X72110476Y-63653095D01*
%TO.C,C2*%
X74272142Y-36166666D02*
X74319761Y-36214285D01*
X74319761Y-36214285D02*
X74367380Y-36357142D01*
X74367380Y-36357142D02*
X74367380Y-36452380D01*
X74367380Y-36452380D02*
X74319761Y-36595237D01*
X74319761Y-36595237D02*
X74224523Y-36690475D01*
X74224523Y-36690475D02*
X74129285Y-36738094D01*
X74129285Y-36738094D02*
X73938809Y-36785713D01*
X73938809Y-36785713D02*
X73795952Y-36785713D01*
X73795952Y-36785713D02*
X73605476Y-36738094D01*
X73605476Y-36738094D02*
X73510238Y-36690475D01*
X73510238Y-36690475D02*
X73415000Y-36595237D01*
X73415000Y-36595237D02*
X73367380Y-36452380D01*
X73367380Y-36452380D02*
X73367380Y-36357142D01*
X73367380Y-36357142D02*
X73415000Y-36214285D01*
X73415000Y-36214285D02*
X73462619Y-36166666D01*
X73462619Y-35785713D02*
X73415000Y-35738094D01*
X73415000Y-35738094D02*
X73367380Y-35642856D01*
X73367380Y-35642856D02*
X73367380Y-35404761D01*
X73367380Y-35404761D02*
X73415000Y-35309523D01*
X73415000Y-35309523D02*
X73462619Y-35261904D01*
X73462619Y-35261904D02*
X73557857Y-35214285D01*
X73557857Y-35214285D02*
X73653095Y-35214285D01*
X73653095Y-35214285D02*
X73795952Y-35261904D01*
X73795952Y-35261904D02*
X74367380Y-35833332D01*
X74367380Y-35833332D02*
X74367380Y-35214285D01*
%TO.C,C1*%
X100833333Y-41522142D02*
X100785714Y-41569761D01*
X100785714Y-41569761D02*
X100642857Y-41617380D01*
X100642857Y-41617380D02*
X100547619Y-41617380D01*
X100547619Y-41617380D02*
X100404762Y-41569761D01*
X100404762Y-41569761D02*
X100309524Y-41474523D01*
X100309524Y-41474523D02*
X100261905Y-41379285D01*
X100261905Y-41379285D02*
X100214286Y-41188809D01*
X100214286Y-41188809D02*
X100214286Y-41045952D01*
X100214286Y-41045952D02*
X100261905Y-40855476D01*
X100261905Y-40855476D02*
X100309524Y-40760238D01*
X100309524Y-40760238D02*
X100404762Y-40665000D01*
X100404762Y-40665000D02*
X100547619Y-40617380D01*
X100547619Y-40617380D02*
X100642857Y-40617380D01*
X100642857Y-40617380D02*
X100785714Y-40665000D01*
X100785714Y-40665000D02*
X100833333Y-40712619D01*
X101785714Y-41617380D02*
X101214286Y-41617380D01*
X101500000Y-41617380D02*
X101500000Y-40617380D01*
X101500000Y-40617380D02*
X101404762Y-40760238D01*
X101404762Y-40760238D02*
X101309524Y-40855476D01*
X101309524Y-40855476D02*
X101214286Y-40903095D01*
%TO.C,U1*%
X63037380Y-56071904D02*
X63846904Y-56071904D01*
X63846904Y-56071904D02*
X63942142Y-56024285D01*
X63942142Y-56024285D02*
X63989761Y-55976666D01*
X63989761Y-55976666D02*
X64037380Y-55881428D01*
X64037380Y-55881428D02*
X64037380Y-55690952D01*
X64037380Y-55690952D02*
X63989761Y-55595714D01*
X63989761Y-55595714D02*
X63942142Y-55548095D01*
X63942142Y-55548095D02*
X63846904Y-55500476D01*
X63846904Y-55500476D02*
X63037380Y-55500476D01*
X64037380Y-54500476D02*
X64037380Y-55071904D01*
X64037380Y-54786190D02*
X63037380Y-54786190D01*
X63037380Y-54786190D02*
X63180238Y-54881428D01*
X63180238Y-54881428D02*
X63275476Y-54976666D01*
X63275476Y-54976666D02*
X63323095Y-55071904D01*
D10*
%TO.C,C4*%
X97249759Y-61161000D02*
X97879759Y-61161000D01*
X97564759Y-60846000D02*
X97564759Y-61476000D01*
X100750000Y-59770000D02*
X100750000Y-66230000D01*
X100790000Y-59770000D02*
X100790000Y-66230000D01*
X100830000Y-59770000D02*
X100830000Y-66230000D01*
X100870000Y-59772000D02*
X100870000Y-66228000D01*
X100910000Y-59773000D02*
X100910000Y-66227000D01*
X100950000Y-59776000D02*
X100950000Y-66224000D01*
X100990000Y-59778000D02*
X100990000Y-61960000D01*
X100990000Y-64040000D02*
X100990000Y-66222000D01*
X101030000Y-59782000D02*
X101030000Y-61960000D01*
X101030000Y-64040000D02*
X101030000Y-66218000D01*
X101070000Y-59785000D02*
X101070000Y-61960000D01*
X101070000Y-64040000D02*
X101070000Y-66215000D01*
X101110000Y-59789000D02*
X101110000Y-61960000D01*
X101110000Y-64040000D02*
X101110000Y-66211000D01*
X101150000Y-59794000D02*
X101150000Y-61960000D01*
X101150000Y-64040000D02*
X101150000Y-66206000D01*
X101190000Y-59799000D02*
X101190000Y-61960000D01*
X101190000Y-64040000D02*
X101190000Y-66201000D01*
X101230000Y-59805000D02*
X101230000Y-61960000D01*
X101230000Y-64040000D02*
X101230000Y-66195000D01*
X101270000Y-59811000D02*
X101270000Y-61960000D01*
X101270000Y-64040000D02*
X101270000Y-66189000D01*
X101310000Y-59818000D02*
X101310000Y-61960000D01*
X101310000Y-64040000D02*
X101310000Y-66182000D01*
X101350000Y-59825000D02*
X101350000Y-61960000D01*
X101350000Y-64040000D02*
X101350000Y-66175000D01*
X101390000Y-59833000D02*
X101390000Y-61960000D01*
X101390000Y-64040000D02*
X101390000Y-66167000D01*
X101430000Y-59841000D02*
X101430000Y-61960000D01*
X101430000Y-64040000D02*
X101430000Y-66159000D01*
X101471000Y-59850000D02*
X101471000Y-61960000D01*
X101471000Y-64040000D02*
X101471000Y-66150000D01*
X101511000Y-59859000D02*
X101511000Y-61960000D01*
X101511000Y-64040000D02*
X101511000Y-66141000D01*
X101551000Y-59869000D02*
X101551000Y-61960000D01*
X101551000Y-64040000D02*
X101551000Y-66131000D01*
X101591000Y-59879000D02*
X101591000Y-61960000D01*
X101591000Y-64040000D02*
X101591000Y-66121000D01*
X101631000Y-59890000D02*
X101631000Y-61960000D01*
X101631000Y-64040000D02*
X101631000Y-66110000D01*
X101671000Y-59902000D02*
X101671000Y-61960000D01*
X101671000Y-64040000D02*
X101671000Y-66098000D01*
X101711000Y-59914000D02*
X101711000Y-61960000D01*
X101711000Y-64040000D02*
X101711000Y-66086000D01*
X101751000Y-59926000D02*
X101751000Y-61960000D01*
X101751000Y-64040000D02*
X101751000Y-66074000D01*
X101791000Y-59939000D02*
X101791000Y-61960000D01*
X101791000Y-64040000D02*
X101791000Y-66061000D01*
X101831000Y-59953000D02*
X101831000Y-61960000D01*
X101831000Y-64040000D02*
X101831000Y-66047000D01*
X101871000Y-59967000D02*
X101871000Y-61960000D01*
X101871000Y-64040000D02*
X101871000Y-66033000D01*
X101911000Y-59982000D02*
X101911000Y-61960000D01*
X101911000Y-64040000D02*
X101911000Y-66018000D01*
X101951000Y-59998000D02*
X101951000Y-61960000D01*
X101951000Y-64040000D02*
X101951000Y-66002000D01*
X101991000Y-60014000D02*
X101991000Y-61960000D01*
X101991000Y-64040000D02*
X101991000Y-65986000D01*
X102031000Y-60030000D02*
X102031000Y-61960000D01*
X102031000Y-64040000D02*
X102031000Y-65970000D01*
X102071000Y-60048000D02*
X102071000Y-61960000D01*
X102071000Y-64040000D02*
X102071000Y-65952000D01*
X102111000Y-60066000D02*
X102111000Y-61960000D01*
X102111000Y-64040000D02*
X102111000Y-65934000D01*
X102151000Y-60084000D02*
X102151000Y-61960000D01*
X102151000Y-64040000D02*
X102151000Y-65916000D01*
X102191000Y-60104000D02*
X102191000Y-61960000D01*
X102191000Y-64040000D02*
X102191000Y-65896000D01*
X102231000Y-60124000D02*
X102231000Y-61960000D01*
X102231000Y-64040000D02*
X102231000Y-65876000D01*
X102271000Y-60144000D02*
X102271000Y-61960000D01*
X102271000Y-64040000D02*
X102271000Y-65856000D01*
X102311000Y-60166000D02*
X102311000Y-61960000D01*
X102311000Y-64040000D02*
X102311000Y-65834000D01*
X102351000Y-60188000D02*
X102351000Y-61960000D01*
X102351000Y-64040000D02*
X102351000Y-65812000D01*
X102391000Y-60210000D02*
X102391000Y-61960000D01*
X102391000Y-64040000D02*
X102391000Y-65790000D01*
X102431000Y-60234000D02*
X102431000Y-61960000D01*
X102431000Y-64040000D02*
X102431000Y-65766000D01*
X102471000Y-60258000D02*
X102471000Y-61960000D01*
X102471000Y-64040000D02*
X102471000Y-65742000D01*
X102511000Y-60284000D02*
X102511000Y-61960000D01*
X102511000Y-64040000D02*
X102511000Y-65716000D01*
X102551000Y-60310000D02*
X102551000Y-61960000D01*
X102551000Y-64040000D02*
X102551000Y-65690000D01*
X102591000Y-60336000D02*
X102591000Y-61960000D01*
X102591000Y-64040000D02*
X102591000Y-65664000D01*
X102631000Y-60364000D02*
X102631000Y-61960000D01*
X102631000Y-64040000D02*
X102631000Y-65636000D01*
X102671000Y-60393000D02*
X102671000Y-61960000D01*
X102671000Y-64040000D02*
X102671000Y-65607000D01*
X102711000Y-60422000D02*
X102711000Y-61960000D01*
X102711000Y-64040000D02*
X102711000Y-65578000D01*
X102751000Y-60452000D02*
X102751000Y-61960000D01*
X102751000Y-64040000D02*
X102751000Y-65548000D01*
X102791000Y-60484000D02*
X102791000Y-61960000D01*
X102791000Y-64040000D02*
X102791000Y-65516000D01*
X102831000Y-60516000D02*
X102831000Y-61960000D01*
X102831000Y-64040000D02*
X102831000Y-65484000D01*
X102871000Y-60550000D02*
X102871000Y-61960000D01*
X102871000Y-64040000D02*
X102871000Y-65450000D01*
X102911000Y-60584000D02*
X102911000Y-61960000D01*
X102911000Y-64040000D02*
X102911000Y-65416000D01*
X102951000Y-60620000D02*
X102951000Y-61960000D01*
X102951000Y-64040000D02*
X102951000Y-65380000D01*
X102991000Y-60657000D02*
X102991000Y-61960000D01*
X102991000Y-64040000D02*
X102991000Y-65343000D01*
X103031000Y-60695000D02*
X103031000Y-61960000D01*
X103031000Y-64040000D02*
X103031000Y-65305000D01*
X103071000Y-60735000D02*
X103071000Y-65265000D01*
X103111000Y-60776000D02*
X103111000Y-65224000D01*
X103151000Y-60818000D02*
X103151000Y-65182000D01*
X103191000Y-60863000D02*
X103191000Y-65137000D01*
X103231000Y-60908000D02*
X103231000Y-65092000D01*
X103271000Y-60956000D02*
X103271000Y-65044000D01*
X103311000Y-61005000D02*
X103311000Y-64995000D01*
X103351000Y-61056000D02*
X103351000Y-64944000D01*
X103391000Y-61110000D02*
X103391000Y-64890000D01*
X103431000Y-61166000D02*
X103431000Y-64834000D01*
X103471000Y-61224000D02*
X103471000Y-64776000D01*
X103511000Y-61286000D02*
X103511000Y-64714000D01*
X103551000Y-61350000D02*
X103551000Y-64650000D01*
X103591000Y-61419000D02*
X103591000Y-64581000D01*
X103631000Y-61491000D02*
X103631000Y-64509000D01*
X103671000Y-61568000D02*
X103671000Y-64432000D01*
X103711000Y-61650000D02*
X103711000Y-64350000D01*
X103751000Y-61738000D02*
X103751000Y-64262000D01*
X103791000Y-61835000D02*
X103791000Y-64165000D01*
X103831000Y-61941000D02*
X103831000Y-64059000D01*
X103871000Y-62060000D02*
X103871000Y-63940000D01*
X103911000Y-62198000D02*
X103911000Y-63802000D01*
X103951000Y-62367000D02*
X103951000Y-63633000D01*
X103991000Y-62598000D02*
X103991000Y-63402000D01*
X104020000Y-63000000D02*
G75*
G03*
X104020000Y-63000000I-3270000J0D01*
G01*
%TO.C,C3*%
X98130000Y-72130000D02*
X98130000Y-74870000D01*
X98130000Y-72130000D02*
X103370000Y-72130000D01*
X98130000Y-74870000D02*
X103370000Y-74870000D01*
X103370000Y-72130000D02*
X103370000Y-74870000D01*
%TO.C,C5*%
X113130000Y-38370000D02*
X115870000Y-38370000D01*
X113130000Y-38370000D02*
X113130000Y-33130000D01*
X115870000Y-38370000D02*
X115870000Y-33130000D01*
X113130000Y-33130000D02*
X115870000Y-33130000D01*
%TO.C,C6*%
X113380000Y-76370000D02*
X116120000Y-76370000D01*
X113380000Y-76370000D02*
X113380000Y-71130000D01*
X116120000Y-76370000D02*
X116120000Y-71130000D01*
X113380000Y-71130000D02*
X116120000Y-71130000D01*
%TO.C,C7*%
X59025000Y-49804775D02*
X59025000Y-49304775D01*
X58775000Y-49554775D02*
X59275000Y-49554775D01*
X57920000Y-47000000D02*
X59460000Y-47000000D01*
X61540000Y-47000000D02*
X63080000Y-47000000D01*
X57920000Y-46960000D02*
X59460000Y-46960000D01*
X61540000Y-46960000D02*
X63080000Y-46960000D01*
X57921000Y-46920000D02*
X59460000Y-46920000D01*
X61540000Y-46920000D02*
X63079000Y-46920000D01*
X57922000Y-46880000D02*
X59460000Y-46880000D01*
X61540000Y-46880000D02*
X63078000Y-46880000D01*
X57924000Y-46840000D02*
X59460000Y-46840000D01*
X61540000Y-46840000D02*
X63076000Y-46840000D01*
X57927000Y-46800000D02*
X59460000Y-46800000D01*
X61540000Y-46800000D02*
X63073000Y-46800000D01*
X57931000Y-46760000D02*
X59460000Y-46760000D01*
X61540000Y-46760000D02*
X63069000Y-46760000D01*
X57935000Y-46720000D02*
X59460000Y-46720000D01*
X61540000Y-46720000D02*
X63065000Y-46720000D01*
X57939000Y-46680000D02*
X59460000Y-46680000D01*
X61540000Y-46680000D02*
X63061000Y-46680000D01*
X57944000Y-46640000D02*
X59460000Y-46640000D01*
X61540000Y-46640000D02*
X63056000Y-46640000D01*
X57950000Y-46600000D02*
X59460000Y-46600000D01*
X61540000Y-46600000D02*
X63050000Y-46600000D01*
X57957000Y-46560000D02*
X59460000Y-46560000D01*
X61540000Y-46560000D02*
X63043000Y-46560000D01*
X57964000Y-46520000D02*
X59460000Y-46520000D01*
X61540000Y-46520000D02*
X63036000Y-46520000D01*
X57972000Y-46480000D02*
X59460000Y-46480000D01*
X61540000Y-46480000D02*
X63028000Y-46480000D01*
X57980000Y-46440000D02*
X59460000Y-46440000D01*
X61540000Y-46440000D02*
X63020000Y-46440000D01*
X57989000Y-46400000D02*
X59460000Y-46400000D01*
X61540000Y-46400000D02*
X63011000Y-46400000D01*
X57999000Y-46360000D02*
X59460000Y-46360000D01*
X61540000Y-46360000D02*
X63001000Y-46360000D01*
X58009000Y-46320000D02*
X59460000Y-46320000D01*
X61540000Y-46320000D02*
X62991000Y-46320000D01*
X58020000Y-46279000D02*
X59460000Y-46279000D01*
X61540000Y-46279000D02*
X62980000Y-46279000D01*
X58032000Y-46239000D02*
X59460000Y-46239000D01*
X61540000Y-46239000D02*
X62968000Y-46239000D01*
X58045000Y-46199000D02*
X59460000Y-46199000D01*
X61540000Y-46199000D02*
X62955000Y-46199000D01*
X58058000Y-46159000D02*
X59460000Y-46159000D01*
X61540000Y-46159000D02*
X62942000Y-46159000D01*
X58072000Y-46119000D02*
X59460000Y-46119000D01*
X61540000Y-46119000D02*
X62928000Y-46119000D01*
X58086000Y-46079000D02*
X59460000Y-46079000D01*
X61540000Y-46079000D02*
X62914000Y-46079000D01*
X58102000Y-46039000D02*
X59460000Y-46039000D01*
X61540000Y-46039000D02*
X62898000Y-46039000D01*
X58118000Y-45999000D02*
X59460000Y-45999000D01*
X61540000Y-45999000D02*
X62882000Y-45999000D01*
X58135000Y-45959000D02*
X59460000Y-45959000D01*
X61540000Y-45959000D02*
X62865000Y-45959000D01*
X58152000Y-45919000D02*
X59460000Y-45919000D01*
X61540000Y-45919000D02*
X62848000Y-45919000D01*
X58171000Y-45879000D02*
X59460000Y-45879000D01*
X61540000Y-45879000D02*
X62829000Y-45879000D01*
X58190000Y-45839000D02*
X59460000Y-45839000D01*
X61540000Y-45839000D02*
X62810000Y-45839000D01*
X58210000Y-45799000D02*
X59460000Y-45799000D01*
X61540000Y-45799000D02*
X62790000Y-45799000D01*
X58232000Y-45759000D02*
X59460000Y-45759000D01*
X61540000Y-45759000D02*
X62768000Y-45759000D01*
X58253000Y-45719000D02*
X59460000Y-45719000D01*
X61540000Y-45719000D02*
X62747000Y-45719000D01*
X58276000Y-45679000D02*
X59460000Y-45679000D01*
X61540000Y-45679000D02*
X62724000Y-45679000D01*
X58300000Y-45639000D02*
X59460000Y-45639000D01*
X61540000Y-45639000D02*
X62700000Y-45639000D01*
X58325000Y-45599000D02*
X59460000Y-45599000D01*
X61540000Y-45599000D02*
X62675000Y-45599000D01*
X58351000Y-45559000D02*
X59460000Y-45559000D01*
X61540000Y-45559000D02*
X62649000Y-45559000D01*
X58378000Y-45519000D02*
X59460000Y-45519000D01*
X61540000Y-45519000D02*
X62622000Y-45519000D01*
X58405000Y-45479000D02*
X59460000Y-45479000D01*
X61540000Y-45479000D02*
X62595000Y-45479000D01*
X58435000Y-45439000D02*
X59460000Y-45439000D01*
X61540000Y-45439000D02*
X62565000Y-45439000D01*
X58465000Y-45399000D02*
X59460000Y-45399000D01*
X61540000Y-45399000D02*
X62535000Y-45399000D01*
X58496000Y-45359000D02*
X59460000Y-45359000D01*
X61540000Y-45359000D02*
X62504000Y-45359000D01*
X58529000Y-45319000D02*
X59460000Y-45319000D01*
X61540000Y-45319000D02*
X62471000Y-45319000D01*
X58563000Y-45279000D02*
X59460000Y-45279000D01*
X61540000Y-45279000D02*
X62437000Y-45279000D01*
X58599000Y-45239000D02*
X59460000Y-45239000D01*
X61540000Y-45239000D02*
X62401000Y-45239000D01*
X58636000Y-45199000D02*
X59460000Y-45199000D01*
X61540000Y-45199000D02*
X62364000Y-45199000D01*
X58674000Y-45159000D02*
X59460000Y-45159000D01*
X61540000Y-45159000D02*
X62326000Y-45159000D01*
X58715000Y-45119000D02*
X59460000Y-45119000D01*
X61540000Y-45119000D02*
X62285000Y-45119000D01*
X58757000Y-45079000D02*
X59460000Y-45079000D01*
X61540000Y-45079000D02*
X62243000Y-45079000D01*
X58801000Y-45039000D02*
X59460000Y-45039000D01*
X61540000Y-45039000D02*
X62199000Y-45039000D01*
X58847000Y-44999000D02*
X59460000Y-44999000D01*
X61540000Y-44999000D02*
X62153000Y-44999000D01*
X58895000Y-44959000D02*
X62105000Y-44959000D01*
X58946000Y-44919000D02*
X62054000Y-44919000D01*
X59000000Y-44879000D02*
X62000000Y-44879000D01*
X59057000Y-44839000D02*
X61943000Y-44839000D01*
X59117000Y-44799000D02*
X61883000Y-44799000D01*
X59181000Y-44759000D02*
X61819000Y-44759000D01*
X59249000Y-44719000D02*
X61751000Y-44719000D01*
X59322000Y-44679000D02*
X61678000Y-44679000D01*
X59402000Y-44639000D02*
X61598000Y-44639000D01*
X59489000Y-44599000D02*
X61511000Y-44599000D01*
X59585000Y-44559000D02*
X61415000Y-44559000D01*
X59695000Y-44519000D02*
X61305000Y-44519000D01*
X59823000Y-44479000D02*
X61177000Y-44479000D01*
X59982000Y-44439000D02*
X61018000Y-44439000D01*
X60216000Y-44399000D02*
X60784000Y-44399000D01*
X63120000Y-47000000D02*
G75*
G03*
X63120000Y-47000000I-2620000J0D01*
G01*
%TO.C,C8*%
X54130000Y-57870000D02*
X56870000Y-57870000D01*
X54130000Y-57870000D02*
X54130000Y-52630000D01*
X56870000Y-57870000D02*
X56870000Y-52630000D01*
X54130000Y-52630000D02*
X56870000Y-52630000D01*
%TO.C,C9*%
X61975000Y-60695225D02*
X61975000Y-61195225D01*
X62225000Y-60945225D02*
X61725000Y-60945225D01*
X63080000Y-63500000D02*
X61540000Y-63500000D01*
X59460000Y-63500000D02*
X57920000Y-63500000D01*
X63080000Y-63540000D02*
X61540000Y-63540000D01*
X59460000Y-63540000D02*
X57920000Y-63540000D01*
X63079000Y-63580000D02*
X61540000Y-63580000D01*
X59460000Y-63580000D02*
X57921000Y-63580000D01*
X63078000Y-63620000D02*
X61540000Y-63620000D01*
X59460000Y-63620000D02*
X57922000Y-63620000D01*
X63076000Y-63660000D02*
X61540000Y-63660000D01*
X59460000Y-63660000D02*
X57924000Y-63660000D01*
X63073000Y-63700000D02*
X61540000Y-63700000D01*
X59460000Y-63700000D02*
X57927000Y-63700000D01*
X63069000Y-63740000D02*
X61540000Y-63740000D01*
X59460000Y-63740000D02*
X57931000Y-63740000D01*
X63065000Y-63780000D02*
X61540000Y-63780000D01*
X59460000Y-63780000D02*
X57935000Y-63780000D01*
X63061000Y-63820000D02*
X61540000Y-63820000D01*
X59460000Y-63820000D02*
X57939000Y-63820000D01*
X63056000Y-63860000D02*
X61540000Y-63860000D01*
X59460000Y-63860000D02*
X57944000Y-63860000D01*
X63050000Y-63900000D02*
X61540000Y-63900000D01*
X59460000Y-63900000D02*
X57950000Y-63900000D01*
X63043000Y-63940000D02*
X61540000Y-63940000D01*
X59460000Y-63940000D02*
X57957000Y-63940000D01*
X63036000Y-63980000D02*
X61540000Y-63980000D01*
X59460000Y-63980000D02*
X57964000Y-63980000D01*
X63028000Y-64020000D02*
X61540000Y-64020000D01*
X59460000Y-64020000D02*
X57972000Y-64020000D01*
X63020000Y-64060000D02*
X61540000Y-64060000D01*
X59460000Y-64060000D02*
X57980000Y-64060000D01*
X63011000Y-64100000D02*
X61540000Y-64100000D01*
X59460000Y-64100000D02*
X57989000Y-64100000D01*
X63001000Y-64140000D02*
X61540000Y-64140000D01*
X59460000Y-64140000D02*
X57999000Y-64140000D01*
X62991000Y-64180000D02*
X61540000Y-64180000D01*
X59460000Y-64180000D02*
X58009000Y-64180000D01*
X62980000Y-64221000D02*
X61540000Y-64221000D01*
X59460000Y-64221000D02*
X58020000Y-64221000D01*
X62968000Y-64261000D02*
X61540000Y-64261000D01*
X59460000Y-64261000D02*
X58032000Y-64261000D01*
X62955000Y-64301000D02*
X61540000Y-64301000D01*
X59460000Y-64301000D02*
X58045000Y-64301000D01*
X62942000Y-64341000D02*
X61540000Y-64341000D01*
X59460000Y-64341000D02*
X58058000Y-64341000D01*
X62928000Y-64381000D02*
X61540000Y-64381000D01*
X59460000Y-64381000D02*
X58072000Y-64381000D01*
X62914000Y-64421000D02*
X61540000Y-64421000D01*
X59460000Y-64421000D02*
X58086000Y-64421000D01*
X62898000Y-64461000D02*
X61540000Y-64461000D01*
X59460000Y-64461000D02*
X58102000Y-64461000D01*
X62882000Y-64501000D02*
X61540000Y-64501000D01*
X59460000Y-64501000D02*
X58118000Y-64501000D01*
X62865000Y-64541000D02*
X61540000Y-64541000D01*
X59460000Y-64541000D02*
X58135000Y-64541000D01*
X62848000Y-64581000D02*
X61540000Y-64581000D01*
X59460000Y-64581000D02*
X58152000Y-64581000D01*
X62829000Y-64621000D02*
X61540000Y-64621000D01*
X59460000Y-64621000D02*
X58171000Y-64621000D01*
X62810000Y-64661000D02*
X61540000Y-64661000D01*
X59460000Y-64661000D02*
X58190000Y-64661000D01*
X62790000Y-64701000D02*
X61540000Y-64701000D01*
X59460000Y-64701000D02*
X58210000Y-64701000D01*
X62768000Y-64741000D02*
X61540000Y-64741000D01*
X59460000Y-64741000D02*
X58232000Y-64741000D01*
X62747000Y-64781000D02*
X61540000Y-64781000D01*
X59460000Y-64781000D02*
X58253000Y-64781000D01*
X62724000Y-64821000D02*
X61540000Y-64821000D01*
X59460000Y-64821000D02*
X58276000Y-64821000D01*
X62700000Y-64861000D02*
X61540000Y-64861000D01*
X59460000Y-64861000D02*
X58300000Y-64861000D01*
X62675000Y-64901000D02*
X61540000Y-64901000D01*
X59460000Y-64901000D02*
X58325000Y-64901000D01*
X62649000Y-64941000D02*
X61540000Y-64941000D01*
X59460000Y-64941000D02*
X58351000Y-64941000D01*
X62622000Y-64981000D02*
X61540000Y-64981000D01*
X59460000Y-64981000D02*
X58378000Y-64981000D01*
X62595000Y-65021000D02*
X61540000Y-65021000D01*
X59460000Y-65021000D02*
X58405000Y-65021000D01*
X62565000Y-65061000D02*
X61540000Y-65061000D01*
X59460000Y-65061000D02*
X58435000Y-65061000D01*
X62535000Y-65101000D02*
X61540000Y-65101000D01*
X59460000Y-65101000D02*
X58465000Y-65101000D01*
X62504000Y-65141000D02*
X61540000Y-65141000D01*
X59460000Y-65141000D02*
X58496000Y-65141000D01*
X62471000Y-65181000D02*
X61540000Y-65181000D01*
X59460000Y-65181000D02*
X58529000Y-65181000D01*
X62437000Y-65221000D02*
X61540000Y-65221000D01*
X59460000Y-65221000D02*
X58563000Y-65221000D01*
X62401000Y-65261000D02*
X61540000Y-65261000D01*
X59460000Y-65261000D02*
X58599000Y-65261000D01*
X62364000Y-65301000D02*
X61540000Y-65301000D01*
X59460000Y-65301000D02*
X58636000Y-65301000D01*
X62326000Y-65341000D02*
X61540000Y-65341000D01*
X59460000Y-65341000D02*
X58674000Y-65341000D01*
X62285000Y-65381000D02*
X61540000Y-65381000D01*
X59460000Y-65381000D02*
X58715000Y-65381000D01*
X62243000Y-65421000D02*
X61540000Y-65421000D01*
X59460000Y-65421000D02*
X58757000Y-65421000D01*
X62199000Y-65461000D02*
X61540000Y-65461000D01*
X59460000Y-65461000D02*
X58801000Y-65461000D01*
X62153000Y-65501000D02*
X61540000Y-65501000D01*
X59460000Y-65501000D02*
X58847000Y-65501000D01*
X62105000Y-65541000D02*
X58895000Y-65541000D01*
X62054000Y-65581000D02*
X58946000Y-65581000D01*
X62000000Y-65621000D02*
X59000000Y-65621000D01*
X61943000Y-65661000D02*
X59057000Y-65661000D01*
X61883000Y-65701000D02*
X59117000Y-65701000D01*
X61819000Y-65741000D02*
X59181000Y-65741000D01*
X61751000Y-65781000D02*
X59249000Y-65781000D01*
X61678000Y-65821000D02*
X59322000Y-65821000D01*
X61598000Y-65861000D02*
X59402000Y-65861000D01*
X61511000Y-65901000D02*
X59489000Y-65901000D01*
X61415000Y-65941000D02*
X59585000Y-65941000D01*
X61305000Y-65981000D02*
X59695000Y-65981000D01*
X61177000Y-66021000D02*
X59823000Y-66021000D01*
X61018000Y-66061000D02*
X59982000Y-66061000D01*
X60784000Y-66101000D02*
X60216000Y-66101000D01*
X63120000Y-63500000D02*
G75*
G03*
X63120000Y-63500000I-2620000J0D01*
G01*
%TO.C,D1*%
X121000000Y-52290000D02*
X121000000Y-52940000D01*
X122120000Y-52940000D02*
X119880000Y-52940000D01*
X119880000Y-52940000D02*
X119880000Y-57180000D01*
X122120000Y-53540000D02*
X119880000Y-53540000D01*
X122120000Y-53660000D02*
X119880000Y-53660000D01*
X122120000Y-53780000D02*
X119880000Y-53780000D01*
X122120000Y-57180000D02*
X122120000Y-52940000D01*
X119880000Y-57180000D02*
X122120000Y-57180000D01*
X121000000Y-57830000D02*
X121000000Y-57180000D01*
%TO.C,D2*%
X47000000Y-43040000D02*
X47000000Y-43690000D01*
X48120000Y-43690000D02*
X45880000Y-43690000D01*
X45880000Y-43690000D02*
X45880000Y-47930000D01*
X48120000Y-44290000D02*
X45880000Y-44290000D01*
X48120000Y-44410000D02*
X45880000Y-44410000D01*
X48120000Y-44530000D02*
X45880000Y-44530000D01*
X48120000Y-47930000D02*
X48120000Y-43690000D01*
X45880000Y-47930000D02*
X48120000Y-47930000D01*
X47000000Y-48580000D02*
X47000000Y-47930000D01*
%TO.C,D3*%
X47000000Y-61920000D02*
X47000000Y-62570000D01*
X48120000Y-62570000D02*
X45880000Y-62570000D01*
X45880000Y-62570000D02*
X45880000Y-66810000D01*
X48120000Y-63170000D02*
X45880000Y-63170000D01*
X48120000Y-63290000D02*
X45880000Y-63290000D01*
X48120000Y-63410000D02*
X45880000Y-63410000D01*
X48120000Y-66810000D02*
X48120000Y-62570000D01*
X45880000Y-66810000D02*
X48120000Y-66810000D01*
X47000000Y-67460000D02*
X47000000Y-66810000D01*
%TO.C,D4*%
X53000000Y-43040000D02*
X53000000Y-43690000D01*
X54120000Y-43690000D02*
X51880000Y-43690000D01*
X51880000Y-43690000D02*
X51880000Y-47930000D01*
X54120000Y-44290000D02*
X51880000Y-44290000D01*
X54120000Y-44410000D02*
X51880000Y-44410000D01*
X54120000Y-44530000D02*
X51880000Y-44530000D01*
X54120000Y-47930000D02*
X54120000Y-43690000D01*
X51880000Y-47930000D02*
X54120000Y-47930000D01*
X53000000Y-48580000D02*
X53000000Y-47930000D01*
%TO.C,D5*%
X53000000Y-62040000D02*
X53000000Y-62690000D01*
X54120000Y-62690000D02*
X51880000Y-62690000D01*
X51880000Y-62690000D02*
X51880000Y-66930000D01*
X54120000Y-63290000D02*
X51880000Y-63290000D01*
X54120000Y-63410000D02*
X51880000Y-63410000D01*
X54120000Y-63530000D02*
X51880000Y-63530000D01*
X54120000Y-66930000D02*
X54120000Y-62690000D01*
X51880000Y-66930000D02*
X54120000Y-66930000D01*
X53000000Y-67580000D02*
X53000000Y-66930000D01*
%TO.C,R1*%
X107670000Y-71620000D02*
X107670000Y-75460000D01*
X105830000Y-71620000D02*
X105830000Y-75460000D01*
%TO.C,R2*%
X53920000Y-34200000D02*
X53920000Y-38040000D01*
X52080000Y-34200000D02*
X52080000Y-38040000D01*
%TO.C,R3*%
X46080000Y-37960000D02*
X46080000Y-34120000D01*
X47920000Y-37960000D02*
X47920000Y-34120000D01*
%TO.C,R4*%
X47920000Y-72620000D02*
X47920000Y-76460000D01*
X46080000Y-72620000D02*
X46080000Y-76460000D01*
%TO.C,R5*%
X113880000Y-42420000D02*
X110040000Y-42420000D01*
X113880000Y-40580000D02*
X110040000Y-40580000D01*
%TO.C,R6*%
X125920000Y-53040000D02*
X125920000Y-56880000D01*
X124080000Y-53040000D02*
X124080000Y-56880000D01*
%TO.C,R7*%
X107080000Y-38460000D02*
X107080000Y-34620000D01*
X108920000Y-38460000D02*
X108920000Y-34620000D01*
%TO.C,R8*%
X114130000Y-69670000D02*
X110290000Y-69670000D01*
X114130000Y-67830000D02*
X110290000Y-67830000D01*
%TO.C,R9*%
X69540000Y-46080000D02*
X73380000Y-46080000D01*
X69540000Y-47920000D02*
X73380000Y-47920000D01*
%TO.C,R10*%
X53920000Y-72620000D02*
X53920000Y-76460000D01*
X52080000Y-72620000D02*
X52080000Y-76460000D01*
%TO.C,R11*%
X69540000Y-63080000D02*
X73380000Y-63080000D01*
X69540000Y-64920000D02*
X73380000Y-64920000D01*
%TO.C,C2*%
X72630000Y-38620000D02*
X72945000Y-38620000D01*
X72630000Y-38620000D02*
X72630000Y-33380000D01*
X75055000Y-38620000D02*
X75370000Y-38620000D01*
X75370000Y-38620000D02*
X75370000Y-33380000D01*
X72630000Y-33380000D02*
X72945000Y-33380000D01*
X75055000Y-33380000D02*
X75370000Y-33380000D01*
%TO.C,C1*%
X98195225Y-43525000D02*
X98695225Y-43525000D01*
X98445225Y-43275000D02*
X98445225Y-43775000D01*
X101000000Y-42420000D02*
X101000000Y-43960000D01*
X101000000Y-46040000D02*
X101000000Y-47580000D01*
X101040000Y-42420000D02*
X101040000Y-43960000D01*
X101040000Y-46040000D02*
X101040000Y-47580000D01*
X101080000Y-42421000D02*
X101080000Y-43960000D01*
X101080000Y-46040000D02*
X101080000Y-47579000D01*
X101120000Y-42422000D02*
X101120000Y-43960000D01*
X101120000Y-46040000D02*
X101120000Y-47578000D01*
X101160000Y-42424000D02*
X101160000Y-43960000D01*
X101160000Y-46040000D02*
X101160000Y-47576000D01*
X101200000Y-42427000D02*
X101200000Y-43960000D01*
X101200000Y-46040000D02*
X101200000Y-47573000D01*
X101240000Y-42431000D02*
X101240000Y-43960000D01*
X101240000Y-46040000D02*
X101240000Y-47569000D01*
X101280000Y-42435000D02*
X101280000Y-43960000D01*
X101280000Y-46040000D02*
X101280000Y-47565000D01*
X101320000Y-42439000D02*
X101320000Y-43960000D01*
X101320000Y-46040000D02*
X101320000Y-47561000D01*
X101360000Y-42444000D02*
X101360000Y-43960000D01*
X101360000Y-46040000D02*
X101360000Y-47556000D01*
X101400000Y-42450000D02*
X101400000Y-43960000D01*
X101400000Y-46040000D02*
X101400000Y-47550000D01*
X101440000Y-42457000D02*
X101440000Y-43960000D01*
X101440000Y-46040000D02*
X101440000Y-47543000D01*
X101480000Y-42464000D02*
X101480000Y-43960000D01*
X101480000Y-46040000D02*
X101480000Y-47536000D01*
X101520000Y-42472000D02*
X101520000Y-43960000D01*
X101520000Y-46040000D02*
X101520000Y-47528000D01*
X101560000Y-42480000D02*
X101560000Y-43960000D01*
X101560000Y-46040000D02*
X101560000Y-47520000D01*
X101600000Y-42489000D02*
X101600000Y-43960000D01*
X101600000Y-46040000D02*
X101600000Y-47511000D01*
X101640000Y-42499000D02*
X101640000Y-43960000D01*
X101640000Y-46040000D02*
X101640000Y-47501000D01*
X101680000Y-42509000D02*
X101680000Y-43960000D01*
X101680000Y-46040000D02*
X101680000Y-47491000D01*
X101721000Y-42520000D02*
X101721000Y-43960000D01*
X101721000Y-46040000D02*
X101721000Y-47480000D01*
X101761000Y-42532000D02*
X101761000Y-43960000D01*
X101761000Y-46040000D02*
X101761000Y-47468000D01*
X101801000Y-42545000D02*
X101801000Y-43960000D01*
X101801000Y-46040000D02*
X101801000Y-47455000D01*
X101841000Y-42558000D02*
X101841000Y-43960000D01*
X101841000Y-46040000D02*
X101841000Y-47442000D01*
X101881000Y-42572000D02*
X101881000Y-43960000D01*
X101881000Y-46040000D02*
X101881000Y-47428000D01*
X101921000Y-42586000D02*
X101921000Y-43960000D01*
X101921000Y-46040000D02*
X101921000Y-47414000D01*
X101961000Y-42602000D02*
X101961000Y-43960000D01*
X101961000Y-46040000D02*
X101961000Y-47398000D01*
X102001000Y-42618000D02*
X102001000Y-43960000D01*
X102001000Y-46040000D02*
X102001000Y-47382000D01*
X102041000Y-42635000D02*
X102041000Y-43960000D01*
X102041000Y-46040000D02*
X102041000Y-47365000D01*
X102081000Y-42652000D02*
X102081000Y-43960000D01*
X102081000Y-46040000D02*
X102081000Y-47348000D01*
X102121000Y-42671000D02*
X102121000Y-43960000D01*
X102121000Y-46040000D02*
X102121000Y-47329000D01*
X102161000Y-42690000D02*
X102161000Y-43960000D01*
X102161000Y-46040000D02*
X102161000Y-47310000D01*
X102201000Y-42710000D02*
X102201000Y-43960000D01*
X102201000Y-46040000D02*
X102201000Y-47290000D01*
X102241000Y-42732000D02*
X102241000Y-43960000D01*
X102241000Y-46040000D02*
X102241000Y-47268000D01*
X102281000Y-42753000D02*
X102281000Y-43960000D01*
X102281000Y-46040000D02*
X102281000Y-47247000D01*
X102321000Y-42776000D02*
X102321000Y-43960000D01*
X102321000Y-46040000D02*
X102321000Y-47224000D01*
X102361000Y-42800000D02*
X102361000Y-43960000D01*
X102361000Y-46040000D02*
X102361000Y-47200000D01*
X102401000Y-42825000D02*
X102401000Y-43960000D01*
X102401000Y-46040000D02*
X102401000Y-47175000D01*
X102441000Y-42851000D02*
X102441000Y-43960000D01*
X102441000Y-46040000D02*
X102441000Y-47149000D01*
X102481000Y-42878000D02*
X102481000Y-43960000D01*
X102481000Y-46040000D02*
X102481000Y-47122000D01*
X102521000Y-42905000D02*
X102521000Y-43960000D01*
X102521000Y-46040000D02*
X102521000Y-47095000D01*
X102561000Y-42935000D02*
X102561000Y-43960000D01*
X102561000Y-46040000D02*
X102561000Y-47065000D01*
X102601000Y-42965000D02*
X102601000Y-43960000D01*
X102601000Y-46040000D02*
X102601000Y-47035000D01*
X102641000Y-42996000D02*
X102641000Y-43960000D01*
X102641000Y-46040000D02*
X102641000Y-47004000D01*
X102681000Y-43029000D02*
X102681000Y-43960000D01*
X102681000Y-46040000D02*
X102681000Y-46971000D01*
X102721000Y-43063000D02*
X102721000Y-43960000D01*
X102721000Y-46040000D02*
X102721000Y-46937000D01*
X102761000Y-43099000D02*
X102761000Y-43960000D01*
X102761000Y-46040000D02*
X102761000Y-46901000D01*
X102801000Y-43136000D02*
X102801000Y-43960000D01*
X102801000Y-46040000D02*
X102801000Y-46864000D01*
X102841000Y-43174000D02*
X102841000Y-43960000D01*
X102841000Y-46040000D02*
X102841000Y-46826000D01*
X102881000Y-43215000D02*
X102881000Y-43960000D01*
X102881000Y-46040000D02*
X102881000Y-46785000D01*
X102921000Y-43257000D02*
X102921000Y-43960000D01*
X102921000Y-46040000D02*
X102921000Y-46743000D01*
X102961000Y-43301000D02*
X102961000Y-43960000D01*
X102961000Y-46040000D02*
X102961000Y-46699000D01*
X103001000Y-43347000D02*
X103001000Y-43960000D01*
X103001000Y-46040000D02*
X103001000Y-46653000D01*
X103041000Y-43395000D02*
X103041000Y-46605000D01*
X103081000Y-43446000D02*
X103081000Y-46554000D01*
X103121000Y-43500000D02*
X103121000Y-46500000D01*
X103161000Y-43557000D02*
X103161000Y-46443000D01*
X103201000Y-43617000D02*
X103201000Y-46383000D01*
X103241000Y-43681000D02*
X103241000Y-46319000D01*
X103281000Y-43749000D02*
X103281000Y-46251000D01*
X103321000Y-43822000D02*
X103321000Y-46178000D01*
X103361000Y-43902000D02*
X103361000Y-46098000D01*
X103401000Y-43989000D02*
X103401000Y-46011000D01*
X103441000Y-44085000D02*
X103441000Y-45915000D01*
X103481000Y-44195000D02*
X103481000Y-45805000D01*
X103521000Y-44323000D02*
X103521000Y-45677000D01*
X103561000Y-44482000D02*
X103561000Y-45518000D01*
X103601000Y-44716000D02*
X103601000Y-45284000D01*
X103620000Y-45000000D02*
G75*
G03*
X103620000Y-45000000I-2620000J0D01*
G01*
%TO.C,U1*%
X64670000Y-57960000D02*
X74950000Y-57960000D01*
X74950000Y-57960000D02*
X74950000Y-52660000D01*
X64670000Y-56310000D02*
X64670000Y-57960000D01*
X64670000Y-52660000D02*
X64670000Y-54310000D01*
X74950000Y-52660000D02*
X64670000Y-52660000D01*
X64670000Y-56310000D02*
G75*
G03*
X64670000Y-54310000I0J1000000D01*
G01*
%TD*%
M02*
